<svg xmlns="http://www.w3.org/2000/svg" version="1.1" width="256" height="143">
<rect x="0" y="0" width="256" height="143" fill="#f0f0f0" />
<g transform="scale(1.000000) translate(0.5 0.5)">
<ellipse fill="#212c0b" fill-opacity="0.580392" cx="148" cy="71" rx="171" ry="142" />
<ellipse fill="#0f1e06" fill-opacity="0.713725" cx="246" cy="131" rx="25" ry="51" />
<ellipse fill="#060704" fill-opacity="0.419608" cx="21" cy="7" rx="37" ry="40" />
<ellipse fill="#d1cfc1" fill-opacity="0.396078" cx="45" cy="109" rx="37" ry="36" />
<ellipse fill="#b5c0b1" fill-opacity="0.392157" cx="150" cy="80" rx="38" ry="28" />
<ellipse fill="#bfbfaf" fill-opacity="0.623529" cx="78" cy="78" rx="20" ry="18" />
<ellipse fill="#505542" fill-opacity="0.509804" cx="255" cy="48" rx="33" ry="55" />
<ellipse fill="#3d522d" fill-opacity="0.486275" cx="217" cy="99" rx="30" ry="23" />
<ellipse fill="#8c918a" fill-opacity="0.513725" cx="180" cy="12" rx="53" ry="71" />
<ellipse fill="#c9ccc4" fill-opacity="0.505882" cx="33" cy="142" rx="16" ry="52" />
<ellipse fill="#2f4f00" fill-opacity="0.482353" cx="72" cy="135" rx="12" ry="11" />
<ellipse fill="#000000" fill-opacity="0.466667" cx="10" cy="35" rx="35" ry="5" />
<ellipse fill="#cdd1be" fill-opacity="0.627451" cx="150" cy="96" rx="19" ry="8" />
<ellipse fill="#8ea061" fill-opacity="0.509804" cx="108" cy="116" rx="31" ry="36" />
<ellipse fill="#61665c" fill-opacity="0.647059" cx="52" cy="8" rx="35" ry="24" />
<ellipse fill="#061318" fill-opacity="0.447059" cx="52" cy="129" rx="3" ry="17" />
<ellipse fill="#67695e" fill-opacity="0.725490" cx="15" cy="78" rx="11" ry="29" />
<ellipse fill="#6a6f6a" fill-opacity="0.525490" cx="144" cy="73" rx="16" ry="19" />
<ellipse fill="#b9d191" fill-opacity="0.286275" cx="172" cy="112" rx="28" ry="13" />
<ellipse fill="#c3c19c" fill-opacity="0.419608" cx="182" cy="9" rx="22" ry="11" />
<ellipse fill="#d3d7cb" fill-opacity="0.470588" cx="178" cy="76" rx="19" ry="6" />
<ellipse fill="#606968" fill-opacity="0.501961" cx="179" cy="40" rx="18" ry="22" />
<ellipse fill="#3e444a" fill-opacity="0.427451" cx="237" cy="42" rx="24" ry="14" />
<ellipse fill="#858b81" fill-opacity="0.662745" cx="109" cy="53" rx="22" ry="32" />
<ellipse fill="#52564f" fill-opacity="0.615686" cx="71" cy="53" rx="17" ry="10" />
<ellipse fill="#32411c" fill-opacity="0.419608" cx="232" cy="0" rx="32" ry="7" />
<ellipse fill="#010a01" fill-opacity="0.454902" cx="246" cy="142" rx="20" ry="22" />
<ellipse fill="#7e7e70" fill-opacity="0.835294" cx="41" cy="67" rx="13" ry="22" />
<ellipse fill="#322d1e" fill-opacity="0.490196" cx="1" cy="138" rx="8" ry="13" />
<ellipse fill="#344c1d" fill-opacity="0.407843" cx="168" cy="133" rx="8" ry="10" />
<ellipse fill="#315516" fill-opacity="0.325490" cx="142" cy="116" rx="7" ry="17" />
<ellipse fill="#c1c67f" fill-opacity="0.270588" cx="133" cy="142" rx="31" ry="14" />
<ellipse fill="#9ba090" fill-opacity="0.552941" cx="204" cy="72" rx="16" ry="10" />
<ellipse fill="#57572f" fill-opacity="0.549020" cx="211" cy="139" rx="14" ry="7" />
<ellipse fill="#414946" fill-opacity="0.525490" cx="49" cy="109" rx="4" ry="9" />
<ellipse fill="#a1a499" fill-opacity="0.466667" cx="83" cy="48" rx="19" ry="5" />
<ellipse fill="#aead9c" fill-opacity="0.576471" cx="215" cy="128" rx="9" ry="5" />
<ellipse fill="#b9b9ac" fill-opacity="0.709804" cx="54" cy="96" rx="7" ry="14" />
<ellipse fill="#d4d6cc" fill-opacity="0.415686" cx="155" cy="108" rx="4" ry="20" />
<ellipse fill="#fff9e0" fill-opacity="0.403922" cx="69" cy="65" rx="3" ry="9" />
<ellipse fill="#8f9672" fill-opacity="0.545098" cx="188" cy="125" rx="20" ry="16" />
<ellipse fill="#7b7f5d" fill-opacity="0.317647" cx="228" cy="67" rx="17" ry="34" />
<ellipse fill="#161a19" fill-opacity="0.317647" cx="220" cy="118" rx="13" ry="9" />
<ellipse fill="#000000" fill-opacity="0.549020" cx="7" cy="66" rx="4" ry="4" />
<ellipse fill="#9f9f88" fill-opacity="0.411765" cx="229" cy="16" rx="17" ry="11" />
<ellipse fill="#4e603e" fill-opacity="0.415686" cx="191" cy="108" rx="6" ry="24" />
<ellipse fill="#060900" fill-opacity="0.454902" cx="11" cy="38" rx="10" ry="8" />
<ellipse fill="#6b6f61" fill-opacity="0.513725" cx="30" cy="24" rx="49" ry="6" />
<ellipse fill="#70756c" fill-opacity="0.890196" cx="165" cy="67" rx="20" ry="3" />
<ellipse fill="#7b7a6f" fill-opacity="0.400000" cx="6" cy="106" rx="28" ry="12" />
<ellipse fill="#6a706f" fill-opacity="0.400000" cx="96" cy="22" rx="42" ry="25" />
<ellipse fill="#1a1b14" fill-opacity="0.172549" cx="26" cy="53" rx="11" ry="19" />
<ellipse fill="#a8ada7" fill-opacity="0.435294" cx="213" cy="31" rx="11" ry="10" />
<ellipse fill="#141910" fill-opacity="0.435294" cx="72" cy="55" rx="15" ry="3" />
<ellipse fill="#1b2829" fill-opacity="0.533333" cx="151" cy="86" rx="4" ry="4" />
<ellipse fill="#abab91" fill-opacity="0.650980" cx="136" cy="2" rx="8" ry="12" />
<ellipse fill="#2b3232" fill-opacity="0.415686" cx="255" cy="35" rx="12" ry="16" />
<ellipse fill="#909287" fill-opacity="0.666667" cx="0" cy="52" rx="3" ry="18" />
<ellipse fill="#16201d" fill-opacity="0.490196" cx="105" cy="46" rx="3" ry="5" />
<ellipse fill="#0e0000" fill-opacity="0.274510" cx="59" cy="70" rx="4" ry="7" />
<ellipse fill="#4f595a" fill-opacity="0.647059" cx="167" cy="88" rx="3" ry="6" />
<ellipse fill="#797f57" fill-opacity="0.462745" cx="65" cy="125" rx="7" ry="18" />
<ellipse fill="#9fa191" fill-opacity="0.984314" cx="90" cy="70" rx="9" ry="12" />
<ellipse fill="#2c312a" fill-opacity="0.447059" cx="112" cy="69" rx="3" ry="7" />
<ellipse fill="#324f29" fill-opacity="0.427451" cx="117" cy="104" rx="5" ry="7" />
<ellipse fill="#8e9083" fill-opacity="0.564706" cx="12" cy="78" rx="15" ry="5" />
<ellipse fill="#a1a394" fill-opacity="0.721569" cx="17" cy="141" rx="9" ry="11" />
<ellipse fill="#c4c3b0" fill-opacity="0.556863" cx="53" cy="59" rx="5" ry="6" />
<ellipse fill="#525956" fill-opacity="0.615686" cx="199" cy="48" rx="33" ry="2" />
<ellipse fill="#313627" fill-opacity="0.454902" cx="3" cy="5" rx="16" ry="21" />
<ellipse fill="#b4b28a" fill-opacity="0.435294" cx="115" cy="115" rx="15" ry="5" />
<ellipse fill="#afb39f" fill-opacity="0.478431" cx="174" cy="121" rx="11" ry="6" />
<ellipse fill="#2d342f" fill-opacity="0.482353" cx="99" cy="57" rx="3" ry="6" />
<ellipse fill="#7d8c64" fill-opacity="0.619608" cx="173" cy="107" rx="12" ry="9" />
<ellipse fill="#f6edd5" fill-opacity="0.541176" cx="76" cy="67" rx="6" ry="3" />
<ellipse fill="#b0b3a5" fill-opacity="0.509804" cx="180" cy="91" rx="4" ry="17" />
<ellipse fill="#405b24" fill-opacity="0.384314" cx="161" cy="131" rx="10" ry="7" />
<ellipse fill="#d4d0bf" fill-opacity="0.400000" cx="197" cy="56" rx="5" ry="5" />
<ellipse fill="#384e36" fill-opacity="0.494118" cx="188" cy="92" rx="6" ry="7" />
<ellipse fill="#313d37" fill-opacity="0.443137" cx="46" cy="107" rx="3" ry="7" />
<ellipse fill="#7d837b" fill-opacity="0.666667" cx="146" cy="54" rx="25" ry="22" />
<ellipse fill="#ccd5b0" fill-opacity="0.517647" cx="133" cy="89" rx="5" ry="5" />
<ellipse fill="#c5c7c1" fill-opacity="0.568627" cx="162" cy="89" rx="3" ry="14" />
<ellipse fill="#75786c" fill-opacity="0.509804" cx="246" cy="58" rx="44" ry="8" />
<ellipse fill="#eddbb2" fill-opacity="0.329412" cx="34" cy="69" rx="4" ry="5" />
<ellipse fill="#c4cbd0" fill-opacity="0.392157" cx="179" cy="16" rx="16" ry="3" />
<ellipse fill="#6f8958" fill-opacity="0.439216" cx="108" cy="91" rx="24" ry="8" />
<ellipse fill="#021500" fill-opacity="0.356863" cx="78" cy="142" rx="7" ry="8" />
<ellipse fill="#838258" fill-opacity="0.333333" cx="230" cy="10" rx="53" ry="6" />
<ellipse fill="#ffffe3" fill-opacity="0.188235" cx="95" cy="49" rx="3" ry="14" />
<ellipse fill="#41483e" fill-opacity="0.541176" cx="16" cy="80" rx="2" ry="11" />
<ellipse fill="#304023" fill-opacity="0.266667" cx="237" cy="109" rx="26" ry="23" />
<ellipse fill="#3a422d" fill-opacity="0.556863" cx="190" cy="125" rx="5" ry="4" />
<ellipse fill="#c0c4b5" fill-opacity="0.494118" cx="38" cy="140" rx="12" ry="37" />
<ellipse fill="#bcbd85" fill-opacity="0.258824" cx="191" cy="100" rx="12" ry="4" />
<ellipse fill="#abac95" fill-opacity="0.494118" cx="84" cy="98" rx="13" ry="6" />
<ellipse fill="#0e1308" fill-opacity="0.415686" cx="42" cy="31" rx="7" ry="4" />
<ellipse fill="#cdc4bc" fill-opacity="0.415686" cx="39" cy="92" rx="13" ry="5" />
<ellipse fill="#4d504c" fill-opacity="0.439216" cx="89" cy="117" rx="8" ry="4" />
<ellipse fill="#bbb69b" fill-opacity="0.564706" cx="101" cy="69" rx="5" ry="4" />
</g>
</svg>