<svg xmlns="http://www.w3.org/2000/svg" version="1.1" width="256" height="143">
<rect x="0" y="0" width="256" height="143" fill="#f0f0f0" />
<g transform="scale(1.000000) translate(0.5 0.5)">
<ellipse fill="#181504" fill-opacity="0.862745" cx="125" cy="68" rx="176" ry="123" />
<ellipse fill="#6e6852" fill-opacity="0.498039" cx="173" cy="23" rx="46" ry="19" />
<ellipse fill="#9b8b6e" fill-opacity="0.513725" cx="172" cy="107" rx="11" ry="20" />
<ellipse fill="#605c48" fill-opacity="0.439216" cx="128" cy="115" rx="20" ry="112" />
<ellipse fill="#030500" fill-opacity="0.447059" cx="246" cy="43" rx="32" ry="38" />
<ellipse fill="#000000" fill-opacity="0.607843" cx="204" cy="103" rx="20" ry="16" />
<ellipse fill="#1b180c" fill-opacity="0.556863" cx="29" cy="105" rx="35" ry="52" />
<ellipse fill="#010300" fill-opacity="0.568627" cx="182" cy="71" rx="20" ry="19" />
<ellipse fill="#78735e" fill-opacity="0.635294" cx="189" cy="40" rx="13" ry="13" />
<ellipse fill="#030400" fill-opacity="0.619608" cx="182" cy="142" rx="32" ry="17" />
<ellipse fill="#807052" fill-opacity="0.431373" cx="83" cy="123" rx="11" ry="33" />
<ellipse fill="#dac49e" fill-opacity="0.337255" cx="221" cy="129" rx="12" ry="7" />
<ellipse fill="#0f110b" fill-opacity="0.513725" cx="154" cy="46" rx="23" ry="15" />
<ellipse fill="#968460" fill-opacity="0.615686" cx="99" cy="67" rx="5" ry="12" />
<ellipse fill="#6b634d" fill-opacity="0.458824" cx="218" cy="77" rx="21" ry="11" />
<ellipse fill="#000200" fill-opacity="0.474510" cx="82" cy="77" rx="10" ry="17" />
<ellipse fill="#7b714f" fill-opacity="0.647059" cx="95" cy="24" rx="9" ry="7" />
<ellipse fill="#7b6d50" fill-opacity="0.545098" cx="140" cy="121" rx="11" ry="15" />
<ellipse fill="#0d0d02" fill-opacity="0.396078" cx="101" cy="110" rx="8" ry="36" />
<ellipse fill="#ffffe4" fill-opacity="0.392157" cx="93" cy="117" rx="8" ry="3" />
<ellipse fill="#201e13" fill-opacity="0.686275" cx="160" cy="85" rx="5" ry="33" />
<ellipse fill="#080800" fill-opacity="0.580392" cx="216" cy="7" rx="10" ry="10" />
<ellipse fill="#7d6e4e" fill-opacity="0.776471" cx="87" cy="58" rx="13" ry="3" />
<ellipse fill="#10120a" fill-opacity="0.776471" cx="229" cy="54" rx="29" ry="9" />
<ellipse fill="#605942" fill-opacity="0.521569" cx="228" cy="97" rx="7" ry="17" />
<ellipse fill="#756d57" fill-opacity="0.498039" cx="143" cy="19" rx="11" ry="13" />
<ellipse fill="#000000" fill-opacity="0.513725" cx="252" cy="97" rx="15" ry="7" />
<ellipse fill="#767055" fill-opacity="0.239216" cx="118" cy="45" rx="16" ry="17" />
<ellipse fill="#0d1006" fill-opacity="0.360784" cx="93" cy="107" rx="27" ry="5" />
<ellipse fill="#2c2b1f" fill-opacity="0.792157" cx="250" cy="19" rx="17" ry="29" />
<ellipse fill="#ad9f83" fill-opacity="0.427451" cx="86" cy="142" rx="8" ry="10" />
<ellipse fill="#655a42" fill-opacity="0.329412" cx="38" cy="66" rx="6" ry="25" />
<ellipse fill="#2c281b" fill-opacity="0.603922" cx="171" cy="24" rx="4" ry="22" />
<ellipse fill="#1c1709" fill-opacity="0.494118" cx="91" cy="127" rx="12" ry="7" />
<ellipse fill="#0f1007" fill-opacity="0.831373" cx="198" cy="138" rx="5" ry="58" />
<ellipse fill="#2d2a1c" fill-opacity="0.423529" cx="153" cy="103" rx="23" ry="10" />
<ellipse fill="#625945" fill-opacity="0.474510" cx="32" cy="131" rx="4" ry="10" />
<ellipse fill="#0a0f0a" fill-opacity="0.254902" cx="116" cy="95" rx="4" ry="39" />
<ellipse fill="#555340" fill-opacity="0.501961" cx="201" cy="29" rx="19" ry="13" />
<ellipse fill="#887658" fill-opacity="0.619608" cx="127" cy="128" rx="6" ry="5" />
<ellipse fill="#000100" fill-opacity="0.498039" cx="216" cy="100" rx="6" ry="19" />
<ellipse fill="#090d06" fill-opacity="0.388235" cx="17" cy="94" rx="35" ry="10" />
<ellipse fill="#030300" fill-opacity="0.600000" cx="226" cy="36" rx="6" ry="16" />
<ellipse fill="#000000" fill-opacity="0.631373" cx="228" cy="142" rx="5" ry="9" />
<ellipse fill="#a1987e" fill-opacity="0.364706" cx="168" cy="89" rx="5" ry="5" />
<ellipse fill="#645d49" fill-opacity="0.541176" cx="215" cy="124" rx="12" ry="5" />
<ellipse fill="#040806" fill-opacity="0.521569" cx="144" cy="41" rx="9" ry="8" />
<ellipse fill="#756e5a" fill-opacity="0.294118" cx="241" cy="141" rx="10" ry="10" />
<ellipse fill="#060a04" fill-opacity="0.564706" cx="202" cy="61" rx="9" ry="6" />
<ellipse fill="#474332" fill-opacity="0.862745" cx="146" cy="5" rx="35" ry="3" />
<ellipse fill="#938162" fill-opacity="0.372549" cx="217" cy="134" rx="6" ry="9" />
<ellipse fill="#2e2a1b" fill-opacity="0.925490" cx="61" cy="56" rx="5" ry="123" />
<ellipse fill="#a89979" fill-opacity="0.411765" cx="171" cy="119" rx="9" ry="5" />
<ellipse fill="#0b0e06" fill-opacity="0.611765" cx="241" cy="78" rx="4" ry="22" />
<ellipse fill="#ffffe6" fill-opacity="0.133333" cx="90" cy="112" rx="6" ry="9" />
<ellipse fill="#8d8064" fill-opacity="0.501961" cx="180" cy="109" rx="4" ry="11" />
<ellipse fill="#121308" fill-opacity="0.560784" cx="101" cy="111" rx="5" ry="8" />
<ellipse fill="#d0be9c" fill-opacity="0.121569" cx="193" cy="46" rx="13" ry="9" />
<ellipse fill="#594f37" fill-opacity="0.592157" cx="103" cy="51" rx="14" ry="6" />
<ellipse fill="#464131" fill-opacity="0.415686" cx="234" cy="85" rx="3" ry="59" />
<ellipse fill="#746e53" fill-opacity="0.580392" cx="128" cy="33" rx="8" ry="6" />
<ellipse fill="#796e58" fill-opacity="0.588235" cx="0" cy="120" rx="5" ry="4" />
<ellipse fill="#3a382a" fill-opacity="0.462745" cx="115" cy="5" rx="24" ry="27" />
<ellipse fill="#1f1f13" fill-opacity="0.505882" cx="27" cy="34" rx="9" ry="16" />
<ellipse fill="#050900" fill-opacity="0.454902" cx="36" cy="62" rx="4" ry="10" />
<ellipse fill="#8c8165" fill-opacity="0.466667" cx="36" cy="47" rx="4" ry="4" />
<ellipse fill="#201e12" fill-opacity="0.564706" cx="157" cy="98" rx="6" ry="40" />
<ellipse fill="#6c6349" fill-opacity="0.423529" cx="122" cy="99" rx="11" ry="6" />
<ellipse fill="#3d3b2c" fill-opacity="0.647059" cx="0" cy="57" rx="17" ry="18" />
<ellipse fill="#181d15" fill-opacity="0.521569" cx="133" cy="58" rx="4" ry="9" />
<ellipse fill="#605c49" fill-opacity="0.580392" cx="197" cy="23" rx="25" ry="6" />
<ellipse fill="#544c37" fill-opacity="0.286275" cx="162" cy="43" rx="6" ry="27" />
<ellipse fill="#8d7e5e" fill-opacity="0.427451" cx="97" cy="67" rx="6" ry="9" />
<ellipse fill="#05100e" fill-opacity="0.470588" cx="128" cy="76" rx="3" ry="7" />
<ellipse fill="#5a4d39" fill-opacity="0.513725" cx="33" cy="110" rx="8" ry="4" />
<ellipse fill="#0b0d05" fill-opacity="0.647059" cx="7" cy="142" rx="3" ry="33" />
<ellipse fill="#36301e" fill-opacity="0.388235" cx="104" cy="58" rx="8" ry="10" />
<ellipse fill="#454131" fill-opacity="0.482353" cx="179" cy="30" rx="38" ry="4" />
<ellipse fill="#766c4b" fill-opacity="0.725490" cx="93" cy="27" rx="10" ry="3" />
<ellipse fill="#2b291e" fill-opacity="0.482353" cx="62" cy="10" rx="34" ry="20" />
<ellipse fill="#030600" fill-opacity="0.564706" cx="221" cy="114" rx="4" ry="7" />
<ellipse fill="#4e4a3a" fill-opacity="0.494118" cx="251" cy="40" rx="10" ry="5" />
<ellipse fill="#7b6f4e" fill-opacity="0.572549" cx="79" cy="56" rx="3" ry="6" />
<ellipse fill="#121408" fill-opacity="0.509804" cx="99" cy="39" rx="6" ry="8" />
<ellipse fill="#000000" fill-opacity="0.572549" cx="183" cy="125" rx="4" ry="7" />
<ellipse fill="#070b06" fill-opacity="0.501961" cx="252" cy="121" rx="15" ry="3" />
<ellipse fill="#232013" fill-opacity="0.509804" cx="93" cy="130" rx="3" ry="12" />
<ellipse fill="#6b5e3f" fill-opacity="0.400000" cx="192" cy="125" rx="3" ry="7" />
<ellipse fill="#5d4a30" fill-opacity="0.368627" cx="69" cy="116" rx="14" ry="8" />
<ellipse fill="#3f3726" fill-opacity="0.521569" cx="158" cy="111" rx="7" ry="12" />
<ellipse fill="#615439" fill-opacity="0.474510" cx="76" cy="96" rx="5" ry="9" />
<ellipse fill="#6a644a" fill-opacity="0.494118" cx="143" cy="84" rx="7" ry="6" />
<ellipse fill="#0a0c04" fill-opacity="0.505882" cx="247" cy="65" rx="8" ry="18" />
<ellipse fill="#675f49" fill-opacity="0.529412" cx="152" cy="16" rx="13" ry="12" />
<ellipse fill="#766b54" fill-opacity="0.400000" cx="212" cy="78" rx="7" ry="7" />
<ellipse fill="#847252" fill-opacity="0.356863" cx="35" cy="78" rx="4" ry="8" />
<ellipse fill="#ffe694" fill-opacity="0.168627" cx="101" cy="16" rx="4" ry="4" />
<ellipse fill="#ac9f7c" fill-opacity="0.501961" cx="89" cy="97" rx="2" ry="3" />
<ellipse fill="#443f2c" fill-opacity="0.501961" cx="185" cy="101" rx="3" ry="18" />
<ellipse fill="#756848" fill-opacity="0.454902" cx="80" cy="29" rx="6" ry="3" />
</g>
</svg>