<svg xmlns="http://www.w3.org/2000/svg" version="1.1" width="256" height="143">
<rect x="0" y="0" width="256" height="143" fill="#f0f0f0" />
<g transform="scale(1.000000) translate(0.5 0.5)">
<ellipse fill="#141203" fill-opacity="0.890196" cx="130" cy="90" rx="173" ry="140" />
<ellipse fill="#706f61" fill-opacity="0.427451" cx="132" cy="45" rx="31" ry="51" />
<ellipse fill="#c7b795" fill-opacity="0.517647" cx="114" cy="136" rx="16" ry="11" />
<ellipse fill="#090800" fill-opacity="0.529412" cx="239" cy="90" rx="65" ry="85" />
<ellipse fill="#a79068" fill-opacity="0.666667" cx="53" cy="125" rx="16" ry="8" />
<ellipse fill="#080900" fill-opacity="0.552941" cx="4" cy="116" rx="22" ry="110" />
<ellipse fill="#cdc281" fill-opacity="0.109804" cx="81" cy="19" rx="46" ry="32" />
<ellipse fill="#1d1d13" fill-opacity="0.596078" cx="137" cy="0" rx="14" ry="53" />
<ellipse fill="#d9bb70" fill-opacity="0.364706" cx="117" cy="80" rx="9" ry="13" />
<ellipse fill="#000408" fill-opacity="0.611765" cx="131" cy="82" rx="7" ry="15" />
<ellipse fill="#aa966d" fill-opacity="0.447059" cx="54" cy="103" rx="18" ry="5" />
<ellipse fill="#a19987" fill-opacity="0.313725" cx="124" cy="47" rx="13" ry="19" />
<ellipse fill="#19190e" fill-opacity="0.682353" cx="178" cy="57" rx="29" ry="19" />
<ellipse fill="#e4f1ff" fill-opacity="0.223529" cx="144" cy="71" rx="10" ry="10" />
<ellipse fill="#aa9b78" fill-opacity="0.607843" cx="107" cy="142" rx="5" ry="25" />
<ellipse fill="#000000" fill-opacity="0.490196" cx="117" cy="111" rx="12" ry="18" />
<ellipse fill="#110f02" fill-opacity="0.529412" cx="91" cy="70" rx="16" ry="26" />
<ellipse fill="#797b7b" fill-opacity="0.501961" cx="155" cy="30" rx="7" ry="15" />
<ellipse fill="#584e35" fill-opacity="0.541176" cx="69" cy="77" rx="5" ry="53" />
<ellipse fill="#1b3872" fill-opacity="0.247059" cx="143" cy="107" rx="14" ry="30" />
<ellipse fill="#050500" fill-opacity="0.486275" cx="43" cy="142" rx="63" ry="7" />
<ellipse fill="#716b47" fill-opacity="0.639216" cx="97" cy="41" rx="20" ry="5" />
<ellipse fill="#201f11" fill-opacity="0.670588" cx="40" cy="61" rx="23" ry="30" />
<ellipse fill="#b7ae96" fill-opacity="0.913725" cx="124" cy="133" rx="3" ry="7" />
<ellipse fill="#544d35" fill-opacity="0.525490" cx="42" cy="59" rx="11" ry="9" />
<ellipse fill="#120c02" fill-opacity="0.584314" cx="118" cy="142" rx="3" ry="13" />
<ellipse fill="#161207" fill-opacity="0.454902" cx="181" cy="110" rx="26" ry="40" />
<ellipse fill="#141206" fill-opacity="0.329412" cx="129" cy="0" rx="47" ry="13" />
<ellipse fill="#463b19" fill-opacity="0.494118" cx="110" cy="59" rx="10" ry="17" />
<ellipse fill="#48608d" fill-opacity="0.388235" cx="153" cy="93" rx="4" ry="21" />
<ellipse fill="#4a597a" fill-opacity="0.250980" cx="183" cy="10" rx="9" ry="20" />
<ellipse fill="#1d1707" fill-opacity="0.454902" cx="35" cy="134" rx="8" ry="35" />
<ellipse fill="#ffe8b6" fill-opacity="0.235294" cx="46" cy="136" rx="3" ry="20" />
<ellipse fill="#241e0d" fill-opacity="0.478431" cx="74" cy="140" rx="31" ry="11" />
<ellipse fill="#a6926d" fill-opacity="0.615686" cx="65" cy="125" rx="3" ry="9" />
<ellipse fill="#3e3a25" fill-opacity="0.737255" cx="150" cy="17" rx="12" ry="7" />
<ellipse fill="#1f1f16" fill-opacity="0.749020" cx="160" cy="51" rx="23" ry="7" />
<ellipse fill="#ada17b" fill-opacity="0.486275" cx="127" cy="57" rx="6" ry="6" />
<ellipse fill="#948e7c" fill-opacity="0.741176" cx="137" cy="65" rx="6" ry="3" />
<ellipse fill="#a19674" fill-opacity="0.501961" cx="58" cy="28" rx="4" ry="4" />
<ellipse fill="#4a5975" fill-opacity="0.388235" cx="130" cy="134" rx="4" ry="24" />
<ellipse fill="#8f8d80" fill-opacity="0.450980" cx="140" cy="82" rx="3" ry="15" />
<ellipse fill="#b2a75d" fill-opacity="0.090196" cx="18" cy="29" rx="38" ry="8" />
<ellipse fill="#050400" fill-opacity="0.588235" cx="151" cy="117" rx="8" ry="7" />
<ellipse fill="#636b76" fill-opacity="0.494118" cx="150" cy="63" rx="2" ry="22" />
<ellipse fill="#080700" fill-opacity="0.462745" cx="224" cy="54" rx="24" ry="19" />
<ellipse fill="#1d1b0d" fill-opacity="0.603922" cx="54" cy="86" rx="14" ry="14" />
<ellipse fill="#2c2716" fill-opacity="0.627451" cx="255" cy="108" rx="10" ry="49" />
<ellipse fill="#121209" fill-opacity="0.588235" cx="116" cy="119" rx="3" ry="18" />
<ellipse fill="#5d5348" fill-opacity="0.478431" cx="149" cy="142" rx="7" ry="16" />
<ellipse fill="#0c0d06" fill-opacity="0.662745" cx="128" cy="96" rx="7" ry="7" />
<ellipse fill="#cebf9d" fill-opacity="0.419608" cx="113" cy="142" rx="5" ry="8" />
<ellipse fill="#5c5238" fill-opacity="0.549020" cx="57" cy="82" rx="4" ry="8" />
<ellipse fill="#2a2416" fill-opacity="0.564706" cx="217" cy="124" rx="12" ry="30" />
<ellipse fill="#7a7556" fill-opacity="0.478431" cx="66" cy="49" rx="7" ry="5" />
<ellipse fill="#786b4d" fill-opacity="0.333333" cx="39" cy="95" rx="8" ry="6" />
<ellipse fill="#0e0e05" fill-opacity="0.623529" cx="50" cy="39" rx="7" ry="9" />
<ellipse fill="#675533" fill-opacity="0.376471" cx="98" cy="142" rx="9" ry="17" />
<ellipse fill="#869ccf" fill-opacity="0.415686" cx="120" cy="33" rx="5" ry="4" />
<ellipse fill="#050400" fill-opacity="0.592157" cx="51" cy="114" rx="14" ry="3" />
<ellipse fill="#3d3423" fill-opacity="0.498039" cx="134" cy="38" rx="8" ry="13" />
<ellipse fill="#000000" fill-opacity="0.470588" cx="58" cy="139" rx="9" ry="10" />
<ellipse fill="#1d1d10" fill-opacity="0.921569" cx="238" cy="0" rx="21" ry="14" />
<ellipse fill="#272314" fill-opacity="0.650980" cx="168" cy="87" rx="11" ry="54" />
<ellipse fill="#c7b590" fill-opacity="0.466667" cx="59" cy="105" rx="5" ry="3" />
<ellipse fill="#141406" fill-opacity="0.447059" cx="97" cy="28" rx="9" ry="6" />
<ellipse fill="#544826" fill-opacity="0.513725" cx="122" cy="65" rx="6" ry="9" />
<ellipse fill="#18190d" fill-opacity="0.400000" cx="95" cy="2" rx="13" ry="17" />
<ellipse fill="#222213" fill-opacity="0.525490" cx="4" cy="19" rx="22" ry="40" />
<ellipse fill="#544c37" fill-opacity="0.560784" cx="65" cy="100" rx="4" ry="8" />
<ellipse fill="#141408" fill-opacity="0.450980" cx="61" cy="76" rx="3" ry="28" />
<ellipse fill="#000000" fill-opacity="0.341176" cx="46" cy="87" rx="9" ry="11" />
<ellipse fill="#5d5134" fill-opacity="0.415686" cx="75" cy="63" rx="2" ry="25" />
<ellipse fill="#273957" fill-opacity="0.482353" cx="144" cy="62" rx="9" ry="4" />
<ellipse fill="#5e593e" fill-opacity="0.411765" cx="110" cy="16" rx="18" ry="8" />
<ellipse fill="#6a5f41" fill-opacity="0.454902" cx="28" cy="100" rx="4" ry="5" />
<ellipse fill="#151b1a" fill-opacity="0.588235" cx="133" cy="92" rx="5" ry="20" />
<ellipse fill="#d8d3c4" fill-opacity="0.435294" cx="122" cy="128" rx="4" ry="3" />
<ellipse fill="#231b0a" fill-opacity="0.290196" cx="84" cy="120" rx="16" ry="38" />
<ellipse fill="#818798" fill-opacity="0.396078" cx="154" cy="37" rx="6" ry="8" />
<ellipse fill="#0a0d04" fill-opacity="0.454902" cx="18" cy="68" rx="17" ry="13" />
<ellipse fill="#030100" fill-opacity="0.372549" cx="145" cy="42" rx="3" ry="14" />
<ellipse fill="#9c8c61" fill-opacity="0.521569" cx="120" cy="82" rx="5" ry="12" />
<ellipse fill="#0b2862" fill-opacity="0.266667" cx="124" cy="29" rx="4" ry="13" />
<ellipse fill="#050700" fill-opacity="0.737255" cx="20" cy="142" rx="34" ry="4" />
<ellipse fill="#201c09" fill-opacity="0.411765" cx="147" cy="87" rx="4" ry="10" />
<ellipse fill="#363427" fill-opacity="0.298039" cx="193" cy="27" rx="12" ry="25" />
<ellipse fill="#847952" fill-opacity="0.486275" cx="114" cy="89" rx="6" ry="4" />
<ellipse fill="#3e3b28" fill-opacity="0.639216" cx="73" cy="31" rx="13" ry="15" />
<ellipse fill="#000000" fill-opacity="0.549020" cx="53" cy="107" rx="3" ry="2" />
<ellipse fill="#7c848f" fill-opacity="0.325490" cx="122" cy="47" rx="6" ry="8" />
<ellipse fill="#252217" fill-opacity="0.843137" cx="120" cy="142" rx="3" ry="5" />
<ellipse fill="#7e6f49" fill-opacity="0.521569" cx="43" cy="106" rx="5" ry="4" />
<ellipse fill="#110f02" fill-opacity="0.513725" cx="105" cy="96" rx="3" ry="22" />
<ellipse fill="#b2a27f" fill-opacity="0.568627" cx="60" cy="106" rx="3" ry="3" />
<ellipse fill="#9d9274" fill-opacity="0.501961" cx="53" cy="29" rx="7" ry="2" />
<ellipse fill="#4f4933" fill-opacity="0.470588" cx="64" cy="17" rx="14" ry="10" />
<ellipse fill="#aa9671" fill-opacity="0.345098" cx="51" cy="120" rx="17" ry="2" />
<ellipse fill="#89877c" fill-opacity="0.509804" cx="127" cy="138" rx="2" ry="14" />
<ellipse fill="#70726f" fill-opacity="0.392157" cx="149" cy="78" rx="10" ry="5" />
</g>
</svg>