<svg xmlns="http://www.w3.org/2000/svg" version="1.1" width="256" height="143">
<rect x="0" y="0" width="256" height="143" fill="#f0f0f0" />
<g transform="scale(1.000000) translate(0.5 0.5)">
<ellipse fill="#1a1e1b" fill-opacity="0.737255" cx="120" cy="69" rx="177" ry="142" />
<ellipse fill="#cbc5c2" fill-opacity="0.525490" cx="156" cy="91" rx="24" ry="17" />
<ellipse fill="#282b28" fill-opacity="0.490196" cx="213" cy="20" rx="50" ry="23" />
<ellipse fill="#262828" fill-opacity="0.533333" cx="247" cy="123" rx="49" ry="32" />
<ellipse fill="#a2a099" fill-opacity="0.505882" cx="188" cy="72" rx="27" ry="13" />
<ellipse fill="#141a19" fill-opacity="0.486275" cx="135" cy="66" rx="23" ry="15" />
<ellipse fill="#b9baa3" fill-opacity="0.560784" cx="5" cy="3" rx="24" ry="10" />
<ellipse fill="#828380" fill-opacity="0.423529" cx="84" cy="106" rx="14" ry="52" />
<ellipse fill="#fcf6ec" fill-opacity="0.478431" cx="136" cy="102" rx="4" ry="13" />
<ellipse fill="#2f363b" fill-opacity="0.486275" cx="9" cy="69" rx="44" ry="24" />
<ellipse fill="#343937" fill-opacity="0.666667" cx="160" cy="41" rx="18" ry="21" />
<ellipse fill="#34322c" fill-opacity="0.513725" cx="149" cy="125" rx="8" ry="30" />
<ellipse fill="#d0c1a9" fill-opacity="0.266667" cx="45" cy="95" rx="13" ry="13" />
<ellipse fill="#81807a" fill-opacity="0.937255" cx="203" cy="78" rx="10" ry="18" />
<ellipse fill="#4a494e" fill-opacity="0.380392" cx="177" cy="108" rx="14" ry="40" />
<ellipse fill="#86827b" fill-opacity="0.376471" cx="122" cy="116" rx="14" ry="19" />
<ellipse fill="#2d3233" fill-opacity="0.513725" cx="121" cy="77" rx="19" ry="17" />
<ellipse fill="#fffffb" fill-opacity="0.627451" cx="153" cy="79" rx="7" ry="3" />
<ellipse fill="#7c7f81" fill-opacity="0.192157" cx="131" cy="24" rx="45" ry="19" />
<ellipse fill="#000500" fill-opacity="0.513725" cx="187" cy="91" rx="8" ry="5" />
<ellipse fill="#787d69" fill-opacity="0.447059" cx="30" cy="2" rx="20" ry="27" />
<ellipse fill="#62625d" fill-opacity="0.678431" cx="222" cy="64" rx="26" ry="15" />
<ellipse fill="#d4cdc2" fill-opacity="0.498039" cx="166" cy="75" rx="8" ry="5" />
<ellipse fill="#1d2526" fill-opacity="0.376471" cx="0" cy="116" rx="8" ry="54" />
<ellipse fill="#fcf9f5" fill-opacity="0.533333" cx="140" cy="88" rx="4" ry="6" />
<ellipse fill="#000311" fill-opacity="0.145098" cx="61" cy="142" rx="7" ry="102" />
<ellipse fill="#8a8a86" fill-opacity="0.470588" cx="110" cy="45" rx="11" ry="6" />
<ellipse fill="#f1f9ff" fill-opacity="0.411765" cx="159" cy="100" rx="4" ry="10" />
<ellipse fill="#1b0a00" fill-opacity="0.447059" cx="164" cy="88" rx="3" ry="5" />
<ellipse fill="#706f66" fill-opacity="0.490196" cx="26" cy="131" rx="17" ry="15" />
<ellipse fill="#8b8a82" fill-opacity="0.474510" cx="129" cy="30" rx="11" ry="7" />
<ellipse fill="#6c706d" fill-opacity="0.321569" cx="175" cy="10" rx="27" ry="11" />
<ellipse fill="#383b36" fill-opacity="0.415686" cx="147" cy="53" rx="25" ry="24" />
<ellipse fill="#3e403f" fill-opacity="0.764706" cx="249" cy="27" rx="9" ry="34" />
<ellipse fill="#2b2d2b" fill-opacity="0.505882" cx="250" cy="109" rx="9" ry="31" />
<ellipse fill="#a4a8a6" fill-opacity="0.470588" cx="192" cy="74" rx="10" ry="9" />
<ellipse fill="#313636" fill-opacity="0.521569" cx="126" cy="75" rx="17" ry="15" />
<ellipse fill="#252824" fill-opacity="0.364706" cx="220" cy="16" rx="23" ry="15" />
<ellipse fill="#898780" fill-opacity="0.223529" cx="94" cy="94" rx="23" ry="14" />
<ellipse fill="#00000f" fill-opacity="0.552941" cx="180" cy="69" rx="4" ry="3" />
<ellipse fill="#444a4d" fill-opacity="0.756863" cx="46" cy="50" rx="22" ry="23" />
<ellipse fill="#1f2223" fill-opacity="0.458824" cx="136" cy="142" rx="6" ry="18" />
<ellipse fill="#b0b5be" fill-opacity="0.494118" cx="171" cy="88" rx="4" ry="6" />
<ellipse fill="#92918a" fill-opacity="0.450980" cx="97" cy="53" rx="7" ry="6" />
<ellipse fill="#52504a" fill-opacity="0.356863" cx="147" cy="115" rx="11" ry="22" />
<ellipse fill="#424446" fill-opacity="0.607843" cx="210" cy="128" rx="20" ry="33" />
<ellipse fill="#9a9786" fill-opacity="0.474510" cx="179" cy="60" rx="7" ry="8" />
<ellipse fill="#2f312d" fill-opacity="0.458824" cx="42" cy="111" rx="17" ry="5" />
<ellipse fill="#96908b" fill-opacity="0.364706" cx="131" cy="111" rx="3" ry="23" />
<ellipse fill="#353a36" fill-opacity="0.525490" cx="184" cy="37" rx="23" ry="13" />
<ellipse fill="#cfd2d1" fill-opacity="0.447059" cx="1" cy="5" rx="11" ry="4" />
<ellipse fill="#595952" fill-opacity="0.533333" cx="229" cy="41" rx="17" ry="11" />
<ellipse fill="#8c897e" fill-opacity="0.552941" cx="51" cy="89" rx="6" ry="11" />
<ellipse fill="#b9bcc3" fill-opacity="0.498039" cx="156" cy="91" rx="4" ry="12" />
<ellipse fill="#1c211f" fill-opacity="0.521569" cx="183" cy="87" rx="6" ry="6" />
<ellipse fill="#807f78" fill-opacity="0.498039" cx="146" cy="19" rx="9" ry="7" />
<ellipse fill="#543714" fill-opacity="0.474510" cx="159" cy="83" rx="3" ry="3" />
<ellipse fill="#4b5158" fill-opacity="0.537255" cx="90" cy="17" rx="39" ry="20" />
<ellipse fill="#f4efef" fill-opacity="0.525490" cx="144" cy="85" rx="3" ry="5" />
<ellipse fill="#85828c" fill-opacity="0.376471" cx="181" cy="102" rx="6" ry="8" />
<ellipse fill="#84847e" fill-opacity="0.670588" cx="119" cy="37" rx="8" ry="5" />
<ellipse fill="#4c4f4f" fill-opacity="0.615686" cx="121" cy="52" rx="11" ry="8" />
<ellipse fill="#404649" fill-opacity="0.607843" cx="136" cy="0" rx="13" ry="15" />
<ellipse fill="#5f635c" fill-opacity="0.411765" cx="8" cy="31" rx="12" ry="23" />
<ellipse fill="#f8f3ef" fill-opacity="0.498039" cx="160" cy="77" rx="5" ry="3" />
<ellipse fill="#646764" fill-opacity="0.509804" cx="13" cy="118" rx="10" ry="14" />
<ellipse fill="#a5a29a" fill-opacity="0.407843" cx="170" cy="75" rx="6" ry="14" />
<ellipse fill="#8c8984" fill-opacity="0.470588" cx="210" cy="90" rx="13" ry="5" />
<ellipse fill="#5e6262" fill-opacity="0.517647" cx="110" cy="0" rx="20" ry="21" />
<ellipse fill="#868787" fill-opacity="0.431373" cx="171" cy="0" rx="8" ry="9" />
<ellipse fill="#3d4141" fill-opacity="0.607843" cx="161" cy="125" rx="15" ry="8" />
<ellipse fill="#35312b" fill-opacity="0.549020" cx="153" cy="109" rx="4" ry="7" />
<ellipse fill="#dbdedc" fill-opacity="0.466667" cx="163" cy="103" rx="4" ry="3" />
<ellipse fill="#232622" fill-opacity="0.490196" cx="55" cy="128" rx="7" ry="4" />
<ellipse fill="#4e4d47" fill-opacity="0.549020" cx="126" cy="90" rx="9" ry="8" />
<ellipse fill="#585956" fill-opacity="0.698039" cx="104" cy="125" rx="10" ry="31" />
<ellipse fill="#666767" fill-opacity="0.623529" cx="171" cy="139" rx="8" ry="8" />
<ellipse fill="#51504d" fill-opacity="0.447059" cx="168" cy="117" rx="4" ry="27" />
<ellipse fill="#474d4d" fill-opacity="0.380392" cx="88" cy="59" rx="6" ry="23" />
<ellipse fill="#4b505b" fill-opacity="0.486275" cx="148" cy="90" rx="3" ry="6" />
<ellipse fill="#282e31" fill-opacity="0.509804" cx="178" cy="72" rx="6" ry="5" />
<ellipse fill="#8e8a7e" fill-opacity="0.490196" cx="138" cy="112" rx="4" ry="11" />
<ellipse fill="#30322b" fill-opacity="0.384314" cx="160" cy="56" rx="8" ry="18" />
<ellipse fill="#fffffe" fill-opacity="0.403922" cx="134" cy="102" rx="2" ry="5" />
<ellipse fill="#494c4e" fill-opacity="0.474510" cx="226" cy="84" rx="9" ry="24" />
<ellipse fill="#828692" fill-opacity="0.486275" cx="175" cy="93" rx="6" ry="8" />
<ellipse fill="#5b5851" fill-opacity="0.776471" cx="44" cy="103" rx="5" ry="6" />
<ellipse fill="#6a6b65" fill-opacity="0.717647" cx="211" cy="65" rx="14" ry="7" />
<ellipse fill="#6c6959" fill-opacity="0.474510" cx="181" cy="59" rx="18" ry="6" />
<ellipse fill="#333837" fill-opacity="0.525490" cx="166" cy="19" rx="8" ry="5" />
<ellipse fill="#c3bcb0" fill-opacity="0.443137" cx="173" cy="71" rx="2" ry="6" />
<ellipse fill="#5d5f5d" fill-opacity="0.619608" cx="76" cy="138" rx="10" ry="34" />
<ellipse fill="#7e7e78" fill-opacity="0.603922" cx="137" cy="24" rx="9" ry="5" />
<ellipse fill="#2e3331" fill-opacity="0.325490" cx="126" cy="16" rx="9" ry="6" />
<ellipse fill="#0f1719" fill-opacity="0.137255" cx="123" cy="138" rx="3" ry="55" />
<ellipse fill="#80817d" fill-opacity="0.494118" cx="78" cy="88" rx="6" ry="13" />
<ellipse fill="#505354" fill-opacity="0.419608" cx="146" cy="38" rx="16" ry="8" />
<ellipse fill="#757677" fill-opacity="0.462745" cx="34" cy="61" rx="3" ry="6" />
<ellipse fill="#a0979e" fill-opacity="0.458824" cx="192" cy="97" rx="5" ry="2" />
<ellipse fill="#ffffff" fill-opacity="0.478431" cx="145" cy="82" rx="3" ry="3" />
</g>
</svg>