<svg xmlns="http://www.w3.org/2000/svg" version="1.1" width="222" height="256">
<rect x="0" y="0" width="222" height="256" fill="#f0f0f0" />
<g transform="scale(1.000000) translate(0.5 0.5)">
<ellipse fill="#2e2e2e" fill-opacity="0.741176" cx="48" cy="137" rx="21" ry="100" />
<ellipse fill="#4c4c4c" fill-opacity="0.666667" cx="179" cy="155" rx="18" ry="118" />
<ellipse fill="#020202" fill-opacity="0.403922" cx="115" cy="41" rx="58" ry="35" />
<ellipse fill="#131313" fill-opacity="0.784314" cx="201" cy="203" rx="11" ry="29" />
<ellipse fill="#d5d5d5" fill-opacity="0.682353" cx="77" cy="146" rx="29" ry="71" />
<ellipse fill="#020202" fill-opacity="0.737255" cx="110" cy="49" rx="72" ry="6" />
<ellipse fill="#000000" fill-opacity="0.972549" cx="49" cy="69" rx="17" ry="23" />
<ellipse fill="#000000" fill-opacity="0.760784" cx="187" cy="130" rx="7" ry="62" />
<ellipse fill="#000000" fill-opacity="0.537255" cx="128" cy="168" rx="67" ry="4" />
<ellipse fill="#cfcfcf" fill-opacity="0.917647" cx="178" cy="202" rx="23" ry="15" />
<ellipse fill="#ffffff" fill-opacity="0.588235" cx="115" cy="56" rx="14" ry="30" />
<ellipse fill="#fdfdfd" fill-opacity="0.752941" cx="55" cy="24" rx="36" ry="22" />
<ellipse fill="#ffffff" fill-opacity="0.964706" cx="174" cy="26" rx="34" ry="16" />
<ellipse fill="#888888" fill-opacity="1.000000" cx="49" cy="205" rx="22" ry="25" />
<ellipse fill="#040404" fill-opacity="0.768627" cx="119" cy="15" rx="22" ry="10" />
<ellipse fill="#f9f9f9" fill-opacity="1.000000" cx="172" cy="246" rx="221" ry="12" />
<ellipse fill="#000000" fill-opacity="0.592157" cx="179" cy="228" rx="26" ry="6" />
<ellipse fill="#000000" fill-opacity="0.949020" cx="38" cy="130" rx="9" ry="53" />
<ellipse fill="#000000" fill-opacity="0.886275" cx="174" cy="67" rx="8" ry="22" />
<ellipse fill="#ffffff" fill-opacity="0.470588" cx="174" cy="138" rx="9" ry="50" />
<ellipse fill="#000000" fill-opacity="0.874510" cx="135" cy="31" rx="6" ry="23" />
<ellipse fill="#ffffff" fill-opacity="0.984314" cx="46" cy="234" rx="116" ry="11" />
<ellipse fill="#ffffff" fill-opacity="0.847059" cx="213" cy="53" rx="34" ry="25" />
<ellipse fill="#000000" fill-opacity="0.725490" cx="62" cy="211" rx="12" ry="7" />
<ellipse fill="#000000" fill-opacity="0.321569" cx="117" cy="86" rx="81" ry="4" />
<ellipse fill="#000000" fill-opacity="0.384314" cx="112" cy="186" rx="67" ry="3" />
<ellipse fill="#000000" fill-opacity="0.780392" cx="32" cy="183" rx="4" ry="36" />
<ellipse fill="#000000" fill-opacity="0.913725" cx="96" cy="32" rx="5" ry="23" />
<ellipse fill="#ffffff" fill-opacity="0.568627" cx="175" cy="218" rx="14" ry="8" />
<ellipse fill="#ffffff" fill-opacity="0.619608" cx="9" cy="115" rx="22" ry="138" />
<ellipse fill="#000000" fill-opacity="0.380392" cx="101" cy="148" rx="66" ry="3" />
<ellipse fill="#000000" fill-opacity="0.909804" cx="196" cy="215" rx="10" ry="7" />
<ellipse fill="#ffffff" fill-opacity="0.603922" cx="53" cy="116" rx="5" ry="26" />
<ellipse fill="#000000" fill-opacity="0.674510" cx="49" cy="218" rx="16" ry="5" />
<ellipse fill="#ffffff" fill-opacity="0.509804" cx="54" cy="197" rx="18" ry="10" />
<ellipse fill="#000000" fill-opacity="0.517647" cx="152" cy="47" rx="28" ry="7" />
<ellipse fill="#ffffff" fill-opacity="0.670588" cx="196" cy="149" rx="4" ry="24" />
<ellipse fill="#ffffff" fill-opacity="0.760784" cx="126" cy="33" rx="4" ry="17" />
<ellipse fill="#ffffff" fill-opacity="0.560784" cx="158" cy="108" rx="7" ry="53" />
<ellipse fill="#4f4f4f" fill-opacity="0.501961" cx="148" cy="122" rx="4" ry="30" />
<ellipse fill="#7c7c7c" fill-opacity="0.545098" cx="40" cy="23" rx="32" ry="4" />
<ellipse fill="#000000" fill-opacity="0.541176" cx="182" cy="166" rx="4" ry="23" />
<ellipse fill="#000000" fill-opacity="0.615686" cx="113" cy="49" rx="66" ry="3" />
<ellipse fill="#ffffff" fill-opacity="0.556863" cx="105" cy="32" rx="5" ry="16" />
<ellipse fill="#ffffff" fill-opacity="0.529412" cx="87" cy="61" rx="23" ry="6" />
<ellipse fill="#0f0f0f" fill-opacity="0.521569" cx="89" cy="166" rx="48" ry="3" />
<ellipse fill="#ffffff" fill-opacity="0.619608" cx="115" cy="138" rx="5" ry="112" />
<ellipse fill="#030303" fill-opacity="0.411765" cx="110" cy="69" rx="77" ry="2" />
<ellipse fill="#ffffff" fill-opacity="0.713725" cx="110" cy="73" rx="41" ry="4" />
<ellipse fill="#ffffff" fill-opacity="0.733333" cx="93" cy="174" rx="44" ry="5" />
<ellipse fill="#000000" fill-opacity="0.647059" cx="173" cy="208" rx="20" ry="2" />
<ellipse fill="#030303" fill-opacity="0.482353" cx="64" cy="117" rx="2" ry="73" />
<ellipse fill="#ffffff" fill-opacity="0.698039" cx="190" cy="198" rx="11" ry="10" />
<ellipse fill="#424242" fill-opacity="0.443137" cx="83" cy="117" rx="4" ry="35" />
<ellipse fill="#4a4a4a" fill-opacity="0.466667" cx="116" cy="246" rx="54" ry="2" />
<ellipse fill="#ffffff" fill-opacity="0.760784" cx="88" cy="155" rx="3" ry="75" />
<ellipse fill="#000000" fill-opacity="0.678431" cx="100" cy="60" rx="3" ry="11" />
<ellipse fill="#000000" fill-opacity="0.552941" cx="45" cy="166" rx="7" ry="16" />
<ellipse fill="#ffffff" fill-opacity="0.600000" cx="73" cy="105" rx="7" ry="52" />
<ellipse fill="#ffffff" fill-opacity="0.858824" cx="161" cy="5" rx="23" ry="27" />
<ellipse fill="#ffffff" fill-opacity="0.560784" cx="141" cy="65" rx="8" ry="10" />
<ellipse fill="#000000" fill-opacity="0.733333" cx="206" cy="199" rx="6" ry="21" />
<ellipse fill="#000000" fill-opacity="0.505882" cx="179" cy="107" rx="14" ry="4" />
<ellipse fill="#000000" fill-opacity="0.650980" cx="174" cy="187" rx="20" ry="2" />
<ellipse fill="#ffffff" fill-opacity="0.792157" cx="42" cy="208" rx="7" ry="7" />
<ellipse fill="#000000" fill-opacity="0.694118" cx="190" cy="98" rx="5" ry="24" />
<ellipse fill="#ffffff" fill-opacity="0.745098" cx="85" cy="20" rx="6" ry="23" />
<ellipse fill="#fcfcfc" fill-opacity="0.478431" cx="57" cy="138" rx="7" ry="46" />
<ellipse fill="#000000" fill-opacity="0.568627" cx="165" cy="168" rx="23" ry="3" />
<ellipse fill="#000000" fill-opacity="0.776471" cx="54" cy="149" rx="13" ry="2" />
<ellipse fill="#ffffff" fill-opacity="0.670588" cx="42" cy="188" rx="8" ry="7" />
<ellipse fill="#000000" fill-opacity="0.768627" cx="113" cy="21" rx="7" ry="8" />
<ellipse fill="#000000" fill-opacity="0.729412" cx="56" cy="167" rx="16" ry="2" />
<ellipse fill="#ffffff" fill-opacity="0.701961" cx="140" cy="160" rx="4" ry="81" />
<ellipse fill="#000000" fill-opacity="0.509804" cx="175" cy="229" rx="21" ry="5" />
<ellipse fill="#000000" fill-opacity="0.501961" cx="158" cy="216" rx="2" ry="11" />
<ellipse fill="#f7f7f7" fill-opacity="0.694118" cx="153" cy="163" rx="3" ry="67" />
<ellipse fill="#000000" fill-opacity="0.647059" cx="189" cy="178" rx="9" ry="9" />
<ellipse fill="#ffffff" fill-opacity="0.498039" cx="212" cy="123" rx="18" ry="59" />
<ellipse fill="#ffffff" fill-opacity="0.635294" cx="73" cy="225" rx="17" ry="9" />
<ellipse fill="#fefefe" fill-opacity="0.545098" cx="174" cy="134" rx="7" ry="27" />
<ellipse fill="#000000" fill-opacity="0.498039" cx="32" cy="135" rx="3" ry="67" />
<ellipse fill="#000000" fill-opacity="0.800000" cx="182" cy="78" rx="7" ry="13" />
<ellipse fill="#ffffff" fill-opacity="0.913725" cx="114" cy="119" rx="29" ry="27" />
<ellipse fill="#000000" fill-opacity="0.584314" cx="57" cy="85" rx="10" ry="9" />
<ellipse fill="#ffffff" fill-opacity="0.698039" cx="172" cy="180" rx="7" ry="6" />
<ellipse fill="#000000" fill-opacity="0.600000" cx="179" cy="197" rx="2" ry="14" />
<ellipse fill="#ffffff" fill-opacity="0.811765" cx="219" cy="248" rx="23" ry="27" />
<ellipse fill="#252525" fill-opacity="0.658824" cx="50" cy="186" rx="2" ry="24" />
<ellipse fill="#ffffff" fill-opacity="0.588235" cx="175" cy="95" rx="8" ry="8" />
<ellipse fill="#000000" fill-opacity="0.705882" cx="52" cy="106" rx="13" ry="2" />
<ellipse fill="#ffffff" fill-opacity="0.600000" cx="76" cy="156" rx="3" ry="86" />
<ellipse fill="#000000" fill-opacity="0.674510" cx="153" cy="48" rx="25" ry="8" />
<ellipse fill="#000000" fill-opacity="0.568627" cx="176" cy="122" rx="12" ry="2" />
<ellipse fill="#000000" fill-opacity="0.564706" cx="54" cy="120" rx="11" ry="2" />
<ellipse fill="#ffffff" fill-opacity="0.674510" cx="197" cy="40" rx="20" ry="21" />
<ellipse fill="#000000" fill-opacity="0.749020" cx="60" cy="185" rx="13" ry="2" />
<ellipse fill="#0b0b0b" fill-opacity="0.643137" cx="166" cy="112" rx="1" ry="28" />
<ellipse fill="#000000" fill-opacity="0.517647" cx="79" cy="50" rx="32" ry="6" />
<ellipse fill="#000000" fill-opacity="0.525490" cx="176" cy="137" rx="11" ry="2" />
</g>
</svg>