<svg xmlns="http://www.w3.org/2000/svg" version="1.1" width="256" height="182">
<rect x="0" y="0" width="256" height="182" fill="#f0f0f0" />
<g transform="scale(1.000000) translate(0.5 0.5)">
<ellipse fill="#18150e" fill-opacity="0.886275" cx="122" cy="85" rx="166" ry="172" />
<ellipse fill="#9c866f" fill-opacity="0.552941" cx="104" cy="144" rx="33" ry="56" />
<ellipse fill="#7a634a" fill-opacity="0.427451" cx="171" cy="86" rx="33" ry="70" />
<ellipse fill="#000e18" fill-opacity="0.603922" cx="35" cy="101" rx="39" ry="181" />
<ellipse fill="#050700" fill-opacity="0.737255" cx="145" cy="83" rx="19" ry="16" />
<ellipse fill="#000000" fill-opacity="0.552941" cx="108" cy="147" rx="6" ry="21" />
<ellipse fill="#a18971" fill-opacity="0.494118" cx="122" cy="63" rx="12" ry="15" />
<ellipse fill="#070f15" fill-opacity="0.529412" cx="255" cy="52" rx="46" ry="181" />
<ellipse fill="#374b64" fill-opacity="0.780392" cx="0" cy="0" rx="38" ry="17" />
<ellipse fill="#0c0f08" fill-opacity="0.811765" cx="82" cy="75" rx="35" ry="10" />
<ellipse fill="#9d8c79" fill-opacity="0.674510" cx="146" cy="117" rx="5" ry="18" />
<ellipse fill="#c6b6a6" fill-opacity="0.278431" cx="146" cy="47" rx="11" ry="17" />
<ellipse fill="#221504" fill-opacity="0.384314" cx="191" cy="161" rx="50" ry="30" />
<ellipse fill="#a08a6f" fill-opacity="0.313725" cx="173" cy="101" rx="8" ry="45" />
<ellipse fill="#000000" fill-opacity="0.635294" cx="105" cy="134" rx="5" ry="14" />
<ellipse fill="#938170" fill-opacity="0.639216" cx="117" cy="118" rx="10" ry="19" />
<ellipse fill="#080e0a" fill-opacity="0.631373" cx="64" cy="20" rx="12" ry="160" />
<ellipse fill="#766553" fill-opacity="0.694118" cx="128" cy="156" rx="13" ry="30" />
<ellipse fill="#030600" fill-opacity="0.713725" cx="159" cy="69" rx="8" ry="12" />
<ellipse fill="#000000" fill-opacity="0.607843" cx="121" cy="31" rx="13" ry="8" />
<ellipse fill="#6a573f" fill-opacity="0.411765" cx="92" cy="31" rx="14" ry="21" />
<ellipse fill="#060500" fill-opacity="0.545098" cx="136" cy="110" rx="5" ry="26" />
<ellipse fill="#826e59" fill-opacity="0.435294" cx="195" cy="69" rx="16" ry="11" />
<ellipse fill="#827360" fill-opacity="0.509804" cx="90" cy="167" rx="18" ry="32" />
<ellipse fill="#121006" fill-opacity="0.666667" cx="103" cy="0" rx="27" ry="12" />
<ellipse fill="#6c5e4e" fill-opacity="0.701961" cx="113" cy="54" rx="9" ry="11" />
<ellipse fill="#796855" fill-opacity="0.450980" cx="88" cy="111" rx="15" ry="24" />
<ellipse fill="#000000" fill-opacity="0.439216" cx="122" cy="90" rx="9" ry="12" />
<ellipse fill="#0d0a00" fill-opacity="0.545098" cx="203" cy="41" rx="13" ry="9" />
<ellipse fill="#382a19" fill-opacity="0.521569" cx="158" cy="3" rx="48" ry="30" />
<ellipse fill="#182436" fill-opacity="0.498039" cx="235" cy="60" rx="9" ry="115" />
<ellipse fill="#020600" fill-opacity="0.796078" cx="99" cy="61" rx="6" ry="13" />
<ellipse fill="#383124" fill-opacity="0.854902" cx="130" cy="179" rx="2" ry="30" />
<ellipse fill="#716152" fill-opacity="0.403922" cx="176" cy="44" rx="17" ry="19" />
<ellipse fill="#1d1a0f" fill-opacity="0.643137" cx="156" cy="97" rx="5" ry="23" />
<ellipse fill="#452d12" fill-opacity="0.419608" cx="210" cy="114" rx="15" ry="35" />
<ellipse fill="#857563" fill-opacity="0.835294" cx="119" cy="166" rx="5" ry="49" />
<ellipse fill="#121109" fill-opacity="0.545098" cx="186" cy="130" rx="4" ry="20" />
<ellipse fill="#514435" fill-opacity="0.568627" cx="129" cy="110" rx="7" ry="9" />
<ellipse fill="#2c2b26" fill-opacity="0.721569" cx="185" cy="85" rx="11" ry="5" />
<ellipse fill="#9e9182" fill-opacity="0.462745" cx="109" cy="108" rx="7" ry="13" />
<ellipse fill="#534736" fill-opacity="0.576471" cx="85" cy="45" rx="7" ry="26" />
<ellipse fill="#0b0b02" fill-opacity="0.627451" cx="124" cy="36" rx="13" ry="10" />
<ellipse fill="#090f09" fill-opacity="0.674510" cx="59" cy="181" rx="14" ry="55" />
<ellipse fill="#988c7d" fill-opacity="0.517647" cx="148" cy="125" rx="3" ry="16" />
<ellipse fill="#7d6957" fill-opacity="0.454902" cx="186" cy="95" rx="9" ry="10" />
<ellipse fill="#000000" fill-opacity="0.549020" cx="110" cy="153" rx="4" ry="14" />
<ellipse fill="#000100" fill-opacity="0.603922" cx="138" cy="72" rx="5" ry="13" />
<ellipse fill="#5f5444" fill-opacity="0.505882" cx="108" cy="21" rx="18" ry="4" />
<ellipse fill="#000000" fill-opacity="0.541176" cx="142" cy="139" rx="4" ry="9" />
<ellipse fill="#22334e" fill-opacity="0.129412" cx="37" cy="33" rx="26" ry="78" />
<ellipse fill="#6e604e" fill-opacity="0.596078" cx="82" cy="131" rx="10" ry="35" />
<ellipse fill="#0b0b02" fill-opacity="0.584314" cx="111" cy="80" rx="11" ry="6" />
<ellipse fill="#7a736b" fill-opacity="0.505882" cx="147" cy="55" rx="6" ry="16" />
<ellipse fill="#271c06" fill-opacity="0.454902" cx="215" cy="28" rx="10" ry="56" />
<ellipse fill="#4d4132" fill-opacity="0.466667" cx="168" cy="144" rx="19" ry="15" />
<ellipse fill="#4f4030" fill-opacity="0.501961" cx="156" cy="0" rx="16" ry="20" />
<ellipse fill="#000000" fill-opacity="0.529412" cx="104" cy="130" rx="2" ry="15" />
<ellipse fill="#1c180e" fill-opacity="0.537255" cx="136" cy="15" rx="16" ry="9" />
<ellipse fill="#948575" fill-opacity="0.486275" cx="108" cy="181" rx="12" ry="13" />
<ellipse fill="#181409" fill-opacity="0.435294" cx="168" cy="181" rx="13" ry="32" />
<ellipse fill="#b7a286" fill-opacity="0.192157" cx="168" cy="106" rx="7" ry="15" />
<ellipse fill="#000100" fill-opacity="0.494118" cx="154" cy="119" rx="3" ry="7" />
<ellipse fill="#050801" fill-opacity="0.600000" cx="98" cy="70" rx="12" ry="10" />
<ellipse fill="#0b0500" fill-opacity="0.443137" cx="207" cy="181" rx="5" ry="37" />
<ellipse fill="#050802" fill-opacity="0.560784" cx="161" cy="59" rx="5" ry="6" />
<ellipse fill="#968372" fill-opacity="0.647059" cx="124" cy="73" rx="6" ry="5" />
<ellipse fill="#070900" fill-opacity="0.556863" cx="146" cy="164" rx="3" ry="26" />
<ellipse fill="#0b0700" fill-opacity="0.435294" cx="97" cy="172" rx="2" ry="6" />
<ellipse fill="#0c171c" fill-opacity="0.537255" cx="248" cy="68" rx="9" ry="181" />
<ellipse fill="#8a7d6c" fill-opacity="0.517647" cx="93" cy="158" rx="13" ry="8" />
<ellipse fill="#776452" fill-opacity="0.490196" cx="154" cy="100" rx="3" ry="7" />
<ellipse fill="#0e0c05" fill-opacity="0.545098" cx="113" cy="163" rx="1" ry="19" />
<ellipse fill="#120d03" fill-opacity="0.498039" cx="101" cy="167" rx="5" ry="3" />
<ellipse fill="#72614b" fill-opacity="0.490196" cx="202" cy="79" rx="8" ry="7" />
<ellipse fill="#766856" fill-opacity="0.490196" cx="167" cy="83" rx="6" ry="7" />
<ellipse fill="#36485f" fill-opacity="0.607843" cx="0" cy="0" rx="20" ry="20" />
<ellipse fill="#1d2634" fill-opacity="0.490196" cx="238" cy="74" rx="12" ry="41" />
<ellipse fill="#020600" fill-opacity="0.329412" cx="77" cy="18" rx="11" ry="8" />
<ellipse fill="#40362b" fill-opacity="0.560784" cx="132" cy="52" rx="7" ry="7" />
<ellipse fill="#5b4830" fill-opacity="0.552941" cx="202" cy="63" rx="8" ry="11" />
<ellipse fill="#5c4c3a" fill-opacity="0.537255" cx="178" cy="127" rx="6" ry="23" />
<ellipse fill="#030606" fill-opacity="0.529412" cx="108" cy="50" rx="3" ry="3" />
<ellipse fill="#4f4638" fill-opacity="0.658824" cx="101" cy="23" rx="10" ry="11" />
<ellipse fill="#b0a494" fill-opacity="0.356863" cx="107" cy="56" rx="4" ry="4" />
<ellipse fill="#090b04" fill-opacity="0.509804" cx="204" cy="47" rx="14" ry="4" />
<ellipse fill="#292219" fill-opacity="0.384314" cx="162" cy="29" rx="14" ry="7" />
<ellipse fill="#6f5f4c" fill-opacity="0.482353" cx="138" cy="155" rx="5" ry="14" />
<ellipse fill="#36332e" fill-opacity="0.474510" cx="225" cy="53" rx="4" ry="24" />
<ellipse fill="#5b422d" fill-opacity="0.309804" cx="196" cy="123" rx="7" ry="34" />
<ellipse fill="#0c0e05" fill-opacity="0.556863" cx="160" cy="81" rx="2" ry="26" />
<ellipse fill="#685b4a" fill-opacity="0.717647" cx="159" cy="41" rx="9" ry="7" />
<ellipse fill="#6d6050" fill-opacity="0.470588" cx="145" cy="53" rx="3" ry="24" />
<ellipse fill="#81705e" fill-opacity="0.627451" cx="121" cy="136" rx="9" ry="18" />
<ellipse fill="#131109" fill-opacity="0.372549" cx="229" cy="0" rx="67" ry="6" />
<ellipse fill="#7a6e5f" fill-opacity="0.372549" cx="96" cy="108" rx="7" ry="25" />
<ellipse fill="#65574b" fill-opacity="0.482353" cx="77" cy="84" rx="5" ry="2" />
<ellipse fill="#000100" fill-opacity="0.541176" cx="139" cy="123" rx="3" ry="12" />
<ellipse fill="#0e1313" fill-opacity="0.486275" cx="185" cy="82" rx="8" ry="4" />
<ellipse fill="#261f11" fill-opacity="0.474510" cx="219" cy="135" rx="11" ry="81" />
</g>
</svg>