<svg xmlns="http://www.w3.org/2000/svg" version="1.1" width="256" height="143">
<rect x="0" y="0" width="256" height="143" fill="#f0f0f0" />
<g transform="scale(1.000000) translate(0.5 0.5)">
<ellipse fill="#0e1304" fill-opacity="0.843137" cx="129" cy="76" rx="191" ry="115" />
<ellipse fill="#a9aea9" fill-opacity="0.529412" cx="122" cy="75" rx="27" ry="53" />
<ellipse fill="#0e1309" fill-opacity="0.698039" cx="44" cy="125" rx="56" ry="53" />
<ellipse fill="#b6b9b6" fill-opacity="0.611765" cx="122" cy="107" rx="25" ry="16" />
<ellipse fill="#10130a" fill-opacity="0.607843" cx="160" cy="136" rx="255" ry="17" />
<ellipse fill="#464a3d" fill-opacity="0.709804" cx="104" cy="0" rx="20" ry="93" />
<ellipse fill="#151a0b" fill-opacity="0.564706" cx="166" cy="87" rx="22" ry="58" />
<ellipse fill="#101506" fill-opacity="0.717647" cx="4" cy="45" rx="18" ry="142" />
<ellipse fill="#ebf3fb" fill-opacity="0.090196" cx="31" cy="62" rx="12" ry="52" />
<ellipse fill="#a7aeab" fill-opacity="0.529412" cx="122" cy="44" rx="26" ry="7" />
<ellipse fill="#070f00" fill-opacity="0.498039" cx="123" cy="33" rx="11" ry="6" />
<ellipse fill="#d1d5d3" fill-opacity="0.505882" cx="142" cy="108" rx="4" ry="16" />
<ellipse fill="#212518" fill-opacity="0.776471" cx="246" cy="117" rx="42" ry="41" />
<ellipse fill="#dadcd4" fill-opacity="0.317647" cx="128" cy="82" rx="18" ry="5" />
<ellipse fill="#eff4ed" fill-opacity="0.462745" cx="138" cy="43" rx="5" ry="10" />
<ellipse fill="#1d2112" fill-opacity="0.486275" cx="108" cy="88" rx="82" ry="3" />
<ellipse fill="#222714" fill-opacity="0.541176" cx="85" cy="80" rx="17" ry="21" />
<ellipse fill="#2a2e1f" fill-opacity="0.709804" cx="166" cy="45" rx="22" ry="58" />
<ellipse fill="#0e1400" fill-opacity="0.360784" cx="77" cy="16" rx="16" ry="20" />
<ellipse fill="#c6c9c8" fill-opacity="0.411765" cx="134" cy="114" rx="8" ry="10" />
<ellipse fill="#838882" fill-opacity="0.549020" cx="103" cy="114" rx="6" ry="9" />
<ellipse fill="#616555" fill-opacity="0.250980" cx="116" cy="28" rx="31" ry="15" />
<ellipse fill="#2c3120" fill-opacity="0.670588" cx="149" cy="54" rx="18" ry="3" />
<ellipse fill="#141808" fill-opacity="0.313725" cx="255" cy="9" rx="19" ry="142" />
<ellipse fill="#1f2517" fill-opacity="0.533333" cx="157" cy="78" rx="26" ry="3" />
<ellipse fill="#10140a" fill-opacity="0.349020" cx="169" cy="119" rx="25" ry="52" />
<ellipse fill="#b6b9b2" fill-opacity="0.509804" cx="137" cy="101" rx="9" ry="13" />
<ellipse fill="#474b39" fill-opacity="0.482353" cx="174" cy="0" rx="6" ry="67" />
<ellipse fill="#4c5148" fill-opacity="0.980392" cx="116" cy="97" rx="17" ry="1" />
<ellipse fill="#292f14" fill-opacity="0.650980" cx="13" cy="68" rx="9" ry="29" />
<ellipse fill="#3a3f2b" fill-opacity="0.411765" cx="90" cy="49" rx="16" ry="32" />
<ellipse fill="#0f140a" fill-opacity="0.478431" cx="121" cy="127" rx="9" ry="9" />
<ellipse fill="#3f4438" fill-opacity="0.337255" cx="128" cy="16" rx="9" ry="35" />
<ellipse fill="#99a099" fill-opacity="0.435294" cx="139" cy="30" rx="5" ry="5" />
<ellipse fill="#292e1e" fill-opacity="0.827451" cx="155" cy="81" rx="10" ry="32" />
<ellipse fill="#8e9189" fill-opacity="0.400000" cx="115" cy="120" rx="7" ry="4" />
<ellipse fill="#333927" fill-opacity="0.552941" cx="130" cy="74" rx="8" ry="3" />
<ellipse fill="#afb4a8" fill-opacity="0.333333" cx="143" cy="52" rx="2" ry="30" />
<ellipse fill="#292c20" fill-opacity="0.666667" cx="216" cy="127" rx="21" ry="32" />
<ellipse fill="#a7aba6" fill-opacity="0.486275" cx="138" cy="69" rx="7" ry="5" />
<ellipse fill="#f6ffff" fill-opacity="0.266667" cx="110" cy="42" rx="4" ry="7" />
<ellipse fill="#595b50" fill-opacity="0.470588" cx="36" cy="51" rx="14" ry="9" />
<ellipse fill="#3d453e" fill-opacity="0.278431" cx="26" cy="118" rx="6" ry="56" />
<ellipse fill="#071002" fill-opacity="0.462745" cx="116" cy="69" rx="5" ry="4" />
<ellipse fill="#161a0f" fill-opacity="0.490196" cx="51" cy="93" rx="17" ry="34" />
<ellipse fill="#999c95" fill-opacity="0.494118" cx="121" cy="79" rx="8" ry="9" />
<ellipse fill="#777e79" fill-opacity="0.658824" cx="125" cy="53" rx="8" ry="18" />
<ellipse fill="#45462f" fill-opacity="0.192157" cx="219" cy="72" rx="33" ry="40" />
<ellipse fill="#0e1208" fill-opacity="0.560784" cx="3" cy="4" rx="25" ry="21" />
<ellipse fill="#1c2117" fill-opacity="0.419608" cx="94" cy="97" rx="5" ry="43" />
<ellipse fill="#373a28" fill-opacity="0.392157" cx="133" cy="98" rx="31" ry="1" />
<ellipse fill="#a1a7a4" fill-opacity="0.321569" cx="105" cy="100" rx="7" ry="13" />
<ellipse fill="#0a1102" fill-opacity="0.560784" cx="109" cy="54" rx="6" ry="3" />
<ellipse fill="#12160d" fill-opacity="0.494118" cx="148" cy="133" rx="32" ry="12" />
<ellipse fill="#1b1f11" fill-opacity="0.588235" cx="161" cy="20" rx="7" ry="18" />
<ellipse fill="#4f542d" fill-opacity="0.352941" cx="67" cy="65" rx="5" ry="25" />
<ellipse fill="#292c20" fill-opacity="0.313725" cx="117" cy="31" rx="3" ry="26" />
<ellipse fill="#5d5f54" fill-opacity="0.396078" cx="106" cy="7" rx="7" ry="33" />
<ellipse fill="#13170c" fill-opacity="0.443137" cx="217" cy="114" rx="71" ry="5" />
<ellipse fill="#030a00" fill-opacity="0.333333" cx="129" cy="72" rx="5" ry="3" />
<ellipse fill="#060b06" fill-opacity="0.431373" cx="101" cy="69" rx="2" ry="11" />
<ellipse fill="#a9afac" fill-opacity="0.533333" cx="126" cy="84" rx="20" ry="2" />
<ellipse fill="#797974" fill-opacity="0.337255" cx="98" cy="58" rx="2" ry="24" />
<ellipse fill="#474a38" fill-opacity="0.607843" cx="56" cy="0" rx="5" ry="31" />
<ellipse fill="#1e2213" fill-opacity="0.458824" cx="186" cy="3" rx="30" ry="4" />
<ellipse fill="#171b11" fill-opacity="0.584314" cx="99" cy="107" rx="6" ry="1" />
<ellipse fill="#b6bbb8" fill-opacity="0.517647" cx="124" cy="105" rx="9" ry="7" />
<ellipse fill="#363b2b" fill-opacity="0.600000" cx="119" cy="24" rx="32" ry="2" />
<ellipse fill="#151a0f" fill-opacity="0.549020" cx="126" cy="129" rx="3" ry="11" />
<ellipse fill="#1e240f" fill-opacity="0.356863" cx="135" cy="88" rx="25" ry="2" />
<ellipse fill="#727978" fill-opacity="0.423529" cx="112" cy="60" rx="6" ry="5" />
<ellipse fill="#070d00" fill-opacity="0.450980" cx="124" cy="33" rx="10" ry="2" />
<ellipse fill="#1b2014" fill-opacity="0.698039" cx="92" cy="86" rx="16" ry="3" />
<ellipse fill="#494c3a" fill-opacity="0.447059" cx="177" cy="25" rx="9" ry="12" />
<ellipse fill="#414433" fill-opacity="0.611765" cx="216" cy="11" rx="15" ry="8" />
<ellipse fill="#000000" fill-opacity="0.431373" cx="111" cy="77" rx="3" ry="5" />
<ellipse fill="#3f4437" fill-opacity="0.741176" cx="40" cy="27" rx="8" ry="16" />
<ellipse fill="#484b33" fill-opacity="0.403922" cx="81" cy="61" rx="4" ry="28" />
<ellipse fill="#2b3121" fill-opacity="0.423529" cx="157" cy="55" rx="21" ry="5" />
<ellipse fill="#1e2419" fill-opacity="0.552941" cx="34" cy="126" rx="8" ry="38" />
<ellipse fill="#a0a8af" fill-opacity="0.482353" cx="106" cy="74" rx="2" ry="3" />
<ellipse fill="#0f1309" fill-opacity="0.505882" cx="64" cy="106" rx="16" ry="23" />
<ellipse fill="#c0c3bb" fill-opacity="0.490196" cx="118" cy="94" rx="20" ry="2" />
<ellipse fill="#595e58" fill-opacity="0.509804" cx="145" cy="79" rx="1" ry="30" />
<ellipse fill="#1c2210" fill-opacity="0.458824" cx="60" cy="47" rx="3" ry="30" />
<ellipse fill="#14190e" fill-opacity="0.372549" cx="20" cy="45" rx="3" ry="71" />
<ellipse fill="#272c1e" fill-opacity="0.960784" cx="146" cy="56" rx="1" ry="57" />
<ellipse fill="#151b0f" fill-opacity="0.513725" cx="119" cy="136" rx="24" ry="14" />
<ellipse fill="#a2a59c" fill-opacity="0.537255" cx="127" cy="80" rx="7" ry="6" />
<ellipse fill="#989c97" fill-opacity="0.501961" cx="119" cy="82" rx="14" ry="3" />
<ellipse fill="#b8bab4" fill-opacity="0.658824" cx="138" cy="116" rx="7" ry="4" />
<ellipse fill="#4c562b" fill-opacity="0.250980" cx="11" cy="80" rx="5" ry="14" />
<ellipse fill="#414230" fill-opacity="0.509804" cx="201" cy="59" rx="35" ry="4" />
<ellipse fill="#3e4337" fill-opacity="0.258824" cx="35" cy="73" rx="14" ry="18" />
<ellipse fill="#7f878a" fill-opacity="0.494118" cx="107" cy="68" rx="3" ry="7" />
<ellipse fill="#121608" fill-opacity="0.243137" cx="93" cy="19" rx="2" ry="97" />
<ellipse fill="#898e88" fill-opacity="0.360784" cx="108" cy="110" rx="7" ry="13" />
<ellipse fill="#d9ded6" fill-opacity="0.537255" cx="140" cy="43" rx="4" ry="4" />
<ellipse fill="#65685c" fill-opacity="1.000000" cx="119" cy="26" rx="21" ry="1" />
<ellipse fill="#b3b4b0" fill-opacity="0.125490" cx="119" cy="0" rx="22" ry="3" />
</g>
</svg>