<svg xmlns="http://www.w3.org/2000/svg" version="1.1" width="156" height="256">
<rect x="0" y="0" width="156" height="256" fill="#f0f0f0" />
<g transform="scale(1.000000) translate(0.5 0.5)">
<ellipse fill="#090a06" fill-opacity="0.607843" cx="68" cy="126" rx="155" ry="172" />
<ellipse fill="#13110a" fill-opacity="0.639216" cx="123" cy="22" rx="53" ry="35" />
<ellipse fill="#bbbcbd" fill-opacity="0.396078" cx="80" cy="94" rx="63" ry="31" />
<ellipse fill="#d7d3cb" fill-opacity="0.458824" cx="128" cy="171" rx="11" ry="56" />
<ellipse fill="#100b01" fill-opacity="0.474510" cx="86" cy="143" rx="36" ry="21" />
<ellipse fill="#2c2f2a" fill-opacity="0.564706" cx="9" cy="11" rx="27" ry="60" />
<ellipse fill="#afb0a8" fill-opacity="0.568627" cx="43" cy="195" rx="11" ry="56" />
<ellipse fill="#081627" fill-opacity="0.580392" cx="94" cy="212" rx="23" ry="15" />
<ellipse fill="#9fa6a5" fill-opacity="0.505882" cx="101" cy="255" rx="55" ry="21" />
<ellipse fill="#a6a7a1" fill-opacity="0.596078" cx="54" cy="47" rx="11" ry="24" />
<ellipse fill="#b6bdca" fill-opacity="0.494118" cx="100" cy="177" rx="16" ry="9" />
<ellipse fill="#a3a4a1" fill-opacity="0.756863" cx="113" cy="74" rx="31" ry="10" />
<ellipse fill="#34322b" fill-opacity="0.517647" cx="91" cy="52" rx="29" ry="15" />
<ellipse fill="#bec2c4" fill-opacity="0.243137" cx="52" cy="115" rx="91" ry="12" />
<ellipse fill="#70706f" fill-opacity="0.592157" cx="54" cy="93" rx="95" ry="12" />
<ellipse fill="#151713" fill-opacity="0.541176" cx="2" cy="141" rx="12" ry="13" />
<ellipse fill="#515657" fill-opacity="0.737255" cx="10" cy="223" rx="30" ry="33" />
<ellipse fill="#393a37" fill-opacity="0.792157" cx="77" cy="174" rx="6" ry="49" />
<ellipse fill="#010405" fill-opacity="0.498039" cx="142" cy="8" rx="30" ry="17" />
<ellipse fill="#656661" fill-opacity="0.639216" cx="59" cy="161" rx="15" ry="26" />
<ellipse fill="#cdc5be" fill-opacity="0.494118" cx="136" cy="13" rx="2" ry="16" />
<ellipse fill="#0b0810" fill-opacity="0.411765" cx="98" cy="174" rx="4" ry="20" />
<ellipse fill="#b0aeaa" fill-opacity="0.529412" cx="124" cy="59" rx="3" ry="21" />
<ellipse fill="#c6c7c2" fill-opacity="0.482353" cx="124" cy="179" rx="7" ry="38" />
<ellipse fill="#5a564d" fill-opacity="0.596078" cx="146" cy="220" rx="21" ry="29" />
<ellipse fill="#fff4d9" fill-opacity="0.160784" cx="92" cy="62" rx="7" ry="35" />
<ellipse fill="#ffffff" fill-opacity="0.392157" cx="88" cy="185" rx="4" ry="13" />
<ellipse fill="#563f25" fill-opacity="0.403922" cx="148" cy="118" rx="11" ry="39" />
<ellipse fill="#181915" fill-opacity="0.517647" cx="108" cy="142" rx="12" ry="19" />
<ellipse fill="#a8a8a7" fill-opacity="0.352941" cx="120" cy="111" rx="31" ry="13" />
<ellipse fill="#1f2933" fill-opacity="0.607843" cx="107" cy="211" rx="10" ry="20" />
<ellipse fill="#bebdb9" fill-opacity="0.396078" cx="155" cy="65" rx="38" ry="5" />
<ellipse fill="#081017" fill-opacity="0.490196" cx="110" cy="53" rx="13" ry="12" />
<ellipse fill="#a4abb0" fill-opacity="0.443137" cx="109" cy="173" rx="4" ry="20" />
<ellipse fill="#8e8e8a" fill-opacity="0.490196" cx="128" cy="205" rx="12" ry="26" />
<ellipse fill="#8f9595" fill-opacity="0.443137" cx="23" cy="165" rx="5" ry="31" />
<ellipse fill="#e7e2ca" fill-opacity="0.415686" cx="51" cy="204" rx="4" ry="21" />
<ellipse fill="#ebe6ba" fill-opacity="0.670588" cx="45" cy="186" rx="6" ry="6" />
<ellipse fill="#666a69" fill-opacity="0.411765" cx="24" cy="85" rx="32" ry="29" />
<ellipse fill="#434037" fill-opacity="0.733333" cx="77" cy="37" rx="11" ry="25" />
<ellipse fill="#bab0a4" fill-opacity="0.541176" cx="152" cy="43" rx="2" ry="10" />
<ellipse fill="#363833" fill-opacity="0.337255" cx="22" cy="12" rx="35" ry="27" />
<ellipse fill="#e4f0ff" fill-opacity="0.623529" cx="94" cy="195" rx="4" ry="3" />
<ellipse fill="#050d14" fill-opacity="0.549020" cx="143" cy="52" rx="9" ry="7" />
<ellipse fill="#242825" fill-opacity="0.447059" cx="30" cy="170" rx="3" ry="42" />
<ellipse fill="#665a4d" fill-opacity="0.286275" cx="142" cy="149" rx="11" ry="92" />
<ellipse fill="#11181a" fill-opacity="0.635294" cx="6" cy="250" rx="13" ry="4" />
<ellipse fill="#828484" fill-opacity="0.792157" cx="20" cy="94" rx="43" ry="7" />
<ellipse fill="#a9aaa3" fill-opacity="0.596078" cx="135" cy="255" rx="52" ry="6" />
<ellipse fill="#d1dae6" fill-opacity="0.482353" cx="47" cy="232" rx="3" ry="12" />
<ellipse fill="#948e86" fill-opacity="0.698039" cx="138" cy="27" rx="7" ry="2" />
<ellipse fill="#878a87" fill-opacity="0.498039" cx="65" cy="172" rx="4" ry="29" />
<ellipse fill="#020608" fill-opacity="0.525490" cx="119" cy="20" rx="14" ry="11" />
<ellipse fill="#333036" fill-opacity="0.513725" cx="99" cy="187" rx="7" ry="8" />
<ellipse fill="#909394" fill-opacity="0.627451" cx="129" cy="70" rx="10" ry="16" />
<ellipse fill="#fdfefb" fill-opacity="0.254902" cx="119" cy="106" rx="22" ry="3" />
<ellipse fill="#777e80" fill-opacity="0.407843" cx="55" cy="242" rx="48" ry="12" />
<ellipse fill="#5b5d5b" fill-opacity="0.545098" cx="24" cy="57" rx="15" ry="27" />
<ellipse fill="#252726" fill-opacity="0.474510" cx="15" cy="110" rx="17" ry="2" />
<ellipse fill="#000002" fill-opacity="0.423529" cx="115" cy="155" rx="3" ry="14" />
<ellipse fill="#514739" fill-opacity="0.537255" cx="106" cy="131" rx="14" ry="10" />
<ellipse fill="#95928c" fill-opacity="0.478431" cx="123" cy="38" rx="6" ry="4" />
<ellipse fill="#999a98" fill-opacity="0.549020" cx="40" cy="161" rx="8" ry="18" />
<ellipse fill="#121617" fill-opacity="0.835294" cx="138" cy="36" rx="8" ry="9" />
<ellipse fill="#919393" fill-opacity="0.654902" cx="17" cy="122" rx="46" ry="5" />
<ellipse fill="#040507" fill-opacity="0.172549" cx="0" cy="174" rx="8" ry="44" />
<ellipse fill="#2b2c28" fill-opacity="0.325490" cx="57" cy="165" rx="4" ry="42" />
<ellipse fill="#959690" fill-opacity="0.533333" cx="62" cy="39" rx="3" ry="37" />
<ellipse fill="#b3b5b0" fill-opacity="0.498039" cx="42" cy="136" rx="9" ry="3" />
<ellipse fill="#24221b" fill-opacity="0.462745" cx="145" cy="136" rx="6" ry="11" />
<ellipse fill="#253750" fill-opacity="0.552941" cx="98" cy="221" rx="8" ry="13" />
<ellipse fill="#b9bfc9" fill-opacity="0.345098" cx="104" cy="172" rx="15" ry="5" />
<ellipse fill="#727470" fill-opacity="0.807843" cx="40" cy="208" rx="7" ry="12" />
<ellipse fill="#464139" fill-opacity="0.517647" cx="83" cy="98" rx="22" ry="2" />
<ellipse fill="#382e1e" fill-opacity="0.360784" cx="71" cy="131" rx="26" ry="8" />
<ellipse fill="#1f2225" fill-opacity="0.647059" cx="95" cy="164" rx="9" ry="5" />
<ellipse fill="#83898a" fill-opacity="0.513725" cx="11" cy="220" rx="24" ry="3" />
<ellipse fill="#c2cad4" fill-opacity="0.478431" cx="43" cy="231" rx="4" ry="12" />
<ellipse fill="#3e3d38" fill-opacity="0.533333" cx="3" cy="60" rx="6" ry="29" />
<ellipse fill="#c3c6c9" fill-opacity="0.411765" cx="131" cy="134" rx="13" ry="3" />
<ellipse fill="#cbc5bc" fill-opacity="0.435294" cx="149" cy="37" rx="2" ry="5" />
<ellipse fill="#48463f" fill-opacity="0.505882" cx="37" cy="101" rx="29" ry="2" />
<ellipse fill="#e1dfd8" fill-opacity="0.415686" cx="122" cy="164" rx="4" ry="19" />
<ellipse fill="#343838" fill-opacity="0.549020" cx="80" cy="174" rx="6" ry="16" />
<ellipse fill="#000202" fill-opacity="0.333333" cx="106" cy="145" rx="15" ry="10" />
<ellipse fill="#3c3d38" fill-opacity="0.403922" cx="148" cy="229" rx="9" ry="19" />
<ellipse fill="#32322a" fill-opacity="0.525490" cx="3" cy="132" rx="35" ry="3" />
<ellipse fill="#585147" fill-opacity="0.521569" cx="122" cy="95" rx="25" ry="3" />
<ellipse fill="#333739" fill-opacity="0.878431" cx="116" cy="196" rx="1" ry="27" />
<ellipse fill="#868881" fill-opacity="0.486275" cx="68" cy="8" rx="6" ry="12" />
<ellipse fill="#505458" fill-opacity="0.435294" cx="75" cy="201" rx="28" ry="5" />
<ellipse fill="#535754" fill-opacity="0.458824" cx="67" cy="241" rx="17" ry="5" />
<ellipse fill="#756e62" fill-opacity="0.513725" cx="150" cy="176" rx="15" ry="30" />
<ellipse fill="#62533e" fill-opacity="0.615686" cx="96" cy="38" rx="3" ry="21" />
<ellipse fill="#2d3334" fill-opacity="0.439216" cx="67" cy="225" rx="14" ry="4" />
<ellipse fill="#010707" fill-opacity="0.556863" cx="155" cy="6" rx="16" ry="26" />
<ellipse fill="#edf8ff" fill-opacity="0.572549" cx="90" cy="178" rx="4" ry="6" />
<ellipse fill="#0a1012" fill-opacity="0.647059" cx="122" cy="30" rx="4" ry="9" />
<ellipse fill="#495f7b" fill-opacity="0.568627" cx="93" cy="212" rx="3" ry="15" />
<ellipse fill="#252723" fill-opacity="0.501961" cx="2" cy="0" rx="27" ry="14" />
</g>
</svg>