<svg xmlns="http://www.w3.org/2000/svg" version="1.1" width="256" height="143">
<rect x="0" y="0" width="256" height="143" fill="#f0f0f0" />
<g transform="scale(1.000000) translate(0.5 0.5)">
<ellipse fill="#010507" fill-opacity="0.874510" cx="164" cy="84" rx="222" ry="142" />
<ellipse fill="#506898" fill-opacity="0.596078" cx="112" cy="11" rx="11" ry="95" />
<ellipse fill="#435d94" fill-opacity="0.505882" cx="25" cy="30" rx="8" ry="107" />
<ellipse fill="#4b68a6" fill-opacity="0.521569" cx="181" cy="0" rx="14" ry="24" />
<ellipse fill="#040600" fill-opacity="0.592157" cx="235" cy="69" rx="20" ry="142" />
<ellipse fill="#0f0d00" fill-opacity="0.556863" cx="67" cy="118" rx="36" ry="67" />
<ellipse fill="#0a0900" fill-opacity="0.478431" cx="151" cy="105" rx="30" ry="57" />
<ellipse fill="#836d55" fill-opacity="0.447059" cx="67" cy="35" rx="14" ry="15" />
<ellipse fill="#575857" fill-opacity="0.513725" cx="194" cy="134" rx="7" ry="52" />
<ellipse fill="#475b85" fill-opacity="0.427451" cx="111" cy="0" rx="20" ry="38" />
<ellipse fill="#030600" fill-opacity="0.627451" cx="0" cy="117" rx="10" ry="121" />
<ellipse fill="#52658c" fill-opacity="0.376471" cx="114" cy="138" rx="5" ry="136" />
<ellipse fill="#232e41" fill-opacity="0.874510" cx="25" cy="5" rx="13" ry="13" />
<ellipse fill="#1f1f16" fill-opacity="0.729412" cx="123" cy="67" rx="4" ry="48" />
<ellipse fill="#fffaff" fill-opacity="0.356863" cx="200" cy="134" rx="7" ry="3" />
<ellipse fill="#5675c2" fill-opacity="0.188235" cx="162" cy="2" rx="51" ry="6" />
<ellipse fill="#4b628f" fill-opacity="0.509804" cx="28" cy="60" rx="4" ry="43" />
<ellipse fill="#283346" fill-opacity="0.470588" cx="107" cy="97" rx="6" ry="59" />
<ellipse fill="#2b3341" fill-opacity="0.411765" cx="193" cy="27" rx="19" ry="33" />
<ellipse fill="#393220" fill-opacity="0.462745" cx="56" cy="15" rx="17" ry="47" />
<ellipse fill="#393227" fill-opacity="0.607843" cx="75" cy="76" rx="5" ry="27" />
<ellipse fill="#0b0c00" fill-opacity="0.439216" cx="39" cy="99" rx="8" ry="103" />
<ellipse fill="#263146" fill-opacity="0.584314" cx="24" cy="117" rx="9" ry="29" />
<ellipse fill="#6a5442" fill-opacity="0.541176" cx="68" cy="111" rx="4" ry="9" />
<ellipse fill="#ffdcbf" fill-opacity="0.207843" cx="78" cy="34" rx="4" ry="10" />
<ellipse fill="#8c8173" fill-opacity="0.474510" cx="64" cy="48" rx="9" ry="3" />
<ellipse fill="#a3866b" fill-opacity="0.474510" cx="71" cy="142" rx="9" ry="4" />
<ellipse fill="#fbe0c1" fill-opacity="0.498039" cx="198" cy="142" rx="5" ry="2" />
<ellipse fill="#020505" fill-opacity="0.341176" cx="109" cy="11" rx="13" ry="4" />
<ellipse fill="#121104" fill-opacity="0.564706" cx="211" cy="83" rx="9" ry="24" />
<ellipse fill="#49443a" fill-opacity="0.341176" cx="137" cy="43" rx="19" ry="13" />
<ellipse fill="#253453" fill-opacity="0.470588" cx="17" cy="46" rx="5" ry="59" />
<ellipse fill="#060e24" fill-opacity="0.600000" cx="204" cy="137" rx="13" ry="3" />
<ellipse fill="#11130b" fill-opacity="0.596078" cx="86" cy="53" rx="15" ry="13" />
<ellipse fill="#151816" fill-opacity="0.564706" cx="234" cy="22" rx="36" ry="25" />
<ellipse fill="#7196db" fill-opacity="0.329412" cx="26" cy="25" rx="6" ry="7" />
<ellipse fill="#11140e" fill-opacity="0.501961" cx="165" cy="58" rx="16" ry="29" />
<ellipse fill="#918365" fill-opacity="0.458824" cx="194" cy="102" rx="2" ry="15" />
<ellipse fill="#464540" fill-opacity="0.360784" cx="204" cy="51" rx="17" ry="10" />
<ellipse fill="#83abff" fill-opacity="0.305882" cx="105" cy="16" rx="7" ry="3" />
<ellipse fill="#f4e8d4" fill-opacity="0.603922" cx="197" cy="133" rx="5" ry="2" />
<ellipse fill="#202322" fill-opacity="0.737255" cx="193" cy="104" rx="16" ry="4" />
<ellipse fill="#5f79b0" fill-opacity="0.407843" cx="170" cy="0" rx="9" ry="10" />
<ellipse fill="#8db2f8" fill-opacity="0.266667" cx="113" cy="33" rx="6" ry="6" />
<ellipse fill="#070b05" fill-opacity="0.545098" cx="76" cy="79" rx="26" ry="7" />
<ellipse fill="#242c36" fill-opacity="0.615686" cx="187" cy="104" rx="6" ry="82" />
<ellipse fill="#151b1f" fill-opacity="0.364706" cx="99" cy="49" rx="5" ry="48" />
<ellipse fill="#03080c" fill-opacity="0.549020" cx="198" cy="119" rx="6" ry="5" />
<ellipse fill="#5372a8" fill-opacity="0.458824" cx="119" cy="0" rx="21" ry="3" />
<ellipse fill="#55493a" fill-opacity="0.611765" cx="67" cy="8" rx="10" ry="4" />
<ellipse fill="#232421" fill-opacity="0.686275" cx="142" cy="20" rx="19" ry="18" />
<ellipse fill="#263249" fill-opacity="0.631373" cx="173" cy="19" rx="6" ry="9" />
<ellipse fill="#232017" fill-opacity="0.537255" cx="59" cy="17" rx="22" ry="10" />
<ellipse fill="#433412" fill-opacity="0.513725" cx="255" cy="90" rx="3" ry="26" />
<ellipse fill="#495880" fill-opacity="0.423529" cx="209" cy="124" rx="10" ry="2" />
<ellipse fill="#070a02" fill-opacity="0.666667" cx="60" cy="126" rx="11" ry="13" />
<ellipse fill="#10130f" fill-opacity="0.815686" cx="90" cy="134" rx="13" ry="75" />
<ellipse fill="#7a6351" fill-opacity="0.352941" cx="74" cy="93" rx="4" ry="9" />
<ellipse fill="#0b0f0f" fill-opacity="0.600000" cx="194" cy="129" rx="39" ry="2" />
<ellipse fill="#0e0f06" fill-opacity="0.474510" cx="129" cy="83" rx="11" ry="27" />
<ellipse fill="#000000" fill-opacity="0.235294" cx="117" cy="5" rx="2" ry="25" />
<ellipse fill="#080b05" fill-opacity="0.325490" cx="233" cy="131" rx="21" ry="108" />
<ellipse fill="#1c1c13" fill-opacity="0.337255" cx="202" cy="72" rx="22" ry="21" />
<ellipse fill="#393839" fill-opacity="0.556863" cx="134" cy="129" rx="19" ry="2" />
<ellipse fill="#947d64" fill-opacity="0.372549" cx="70" cy="132" rx="7" ry="2" />
<ellipse fill="#1f201c" fill-opacity="0.623529" cx="131" cy="29" rx="13" ry="6" />
<ellipse fill="#6986bb" fill-opacity="0.435294" cx="114" cy="0" rx="6" ry="9" />
<ellipse fill="#6298ff" fill-opacity="0.184314" cx="94" cy="0" rx="2" ry="25" />
<ellipse fill="#52658d" fill-opacity="0.756863" cx="123" cy="4" rx="2" ry="12" />
<ellipse fill="#48659f" fill-opacity="0.325490" cx="183" cy="22" rx="4" ry="8" />
<ellipse fill="#494c68" fill-opacity="0.474510" cx="209" cy="133" rx="8" ry="3" />
<ellipse fill="#323027" fill-opacity="0.545098" cx="44" cy="36" rx="6" ry="14" />
<ellipse fill="#283552" fill-opacity="0.600000" cx="195" cy="2" rx="16" ry="11" />
<ellipse fill="#13181b" fill-opacity="0.615686" cx="11" cy="142" rx="6" ry="71" />
<ellipse fill="#0b0c02" fill-opacity="0.568627" cx="26" cy="0" rx="3" ry="17" />
<ellipse fill="#3f5a92" fill-opacity="0.329412" cx="15" cy="6" rx="8" ry="4" />
<ellipse fill="#1c1e1c" fill-opacity="0.439216" cx="91" cy="24" rx="21" ry="3" />
<ellipse fill="#605139" fill-opacity="0.309804" cx="61" cy="108" rx="13" ry="3" />
<ellipse fill="#2e384e" fill-opacity="0.364706" cx="105" cy="80" rx="5" ry="35" />
<ellipse fill="#5a729d" fill-opacity="0.596078" cx="115" cy="41" rx="4" ry="9" />
<ellipse fill="#655844" fill-opacity="0.400000" cx="132" cy="13" rx="8" ry="3" />
<ellipse fill="#34466c" fill-opacity="0.478431" cx="31" cy="7" rx="4" ry="8" />
<ellipse fill="#293243" fill-opacity="0.584314" cx="187" cy="142" rx="6" ry="24" />
<ellipse fill="#887551" fill-opacity="0.309804" cx="198" cy="94" rx="3" ry="7" />
<ellipse fill="#5477be" fill-opacity="0.247059" cx="15" cy="19" rx="7" ry="3" />
<ellipse fill="#928c81" fill-opacity="0.423529" cx="69" cy="44" rx="6" ry="2" />
<ellipse fill="#607dbb" fill-opacity="0.419608" cx="177" cy="8" rx="3" ry="5" />
<ellipse fill="#050903" fill-opacity="0.498039" cx="70" cy="135" rx="33" ry="3" />
<ellipse fill="#56493c" fill-opacity="0.474510" cx="77" cy="24" rx="4" ry="10" />
<ellipse fill="#181913" fill-opacity="0.733333" cx="122" cy="142" rx="3" ry="86" />
<ellipse fill="#5f78ad" fill-opacity="0.635294" cx="107" cy="28" rx="8" ry="2" />
<ellipse fill="#1a1e22" fill-opacity="0.505882" cx="223" cy="8" rx="15" ry="14" />
<ellipse fill="#14191b" fill-opacity="0.443137" cx="166" cy="27" rx="2" ry="34" />
<ellipse fill="#ffebce" fill-opacity="0.482353" cx="194" cy="110" rx="1" ry="3" />
<ellipse fill="#333434" fill-opacity="0.619608" cx="127" cy="43" rx="7" ry="14" />
<ellipse fill="#080b03" fill-opacity="0.552941" cx="64" cy="79" rx="11" ry="14" />
<ellipse fill="#3a539b" fill-opacity="0.521569" cx="255" cy="139" rx="1" ry="16" />
<ellipse fill="#756555" fill-opacity="0.513725" cx="74" cy="69" rx="2" ry="4" />
<ellipse fill="#435680" fill-opacity="0.372549" cx="26" cy="77" rx="5" ry="25" />
<ellipse fill="#ba9d7c" fill-opacity="0.352941" cx="70" cy="139" rx="8" ry="1" />
</g>
</svg>