<svg xmlns="http://www.w3.org/2000/svg" version="1.1" width="181" height="256">
<rect x="0" y="0" width="181" height="256" fill="#f0f0f0" />
<g transform="scale(1.000000) translate(0.5 0.5)">
<ellipse fill="#15150e" fill-opacity="0.658824" cx="108" cy="125" rx="146" ry="196" />
<ellipse fill="#060601" fill-opacity="0.662745" cx="106" cy="0" rx="108" ry="56" />
<ellipse fill="#dbe0e3" fill-opacity="0.501961" cx="146" cy="168" rx="17" ry="89" />
<ellipse fill="#f0f2ef" fill-opacity="0.435294" cx="57" cy="208" rx="14" ry="93" />
<ellipse fill="#14140e" fill-opacity="0.494118" cx="113" cy="230" rx="25" ry="63" />
<ellipse fill="#949591" fill-opacity="0.694118" cx="107" cy="116" rx="56" ry="25" />
<ellipse fill="#a3a29d" fill-opacity="0.529412" cx="23" cy="228" rx="14" ry="88" />
<ellipse fill="#292319" fill-opacity="0.592157" cx="180" cy="110" rx="19" ry="69" />
<ellipse fill="#65625d" fill-opacity="0.580392" cx="28" cy="48" rx="55" ry="24" />
<ellipse fill="#a2a6a8" fill-opacity="0.490196" cx="155" cy="231" rx="19" ry="69" />
<ellipse fill="#2a271f" fill-opacity="0.631373" cx="108" cy="57" rx="25" ry="23" />
<ellipse fill="#6a6b67" fill-opacity="0.658824" cx="76" cy="195" rx="18" ry="50" />
<ellipse fill="#fffffe" fill-opacity="0.298039" cx="48" cy="185" rx="12" ry="26" />
<ellipse fill="#2b2b2b" fill-opacity="0.470588" cx="18" cy="98" rx="15" ry="33" />
<ellipse fill="#b6b0a0" fill-opacity="0.572549" cx="11" cy="154" rx="13" ry="13" />
<ellipse fill="#070803" fill-opacity="0.678431" cx="76" cy="0" rx="78" ry="26" />
<ellipse fill="#d0d6dc" fill-opacity="0.454902" cx="140" cy="151" rx="11" ry="36" />
<ellipse fill="#58534c" fill-opacity="0.541176" cx="170" cy="42" rx="20" ry="34" />
<ellipse fill="#1c1d1a" fill-opacity="0.600000" cx="121" cy="163" rx="8" ry="20" />
<ellipse fill="#090d09" fill-opacity="0.501961" cx="110" cy="255" rx="27" ry="28" />
<ellipse fill="#7c7c74" fill-opacity="0.756863" cx="138" cy="91" rx="20" ry="23" />
<ellipse fill="#56554e" fill-opacity="0.588235" cx="101" cy="197" rx="35" ry="24" />
<ellipse fill="#a8a7a5" fill-opacity="0.356863" cx="92" cy="166" rx="24" ry="10" />
<ellipse fill="#010400" fill-opacity="0.556863" cx="40" cy="243" rx="3" ry="24" />
<ellipse fill="#82807a" fill-opacity="0.462745" cx="64" cy="115" rx="25" ry="50" />
<ellipse fill="#ffffff" fill-opacity="0.145098" cx="60" cy="244" rx="17" ry="44" />
<ellipse fill="#c9d1d8" fill-opacity="0.572549" cx="133" cy="178" rx="5" ry="18" />
<ellipse fill="#0e0c07" fill-opacity="0.254902" cx="133" cy="46" rx="25" ry="30" />
<ellipse fill="#11130d" fill-opacity="0.521569" cx="1" cy="251" rx="8" ry="21" />
<ellipse fill="#393936" fill-opacity="0.254902" cx="19" cy="190" rx="22" ry="17" />
<ellipse fill="#332d23" fill-opacity="0.592157" cx="179" cy="224" rx="4" ry="42" />
<ellipse fill="#636360" fill-opacity="0.674510" cx="41" cy="103" rx="26" ry="19" />
<ellipse fill="#6d685c" fill-opacity="0.458824" cx="177" cy="192" rx="27" ry="17" />
<ellipse fill="#80807d" fill-opacity="0.643137" cx="0" cy="68" rx="12" ry="24" />
<ellipse fill="#141410" fill-opacity="0.552941" cx="4" cy="107" rx="7" ry="12" />
<ellipse fill="#4c4a42" fill-opacity="0.631373" cx="77" cy="52" rx="21" ry="16" />
<ellipse fill="#a4a59f" fill-opacity="0.631373" cx="127" cy="112" rx="10" ry="17" />
<ellipse fill="#484642" fill-opacity="0.611765" cx="12" cy="30" rx="36" ry="12" />
<ellipse fill="#aeaeab" fill-opacity="0.458824" cx="21" cy="252" rx="13" ry="21" />
<ellipse fill="#857a6e" fill-opacity="0.556863" cx="119" cy="214" rx="17" ry="5" />
<ellipse fill="#30302a" fill-opacity="0.396078" cx="71" cy="178" rx="14" ry="8" />
<ellipse fill="#a6a297" fill-opacity="0.494118" cx="32" cy="171" rx="15" ry="12" />
<ellipse fill="#2d2a23" fill-opacity="0.584314" cx="174" cy="89" rx="19" ry="15" />
<ellipse fill="#19180d" fill-opacity="0.207843" cx="44" cy="144" rx="9" ry="20" />
<ellipse fill="#dadcdc" fill-opacity="0.650980" cx="54" cy="208" rx="3" ry="35" />
<ellipse fill="#9da1a3" fill-opacity="0.686275" cx="173" cy="241" rx="3" ry="19" />
<ellipse fill="#000000" fill-opacity="0.447059" cx="20" cy="79" rx="8" ry="8" />
<ellipse fill="#8a8882" fill-opacity="0.552941" cx="14" cy="209" rx="32" ry="9" />
<ellipse fill="#767977" fill-opacity="0.541176" cx="71" cy="220" rx="14" ry="16" />
<ellipse fill="#595956" fill-opacity="0.729412" cx="108" cy="156" rx="13" ry="14" />
<ellipse fill="#0e0e0a" fill-opacity="0.505882" cx="96" cy="20" rx="39" ry="19" />
<ellipse fill="#1d1c1a" fill-opacity="0.286275" cx="0" cy="177" rx="15" ry="14" />
<ellipse fill="#b1aea0" fill-opacity="0.474510" cx="71" cy="78" rx="9" ry="6" />
<ellipse fill="#514f49" fill-opacity="0.741176" cx="17" cy="125" rx="23" ry="13" />
<ellipse fill="#8d897d" fill-opacity="0.615686" cx="80" cy="71" rx="4" ry="14" />
<ellipse fill="#080b04" fill-opacity="0.498039" cx="15" cy="4" rx="61" ry="17" />
<ellipse fill="#c5cac7" fill-opacity="0.470588" cx="62" cy="253" rx="11" ry="19" />
<ellipse fill="#84837b" fill-opacity="0.466667" cx="48" cy="63" rx="14" ry="10" />
<ellipse fill="#9c9c98" fill-opacity="0.505882" cx="64" cy="144" rx="8" ry="27" />
<ellipse fill="#a7a7a5" fill-opacity="0.509804" cx="153" cy="135" rx="10" ry="27" />
<ellipse fill="#c0c9d0" fill-opacity="0.439216" cx="157" cy="230" rx="3" ry="23" />
<ellipse fill="#1c1a10" fill-opacity="0.462745" cx="113" cy="84" rx="3" ry="12" />
<ellipse fill="#696963" fill-opacity="0.556863" cx="136" cy="75" rx="15" ry="11" />
<ellipse fill="#1e1f1d" fill-opacity="0.454902" cx="13" cy="95" rx="8" ry="14" />
<ellipse fill="#3a362f" fill-opacity="0.619608" cx="179" cy="167" rx="17" ry="9" />
<ellipse fill="#303129" fill-opacity="0.521569" cx="132" cy="198" rx="5" ry="5" />
<ellipse fill="#686660" fill-opacity="0.407843" cx="158" cy="98" rx="14" ry="10" />
<ellipse fill="#41413e" fill-opacity="0.407843" cx="91" cy="201" rx="12" ry="26" />
<ellipse fill="#312d26" fill-opacity="0.541176" cx="147" cy="54" rx="8" ry="17" />
<ellipse fill="#5d605e" fill-opacity="0.301961" cx="35" cy="208" rx="10" ry="29" />
<ellipse fill="#302c23" fill-opacity="0.419608" cx="71" cy="56" rx="6" ry="16" />
<ellipse fill="#5e5a57" fill-opacity="0.529412" cx="120" cy="139" rx="9" ry="7" />
<ellipse fill="#050a07" fill-opacity="0.568627" cx="125" cy="164" rx="4" ry="12" />
<ellipse fill="#474645" fill-opacity="0.423529" cx="39" cy="84" rx="19" ry="10" />
<ellipse fill="#bec2c6" fill-opacity="0.529412" cx="145" cy="165" rx="14" ry="18" />
<ellipse fill="#010300" fill-opacity="0.341176" cx="107" cy="222" rx="10" ry="6" />
<ellipse fill="#b4b4b2" fill-opacity="0.454902" cx="87" cy="169" rx="12" ry="4" />
<ellipse fill="#1f201b" fill-opacity="0.537255" cx="138" cy="0" rx="17" ry="59" />
<ellipse fill="#595a54" fill-opacity="0.560784" cx="162" cy="240" rx="2" ry="44" />
<ellipse fill="#c6cdd0" fill-opacity="0.529412" cx="144" cy="215" rx="4" ry="16" />
<ellipse fill="#97958e" fill-opacity="0.549020" cx="76" cy="189" rx="9" ry="3" />
<ellipse fill="#646862" fill-opacity="0.329412" cx="82" cy="239" rx="15" ry="11" />
<ellipse fill="#58564d" fill-opacity="0.545098" cx="33" cy="140" rx="14" ry="14" />
<ellipse fill="#28241e" fill-opacity="0.380392" cx="178" cy="91" rx="8" ry="52" />
<ellipse fill="#989891" fill-opacity="0.129412" cx="167" cy="50" rx="8" ry="29" />
<ellipse fill="#9f9a8c" fill-opacity="0.674510" cx="21" cy="160" rx="15" ry="9" />
<ellipse fill="#000000" fill-opacity="0.184314" cx="83" cy="139" rx="12" ry="4" />
<ellipse fill="#979c9c" fill-opacity="0.862745" cx="147" cy="255" rx="10" ry="28" />
<ellipse fill="#686559" fill-opacity="0.654902" cx="89" cy="89" rx="12" ry="8" />
<ellipse fill="#878682" fill-opacity="0.600000" cx="0" cy="144" rx="32" ry="5" />
<ellipse fill="#858681" fill-opacity="0.678431" cx="51" cy="149" rx="4" ry="16" />
<ellipse fill="#2d2a1f" fill-opacity="0.274510" cx="134" cy="223" rx="4" ry="26" />
<ellipse fill="#676763" fill-opacity="0.494118" cx="22" cy="49" rx="26" ry="16" />
<ellipse fill="#4d4a41" fill-opacity="0.537255" cx="2" cy="230" rx="9" ry="9" />
<ellipse fill="#d7d8d7" fill-opacity="0.470588" cx="50" cy="193" rx="9" ry="8" />
<ellipse fill="#a5a7a3" fill-opacity="0.427451" cx="133" cy="128" rx="5" ry="38" />
<ellipse fill="#5b5d5d" fill-opacity="0.494118" cx="110" cy="119" rx="7" ry="6" />
<ellipse fill="#797874" fill-opacity="0.341176" cx="30" cy="111" rx="23" ry="5" />
<ellipse fill="#12150c" fill-opacity="0.458824" cx="41" cy="250" rx="4" ry="10" />
<ellipse fill="#ffffff" fill-opacity="0.066667" cx="23" cy="214" rx="29" ry="7" />
</g>
</svg>