<svg xmlns="http://www.w3.org/2000/svg" version="1.1" width="256" height="143">
<rect x="0" y="0" width="256" height="143" fill="#f0f0f0" />
<g transform="scale(1.000000) translate(0.5 0.5)">
<ellipse fill="#4b4c40" fill-opacity="0.705882" cx="72" cy="69" rx="218" ry="142" />
<ellipse fill="#111b13" fill-opacity="0.411765" cx="8" cy="10" rx="36" ry="48" />
<ellipse fill="#1c1e3c" fill-opacity="0.439216" cx="162" cy="121" rx="15" ry="48" />
<ellipse fill="#aea9a0" fill-opacity="0.450980" cx="97" cy="130" rx="52" ry="40" />
<ellipse fill="#bfc5c2" fill-opacity="0.576471" cx="12" cy="96" rx="22" ry="16" />
<ellipse fill="#f2f3ee" fill-opacity="0.427451" cx="182" cy="100" rx="6" ry="40" />
<ellipse fill="#272d23" fill-opacity="0.439216" cx="250" cy="0" rx="27" ry="45" />
<ellipse fill="#363f4a" fill-opacity="0.662745" cx="102" cy="93" rx="7" ry="27" />
<ellipse fill="#a1a293" fill-opacity="0.513725" cx="177" cy="21" rx="20" ry="68" />
<ellipse fill="#06101f" fill-opacity="0.396078" cx="201" cy="87" rx="14" ry="12" />
<ellipse fill="#151d1d" fill-opacity="0.600000" cx="52" cy="99" rx="7" ry="11" />
<ellipse fill="#a7a797" fill-opacity="0.494118" cx="224" cy="99" rx="9" ry="76" />
<ellipse fill="#666658" fill-opacity="0.627451" cx="248" cy="109" rx="10" ry="95" />
<ellipse fill="#0b1100" fill-opacity="0.188235" cx="47" cy="4" rx="58" ry="7" />
<ellipse fill="#372f26" fill-opacity="0.529412" cx="118" cy="62" rx="7" ry="11" />
<ellipse fill="#a2a390" fill-opacity="0.462745" cx="151" cy="40" rx="36" ry="17" />
<ellipse fill="#989faf" fill-opacity="0.470588" cx="117" cy="103" rx="13" ry="33" />
<ellipse fill="#bfc4b6" fill-opacity="0.619608" cx="199" cy="72" rx="26" ry="3" />
<ellipse fill="#1b1a1a" fill-opacity="0.333333" cx="135" cy="80" rx="5" ry="23" />
<ellipse fill="#52514f" fill-opacity="0.478431" cx="196" cy="54" rx="15" ry="14" />
<ellipse fill="#c3baa7" fill-opacity="0.325490" cx="48" cy="142" rx="19" ry="32" />
<ellipse fill="#8c8c7e" fill-opacity="0.678431" cx="77" cy="75" rx="20" ry="38" />
<ellipse fill="#5f6359" fill-opacity="0.596078" cx="9" cy="61" rx="19" ry="21" />
<ellipse fill="#5d5f66" fill-opacity="0.631373" cx="114" cy="117" rx="10" ry="5" />
<ellipse fill="#272f3c" fill-opacity="0.329412" cx="165" cy="133" rx="19" ry="14" />
<ellipse fill="#f6d2b3" fill-opacity="0.400000" cx="143" cy="94" rx="4" ry="14" />
<ellipse fill="#c0baa1" fill-opacity="0.364706" cx="95" cy="131" rx="28" ry="11" />
<ellipse fill="#fcffff" fill-opacity="0.223529" cx="184" cy="127" rx="5" ry="40" />
<ellipse fill="#434f58" fill-opacity="0.588235" cx="198" cy="103" rx="6" ry="18" />
<ellipse fill="#807972" fill-opacity="0.498039" cx="173" cy="80" rx="21" ry="9" />
<ellipse fill="#444133" fill-opacity="0.447059" cx="1" cy="126" rx="28" ry="5" />
<ellipse fill="#e3e6de" fill-opacity="0.423529" cx="179" cy="67" rx="5" ry="11" />
<ellipse fill="#c3c4c1" fill-opacity="0.517647" cx="135" cy="112" rx="7" ry="11" />
<ellipse fill="#686a5a" fill-opacity="0.486275" cx="41" cy="29" rx="22" ry="20" />
<ellipse fill="#080d14" fill-opacity="0.231373" cx="102" cy="98" rx="9" ry="14" />
<ellipse fill="#989885" fill-opacity="0.490196" cx="205" cy="22" rx="19" ry="18" />
<ellipse fill="#9a9c97" fill-opacity="0.462745" cx="17" cy="107" rx="28" ry="11" />
<ellipse fill="#dbdad7" fill-opacity="0.556863" cx="121" cy="94" rx="7" ry="4" />
<ellipse fill="#828475" fill-opacity="0.494118" cx="42" cy="55" rx="29" ry="16" />
<ellipse fill="#504f46" fill-opacity="0.768627" cx="102" cy="67" rx="3" ry="14" />
<ellipse fill="#170c12" fill-opacity="0.458824" cx="123" cy="141" rx="7" ry="4" />
<ellipse fill="#a59786" fill-opacity="0.627451" cx="140" cy="120" rx="14" ry="7" />
<ellipse fill="#000006" fill-opacity="0.482353" cx="158" cy="64" rx="3" ry="4" />
<ellipse fill="#d1c3b2" fill-opacity="0.462745" cx="116" cy="120" rx="3" ry="24" />
<ellipse fill="#c0b5a5" fill-opacity="0.490196" cx="59" cy="122" rx="3" ry="27" />
<ellipse fill="#00050e" fill-opacity="0.129412" cx="0" cy="15" rx="14" ry="53" />
<ellipse fill="#30352f" fill-opacity="0.611765" cx="235" cy="17" rx="8" ry="8" />
<ellipse fill="#485c72" fill-opacity="0.501961" cx="210" cy="64" rx="10" ry="7" />
<ellipse fill="#596784" fill-opacity="0.470588" cx="110" cy="87" rx="12" ry="9" />
<ellipse fill="#b4a18b" fill-opacity="0.521569" cx="144" cy="70" rx="17" ry="2" />
<ellipse fill="#a39f8e" fill-opacity="0.388235" cx="175" cy="57" rx="4" ry="56" />
<ellipse fill="#495362" fill-opacity="0.482353" cx="164" cy="83" rx="5" ry="21" />
<ellipse fill="#b1afa1" fill-opacity="0.486275" cx="208" cy="76" rx="4" ry="6" />
<ellipse fill="#000000" fill-opacity="0.184314" cx="47" cy="118" rx="2" ry="16" />
<ellipse fill="#6c7079" fill-opacity="0.615686" cx="107" cy="120" rx="2" ry="54" />
<ellipse fill="#75776b" fill-opacity="0.498039" cx="239" cy="48" rx="13" ry="23" />
<ellipse fill="#909283" fill-opacity="0.635294" cx="110" cy="26" rx="23" ry="6" />
<ellipse fill="#e2cbb7" fill-opacity="0.352941" cx="46" cy="117" rx="12" ry="5" />
<ellipse fill="#777a70" fill-opacity="0.564706" cx="170" cy="30" rx="3" ry="26" />
<ellipse fill="#5d5850" fill-opacity="0.635294" cx="184" cy="133" rx="7" ry="2" />
<ellipse fill="#000000" fill-opacity="0.486275" cx="131" cy="79" rx="3" ry="3" />
<ellipse fill="#c9cdca" fill-opacity="0.403922" cx="101" cy="128" rx="4" ry="12" />
<ellipse fill="#717362" fill-opacity="0.486275" cx="117" cy="11" rx="43" ry="11" />
<ellipse fill="#9a998c" fill-opacity="0.541176" cx="228" cy="123" rx="8" ry="54" />
<ellipse fill="#4f6171" fill-opacity="0.533333" cx="199" cy="105" rx="14" ry="5" />
<ellipse fill="#3e3424" fill-opacity="0.635294" cx="108" cy="70" rx="5" ry="3" />
<ellipse fill="#9c8c7f" fill-opacity="0.529412" cx="151" cy="77" rx="9" ry="13" />
<ellipse fill="#484e61" fill-opacity="0.521569" cx="111" cy="115" rx="10" ry="3" />
<ellipse fill="#7e7162" fill-opacity="0.533333" cx="93" cy="126" rx="5" ry="6" />
<ellipse fill="#aaa99a" fill-opacity="0.529412" cx="202" cy="142" rx="4" ry="17" />
<ellipse fill="#475064" fill-opacity="0.552941" cx="166" cy="95" rx="9" ry="16" />
<ellipse fill="#818379" fill-opacity="0.470588" cx="47" cy="136" rx="8" ry="19" />
<ellipse fill="#0d0f0c" fill-opacity="0.396078" cx="149" cy="132" rx="4" ry="5" />
<ellipse fill="#ded6c7" fill-opacity="0.525490" cx="115" cy="108" rx="6" ry="4" />
<ellipse fill="#3b464a" fill-opacity="0.470588" cx="116" cy="52" rx="10" ry="3" />
<ellipse fill="#333a40" fill-opacity="0.509804" cx="205" cy="86" rx="15" ry="4" />
<ellipse fill="#221a11" fill-opacity="0.466667" cx="201" cy="43" rx="7" ry="3" />
<ellipse fill="#9e9c8b" fill-opacity="0.611765" cx="185" cy="32" rx="12" ry="15" />
<ellipse fill="#4b505d" fill-opacity="0.705882" cx="171" cy="142" rx="9" ry="27" />
<ellipse fill="#f9c799" fill-opacity="0.219608" cx="111" cy="66" rx="3" ry="13" />
<ellipse fill="#5a5e55" fill-opacity="0.698039" cx="228" cy="1" rx="13" ry="8" />
<ellipse fill="#adaea1" fill-opacity="0.588235" cx="162" cy="52" rx="4" ry="13" />
<ellipse fill="#333734" fill-opacity="0.717647" cx="48" cy="102" rx="2" ry="14" />
<ellipse fill="#1a1d1f" fill-opacity="0.470588" cx="161" cy="122" rx="7" ry="4" />
<ellipse fill="#6b6157" fill-opacity="0.517647" cx="185" cy="78" rx="4" ry="7" />
<ellipse fill="#353b41" fill-opacity="0.423529" cx="99" cy="105" rx="5" ry="15" />
<ellipse fill="#8d8d80" fill-opacity="0.600000" cx="228" cy="139" rx="14" ry="23" />
<ellipse fill="#bbc1a7" fill-opacity="0.494118" cx="198" cy="70" rx="9" ry="4" />
<ellipse fill="#53535c" fill-opacity="0.556863" cx="123" cy="72" rx="2" ry="18" />
<ellipse fill="#2a2a2b" fill-opacity="0.470588" cx="138" cy="76" rx="5" ry="4" />
<ellipse fill="#b5b9b6" fill-opacity="0.509804" cx="17" cy="91" rx="13" ry="9" />
<ellipse fill="#8b9694" fill-opacity="0.474510" cx="33" cy="140" rx="26" ry="6" />
<ellipse fill="#7d8e92" fill-opacity="0.556863" cx="191" cy="112" rx="5" ry="7" />
<ellipse fill="#3f443d" fill-opacity="0.592157" cx="32" cy="1" rx="7" ry="27" />
<ellipse fill="#4a504c" fill-opacity="0.501961" cx="180" cy="12" rx="4" ry="3" />
<ellipse fill="#c09d7e" fill-opacity="0.435294" cx="129" cy="68" rx="6" ry="5" />
<ellipse fill="#cbbcac" fill-opacity="0.529412" cx="112" cy="76" rx="6" ry="3" />
<ellipse fill="#244970" fill-opacity="0.247059" cx="213" cy="142" rx="2" ry="59" />
<ellipse fill="#5a6883" fill-opacity="0.631373" cx="103" cy="114" rx="8" ry="5" />
<ellipse fill="#060905" fill-opacity="0.474510" cx="118" cy="67" rx="3" ry="4" />
</g>
</svg>