<svg xmlns="http://www.w3.org/2000/svg" version="1.1" width="256" height="143">
<rect x="0" y="0" width="256" height="143" fill="#f0f0f0" />
<g transform="scale(1.000000) translate(0.5 0.5)">
<ellipse fill="#222f24" fill-opacity="0.580392" cx="82" cy="80" rx="235" ry="133" />
<ellipse fill="#b1b1ae" fill-opacity="0.619608" cx="184" cy="96" rx="68" ry="51" />
<ellipse fill="#1d3917" fill-opacity="0.454902" cx="3" cy="118" rx="68" ry="72" />
<ellipse fill="#434657" fill-opacity="0.407843" cx="58" cy="21" rx="64" ry="25" />
<ellipse fill="#a3a3a3" fill-opacity="0.698039" cx="139" cy="70" rx="29" ry="49" />
<ellipse fill="#d5d4d2" fill-opacity="0.396078" cx="178" cy="103" rx="42" ry="17" />
<ellipse fill="#62755c" fill-opacity="0.768627" cx="83" cy="102" rx="39" ry="22" />
<ellipse fill="#6c6e73" fill-opacity="0.654902" cx="179" cy="34" rx="24" ry="36" />
<ellipse fill="#62656c" fill-opacity="0.588235" cx="224" cy="22" rx="43" ry="26" />
<ellipse fill="#c0c3bd" fill-opacity="0.560784" cx="122" cy="82" rx="27" ry="8" />
<ellipse fill="#3a393d" fill-opacity="0.368627" cx="141" cy="71" rx="32" ry="4" />
<ellipse fill="#808f71" fill-opacity="0.780392" cx="228" cy="130" rx="27" ry="15" />
<ellipse fill="#201f28" fill-opacity="0.490196" cx="219" cy="61" rx="8" ry="5" />
<ellipse fill="#161d25" fill-opacity="0.552941" cx="133" cy="35" rx="7" ry="5" />
<ellipse fill="#b2b1ac" fill-opacity="0.549020" cx="55" cy="57" rx="9" ry="15" />
<ellipse fill="#a7ada5" fill-opacity="0.607843" cx="120" cy="125" rx="21" ry="10" />
<ellipse fill="#696c6d" fill-opacity="0.839216" cx="251" cy="62" rx="14" ry="26" />
<ellipse fill="#ffffff" fill-opacity="0.509804" cx="116" cy="62" rx="5" ry="8" />
<ellipse fill="#5e7351" fill-opacity="0.803922" cx="56" cy="78" rx="37" ry="10" />
<ellipse fill="#081c19" fill-opacity="0.462745" cx="0" cy="135" rx="24" ry="12" />
<ellipse fill="#676c71" fill-opacity="0.925490" cx="112" cy="7" rx="164" ry="16" />
<ellipse fill="#343d3f" fill-opacity="0.721569" cx="0" cy="28" rx="22" ry="8" />
<ellipse fill="#020d1a" fill-opacity="0.372549" cx="74" cy="43" rx="15" ry="7" />
<ellipse fill="#c8c8c4" fill-opacity="0.619608" cx="118" cy="39" rx="4" ry="14" />
<ellipse fill="#e8dfde" fill-opacity="0.372549" cx="232" cy="53" rx="9" ry="8" />
<ellipse fill="#31373d" fill-opacity="0.541176" cx="181" cy="83" rx="11" ry="3" />
<ellipse fill="#d5cec8" fill-opacity="0.517647" cx="215" cy="78" rx="24" ry="5" />
<ellipse fill="#040107" fill-opacity="0.278431" cx="125" cy="46" rx="5" ry="11" />
<ellipse fill="#34463a" fill-opacity="0.584314" cx="71" cy="141" rx="18" ry="7" />
<ellipse fill="#30373b" fill-opacity="0.678431" cx="214" cy="44" rx="18" ry="3" />
<ellipse fill="#a3a6a4" fill-opacity="0.811765" cx="255" cy="102" rx="33" ry="14" />
<ellipse fill="#e4dfda" fill-opacity="0.388235" cx="154" cy="44" rx="4" ry="24" />
<ellipse fill="#0a1418" fill-opacity="0.470588" cx="181" cy="62" rx="11" ry="3" />
<ellipse fill="#607359" fill-opacity="0.564706" cx="161" cy="126" rx="15" ry="5" />
<ellipse fill="#d3c8c4" fill-opacity="0.474510" cx="68" cy="54" rx="16" ry="4" />
<ellipse fill="#bcbcb7" fill-opacity="0.486275" cx="176" cy="19" rx="6" ry="8" />
<ellipse fill="#0f191e" fill-opacity="0.454902" cx="143" cy="18" rx="13" ry="3" />
<ellipse fill="#cccac6" fill-opacity="0.537255" cx="195" cy="72" rx="3" ry="27" />
<ellipse fill="#44544a" fill-opacity="0.541176" cx="103" cy="106" rx="16" ry="11" />
<ellipse fill="#2a3935" fill-opacity="0.513725" cx="39" cy="114" rx="15" ry="11" />
<ellipse fill="#324537" fill-opacity="0.549020" cx="12" cy="90" rx="26" ry="11" />
<ellipse fill="#ffffff" fill-opacity="0.301961" cx="138" cy="26" rx="19" ry="3" />
<ellipse fill="#323a41" fill-opacity="0.588235" cx="140" cy="33" rx="8" ry="4" />
<ellipse fill="#afb0ac" fill-opacity="0.647059" cx="238" cy="41" rx="4" ry="9" />
<ellipse fill="#616f5a" fill-opacity="0.674510" cx="14" cy="55" rx="36" ry="8" />
<ellipse fill="#c0c3bd" fill-opacity="0.200000" cx="174" cy="93" rx="8" ry="74" />
<ellipse fill="#838788" fill-opacity="0.537255" cx="101" cy="20" rx="13" ry="13" />
<ellipse fill="#b0b1ba" fill-opacity="0.470588" cx="141" cy="46" rx="10" ry="13" />
<ellipse fill="#7e9170" fill-opacity="0.470588" cx="87" cy="91" rx="44" ry="6" />
<ellipse fill="#000003" fill-opacity="0.529412" cx="216" cy="85" rx="4" ry="3" />
<ellipse fill="#e4ddd7" fill-opacity="0.490196" cx="83" cy="50" rx="2" ry="9" />
<ellipse fill="#9eaf81" fill-opacity="0.435294" cx="47" cy="71" rx="23" ry="3" />
<ellipse fill="#727177" fill-opacity="0.686275" cx="219" cy="68" rx="12" ry="5" />
<ellipse fill="#627366" fill-opacity="0.419608" cx="83" cy="62" rx="29" ry="8" />
<ellipse fill="#989a98" fill-opacity="0.462745" cx="220" cy="28" rx="21" ry="4" />
<ellipse fill="#0a0d12" fill-opacity="0.431373" cx="162" cy="68" rx="2" ry="7" />
<ellipse fill="#343b3e" fill-opacity="0.490196" cx="86" cy="38" rx="25" ry="4" />
<ellipse fill="#f8ecd9" fill-opacity="0.607843" cx="157" cy="60" rx="4" ry="7" />
<ellipse fill="#919198" fill-opacity="0.494118" cx="93" cy="50" rx="5" ry="16" />
<ellipse fill="#353c4b" fill-opacity="0.290196" cx="188" cy="97" rx="2" ry="20" />
<ellipse fill="#b8b7b5" fill-opacity="0.611765" cx="180" cy="91" rx="3" ry="26" />
<ellipse fill="#717678" fill-opacity="0.454902" cx="199" cy="56" rx="3" ry="31" />
<ellipse fill="#3e6023" fill-opacity="0.337255" cx="247" cy="115" rx="4" ry="10" />
<ellipse fill="#b1b9b4" fill-opacity="0.380392" cx="187" cy="139" rx="36" ry="7" />
<ellipse fill="#79836c" fill-opacity="0.482353" cx="12" cy="113" rx="7" ry="12" />
<ellipse fill="#706f72" fill-opacity="0.517647" cx="136" cy="65" rx="14" ry="4" />
<ellipse fill="#bebeb9" fill-opacity="0.603922" cx="152" cy="96" rx="18" ry="15" />
<ellipse fill="#6b6f73" fill-opacity="1.000000" cx="167" cy="0" rx="17" ry="21" />
<ellipse fill="#919e7f" fill-opacity="0.298039" cx="79" cy="104" rx="12" ry="18" />
<ellipse fill="#293331" fill-opacity="0.482353" cx="44" cy="39" rx="11" ry="3" />
<ellipse fill="#070f13" fill-opacity="0.321569" cx="187" cy="66" rx="5" ry="5" />
<ellipse fill="#a6a8a2" fill-opacity="0.564706" cx="75" cy="53" rx="2" ry="12" />
<ellipse fill="#b9babc" fill-opacity="0.478431" cx="220" cy="53" rx="12" ry="5" />
<ellipse fill="#617367" fill-opacity="0.247059" cx="139" cy="123" rx="7" ry="18" />
<ellipse fill="#76826b" fill-opacity="0.521569" cx="41" cy="135" rx="9" ry="8" />
<ellipse fill="#c1c0be" fill-opacity="0.576471" cx="233" cy="67" rx="4" ry="10" />
<ellipse fill="#cfc3b8" fill-opacity="0.411765" cx="68" cy="47" rx="2" ry="5" />
<ellipse fill="#6c7d5a" fill-opacity="0.458824" cx="217" cy="124" rx="10" ry="12" />
<ellipse fill="#626f5a" fill-opacity="0.521569" cx="8" cy="46" rx="11" ry="15" />
<ellipse fill="#c8c7c5" fill-opacity="0.541176" cx="181" cy="75" rx="13" ry="4" />
<ellipse fill="#818382" fill-opacity="0.486275" cx="134" cy="12" rx="17" ry="6" />
<ellipse fill="#cececd" fill-opacity="0.407843" cx="213" cy="86" rx="2" ry="22" />
<ellipse fill="#000001" fill-opacity="0.254902" cx="125" cy="22" rx="10" ry="3" />
<ellipse fill="#616a66" fill-opacity="0.525490" cx="96" cy="62" rx="14" ry="12" />
<ellipse fill="#d7d4d1" fill-opacity="0.454902" cx="126" cy="28" rx="6" ry="5" />
<ellipse fill="#55595b" fill-opacity="0.345098" cx="163" cy="75" rx="7" ry="9" />
<ellipse fill="#a4a4a2" fill-opacity="0.533333" cx="125" cy="93" rx="3" ry="45" />
<ellipse fill="#001403" fill-opacity="0.200000" cx="90" cy="101" rx="9" ry="6" />
<ellipse fill="#d6d3cb" fill-opacity="0.505882" cx="56" cy="48" rx="3" ry="9" />
<ellipse fill="#293730" fill-opacity="0.247059" cx="58" cy="126" rx="20" ry="10" />
<ellipse fill="#1a2631" fill-opacity="0.501961" cx="173" cy="83" rx="5" ry="2" />
<ellipse fill="#4b633d" fill-opacity="0.419608" cx="66" cy="84" rx="13" ry="11" />
<ellipse fill="#424546" fill-opacity="1.000000" cx="231" cy="82" rx="3" ry="1" />
<ellipse fill="#919391" fill-opacity="0.419608" cx="57" cy="33" rx="14" ry="4" />
<ellipse fill="#0f1924" fill-opacity="0.435294" cx="203" cy="47" rx="5" ry="3" />
<ellipse fill="#2c3231" fill-opacity="0.380392" cx="191" cy="39" rx="17" ry="2" />
<ellipse fill="#6c7071" fill-opacity="0.584314" cx="161" cy="42" rx="6" ry="10" />
<ellipse fill="#abaaae" fill-opacity="0.298039" cx="234" cy="102" rx="9" ry="33" />
<ellipse fill="#7c827c" fill-opacity="0.556863" cx="221" cy="105" rx="3" ry="25" />
<ellipse fill="#969d8a" fill-opacity="0.654902" cx="25" cy="44" rx="5" ry="6" />
</g>
</svg>