<svg xmlns="http://www.w3.org/2000/svg" version="1.1" width="256" height="143">
<rect x="0" y="0" width="256" height="143" fill="#f0f0f0" />
<g transform="scale(1.000000) translate(0.5 0.5)">
<ellipse fill="#151503" fill-opacity="0.835294" cx="131" cy="84" rx="172" ry="142" />
<ellipse fill="#989170" fill-opacity="0.513725" cx="78" cy="102" rx="69" ry="50" />
<ellipse fill="#000602" fill-opacity="0.600000" cx="208" cy="75" rx="59" ry="142" />
<ellipse fill="#79837d" fill-opacity="0.643137" cx="138" cy="68" rx="7" ry="36" />
<ellipse fill="#1c140a" fill-opacity="0.509804" cx="22" cy="14" rx="49" ry="28" />
<ellipse fill="#8c8868" fill-opacity="0.486275" cx="75" cy="120" rx="27" ry="36" />
<ellipse fill="#4d4631" fill-opacity="0.694118" cx="102" cy="49" rx="28" ry="29" />
<ellipse fill="#2d322d" fill-opacity="0.525490" cx="215" cy="79" rx="16" ry="45" />
<ellipse fill="#554d37" fill-opacity="0.462745" cx="21" cy="103" rx="19" ry="40" />
<ellipse fill="#3e3d30" fill-opacity="0.733333" cx="129" cy="124" rx="4" ry="94" />
<ellipse fill="#444b3e" fill-opacity="0.313725" cx="152" cy="82" rx="13" ry="34" />
<ellipse fill="#050b01" fill-opacity="0.509804" cx="172" cy="142" rx="28" ry="32" />
<ellipse fill="#010900" fill-opacity="0.396078" cx="171" cy="31" rx="36" ry="13" />
<ellipse fill="#516672" fill-opacity="0.458824" cx="141" cy="13" rx="7" ry="12" />
<ellipse fill="#18160d" fill-opacity="0.501961" cx="49" cy="0" rx="164" ry="7" />
<ellipse fill="#000500" fill-opacity="0.568627" cx="247" cy="136" rx="19" ry="34" />
<ellipse fill="#7b7352" fill-opacity="0.450980" cx="55" cy="71" rx="26" ry="21" />
<ellipse fill="#313730" fill-opacity="0.501961" cx="219" cy="12" rx="21" ry="8" />
<ellipse fill="#463822" fill-opacity="0.403922" cx="56" cy="37" rx="46" ry="19" />
<ellipse fill="#78817c" fill-opacity="0.439216" cx="136" cy="109" rx="4" ry="72" />
<ellipse fill="#1d180f" fill-opacity="0.427451" cx="8" cy="53" rx="12" ry="20" />
<ellipse fill="#070c02" fill-opacity="0.533333" cx="190" cy="51" rx="11" ry="58" />
<ellipse fill="#3e3628" fill-opacity="0.643137" cx="0" cy="112" rx="19" ry="17" />
<ellipse fill="#49473d" fill-opacity="0.431373" cx="129" cy="133" rx="19" ry="12" />
<ellipse fill="#1e2419" fill-opacity="0.513725" cx="156" cy="116" rx="15" ry="12" />
<ellipse fill="#898766" fill-opacity="0.713725" cx="79" cy="85" rx="7" ry="12" />
<ellipse fill="#999575" fill-opacity="0.415686" cx="65" cy="122" rx="14" ry="10" />
<ellipse fill="#6d634b" fill-opacity="0.474510" cx="121" cy="66" rx="7" ry="19" />
<ellipse fill="#2e261a" fill-opacity="0.407843" cx="118" cy="12" rx="17" ry="30" />
<ellipse fill="#5f583d" fill-opacity="0.478431" cx="81" cy="104" rx="10" ry="10" />
<ellipse fill="#544930" fill-opacity="0.494118" cx="52" cy="91" rx="14" ry="6" />
<ellipse fill="#5e573b" fill-opacity="0.447059" cx="54" cy="51" rx="7" ry="17" />
<ellipse fill="#564e37" fill-opacity="0.443137" cx="18" cy="77" rx="24" ry="11" />
<ellipse fill="#2c3024" fill-opacity="0.392157" cx="146" cy="89" rx="13" ry="4" />
<ellipse fill="#44402e" fill-opacity="0.576471" cx="101" cy="43" rx="20" ry="27" />
<ellipse fill="#95a5ac" fill-opacity="0.349020" cx="140" cy="41" rx="8" ry="4" />
<ellipse fill="#020a09" fill-opacity="0.482353" cx="131" cy="84" rx="1" ry="98" />
<ellipse fill="#8e8d71" fill-opacity="0.466667" cx="55" cy="76" rx="9" ry="7" />
<ellipse fill="#6d6b52" fill-opacity="0.764706" cx="118" cy="98" rx="11" ry="17" />
<ellipse fill="#454c44" fill-opacity="0.643137" cx="146" cy="82" rx="3" ry="44" />
<ellipse fill="#182118" fill-opacity="0.388235" cx="156" cy="20" rx="12" ry="35" />
<ellipse fill="#31362b" fill-opacity="0.454902" cx="144" cy="47" rx="15" ry="3" />
<ellipse fill="#9ca99c" fill-opacity="0.458824" cx="134" cy="62" rx="2" ry="14" />
<ellipse fill="#76755b" fill-opacity="0.517647" cx="102" cy="119" rx="17" ry="16" />
<ellipse fill="#69674f" fill-opacity="0.356863" cx="34" cy="113" rx="17" ry="33" />
<ellipse fill="#8f8c6e" fill-opacity="0.549020" cx="48" cy="79" rx="8" ry="7" />
<ellipse fill="#585741" fill-opacity="0.427451" cx="103" cy="83" rx="14" ry="21" />
<ellipse fill="#494334" fill-opacity="0.545098" cx="27" cy="131" rx="13" ry="5" />
<ellipse fill="#303939" fill-opacity="0.203922" cx="206" cy="113" rx="6" ry="109" />
<ellipse fill="#b0ad8f" fill-opacity="0.462745" cx="59" cy="102" rx="9" ry="2" />
<ellipse fill="#6a838c" fill-opacity="0.372549" cx="137" cy="7" rx="5" ry="4" />
<ellipse fill="#222016" fill-opacity="0.643137" cx="1" cy="7" rx="82" ry="11" />
<ellipse fill="#6a664c" fill-opacity="0.490196" cx="86" cy="136" rx="16" ry="11" />
<ellipse fill="#0d130b" fill-opacity="0.552941" cx="234" cy="24" rx="18" ry="11" />
<ellipse fill="#342819" fill-opacity="0.478431" cx="69" cy="14" rx="11" ry="23" />
<ellipse fill="#a49f77" fill-opacity="0.462745" cx="85" cy="93" rx="3" ry="8" />
<ellipse fill="#6d7568" fill-opacity="0.439216" cx="140" cy="70" rx="6" ry="17" />
<ellipse fill="#070c03" fill-opacity="0.403922" cx="178" cy="41" rx="24" ry="16" />
<ellipse fill="#3b3729" fill-opacity="0.454902" cx="22" cy="38" rx="13" ry="21" />
<ellipse fill="#141b16" fill-opacity="0.600000" cx="132" cy="11" rx="2" ry="26" />
<ellipse fill="#525a54" fill-opacity="0.572549" cx="141" cy="121" rx="2" ry="21" />
<ellipse fill="#56615d" fill-opacity="0.392157" cx="139" cy="23" rx="8" ry="4" />
<ellipse fill="#64593d" fill-opacity="0.709804" cx="59" cy="86" rx="6" ry="7" />
<ellipse fill="#7e795f" fill-opacity="0.490196" cx="25" cy="115" rx="5" ry="8" />
<ellipse fill="#7b7554" fill-opacity="0.545098" cx="13" cy="89" rx="4" ry="8" />
<ellipse fill="#191912" fill-opacity="0.454902" cx="0" cy="32" rx="6" ry="42" />
<ellipse fill="#32322c" fill-opacity="0.501961" cx="141" cy="32" rx="5" ry="9" />
<ellipse fill="#5a6760" fill-opacity="0.388235" cx="201" cy="14" rx="3" ry="5" />
<ellipse fill="#2e2618" fill-opacity="0.521569" cx="39" cy="26" rx="9" ry="28" />
<ellipse fill="#a7b6ac" fill-opacity="0.200000" cx="133" cy="98" rx="1" ry="63" />
<ellipse fill="#141911" fill-opacity="0.400000" cx="224" cy="116" rx="19" ry="18" />
<ellipse fill="#574e36" fill-opacity="0.615686" cx="24" cy="57" rx="4" ry="8" />
<ellipse fill="#4b6175" fill-opacity="0.517647" cx="151" cy="11" rx="2" ry="4" />
<ellipse fill="#8c8869" fill-opacity="0.588235" cx="68" cy="107" rx="3" ry="24" />
<ellipse fill="#5d5641" fill-opacity="0.584314" cx="118" cy="142" rx="11" ry="20" />
<ellipse fill="#453e2c" fill-opacity="0.376471" cx="125" cy="81" rx="11" ry="3" />
<ellipse fill="#35392e" fill-opacity="0.490196" cx="232" cy="82" rx="9" ry="4" />
<ellipse fill="#14190e" fill-opacity="0.509804" cx="175" cy="7" rx="23" ry="19" />
<ellipse fill="#6a6549" fill-opacity="0.513725" cx="41" cy="65" rx="11" ry="11" />
<ellipse fill="#0f150f" fill-opacity="0.400000" cx="152" cy="131" rx="3" ry="62" />
<ellipse fill="#7a784a" fill-opacity="0.172549" cx="156" cy="103" rx="2" ry="17" />
<ellipse fill="#8a8867" fill-opacity="0.556863" cx="72" cy="62" rx="4" ry="5" />
<ellipse fill="#33382f" fill-opacity="0.501961" cx="232" cy="7" rx="13" ry="3" />
<ellipse fill="#10150d" fill-opacity="0.541176" cx="248" cy="37" rx="12" ry="50" />
<ellipse fill="#858167" fill-opacity="0.729412" cx="59" cy="131" rx="13" ry="4" />
<ellipse fill="#9e9b7c" fill-opacity="0.403922" cx="78" cy="77" rx="5" ry="5" />
<ellipse fill="#9d9b7a" fill-opacity="0.501961" cx="96" cy="111" rx="2" ry="6" />
<ellipse fill="#292d25" fill-opacity="0.298039" cx="208" cy="97" rx="17" ry="18" />
<ellipse fill="#979b8e" fill-opacity="0.470588" cx="135" cy="99" rx="3" ry="7" />
<ellipse fill="#4b534b" fill-opacity="0.360784" cx="147" cy="63" rx="5" ry="10" />
<ellipse fill="#5f5d42" fill-opacity="0.537255" cx="87" cy="68" rx="5" ry="12" />
<ellipse fill="#1d2219" fill-opacity="0.490196" cx="231" cy="55" rx="12" ry="20" />
<ellipse fill="#686347" fill-opacity="0.525490" cx="78" cy="94" rx="3" ry="13" />
<ellipse fill="#5d543d" fill-opacity="0.486275" cx="123" cy="46" rx="7" ry="7" />
<ellipse fill="#212719" fill-opacity="0.541176" cx="159" cy="19" rx="7" ry="8" />
<ellipse fill="#554a2d" fill-opacity="0.486275" cx="77" cy="43" rx="8" ry="9" />
<ellipse fill="#0a0e05" fill-opacity="0.494118" cx="184" cy="142" rx="14" ry="44" />
<ellipse fill="#847d61" fill-opacity="0.349020" cx="118" cy="78" rx="2" ry="20" />
<ellipse fill="#282d29" fill-opacity="0.396078" cx="146" cy="130" rx="4" ry="26" />
<ellipse fill="#68664c" fill-opacity="0.521569" cx="104" cy="96" rx="18" ry="8" />
</g>
</svg>