<svg xmlns="http://www.w3.org/2000/svg" version="1.1" width="256" height="193">
<rect x="0" y="0" width="256" height="193" fill="#f0f0f0" />
<g transform="scale(1.000000) translate(0.5 0.5)">
<ellipse fill="#1f1e09" fill-opacity="0.937255" cx="117" cy="98" rx="255" ry="135" />
<ellipse fill="#807542" fill-opacity="0.513725" cx="140" cy="145" rx="52" ry="60" />
<ellipse fill="#000300" fill-opacity="0.847059" cx="7" cy="26" rx="28" ry="192" />
<ellipse fill="#000203" fill-opacity="0.486275" cx="248" cy="130" rx="19" ry="192" />
<ellipse fill="#050904" fill-opacity="0.470588" cx="45" cy="16" rx="66" ry="55" />
<ellipse fill="#847842" fill-opacity="0.419608" cx="140" cy="142" rx="24" ry="32" />
<ellipse fill="#413c22" fill-opacity="0.662745" cx="189" cy="141" rx="21" ry="64" />
<ellipse fill="#403c21" fill-opacity="0.662745" cx="128" cy="77" rx="52" ry="27" />
<ellipse fill="#454223" fill-opacity="0.603922" cx="91" cy="128" rx="22" ry="32" />
<ellipse fill="#060a05" fill-opacity="0.423529" cx="45" cy="192" rx="25" ry="40" />
<ellipse fill="#000000" fill-opacity="0.513725" cx="244" cy="181" rx="24" ry="31" />
<ellipse fill="#1d1e11" fill-opacity="0.592157" cx="226" cy="20" rx="21" ry="101" />
<ellipse fill="#33301a" fill-opacity="0.854902" cx="207" cy="132" rx="31" ry="21" />
<ellipse fill="#927337" fill-opacity="0.137255" cx="157" cy="77" rx="15" ry="59" />
<ellipse fill="#333019" fill-opacity="0.482353" cx="99" cy="187" rx="17" ry="25" />
<ellipse fill="#4a492e" fill-opacity="0.639216" cx="175" cy="165" rx="25" ry="19" />
<ellipse fill="#2f2d18" fill-opacity="0.615686" cx="97" cy="59" rx="26" ry="26" />
<ellipse fill="#070c08" fill-opacity="0.266667" cx="134" cy="0" rx="133" ry="18" />
<ellipse fill="#64592e" fill-opacity="0.607843" cx="153" cy="114" rx="32" ry="18" />
<ellipse fill="#242717" fill-opacity="0.713725" cx="40" cy="120" rx="12" ry="53" />
<ellipse fill="#77713f" fill-opacity="0.572549" cx="131" cy="158" rx="19" ry="15" />
<ellipse fill="#2f321f" fill-opacity="0.462745" cx="94" cy="97" rx="28" ry="17" />
<ellipse fill="#544d29" fill-opacity="0.505882" cx="109" cy="124" rx="31" ry="14" />
<ellipse fill="#867e46" fill-opacity="0.529412" cx="161" cy="128" rx="4" ry="23" />
<ellipse fill="#464429" fill-opacity="0.549020" cx="164" cy="102" rx="19" ry="8" />
<ellipse fill="#1e2012" fill-opacity="0.596078" cx="111" cy="13" rx="23" ry="32" />
<ellipse fill="#36341d" fill-opacity="0.682353" cx="164" cy="32" rx="28" ry="18" />
<ellipse fill="#15160b" fill-opacity="0.470588" cx="55" cy="56" rx="13" ry="47" />
<ellipse fill="#30341f" fill-opacity="0.596078" cx="122" cy="82" rx="25" ry="13" />
<ellipse fill="#706a3f" fill-opacity="0.517647" cx="180" cy="160" rx="7" ry="7" />
<ellipse fill="#727247" fill-opacity="0.486275" cx="156" cy="183" rx="7" ry="8" />
<ellipse fill="#1b1f14" fill-opacity="0.564706" cx="225" cy="175" rx="5" ry="40" />
<ellipse fill="#232312" fill-opacity="0.611765" cx="71" cy="181" rx="12" ry="36" />
<ellipse fill="#595430" fill-opacity="0.423529" cx="227" cy="128" rx="5" ry="9" />
<ellipse fill="#606143" fill-opacity="0.203922" cx="209" cy="157" rx="9" ry="12" />
<ellipse fill="#6a6034" fill-opacity="0.560784" cx="129" cy="105" rx="10" ry="7" />
<ellipse fill="#2c2b19" fill-opacity="0.219608" cx="235" cy="118" rx="32" ry="30" />
<ellipse fill="#030602" fill-opacity="0.611765" cx="3" cy="188" rx="25" ry="99" />
<ellipse fill="#676135" fill-opacity="0.490196" cx="170" cy="73" rx="2" ry="18" />
<ellipse fill="#424028" fill-opacity="0.611765" cx="180" cy="183" rx="11" ry="16" />
<ellipse fill="#524b25" fill-opacity="0.454902" cx="93" cy="65" rx="6" ry="8" />
<ellipse fill="#161911" fill-opacity="0.498039" cx="164" cy="78" rx="4" ry="8" />
<ellipse fill="#070a04" fill-opacity="0.725490" cx="29" cy="56" rx="13" ry="15" />
<ellipse fill="#17160c" fill-opacity="0.521569" cx="200" cy="48" rx="13" ry="8" />
<ellipse fill="#635329" fill-opacity="0.494118" cx="153" cy="89" rx="5" ry="19" />
<ellipse fill="#4e4220" fill-opacity="0.466667" cx="201" cy="61" rx="9" ry="5" />
<ellipse fill="#494b3b" fill-opacity="0.141176" cx="36" cy="92" rx="6" ry="29" />
<ellipse fill="#695f34" fill-opacity="0.835294" cx="160" cy="129" rx="11" ry="6" />
<ellipse fill="#322f1a" fill-opacity="0.490196" cx="191" cy="139" rx="19" ry="13" />
<ellipse fill="#010504" fill-opacity="0.419608" cx="222" cy="162" rx="2" ry="31" />
<ellipse fill="#483f20" fill-opacity="0.521569" cx="202" cy="135" rx="5" ry="20" />
<ellipse fill="#5a502b" fill-opacity="0.486275" cx="131" cy="122" rx="6" ry="29" />
<ellipse fill="#36351d" fill-opacity="0.501961" cx="74" cy="136" rx="25" ry="9" />
<ellipse fill="#1d1e0e" fill-opacity="0.345098" cx="139" cy="50" rx="10" ry="11" />
<ellipse fill="#33331d" fill-opacity="0.603922" cx="180" cy="58" rx="9" ry="45" />
<ellipse fill="#201d0f" fill-opacity="0.447059" cx="189" cy="76" rx="3" ry="30" />
<ellipse fill="#242312" fill-opacity="0.454902" cx="63" cy="66" rx="13" ry="26" />
<ellipse fill="#000303" fill-opacity="0.403922" cx="245" cy="184" rx="16" ry="33" />
<ellipse fill="#232314" fill-opacity="0.435294" cx="238" cy="42" rx="17" ry="21" />
<ellipse fill="#5b5732" fill-opacity="0.486275" cx="129" cy="180" rx="24" ry="9" />
<ellipse fill="#7f703a" fill-opacity="0.400000" cx="152" cy="116" rx="18" ry="5" />
<ellipse fill="#43482e" fill-opacity="0.525490" cx="157" cy="154" rx="10" ry="4" />
<ellipse fill="#645f34" fill-opacity="0.482353" cx="114" cy="157" rx="20" ry="6" />
<ellipse fill="#80773e" fill-opacity="0.513725" cx="124" cy="128" rx="3" ry="7" />
<ellipse fill="#282a1a" fill-opacity="0.513725" cx="138" cy="90" rx="11" ry="4" />
<ellipse fill="#413d21" fill-opacity="0.576471" cx="99" cy="105" rx="10" ry="13" />
<ellipse fill="#707242" fill-opacity="0.470588" cx="101" cy="131" rx="3" ry="5" />
<ellipse fill="#191e14" fill-opacity="0.474510" cx="29" cy="172" rx="3" ry="50" />
<ellipse fill="#aba562" fill-opacity="0.482353" cx="145" cy="158" rx="4" ry="3" />
<ellipse fill="#252515" fill-opacity="0.364706" cx="189" cy="17" rx="43" ry="12" />
<ellipse fill="#2f301d" fill-opacity="0.486275" cx="227" cy="169" rx="2" ry="33" />
<ellipse fill="#96995a" fill-opacity="0.368627" cx="161" cy="143" rx="4" ry="8" />
<ellipse fill="#827c48" fill-opacity="0.450980" cx="130" cy="153" rx="12" ry="6" />
<ellipse fill="#42391c" fill-opacity="0.333333" cx="207" cy="99" rx="15" ry="12" />
<ellipse fill="#1c1c0e" fill-opacity="0.560784" cx="44" cy="110" rx="3" ry="41" />
<ellipse fill="#645f31" fill-opacity="0.619608" cx="112" cy="152" rx="6" ry="11" />
<ellipse fill="#3e3a20" fill-opacity="0.764706" cx="102" cy="192" rx="6" ry="11" />
<ellipse fill="#1e2115" fill-opacity="0.501961" cx="101" cy="77" rx="9" ry="6" />
<ellipse fill="#5b481f" fill-opacity="0.411765" cx="149" cy="77" rx="13" ry="6" />
<ellipse fill="#212518" fill-opacity="0.439216" cx="209" cy="187" rx="12" ry="15" />
<ellipse fill="#464224" fill-opacity="0.603922" cx="90" cy="155" rx="4" ry="13" />
<ellipse fill="#3a3b28" fill-opacity="0.415686" cx="36" cy="130" rx="5" ry="10" />
<ellipse fill="#3a351b" fill-opacity="0.560784" cx="101" cy="51" rx="7" ry="12" />
<ellipse fill="#83834a" fill-opacity="0.509804" cx="125" cy="57" rx="2" ry="4" />
<ellipse fill="#414229" fill-opacity="0.278431" cx="110" cy="86" rx="25" ry="8" />
<ellipse fill="#685b30" fill-opacity="0.494118" cx="145" cy="133" rx="14" ry="22" />
<ellipse fill="#0f1309" fill-opacity="0.596078" cx="57" cy="13" rx="14" ry="22" />
<ellipse fill="#202316" fill-opacity="0.509804" cx="191" cy="133" rx="7" ry="8" />
<ellipse fill="#2b2c19" fill-opacity="0.349020" cx="126" cy="68" rx="27" ry="9" />
<ellipse fill="#c2c479" fill-opacity="0.439216" cx="158" cy="146" rx="2" ry="3" />
<ellipse fill="#443a1c" fill-opacity="0.486275" cx="156" cy="59" rx="18" ry="12" />
<ellipse fill="#90915a" fill-opacity="0.556863" cx="123" cy="149" rx="5" ry="2" />
<ellipse fill="#474225" fill-opacity="0.482353" cx="228" cy="129" rx="7" ry="9" />
<ellipse fill="#2e3121" fill-opacity="0.474510" cx="174" cy="96" rx="10" ry="6" />
<ellipse fill="#3c3921" fill-opacity="0.411765" cx="181" cy="36" rx="31" ry="6" />
<ellipse fill="#1b1d12" fill-opacity="0.654902" cx="245" cy="138" rx="15" ry="7" />
<ellipse fill="#2b2b19" fill-opacity="0.400000" cx="228" cy="58" rx="8" ry="19" />
<ellipse fill="#595a33" fill-opacity="0.509804" cx="95" cy="122" rx="9" ry="5" />
<ellipse fill="#776e3d" fill-opacity="0.490196" cx="141" cy="113" rx="5" ry="8" />
<ellipse fill="#33341e" fill-opacity="0.556863" cx="180" cy="81" rx="10" ry="13" />
</g>
</svg>