<svg xmlns="http://www.w3.org/2000/svg" version="1.1" width="256" height="143">
<rect x="0" y="0" width="256" height="143" fill="#f0f0f0" />
<g transform="scale(1.000000) translate(0.5 0.5)">
<ellipse fill="#38452b" fill-opacity="0.658824" cx="111" cy="69" rx="195" ry="142" />
<ellipse fill="#211709" fill-opacity="0.470588" cx="3" cy="45" rx="22" ry="98" />
<ellipse fill="#cccbc4" fill-opacity="0.549020" cx="122" cy="22" rx="22" ry="14" />
<ellipse fill="#f1ede9" fill-opacity="0.517647" cx="100" cy="108" rx="18" ry="10" />
<ellipse fill="#8f967c" fill-opacity="0.870588" cx="176" cy="86" rx="89" ry="24" />
<ellipse fill="#789094" fill-opacity="0.619608" cx="194" cy="21" rx="50" ry="52" />
<ellipse fill="#010305" fill-opacity="0.627451" cx="74" cy="139" rx="8" ry="15" />
<ellipse fill="#53790a" fill-opacity="0.321569" cx="201" cy="129" rx="41" ry="25" />
<ellipse fill="#5e5957" fill-opacity="0.423529" cx="59" cy="24" rx="28" ry="126" />
<ellipse fill="#b3ba97" fill-opacity="0.619608" cx="94" cy="0" rx="31" ry="13" />
<ellipse fill="#fffff1" fill-opacity="0.380392" cx="89" cy="125" rx="6" ry="22" />
<ellipse fill="#154f7d" fill-opacity="0.345098" cx="255" cy="23" rx="26" ry="41" />
<ellipse fill="#e6d5c2" fill-opacity="0.560784" cx="35" cy="142" rx="12" ry="12" />
<ellipse fill="#ebdeab" fill-opacity="0.478431" cx="148" cy="132" rx="7" ry="15" />
<ellipse fill="#406500" fill-opacity="0.325490" cx="119" cy="137" rx="25" ry="15" />
<ellipse fill="#a6a48f" fill-opacity="0.486275" cx="0" cy="57" rx="9" ry="16" />
<ellipse fill="#4b664d" fill-opacity="0.529412" cx="194" cy="73" rx="7" ry="23" />
<ellipse fill="#aaa595" fill-opacity="0.737255" cx="31" cy="116" rx="4" ry="36" />
<ellipse fill="#181a0f" fill-opacity="0.509804" cx="16" cy="83" rx="7" ry="20" />
<ellipse fill="#2f2b1e" fill-opacity="0.388235" cx="40" cy="101" rx="5" ry="32" />
<ellipse fill="#c1ba93" fill-opacity="0.533333" cx="172" cy="87" rx="9" ry="23" />
<ellipse fill="#595d5b" fill-opacity="0.521569" cx="47" cy="12" rx="34" ry="12" />
<ellipse fill="#1f2245" fill-opacity="0.403922" cx="157" cy="54" rx="7" ry="12" />
<ellipse fill="#c8c8c9" fill-opacity="0.415686" cx="117" cy="33" rx="6" ry="23" />
<ellipse fill="#aaa99f" fill-opacity="0.501961" cx="23" cy="29" rx="9" ry="7" />
<ellipse fill="#39583e" fill-opacity="0.317647" cx="222" cy="103" rx="8" ry="32" />
<ellipse fill="#aaaba9" fill-opacity="0.443137" cx="224" cy="70" rx="30" ry="7" />
<ellipse fill="#000c03" fill-opacity="0.580392" cx="9" cy="31" rx="3" ry="15" />
<ellipse fill="#a6a868" fill-opacity="0.388235" cx="194" cy="110" rx="18" ry="19" />
<ellipse fill="#606164" fill-opacity="0.462745" cx="91" cy="72" rx="11" ry="33" />
<ellipse fill="#6e644e" fill-opacity="0.698039" cx="15" cy="128" rx="11" ry="17" />
<ellipse fill="#b0a792" fill-opacity="0.588235" cx="47" cy="124" rx="2" ry="42" />
<ellipse fill="#a9a8a6" fill-opacity="0.560784" cx="115" cy="96" rx="16" ry="12" />
<ellipse fill="#8e8f8e" fill-opacity="0.450980" cx="151" cy="35" rx="63" ry="10" />
<ellipse fill="#d4d4cf" fill-opacity="0.458824" cx="242" cy="142" rx="12" ry="4" />
<ellipse fill="#17441a" fill-opacity="0.498039" cx="255" cy="97" rx="5" ry="10" />
<ellipse fill="#81a8ba" fill-opacity="0.466667" cx="193" cy="0" rx="29" ry="13" />
<ellipse fill="#4d6c2d" fill-opacity="0.564706" cx="182" cy="141" rx="25" ry="12" />
<ellipse fill="#000924" fill-opacity="0.498039" cx="115" cy="61" rx="3" ry="6" />
<ellipse fill="#c1beaa" fill-opacity="0.603922" cx="51" cy="84" rx="2" ry="12" />
<ellipse fill="#a1a093" fill-opacity="0.498039" cx="55" cy="67" rx="15" ry="5" />
<ellipse fill="#7f9a49" fill-opacity="0.321569" cx="144" cy="113" rx="38" ry="11" />
<ellipse fill="#4f6357" fill-opacity="0.572549" cx="189" cy="74" rx="10" ry="9" />
<ellipse fill="#b9b876" fill-opacity="0.552941" cx="211" cy="124" rx="7" ry="6" />
<ellipse fill="#787b82" fill-opacity="0.533333" cx="134" cy="49" rx="15" ry="27" />
<ellipse fill="#76776c" fill-opacity="0.568627" cx="23" cy="64" rx="3" ry="21" />
<ellipse fill="#fff9fb" fill-opacity="0.207843" cx="77" cy="0" rx="20" ry="7" />
<ellipse fill="#3a3a30" fill-opacity="0.580392" cx="55" cy="123" rx="2" ry="20" />
<ellipse fill="#c0bfb1" fill-opacity="0.423529" cx="158" cy="75" rx="16" ry="6" />
<ellipse fill="#b3ada0" fill-opacity="0.486275" cx="28" cy="38" rx="3" ry="28" />
<ellipse fill="#384143" fill-opacity="0.533333" cx="91" cy="56" rx="21" ry="3" />
<ellipse fill="#c9c3ca" fill-opacity="0.513725" cx="115" cy="116" rx="3" ry="10" />
<ellipse fill="#38392e" fill-opacity="0.427451" cx="26" cy="3" rx="7" ry="18" />
<ellipse fill="#256825" fill-opacity="0.305882" cx="204" cy="88" rx="13" ry="6" />
<ellipse fill="#99988a" fill-opacity="0.411765" cx="15" cy="15" rx="6" ry="9" />
<ellipse fill="#9a9893" fill-opacity="0.419608" cx="107" cy="47" rx="5" ry="57" />
<ellipse fill="#7f837a" fill-opacity="0.643137" cx="105" cy="97" rx="17" ry="5" />
<ellipse fill="#223054" fill-opacity="0.517647" cx="202" cy="58" rx="9" ry="4" />
<ellipse fill="#001314" fill-opacity="0.286275" cx="13" cy="61" rx="6" ry="22" />
<ellipse fill="#bfbe9c" fill-opacity="0.356863" cx="159" cy="27" rx="10" ry="9" />
<ellipse fill="#6a8a57" fill-opacity="0.619608" cx="114" cy="0" rx="21" ry="4" />
<ellipse fill="#b7b085" fill-opacity="0.509804" cx="182" cy="97" rx="8" ry="17" />
<ellipse fill="#47402c" fill-opacity="1.000000" cx="0" cy="99" rx="21" ry="12" />
<ellipse fill="#68879a" fill-opacity="0.474510" cx="222" cy="9" rx="23" ry="22" />
<ellipse fill="#405246" fill-opacity="0.400000" cx="231" cy="122" rx="13" ry="12" />
<ellipse fill="#bdbb8a" fill-opacity="0.505882" cx="155" cy="130" rx="7" ry="8" />
<ellipse fill="#69865f" fill-opacity="0.454902" cx="159" cy="14" rx="18" ry="11" />
<ellipse fill="#d6d0c8" fill-opacity="0.533333" cx="115" cy="88" rx="5" ry="6" />
<ellipse fill="#495256" fill-opacity="0.541176" cx="104" cy="18" rx="4" ry="4" />
<ellipse fill="#e9e7e3" fill-opacity="0.541176" cx="88" cy="141" rx="6" ry="5" />
<ellipse fill="#454c4f" fill-opacity="0.568627" cx="110" cy="137" rx="2" ry="30" />
<ellipse fill="#2e3020" fill-opacity="0.490196" cx="4" cy="53" rx="15" ry="4" />
<ellipse fill="#738459" fill-opacity="0.556863" cx="104" cy="132" rx="17" ry="5" />
<ellipse fill="#d6d0a7" fill-opacity="0.368627" cx="123" cy="14" rx="22" ry="4" />
<ellipse fill="#a2a16b" fill-opacity="0.443137" cx="237" cy="98" rx="15" ry="11" />
<ellipse fill="#92968e" fill-opacity="0.552941" cx="198" cy="65" rx="35" ry="4" />
<ellipse fill="#575b59" fill-opacity="0.639216" cx="124" cy="82" rx="5" ry="5" />
<ellipse fill="#6d7169" fill-opacity="0.427451" cx="92" cy="120" rx="23" ry="4" />
<ellipse fill="#182e16" fill-opacity="0.400000" cx="132" cy="132" rx="5" ry="6" />
<ellipse fill="#aeac89" fill-opacity="0.556863" cx="144" cy="120" rx="6" ry="11" />
<ellipse fill="#57703d" fill-opacity="0.525490" cx="171" cy="117" rx="21" ry="4" />
<ellipse fill="#a08f70" fill-opacity="0.447059" cx="12" cy="140" rx="4" ry="25" />
<ellipse fill="#9e9c9f" fill-opacity="0.474510" cx="223" cy="54" rx="18" ry="5" />
<ellipse fill="#12190e" fill-opacity="0.247059" cx="5" cy="22" rx="16" ry="7" />
<ellipse fill="#989a90" fill-opacity="0.596078" cx="251" cy="124" rx="8" ry="9" />
<ellipse fill="#55594e" fill-opacity="0.670588" cx="23" cy="39" rx="4" ry="10" />
<ellipse fill="#5b5f55" fill-opacity="0.533333" cx="46" cy="32" rx="15" ry="18" />
<ellipse fill="#b9b6a2" fill-opacity="0.392157" cx="88" cy="101" rx="13" ry="5" />
<ellipse fill="#9fac83" fill-opacity="0.509804" cx="200" cy="78" rx="6" ry="7" />
<ellipse fill="#bbbdaa" fill-opacity="0.470588" cx="129" cy="101" rx="10" ry="6" />
<ellipse fill="#dad9d6" fill-opacity="0.294118" cx="121" cy="59" rx="3" ry="7" />
<ellipse fill="#6e7578" fill-opacity="0.458824" cx="74" cy="23" rx="18" ry="16" />
<ellipse fill="#9ca072" fill-opacity="0.580392" cx="153" cy="82" rx="27" ry="5" />
<ellipse fill="#e0d4bc" fill-opacity="0.552941" cx="164" cy="24" rx="3" ry="4" />
<ellipse fill="#262516" fill-opacity="0.368627" cx="39" cy="74" rx="14" ry="2" />
<ellipse fill="#9eb35a" fill-opacity="0.435294" cx="187" cy="142" rx="6" ry="8" />
<ellipse fill="#fff5ef" fill-opacity="0.317647" cx="110" cy="72" rx="3" ry="7" />
<ellipse fill="#ffffff" fill-opacity="0.501961" cx="171" cy="56" rx="2" ry="3" />
<ellipse fill="#121817" fill-opacity="0.478431" cx="77" cy="135" rx="6" ry="10" />
<ellipse fill="#32632b" fill-opacity="0.349020" cx="125" cy="115" rx="8" ry="7" />
</g>
</svg>