<svg xmlns="http://www.w3.org/2000/svg" version="1.1" width="256" height="143">
<rect x="0" y="0" width="256" height="143" fill="#f0f0f0" />
<g transform="scale(1.000000) translate(0.5 0.5)">
<ellipse fill="#0a0600" fill-opacity="0.917647" cx="117" cy="71" rx="189" ry="119" />
<ellipse fill="#645b4d" fill-opacity="0.635294" cx="156" cy="17" rx="73" ry="32" />
<ellipse fill="#030300" fill-opacity="0.745098" cx="0" cy="88" rx="125" ry="59" />
<ellipse fill="#ae9d8b" fill-opacity="0.407843" cx="176" cy="0" rx="21" ry="20" />
<ellipse fill="#060400" fill-opacity="0.607843" cx="190" cy="120" rx="72" ry="42" />
<ellipse fill="#6b5d51" fill-opacity="0.400000" cx="102" cy="131" rx="19" ry="15" />
<ellipse fill="#3f392f" fill-opacity="1.000000" cx="139" cy="30" rx="18" ry="30" />
<ellipse fill="#50483d" fill-opacity="0.549020" cx="197" cy="33" rx="18" ry="31" />
<ellipse fill="#363329" fill-opacity="0.549020" cx="79" cy="34" rx="14" ry="33" />
<ellipse fill="#2e281e" fill-opacity="0.529412" cx="220" cy="49" rx="19" ry="69" />
<ellipse fill="#19140b" fill-opacity="0.788235" cx="166" cy="60" rx="17" ry="24" />
<ellipse fill="#72695a" fill-opacity="0.368627" cx="141" cy="80" rx="18" ry="6" />
<ellipse fill="#010000" fill-opacity="0.572549" cx="109" cy="52" rx="17" ry="15" />
<ellipse fill="#5b4f42" fill-opacity="0.490196" cx="156" cy="118" rx="10" ry="10" />
<ellipse fill="#120b01" fill-opacity="0.498039" cx="139" cy="13" rx="14" ry="10" />
<ellipse fill="#000000" fill-opacity="0.611765" cx="84" cy="133" rx="183" ry="3" />
<ellipse fill="#989188" fill-opacity="0.235294" cx="131" cy="39" rx="9" ry="15" />
<ellipse fill="#877a6a" fill-opacity="0.360784" cx="117" cy="0" rx="12" ry="18" />
<ellipse fill="#7f7467" fill-opacity="0.231373" cx="178" cy="17" rx="21" ry="26" />
<ellipse fill="#433d32" fill-opacity="0.454902" cx="120" cy="73" rx="12" ry="7" />
<ellipse fill="#6c6257" fill-opacity="0.364706" cx="103" cy="126" rx="20" ry="6" />
<ellipse fill="#000000" fill-opacity="0.584314" cx="168" cy="117" rx="44" ry="3" />
<ellipse fill="#000000" fill-opacity="0.529412" cx="97" cy="97" rx="33" ry="25" />
<ellipse fill="#6d6155" fill-opacity="0.666667" cx="115" cy="119" rx="5" ry="4" />
<ellipse fill="#040200" fill-opacity="0.666667" cx="189" cy="93" rx="13" ry="32" />
<ellipse fill="#4e483f" fill-opacity="0.529412" cx="167" cy="76" rx="7" ry="7" />
<ellipse fill="#0d0800" fill-opacity="0.576471" cx="6" cy="0" rx="69" ry="16" />
<ellipse fill="#2e2518" fill-opacity="0.466667" cx="42" cy="106" rx="22" ry="7" />
<ellipse fill="#433f36" fill-opacity="0.470588" cx="93" cy="33" rx="33" ry="8" />
<ellipse fill="#786655" fill-opacity="0.454902" cx="151" cy="141" rx="4" ry="7" />
<ellipse fill="#020100" fill-opacity="0.843137" cx="56" cy="142" rx="22" ry="29" />
<ellipse fill="#120e05" fill-opacity="0.443137" cx="244" cy="77" rx="18" ry="36" />
<ellipse fill="#888176" fill-opacity="0.498039" cx="139" cy="57" rx="6" ry="4" />
<ellipse fill="#070500" fill-opacity="0.584314" cx="118" cy="49" rx="5" ry="17" />
<ellipse fill="#524c41" fill-opacity="0.607843" cx="191" cy="34" rx="13" ry="23" />
<ellipse fill="#504a40" fill-opacity="0.470588" cx="205" cy="70" rx="8" ry="7" />
<ellipse fill="#020100" fill-opacity="0.643137" cx="153" cy="100" rx="58" ry="9" />
<ellipse fill="#151008" fill-opacity="0.439216" cx="224" cy="39" rx="30" ry="4" />
<ellipse fill="#5a4f42" fill-opacity="0.639216" cx="108" cy="139" rx="11" ry="5" />
<ellipse fill="#645e53" fill-opacity="0.466667" cx="130" cy="82" rx="4" ry="8" />
<ellipse fill="#937864" fill-opacity="0.537255" cx="214" cy="0" rx="8" ry="3" />
<ellipse fill="#4f453a" fill-opacity="0.737255" cx="156" cy="110" rx="12" ry="2" />
<ellipse fill="#000000" fill-opacity="0.380392" cx="4" cy="84" rx="19" ry="82" />
<ellipse fill="#0f0d06" fill-opacity="0.509804" cx="42" cy="57" rx="31" ry="29" />
<ellipse fill="#0c0700" fill-opacity="0.443137" cx="181" cy="27" rx="5" ry="3" />
<ellipse fill="#76675b" fill-opacity="0.474510" cx="155" cy="125" rx="7" ry="3" />
<ellipse fill="#0e0600" fill-opacity="0.549020" cx="213" cy="12" rx="5" ry="5" />
<ellipse fill="#000000" fill-opacity="0.521569" cx="212" cy="123" rx="9" ry="23" />
<ellipse fill="#040400" fill-opacity="0.517647" cx="220" cy="64" rx="19" ry="4" />
<ellipse fill="#5a4c3e" fill-opacity="0.494118" cx="190" cy="140" rx="4" ry="5" />
<ellipse fill="#28241b" fill-opacity="0.627451" cx="52" cy="21" rx="38" ry="8" />
<ellipse fill="#000000" fill-opacity="0.486275" cx="132" cy="142" rx="15" ry="22" />
<ellipse fill="#655f54" fill-opacity="0.400000" cx="112" cy="73" rx="4" ry="5" />
<ellipse fill="#60564a" fill-opacity="0.400000" cx="189" cy="21" rx="33" ry="5" />
<ellipse fill="#352c21" fill-opacity="0.478431" cx="194" cy="122" rx="6" ry="7" />
<ellipse fill="#100800" fill-opacity="0.498039" cx="139" cy="67" rx="20" ry="6" />
<ellipse fill="#3b362c" fill-opacity="0.564706" cx="234" cy="25" rx="10" ry="9" />
<ellipse fill="#242117" fill-opacity="0.647059" cx="225" cy="115" rx="6" ry="18" />
<ellipse fill="#0f0a00" fill-opacity="0.482353" cx="248" cy="9" rx="9" ry="26" />
<ellipse fill="#5a5448" fill-opacity="0.458824" cx="111" cy="18" rx="12" ry="18" />
<ellipse fill="#282217" fill-opacity="0.435294" cx="141" cy="15" rx="17" ry="14" />
<ellipse fill="#000000" fill-opacity="0.831373" cx="255" cy="142" rx="17" ry="22" />
<ellipse fill="#4b453c" fill-opacity="0.454902" cx="144" cy="38" rx="11" ry="19" />
<ellipse fill="#2a2317" fill-opacity="0.466667" cx="67" cy="63" rx="6" ry="13" />
<ellipse fill="#b59f90" fill-opacity="0.341176" cx="152" cy="113" rx="5" ry="2" />
<ellipse fill="#000000" fill-opacity="0.549020" cx="163" cy="90" rx="4" ry="14" />
<ellipse fill="#cbc3aa" fill-opacity="0.050980" cx="213" cy="83" rx="11" ry="18" />
<ellipse fill="#756959" fill-opacity="0.576471" cx="143" cy="0" rx="19" ry="2" />
<ellipse fill="#0a0800" fill-opacity="0.435294" cx="108" cy="54" rx="21" ry="14" />
<ellipse fill="#000000" fill-opacity="0.447059" cx="252" cy="92" rx="6" ry="15" />
<ellipse fill="#50473b" fill-opacity="0.541176" cx="93" cy="136" rx="17" ry="2" />
<ellipse fill="#39372f" fill-opacity="0.552941" cx="208" cy="51" rx="14" ry="6" />
<ellipse fill="#0a0a03" fill-opacity="0.380392" cx="157" cy="42" rx="2" ry="21" />
<ellipse fill="#433b32" fill-opacity="1.000000" cx="112" cy="136" rx="2" ry="14" />
<ellipse fill="#2f2a1f" fill-opacity="0.466667" cx="46" cy="82" rx="14" ry="3" />
<ellipse fill="#b09d90" fill-opacity="0.443137" cx="185" cy="3" rx="4" ry="8" />
<ellipse fill="#6d6658" fill-opacity="0.423529" cx="185" cy="37" rx="11" ry="7" />
<ellipse fill="#4f493f" fill-opacity="0.733333" cx="102" cy="0" rx="13" ry="9" />
<ellipse fill="#3f3425" fill-opacity="0.478431" cx="175" cy="84" rx="5" ry="6" />
<ellipse fill="#040100" fill-opacity="0.439216" cx="171" cy="117" rx="27" ry="4" />
<ellipse fill="#19140b" fill-opacity="0.588235" cx="68" cy="5" rx="7" ry="23" />
<ellipse fill="#0e0a03" fill-opacity="0.549020" cx="168" cy="54" rx="14" ry="14" />
<ellipse fill="#8b7a6c" fill-opacity="0.501961" cx="192" cy="9" rx="7" ry="3" />
<ellipse fill="#595245" fill-opacity="0.682353" cx="165" cy="22" rx="8" ry="11" />
<ellipse fill="#070602" fill-opacity="0.462745" cx="44" cy="54" rx="19" ry="29" />
<ellipse fill="#6a6259" fill-opacity="0.517647" cx="99" cy="128" rx="11" ry="3" />
<ellipse fill="#211d13" fill-opacity="0.509804" cx="43" cy="39" rx="10" ry="6" />
<ellipse fill="#0d0800" fill-opacity="0.509804" cx="181" cy="86" rx="6" ry="34" />
<ellipse fill="#030100" fill-opacity="0.592157" cx="168" cy="142" rx="11" ry="22" />
<ellipse fill="#2e231a" fill-opacity="0.466667" cx="198" cy="16" rx="7" ry="3" />
<ellipse fill="#110a01" fill-opacity="0.658824" cx="146" cy="93" rx="7" ry="11" />
<ellipse fill="#726658" fill-opacity="0.494118" cx="121" cy="0" rx="10" ry="11" />
<ellipse fill="#322d23" fill-opacity="0.568627" cx="147" cy="76" rx="25" ry="3" />
<ellipse fill="#35322a" fill-opacity="0.364706" cx="83" cy="29" rx="10" ry="28" />
<ellipse fill="#2a1d11" fill-opacity="0.635294" cx="209" cy="6" rx="9" ry="2" />
<ellipse fill="#18140e" fill-opacity="1.000000" cx="114" cy="130" rx="1" ry="6" />
<ellipse fill="#766c61" fill-opacity="0.572549" cx="127" cy="34" rx="4" ry="6" />
<ellipse fill="#000000" fill-opacity="0.607843" cx="121" cy="92" rx="5" ry="17" />
<ellipse fill="#33322a" fill-opacity="0.513725" cx="224" cy="58" rx="8" ry="5" />
<ellipse fill="#1d170d" fill-opacity="0.501961" cx="48" cy="104" rx="8" ry="16" />
</g>
</svg>