<svg xmlns="http://www.w3.org/2000/svg" version="1.1" width="256" height="143">
<rect x="0" y="0" width="256" height="143" fill="#f0f0f0" />
<g transform="scale(1.000000) translate(0.5 0.5)">
<ellipse fill="#596a55" fill-opacity="0.650980" cx="118" cy="68" rx="173" ry="142" />
<ellipse fill="#324832" fill-opacity="0.576471" cx="0" cy="125" rx="56" ry="49" />
<ellipse fill="#b5bdb9" fill-opacity="0.541176" cx="130" cy="41" rx="80" ry="39" />
<ellipse fill="#ece6dd" fill-opacity="0.435294" cx="142" cy="142" rx="73" ry="21" />
<ellipse fill="#414e4b" fill-opacity="0.474510" cx="0" cy="0" rx="25" ry="109" />
<ellipse fill="#4f4f4a" fill-opacity="0.447059" cx="247" cy="23" rx="18" ry="71" />
<ellipse fill="#436e40" fill-opacity="0.337255" cx="94" cy="109" rx="70" ry="18" />
<ellipse fill="#d4d3ca" fill-opacity="0.658824" cx="190" cy="119" rx="35" ry="9" />
<ellipse fill="#bebcad" fill-opacity="0.666667" cx="226" cy="100" rx="15" ry="19" />
<ellipse fill="#cac6b4" fill-opacity="0.631373" cx="218" cy="24" rx="19" ry="8" />
<ellipse fill="#647386" fill-opacity="0.439216" cx="78" cy="55" rx="34" ry="9" />
<ellipse fill="#717778" fill-opacity="0.572549" cx="224" cy="51" rx="34" ry="17" />
<ellipse fill="#7d8e7a" fill-opacity="0.717647" cx="45" cy="90" rx="27" ry="15" />
<ellipse fill="#bcc0b0" fill-opacity="0.717647" cx="137" cy="32" rx="75" ry="9" />
<ellipse fill="#75827a" fill-opacity="0.945098" cx="30" cy="21" rx="14" ry="26" />
<ellipse fill="#ffffee" fill-opacity="0.301961" cx="165" cy="72" rx="25" ry="7" />
<ellipse fill="#7e8b93" fill-opacity="0.556863" cx="157" cy="49" rx="24" ry="14" />
<ellipse fill="#3a4c46" fill-opacity="0.443137" cx="37" cy="128" rx="34" ry="9" />
<ellipse fill="#d0d6b6" fill-opacity="0.529412" cx="173" cy="111" rx="11" ry="17" />
<ellipse fill="#bcbea8" fill-opacity="0.533333" cx="59" cy="139" rx="18" ry="5" />
<ellipse fill="#bab8a5" fill-opacity="0.741176" cx="255" cy="18" rx="27" ry="3" />
<ellipse fill="#243643" fill-opacity="0.525490" cx="0" cy="31" rx="12" ry="15" />
<ellipse fill="#f2e7ff" fill-opacity="0.133333" cx="0" cy="52" rx="68" ry="10" />
<ellipse fill="#58745e" fill-opacity="0.501961" cx="151" cy="101" rx="12" ry="19" />
<ellipse fill="#626b4a" fill-opacity="0.556863" cx="235" cy="5" rx="22" ry="10" />
<ellipse fill="#7f9f5c" fill-opacity="0.474510" cx="186" cy="86" rx="23" ry="11" />
<ellipse fill="#839b7c" fill-opacity="0.701961" cx="129" cy="99" rx="18" ry="25" />
<ellipse fill="#bcc2be" fill-opacity="0.517647" cx="79" cy="135" rx="10" ry="16" />
<ellipse fill="#c8cabd" fill-opacity="0.729412" cx="51" cy="41" rx="7" ry="8" />
<ellipse fill="#6f6f6a" fill-opacity="0.498039" cx="143" cy="138" rx="9" ry="5" />
<ellipse fill="#fffff9" fill-opacity="0.211765" cx="143" cy="129" rx="39" ry="6" />
<ellipse fill="#420200" fill-opacity="0.047059" cx="242" cy="137" rx="82" ry="41" />
<ellipse fill="#093c40" fill-opacity="0.294118" cx="81" cy="73" rx="7" ry="7" />
<ellipse fill="#e2d9d7" fill-opacity="0.313725" cx="205" cy="72" rx="11" ry="8" />
<ellipse fill="#fffffb" fill-opacity="0.517647" cx="108" cy="45" rx="9" ry="3" />
<ellipse fill="#e7e9e4" fill-opacity="0.533333" cx="185" cy="53" rx="5" ry="11" />
<ellipse fill="#4f6c5c" fill-opacity="0.474510" cx="102" cy="110" rx="11" ry="18" />
<ellipse fill="#869983" fill-opacity="0.823529" cx="144" cy="23" rx="7" ry="8" />
<ellipse fill="#a8aba3" fill-opacity="0.694118" cx="31" cy="68" rx="23" ry="3" />
<ellipse fill="#e3e8e5" fill-opacity="0.223529" cx="132" cy="42" rx="7" ry="29" />
<ellipse fill="#d5d6cc" fill-opacity="0.537255" cx="217" cy="88" rx="8" ry="6" />
<ellipse fill="#757f64" fill-opacity="0.533333" cx="194" cy="16" rx="14" ry="5" />
<ellipse fill="#000e24" fill-opacity="0.305882" cx="145" cy="56" rx="11" ry="2" />
<ellipse fill="#819285" fill-opacity="0.713725" cx="55" cy="9" rx="18" ry="23" />
<ellipse fill="#eeede2" fill-opacity="0.533333" cx="171" cy="30" rx="24" ry="2" />
<ellipse fill="#5c6260" fill-opacity="0.541176" cx="249" cy="51" rx="9" ry="32" />
<ellipse fill="#78934e" fill-opacity="0.509804" cx="209" cy="103" rx="11" ry="6" />
<ellipse fill="#9ea6aa" fill-opacity="0.537255" cx="58" cy="71" rx="17" ry="12" />
<ellipse fill="#738065" fill-opacity="0.662745" cx="34" cy="141" rx="6" ry="25" />
<ellipse fill="#c5ce9e" fill-opacity="0.447059" cx="61" cy="107" rx="5" ry="8" />
<ellipse fill="#677658" fill-opacity="0.541176" cx="7" cy="77" rx="31" ry="5" />
<ellipse fill="#cac9bb" fill-opacity="0.352941" cx="184" cy="9" rx="29" ry="4" />
<ellipse fill="#b7b7ac" fill-opacity="0.623529" cx="224" cy="93" rx="3" ry="32" />
<ellipse fill="#c8cbc2" fill-opacity="0.607843" cx="176" cy="124" rx="28" ry="9" />
<ellipse fill="#cbd0ca" fill-opacity="0.533333" cx="145" cy="65" rx="17" ry="5" />
<ellipse fill="#253a60" fill-opacity="0.160784" cx="83" cy="49" rx="14" ry="10" />
<ellipse fill="#2c4336" fill-opacity="0.533333" cx="7" cy="128" rx="24" ry="7" />
<ellipse fill="#20353d" fill-opacity="0.501961" cx="42" cy="114" rx="8" ry="8" />
<ellipse fill="#f5f0e1" fill-opacity="0.466667" cx="71" cy="38" rx="8" ry="4" />
<ellipse fill="#869194" fill-opacity="0.384314" cx="168" cy="49" rx="14" ry="20" />
<ellipse fill="#869f93" fill-opacity="0.741176" cx="107" cy="0" rx="46" ry="9" />
<ellipse fill="#9a9789" fill-opacity="0.627451" cx="232" cy="83" rx="9" ry="9" />
<ellipse fill="#efeeda" fill-opacity="0.713725" cx="121" cy="56" rx="7" ry="2" />
<ellipse fill="#9fa996" fill-opacity="0.658824" cx="37" cy="89" rx="8" ry="7" />
<ellipse fill="#c3b494" fill-opacity="0.498039" cx="19" cy="137" rx="5" ry="3" />
<ellipse fill="#294138" fill-opacity="0.207843" cx="149" cy="105" rx="26" ry="4" />
<ellipse fill="#7b8280" fill-opacity="0.619608" cx="204" cy="63" rx="5" ry="10" />
<ellipse fill="#dee1a9" fill-opacity="0.411765" cx="185" cy="100" rx="15" ry="3" />
<ellipse fill="#7f9178" fill-opacity="0.443137" cx="15" cy="117" rx="16" ry="5" />
<ellipse fill="#3e6126" fill-opacity="0.364706" cx="190" cy="105" rx="4" ry="7" />
<ellipse fill="#dddfd2" fill-opacity="0.439216" cx="123" cy="37" rx="10" ry="9" />
<ellipse fill="#dadbcc" fill-opacity="0.447059" cx="227" cy="97" rx="12" ry="5" />
<ellipse fill="#c8e7a1" fill-opacity="0.352941" cx="150" cy="83" rx="9" ry="6" />
<ellipse fill="#9fb495" fill-opacity="0.572549" cx="119" cy="91" rx="14" ry="6" />
<ellipse fill="#82908a" fill-opacity="0.588235" cx="109" cy="20" rx="23" ry="3" />
<ellipse fill="#8d9982" fill-opacity="0.647059" cx="195" cy="30" rx="3" ry="14" />
<ellipse fill="#617a56" fill-opacity="0.666667" cx="205" cy="98" rx="5" ry="5" />
<ellipse fill="#919e98" fill-opacity="0.552941" cx="136" cy="43" rx="3" ry="19" />
<ellipse fill="#9aa5a6" fill-opacity="0.498039" cx="133" cy="51" rx="47" ry="5" />
<ellipse fill="#d5dad5" fill-opacity="0.458824" cx="95" cy="133" rx="23" ry="4" />
<ellipse fill="#769276" fill-opacity="0.576471" cx="92" cy="99" rx="11" ry="18" />
<ellipse fill="#effac1" fill-opacity="0.337255" cx="77" cy="84" rx="7" ry="4" />
<ellipse fill="#496c58" fill-opacity="0.494118" cx="59" cy="92" rx="8" ry="6" />
<ellipse fill="#041827" fill-opacity="0.458824" cx="196" cy="57" rx="6" ry="2" />
<ellipse fill="#304538" fill-opacity="0.576471" cx="0" cy="103" rx="16" ry="6" />
<ellipse fill="#e8e3bf" fill-opacity="0.203922" cx="240" cy="12" rx="4" ry="11" />
<ellipse fill="#ebecde" fill-opacity="0.368627" cx="43" cy="30" rx="3" ry="6" />
<ellipse fill="#4e665d" fill-opacity="0.533333" cx="32" cy="42" rx="8" ry="4" />
<ellipse fill="#6c6b67" fill-opacity="0.509804" cx="240" cy="126" rx="15" ry="4" />
<ellipse fill="#41515c" fill-opacity="0.647059" cx="14" cy="57" rx="10" ry="2" />
<ellipse fill="#adb3a0" fill-opacity="0.772549" cx="106" cy="32" rx="10" ry="12" />
<ellipse fill="#3e4c58" fill-opacity="0.380392" cx="49" cy="58" rx="12" ry="2" />
<ellipse fill="#cccaad" fill-opacity="0.552941" cx="171" cy="24" rx="19" ry="5" />
<ellipse fill="#67827a" fill-opacity="0.517647" cx="134" cy="78" rx="11" ry="5" />
<ellipse fill="#355755" fill-opacity="0.611765" cx="67" cy="87" rx="4" ry="3" />
<ellipse fill="#b5beab" fill-opacity="0.454902" cx="97" cy="10" rx="36" ry="3" />
<ellipse fill="#677678" fill-opacity="0.278431" cx="177" cy="62" rx="3" ry="31" />
<ellipse fill="#7796a3" fill-opacity="0.294118" cx="80" cy="129" rx="32" ry="3" />
<ellipse fill="#bac7be" fill-opacity="0.509804" cx="110" cy="74" rx="9" ry="7" />
<ellipse fill="#838779" fill-opacity="0.996078" cx="255" cy="120" rx="5" ry="45" />
</g>
</svg>