<svg xmlns="http://www.w3.org/2000/svg" version="1.1" width="256" height="143">
<rect x="0" y="0" width="256" height="143" fill="#f0f0f0" />
<g transform="scale(1.000000) translate(0.5 0.5)">
<ellipse fill="#111509" fill-opacity="0.945098" cx="155" cy="74" rx="249" ry="103" />
<ellipse fill="#6d6b56" fill-opacity="0.592157" cx="120" cy="48" rx="22" ry="57" />
<ellipse fill="#000500" fill-opacity="0.494118" cx="16" cy="129" rx="88" ry="44" />
<ellipse fill="#010501" fill-opacity="0.600000" cx="231" cy="133" rx="85" ry="29" />
<ellipse fill="#000500" fill-opacity="0.533333" cx="18" cy="39" rx="14" ry="142" />
<ellipse fill="#534c32" fill-opacity="0.376471" cx="192" cy="79" rx="17" ry="35" />
<ellipse fill="#afa78a" fill-opacity="0.231373" cx="126" cy="63" rx="13" ry="27" />
<ellipse fill="#060905" fill-opacity="0.439216" cx="204" cy="15" rx="60" ry="39" />
<ellipse fill="#3c3b2e" fill-opacity="0.745098" cx="122" cy="4" rx="23" ry="34" />
<ellipse fill="#303526" fill-opacity="0.749020" cx="126" cy="113" rx="17" ry="23" />
<ellipse fill="#343a29" fill-opacity="0.356863" cx="73" cy="51" rx="36" ry="32" />
<ellipse fill="#060b04" fill-opacity="0.580392" cx="161" cy="132" rx="13" ry="106" />
<ellipse fill="#020602" fill-opacity="0.498039" cx="215" cy="82" rx="6" ry="141" />
<ellipse fill="#6f6744" fill-opacity="0.121569" cx="191" cy="52" rx="18" ry="34" />
<ellipse fill="#2c3324" fill-opacity="0.411765" cx="41" cy="77" rx="15" ry="34" />
<ellipse fill="#494d3c" fill-opacity="0.474510" cx="119" cy="86" rx="22" ry="16" />
<ellipse fill="#1d2316" fill-opacity="0.494118" cx="187" cy="109" rx="14" ry="22" />
<ellipse fill="#000400" fill-opacity="0.317647" cx="89" cy="37" rx="4" ry="142" />
<ellipse fill="#1d2817" fill-opacity="0.768627" cx="67" cy="103" rx="5" ry="30" />
<ellipse fill="#25291e" fill-opacity="0.552941" cx="103" cy="21" rx="6" ry="14" />
<ellipse fill="#0e150b" fill-opacity="0.588235" cx="27" cy="8" rx="34" ry="19" />
<ellipse fill="#3a3b2d" fill-opacity="0.533333" cx="70" cy="34" rx="8" ry="20" />
<ellipse fill="#212617" fill-opacity="0.482353" cx="148" cy="61" rx="10" ry="36" />
<ellipse fill="#040904" fill-opacity="0.600000" cx="181" cy="0" rx="34" ry="15" />
<ellipse fill="#1f2119" fill-opacity="0.498039" cx="233" cy="65" rx="15" ry="47" />
<ellipse fill="#c9baa4" fill-opacity="0.062745" cx="134" cy="31" rx="6" ry="108" />
<ellipse fill="#000501" fill-opacity="0.525490" cx="145" cy="103" rx="5" ry="12" />
<ellipse fill="#303526" fill-opacity="0.568627" cx="119" cy="100" rx="21" ry="10" />
<ellipse fill="#0e150a" fill-opacity="0.501961" cx="146" cy="24" rx="9" ry="8" />
<ellipse fill="#464839" fill-opacity="0.490196" cx="182" cy="76" rx="4" ry="26" />
<ellipse fill="#63624d" fill-opacity="0.560784" cx="120" cy="64" rx="11" ry="26" />
<ellipse fill="#2c3025" fill-opacity="0.411765" cx="0" cy="77" rx="6" ry="37" />
<ellipse fill="#11150d" fill-opacity="0.600000" cx="253" cy="106" rx="23" ry="27" />
<ellipse fill="#313529" fill-opacity="0.372549" cx="117" cy="76" rx="25" ry="4" />
<ellipse fill="#050b04" fill-opacity="0.501961" cx="92" cy="0" rx="10" ry="16" />
<ellipse fill="#080d06" fill-opacity="0.494118" cx="24" cy="39" rx="36" ry="6" />
<ellipse fill="#1c1c0f" fill-opacity="0.349020" cx="195" cy="42" rx="12" ry="26" />
<ellipse fill="#3b3d2e" fill-opacity="0.470588" cx="99" cy="55" rx="5" ry="33" />
<ellipse fill="#2b2e22" fill-opacity="0.537255" cx="142" cy="130" rx="8" ry="10" />
<ellipse fill="#1c2317" fill-opacity="0.501961" cx="113" cy="125" rx="13" ry="16" />
<ellipse fill="#131e0e" fill-opacity="0.482353" cx="73" cy="73" rx="8" ry="23" />
<ellipse fill="#545343" fill-opacity="0.439216" cx="78" cy="33" rx="9" ry="3" />
<ellipse fill="#4e513e" fill-opacity="0.552941" cx="68" cy="128" rx="4" ry="3" />
<ellipse fill="#000000" fill-opacity="0.227451" cx="255" cy="68" rx="5" ry="142" />
<ellipse fill="#21291c" fill-opacity="0.541176" cx="24" cy="8" rx="13" ry="4" />
<ellipse fill="#484a3c" fill-opacity="0.498039" cx="52" cy="28" rx="8" ry="3" />
<ellipse fill="#727362" fill-opacity="0.447059" cx="131" cy="6" rx="5" ry="3" />
<ellipse fill="#6c6b55" fill-opacity="0.521569" cx="134" cy="86" rx="5" ry="5" />
<ellipse fill="#020701" fill-opacity="0.568627" cx="51" cy="22" rx="12" ry="3" />
<ellipse fill="#040802" fill-opacity="0.482353" cx="18" cy="34" rx="16" ry="16" />
<ellipse fill="#494936" fill-opacity="0.235294" cx="146" cy="59" rx="10" ry="9" />
<ellipse fill="#0d0b08" fill-opacity="0.156863" cx="111" cy="57" rx="24" ry="3" />
<ellipse fill="#5b5a4a" fill-opacity="0.537255" cx="141" cy="12" rx="2" ry="8" />
<ellipse fill="#39382d" fill-opacity="0.533333" cx="236" cy="65" rx="8" ry="4" />
<ellipse fill="#262a1c" fill-opacity="0.572549" cx="76" cy="17" rx="8" ry="13" />
<ellipse fill="#2b3123" fill-opacity="0.470588" cx="177" cy="37" rx="6" ry="11" />
<ellipse fill="#4b4b3a" fill-opacity="0.545098" cx="112" cy="38" rx="18" ry="5" />
<ellipse fill="#202316" fill-opacity="0.380392" cx="189" cy="100" rx="19" ry="16" />
<ellipse fill="#050a05" fill-opacity="0.498039" cx="76" cy="140" rx="28" ry="11" />
<ellipse fill="#89896e" fill-opacity="0.423529" cx="117" cy="81" rx="8" ry="2" />
<ellipse fill="#323627" fill-opacity="0.505882" cx="50" cy="73" rx="15" ry="7" />
<ellipse fill="#060703" fill-opacity="0.423529" cx="224" cy="142" rx="90" ry="11" />
<ellipse fill="#575843" fill-opacity="0.490196" cx="181" cy="74" rx="5" ry="5" />
<ellipse fill="#7b785d" fill-opacity="0.411765" cx="123" cy="67" rx="15" ry="5" />
<ellipse fill="#070b05" fill-opacity="0.505882" cx="81" cy="121" rx="20" ry="5" />
<ellipse fill="#2f3025" fill-opacity="0.654902" cx="122" cy="1" rx="20" ry="2" />
<ellipse fill="#14190d" fill-opacity="0.439216" cx="24" cy="85" rx="10" ry="20" />
<ellipse fill="#292715" fill-opacity="0.482353" cx="202" cy="54" rx="7" ry="17" />
<ellipse fill="#080d07" fill-opacity="0.541176" cx="163" cy="113" rx="15" ry="15" />
<ellipse fill="#333324" fill-opacity="0.470588" cx="116" cy="26" rx="18" ry="6" />
<ellipse fill="#0c1107" fill-opacity="0.470588" cx="165" cy="46" rx="11" ry="18" />
<ellipse fill="#0e1309" fill-opacity="0.545098" cx="91" cy="33" rx="4" ry="12" />
<ellipse fill="#191c13" fill-opacity="0.745098" cx="226" cy="90" rx="8" ry="21" />
<ellipse fill="#1f2718" fill-opacity="0.678431" cx="95" cy="86" rx="4" ry="17" />
<ellipse fill="#141c10" fill-opacity="0.596078" cx="39" cy="114" rx="9" ry="14" />
<ellipse fill="#3c351e" fill-opacity="0.576471" cx="206" cy="91" rx="3" ry="18" />
<ellipse fill="#72725d" fill-opacity="0.517647" cx="134" cy="22" rx="2" ry="4" />
<ellipse fill="#3c3c30" fill-opacity="0.525490" cx="140" cy="5" rx="6" ry="8" />
<ellipse fill="#4c4e3d" fill-opacity="0.513725" cx="180" cy="58" rx="4" ry="5" />
<ellipse fill="#0c130a" fill-opacity="0.615686" cx="144" cy="90" rx="5" ry="6" />
<ellipse fill="#3c4232" fill-opacity="0.564706" cx="105" cy="80" rx="7" ry="13" />
<ellipse fill="#6a6b57" fill-opacity="0.549020" cx="125" cy="45" rx="14" ry="3" />
<ellipse fill="#141a0e" fill-opacity="0.513725" cx="83" cy="27" rx="14" ry="4" />
<ellipse fill="#58594a" fill-opacity="0.580392" cx="123" cy="4" rx="12" ry="2" />
<ellipse fill="#151b0f" fill-opacity="0.462745" cx="151" cy="31" rx="13" ry="20" />
<ellipse fill="#2c2f22" fill-opacity="0.627451" cx="77" cy="57" rx="2" ry="21" />
<ellipse fill="#050904" fill-opacity="0.486275" cx="215" cy="126" rx="16" ry="19" />
<ellipse fill="#080c06" fill-opacity="0.505882" cx="210" cy="13" rx="18" ry="10" />
<ellipse fill="#0e150b" fill-opacity="0.466667" cx="83" cy="105" rx="12" ry="17" />
<ellipse fill="#303524" fill-opacity="0.368627" cx="83" cy="58" rx="2" ry="52" />
<ellipse fill="#0e140b" fill-opacity="0.545098" cx="67" cy="1" rx="36" ry="3" />
<ellipse fill="#464229" fill-opacity="0.454902" cx="194" cy="71" rx="6" ry="11" />
<ellipse fill="#23251b" fill-opacity="0.380392" cx="234" cy="66" rx="11" ry="37" />
<ellipse fill="#2e3124" fill-opacity="0.482353" cx="145" cy="124" rx="4" ry="12" />
<ellipse fill="#252b1e" fill-opacity="0.392157" cx="40" cy="77" rx="8" ry="26" />
<ellipse fill="#252b1f" fill-opacity="0.364706" cx="43" cy="36" rx="9" ry="14" />
<ellipse fill="#040802" fill-opacity="0.329412" cx="9" cy="133" rx="6" ry="93" />
<ellipse fill="#2f3623" fill-opacity="0.513725" cx="166" cy="24" rx="6" ry="2" />
<ellipse fill="#343428" fill-opacity="0.733333" cx="133" cy="1" rx="6" ry="4" />
<ellipse fill="#070b05" fill-opacity="0.517647" cx="213" cy="116" rx="5" ry="51" />
</g>
</svg>