<svg xmlns="http://www.w3.org/2000/svg" version="1.1" width="256" height="143">
<rect x="0" y="0" width="256" height="143" fill="#f0f0f0" />
<g transform="scale(1.000000) translate(0.5 0.5)">
<ellipse fill="#2a3408" fill-opacity="0.482353" cx="107" cy="93" rx="187" ry="141" />
<ellipse fill="#59584c" fill-opacity="0.517647" cx="20" cy="13" rx="32" ry="70" />
<ellipse fill="#33560f" fill-opacity="0.470588" cx="249" cy="126" rx="32" ry="21" />
<ellipse fill="#020702" fill-opacity="0.427451" cx="32" cy="140" rx="17" ry="24" />
<ellipse fill="#ded7c2" fill-opacity="0.443137" cx="55" cy="100" rx="24" ry="32" />
<ellipse fill="#a9ad9d" fill-opacity="0.498039" cx="164" cy="63" rx="60" ry="69" />
<ellipse fill="#090e00" fill-opacity="0.627451" cx="0" cy="0" rx="16" ry="20" />
<ellipse fill="#31372c" fill-opacity="0.619608" cx="16" cy="115" rx="10" ry="12" />
<ellipse fill="#4f6a2b" fill-opacity="0.470588" cx="90" cy="120" rx="14" ry="18" />
<ellipse fill="#f2e8da" fill-opacity="0.200000" cx="14" cy="65" rx="11" ry="36" />
<ellipse fill="#f7fff6" fill-opacity="0.231373" cx="0" cy="142" rx="25" ry="28" />
<ellipse fill="#d8d6b9" fill-opacity="0.427451" cx="205" cy="29" rx="48" ry="6" />
<ellipse fill="#c5c7b7" fill-opacity="0.745098" cx="67" cy="142" rx="13" ry="17" />
<ellipse fill="#d9dcd6" fill-opacity="0.458824" cx="180" cy="103" rx="20" ry="7" />
<ellipse fill="#898b86" fill-opacity="0.537255" cx="162" cy="63" rx="38" ry="32" />
<ellipse fill="#becacb" fill-opacity="1.000000" cx="255" cy="0" rx="24" ry="7" />
<ellipse fill="#585045" fill-opacity="0.541176" cx="60" cy="61" rx="12" ry="9" />
<ellipse fill="#496d4c" fill-opacity="0.427451" cx="241" cy="14" rx="29" ry="8" />
<ellipse fill="#424c6a" fill-opacity="0.250980" cx="241" cy="61" rx="28" ry="17" />
<ellipse fill="#c9c7a7" fill-opacity="0.643137" cx="172" cy="20" rx="20" ry="10" />
<ellipse fill="#e3dfbc" fill-opacity="0.494118" cx="126" cy="10" rx="10" ry="9" />
<ellipse fill="#c4c3a7" fill-opacity="0.572549" cx="86" cy="94" rx="26" ry="7" />
<ellipse fill="#d1d6d9" fill-opacity="0.372549" cx="213" cy="46" rx="12" ry="13" />
<ellipse fill="#748a58" fill-opacity="0.533333" cx="220" cy="113" rx="27" ry="11" />
<ellipse fill="#787e78" fill-opacity="0.552941" cx="75" cy="14" rx="37" ry="19" />
<ellipse fill="#a0b06d" fill-opacity="0.388235" cx="124" cy="127" rx="32" ry="32" />
<ellipse fill="#c8c9b1" fill-opacity="0.572549" cx="169" cy="122" rx="22" ry="7" />
<ellipse fill="#2d2e21" fill-opacity="0.450980" cx="40" cy="136" rx="12" ry="11" />
<ellipse fill="#625c4a" fill-opacity="0.627451" cx="26" cy="78" rx="8" ry="11" />
<ellipse fill="#d1ceb5" fill-opacity="0.423529" cx="20" cy="58" rx="7" ry="13" />
<ellipse fill="#e9d6c4" fill-opacity="0.227451" cx="58" cy="73" rx="27" ry="11" />
<ellipse fill="#1c1f11" fill-opacity="0.592157" cx="38" cy="54" rx="6" ry="5" />
<ellipse fill="#b9b7ac" fill-opacity="0.517647" cx="29" cy="99" rx="12" ry="13" />
<ellipse fill="#727567" fill-opacity="0.490196" cx="148" cy="107" rx="12" ry="10" />
<ellipse fill="#8a8c81" fill-opacity="0.647059" cx="107" cy="38" rx="29" ry="20" />
<ellipse fill="#9a998c" fill-opacity="0.639216" cx="57" cy="40" rx="17" ry="12" />
<ellipse fill="#54544c" fill-opacity="0.541176" cx="96" cy="55" rx="6" ry="8" />
<ellipse fill="#b3b5a9" fill-opacity="0.572549" cx="201" cy="89" rx="12" ry="16" />
<ellipse fill="#909464" fill-opacity="0.686275" cx="251" cy="98" rx="21" ry="13" />
<ellipse fill="#92a25e" fill-opacity="0.415686" cx="185" cy="142" rx="43" ry="17" />
<ellipse fill="#161d17" fill-opacity="0.215686" cx="13" cy="114" rx="9" ry="15" />
<ellipse fill="#3c4236" fill-opacity="0.333333" cx="16" cy="19" rx="4" ry="24" />
<ellipse fill="#c9c7ba" fill-opacity="0.596078" cx="110" cy="135" rx="4" ry="11" />
<ellipse fill="#657540" fill-opacity="0.682353" cx="114" cy="119" rx="5" ry="8" />
<ellipse fill="#859b65" fill-opacity="0.403922" cx="173" cy="3" rx="24" ry="12" />
<ellipse fill="#96958a" fill-opacity="0.505882" cx="56" cy="87" rx="27" ry="6" />
<ellipse fill="#b3b29d" fill-opacity="0.643137" cx="84" cy="48" rx="6" ry="13" />
<ellipse fill="#c1c6bc" fill-opacity="0.525490" cx="222" cy="38" rx="13" ry="6" />
<ellipse fill="#b5b28f" fill-opacity="0.721569" cx="192" cy="131" rx="7" ry="8" />
<ellipse fill="#797f79" fill-opacity="0.615686" cx="187" cy="70" rx="25" ry="5" />
<ellipse fill="#343526" fill-opacity="0.501961" cx="27" cy="124" rx="8" ry="10" />
<ellipse fill="#aeaa99" fill-opacity="0.600000" cx="123" cy="73" rx="36" ry="4" />
<ellipse fill="#424338" fill-opacity="0.443137" cx="88" cy="68" rx="4" ry="9" />
<ellipse fill="#7b7c6d" fill-opacity="0.627451" cx="0" cy="55" rx="15" ry="31" />
<ellipse fill="#656d62" fill-opacity="0.439216" cx="173" cy="113" rx="5" ry="8" />
<ellipse fill="#4e594c" fill-opacity="0.337255" cx="39" cy="0" rx="27" ry="12" />
<ellipse fill="#4e5141" fill-opacity="0.501961" cx="69" cy="65" rx="5" ry="6" />
<ellipse fill="#7c7662" fill-opacity="0.545098" cx="56" cy="64" rx="6" ry="11" />
<ellipse fill="#6d844f" fill-opacity="0.458824" cx="103" cy="87" rx="6" ry="10" />
<ellipse fill="#a5b17f" fill-opacity="0.588235" cx="139" cy="134" rx="12" ry="30" />
<ellipse fill="#c6c6b8" fill-opacity="0.243137" cx="0" cy="126" rx="15" ry="17" />
<ellipse fill="#84945f" fill-opacity="0.490196" cx="50" cy="111" rx="8" ry="6" />
<ellipse fill="#5d6739" fill-opacity="0.494118" cx="122" cy="142" rx="6" ry="11" />
<ellipse fill="#e2deca" fill-opacity="0.525490" cx="46" cy="70" rx="3" ry="13" />
<ellipse fill="#40582b" fill-opacity="0.521569" cx="253" cy="135" rx="18" ry="7" />
<ellipse fill="#202515" fill-opacity="0.486275" cx="31" cy="48" rx="6" ry="3" />
<ellipse fill="#e1e1d2" fill-opacity="0.513725" cx="168" cy="99" rx="6" ry="6" />
<ellipse fill="#b2b3a5" fill-opacity="0.474510" cx="150" cy="53" rx="11" ry="10" />
<ellipse fill="#717f57" fill-opacity="0.364706" cx="97" cy="142" rx="13" ry="28" />
<ellipse fill="#d6d0c7" fill-opacity="0.454902" cx="64" cy="101" rx="10" ry="8" />
<ellipse fill="#feffdf" fill-opacity="0.372549" cx="100" cy="104" rx="4" ry="4" />
<ellipse fill="#8d9878" fill-opacity="0.478431" cx="204" cy="7" rx="8" ry="36" />
<ellipse fill="#aeac9d" fill-opacity="0.529412" cx="22" cy="31" rx="3" ry="7" />
<ellipse fill="#5c7830" fill-opacity="0.474510" cx="136" cy="132" rx="4" ry="5" />
<ellipse fill="#74865d" fill-opacity="0.533333" cx="205" cy="125" rx="6" ry="25" />
<ellipse fill="#4c4f50" fill-opacity="0.447059" cx="151" cy="111" rx="5" ry="7" />
<ellipse fill="#d3d6be" fill-opacity="0.588235" cx="104" cy="107" rx="2" ry="12" />
<ellipse fill="#415236" fill-opacity="0.450980" cx="84" cy="117" rx="4" ry="16" />
<ellipse fill="#1e292f" fill-opacity="0.403922" cx="255" cy="63" rx="4" ry="7" />
<ellipse fill="#c0baa6" fill-opacity="0.419608" cx="130" cy="78" rx="4" ry="22" />
<ellipse fill="#6f8250" fill-opacity="0.498039" cx="164" cy="138" rx="13" ry="5" />
<ellipse fill="#c7c199" fill-opacity="0.498039" cx="211" cy="123" rx="5" ry="6" />
<ellipse fill="#f0e9e1" fill-opacity="0.317647" cx="12" cy="94" rx="7" ry="5" />
<ellipse fill="#7e8376" fill-opacity="0.478431" cx="46" cy="19" rx="14" ry="23" />
<ellipse fill="#fff4e9" fill-opacity="0.078431" cx="78" cy="82" rx="28" ry="15" />
<ellipse fill="#a0aa7b" fill-opacity="0.564706" cx="90" cy="136" rx="16" ry="4" />
<ellipse fill="#808d7f" fill-opacity="0.317647" cx="19" cy="142" rx="12" ry="15" />
<ellipse fill="#c7ceb6" fill-opacity="0.305882" cx="214" cy="99" rx="9" ry="9" />
<ellipse fill="#3c473d" fill-opacity="0.470588" cx="173" cy="92" rx="5" ry="3" />
<ellipse fill="#e8d3b2" fill-opacity="0.513725" cx="56" cy="63" rx="3" ry="3" />
<ellipse fill="#dae1be" fill-opacity="0.349020" cx="155" cy="126" rx="8" ry="8" />
<ellipse fill="#5b5a49" fill-opacity="0.521569" cx="28" cy="74" rx="9" ry="9" />
<ellipse fill="#9a9888" fill-opacity="0.529412" cx="118" cy="58" rx="20" ry="17" />
<ellipse fill="#9aa07c" fill-opacity="0.478431" cx="130" cy="107" rx="21" ry="15" />
<ellipse fill="#a6a08c" fill-opacity="0.325490" cx="39" cy="79" rx="8" ry="23" />
<ellipse fill="#ffffea" fill-opacity="0.419608" cx="132" cy="142" rx="2" ry="11" />
<ellipse fill="#101915" fill-opacity="0.458824" cx="94" cy="50" rx="5" ry="2" />
<ellipse fill="#777e65" fill-opacity="0.600000" cx="139" cy="19" rx="7" ry="4" />
<ellipse fill="#677b4d" fill-opacity="0.537255" cx="101" cy="123" rx="4" ry="13" />
<ellipse fill="#ffffff" fill-opacity="0.360784" cx="109" cy="126" rx="2" ry="7" />
</g>
</svg>