<svg xmlns="http://www.w3.org/2000/svg" version="1.1" width="256" height="143">
<rect x="0" y="0" width="256" height="143" fill="#f0f0f0" />
<g transform="scale(1.000000) translate(0.5 0.5)">
<ellipse fill="#0c0d0d" fill-opacity="0.784314" cx="139" cy="86" rx="199" ry="142" />
<ellipse fill="#89878b" fill-opacity="0.478431" cx="124" cy="71" rx="49" ry="31" />
<ellipse fill="#0c0a05" fill-opacity="0.486275" cx="34" cy="17" rx="71" ry="45" />
<ellipse fill="#7f7270" fill-opacity="0.521569" cx="46" cy="97" rx="19" ry="24" />
<ellipse fill="#040d04" fill-opacity="0.364706" cx="255" cy="115" rx="72" ry="28" />
<ellipse fill="#26231d" fill-opacity="0.776471" cx="5" cy="76" rx="29" ry="39" />
<ellipse fill="#516271" fill-opacity="0.466667" cx="194" cy="30" rx="32" ry="25" />
<ellipse fill="#091617" fill-opacity="0.498039" cx="247" cy="4" rx="22" ry="47" />
<ellipse fill="#524f4d" fill-opacity="0.996078" cx="122" cy="126" rx="15" ry="42" />
<ellipse fill="#564f51" fill-opacity="0.690196" cx="75" cy="70" rx="25" ry="23" />
<ellipse fill="#7a7b76" fill-opacity="0.423529" cx="155" cy="84" rx="30" ry="22" />
<ellipse fill="#7e7f82" fill-opacity="0.419608" cx="115" cy="55" rx="31" ry="19" />
<ellipse fill="#0a080b" fill-opacity="0.200000" cx="97" cy="98" rx="19" ry="39" />
<ellipse fill="#526871" fill-opacity="0.450980" cx="225" cy="62" rx="28" ry="13" />
<ellipse fill="#ffeeff" fill-opacity="0.129412" cx="27" cy="112" rx="13" ry="16" />
<ellipse fill="#020400" fill-opacity="0.623529" cx="2" cy="9" rx="21" ry="28" />
<ellipse fill="#000005" fill-opacity="0.325490" cx="165" cy="52" rx="14" ry="10" />
<ellipse fill="#5b545a" fill-opacity="0.552941" cx="59" cy="33" rx="12" ry="9" />
<ellipse fill="#151614" fill-opacity="0.474510" cx="109" cy="5" rx="19" ry="19" />
<ellipse fill="#17160f" fill-opacity="0.525490" cx="34" cy="56" rx="16" ry="24" />
<ellipse fill="#2d281e" fill-opacity="0.627451" cx="175" cy="136" rx="21" ry="18" />
<ellipse fill="#a0a1a7" fill-opacity="0.400000" cx="130" cy="74" rx="15" ry="9" />
<ellipse fill="#2f322a" fill-opacity="0.517647" cx="75" cy="127" rx="29" ry="33" />
<ellipse fill="#867b77" fill-opacity="0.411765" cx="57" cy="79" rx="9" ry="20" />
<ellipse fill="#5f6062" fill-opacity="0.454902" cx="32" cy="19" rx="6" ry="14" />
<ellipse fill="#0e1009" fill-opacity="0.470588" cx="0" cy="104" rx="12" ry="32" />
<ellipse fill="#000000" fill-opacity="0.282353" cx="207" cy="76" rx="13" ry="11" />
<ellipse fill="#595d5d" fill-opacity="0.474510" cx="208" cy="134" rx="12" ry="8" />
<ellipse fill="#424e5b" fill-opacity="0.537255" cx="231" cy="29" rx="10" ry="14" />
<ellipse fill="#464444" fill-opacity="0.631373" cx="123" cy="104" rx="24" ry="13" />
<ellipse fill="#54514c" fill-opacity="0.592157" cx="76" cy="117" rx="14" ry="10" />
<ellipse fill="#686260" fill-opacity="0.658824" cx="120" cy="142" rx="14" ry="21" />
<ellipse fill="#181715" fill-opacity="0.600000" cx="62" cy="52" rx="10" ry="7" />
<ellipse fill="#43494f" fill-opacity="0.807843" cx="167" cy="20" rx="30" ry="10" />
<ellipse fill="#1f1b1f" fill-opacity="0.556863" cx="152" cy="42" rx="9" ry="8" />
<ellipse fill="#0e1819" fill-opacity="0.486275" cx="233" cy="0" rx="42" ry="8" />
<ellipse fill="#4c494d" fill-opacity="0.862745" cx="84" cy="76" rx="10" ry="21" />
<ellipse fill="#575555" fill-opacity="0.372549" cx="19" cy="33" rx="8" ry="10" />
<ellipse fill="#000500" fill-opacity="0.537255" cx="248" cy="140" rx="16" ry="6" />
<ellipse fill="#5d676d" fill-opacity="0.525490" cx="199" cy="50" rx="12" ry="12" />
<ellipse fill="#06070c" fill-opacity="0.376471" cx="189" cy="66" rx="12" ry="6" />
<ellipse fill="#202421" fill-opacity="0.627451" cx="219" cy="106" rx="11" ry="25" />
<ellipse fill="#6f746b" fill-opacity="0.482353" cx="210" cy="96" rx="8" ry="3" />
<ellipse fill="#4f5757" fill-opacity="0.478431" cx="234" cy="123" rx="7" ry="8" />
<ellipse fill="#4a433e" fill-opacity="0.541176" cx="4" cy="54" rx="9" ry="9" />
<ellipse fill="#4a585b" fill-opacity="0.466667" cx="238" cy="76" rx="8" ry="20" />
<ellipse fill="#090b04" fill-opacity="0.611765" cx="18" cy="0" rx="16" ry="14" />
<ellipse fill="#071012" fill-opacity="0.396078" cx="171" cy="0" rx="7" ry="15" />
<ellipse fill="#504f57" fill-opacity="0.376471" cx="113" cy="40" rx="32" ry="7" />
<ellipse fill="#1a1d18" fill-opacity="0.490196" cx="103" cy="120" rx="12" ry="10" />
<ellipse fill="#52504c" fill-opacity="0.490196" cx="176" cy="94" rx="12" ry="33" />
<ellipse fill="#959489" fill-opacity="0.294118" cx="196" cy="87" rx="7" ry="5" />
<ellipse fill="#383029" fill-opacity="0.607843" cx="27" cy="75" rx="12" ry="16" />
<ellipse fill="#000300" fill-opacity="0.529412" cx="72" cy="98" rx="5" ry="5" />
<ellipse fill="#1c1c17" fill-opacity="0.568627" cx="197" cy="104" rx="10" ry="11" />
<ellipse fill="#798a9f" fill-opacity="0.419608" cx="222" cy="26" rx="5" ry="6" />
<ellipse fill="#1f191c" fill-opacity="0.533333" cx="132" cy="27" rx="10" ry="6" />
<ellipse fill="#1c231f" fill-opacity="0.447059" cx="222" cy="42" rx="21" ry="3" />
<ellipse fill="#afb7c3" fill-opacity="0.537255" cx="136" cy="56" rx="5" ry="3" />
<ellipse fill="#615755" fill-opacity="0.549020" cx="21" cy="127" rx="10" ry="11" />
<ellipse fill="#4a504e" fill-opacity="0.788235" cx="219" cy="140" rx="9" ry="6" />
<ellipse fill="#887b68" fill-opacity="0.517647" cx="131" cy="120" rx="4" ry="10" />
<ellipse fill="#777070" fill-opacity="0.501961" cx="42" cy="98" rx="14" ry="9" />
<ellipse fill="#62686d" fill-opacity="0.431373" cx="169" cy="32" rx="16" ry="6" />
<ellipse fill="#13160e" fill-opacity="0.454902" cx="251" cy="117" rx="22" ry="9" />
<ellipse fill="#0c1217" fill-opacity="0.498039" cx="210" cy="18" rx="5" ry="4" />
<ellipse fill="#746e6d" fill-opacity="0.423529" cx="98" cy="51" rx="27" ry="7" />
<ellipse fill="#0f0f11" fill-opacity="0.388235" cx="180" cy="58" rx="7" ry="8" />
<ellipse fill="#10161e" fill-opacity="0.576471" cx="188" cy="9" rx="3" ry="9" />
<ellipse fill="#565f61" fill-opacity="0.407843" cx="219" cy="67" rx="11" ry="11" />
<ellipse fill="#0c0d08" fill-opacity="0.450980" cx="34" cy="141" rx="6" ry="7" />
<ellipse fill="#0c1315" fill-opacity="0.521569" cx="225" cy="33" rx="8" ry="3" />
<ellipse fill="#68758c" fill-opacity="0.376471" cx="199" cy="13" rx="6" ry="9" />
<ellipse fill="#595953" fill-opacity="0.603922" cx="147" cy="102" rx="5" ry="19" />
<ellipse fill="#1a1d1a" fill-opacity="0.462745" cx="83" cy="138" rx="13" ry="6" />
<ellipse fill="#53585c" fill-opacity="0.505882" cx="159" cy="67" rx="14" ry="11" />
<ellipse fill="#52534d" fill-opacity="0.454902" cx="37" cy="9" rx="7" ry="7" />
<ellipse fill="#484446" fill-opacity="0.352941" cx="114" cy="98" rx="17" ry="23" />
<ellipse fill="#2d3233" fill-opacity="0.843137" cx="175" cy="14" rx="4" ry="7" />
<ellipse fill="#747b79" fill-opacity="0.498039" cx="201" cy="90" rx="4" ry="4" />
<ellipse fill="#333337" fill-opacity="0.501961" cx="77" cy="14" rx="14" ry="9" />
<ellipse fill="#1f191e" fill-opacity="0.513725" cx="142" cy="34" rx="7" ry="5" />
<ellipse fill="#b7bbc9" fill-opacity="0.482353" cx="135" cy="80" rx="5" ry="3" />
<ellipse fill="#191816" fill-opacity="0.541176" cx="195" cy="141" rx="11" ry="3" />
<ellipse fill="#393d38" fill-opacity="0.592157" cx="56" cy="134" rx="17" ry="21" />
<ellipse fill="#b4c0c9" fill-opacity="0.462745" cx="166" cy="78" rx="5" ry="2" />
<ellipse fill="#657088" fill-opacity="0.486275" cx="181" cy="0" rx="3" ry="15" />
<ellipse fill="#21282a" fill-opacity="0.956863" cx="230" cy="13" rx="3" ry="23" />
<ellipse fill="#1e1b1c" fill-opacity="0.764706" cx="122" cy="20" rx="6" ry="5" />
<ellipse fill="#a0a2b0" fill-opacity="0.478431" cx="63" cy="67" rx="5" ry="2" />
<ellipse fill="#1b1c13" fill-opacity="0.368627" cx="49" cy="21" rx="16" ry="9" />
<ellipse fill="#3d4b4e" fill-opacity="0.674510" cx="255" cy="63" rx="14" ry="16" />
<ellipse fill="#5d5755" fill-opacity="0.474510" cx="51" cy="107" rx="29" ry="3" />
<ellipse fill="#9c9591" fill-opacity="0.521569" cx="118" cy="141" rx="4" ry="4" />
<ellipse fill="#0f1009" fill-opacity="0.501961" cx="6" cy="11" rx="15" ry="29" />
<ellipse fill="#181a10" fill-opacity="0.360784" cx="189" cy="93" rx="5" ry="7" />
<ellipse fill="#515b5a" fill-opacity="0.454902" cx="235" cy="125" rx="5" ry="7" />
<ellipse fill="#aab2b8" fill-opacity="0.611765" cx="127" cy="45" rx="2" ry="2" />
<ellipse fill="#737b8d" fill-opacity="0.525490" cx="148" cy="16" rx="5" ry="2" />
<ellipse fill="#545e65" fill-opacity="0.478431" cx="204" cy="123" rx="3" ry="8" />
</g>
</svg>