<svg xmlns="http://www.w3.org/2000/svg" version="1.1" width="256" height="143">
<rect x="0" y="0" width="256" height="143" fill="#f0f0f0" />
<g transform="scale(1.000000) translate(0.5 0.5)">
<ellipse fill="#6f6e2a" fill-opacity="0.733333" cx="102" cy="91" rx="216" ry="142" />
<ellipse fill="#e0ebf9" fill-opacity="0.823529" cx="128" cy="0" rx="95" ry="29" />
<ellipse fill="#363b16" fill-opacity="0.627451" cx="0" cy="118" rx="59" ry="116" />
<ellipse fill="#5a580a" fill-opacity="0.635294" cx="255" cy="88" rx="33" ry="99" />
<ellipse fill="#ffe5b5" fill-opacity="0.325490" cx="159" cy="70" rx="77" ry="31" />
<ellipse fill="#747d29" fill-opacity="0.874510" cx="92" cy="135" rx="46" ry="38" />
<ellipse fill="#e3edf1" fill-opacity="0.701961" cx="100" cy="13" rx="32" ry="21" />
<ellipse fill="#ac9d18" fill-opacity="0.380392" cx="201" cy="108" rx="35" ry="38" />
<ellipse fill="#1b2606" fill-opacity="0.584314" cx="1" cy="138" rx="41" ry="32" />
<ellipse fill="#7f7b4c" fill-opacity="0.611765" cx="44" cy="55" rx="26" ry="43" />
<ellipse fill="#e5d857" fill-opacity="0.462745" cx="167" cy="136" rx="21" ry="34" />
<ellipse fill="#b8c3cc" fill-opacity="0.843137" cx="209" cy="4" rx="28" ry="9" />
<ellipse fill="#7f7c26" fill-opacity="0.505882" cx="221" cy="42" rx="18" ry="30" />
<ellipse fill="#001300" fill-opacity="0.227451" cx="239" cy="129" rx="28" ry="19" />
<ellipse fill="#cbc0a8" fill-opacity="0.537255" cx="140" cy="65" rx="61" ry="14" />
<ellipse fill="#b9c3cd" fill-opacity="0.721569" cx="49" cy="0" rx="47" ry="8" />
<ellipse fill="#9c9442" fill-opacity="0.525490" cx="183" cy="37" rx="52" ry="14" />
<ellipse fill="#bbb07e" fill-opacity="0.337255" cx="93" cy="47" rx="64" ry="17" />
<ellipse fill="#534828" fill-opacity="0.647059" cx="11" cy="17" rx="33" ry="11" />
<ellipse fill="#898f3a" fill-opacity="0.509804" cx="82" cy="100" rx="26" ry="30" />
<ellipse fill="#353900" fill-opacity="0.662745" cx="255" cy="22" rx="12" ry="15" />
<ellipse fill="#485210" fill-opacity="0.470588" cx="110" cy="142" rx="19" ry="26" />
<ellipse fill="#293718" fill-opacity="0.490196" cx="3" cy="83" rx="64" ry="6" />
<ellipse fill="#b3aca1" fill-opacity="0.513725" cx="149" cy="93" rx="24" ry="15" />
<ellipse fill="#160e0b" fill-opacity="0.349020" cx="8" cy="54" rx="35" ry="5" />
<ellipse fill="#797348" fill-opacity="0.513725" cx="39" cy="30" rx="36" ry="14" />
<ellipse fill="#909f58" fill-opacity="0.345098" cx="29" cy="117" rx="10" ry="13" />
<ellipse fill="#989ebf" fill-opacity="0.482353" cx="255" cy="134" rx="5" ry="10" />
<ellipse fill="#9a9675" fill-opacity="0.572549" cx="119" cy="93" rx="9" ry="21" />
<ellipse fill="#626824" fill-opacity="0.517647" cx="211" cy="142" rx="31" ry="9" />
<ellipse fill="#e7f0f1" fill-opacity="0.866667" cx="102" cy="21" rx="26" ry="11" />
<ellipse fill="#9c933e" fill-opacity="0.466667" cx="227" cy="95" rx="29" ry="14" />
<ellipse fill="#e1ccb3" fill-opacity="0.490196" cx="237" cy="65" rx="5" ry="4" />
<ellipse fill="#bbb191" fill-opacity="0.788235" cx="200" cy="53" rx="15" ry="6" />
<ellipse fill="#605a0f" fill-opacity="0.294118" cx="223" cy="25" rx="42" ry="7" />
<ellipse fill="#8c8851" fill-opacity="0.627451" cx="57" cy="70" rx="32" ry="8" />
<ellipse fill="#b0af6d" fill-opacity="0.737255" cx="189" cy="129" rx="30" ry="3" />
<ellipse fill="#131808" fill-opacity="0.400000" cx="6" cy="119" rx="17" ry="19" />
<ellipse fill="#e3eef1" fill-opacity="0.603922" cx="140" cy="15" rx="37" ry="12" />
<ellipse fill="#d7c974" fill-opacity="0.537255" cx="184" cy="96" rx="16" ry="6" />
<ellipse fill="#a5ad4a" fill-opacity="0.576471" cx="90" cy="119" rx="6" ry="20" />
<ellipse fill="#f3efde" fill-opacity="0.376471" cx="106" cy="70" rx="17" ry="5" />
<ellipse fill="#82802c" fill-opacity="0.611765" cx="212" cy="108" rx="25" ry="8" />
<ellipse fill="#898444" fill-opacity="0.470588" cx="170" cy="62" rx="7" ry="6" />
<ellipse fill="#020413" fill-opacity="0.458824" cx="56" cy="111" rx="4" ry="9" />
<ellipse fill="#78823d" fill-opacity="0.556863" cx="5" cy="142" rx="19" ry="4" />
<ellipse fill="#b3ab6d" fill-opacity="0.454902" cx="135" cy="35" rx="28" ry="8" />
<ellipse fill="#6d7047" fill-opacity="0.670588" cx="66" cy="80" rx="9" ry="12" />
<ellipse fill="#323300" fill-opacity="0.517647" cx="248" cy="117" rx="19" ry="7" />
<ellipse fill="#788049" fill-opacity="0.705882" cx="138" cy="117" rx="13" ry="11" />
<ellipse fill="#4a5506" fill-opacity="0.443137" cx="97" cy="99" rx="5" ry="11" />
<ellipse fill="#9ba5c5" fill-opacity="0.376471" cx="242" cy="6" rx="11" ry="3" />
<ellipse fill="#b7c5d2" fill-opacity="0.360784" cx="132" cy="0" rx="106" ry="10" />
<ellipse fill="#4e5400" fill-opacity="0.411765" cx="224" cy="59" rx="9" ry="5" />
<ellipse fill="#969768" fill-opacity="0.513725" cx="61" cy="96" rx="13" ry="8" />
<ellipse fill="#b1a250" fill-opacity="0.498039" cx="220" cy="78" rx="15" ry="18" />
<ellipse fill="#8f847a" fill-opacity="0.509804" cx="125" cy="85" rx="21" ry="6" />
<ellipse fill="#8e8859" fill-opacity="0.533333" cx="57" cy="35" rx="33" ry="9" />
<ellipse fill="#3b4503" fill-opacity="0.564706" cx="75" cy="119" rx="8" ry="3" />
<ellipse fill="#838a3a" fill-opacity="0.517647" cx="126" cy="133" rx="16" ry="7" />
<ellipse fill="#514649" fill-opacity="0.521569" cx="170" cy="88" rx="7" ry="2" />
<ellipse fill="#383300" fill-opacity="0.505882" cx="246" cy="74" rx="8" ry="6" />
<ellipse fill="#243000" fill-opacity="0.501961" cx="105" cy="128" rx="6" ry="8" />
<ellipse fill="#625a31" fill-opacity="0.592157" cx="30" cy="20" rx="28" ry="7" />
<ellipse fill="#b0a87d" fill-opacity="0.525490" cx="89" cy="52" rx="30" ry="11" />
<ellipse fill="#e8e0bc" fill-opacity="0.533333" cx="171" cy="69" rx="31" ry="2" />
<ellipse fill="#2d3711" fill-opacity="0.568627" cx="32" cy="131" rx="19" ry="6" />
<ellipse fill="#a19f3b" fill-opacity="0.533333" cx="172" cy="135" rx="16" ry="8" />
<ellipse fill="#9ca55b" fill-opacity="0.509804" cx="58" cy="124" rx="14" ry="5" />
<ellipse fill="#464200" fill-opacity="0.298039" cx="243" cy="16" rx="31" ry="5" />
<ellipse fill="#736a3e" fill-opacity="0.560784" cx="56" cy="28" rx="22" ry="5" />
<ellipse fill="#f1efea" fill-opacity="0.517647" cx="144" cy="77" rx="7" ry="3" />
<ellipse fill="#a7a95f" fill-opacity="0.403922" cx="244" cy="55" rx="4" ry="11" />
<ellipse fill="#5d562e" fill-opacity="0.674510" cx="215" cy="122" rx="6" ry="5" />
<ellipse fill="#282700" fill-opacity="0.501961" cx="253" cy="59" rx="4" ry="6" />
<ellipse fill="#b3ac65" fill-opacity="0.513725" cx="83" cy="78" rx="8" ry="10" />
<ellipse fill="#c9d0d1" fill-opacity="0.505882" cx="59" cy="0" rx="29" ry="16" />
<ellipse fill="#9c8225" fill-opacity="0.250980" cx="176" cy="28" rx="38" ry="4" />
<ellipse fill="#131b02" fill-opacity="0.294118" cx="24" cy="43" rx="6" ry="5" />
<ellipse fill="#302f00" fill-opacity="0.666667" cx="255" cy="110" rx="4" ry="8" />
<ellipse fill="#181a06" fill-opacity="0.388235" cx="3" cy="86" rx="19" ry="5" />
<ellipse fill="#818c55" fill-opacity="0.572549" cx="33" cy="110" rx="14" ry="4" />
<ellipse fill="#c2c057" fill-opacity="0.505882" cx="194" cy="118" rx="13" ry="4" />
<ellipse fill="#ead66b" fill-opacity="0.439216" cx="165" cy="109" rx="9" ry="7" />
<ellipse fill="#c7af33" fill-opacity="0.458824" cx="195" cy="78" rx="15" ry="8" />
<ellipse fill="#b3b676" fill-opacity="0.498039" cx="133" cy="103" rx="25" ry="4" />
<ellipse fill="#333d06" fill-opacity="0.592157" cx="242" cy="142" rx="9" ry="11" />
<ellipse fill="#b8b062" fill-opacity="0.494118" cx="214" cy="131" rx="6" ry="5" />
<ellipse fill="#30290f" fill-opacity="0.278431" cx="8" cy="11" rx="26" ry="6" />
<ellipse fill="#737a29" fill-opacity="0.803922" cx="63" cy="138" rx="21" ry="8" />
<ellipse fill="#d2cbb5" fill-opacity="0.494118" cx="159" cy="74" rx="4" ry="25" />
<ellipse fill="#5a5057" fill-opacity="0.466667" cx="119" cy="80" rx="6" ry="3" />
<ellipse fill="#7d7d3e" fill-opacity="0.450980" cx="217" cy="61" rx="22" ry="3" />
<ellipse fill="#838159" fill-opacity="0.400000" cx="27" cy="73" rx="11" ry="10" />
<ellipse fill="#aba37c" fill-opacity="0.486275" cx="166" cy="67" rx="5" ry="22" />
<ellipse fill="#23250e" fill-opacity="0.701961" cx="1" cy="55" rx="3" ry="9" />
<ellipse fill="#e2d86d" fill-opacity="0.388235" cx="153" cy="133" rx="5" ry="18" />
<ellipse fill="#566215" fill-opacity="0.545098" cx="78" cy="110" rx="9" ry="4" />
<ellipse fill="#c5bc88" fill-opacity="0.533333" cx="186" cy="99" rx="8" ry="5" />
<ellipse fill="#8e8e2e" fill-opacity="0.756863" cx="223" cy="45" rx="9" ry="10" />
</g>
</svg>