<svg xmlns="http://www.w3.org/2000/svg" version="1.1" width="256" height="143">
<rect x="0" y="0" width="256" height="143" fill="#f0f0f0" />
<g transform="scale(1.000000) translate(0.5 0.5)">
<ellipse fill="#1b170a" fill-opacity="0.901961" cx="118" cy="83" rx="196" ry="142" />
<ellipse fill="#706c57" fill-opacity="0.564706" cx="127" cy="92" rx="43" ry="51" />
<ellipse fill="#050602" fill-opacity="0.721569" cx="39" cy="85" rx="16" ry="142" />
<ellipse fill="#191511" fill-opacity="0.866667" cx="172" cy="12" rx="255" ry="25" />
<ellipse fill="#000000" fill-opacity="0.866667" cx="91" cy="135" rx="12" ry="20" />
<ellipse fill="#5a5d3e" fill-opacity="0.549020" cx="204" cy="85" rx="15" ry="43" />
<ellipse fill="#6e5b2f" fill-opacity="0.415686" cx="71" cy="95" rx="18" ry="43" />
<ellipse fill="#73745c" fill-opacity="0.537255" cx="121" cy="117" rx="20" ry="42" />
<ellipse fill="#463c33" fill-opacity="0.584314" cx="137" cy="50" rx="38" ry="33" />
<ellipse fill="#7f6966" fill-opacity="0.415686" cx="19" cy="60" rx="10" ry="19" />
<ellipse fill="#000300" fill-opacity="0.607843" cx="23" cy="142" rx="31" ry="36" />
<ellipse fill="#000001" fill-opacity="0.341176" cx="174" cy="130" rx="34" ry="20" />
<ellipse fill="#000100" fill-opacity="0.360784" cx="250" cy="39" rx="23" ry="35" />
<ellipse fill="#786968" fill-opacity="0.603922" cx="156" cy="56" rx="10" ry="10" />
<ellipse fill="#060703" fill-opacity="0.588235" cx="184" cy="112" rx="6" ry="72" />
<ellipse fill="#59543b" fill-opacity="0.631373" cx="61" cy="126" rx="8" ry="23" />
<ellipse fill="#060a00" fill-opacity="0.380392" cx="254" cy="142" rx="85" ry="17" />
<ellipse fill="#14120c" fill-opacity="0.760784" cx="26" cy="7" rx="88" ry="35" />
<ellipse fill="#200e0c" fill-opacity="0.403922" cx="145" cy="97" rx="3" ry="75" />
<ellipse fill="#776366" fill-opacity="0.254902" cx="163" cy="115" rx="12" ry="16" />
<ellipse fill="#474322" fill-opacity="0.509804" cx="221" cy="99" rx="22" ry="27" />
<ellipse fill="#27201d" fill-opacity="0.639216" cx="180" cy="29" rx="29" ry="20" />
<ellipse fill="#7d6b6b" fill-opacity="0.411765" cx="23" cy="45" rx="14" ry="3" />
<ellipse fill="#060903" fill-opacity="0.321569" cx="34" cy="93" rx="21" ry="37" />
<ellipse fill="#67664e" fill-opacity="0.454902" cx="98" cy="104" rx="25" ry="13" />
<ellipse fill="#4a3d20" fill-opacity="0.619608" cx="79" cy="76" rx="15" ry="26" />
<ellipse fill="#261e1c" fill-opacity="0.552941" cx="174" cy="82" rx="9" ry="22" />
<ellipse fill="#120f0a" fill-opacity="0.764706" cx="118" cy="26" rx="7" ry="8" />
<ellipse fill="#c7dade" fill-opacity="0.137255" cx="216" cy="48" rx="25" ry="3" />
<ellipse fill="#362921" fill-opacity="0.423529" cx="54" cy="22" rx="25" ry="8" />
<ellipse fill="#78786b" fill-opacity="0.572549" cx="118" cy="121" rx="15" ry="9" />
<ellipse fill="#38352b" fill-opacity="0.411765" cx="98" cy="41" rx="23" ry="17" />
<ellipse fill="#171300" fill-opacity="0.364706" cx="255" cy="124" rx="13" ry="57" />
<ellipse fill="#000401" fill-opacity="0.705882" cx="83" cy="142" rx="5" ry="26" />
<ellipse fill="#000500" fill-opacity="0.376471" cx="245" cy="29" rx="32" ry="14" />
<ellipse fill="#848562" fill-opacity="0.360784" cx="105" cy="82" rx="13" ry="7" />
<ellipse fill="#160e0a" fill-opacity="0.701961" cx="134" cy="40" rx="10" ry="3" />
<ellipse fill="#896968" fill-opacity="0.325490" cx="141" cy="36" rx="11" ry="4" />
<ellipse fill="#140d01" fill-opacity="0.600000" cx="0" cy="50" rx="9" ry="11" />
<ellipse fill="#3f342a" fill-opacity="0.305882" cx="27" cy="65" rx="9" ry="19" />
<ellipse fill="#0f0f0b" fill-opacity="0.501961" cx="198" cy="37" rx="15" ry="8" />
<ellipse fill="#797276" fill-opacity="0.345098" cx="160" cy="60" rx="16" ry="4" />
<ellipse fill="#544e33" fill-opacity="0.447059" cx="88" cy="60" rx="35" ry="6" />
<ellipse fill="#000000" fill-opacity="0.443137" cx="98" cy="131" rx="5" ry="16" />
<ellipse fill="#53543c" fill-opacity="0.603922" cx="194" cy="78" rx="5" ry="32" />
<ellipse fill="#60554c" fill-opacity="0.541176" cx="13" cy="65" rx="5" ry="17" />
<ellipse fill="#000200" fill-opacity="0.556863" cx="3" cy="0" rx="20" ry="21" />
<ellipse fill="#352f29" fill-opacity="0.462745" cx="156" cy="127" rx="14" ry="16" />
<ellipse fill="#000000" fill-opacity="0.556863" cx="191" cy="134" rx="4" ry="21" />
<ellipse fill="#5f5e47" fill-opacity="0.662745" cx="138" cy="119" rx="5" ry="46" />
<ellipse fill="#150000" fill-opacity="0.101961" cx="152" cy="95" rx="48" ry="8" />
<ellipse fill="#392e1a" fill-opacity="0.650980" cx="68" cy="66" rx="13" ry="6" />
<ellipse fill="#2d2f1c" fill-opacity="0.458824" cx="229" cy="61" rx="18" ry="25" />
<ellipse fill="#42422e" fill-opacity="0.282353" cx="210" cy="123" rx="16" ry="19" />
<ellipse fill="#747165" fill-opacity="0.294118" cx="126" cy="109" rx="47" ry="4" />
<ellipse fill="#61603e" fill-opacity="0.498039" cx="236" cy="90" rx="3" ry="11" />
<ellipse fill="#7a5b57" fill-opacity="0.392157" cx="133" cy="24" rx="3" ry="10" />
<ellipse fill="#312521" fill-opacity="0.564706" cx="141" cy="15" rx="22" ry="5" />
<ellipse fill="#61504a" fill-opacity="0.737255" cx="149" cy="49" rx="3" ry="14" />
<ellipse fill="#696d60" fill-opacity="0.337255" cx="94" cy="114" rx="40" ry="3" />
<ellipse fill="#524d30" fill-opacity="0.631373" cx="89" cy="90" rx="10" ry="13" />
<ellipse fill="#17130d" fill-opacity="0.498039" cx="48" cy="34" rx="17" ry="19" />
<ellipse fill="#22201b" fill-opacity="0.509804" cx="11" cy="108" rx="7" ry="28" />
<ellipse fill="#5c4b48" fill-opacity="0.325490" cx="163" cy="47" rx="4" ry="32" />
<ellipse fill="#71715b" fill-opacity="0.533333" cx="97" cy="64" rx="8" ry="3" />
<ellipse fill="#261612" fill-opacity="0.611765" cx="141" cy="46" rx="4" ry="8" />
<ellipse fill="#060000" fill-opacity="0.494118" cx="125" cy="34" rx="4" ry="5" />
<ellipse fill="#221100" fill-opacity="0.270588" cx="13" cy="63" rx="23" ry="4" />
<ellipse fill="#4c3936" fill-opacity="0.498039" cx="212" cy="1" rx="5" ry="7" />
<ellipse fill="#54543b" fill-opacity="0.462745" cx="210" cy="114" rx="21" ry="3" />
<ellipse fill="#0c0c0d" fill-opacity="0.478431" cx="185" cy="7" rx="25" ry="7" />
<ellipse fill="#584e4a" fill-opacity="0.729412" cx="158" cy="76" rx="6" ry="15" />
<ellipse fill="#372821" fill-opacity="0.447059" cx="17" cy="32" rx="44" ry="2" />
<ellipse fill="#48362e" fill-opacity="0.380392" cx="69" cy="18" rx="8" ry="9" />
<ellipse fill="#56574e" fill-opacity="0.360784" cx="110" cy="43" rx="21" ry="3" />
<ellipse fill="#000000" fill-opacity="0.533333" cx="0" cy="138" rx="5" ry="23" />
<ellipse fill="#646459" fill-opacity="0.349020" cx="215" cy="46" rx="6" ry="5" />
<ellipse fill="#5d4c4a" fill-opacity="0.490196" cx="182" cy="29" rx="2" ry="6" />
<ellipse fill="#372611" fill-opacity="0.411765" cx="83" cy="52" rx="29" ry="5" />
<ellipse fill="#040701" fill-opacity="0.600000" cx="47" cy="107" rx="7" ry="63" />
<ellipse fill="#6e6566" fill-opacity="0.427451" cx="20" cy="55" rx="10" ry="3" />
<ellipse fill="#4a4c37" fill-opacity="0.607843" cx="194" cy="62" rx="7" ry="13" />
<ellipse fill="#252120" fill-opacity="0.501961" cx="178" cy="45" rx="29" ry="3" />
<ellipse fill="#36240b" fill-opacity="0.584314" cx="0" cy="80" rx="7" ry="28" />
<ellipse fill="#626141" fill-opacity="0.407843" cx="126" cy="90" rx="11" ry="24" />
<ellipse fill="#534641" fill-opacity="0.384314" cx="176" cy="108" rx="8" ry="4" />
<ellipse fill="#56563a" fill-opacity="0.474510" cx="200" cy="82" rx="10" ry="16" />
<ellipse fill="#302e16" fill-opacity="0.419608" cx="225" cy="78" rx="29" ry="4" />
<ellipse fill="#533d19" fill-opacity="0.462745" cx="65" cy="94" rx="11" ry="22" />
<ellipse fill="#3c422c" fill-opacity="0.521569" cx="117" cy="57" rx="16" ry="11" />
<ellipse fill="#5f5150" fill-opacity="0.360784" cx="22" cy="44" rx="16" ry="3" />
<ellipse fill="#42322a" fill-opacity="0.552941" cx="147" cy="90" rx="7" ry="11" />
<ellipse fill="#6c5c40" fill-opacity="0.450980" cx="61" cy="58" rx="6" ry="4" />
<ellipse fill="#37281f" fill-opacity="0.549020" cx="30" cy="16" rx="4" ry="10" />
<ellipse fill="#3b3418" fill-opacity="0.443137" cx="247" cy="86" rx="10" ry="16" />
<ellipse fill="#4c4b39" fill-opacity="0.588235" cx="69" cy="124" rx="12" ry="11" />
<ellipse fill="#6f6060" fill-opacity="0.501961" cx="163" cy="48" rx="7" ry="2" />
<ellipse fill="#16160f" fill-opacity="0.568627" cx="23" cy="101" rx="6" ry="22" />
<ellipse fill="#020400" fill-opacity="0.588235" cx="55" cy="17" rx="5" ry="6" />
<ellipse fill="#2f2810" fill-opacity="0.301961" cx="227" cy="122" rx="7" ry="65" />
</g>
</svg>