<svg xmlns="http://www.w3.org/2000/svg" version="1.1" width="256" height="143">
<rect x="0" y="0" width="256" height="143" fill="#f0f0f0" />
<g transform="scale(1.000000) translate(0.5 0.5)">
<ellipse fill="#2c3b1a" fill-opacity="0.580392" cx="144" cy="76" rx="198" ry="138" />
<ellipse fill="#2f451b" fill-opacity="0.541176" cx="255" cy="131" rx="75" ry="70" />
<ellipse fill="#c7c5ca" fill-opacity="0.333333" cx="132" cy="60" rx="97" ry="47" />
<ellipse fill="#384823" fill-opacity="0.631373" cx="0" cy="127" rx="36" ry="16" />
<ellipse fill="#141917" fill-opacity="0.286275" cx="249" cy="60" rx="12" ry="142" />
<ellipse fill="#0f0346" fill-opacity="0.188235" cx="3" cy="44" rx="94" ry="21" />
<ellipse fill="#698151" fill-opacity="0.454902" cx="165" cy="110" rx="92" ry="24" />
<ellipse fill="#fbead1" fill-opacity="0.274510" cx="170" cy="29" rx="80" ry="9" />
<ellipse fill="#062106" fill-opacity="0.623529" cx="228" cy="142" rx="29" ry="11" />
<ellipse fill="#fcf8e1" fill-opacity="0.458824" cx="69" cy="86" rx="14" ry="11" />
<ellipse fill="#c0b8af" fill-opacity="0.525490" cx="57" cy="15" rx="25" ry="9" />
<ellipse fill="#585a62" fill-opacity="0.466667" cx="225" cy="48" rx="36" ry="10" />
<ellipse fill="#5d6f4c" fill-opacity="1.000000" cx="171" cy="133" rx="24" ry="11" />
<ellipse fill="#eaebe2" fill-opacity="0.423529" cx="141" cy="76" rx="37" ry="4" />
<ellipse fill="#303a3e" fill-opacity="0.537255" cx="244" cy="11" rx="32" ry="7" />
<ellipse fill="#263533" fill-opacity="0.772549" cx="250" cy="65" rx="13" ry="13" />
<ellipse fill="#b7b8b6" fill-opacity="0.470588" cx="162" cy="60" rx="12" ry="36" />
<ellipse fill="#96a26b" fill-opacity="0.643137" cx="108" cy="142" rx="36" ry="20" />
<ellipse fill="#4b4e33" fill-opacity="0.427451" cx="1" cy="96" rx="4" ry="110" />
<ellipse fill="#c5cdd7" fill-opacity="0.486275" cx="167" cy="0" rx="29" ry="3" />
<ellipse fill="#4f4d3a" fill-opacity="0.572549" cx="13" cy="2" rx="15" ry="6" />
<ellipse fill="#899460" fill-opacity="0.435294" cx="33" cy="98" rx="30" ry="28" />
<ellipse fill="#737b91" fill-opacity="0.466667" cx="146" cy="47" rx="22" ry="13" />
<ellipse fill="#66815e" fill-opacity="0.470588" cx="97" cy="102" rx="22" ry="17" />
<ellipse fill="#8a877b" fill-opacity="0.654902" cx="255" cy="28" rx="35" ry="10" />
<ellipse fill="#908b70" fill-opacity="0.462745" cx="242" cy="88" rx="14" ry="5" />
<ellipse fill="#798a57" fill-opacity="0.635294" cx="192" cy="89" rx="23" ry="10" />
<ellipse fill="#d5bdbc" fill-opacity="0.341176" cx="6" cy="17" rx="26" ry="5" />
<ellipse fill="#dcdcdf" fill-opacity="0.486275" cx="177" cy="43" rx="10" ry="7" />
<ellipse fill="#516c19" fill-opacity="0.282353" cx="80" cy="142" rx="45" ry="8" />
<ellipse fill="#9f988d" fill-opacity="0.584314" cx="31" cy="71" rx="29" ry="7" />
<ellipse fill="#808486" fill-opacity="0.501961" cx="62" cy="44" rx="37" ry="27" />
<ellipse fill="#566743" fill-opacity="0.713725" cx="18" cy="82" rx="8" ry="7" />
<ellipse fill="#707867" fill-opacity="0.745098" cx="200" cy="14" rx="14" ry="12" />
<ellipse fill="#e3e6e0" fill-opacity="0.349020" cx="118" cy="80" rx="13" ry="7" />
<ellipse fill="#62795f" fill-opacity="0.431373" cx="155" cy="13" rx="16" ry="10" />
<ellipse fill="#e2dbbc" fill-opacity="0.478431" cx="136" cy="24" rx="12" ry="7" />
<ellipse fill="#c8cdad" fill-opacity="0.443137" cx="58" cy="98" rx="19" ry="3" />
<ellipse fill="#92a286" fill-opacity="0.529412" cx="150" cy="91" rx="25" ry="15" />
<ellipse fill="#b4ae98" fill-opacity="0.576471" cx="37" cy="108" rx="10" ry="7" />
<ellipse fill="#e4e7e3" fill-opacity="0.521569" cx="148" cy="34" rx="17" ry="3" />
<ellipse fill="#2a2d56" fill-opacity="0.415686" cx="115" cy="71" rx="8" ry="3" />
<ellipse fill="#18242e" fill-opacity="0.533333" cx="6" cy="62" rx="26" ry="2" />
<ellipse fill="#616776" fill-opacity="0.501961" cx="169" cy="57" rx="38" ry="2" />
<ellipse fill="#7b8954" fill-opacity="0.505882" cx="215" cy="110" rx="15" ry="16" />
<ellipse fill="#e2dffb" fill-opacity="0.184314" cx="108" cy="48" rx="5" ry="28" />
<ellipse fill="#d3d5cf" fill-opacity="0.709804" cx="193" cy="36" rx="5" ry="6" />
<ellipse fill="#344f4e" fill-opacity="0.466667" cx="124" cy="118" rx="14" ry="6" />
<ellipse fill="#a3a082" fill-opacity="0.560784" cx="200" cy="73" rx="27" ry="8" />
<ellipse fill="#5f634e" fill-opacity="0.501961" cx="120" cy="29" rx="6" ry="4" />
<ellipse fill="#566f4d" fill-opacity="0.517647" cx="57" cy="115" rx="10" ry="8" />
<ellipse fill="#557162" fill-opacity="0.525490" cx="125" cy="1" rx="12" ry="17" />
<ellipse fill="#202735" fill-opacity="0.403922" cx="239" cy="99" rx="8" ry="10" />
<ellipse fill="#2a3c21" fill-opacity="0.498039" cx="9" cy="130" rx="9" ry="10" />
<ellipse fill="#91a069" fill-opacity="0.564706" cx="73" cy="135" rx="13" ry="21" />
<ellipse fill="#c0bea3" fill-opacity="0.521569" cx="78" cy="24" rx="19" ry="3" />
<ellipse fill="#b1b59a" fill-opacity="0.505882" cx="137" cy="141" rx="9" ry="11" />
<ellipse fill="#495944" fill-opacity="0.435294" cx="191" cy="102" rx="13" ry="12" />
<ellipse fill="#3b5126" fill-opacity="0.447059" cx="238" cy="130" rx="35" ry="7" />
<ellipse fill="#80838b" fill-opacity="0.568627" cx="92" cy="66" rx="13" ry="17" />
<ellipse fill="#b1a99f" fill-opacity="0.427451" cx="219" cy="26" rx="11" ry="12" />
<ellipse fill="#fcefcf" fill-opacity="0.423529" cx="51" cy="66" rx="2" ry="9" />
<ellipse fill="#798f62" fill-opacity="0.545098" cx="100" cy="19" rx="6" ry="9" />
<ellipse fill="#b2aca9" fill-opacity="0.431373" cx="225" cy="64" rx="11" ry="5" />
<ellipse fill="#eee2cb" fill-opacity="0.501961" cx="19" cy="68" rx="9" ry="2" />
<ellipse fill="#e9e4d3" fill-opacity="0.494118" cx="37" cy="66" rx="2" ry="10" />
<ellipse fill="#cbc6bf" fill-opacity="0.411765" cx="71" cy="81" rx="20" ry="7" />
<ellipse fill="#284332" fill-opacity="0.435294" cx="234" cy="19" rx="6" ry="4" />
<ellipse fill="#496238" fill-opacity="0.411765" cx="38" cy="93" rx="9" ry="6" />
<ellipse fill="#86878c" fill-opacity="0.580392" cx="193" cy="55" rx="17" ry="11" />
<ellipse fill="#8b9faa" fill-opacity="0.525490" cx="250" cy="0" rx="5" ry="7" />
<ellipse fill="#6d7d4f" fill-opacity="0.600000" cx="5" cy="114" rx="18" ry="8" />
<ellipse fill="#a3ab97" fill-opacity="0.474510" cx="171" cy="100" rx="12" ry="6" />
<ellipse fill="#abb38d" fill-opacity="0.470588" cx="111" cy="128" rx="17" ry="5" />
<ellipse fill="#9a9787" fill-opacity="0.792157" cx="6" cy="77" rx="6" ry="7" />
<ellipse fill="#b0ad9b" fill-opacity="0.588235" cx="178" cy="28" rx="9" ry="13" />
<ellipse fill="#6f7f55" fill-opacity="0.494118" cx="53" cy="135" rx="22" ry="13" />
<ellipse fill="#757879" fill-opacity="0.839216" cx="29" cy="25" rx="15" ry="7" />
<ellipse fill="#262f43" fill-opacity="0.466667" cx="238" cy="75" rx="10" ry="7" />
<ellipse fill="#74767c" fill-opacity="0.509804" cx="229" cy="45" rx="16" ry="15" />
<ellipse fill="#c0bfb8" fill-opacity="0.513725" cx="159" cy="68" rx="14" ry="10" />
<ellipse fill="#fffffb" fill-opacity="0.470588" cx="170" cy="46" rx="3" ry="6" />
<ellipse fill="#86987c" fill-opacity="0.576471" cx="137" cy="101" rx="13" ry="16" />
<ellipse fill="#a1a298" fill-opacity="0.709804" cx="46" cy="58" rx="20" ry="2" />
<ellipse fill="#515356" fill-opacity="0.498039" cx="4" cy="40" rx="14" ry="16" />
<ellipse fill="#385651" fill-opacity="0.454902" cx="174" cy="88" rx="7" ry="3" />
<ellipse fill="#213842" fill-opacity="0.501961" cx="222" cy="85" rx="4" ry="9" />
<ellipse fill="#c9c67f" fill-opacity="0.317647" cx="188" cy="83" rx="7" ry="9" />
<ellipse fill="#2d4941" fill-opacity="0.556863" cx="78" cy="106" rx="7" ry="3" />
<ellipse fill="#486957" fill-opacity="0.454902" cx="149" cy="82" rx="5" ry="4" />
<ellipse fill="#2d4234" fill-opacity="0.313725" cx="64" cy="0" rx="7" ry="8" />
<ellipse fill="#7c8a5a" fill-opacity="0.427451" cx="191" cy="122" rx="23" ry="8" />
<ellipse fill="#eaedf3" fill-opacity="0.462745" cx="182" cy="0" rx="4" ry="5" />
<ellipse fill="#c5c29f" fill-opacity="0.584314" cx="120" cy="23" rx="13" ry="5" />
<ellipse fill="#474700" fill-opacity="0.137255" cx="43" cy="63" rx="4" ry="25" />
<ellipse fill="#a8ad92" fill-opacity="0.498039" cx="92" cy="12" rx="7" ry="6" />
<ellipse fill="#435030" fill-opacity="0.658824" cx="255" cy="53" rx="13" ry="7" />
<ellipse fill="#837b5b" fill-opacity="0.521569" cx="20" cy="9" rx="23" ry="5" />
<ellipse fill="#344a14" fill-opacity="0.443137" cx="2" cy="94" rx="4" ry="8" />
<ellipse fill="#b3b7b3" fill-opacity="0.545098" cx="151" cy="50" rx="9" ry="4" />
</g>
</svg>