<svg xmlns="http://www.w3.org/2000/svg" version="1.1" width="202" height="256">
<rect x="0" y="0" width="202" height="256" fill="#f0f0f0" />
<g transform="scale(1.000000) translate(0.5 0.5)">
<ellipse fill="#4b4b4b" fill-opacity="0.443137" cx="152" cy="78" rx="32" ry="44" />
<ellipse fill="#5a5a5a" fill-opacity="0.690196" cx="109" cy="45" rx="65" ry="11" />
<ellipse fill="#333333" fill-opacity="0.541176" cx="110" cy="149" rx="76" ry="8" />
<ellipse fill="#0b0b0b" fill-opacity="0.447059" cx="108" cy="222" rx="82" ry="7" />
<ellipse fill="#636363" fill-opacity="0.600000" cx="177" cy="186" rx="8" ry="45" />
<ellipse fill="#a2a2a2" fill-opacity="0.690196" cx="52" cy="44" rx="16" ry="58" />
<ellipse fill="#ffffff" fill-opacity="0.717647" cx="126" cy="69" rx="34" ry="15" />
<ellipse fill="#474747" fill-opacity="0.505882" cx="170" cy="67" rx="13" ry="23" />
<ellipse fill="#515151" fill-opacity="0.537255" cx="141" cy="185" rx="12" ry="11" />
<ellipse fill="#767676" fill-opacity="0.600000" cx="47" cy="184" rx="4" ry="47" />
<ellipse fill="#141414" fill-opacity="0.415686" cx="140" cy="104" rx="10" ry="13" />
<ellipse fill="#ffffff" fill-opacity="0.894118" cx="12" cy="194" rx="27" ry="223" />
<ellipse fill="#626262" fill-opacity="0.631373" cx="48" cy="22" rx="19" ry="6" />
<ellipse fill="#fefefe" fill-opacity="0.925490" cx="125" cy="129" rx="201" ry="13" />
<ellipse fill="#525252" fill-opacity="0.619608" cx="177" cy="105" rx="6" ry="13" />
<ellipse fill="#6e6e6e" fill-opacity="0.545098" cx="99" cy="241" rx="77" ry="2" />
<ellipse fill="#808080" fill-opacity="0.788235" cx="64" cy="40" rx="14" ry="16" />
<ellipse fill="#888888" fill-opacity="0.537255" cx="102" cy="166" rx="50" ry="4" />
<ellipse fill="#858585" fill-opacity="0.494118" cx="121" cy="9" rx="53" ry="3" />
<ellipse fill="#ffffff" fill-opacity="0.615686" cx="166" cy="110" rx="6" ry="23" />
<ellipse fill="#616161" fill-opacity="0.407843" cx="103" cy="204" rx="47" ry="3" />
<ellipse fill="#ffffff" fill-opacity="0.674510" cx="115" cy="158" rx="54" ry="3" />
<ellipse fill="#ffffff" fill-opacity="0.717647" cx="29" cy="44" rx="23" ry="13" />
<ellipse fill="#e3e3e3" fill-opacity="0.533333" cx="111" cy="96" rx="21" ry="42" />
<ellipse fill="#575757" fill-opacity="0.529412" cx="62" cy="227" rx="30" ry="3" />
<ellipse fill="#ffffff" fill-opacity="0.811765" cx="197" cy="182" rx="14" ry="255" />
<ellipse fill="#fdfdfd" fill-opacity="1.000000" cx="136" cy="0" rx="198" ry="6" />
<ellipse fill="#ffffff" fill-opacity="0.678431" cx="40" cy="186" rx="89" ry="7" />
<ellipse fill="#1c1c1c" fill-opacity="0.560784" cx="141" cy="86" rx="5" ry="6" />
<ellipse fill="#ffffff" fill-opacity="0.737255" cx="94" cy="14" rx="183" ry="3" />
<ellipse fill="#dadada" fill-opacity="0.662745" cx="89" cy="101" rx="43" ry="17" />
<ellipse fill="#ffffff" fill-opacity="0.839216" cx="111" cy="61" rx="46" ry="7" />
<ellipse fill="#666666" fill-opacity="0.513725" cx="59" cy="143" rx="22" ry="2" />
<ellipse fill="#919191" fill-opacity="0.737255" cx="162" cy="222" rx="22" ry="7" />
<ellipse fill="#ffffff" fill-opacity="0.513725" cx="153" cy="87" rx="5" ry="13" />
<ellipse fill="#ffffff" fill-opacity="0.490196" cx="141" cy="26" rx="70" ry="10" />
<ellipse fill="#7b7b7b" fill-opacity="0.509804" cx="44" cy="87" rx="5" ry="15" />
<ellipse fill="#909090" fill-opacity="0.501961" cx="23" cy="237" rx="18" ry="2" />
<ellipse fill="#ffffff" fill-opacity="0.603922" cx="95" cy="255" rx="117" ry="14" />
<ellipse fill="#3a3a3a" fill-opacity="0.521569" cx="156" cy="196" rx="3" ry="4" />
<ellipse fill="#8d8d8d" fill-opacity="0.494118" cx="114" cy="130" rx="11" ry="4" />
<ellipse fill="#818181" fill-opacity="0.635294" cx="150" cy="146" rx="34" ry="5" />
<ellipse fill="#ffffff" fill-opacity="0.741176" cx="201" cy="65" rx="20" ry="53" />
<ellipse fill="#4e4e4e" fill-opacity="0.482353" cx="52" cy="55" rx="2" ry="29" />
<ellipse fill="#6f6f6f" fill-opacity="0.674510" cx="47" cy="217" rx="9" ry="3" />
<ellipse fill="#ffffff" fill-opacity="0.701961" cx="106" cy="79" rx="33" ry="7" />
<ellipse fill="#565656" fill-opacity="0.584314" cx="46" cy="154" rx="8" ry="3" />
<ellipse fill="#3d3d3d" fill-opacity="0.380392" cx="61" cy="170" rx="3" ry="8" />
<ellipse fill="#ffffff" fill-opacity="0.713725" cx="17" cy="62" rx="24" ry="47" />
<ellipse fill="#707070" fill-opacity="0.576471" cx="125" cy="70" rx="57" ry="1" />
<ellipse fill="#2a2a2a" fill-opacity="0.454902" cx="41" cy="16" rx="12" ry="1" />
<ellipse fill="#2e2e2e" fill-opacity="0.380392" cx="107" cy="88" rx="64" ry="1" />
<ellipse fill="#ffffff" fill-opacity="0.811765" cx="109" cy="185" rx="3" ry="24" />
<ellipse fill="#606060" fill-opacity="0.415686" cx="61" cy="202" rx="3" ry="10" />
<ellipse fill="#646464" fill-opacity="0.741176" cx="162" cy="55" rx="9" ry="8" />
<ellipse fill="#767676" fill-opacity="0.611765" cx="176" cy="85" rx="6" ry="31" />
<ellipse fill="#6b6b6b" fill-opacity="0.643137" cx="133" cy="47" rx="38" ry="8" />
<ellipse fill="#7e7e7e" fill-opacity="0.505882" cx="177" cy="163" rx="7" ry="22" />
<ellipse fill="#a5a5a5" fill-opacity="0.498039" cx="127" cy="115" rx="64" ry="2" />
<ellipse fill="#5a5a5a" fill-opacity="0.537255" cx="50" cy="226" rx="17" ry="3" />
<ellipse fill="#ffffff" fill-opacity="0.858824" cx="184" cy="16" rx="23" ry="30" />
<ellipse fill="#ffffff" fill-opacity="0.737255" cx="119" cy="184" rx="3" ry="30" />
<ellipse fill="#ffffff" fill-opacity="0.596078" cx="55" cy="100" rx="4" ry="12" />
<ellipse fill="#9c9c9c" fill-opacity="0.560784" cx="153" cy="186" rx="11" ry="3" />
<ellipse fill="#ffffff" fill-opacity="0.611765" cx="59" cy="210" rx="109" ry="3" />
<ellipse fill="#ffffff" fill-opacity="0.701961" cx="98" cy="184" rx="3" ry="30" />
<ellipse fill="#fefefe" fill-opacity="0.768627" cx="28" cy="28" rx="27" ry="2" />
<ellipse fill="#909090" fill-opacity="0.964706" cx="62" cy="74" rx="1" ry="37" />
<ellipse fill="#717171" fill-opacity="0.501961" cx="142" cy="7" rx="19" ry="2" />
<ellipse fill="#fafafa" fill-opacity="0.403922" cx="153" cy="141" rx="92" ry="2" />
<ellipse fill="#ffffff" fill-opacity="0.541176" cx="168" cy="186" rx="3" ry="30" />
<ellipse fill="#ffffff" fill-opacity="0.803922" cx="88" cy="183" rx="3" ry="28" />
<ellipse fill="#666666" fill-opacity="0.556863" cx="114" cy="153" rx="69" ry="2" />
<ellipse fill="#ffffff" fill-opacity="0.658824" cx="46" cy="84" rx="6" ry="2" />
<ellipse fill="#fcfcfc" fill-opacity="0.443137" cx="130" cy="82" rx="7" ry="16" />
<ellipse fill="#ffffff" fill-opacity="0.427451" cx="134" cy="234" rx="115" ry="6" />
<ellipse fill="#626262" fill-opacity="0.639216" cx="142" cy="107" rx="12" ry="10" />
<ellipse fill="#cecece" fill-opacity="0.882353" cx="155" cy="102" rx="3" ry="14" />
<ellipse fill="#888888" fill-opacity="0.627451" cx="71" cy="36" rx="14" ry="5" />
<ellipse fill="#7a7a7a" fill-opacity="0.686275" cx="83" cy="222" rx="44" ry="7" />
<ellipse fill="#2c2c2c" fill-opacity="0.454902" cx="93" cy="166" rx="3" ry="4" />
<ellipse fill="#8e8e8e" fill-opacity="0.525490" cx="123" cy="103" rx="2" ry="16" />
<ellipse fill="#ffffff" fill-opacity="0.780392" cx="81" cy="12" rx="5" ry="21" />
<ellipse fill="#fdfdfd" fill-opacity="1.000000" cx="101" cy="0" rx="4" ry="14" />
<ellipse fill="#020202" fill-opacity="0.368627" cx="72" cy="167" rx="3" ry="4" />
<ellipse fill="#7f7f7f" fill-opacity="0.415686" cx="103" cy="86" rx="60" ry="1" />
<ellipse fill="#fcfcfc" fill-opacity="0.533333" cx="66" cy="80" rx="2" ry="29" />
<ellipse fill="#5c5c5c" fill-opacity="0.607843" cx="159" cy="83" rx="2" ry="14" />
<ellipse fill="#898989" fill-opacity="0.360784" cx="68" cy="9" rx="12" ry="4" />
<ellipse fill="#ffffff" fill-opacity="0.709804" cx="167" cy="104" rx="4" ry="16" />
<ellipse fill="#efefef" fill-opacity="0.807843" cx="154" cy="176" rx="3" ry="19" />
<ellipse fill="#ffffff" fill-opacity="0.478431" cx="36" cy="161" rx="130" ry="3" />
<ellipse fill="#7e7e7e" fill-opacity="0.494118" cx="125" cy="41" rx="41" ry="7" />
<ellipse fill="#464646" fill-opacity="0.509804" cx="175" cy="237" rx="3" ry="2" />
<ellipse fill="#ffffff" fill-opacity="0.929412" cx="100" cy="121" rx="183" ry="5" />
<ellipse fill="#ffffff" fill-opacity="0.505882" cx="91" cy="186" rx="32" ry="16" />
<ellipse fill="#a6a6a6" fill-opacity="0.996078" cx="42" cy="53" rx="1" ry="23" />
<ellipse fill="#ffffff" fill-opacity="0.294118" cx="111" cy="156" rx="60" ry="2" />
<ellipse fill="#454545" fill-opacity="0.478431" cx="44" cy="202" rx="3" ry="3" />
<ellipse fill="#737373" fill-opacity="0.509804" cx="42" cy="21" rx="14" ry="6" />
</g>
</svg>