<svg xmlns="http://www.w3.org/2000/svg" version="1.1" width="256" height="143">
<rect x="0" y="0" width="256" height="143" fill="#f0f0f0" />
<g transform="scale(1.000000) translate(0.5 0.5)">
<ellipse fill="#262014" fill-opacity="0.890196" cx="133" cy="60" rx="197" ry="121" />
<ellipse fill="#8a7669" fill-opacity="0.396078" cx="142" cy="32" rx="60" ry="113" />
<ellipse fill="#000800" fill-opacity="0.611765" cx="1" cy="116" rx="90" ry="70" />
<ellipse fill="#000000" fill-opacity="0.325490" cx="234" cy="86" rx="80" ry="58" />
<ellipse fill="#c6b0ae" fill-opacity="0.384314" cx="130" cy="45" rx="49" ry="6" />
<ellipse fill="#000600" fill-opacity="0.592157" cx="243" cy="86" rx="39" ry="31" />
<ellipse fill="#ffc7ce" fill-opacity="0.121569" cx="197" cy="8" rx="104" ry="18" />
<ellipse fill="#796656" fill-opacity="0.486275" cx="62" cy="63" rx="18" ry="13" />
<ellipse fill="#030f00" fill-opacity="0.250980" cx="131" cy="64" rx="36" ry="16" />
<ellipse fill="#87796b" fill-opacity="0.560784" cx="128" cy="121" rx="19" ry="18" />
<ellipse fill="#000600" fill-opacity="0.317647" cx="17" cy="24" rx="24" ry="74" />
<ellipse fill="#726757" fill-opacity="0.431373" cx="176" cy="84" rx="24" ry="12" />
<ellipse fill="#1e150e" fill-opacity="0.294118" cx="170" cy="34" rx="33" ry="11" />
<ellipse fill="#1e2115" fill-opacity="0.874510" cx="73" cy="138" rx="37" ry="19" />
<ellipse fill="#a99794" fill-opacity="0.407843" cx="98" cy="39" rx="18" ry="7" />
<ellipse fill="#474037" fill-opacity="0.650980" cx="24" cy="24" rx="95" ry="9" />
<ellipse fill="#857064" fill-opacity="0.525490" cx="189" cy="49" rx="25" ry="3" />
<ellipse fill="#313022" fill-opacity="0.521569" cx="170" cy="117" rx="23" ry="21" />
<ellipse fill="#f4bcb1" fill-opacity="0.286275" cx="126" cy="17" rx="28" ry="3" />
<ellipse fill="#a08777" fill-opacity="0.419608" cx="170" cy="63" rx="5" ry="20" />
<ellipse fill="#c2afa0" fill-opacity="0.443137" cx="120" cy="85" rx="25" ry="2" />
<ellipse fill="#998776" fill-opacity="0.631373" cx="92" cy="58" rx="3" ry="27" />
<ellipse fill="#393528" fill-opacity="0.631373" cx="111" cy="96" rx="24" ry="8" />
<ellipse fill="#cab2a3" fill-opacity="0.345098" cx="150" cy="142" rx="7" ry="13" />
<ellipse fill="#090e03" fill-opacity="0.600000" cx="161" cy="68" rx="5" ry="17" />
<ellipse fill="#22241a" fill-opacity="0.431373" cx="254" cy="11" rx="22" ry="14" />
<ellipse fill="#000500" fill-opacity="0.501961" cx="101" cy="66" rx="3" ry="15" />
<ellipse fill="#222315" fill-opacity="0.556863" cx="82" cy="63" rx="5" ry="20" />
<ellipse fill="#080f03" fill-opacity="0.568627" cx="107" cy="117" rx="2" ry="14" />
<ellipse fill="#8a7565" fill-opacity="0.580392" cx="165" cy="116" rx="3" ry="11" />
<ellipse fill="#d39e95" fill-opacity="0.368627" cx="200" cy="24" rx="15" ry="3" />
<ellipse fill="#2c2a1f" fill-opacity="0.713725" cx="62" cy="65" rx="3" ry="18" />
<ellipse fill="#14180e" fill-opacity="0.623529" cx="0" cy="0" rx="22" ry="26" />
<ellipse fill="#111508" fill-opacity="0.568627" cx="179" cy="67" rx="4" ry="17" />
<ellipse fill="#161b11" fill-opacity="0.466667" cx="124" cy="142" rx="31" ry="4" />
<ellipse fill="#0a0f06" fill-opacity="0.356863" cx="15" cy="52" rx="41" ry="16" />
<ellipse fill="#7d6c64" fill-opacity="0.721569" cx="200" cy="2" rx="12" ry="10" />
<ellipse fill="#ffd3b8" fill-opacity="0.090196" cx="73" cy="58" rx="7" ry="26" />
<ellipse fill="#e7b2a5" fill-opacity="0.549020" cx="160" cy="22" rx="11" ry="2" />
<ellipse fill="#4a3d34" fill-opacity="0.623529" cx="128" cy="29" rx="32" ry="8" />
<ellipse fill="#b39785" fill-opacity="0.317647" cx="187" cy="70" rx="3" ry="17" />
<ellipse fill="#5e493e" fill-opacity="0.541176" cx="86" cy="6" rx="23" ry="13" />
<ellipse fill="#f4d2cd" fill-opacity="0.141176" cx="150" cy="49" rx="6" ry="15" />
<ellipse fill="#3d392b" fill-opacity="0.682353" cx="187" cy="130" rx="36" ry="8" />
<ellipse fill="#584f41" fill-opacity="0.490196" cx="99" cy="108" rx="9" ry="20" />
<ellipse fill="#77695a" fill-opacity="0.635294" cx="147" cy="86" rx="19" ry="5" />
<ellipse fill="#0e120b" fill-opacity="0.674510" cx="203" cy="98" rx="11" ry="12" />
<ellipse fill="#b3998c" fill-opacity="0.274510" cx="152" cy="137" rx="13" ry="5" />
<ellipse fill="#917b74" fill-opacity="0.560784" cx="132" cy="5" rx="24" ry="3" />
<ellipse fill="#ffe2d8" fill-opacity="0.325490" cx="163" cy="46" rx="24" ry="1" />
<ellipse fill="#090e08" fill-opacity="0.490196" cx="35" cy="92" rx="23" ry="27" />
<ellipse fill="#5f4e44" fill-opacity="0.552941" cx="188" cy="16" rx="52" ry="4" />
<ellipse fill="#a68a7a" fill-opacity="0.505882" cx="45" cy="57" rx="2" ry="4" />
<ellipse fill="#816e57" fill-opacity="0.180392" cx="203" cy="64" rx="8" ry="18" />
<ellipse fill="#3d4438" fill-opacity="0.568627" cx="0" cy="97" rx="7" ry="9" />
<ellipse fill="#a88277" fill-opacity="0.450980" cx="94" cy="16" rx="20" ry="2" />
<ellipse fill="#fffcfe" fill-opacity="0.082353" cx="25" cy="30" rx="7" ry="11" />
<ellipse fill="#212419" fill-opacity="0.584314" cx="209" cy="114" rx="40" ry="10" />
<ellipse fill="#6b5d51" fill-opacity="0.545098" cx="67" cy="41" rx="21" ry="2" />
<ellipse fill="#474338" fill-opacity="0.396078" cx="145" cy="0" rx="39" ry="4" />
<ellipse fill="#000300" fill-opacity="0.490196" cx="125" cy="61" rx="4" ry="6" />
<ellipse fill="#ffe9d1" fill-opacity="0.247059" cx="145" cy="133" rx="1" ry="29" />
<ellipse fill="#0e130b" fill-opacity="0.427451" cx="74" cy="87" rx="26" ry="4" />
<ellipse fill="#c6a995" fill-opacity="0.392157" cx="75" cy="69" rx="2" ry="9" />
<ellipse fill="#1f2113" fill-opacity="0.501961" cx="149" cy="102" rx="4" ry="6" />
<ellipse fill="#433b30" fill-opacity="0.639216" cx="199" cy="52" rx="30" ry="3" />
<ellipse fill="#7a6e62" fill-opacity="0.498039" cx="113" cy="123" rx="5" ry="15" />
<ellipse fill="#9a8a7b" fill-opacity="0.564706" cx="143" cy="117" rx="6" ry="5" />
<ellipse fill="#877466" fill-opacity="0.458824" cx="103" cy="114" rx="2" ry="15" />
<ellipse fill="#615642" fill-opacity="0.474510" cx="113" cy="60" rx="9" ry="12" />
<ellipse fill="#050e00" fill-opacity="0.439216" cx="100" cy="77" rx="5" ry="3" />
<ellipse fill="#bb9287" fill-opacity="0.588235" cx="150" cy="19" rx="6" ry="3" />
<ellipse fill="#867773" fill-opacity="0.564706" cx="94" cy="32" rx="4" ry="9" />
<ellipse fill="#322f23" fill-opacity="0.650980" cx="198" cy="36" rx="20" ry="9" />
<ellipse fill="#050d00" fill-opacity="0.517647" cx="152" cy="113" rx="3" ry="6" />
<ellipse fill="#a19176" fill-opacity="0.258824" cx="96" cy="64" rx="11" ry="4" />
<ellipse fill="#3f392c" fill-opacity="0.411765" cx="63" cy="47" rx="29" ry="5" />
<ellipse fill="#7f6d5c" fill-opacity="0.333333" cx="93" cy="93" rx="3" ry="22" />
<ellipse fill="#55473e" fill-opacity="0.556863" cx="236" cy="19" rx="13" ry="11" />
<ellipse fill="#393224" fill-opacity="0.474510" cx="186" cy="65" rx="17" ry="8" />
<ellipse fill="#080c05" fill-opacity="0.501961" cx="83" cy="100" rx="7" ry="15" />
<ellipse fill="#141a09" fill-opacity="0.466667" cx="100" cy="58" rx="5" ry="7" />
<ellipse fill="#957f73" fill-opacity="0.611765" cx="171" cy="75" rx="4" ry="7" />
<ellipse fill="#baa799" fill-opacity="0.305882" cx="125" cy="86" rx="19" ry="2" />
<ellipse fill="#362e23" fill-opacity="0.521569" cx="232" cy="6" rx="22" ry="3" />
<ellipse fill="#9e8781" fill-opacity="0.564706" cx="165" cy="10" rx="7" ry="3" />
<ellipse fill="#43382d" fill-opacity="0.564706" cx="178" cy="32" rx="8" ry="14" />
<ellipse fill="#0f150f" fill-opacity="0.443137" cx="94" cy="135" rx="9" ry="17" />
<ellipse fill="#171a10" fill-opacity="0.564706" cx="246" cy="40" rx="26" ry="9" />
<ellipse fill="#3b3529" fill-opacity="0.592157" cx="73" cy="36" rx="11" ry="6" />
<ellipse fill="#8b7869" fill-opacity="0.733333" cx="100" cy="115" rx="3" ry="3" />
<ellipse fill="#ab9790" fill-opacity="0.470588" cx="128" cy="44" rx="26" ry="2" />
<ellipse fill="#debda6" fill-opacity="0.286275" cx="63" cy="75" rx="3" ry="3" />
<ellipse fill="#5d5244" fill-opacity="0.509804" cx="150" cy="85" rx="9" ry="16" />
<ellipse fill="#816d5e" fill-opacity="0.396078" cx="57" cy="58" rx="4" ry="9" />
<ellipse fill="#323122" fill-opacity="0.529412" cx="206" cy="136" rx="28" ry="23" />
<ellipse fill="#4c4036" fill-opacity="0.694118" cx="220" cy="20" rx="20" ry="4" />
<ellipse fill="#67594d" fill-opacity="0.509804" cx="162" cy="136" rx="3" ry="21" />
<ellipse fill="#14180f" fill-opacity="0.494118" cx="70" cy="89" rx="6" ry="19" />
<ellipse fill="#232417" fill-opacity="0.439216" cx="141" cy="59" rx="8" ry="7" />
</g>
</svg>