<svg xmlns="http://www.w3.org/2000/svg" version="1.1" width="256" height="143">
<rect x="0" y="0" width="256" height="143" fill="#f0f0f0" />
<g transform="scale(1.000000) translate(0.5 0.5)">
<ellipse fill="#000200" fill-opacity="0.752941" cx="139" cy="62" rx="243" ry="106" />
<ellipse fill="#7a7b79" fill-opacity="0.552941" cx="137" cy="125" rx="62" ry="35" />
<ellipse fill="#050800" fill-opacity="0.545098" cx="228" cy="118" rx="31" ry="39" />
<ellipse fill="#111611" fill-opacity="0.462745" cx="0" cy="25" rx="42" ry="118" />
<ellipse fill="#626766" fill-opacity="0.576471" cx="74" cy="89" rx="24" ry="34" />
<ellipse fill="#000000" fill-opacity="0.317647" cx="169" cy="74" rx="9" ry="109" />
<ellipse fill="#686b6c" fill-opacity="0.580392" cx="134" cy="54" rx="16" ry="30" />
<ellipse fill="#1d201d" fill-opacity="0.823529" cx="188" cy="75" rx="37" ry="17" />
<ellipse fill="#8f8f8c" fill-opacity="0.443137" cx="139" cy="129" rx="28" ry="17" />
<ellipse fill="#161914" fill-opacity="0.709804" cx="255" cy="22" rx="11" ry="75" />
<ellipse fill="#000100" fill-opacity="0.631373" cx="105" cy="138" rx="9" ry="8" />
<ellipse fill="#515659" fill-opacity="0.462745" cx="101" cy="30" rx="28" ry="37" />
<ellipse fill="#1d1d1a" fill-opacity="0.701961" cx="155" cy="0" rx="24" ry="23" />
<ellipse fill="#5e5d5f" fill-opacity="0.525490" cx="190" cy="34" rx="14" ry="21" />
<ellipse fill="#0f120e" fill-opacity="0.529412" cx="113" cy="76" rx="14" ry="12" />
<ellipse fill="#10100c" fill-opacity="0.568627" cx="72" cy="133" rx="8" ry="11" />
<ellipse fill="#454947" fill-opacity="0.396078" cx="40" cy="96" rx="26" ry="45" />
<ellipse fill="#1b1f1b" fill-opacity="0.372549" cx="240" cy="21" rx="30" ry="32" />
<ellipse fill="#3f4441" fill-opacity="0.588235" cx="238" cy="78" rx="13" ry="22" />
<ellipse fill="#0b1010" fill-opacity="0.176471" cx="29" cy="26" rx="51" ry="33" />
<ellipse fill="#464a49" fill-opacity="0.705882" cx="142" cy="94" rx="51" ry="6" />
<ellipse fill="#727473" fill-opacity="0.235294" cx="89" cy="107" rx="45" ry="18" />
<ellipse fill="#7d7d77" fill-opacity="0.329412" cx="189" cy="121" rx="11" ry="23" />
<ellipse fill="#7e8486" fill-opacity="0.341176" cx="139" cy="72" rx="12" ry="11" />
<ellipse fill="#918f88" fill-opacity="0.376471" cx="85" cy="139" rx="7" ry="21" />
<ellipse fill="#161711" fill-opacity="0.537255" cx="174" cy="117" rx="4" ry="15" />
<ellipse fill="#191b17" fill-opacity="0.760784" cx="63" cy="142" rx="11" ry="12" />
<ellipse fill="#161712" fill-opacity="0.278431" cx="212" cy="110" rx="19" ry="42" />
<ellipse fill="#191915" fill-opacity="0.600000" cx="102" cy="141" rx="12" ry="4" />
<ellipse fill="#252626" fill-opacity="0.341176" cx="151" cy="43" rx="14" ry="15" />
<ellipse fill="#333b39" fill-opacity="0.290196" cx="45" cy="55" rx="26" ry="39" />
<ellipse fill="#12150c" fill-opacity="0.541176" cx="239" cy="142" rx="17" ry="45" />
<ellipse fill="#484d4e" fill-opacity="0.690196" cx="92" cy="53" rx="16" ry="25" />
<ellipse fill="#1c1f1c" fill-opacity="0.741176" cx="125" cy="71" rx="3" ry="6" />
<ellipse fill="#7c7c79" fill-opacity="0.600000" cx="116" cy="120" rx="10" ry="12" />
<ellipse fill="#77756f" fill-opacity="0.470588" cx="184" cy="141" rx="10" ry="28" />
<ellipse fill="#3b3d3d" fill-opacity="0.529412" cx="202" cy="47" rx="49" ry="8" />
<ellipse fill="#565d60" fill-opacity="0.462745" cx="150" cy="109" rx="20" ry="12" />
<ellipse fill="#5c605e" fill-opacity="0.796078" cx="78" cy="97" rx="14" ry="20" />
<ellipse fill="#7e818d" fill-opacity="0.486275" cx="159" cy="60" rx="2" ry="7" />
<ellipse fill="#222320" fill-opacity="0.447059" cx="165" cy="16" rx="13" ry="47" />
<ellipse fill="#20221f" fill-opacity="0.831373" cx="183" cy="71" rx="21" ry="17" />
<ellipse fill="#4e4c45" fill-opacity="0.568627" cx="56" cy="116" rx="28" ry="6" />
<ellipse fill="#170f00" fill-opacity="0.227451" cx="164" cy="142" rx="10" ry="10" />
<ellipse fill="#5f5f5e" fill-opacity="0.435294" cx="187" cy="22" rx="8" ry="17" />
<ellipse fill="#565552" fill-opacity="0.474510" cx="196" cy="123" rx="6" ry="15" />
<ellipse fill="#3c3f3a" fill-opacity="0.607843" cx="245" cy="89" rx="7" ry="12" />
<ellipse fill="#4b4e50" fill-opacity="0.478431" cx="122" cy="30" rx="34" ry="9" />
<ellipse fill="#303331" fill-opacity="0.372549" cx="136" cy="87" rx="43" ry="6" />
<ellipse fill="#252422" fill-opacity="0.533333" cx="198" cy="0" rx="12" ry="10" />
<ellipse fill="#474747" fill-opacity="0.525490" cx="208" cy="42" rx="8" ry="21" />
<ellipse fill="#1e211e" fill-opacity="0.733333" cx="202" cy="86" rx="13" ry="16" />
<ellipse fill="#778089" fill-opacity="0.223529" cx="106" cy="99" rx="9" ry="12" />
<ellipse fill="#34342c" fill-opacity="0.435294" cx="21" cy="128" rx="13" ry="43" />
<ellipse fill="#222521" fill-opacity="0.952941" cx="219" cy="57" rx="2" ry="23" />
<ellipse fill="#3a3d3d" fill-opacity="0.549020" cx="86" cy="0" rx="35" ry="16" />
<ellipse fill="#1b1d1a" fill-opacity="0.505882" cx="0" cy="41" rx="10" ry="81" />
<ellipse fill="#7e7f7d" fill-opacity="0.643137" cx="125" cy="134" rx="11" ry="14" />
<ellipse fill="#737578" fill-opacity="0.431373" cx="128" cy="59" rx="9" ry="7" />
<ellipse fill="#1a1d18" fill-opacity="0.388235" cx="249" cy="6" rx="19" ry="22" />
<ellipse fill="#525555" fill-opacity="0.482353" cx="147" cy="59" rx="5" ry="23" />
<ellipse fill="#2a2e2b" fill-opacity="0.568627" cx="45" cy="28" rx="16" ry="25" />
<ellipse fill="#535559" fill-opacity="0.400000" cx="163" cy="47" rx="3" ry="8" />
<ellipse fill="#1a1c15" fill-opacity="0.776471" cx="214" cy="142" rx="19" ry="11" />
<ellipse fill="#5a5c5f" fill-opacity="0.411765" cx="177" cy="50" rx="7" ry="4" />
<ellipse fill="#595b5d" fill-opacity="0.262745" cx="123" cy="32" rx="11" ry="29" />
<ellipse fill="#222522" fill-opacity="0.647059" cx="154" cy="65" rx="2" ry="23" />
<ellipse fill="#4a4d4c" fill-opacity="0.533333" cx="53" cy="114" rx="11" ry="21" />
<ellipse fill="#313533" fill-opacity="0.552941" cx="243" cy="54" rx="7" ry="21" />
<ellipse fill="#0e110e" fill-opacity="0.415686" cx="98" cy="84" rx="3" ry="6" />
<ellipse fill="#22231f" fill-opacity="0.552941" cx="105" cy="134" rx="6" ry="6" />
<ellipse fill="#777a78" fill-opacity="0.380392" cx="183" cy="110" rx="3" ry="18" />
<ellipse fill="#0e0c07" fill-opacity="0.439216" cx="207" cy="13" rx="4" ry="4" />
<ellipse fill="#0c100c" fill-opacity="0.498039" cx="117" cy="64" rx="3" ry="3" />
<ellipse fill="#4c524f" fill-opacity="0.513725" cx="67" cy="54" rx="15" ry="3" />
<ellipse fill="#4e4d49" fill-opacity="1.000000" cx="181" cy="142" rx="7" ry="1" />
<ellipse fill="#6c6b68" fill-opacity="0.509804" cx="85" cy="138" rx="8" ry="6" />
<ellipse fill="#404546" fill-opacity="0.470588" cx="220" cy="58" rx="14" ry="9" />
<ellipse fill="#1d1c16" fill-opacity="0.568627" cx="172" cy="142" rx="2" ry="18" />
<ellipse fill="#7c7b75" fill-opacity="0.458824" cx="88" cy="128" rx="7" ry="11" />
<ellipse fill="#696864" fill-opacity="0.494118" cx="210" cy="1" rx="2" ry="10" />
<ellipse fill="#3f4442" fill-opacity="0.321569" cx="75" cy="39" rx="16" ry="22" />
<ellipse fill="#272624" fill-opacity="0.498039" cx="255" cy="110" rx="6" ry="30" />
<ellipse fill="#686862" fill-opacity="0.423529" cx="163" cy="127" rx="5" ry="13" />
<ellipse fill="#3a3e3c" fill-opacity="0.270588" cx="170" cy="96" rx="24" ry="9" />
<ellipse fill="#24211c" fill-opacity="0.470588" cx="141" cy="47" rx="2" ry="7" />
<ellipse fill="#484d51" fill-opacity="0.541176" cx="88" cy="0" rx="21" ry="6" />
<ellipse fill="#57595b" fill-opacity="0.521569" cx="135" cy="40" rx="14" ry="5" />
<ellipse fill="#333027" fill-opacity="0.458824" cx="41" cy="141" rx="7" ry="12" />
<ellipse fill="#6f7375" fill-opacity="0.392157" cx="134" cy="74" rx="8" ry="8" />
<ellipse fill="#666c6f" fill-opacity="0.274510" cx="72" cy="87" rx="6" ry="26" />
<ellipse fill="#242421" fill-opacity="0.666667" cx="168" cy="21" rx="11" ry="16" />
<ellipse fill="#515355" fill-opacity="0.470588" cx="182" cy="40" rx="7" ry="14" />
<ellipse fill="#1f211e" fill-opacity="0.623529" cx="136" cy="7" rx="5" ry="10" />
<ellipse fill="#525757" fill-opacity="0.556863" cx="91" cy="76" rx="7" ry="13" />
<ellipse fill="#575d5f" fill-opacity="0.384314" cx="123" cy="107" rx="10" ry="12" />
<ellipse fill="#626667" fill-opacity="0.513725" cx="142" cy="77" rx="11" ry="4" />
<ellipse fill="#4c4f4e" fill-opacity="0.549020" cx="229" cy="20" rx="7" ry="3" />
<ellipse fill="#202321" fill-opacity="0.262745" cx="150" cy="33" rx="24" ry="3" />
<ellipse fill="#20211e" fill-opacity="0.427451" cx="72" cy="129" rx="9" ry="6" />
</g>
</svg>