<svg xmlns="http://www.w3.org/2000/svg" version="1.1" width="256" height="143">
<rect x="0" y="0" width="256" height="143" fill="#f0f0f0" />
<g transform="scale(1.000000) translate(0.5 0.5)">
<ellipse fill="#1a170c" fill-opacity="0.768627" cx="139" cy="75" rx="169" ry="133" />
<ellipse fill="#7e7e7d" fill-opacity="0.600000" cx="124" cy="42" rx="56" ry="70" />
<ellipse fill="#0d0900" fill-opacity="0.509804" cx="21" cy="123" rx="43" ry="111" />
<ellipse fill="#151000" fill-opacity="0.631373" cx="229" cy="24" rx="38" ry="58" />
<ellipse fill="#a8b0c4" fill-opacity="0.294118" cx="82" cy="20" rx="46" ry="26" />
<ellipse fill="#91918b" fill-opacity="0.482353" cx="177" cy="74" rx="25" ry="21" />
<ellipse fill="#352d1c" fill-opacity="0.509804" cx="183" cy="14" rx="35" ry="36" />
<ellipse fill="#43423c" fill-opacity="1.000000" cx="59" cy="63" rx="36" ry="15" />
<ellipse fill="#a6a6a1" fill-opacity="0.458824" cx="123" cy="132" rx="12" ry="25" />
<ellipse fill="#210d00" fill-opacity="0.372549" cx="104" cy="102" rx="11" ry="41" />
<ellipse fill="#aab0b4" fill-opacity="0.325490" cx="136" cy="46" rx="29" ry="22" />
<ellipse fill="#1c1c10" fill-opacity="0.835294" cx="8" cy="66" rx="10" ry="142" />
<ellipse fill="#dedbd8" fill-opacity="0.258824" cx="254" cy="86" rx="14" ry="18" />
<ellipse fill="#5d5d56" fill-opacity="0.658824" cx="155" cy="89" rx="68" ry="12" />
<ellipse fill="#c0bec0" fill-opacity="0.521569" cx="114" cy="24" rx="6" ry="17" />
<ellipse fill="#ffffff" fill-opacity="0.470588" cx="134" cy="49" rx="2" ry="27" />
<ellipse fill="#6d716c" fill-opacity="0.647059" cx="155" cy="131" rx="7" ry="33" />
<ellipse fill="#302b1e" fill-opacity="0.474510" cx="135" cy="3" rx="11" ry="14" />
<ellipse fill="#40413d" fill-opacity="0.650980" cx="105" cy="30" rx="3" ry="24" />
<ellipse fill="#000408" fill-opacity="0.160784" cx="123" cy="69" rx="14" ry="19" />
<ellipse fill="#484a46" fill-opacity="0.447059" cx="42" cy="52" rx="16" ry="44" />
<ellipse fill="#7c7b72" fill-opacity="0.486275" cx="81" cy="114" rx="9" ry="18" />
<ellipse fill="#453e30" fill-opacity="0.662745" cx="200" cy="46" rx="12" ry="26" />
<ellipse fill="#1b1000" fill-opacity="0.403922" cx="42" cy="136" rx="28" ry="33" />
<ellipse fill="#020700" fill-opacity="0.345098" cx="235" cy="4" rx="50" ry="24" />
<ellipse fill="#251200" fill-opacity="0.584314" cx="101" cy="125" rx="7" ry="27" />
<ellipse fill="#ffffff" fill-opacity="0.396078" cx="170" cy="60" rx="2" ry="13" />
<ellipse fill="#f9fdff" fill-opacity="0.552941" cx="112" cy="31" rx="2" ry="17" />
<ellipse fill="#160b00" fill-opacity="0.529412" cx="141" cy="133" rx="4" ry="26" />
<ellipse fill="#15150c" fill-opacity="0.498039" cx="232" cy="142" rx="11" ry="16" />
<ellipse fill="#e2dbd3" fill-opacity="0.486275" cx="184" cy="71" rx="2" ry="13" />
<ellipse fill="#6f7071" fill-opacity="0.568627" cx="122" cy="41" rx="9" ry="31" />
<ellipse fill="#271a07" fill-opacity="0.501961" cx="62" cy="98" rx="9" ry="22" />
<ellipse fill="#302e24" fill-opacity="0.466667" cx="146" cy="93" rx="10" ry="9" />
<ellipse fill="#a3aab5" fill-opacity="0.643137" cx="48" cy="10" rx="2" ry="14" />
<ellipse fill="#070700" fill-opacity="0.513725" cx="168" cy="134" rx="4" ry="17" />
<ellipse fill="#2d271a" fill-opacity="0.725490" cx="228" cy="65" rx="18" ry="24" />
<ellipse fill="#363529" fill-opacity="0.592157" cx="110" cy="76" rx="19" ry="4" />
<ellipse fill="#21221b" fill-opacity="0.396078" cx="128" cy="44" rx="2" ry="23" />
<ellipse fill="#746f64" fill-opacity="0.447059" cx="201" cy="90" rx="14" ry="18" />
<ellipse fill="#958e80" fill-opacity="0.505882" cx="158" cy="3" rx="3" ry="23" />
<ellipse fill="#64696d" fill-opacity="0.517647" cx="80" cy="36" rx="17" ry="17" />
<ellipse fill="#a09d9f" fill-opacity="0.486275" cx="92" cy="2" rx="11" ry="25" />
<ellipse fill="#070600" fill-opacity="0.490196" cx="163" cy="1" rx="2" ry="36" />
<ellipse fill="#8c8f90" fill-opacity="0.486275" cx="97" cy="92" rx="6" ry="7" />
<ellipse fill="#635f50" fill-opacity="0.603922" cx="113" cy="142" rx="4" ry="36" />
<ellipse fill="#ffffff" fill-opacity="0.392157" cx="133" cy="38" rx="2" ry="15" />
<ellipse fill="#424a50" fill-opacity="0.525490" cx="34" cy="12" rx="13" ry="18" />
<ellipse fill="#4b4638" fill-opacity="0.341176" cx="168" cy="25" rx="26" ry="16" />
<ellipse fill="#acadae" fill-opacity="0.560784" cx="124" cy="35" rx="2" ry="20" />
<ellipse fill="#787c75" fill-opacity="0.407843" cx="176" cy="142" rx="6" ry="20" />
<ellipse fill="#897d6c" fill-opacity="0.505882" cx="168" cy="10" rx="3" ry="23" />
<ellipse fill="#7f7668" fill-opacity="0.584314" cx="185" cy="32" rx="2" ry="14" />
<ellipse fill="#aeada4" fill-opacity="0.509804" cx="133" cy="0" rx="4" ry="7" />
<ellipse fill="#403a2d" fill-opacity="0.419608" cx="117" cy="1" rx="14" ry="7" />
<ellipse fill="#777c81" fill-opacity="0.635294" cx="114" cy="61" rx="13" ry="6" />
<ellipse fill="#737067" fill-opacity="0.321569" cx="255" cy="99" rx="17" ry="33" />
<ellipse fill="#2c1f09" fill-opacity="0.462745" cx="111" cy="103" rx="15" ry="3" />
<ellipse fill="#090902" fill-opacity="0.525490" cx="153" cy="6" rx="2" ry="20" />
<ellipse fill="#292a20" fill-opacity="0.439216" cx="21" cy="69" rx="13" ry="65" />
<ellipse fill="#393c38" fill-opacity="0.419608" cx="166" cy="79" rx="2" ry="28" />
<ellipse fill="#939196" fill-opacity="0.490196" cx="47" cy="48" rx="4" ry="4" />
<ellipse fill="#afafb4" fill-opacity="0.976471" cx="100" cy="20" rx="1" ry="17" />
<ellipse fill="#1d1408" fill-opacity="0.466667" cx="185" cy="142" rx="4" ry="19" />
<ellipse fill="#9b9c97" fill-opacity="0.423529" cx="120" cy="120" rx="6" ry="13" />
<ellipse fill="#9ea09d" fill-opacity="0.290196" cx="136" cy="101" rx="11" ry="6" />
<ellipse fill="#8e887e" fill-opacity="0.482353" cx="197" cy="49" rx="4" ry="4" />
<ellipse fill="#707577" fill-opacity="0.576471" cx="144" cy="69" rx="21" ry="10" />
<ellipse fill="#e5e7e8" fill-opacity="0.517647" cx="64" cy="4" rx="1" ry="8" />
<ellipse fill="#1a1407" fill-opacity="0.584314" cx="253" cy="142" rx="6" ry="9" />
<ellipse fill="#767473" fill-opacity="0.494118" cx="49" cy="71" rx="6" ry="6" />
<ellipse fill="#353229" fill-opacity="0.580392" cx="62" cy="56" rx="18" ry="9" />
<ellipse fill="#393527" fill-opacity="0.423529" cx="144" cy="113" rx="19" ry="5" />
<ellipse fill="#989794" fill-opacity="0.545098" cx="119" cy="94" rx="5" ry="5" />
<ellipse fill="#030200" fill-opacity="0.545098" cx="141" cy="0" rx="2" ry="19" />
<ellipse fill="#636462" fill-opacity="0.819608" cx="97" cy="69" rx="5" ry="6" />
<ellipse fill="#1c1a10" fill-opacity="0.525490" cx="174" cy="22" rx="2" ry="21" />
<ellipse fill="#2f2717" fill-opacity="0.466667" cx="133" cy="122" rx="12" ry="2" />
<ellipse fill="#636966" fill-opacity="0.541176" cx="162" cy="111" rx="11" ry="6" />
<ellipse fill="#130b00" fill-opacity="0.501961" cx="216" cy="142" rx="2" ry="21" />
<ellipse fill="#414037" fill-opacity="0.913725" cx="157" cy="94" rx="8" ry="4" />
<ellipse fill="#44413d" fill-opacity="0.474510" cx="21" cy="51" rx="9" ry="9" />
<ellipse fill="#0f0d04" fill-opacity="0.407843" cx="181" cy="8" rx="2" ry="42" />
<ellipse fill="#3a382f" fill-opacity="0.662745" cx="87" cy="65" rx="13" ry="5" />
<ellipse fill="#0f0d00" fill-opacity="0.196078" cx="177" cy="100" rx="15" ry="5" />
<ellipse fill="#493f2f" fill-opacity="0.482353" cx="215" cy="113" rx="31" ry="11" />
<ellipse fill="#716656" fill-opacity="0.498039" cx="214" cy="111" rx="5" ry="12" />
<ellipse fill="#3b3724" fill-opacity="0.431373" cx="34" cy="94" rx="12" ry="25" />
<ellipse fill="#655c4c" fill-opacity="0.537255" cx="176" cy="25" rx="2" ry="31" />
<ellipse fill="#412d15" fill-opacity="0.509804" cx="108" cy="108" rx="4" ry="17" />
<ellipse fill="#130800" fill-opacity="0.188235" cx="82" cy="142" rx="43" ry="7" />
<ellipse fill="#797b76" fill-opacity="0.388235" cx="151" cy="133" rx="8" ry="7" />
<ellipse fill="#77766f" fill-opacity="0.462745" cx="188" cy="81" rx="4" ry="23" />
<ellipse fill="#10130c" fill-opacity="0.337255" cx="22" cy="38" rx="28" ry="7" />
<ellipse fill="#6d6b6b" fill-opacity="0.537255" cx="116" cy="16" rx="2" ry="29" />
<ellipse fill="#74777c" fill-opacity="0.549020" cx="88" cy="43" rx="13" ry="13" />
<ellipse fill="#383324" fill-opacity="0.482353" cx="221" cy="91" rx="7" ry="11" />
<ellipse fill="#a1a09e" fill-opacity="0.556863" cx="141" cy="42" rx="3" ry="13" />
<ellipse fill="#000000" fill-opacity="0.560784" cx="171" cy="35" rx="3" ry="3" />
<ellipse fill="#4c4b4a" fill-opacity="0.486275" cx="81" cy="12" rx="2" ry="14" />
</g>
</svg>