<svg xmlns="http://www.w3.org/2000/svg" version="1.1" width="256" height="143">
<rect x="0" y="0" width="256" height="143" fill="#f0f0f0" />
<g transform="scale(1.000000) translate(0.5 0.5)">
<ellipse fill="#232622" fill-opacity="0.615686" cx="131" cy="71" rx="162" ry="142" />
<ellipse fill="#101310" fill-opacity="0.537255" cx="86" cy="19" rx="96" ry="72" />
<ellipse fill="#d7d8d6" fill-opacity="0.545098" cx="132" cy="130" rx="105" ry="35" />
<ellipse fill="#aba9a2" fill-opacity="0.682353" cx="146" cy="70" rx="14" ry="44" />
<ellipse fill="#989b9a" fill-opacity="0.498039" cx="14" cy="75" rx="21" ry="45" />
<ellipse fill="#8e908f" fill-opacity="0.858824" cx="244" cy="100" rx="78" ry="91" />
<ellipse fill="#050a0b" fill-opacity="0.419608" cx="80" cy="13" rx="37" ry="78" />
<ellipse fill="#e7e8e7" fill-opacity="0.541176" cx="118" cy="142" rx="31" ry="32" />
<ellipse fill="#9e9f9d" fill-opacity="1.000000" cx="50" cy="102" rx="43" ry="13" />
<ellipse fill="#e8ebea" fill-opacity="0.603922" cx="55" cy="139" rx="43" ry="7" />
<ellipse fill="#19160d" fill-opacity="0.584314" cx="175" cy="22" rx="7" ry="41" />
<ellipse fill="#616464" fill-opacity="0.909804" cx="28" cy="26" rx="8" ry="64" />
<ellipse fill="#fffffd" fill-opacity="0.227451" cx="134" cy="80" rx="20" ry="12" />
<ellipse fill="#c8c7c7" fill-opacity="0.439216" cx="221" cy="111" rx="11" ry="31" />
<ellipse fill="#26251c" fill-opacity="0.792157" cx="139" cy="11" rx="42" ry="11" />
<ellipse fill="#1f211c" fill-opacity="0.529412" cx="89" cy="113" rx="3" ry="13" />
<ellipse fill="#dbe0e7" fill-opacity="0.215686" cx="195" cy="20" rx="14" ry="46" />
<ellipse fill="#000000" fill-opacity="0.443137" cx="203" cy="98" rx="6" ry="7" />
<ellipse fill="#7a7c7a" fill-opacity="0.819608" cx="236" cy="34" rx="30" ry="31" />
<ellipse fill="#2c3230" fill-opacity="0.470588" cx="23" cy="123" rx="11" ry="10" />
<ellipse fill="#71726b" fill-opacity="0.494118" cx="116" cy="57" rx="9" ry="21" />
<ellipse fill="#000000" fill-opacity="0.513725" cx="2" cy="142" rx="8" ry="11" />
<ellipse fill="#d6d8d7" fill-opacity="0.450980" cx="183" cy="65" rx="8" ry="14" />
<ellipse fill="#525045" fill-opacity="0.415686" cx="150" cy="37" rx="22" ry="20" />
<ellipse fill="#c7c3bc" fill-opacity="0.533333" cx="144" cy="71" rx="10" ry="15" />
<ellipse fill="#040500" fill-opacity="0.137255" cx="195" cy="116" rx="14" ry="18" />
<ellipse fill="#6f7272" fill-opacity="0.545098" cx="134" cy="99" rx="14" ry="9" />
<ellipse fill="#646a6b" fill-opacity="0.545098" cx="95" cy="122" rx="11" ry="5" />
<ellipse fill="#2e312c" fill-opacity="0.478431" cx="223" cy="69" rx="6" ry="8" />
<ellipse fill="#a6a9a9" fill-opacity="0.541176" cx="250" cy="78" rx="30" ry="16" />
<ellipse fill="#9a9b99" fill-opacity="0.666667" cx="183" cy="87" rx="20" ry="18" />
<ellipse fill="#393f40" fill-opacity="0.462745" cx="44" cy="66" rx="20" ry="23" />
<ellipse fill="#e1e3e0" fill-opacity="0.541176" cx="124" cy="117" rx="30" ry="6" />
<ellipse fill="#090c0a" fill-opacity="0.192157" cx="213" cy="87" rx="7" ry="15" />
<ellipse fill="#2a2e2f" fill-opacity="0.466667" cx="105" cy="82" rx="14" ry="14" />
<ellipse fill="#313029" fill-opacity="0.329412" cx="165" cy="40" rx="13" ry="36" />
<ellipse fill="#5a5f5c" fill-opacity="0.482353" cx="249" cy="111" rx="11" ry="13" />
<ellipse fill="#0f120d" fill-opacity="0.529412" cx="96" cy="22" rx="34" ry="9" />
<ellipse fill="#d7d9d7" fill-opacity="0.658824" cx="90" cy="137" rx="37" ry="10" />
<ellipse fill="#c4c2ba" fill-opacity="0.337255" cx="165" cy="66" rx="2" ry="35" />
<ellipse fill="#0e1518" fill-opacity="0.505882" cx="137" cy="95" rx="6" ry="3" />
<ellipse fill="#969896" fill-opacity="0.619608" cx="168" cy="127" rx="25" ry="11" />
<ellipse fill="#7b7e7b" fill-opacity="0.639216" cx="16" cy="74" rx="10" ry="27" />
<ellipse fill="#ffffff" fill-opacity="0.337255" cx="147" cy="101" rx="13" ry="3" />
<ellipse fill="#8d918f" fill-opacity="0.345098" cx="92" cy="0" rx="8" ry="10" />
<ellipse fill="#363022" fill-opacity="0.501961" cx="130" cy="51" rx="5" ry="25" />
<ellipse fill="#bdbbb7" fill-opacity="0.521569" cx="229" cy="33" rx="3" ry="15" />
<ellipse fill="#000000" fill-opacity="0.243137" cx="87" cy="74" rx="5" ry="29" />
<ellipse fill="#c0bfbd" fill-opacity="0.278431" cx="214" cy="123" rx="11" ry="30" />
<ellipse fill="#272d2d" fill-opacity="0.517647" cx="12" cy="12" rx="8" ry="28" />
<ellipse fill="#ffffff" fill-opacity="0.337255" cx="171" cy="79" rx="3" ry="10" />
<ellipse fill="#c0c2c0" fill-opacity="0.447059" cx="68" cy="97" rx="13" ry="8" />
<ellipse fill="#6e7376" fill-opacity="0.592157" cx="32" cy="2" rx="9" ry="18" />
<ellipse fill="#3c3931" fill-opacity="0.490196" cx="162" cy="58" rx="3" ry="36" />
<ellipse fill="#242a2b" fill-opacity="0.494118" cx="46" cy="33" rx="17" ry="18" />
<ellipse fill="#4a4c48" fill-opacity="0.388235" cx="230" cy="57" rx="5" ry="14" />
<ellipse fill="#dedfdc" fill-opacity="0.705882" cx="99" cy="113" rx="7" ry="5" />
<ellipse fill="#1a1e16" fill-opacity="0.113725" cx="191" cy="86" rx="7" ry="25" />
<ellipse fill="#ffffff" fill-opacity="0.082353" cx="218" cy="5" rx="17" ry="20" />
<ellipse fill="#595d5c" fill-opacity="0.486275" cx="14" cy="74" rx="6" ry="16" />
<ellipse fill="#b9bbbb" fill-opacity="0.772549" cx="190" cy="53" rx="6" ry="12" />
<ellipse fill="#d3d6d4" fill-opacity="0.474510" cx="106" cy="98" rx="17" ry="3" />
<ellipse fill="#cbcbc6" fill-opacity="0.674510" cx="160" cy="95" rx="8" ry="2" />
<ellipse fill="#4f5352" fill-opacity="0.250980" cx="23" cy="129" rx="29" ry="6" />
<ellipse fill="#8d9597" fill-opacity="0.898039" cx="16" cy="141" rx="5" ry="9" />
<ellipse fill="#bcbfbe" fill-opacity="0.513725" cx="249" cy="132" rx="6" ry="6" />
<ellipse fill="#676966" fill-opacity="0.556863" cx="119" cy="75" rx="7" ry="22" />
<ellipse fill="#605f5b" fill-opacity="0.560784" cx="155" cy="63" rx="2" ry="29" />
<ellipse fill="#7f8281" fill-opacity="0.592157" cx="21" cy="40" rx="5" ry="16" />
<ellipse fill="#2e3332" fill-opacity="0.580392" cx="64" cy="61" rx="17" ry="30" />
<ellipse fill="#353b36" fill-opacity="0.513725" cx="0" cy="134" rx="5" ry="20" />
<ellipse fill="#c6c9c8" fill-opacity="0.501961" cx="177" cy="74" rx="6" ry="9" />
<ellipse fill="#7d7c6d" fill-opacity="0.349020" cx="141" cy="31" rx="14" ry="7" />
<ellipse fill="#adafab" fill-opacity="0.611765" cx="21" cy="90" rx="3" ry="10" />
<ellipse fill="#5e6262" fill-opacity="0.490196" cx="247" cy="47" rx="7" ry="14" />
<ellipse fill="#5d6164" fill-opacity="0.498039" cx="58" cy="67" rx="2" ry="23" />
<ellipse fill="#7f8281" fill-opacity="0.721569" cx="240" cy="118" rx="6" ry="32" />
<ellipse fill="#9da09e" fill-opacity="0.486275" cx="12" cy="115" rx="7" ry="9" />
<ellipse fill="#1a180f" fill-opacity="0.466667" cx="161" cy="0" rx="20" ry="14" />
<ellipse fill="#000000" fill-opacity="0.262745" cx="144" cy="126" rx="3" ry="3" />
<ellipse fill="#b1b5b4" fill-opacity="0.560784" cx="6" cy="59" rx="6" ry="3" />
<ellipse fill="#27261e" fill-opacity="0.478431" cx="168" cy="38" rx="2" ry="41" />
<ellipse fill="#090f0e" fill-opacity="0.482353" cx="80" cy="76" rx="7" ry="16" />
<ellipse fill="#6e6d66" fill-opacity="0.447059" cx="170" cy="48" rx="2" ry="24" />
<ellipse fill="#868785" fill-opacity="0.564706" cx="218" cy="49" rx="16" ry="9" />
<ellipse fill="#767a7b" fill-opacity="0.607843" cx="18" cy="2" rx="4" ry="3" />
<ellipse fill="#666d72" fill-opacity="0.329412" cx="193" cy="9" rx="8" ry="25" />
<ellipse fill="#50493e" fill-opacity="0.294118" cx="127" cy="0" rx="32" ry="9" />
<ellipse fill="#80807a" fill-opacity="0.427451" cx="84" cy="118" rx="5" ry="8" />
<ellipse fill="#999791" fill-opacity="0.427451" cx="157" cy="65" rx="2" ry="28" />
<ellipse fill="#acaea7" fill-opacity="0.298039" cx="164" cy="53" rx="3" ry="8" />
<ellipse fill="#3f4342" fill-opacity="0.576471" cx="208" cy="89" rx="5" ry="6" />
<ellipse fill="#8d8f8d" fill-opacity="0.341176" cx="146" cy="108" rx="31" ry="6" />
<ellipse fill="#494c49" fill-opacity="0.556863" cx="38" cy="85" rx="11" ry="5" />
<ellipse fill="#434749" fill-opacity="0.549020" cx="201" cy="121" rx="2" ry="10" />
<ellipse fill="#848582" fill-opacity="0.541176" cx="204" cy="69" rx="13" ry="21" />
<ellipse fill="#b6b8b5" fill-opacity="0.439216" cx="140" cy="141" rx="14" ry="16" />
<ellipse fill="#91928f" fill-opacity="0.556863" cx="58" cy="110" rx="13" ry="10" />
<ellipse fill="#838684" fill-opacity="0.560784" cx="8" cy="107" rx="6" ry="24" />
<ellipse fill="#20211b" fill-opacity="0.564706" cx="173" cy="38" rx="2" ry="29" />
</g>
</svg>