<svg xmlns="http://www.w3.org/2000/svg" version="1.1" width="256" height="143">
<rect x="0" y="0" width="256" height="143" fill="#f0f0f0" />
<g transform="scale(1.000000) translate(0.5 0.5)">
<ellipse fill="#141b0e" fill-opacity="0.545098" cx="171" cy="68" rx="214" ry="137" />
<ellipse fill="#fefff9" fill-opacity="0.615686" cx="186" cy="129" rx="42" ry="21" />
<ellipse fill="#3f423d" fill-opacity="0.670588" cx="149" cy="52" rx="34" ry="69" />
<ellipse fill="#090600" fill-opacity="0.525490" cx="217" cy="82" rx="23" ry="27" />
<ellipse fill="#dbddd2" fill-opacity="0.584314" cx="76" cy="131" rx="35" ry="20" />
<ellipse fill="#f9fef8" fill-opacity="0.388235" cx="0" cy="72" rx="28" ry="44" />
<ellipse fill="#000300" fill-opacity="0.392157" cx="25" cy="136" rx="18" ry="36" />
<ellipse fill="#11120a" fill-opacity="0.482353" cx="202" cy="18" rx="8" ry="50" />
<ellipse fill="#eef1e9" fill-opacity="0.686275" cx="153" cy="139" rx="30" ry="9" />
<ellipse fill="#2d2f28" fill-opacity="0.968627" cx="246" cy="90" rx="37" ry="9" />
<ellipse fill="#a2a9a3" fill-opacity="0.843137" cx="25" cy="10" rx="13" ry="47" />
<ellipse fill="#152225" fill-opacity="0.529412" cx="53" cy="19" rx="9" ry="25" />
<ellipse fill="#daded2" fill-opacity="0.498039" cx="58" cy="106" rx="12" ry="23" />
<ellipse fill="#b0b8ba" fill-opacity="0.482353" cx="94" cy="26" rx="17" ry="28" />
<ellipse fill="#4a504b" fill-opacity="0.815686" cx="37" cy="90" rx="8" ry="53" />
<ellipse fill="#e4e6dd" fill-opacity="0.666667" cx="215" cy="115" rx="22" ry="6" />
<ellipse fill="#4b524b" fill-opacity="0.580392" cx="248" cy="142" rx="34" ry="21" />
<ellipse fill="#312e1d" fill-opacity="0.501961" cx="95" cy="100" rx="7" ry="23" />
<ellipse fill="#d5d6cc" fill-opacity="0.647059" cx="110" cy="89" rx="4" ry="21" />
<ellipse fill="#d2d1c4" fill-opacity="0.458824" cx="215" cy="11" rx="6" ry="35" />
<ellipse fill="#868b84" fill-opacity="0.870588" cx="69" cy="65" rx="31" ry="26" />
<ellipse fill="#151917" fill-opacity="0.439216" cx="165" cy="0" rx="21" ry="22" />
<ellipse fill="#949385" fill-opacity="0.364706" cx="190" cy="72" rx="19" ry="25" />
<ellipse fill="#15170a" fill-opacity="0.466667" cx="55" cy="77" rx="10" ry="7" />
<ellipse fill="#1a2726" fill-opacity="0.423529" cx="2" cy="5" rx="9" ry="34" />
<ellipse fill="#6e7269" fill-opacity="0.858824" cx="130" cy="94" rx="16" ry="17" />
<ellipse fill="#b4b7b9" fill-opacity="0.682353" cx="133" cy="21" rx="26" ry="2" />
<ellipse fill="#232218" fill-opacity="0.643137" cx="214" cy="67" rx="8" ry="23" />
<ellipse fill="#ffffff" fill-opacity="0.478431" cx="235" cy="106" rx="8" ry="5" />
<ellipse fill="#c4c6bc" fill-opacity="0.666667" cx="104" cy="124" rx="7" ry="20" />
<ellipse fill="#bbc4c8" fill-opacity="0.517647" cx="117" cy="1" rx="14" ry="11" />
<ellipse fill="#fff2d3" fill-opacity="0.254902" cx="239" cy="57" rx="11" ry="16" />
<ellipse fill="#50544c" fill-opacity="0.815686" cx="255" cy="119" rx="21" ry="15" />
<ellipse fill="#242112" fill-opacity="0.356863" cx="103" cy="73" rx="5" ry="27" />
<ellipse fill="#0f0b00" fill-opacity="0.329412" cx="76" cy="105" rx="6" ry="14" />
<ellipse fill="#0b130b" fill-opacity="0.643137" cx="255" cy="0" rx="6" ry="16" />
<ellipse fill="#353c3a" fill-opacity="0.682353" cx="137" cy="123" rx="7" ry="9" />
<ellipse fill="#d7d9d1" fill-opacity="0.627451" cx="205" cy="121" rx="29" ry="11" />
<ellipse fill="#c1c4bc" fill-opacity="0.403922" cx="0" cy="96" rx="17" ry="35" />
<ellipse fill="#101413" fill-opacity="0.333333" cx="134" cy="42" rx="6" ry="37" />
<ellipse fill="#29261e" fill-opacity="1.000000" cx="255" cy="72" rx="1" ry="25" />
<ellipse fill="#444d4c" fill-opacity="0.854902" cx="43" cy="34" rx="4" ry="15" />
<ellipse fill="#1b1200" fill-opacity="0.305882" cx="117" cy="107" rx="6" ry="12" />
<ellipse fill="#c5c3b8" fill-opacity="0.529412" cx="155" cy="63" rx="14" ry="2" />
<ellipse fill="#0b181b" fill-opacity="0.415686" cx="77" cy="0" rx="9" ry="8" />
<ellipse fill="#afb5b3" fill-opacity="0.647059" cx="128" cy="113" rx="5" ry="9" />
<ellipse fill="#969689" fill-opacity="0.623529" cx="225" cy="21" rx="10" ry="33" />
<ellipse fill="#eff2ed" fill-opacity="0.509804" cx="94" cy="132" rx="14" ry="5" />
<ellipse fill="#95998f" fill-opacity="0.839216" cx="106" cy="124" rx="16" ry="5" />
<ellipse fill="#3a4038" fill-opacity="0.435294" cx="158" cy="93" rx="9" ry="28" />
<ellipse fill="#c7d1d8" fill-opacity="0.207843" cx="142" cy="21" rx="4" ry="25" />
<ellipse fill="#aaada3" fill-opacity="0.870588" cx="67" cy="139" rx="27" ry="8" />
<ellipse fill="#424237" fill-opacity="0.537255" cx="122" cy="78" rx="6" ry="33" />
<ellipse fill="#969c96" fill-opacity="0.964706" cx="34" cy="0" rx="11" ry="29" />
<ellipse fill="#a9ada5" fill-opacity="0.478431" cx="69" cy="62" rx="5" ry="36" />
<ellipse fill="#aaaea5" fill-opacity="0.568627" cx="186" cy="101" rx="7" ry="10" />
<ellipse fill="#303427" fill-opacity="0.270588" cx="74" cy="71" rx="8" ry="12" />
<ellipse fill="#484a3f" fill-opacity="0.623529" cx="214" cy="100" rx="22" ry="6" />
<ellipse fill="#010500" fill-opacity="0.207843" cx="13" cy="0" rx="28" ry="6" />
<ellipse fill="#faffff" fill-opacity="0.298039" cx="137" cy="103" rx="8" ry="4" />
<ellipse fill="#273230" fill-opacity="0.466667" cx="40" cy="84" rx="13" ry="6" />
<ellipse fill="#323127" fill-opacity="0.615686" cx="239" cy="87" rx="8" ry="14" />
<ellipse fill="#7c807c" fill-opacity="0.482353" cx="187" cy="45" rx="10" ry="53" />
<ellipse fill="#212c25" fill-opacity="0.380392" cx="18" cy="135" rx="12" ry="20" />
<ellipse fill="#353c39" fill-opacity="0.525490" cx="125" cy="127" rx="7" ry="5" />
<ellipse fill="#303129" fill-opacity="0.392157" cx="203" cy="52" rx="9" ry="17" />
<ellipse fill="#deded4" fill-opacity="0.623529" cx="107" cy="105" rx="3" ry="10" />
<ellipse fill="#e0e3da" fill-opacity="0.572549" cx="242" cy="103" rx="7" ry="3" />
<ellipse fill="#2d2c22" fill-opacity="0.768627" cx="225" cy="72" rx="5" ry="20" />
<ellipse fill="#d6dad6" fill-opacity="0.600000" cx="231" cy="112" rx="6" ry="8" />
<ellipse fill="#434747" fill-opacity="0.341176" cx="146" cy="35" rx="43" ry="14" />
<ellipse fill="#d2d7d3" fill-opacity="0.556863" cx="122" cy="120" rx="5" ry="4" />
<ellipse fill="#3e3b2c" fill-opacity="0.635294" cx="101" cy="95" rx="4" ry="14" />
<ellipse fill="#bcc1b9" fill-opacity="0.396078" cx="84" cy="101" rx="3" ry="26" />
<ellipse fill="#383f36" fill-opacity="0.615686" cx="255" cy="136" rx="8" ry="34" />
<ellipse fill="#dde0d8" fill-opacity="0.647059" cx="166" cy="142" rx="42" ry="13" />
<ellipse fill="#44493f" fill-opacity="0.427451" cx="92" cy="115" rx="5" ry="11" />
<ellipse fill="#c5bda8" fill-opacity="0.509804" cx="250" cy="70" rx="4" ry="12" />
<ellipse fill="#a1a7a2" fill-opacity="0.454902" cx="53" cy="60" rx="14" ry="12" />
<ellipse fill="#eaf0ed" fill-opacity="0.431373" cx="21" cy="31" rx="4" ry="8" />
<ellipse fill="#3a3e33" fill-opacity="0.427451" cx="61" cy="86" rx="2" ry="18" />
<ellipse fill="#707977" fill-opacity="0.607843" cx="62" cy="29" rx="5" ry="25" />
<ellipse fill="#87908c" fill-opacity="0.549020" cx="0" cy="40" rx="12" ry="16" />
<ellipse fill="#fffffb" fill-opacity="0.309804" cx="101" cy="118" rx="5" ry="8" />
<ellipse fill="#83867e" fill-opacity="0.466667" cx="238" cy="130" rx="12" ry="7" />
<ellipse fill="#353428" fill-opacity="0.501961" cx="111" cy="119" rx="4" ry="4" />
<ellipse fill="#cdd2ca" fill-opacity="0.592157" cx="81" cy="117" rx="5" ry="5" />
<ellipse fill="#eefbff" fill-opacity="0.266667" cx="131" cy="20" rx="16" ry="2" />
<ellipse fill="#c9ccc1" fill-opacity="0.568627" cx="49" cy="128" rx="5" ry="17" />
<ellipse fill="#0b0000" fill-opacity="0.188235" cx="230" cy="16" rx="17" ry="3" />
<ellipse fill="#4c5450" fill-opacity="0.454902" cx="35" cy="101" rx="13" ry="20" />
<ellipse fill="#353b37" fill-opacity="0.541176" cx="148" cy="112" rx="14" ry="8" />
<ellipse fill="#d4d9ce" fill-opacity="0.423529" cx="154" cy="126" rx="13" ry="7" />
<ellipse fill="#e7efe8" fill-opacity="0.160784" cx="64" cy="87" rx="18" ry="7" />
<ellipse fill="#c6c5bd" fill-opacity="0.447059" cx="248" cy="89" rx="10" ry="1" />
<ellipse fill="#71756d" fill-opacity="0.643137" cx="136" cy="83" rx="13" ry="8" />
<ellipse fill="#9ba4a1" fill-opacity="0.509804" cx="165" cy="113" rx="5" ry="5" />
<ellipse fill="#5e5c4e" fill-opacity="0.560784" cx="201" cy="81" rx="8" ry="28" />
<ellipse fill="#202827" fill-opacity="0.611765" cx="56" cy="0" rx="6" ry="11" />
<ellipse fill="#a0a7a8" fill-opacity="0.509804" cx="82" cy="23" rx="12" ry="10" />
</g>
</svg>