<svg xmlns="http://www.w3.org/2000/svg" version="1.1" width="225" height="256">
<rect x="0" y="0" width="225" height="256" fill="#f0f0f0" />
<g transform="scale(1.000000) translate(0.5 0.5)">
<ellipse fill="#5394b4" fill-opacity="0.321569" cx="50" cy="159" rx="197" ry="163" />
<ellipse fill="#5fa3ca" fill-opacity="0.309804" cx="119" cy="107" rx="67" ry="61" />
<ellipse fill="#e4eff5" fill-opacity="0.901961" cx="185" cy="30" rx="61" ry="36" />
<ellipse fill="#95bcd1" fill-opacity="0.666667" cx="108" cy="164" rx="27" ry="62" />
<ellipse fill="#dde0de" fill-opacity="0.584314" cx="34" cy="198" rx="50" ry="76" />
<ellipse fill="#dcdfde" fill-opacity="0.603922" cx="197" cy="210" rx="59" ry="75" />
<ellipse fill="#94bbd1" fill-opacity="0.615686" cx="102" cy="33" rx="19" ry="37" />
<ellipse fill="#404b4e" fill-opacity="0.596078" cx="20" cy="16" rx="19" ry="2" />
<ellipse fill="#a3c3d4" fill-opacity="0.800000" cx="214" cy="88" rx="78" ry="16" />
<ellipse fill="#10537b" fill-opacity="0.498039" cx="89" cy="137" rx="8" ry="8" />
<ellipse fill="#5a5148" fill-opacity="0.556863" cx="208" cy="101" rx="18" ry="2" />
<ellipse fill="#d2e7f3" fill-opacity="0.580392" cx="54" cy="44" rx="25" ry="25" />
<ellipse fill="#e0e8eb" fill-opacity="0.490196" cx="7" cy="98" rx="20" ry="42" />
<ellipse fill="#1f1e17" fill-opacity="0.482353" cx="135" cy="240" rx="8" ry="2" />
<ellipse fill="#d1dbde" fill-opacity="0.905882" cx="79" cy="255" rx="56" ry="27" />
<ellipse fill="#7a8385" fill-opacity="0.501961" cx="192" cy="75" rx="32" ry="2" />
<ellipse fill="#32322d" fill-opacity="0.513725" cx="33" cy="68" rx="12" ry="2" />
<ellipse fill="#7eaac4" fill-opacity="0.627451" cx="192" cy="117" rx="7" ry="9" />
<ellipse fill="#ffffff" fill-opacity="0.329412" cx="203" cy="104" rx="7" ry="16" />
<ellipse fill="#a5c7d9" fill-opacity="0.815686" cx="135" cy="69" rx="24" ry="21" />
<ellipse fill="#e3edf1" fill-opacity="0.823529" cx="195" cy="50" rx="37" ry="21" />
<ellipse fill="#3e2e1f" fill-opacity="0.376471" cx="159" cy="68" rx="7" ry="3" />
<ellipse fill="#5d615c" fill-opacity="0.466667" cx="155" cy="160" rx="11" ry="2" />
<ellipse fill="#79868a" fill-opacity="0.694118" cx="30" cy="92" rx="10" ry="2" />
<ellipse fill="#e3eef4" fill-opacity="0.862745" cx="131" cy="0" rx="14" ry="27" />
<ellipse fill="#fdffff" fill-opacity="0.529412" cx="208" cy="97" rx="15" ry="3" />
<ellipse fill="#616c6f" fill-opacity="0.482353" cx="117" cy="119" rx="6" ry="4" />
<ellipse fill="#a9c8da" fill-opacity="0.713725" cx="48" cy="0" rx="14" ry="26" />
<ellipse fill="#728690" fill-opacity="0.545098" cx="117" cy="190" rx="20" ry="2" />
<ellipse fill="#a1c6db" fill-opacity="0.972549" cx="90" cy="163" rx="15" ry="18" />
<ellipse fill="#606464" fill-opacity="0.478431" cx="224" cy="113" rx="12" ry="2" />
<ellipse fill="#a8cde1" fill-opacity="0.564706" cx="117" cy="137" rx="20" ry="16" />
<ellipse fill="#859aa3" fill-opacity="0.650980" cx="79" cy="21" rx="12" ry="2" />
<ellipse fill="#7f8483" fill-opacity="0.533333" cx="216" cy="58" rx="5" ry="2" />
<ellipse fill="#555c5c" fill-opacity="0.505882" cx="116" cy="163" rx="8" ry="2" />
<ellipse fill="#aacde1" fill-opacity="0.623529" cx="55" cy="102" rx="12" ry="31" />
<ellipse fill="#63737a" fill-opacity="0.513725" cx="17" cy="18" rx="19" ry="1" />
<ellipse fill="#adcee0" fill-opacity="0.513725" cx="152" cy="71" rx="101" ry="3" />
<ellipse fill="#cddce2" fill-opacity="0.623529" cx="23" cy="99" rx="37" ry="7" />
<ellipse fill="#51524a" fill-opacity="0.419608" cx="62" cy="53" rx="5" ry="2" />
<ellipse fill="#6a8998" fill-opacity="0.478431" cx="88" cy="141" rx="22" ry="2" />
<ellipse fill="#d6ddde" fill-opacity="0.643137" cx="89" cy="231" rx="11" ry="23" />
<ellipse fill="#373327" fill-opacity="0.262745" cx="206" cy="102" rx="14" ry="2" />
<ellipse fill="#d0e0e6" fill-opacity="0.666667" cx="94" cy="0" rx="13" ry="10" />
<ellipse fill="#d4e7f4" fill-opacity="0.635294" cx="15" cy="85" rx="37" ry="6" />
<ellipse fill="#809aa6" fill-opacity="0.517647" cx="16" cy="39" rx="9" ry="3" />
<ellipse fill="#7f939b" fill-opacity="0.501961" cx="107" cy="207" rx="19" ry="2" />
<ellipse fill="#b3d3e4" fill-opacity="0.741176" cx="21" cy="32" rx="30" ry="8" />
<ellipse fill="#7d959c" fill-opacity="0.419608" cx="102" cy="17" rx="10" ry="5" />
<ellipse fill="#fcffff" fill-opacity="0.627451" cx="198" cy="89" rx="5" ry="3" />
<ellipse fill="#e3e4e1" fill-opacity="0.552941" cx="66" cy="133" rx="6" ry="7" />
<ellipse fill="#5f6767" fill-opacity="0.478431" cx="104" cy="59" rx="9" ry="2" />
<ellipse fill="#a1c7db" fill-opacity="0.741176" cx="168" cy="107" rx="24" ry="29" />
<ellipse fill="#606f70" fill-opacity="0.470588" cx="151" cy="91" rx="6" ry="2" />
<ellipse fill="#a2c8dd" fill-opacity="0.717647" cx="86" cy="84" rx="23" ry="31" />
<ellipse fill="#626562" fill-opacity="0.517647" cx="134" cy="236" rx="4" ry="3" />
<ellipse fill="#d6ddde" fill-opacity="0.521569" cx="216" cy="140" rx="36" ry="17" />
<ellipse fill="#a2c6d9" fill-opacity="0.690196" cx="113" cy="110" rx="78" ry="8" />
<ellipse fill="#d1e4ef" fill-opacity="0.698039" cx="35" cy="58" rx="23" ry="8" />
<ellipse fill="#9dc5db" fill-opacity="0.666667" cx="109" cy="220" rx="9" ry="15" />
<ellipse fill="#1f1c15" fill-opacity="0.529412" cx="81" cy="153" rx="3" ry="1" />
<ellipse fill="#545d5f" fill-opacity="0.533333" cx="72" cy="123" rx="4" ry="2" />
<ellipse fill="#727b7c" fill-opacity="0.976471" cx="40" cy="91" rx="5" ry="1" />
<ellipse fill="#d2dbdc" fill-opacity="0.698039" cx="13" cy="124" rx="29" ry="26" />
<ellipse fill="#728991" fill-opacity="0.517647" cx="97" cy="76" rx="4" ry="4" />
<ellipse fill="#d4e6f1" fill-opacity="0.568627" cx="68" cy="32" rx="23" ry="6" />
<ellipse fill="#eaf1f5" fill-opacity="0.549020" cx="134" cy="35" rx="16" ry="7" />
<ellipse fill="#6b7d84" fill-opacity="0.490196" cx="114" cy="83" rx="6" ry="2" />
<ellipse fill="#d1dbde" fill-opacity="0.886275" cx="196" cy="255" rx="56" ry="57" />
<ellipse fill="#476473" fill-opacity="0.592157" cx="87" cy="133" rx="11" ry="2" />
<ellipse fill="#667176" fill-opacity="0.450980" cx="47" cy="5" rx="7" ry="2" />
<ellipse fill="#72868f" fill-opacity="0.525490" cx="181" cy="105" rx="7" ry="2" />
<ellipse fill="#ffe8d4" fill-opacity="0.247059" cx="135" cy="199" rx="5" ry="26" />
<ellipse fill="#88a0aa" fill-opacity="0.505882" cx="131" cy="76" rx="11" ry="3" />
<ellipse fill="#aed3e8" fill-opacity="0.505882" cx="18" cy="1" rx="19" ry="15" />
<ellipse fill="#a4cce3" fill-opacity="0.596078" cx="119" cy="167" rx="28" ry="4" />
<ellipse fill="#72868e" fill-opacity="0.556863" cx="97" cy="180" rx="15" ry="1" />
<ellipse fill="#758488" fill-opacity="0.509804" cx="143" cy="126" rx="18" ry="1" />
<ellipse fill="#b4d0df" fill-opacity="0.627451" cx="184" cy="74" rx="6" ry="4" />
<ellipse fill="#d2dbde" fill-opacity="0.588235" cx="74" cy="205" rx="15" ry="28" />
<ellipse fill="#0e0600" fill-opacity="0.450980" cx="85" cy="41" rx="4" ry="1" />
<ellipse fill="#8ca4ae" fill-opacity="0.549020" cx="119" cy="108" rx="11" ry="3" />
<ellipse fill="#667c86" fill-opacity="0.556863" cx="192" cy="120" rx="7" ry="2" />
<ellipse fill="#d3e7f4" fill-opacity="0.631373" cx="11" cy="74" rx="23" ry="6" />
<ellipse fill="#a5cde5" fill-opacity="0.556863" cx="122" cy="193" rx="5" ry="14" />
<ellipse fill="#8ca5af" fill-opacity="0.592157" cx="77" cy="79" rx="15" ry="2" />
<ellipse fill="#b8d5e5" fill-opacity="0.862745" cx="0" cy="11" rx="4" ry="48" />
<ellipse fill="#869ba2" fill-opacity="0.486275" cx="122" cy="175" rx="11" ry="3" />
<ellipse fill="#b6cfdd" fill-opacity="0.647059" cx="151" cy="62" rx="13" ry="4" />
<ellipse fill="#9fc5d9" fill-opacity="0.541176" cx="107" cy="49" rx="27" ry="8" />
<ellipse fill="#393830" fill-opacity="0.494118" cx="38" cy="77" rx="4" ry="1" />
<ellipse fill="#faffff" fill-opacity="0.388235" cx="206" cy="107" rx="10" ry="5" />
<ellipse fill="#95bfd5" fill-opacity="0.537255" cx="87" cy="17" rx="7" ry="9" />
<ellipse fill="#5d605c" fill-opacity="0.764706" cx="70" cy="142" rx="3" ry="1" />
<ellipse fill="#9ec3d7" fill-opacity="0.537255" cx="58" cy="119" rx="11" ry="14" />
<ellipse fill="#e7f2f7" fill-opacity="0.517647" cx="200" cy="63" rx="2" ry="18" />
<ellipse fill="#7d939d" fill-opacity="0.607843" cx="99" cy="114" rx="5" ry="2" />
<ellipse fill="#22231d" fill-opacity="0.462745" cx="134" cy="189" rx="3" ry="1" />
<ellipse fill="#a6cbe0" fill-opacity="0.568627" cx="105" cy="131" rx="5" ry="47" />
<ellipse fill="#bad4e3" fill-opacity="0.513725" cx="52" cy="0" rx="4" ry="46" />
</g>
</svg>