<svg xmlns="http://www.w3.org/2000/svg" version="1.1" width="256" height="153">
<rect x="0" y="0" width="256" height="153" fill="#f0f0f0" />
<g transform="scale(1.000000) translate(0.5 0.5)">
<ellipse fill="#21200b" fill-opacity="0.560784" cx="120" cy="86" rx="192" ry="136" />
<ellipse fill="#fff8ed" fill-opacity="0.470588" cx="126" cy="91" rx="60" ry="152" />
<ellipse fill="#0f1407" fill-opacity="0.533333" cx="225" cy="57" rx="40" ry="152" />
<ellipse fill="#313527" fill-opacity="0.615686" cx="31" cy="87" rx="37" ry="152" />
<ellipse fill="#473c1d" fill-opacity="0.392157" cx="124" cy="90" rx="6" ry="147" />
<ellipse fill="#eae5fa" fill-opacity="0.698039" cx="83" cy="10" rx="13" ry="42" />
<ellipse fill="#ffffea" fill-opacity="0.454902" cx="151" cy="132" rx="23" ry="37" />
<ellipse fill="#605e4f" fill-opacity="0.541176" cx="100" cy="25" rx="4" ry="152" />
<ellipse fill="#fbfcff" fill-opacity="0.411765" cx="111" cy="120" rx="9" ry="37" />
<ellipse fill="#dfdce3" fill-opacity="0.525490" cx="81" cy="133" rx="14" ry="47" />
<ellipse fill="#65614f" fill-opacity="0.588235" cx="81" cy="80" rx="56" ry="4" />
<ellipse fill="#a29e87" fill-opacity="0.466667" cx="149" cy="22" rx="36" ry="40" />
<ellipse fill="#737066" fill-opacity="0.576471" cx="94" cy="59" rx="44" ry="4" />
<ellipse fill="#fcefff" fill-opacity="0.419608" cx="110" cy="32" rx="8" ry="25" />
<ellipse fill="#34392d" fill-opacity="0.741176" cx="255" cy="3" rx="74" ry="43" />
<ellipse fill="#4a4b3e" fill-opacity="0.717647" cx="206" cy="113" rx="21" ry="99" />
<ellipse fill="#586165" fill-opacity="0.572549" cx="62" cy="35" rx="12" ry="16" />
<ellipse fill="#d5d3c1" fill-opacity="0.647059" cx="165" cy="138" rx="20" ry="33" />
<ellipse fill="#5b5743" fill-opacity="0.447059" cx="116" cy="0" rx="6" ry="15" />
<ellipse fill="#323f3a" fill-opacity="0.470588" cx="18" cy="0" rx="54" ry="27" />
<ellipse fill="#3c3d2f" fill-opacity="0.588235" cx="25" cy="112" rx="22" ry="24" />
<ellipse fill="#d7d2d4" fill-opacity="0.800000" cx="82" cy="68" rx="14" ry="7" />
<ellipse fill="#626458" fill-opacity="0.592157" cx="60" cy="98" rx="8" ry="146" />
<ellipse fill="#8a8268" fill-opacity="0.509804" cx="149" cy="70" rx="2" ry="43" />
<ellipse fill="#fffff4" fill-opacity="0.290196" cx="140" cy="140" rx="9" ry="56" />
<ellipse fill="#ada386" fill-opacity="0.509804" cx="134" cy="70" rx="8" ry="37" />
<ellipse fill="#4d4636" fill-opacity="0.533333" cx="125" cy="147" rx="2" ry="43" />
<ellipse fill="#beb9a5" fill-opacity="0.533333" cx="142" cy="0" rx="23" ry="33" />
<ellipse fill="#6c6b59" fill-opacity="0.443137" cx="182" cy="33" rx="5" ry="19" />
<ellipse fill="#5c5b4e" fill-opacity="0.458824" cx="66" cy="78" rx="33" ry="4" />
<ellipse fill="#242817" fill-opacity="0.439216" cx="252" cy="142" rx="13" ry="32" />
<ellipse fill="#e4deef" fill-opacity="0.505882" cx="93" cy="28" rx="4" ry="28" />
<ellipse fill="#928b6f" fill-opacity="0.525490" cx="168" cy="89" rx="3" ry="21" />
<ellipse fill="#868271" fill-opacity="0.705882" cx="100" cy="129" rx="4" ry="107" />
<ellipse fill="#6f6b63" fill-opacity="0.498039" cx="123" cy="37" rx="4" ry="28" />
<ellipse fill="#cdcbb0" fill-opacity="0.501961" cx="166" cy="64" rx="20" ry="9" />
<ellipse fill="#55564c" fill-opacity="0.376471" cx="218" cy="71" rx="33" ry="21" />
<ellipse fill="#ded6ec" fill-opacity="0.529412" cx="82" cy="47" rx="13" ry="8" />
<ellipse fill="#7b7661" fill-opacity="0.513725" cx="168" cy="37" rx="2" ry="17" />
<ellipse fill="#43473d" fill-opacity="0.647059" cx="208" cy="45" rx="26" ry="18" />
<ellipse fill="#787364" fill-opacity="0.678431" cx="111" cy="0" rx="8" ry="6" />
<ellipse fill="#40453b" fill-opacity="0.576471" cx="192" cy="18" rx="8" ry="32" />
<ellipse fill="#25271b" fill-opacity="0.435294" cx="255" cy="0" rx="31" ry="24" />
<ellipse fill="#f3f0fb" fill-opacity="0.403922" cx="107" cy="14" rx="5" ry="10" />
<ellipse fill="#d7d7ca" fill-opacity="1.000000" cx="163" cy="45" rx="1" ry="20" />
<ellipse fill="#dbd7db" fill-opacity="0.494118" cx="72" cy="103" rx="5" ry="18" />
<ellipse fill="#dad6e1" fill-opacity="0.325490" cx="84" cy="14" rx="15" ry="30" />
<ellipse fill="#747065" fill-opacity="0.501961" cx="118" cy="14" rx="4" ry="11" />
<ellipse fill="#ada78f" fill-opacity="0.396078" cx="154" cy="88" rx="6" ry="22" />
<ellipse fill="#d2d3c7" fill-opacity="0.419608" cx="155" cy="36" rx="4" ry="16" />
<ellipse fill="#cdcacb" fill-opacity="0.541176" cx="90" cy="110" rx="6" ry="27" />
<ellipse fill="#cecac9" fill-opacity="0.815686" cx="77" cy="148" rx="10" ry="66" />
<ellipse fill="#a4a291" fill-opacity="0.364706" cx="174" cy="26" rx="10" ry="35" />
<ellipse fill="#fff4ff" fill-opacity="0.254902" cx="111" cy="71" rx="9" ry="5" />
<ellipse fill="#343526" fill-opacity="0.545098" cx="219" cy="103" rx="11" ry="12" />
<ellipse fill="#4e5854" fill-opacity="0.337255" cx="53" cy="17" rx="16" ry="73" />
<ellipse fill="#3a3e33" fill-opacity="0.447059" cx="15" cy="6" rx="18" ry="36" />
<ellipse fill="#d0d1b3" fill-opacity="0.196078" cx="182" cy="94" rx="5" ry="65" />
<ellipse fill="#ada286" fill-opacity="0.537255" cx="129" cy="146" rx="2" ry="98" />
<ellipse fill="#eae8ce" fill-opacity="0.372549" cx="162" cy="93" rx="4" ry="18" />
<ellipse fill="#6e6552" fill-opacity="0.352941" cx="166" cy="67" rx="1" ry="42" />
<ellipse fill="#e0dbdb" fill-opacity="0.521569" cx="113" cy="97" rx="7" ry="12" />
<ellipse fill="#e1e0ce" fill-opacity="0.560784" cx="145" cy="101" rx="3" ry="28" />
<ellipse fill="#28291a" fill-opacity="0.352941" cx="13" cy="68" rx="2" ry="52" />
<ellipse fill="#605e4e" fill-opacity="0.270588" cx="28" cy="70" rx="41" ry="19" />
<ellipse fill="#c6c0a7" fill-opacity="0.623529" cx="149" cy="65" rx="20" ry="8" />
<ellipse fill="#aca991" fill-opacity="0.521569" cx="174" cy="84" rx="6" ry="16" />
<ellipse fill="#5b513a" fill-opacity="0.341176" cx="124" cy="152" rx="5" ry="25" />
<ellipse fill="#7f7a67" fill-opacity="0.533333" cx="179" cy="36" rx="2" ry="20" />
<ellipse fill="#8b8b84" fill-opacity="0.611765" cx="100" cy="10" rx="4" ry="47" />
<ellipse fill="#f9f7fd" fill-opacity="0.627451" cx="73" cy="9" rx="5" ry="3" />
<ellipse fill="#837b6c" fill-opacity="0.294118" cx="127" cy="47" rx="8" ry="24" />
<ellipse fill="#36392a" fill-opacity="0.474510" cx="23" cy="133" rx="4" ry="48" />
<ellipse fill="#9b9885" fill-opacity="0.403922" cx="164" cy="5" rx="13" ry="10" />
<ellipse fill="#a09d99" fill-opacity="0.345098" cx="87" cy="118" rx="1" ry="85" />
<ellipse fill="#504e42" fill-opacity="0.756863" cx="192" cy="152" rx="6" ry="117" />
<ellipse fill="#817a6c" fill-opacity="0.556863" cx="112" cy="60" rx="17" ry="4" />
<ellipse fill="#cdccca" fill-opacity="0.494118" cx="111" cy="148" rx="9" ry="12" />
<ellipse fill="#7a716b" fill-opacity="0.200000" cx="87" cy="99" rx="31" ry="2" />
<ellipse fill="#5c656b" fill-opacity="0.466667" cx="66" cy="29" rx="4" ry="33" />
<ellipse fill="#737166" fill-opacity="0.666667" cx="98" cy="27" rx="1" ry="127" />
<ellipse fill="#6a634c" fill-opacity="0.392157" cx="54" cy="151" rx="13" ry="33" />
<ellipse fill="#525c60" fill-opacity="0.458824" cx="64" cy="17" rx="10" ry="3" />
<ellipse fill="#736a6e" fill-opacity="0.207843" cx="80" cy="93" rx="17" ry="2" />
<ellipse fill="#817b67" fill-opacity="0.619608" cx="123" cy="90" rx="3" ry="55" />
<ellipse fill="#44483d" fill-opacity="0.545098" cx="213" cy="47" rx="31" ry="19" />
<ellipse fill="#75746d" fill-opacity="0.658824" cx="74" cy="57" rx="13" ry="3" />
<ellipse fill="#e7e5e7" fill-opacity="0.505882" cx="83" cy="90" rx="13" ry="3" />
<ellipse fill="#e1dfdf" fill-opacity="0.568627" cx="105" cy="109" rx="2" ry="26" />
<ellipse fill="#ffffff" fill-opacity="0.545098" cx="88" cy="96" rx="3" ry="3" />
<ellipse fill="#ffffff" fill-opacity="0.658824" cx="86" cy="149" rx="3" ry="3" />
<ellipse fill="#a4a098" fill-opacity="0.466667" cx="83" cy="139" rx="13" ry="2" />
<ellipse fill="#3b4239" fill-opacity="0.537255" cx="51" cy="52" rx="2" ry="62" />
<ellipse fill="#393d33" fill-opacity="0.568627" cx="216" cy="20" rx="33" ry="10" />
<ellipse fill="#a29aa0" fill-opacity="0.423529" cx="93" cy="46" rx="17" ry="2" />
<ellipse fill="#8c8674" fill-opacity="0.560784" cx="98" cy="79" rx="17" ry="4" />
<ellipse fill="#f7f3fa" fill-opacity="0.533333" cx="110" cy="25" rx="7" ry="3" />
<ellipse fill="#c5c5b8" fill-opacity="0.556863" cx="148" cy="116" rx="4" ry="9" />
<ellipse fill="#585648" fill-opacity="0.462745" cx="26" cy="124" rx="36" ry="5" />
<ellipse fill="#131807" fill-opacity="0.184314" cx="255" cy="30" rx="4" ry="141" />
</g>
</svg>