<svg xmlns="http://www.w3.org/2000/svg" version="1.1" width="256" height="143">
<rect x="0" y="0" width="256" height="143" fill="#f0f0f0" />
<g transform="scale(1.000000) translate(0.5 0.5)">
<ellipse fill="#2b2a22" fill-opacity="0.862745" cx="255" cy="110" rx="127" ry="119" />
<ellipse fill="#747167" fill-opacity="0.470588" cx="63" cy="19" rx="144" ry="139" />
<ellipse fill="#a3a6a6" fill-opacity="0.478431" cx="85" cy="17" rx="231" ry="29" />
<ellipse fill="#080500" fill-opacity="0.450980" cx="235" cy="92" rx="90" ry="59" />
<ellipse fill="#938e81" fill-opacity="1.000000" cx="137" cy="107" rx="9" ry="86" />
<ellipse fill="#d0d1d0" fill-opacity="0.584314" cx="111" cy="94" rx="21" ry="71" />
<ellipse fill="#2e2c25" fill-opacity="0.988235" cx="169" cy="67" rx="21" ry="23" />
<ellipse fill="#151410" fill-opacity="0.819608" cx="159" cy="125" rx="6" ry="78" />
<ellipse fill="#b6b5b5" fill-opacity="0.654902" cx="172" cy="13" rx="32" ry="14" />
<ellipse fill="#585b55" fill-opacity="0.894118" cx="237" cy="31" rx="36" ry="11" />
<ellipse fill="#181509" fill-opacity="0.333333" cx="134" cy="100" rx="3" ry="74" />
<ellipse fill="#38352d" fill-opacity="0.843137" cx="192" cy="117" rx="29" ry="66" />
<ellipse fill="#8a8572" fill-opacity="0.733333" cx="171" cy="35" rx="35" ry="10" />
<ellipse fill="#bdb7a9" fill-opacity="0.392157" cx="142" cy="74" rx="5" ry="69" />
<ellipse fill="#bbbfc5" fill-opacity="0.623529" cx="0" cy="27" rx="141" ry="9" />
<ellipse fill="#9c9583" fill-opacity="0.478431" cx="0" cy="0" rx="101" ry="17" />
<ellipse fill="#010200" fill-opacity="0.360784" cx="231" cy="79" rx="10" ry="39" />
<ellipse fill="#9f9e97" fill-opacity="0.584314" cx="0" cy="51" rx="97" ry="10" />
<ellipse fill="#453f33" fill-opacity="0.462745" cx="145" cy="31" rx="15" ry="3" />
<ellipse fill="#6c695a" fill-opacity="0.486275" cx="0" cy="83" rx="3" ry="21" />
<ellipse fill="#0a0b08" fill-opacity="0.396078" cx="226" cy="51" rx="80" ry="6" />
<ellipse fill="#57544b" fill-opacity="0.690196" cx="190" cy="28" rx="32" ry="2" />
<ellipse fill="#4d4e46" fill-opacity="0.701961" cx="149" cy="100" rx="4" ry="54" />
<ellipse fill="#ccc8bc" fill-opacity="0.337255" cx="81" cy="130" rx="50" ry="61" />
<ellipse fill="#979282" fill-opacity="0.584314" cx="173" cy="38" rx="34" ry="7" />
<ellipse fill="#3b372b" fill-opacity="0.447059" cx="118" cy="22" rx="4" ry="5" />
<ellipse fill="#808b97" fill-opacity="0.678431" cx="205" cy="0" rx="10" ry="24" />
<ellipse fill="#b0a99e" fill-opacity="0.619608" cx="92" cy="72" rx="4" ry="37" />
<ellipse fill="#171a14" fill-opacity="0.486275" cx="238" cy="128" rx="20" ry="33" />
<ellipse fill="#bfc1c5" fill-opacity="0.486275" cx="79" cy="22" rx="35" ry="12" />
<ellipse fill="#b7b6b5" fill-opacity="0.482353" cx="157" cy="14" rx="37" ry="14" />
<ellipse fill="#c2c1bd" fill-opacity="0.694118" cx="128" cy="44" rx="3" ry="116" />
<ellipse fill="#2d2318" fill-opacity="0.247059" cx="135" cy="40" rx="5" ry="11" />
<ellipse fill="#33362f" fill-opacity="0.509804" cx="220" cy="12" rx="5" ry="6" />
<ellipse fill="#9e9d95" fill-opacity="0.988235" cx="0" cy="62" rx="12" ry="9" />
<ellipse fill="#5e5b4d" fill-opacity="0.470588" cx="171" cy="45" rx="34" ry="2" />
<ellipse fill="#8c897e" fill-opacity="0.419608" cx="65" cy="40" rx="30" ry="3" />
<ellipse fill="#c2c2c2" fill-opacity="0.513725" cx="71" cy="45" rx="27" ry="4" />
<ellipse fill="#d5d7dc" fill-opacity="0.494118" cx="102" cy="96" rx="4" ry="57" />
<ellipse fill="#6d8395" fill-opacity="0.415686" cx="239" cy="0" rx="19" ry="22" />
<ellipse fill="#635e50" fill-opacity="0.419608" cx="133" cy="123" rx="3" ry="47" />
<ellipse fill="#bab9af" fill-opacity="0.498039" cx="143" cy="84" rx="3" ry="37" />
<ellipse fill="#b6b2a7" fill-opacity="0.427451" cx="57" cy="105" rx="26" ry="32" />
<ellipse fill="#bec1c5" fill-opacity="0.513725" cx="33" cy="49" rx="25" ry="3" />
<ellipse fill="#928874" fill-opacity="0.435294" cx="137" cy="105" rx="3" ry="50" />
<ellipse fill="#5c605a" fill-opacity="0.462745" cx="228" cy="32" rx="20" ry="12" />
<ellipse fill="#291710" fill-opacity="0.454902" cx="189" cy="110" rx="29" ry="4" />
<ellipse fill="#bbbcc0" fill-opacity="0.658824" cx="116" cy="8" rx="11" ry="8" />
<ellipse fill="#464338" fill-opacity="0.541176" cx="209" cy="26" rx="20" ry="2" />
<ellipse fill="#22251f" fill-opacity="0.541176" cx="248" cy="91" rx="16" ry="52" />
<ellipse fill="#645e50" fill-opacity="0.498039" cx="0" cy="3" rx="3" ry="6" />
<ellipse fill="#9c998f" fill-opacity="0.501961" cx="90" cy="36" rx="13" ry="4" />
<ellipse fill="#606560" fill-opacity="0.180392" cx="15" cy="43" rx="45" ry="3" />
<ellipse fill="#36332c" fill-opacity="0.545098" cx="210" cy="87" rx="7" ry="55" />
<ellipse fill="#3a3a33" fill-opacity="0.576471" cx="161" cy="47" rx="18" ry="2" />
<ellipse fill="#b5bac2" fill-opacity="0.584314" cx="12" cy="31" rx="47" ry="9" />
<ellipse fill="#cfcfce" fill-opacity="0.407843" cx="62" cy="140" rx="45" ry="3" />
<ellipse fill="#87765c" fill-opacity="0.349020" cx="140" cy="0" rx="13" ry="3" />
<ellipse fill="#d3d7db" fill-opacity="0.474510" cx="85" cy="85" rx="3" ry="19" />
<ellipse fill="#9d9684" fill-opacity="0.447059" cx="157" cy="40" rx="19" ry="6" />
<ellipse fill="#12100b" fill-opacity="0.364706" cx="239" cy="54" rx="31" ry="11" />
<ellipse fill="#ced0d2" fill-opacity="0.478431" cx="100" cy="123" rx="15" ry="13" />
<ellipse fill="#b4afa5" fill-opacity="1.000000" cx="94" cy="118" rx="1" ry="18" />
<ellipse fill="#0d0600" fill-opacity="0.301961" cx="227" cy="119" rx="4" ry="87" />
<ellipse fill="#3a372f" fill-opacity="0.462745" cx="185" cy="80" rx="24" ry="27" />
<ellipse fill="#bebfc1" fill-opacity="0.615686" cx="118" cy="40" rx="12" ry="16" />
<ellipse fill="#bebdb5" fill-opacity="0.619608" cx="24" cy="131" rx="10" ry="45" />
<ellipse fill="#aaa9a7" fill-opacity="0.450980" cx="181" cy="4" rx="19" ry="22" />
<ellipse fill="#c3c4c5" fill-opacity="0.364706" cx="126" cy="56" rx="6" ry="30" />
<ellipse fill="#c2c7c7" fill-opacity="0.501961" cx="7" cy="87" rx="4" ry="20" />
<ellipse fill="#b3aa9b" fill-opacity="0.305882" cx="142" cy="136" rx="5" ry="40" />
<ellipse fill="#45463d" fill-opacity="0.521569" cx="247" cy="23" rx="12" ry="3" />
<ellipse fill="#44453e" fill-opacity="0.760784" cx="151" cy="113" rx="3" ry="68" />
<ellipse fill="#c6c4c0" fill-opacity="0.501961" cx="57" cy="64" rx="27" ry="4" />
<ellipse fill="#877b6c" fill-opacity="0.392157" cx="45" cy="0" rx="12" ry="4" />
<ellipse fill="#92856f" fill-opacity="0.294118" cx="78" cy="50" rx="19" ry="3" />
<ellipse fill="#a9a495" fill-opacity="0.501961" cx="43" cy="116" rx="3" ry="20" />
<ellipse fill="#8f8879" fill-opacity="0.592157" cx="0" cy="6" rx="27" ry="2" />
<ellipse fill="#46453f" fill-opacity="0.509804" cx="134" cy="81" rx="1" ry="52" />
<ellipse fill="#5a564c" fill-opacity="0.580392" cx="152" cy="30" rx="14" ry="2" />
<ellipse fill="#b7b7b6" fill-opacity="0.482353" cx="141" cy="19" rx="18" ry="11" />
<ellipse fill="#a99f8c" fill-opacity="0.427451" cx="80" cy="117" rx="8" ry="6" />
<ellipse fill="#3b3c35" fill-opacity="0.490196" cx="200" cy="137" rx="19" ry="24" />
<ellipse fill="#797466" fill-opacity="0.678431" cx="137" cy="121" rx="1" ry="89" />
<ellipse fill="#868d91" fill-opacity="0.368627" cx="219" cy="21" rx="24" ry="2" />
<ellipse fill="#0f1210" fill-opacity="0.643137" cx="155" cy="82" rx="2" ry="37" />
<ellipse fill="#939085" fill-opacity="0.643137" cx="0" cy="95" rx="5" ry="6" />
<ellipse fill="#312c23" fill-opacity="0.701961" cx="193" cy="56" rx="28" ry="4" />
<ellipse fill="#837f6d" fill-opacity="0.482353" cx="201" cy="41" rx="6" ry="3" />
<ellipse fill="#141412" fill-opacity="0.498039" cx="188" cy="50" rx="37" ry="3" />
<ellipse fill="#a7a597" fill-opacity="0.517647" cx="12" cy="111" rx="5" ry="11" />
<ellipse fill="#cccdce" fill-opacity="0.498039" cx="77" cy="75" rx="14" ry="4" />
<ellipse fill="#9ca09e" fill-opacity="0.286275" cx="0" cy="18" rx="25" ry="11" />
<ellipse fill="#a0927d" fill-opacity="0.470588" cx="99" cy="4" rx="7" ry="4" />
<ellipse fill="#a09d92" fill-opacity="0.478431" cx="40" cy="55" rx="28" ry="5" />
<ellipse fill="#d4d6d7" fill-opacity="0.439216" cx="89" cy="127" rx="18" ry="3" />
<ellipse fill="#656a65" fill-opacity="0.415686" cx="229" cy="33" rx="20" ry="7" />
<ellipse fill="#8f8d81" fill-opacity="0.458824" cx="195" cy="30" rx="15" ry="2" />
<ellipse fill="#908a7b" fill-opacity="0.670588" cx="158" cy="35" rx="22" ry="4" />
<ellipse fill="#b9b6a7" fill-opacity="0.450980" cx="120" cy="142" rx="8" ry="13" />
</g>
</svg>