<svg xmlns="http://www.w3.org/2000/svg" version="1.1" width="256" height="143">
<rect x="0" y="0" width="256" height="143" fill="#f0f0f0" />
<g transform="scale(1.000000) translate(0.5 0.5)">
<ellipse fill="#1f2103" fill-opacity="0.435294" cx="121" cy="94" rx="183" ry="142" />
<ellipse fill="#202106" fill-opacity="0.596078" cx="226" cy="117" rx="60" ry="39" />
<ellipse fill="#dbe3e4" fill-opacity="0.486275" cx="122" cy="35" rx="97" ry="56" />
<ellipse fill="#262604" fill-opacity="0.639216" cx="38" cy="103" rx="57" ry="13" />
<ellipse fill="#55431b" fill-opacity="0.396078" cx="107" cy="142" rx="110" ry="20" />
<ellipse fill="#aca28a" fill-opacity="0.976471" cx="153" cy="86" rx="33" ry="27" />
<ellipse fill="#c8d4d9" fill-opacity="0.611765" cx="149" cy="20" rx="70" ry="37" />
<ellipse fill="#1d2500" fill-opacity="0.623529" cx="198" cy="92" rx="11" ry="21" />
<ellipse fill="#7b653d" fill-opacity="0.627451" cx="75" cy="56" rx="4" ry="35" />
<ellipse fill="#bac2c5" fill-opacity="0.501961" cx="243" cy="33" rx="15" ry="43" />
<ellipse fill="#bbb6a4" fill-opacity="0.886275" cx="211" cy="66" rx="6" ry="22" />
<ellipse fill="#1e2200" fill-opacity="0.584314" cx="42" cy="119" rx="3" ry="34" />
<ellipse fill="#5b4e38" fill-opacity="0.564706" cx="222" cy="58" rx="5" ry="40" />
<ellipse fill="#9da9af" fill-opacity="0.623529" cx="35" cy="31" rx="26" ry="57" />
<ellipse fill="#897a5d" fill-opacity="0.454902" cx="102" cy="119" rx="28" ry="39" />
<ellipse fill="#555022" fill-opacity="1.000000" cx="17" cy="142" rx="27" ry="6" />
<ellipse fill="#d5bc8c" fill-opacity="0.490196" cx="67" cy="120" rx="23" ry="8" />
<ellipse fill="#fae5ba" fill-opacity="0.592157" cx="79" cy="85" rx="6" ry="11" />
<ellipse fill="#6a5436" fill-opacity="0.517647" cx="204" cy="59" rx="4" ry="13" />
<ellipse fill="#303410" fill-opacity="0.639216" cx="77" cy="119" rx="3" ry="15" />
<ellipse fill="#d4dede" fill-opacity="0.415686" cx="181" cy="72" rx="6" ry="33" />
<ellipse fill="#563b0e" fill-opacity="0.333333" cx="142" cy="59" rx="6" ry="11" />
<ellipse fill="#725f42" fill-opacity="0.545098" cx="96" cy="69" rx="3" ry="21" />
<ellipse fill="#4e4d3e" fill-opacity="0.776471" cx="242" cy="102" rx="15" ry="28" />
<ellipse fill="#b1bbc0" fill-opacity="0.666667" cx="203" cy="0" rx="32" ry="26" />
<ellipse fill="#48482c" fill-opacity="0.611765" cx="171" cy="115" rx="8" ry="12" />
<ellipse fill="#232c06" fill-opacity="0.662745" cx="206" cy="142" rx="6" ry="42" />
<ellipse fill="#837b6c" fill-opacity="0.850980" cx="140" cy="142" rx="38" ry="27" />
<ellipse fill="#c2a87d" fill-opacity="0.533333" cx="26" cy="125" rx="14" ry="12" />
<ellipse fill="#cac5b2" fill-opacity="0.564706" cx="128" cy="92" rx="13" ry="12" />
<ellipse fill="#404029" fill-opacity="0.521569" cx="96" cy="110" rx="22" ry="3" />
<ellipse fill="#4b4c35" fill-opacity="0.576471" cx="47" cy="93" rx="27" ry="6" />
<ellipse fill="#897658" fill-opacity="0.607843" cx="127" cy="67" rx="5" ry="10" />
<ellipse fill="#764b0d" fill-opacity="0.376471" cx="78" cy="38" rx="6" ry="11" />
<ellipse fill="#7b7071" fill-opacity="0.372549" cx="224" cy="126" rx="14" ry="18" />
<ellipse fill="#fff3c5" fill-opacity="0.623529" cx="157" cy="54" rx="9" ry="8" />
<ellipse fill="#d5e0e1" fill-opacity="0.482353" cx="113" cy="54" rx="10" ry="28" />
<ellipse fill="#897a5f" fill-opacity="0.686275" cx="169" cy="69" rx="6" ry="11" />
<ellipse fill="#574c39" fill-opacity="0.309804" cx="157" cy="106" rx="74" ry="3" />
<ellipse fill="#e8d5ae" fill-opacity="0.454902" cx="94" cy="97" rx="10" ry="5" />
<ellipse fill="#bfbaa6" fill-opacity="0.509804" cx="237" cy="60" rx="15" ry="15" />
<ellipse fill="#343500" fill-opacity="0.298039" cx="46" cy="135" rx="27" ry="4" />
<ellipse fill="#292a07" fill-opacity="0.521569" cx="92" cy="115" rx="2" ry="15" />
<ellipse fill="#b0b6b3" fill-opacity="0.607843" cx="52" cy="72" rx="20" ry="14" />
<ellipse fill="#6c6f6c" fill-opacity="0.568627" cx="0" cy="91" rx="40" ry="4" />
<ellipse fill="#383b23" fill-opacity="0.807843" cx="0" cy="108" rx="27" ry="7" />
<ellipse fill="#ffe195" fill-opacity="0.466667" cx="80" cy="58" rx="5" ry="12" />
<ellipse fill="#8fa8bc" fill-opacity="0.262745" cx="73" cy="0" rx="45" ry="24" />
<ellipse fill="#504e3a" fill-opacity="0.356863" cx="113" cy="108" rx="4" ry="26" />
<ellipse fill="#6b4923" fill-opacity="0.466667" cx="77" cy="72" rx="9" ry="3" />
<ellipse fill="#786649" fill-opacity="0.498039" cx="151" cy="83" rx="7" ry="7" />
<ellipse fill="#fcf0ce" fill-opacity="0.466667" cx="163" cy="93" rx="4" ry="10" />
<ellipse fill="#765b31" fill-opacity="0.364706" cx="224" cy="38" rx="8" ry="15" />
<ellipse fill="#bbb198" fill-opacity="0.839216" cx="175" cy="76" rx="2" ry="28" />
<ellipse fill="#bdbdb6" fill-opacity="0.603922" cx="214" cy="80" rx="5" ry="6" />
<ellipse fill="#323820" fill-opacity="0.686275" cx="194" cy="82" rx="6" ry="11" />
<ellipse fill="#cdd0c9" fill-opacity="0.419608" cx="183" cy="84" rx="2" ry="31" />
<ellipse fill="#c9b490" fill-opacity="0.549020" cx="51" cy="122" rx="7" ry="9" />
<ellipse fill="#363c1d" fill-opacity="0.984314" cx="190" cy="130" rx="3" ry="45" />
<ellipse fill="#85919b" fill-opacity="0.439216" cx="0" cy="30" rx="21" ry="68" />
<ellipse fill="#7e7059" fill-opacity="0.470588" cx="131" cy="92" rx="2" ry="29" />
<ellipse fill="#cad4d4" fill-opacity="0.721569" cx="143" cy="31" rx="42" ry="15" />
<ellipse fill="#decdaa" fill-opacity="0.498039" cx="84" cy="118" rx="6" ry="6" />
<ellipse fill="#f2dbb0" fill-opacity="0.290196" cx="140" cy="93" rx="5" ry="27" />
<ellipse fill="#424734" fill-opacity="0.533333" cx="236" cy="95" rx="29" ry="17" />
<ellipse fill="#d1d7d4" fill-opacity="0.301961" cx="120" cy="91" rx="4" ry="29" />
<ellipse fill="#a08a63" fill-opacity="0.400000" cx="149" cy="65" rx="2" ry="37" />
<ellipse fill="#90846f" fill-opacity="0.537255" cx="240" cy="114" rx="28" ry="2" />
<ellipse fill="#9592a6" fill-opacity="0.400000" cx="199" cy="130" rx="4" ry="6" />
<ellipse fill="#777267" fill-opacity="0.509804" cx="162" cy="142" rx="29" ry="8" />
<ellipse fill="#827258" fill-opacity="0.505882" cx="153" cy="66" rx="17" ry="5" />
<ellipse fill="#8c7e67" fill-opacity="0.470588" cx="138" cy="107" rx="44" ry="4" />
<ellipse fill="#353a16" fill-opacity="0.564706" cx="201" cy="91" rx="8" ry="20" />
<ellipse fill="#74634e" fill-opacity="0.584314" cx="173" cy="61" rx="2" ry="9" />
<ellipse fill="#9e8059" fill-opacity="0.427451" cx="0" cy="127" rx="16" ry="14" />
<ellipse fill="#32391c" fill-opacity="0.525490" cx="196" cy="91" rx="12" ry="8" />
<ellipse fill="#d2d2c4" fill-opacity="0.513725" cx="111" cy="70" rx="15" ry="9" />
<ellipse fill="#d5dad8" fill-opacity="0.435294" cx="188" cy="67" rx="2" ry="22" />
<ellipse fill="#59563c" fill-opacity="0.509804" cx="128" cy="117" rx="6" ry="7" />
<ellipse fill="#393b05" fill-opacity="0.505882" cx="43" cy="111" rx="3" ry="28" />
<ellipse fill="#968e7d" fill-opacity="0.517647" cx="120" cy="133" rx="17" ry="10" />
<ellipse fill="#ffe8b9" fill-opacity="0.470588" cx="97" cy="118" rx="4" ry="5" />
<ellipse fill="#eddebc" fill-opacity="0.450980" cx="149" cy="74" rx="13" ry="3" />
<ellipse fill="#afb1ac" fill-opacity="0.427451" cx="255" cy="72" rx="6" ry="14" />
<ellipse fill="#c1ae90" fill-opacity="0.466667" cx="155" cy="112" rx="9" ry="7" />
<ellipse fill="#dcc794" fill-opacity="0.470588" cx="149" cy="53" rx="7" ry="9" />
<ellipse fill="#a5aba7" fill-opacity="0.584314" cx="35" cy="60" rx="11" ry="31" />
<ellipse fill="#c2cbcc" fill-opacity="0.580392" cx="89" cy="49" rx="5" ry="41" />
<ellipse fill="#b9a883" fill-opacity="0.439216" cx="20" cy="118" rx="20" ry="5" />
<ellipse fill="#e8d0a1" fill-opacity="0.666667" cx="229" cy="58" rx="2" ry="13" />
<ellipse fill="#a37a40" fill-opacity="0.447059" cx="99" cy="57" rx="3" ry="9" />
<ellipse fill="#d5d7cb" fill-opacity="0.305882" cx="195" cy="68" rx="24" ry="5" />
<ellipse fill="#584636" fill-opacity="0.439216" cx="225" cy="72" rx="10" ry="3" />
<ellipse fill="#675a50" fill-opacity="0.501961" cx="175" cy="58" rx="2" ry="6" />
<ellipse fill="#3f4125" fill-opacity="0.466667" cx="40" cy="102" rx="42" ry="10" />
<ellipse fill="#6a5a56" fill-opacity="0.549020" cx="124" cy="58" rx="3" ry="5" />
<ellipse fill="#b5bdbf" fill-opacity="0.505882" cx="60" cy="51" rx="11" ry="36" />
<ellipse fill="#514f00" fill-opacity="0.588235" cx="64" cy="133" rx="8" ry="3" />
<ellipse fill="#857c73" fill-opacity="0.486275" cx="86" cy="140" rx="30" ry="8" />
<ellipse fill="#646359" fill-opacity="0.470588" cx="72" cy="77" rx="2" ry="16" />
</g>
</svg>