<svg xmlns="http://www.w3.org/2000/svg" version="1.1" width="256" height="143">
<rect x="0" y="0" width="256" height="143" fill="#f0f0f0" />
<g transform="scale(1.000000) translate(0.5 0.5)">
<ellipse fill="#1b180b" fill-opacity="0.431373" cx="145" cy="87" rx="186" ry="142" />
<ellipse fill="#2a3137" fill-opacity="0.756863" cx="245" cy="21" rx="25" ry="133" />
<ellipse fill="#c9c6bf" fill-opacity="0.682353" cx="170" cy="67" rx="25" ry="142" />
<ellipse fill="#0f0a03" fill-opacity="0.592157" cx="134" cy="95" rx="12" ry="27" />
<ellipse fill="#c2c1b9" fill-opacity="0.458824" cx="24" cy="80" rx="41" ry="88" />
<ellipse fill="#342b21" fill-opacity="0.576471" cx="101" cy="142" rx="53" ry="10" />
<ellipse fill="#e2e2e0" fill-opacity="0.501961" cx="162" cy="55" rx="61" ry="13" />
<ellipse fill="#4f4634" fill-opacity="0.482353" cx="23" cy="82" rx="6" ry="42" />
<ellipse fill="#4e4339" fill-opacity="0.694118" cx="180" cy="109" rx="151" ry="2" />
<ellipse fill="#363125" fill-opacity="0.305882" cx="72" cy="22" rx="7" ry="142" />
<ellipse fill="#f1efe9" fill-opacity="0.407843" cx="112" cy="81" rx="7" ry="43" />
<ellipse fill="#fffff5" fill-opacity="0.254902" cx="85" cy="1" rx="7" ry="128" />
<ellipse fill="#756b63" fill-opacity="0.686275" cx="211" cy="72" rx="3" ry="106" />
<ellipse fill="#26201b" fill-opacity="0.733333" cx="53" cy="71" rx="1" ry="98" />
<ellipse fill="#342821" fill-opacity="0.482353" cx="122" cy="30" rx="2" ry="64" />
<ellipse fill="#5d544d" fill-opacity="0.580392" cx="159" cy="127" rx="43" ry="2" />
<ellipse fill="#4a4335" fill-opacity="0.623529" cx="198" cy="93" rx="29" ry="2" />
<ellipse fill="#f4fbff" fill-opacity="0.219608" cx="41" cy="84" rx="11" ry="51" />
<ellipse fill="#ede2d1" fill-opacity="0.235294" cx="203" cy="134" rx="9" ry="132" />
<ellipse fill="#d7d7d3" fill-opacity="0.541176" cx="8" cy="66" rx="7" ry="41" />
<ellipse fill="#382e27" fill-opacity="0.352941" cx="98" cy="75" rx="64" ry="3" />
<ellipse fill="#3c3529" fill-opacity="0.466667" cx="124" cy="15" rx="14" ry="7" />
<ellipse fill="#463530" fill-opacity="0.258824" cx="189" cy="71" rx="70" ry="4" />
<ellipse fill="#50473f" fill-opacity="0.552941" cx="59" cy="108" rx="101" ry="2" />
<ellipse fill="#ffffff" fill-opacity="0.278431" cx="154" cy="84" rx="8" ry="42" />
<ellipse fill="#545a5f" fill-opacity="0.772549" cx="230" cy="118" rx="5" ry="95" />
<ellipse fill="#1b1609" fill-opacity="0.196078" cx="105" cy="37" rx="9" ry="20" />
<ellipse fill="#473d35" fill-opacity="0.411765" cx="39" cy="78" rx="36" ry="3" />
<ellipse fill="#ffffff" fill-opacity="0.231373" cx="217" cy="79" rx="3" ry="117" />
<ellipse fill="#544e44" fill-opacity="0.533333" cx="143" cy="66" rx="2" ry="70" />
<ellipse fill="#dbd9d0" fill-opacity="0.486275" cx="139" cy="25" rx="16" ry="7" />
<ellipse fill="#fffffa" fill-opacity="0.145098" cx="62" cy="134" rx="8" ry="119" />
<ellipse fill="#4c3f33" fill-opacity="0.266667" cx="79" cy="44" rx="29" ry="6" />
<ellipse fill="#292a28" fill-opacity="0.560784" cx="240" cy="32" rx="8" ry="34" />
<ellipse fill="#cbcbc7" fill-opacity="0.588235" cx="24" cy="36" rx="28" ry="9" />
<ellipse fill="#060000" fill-opacity="0.313725" cx="24" cy="0" rx="2" ry="64" />
<ellipse fill="#74716a" fill-opacity="0.474510" cx="16" cy="141" rx="51" ry="8" />
<ellipse fill="#4c423b" fill-opacity="0.843137" cx="88" cy="125" rx="35" ry="1" />
<ellipse fill="#c5c6c5" fill-opacity="0.850980" cx="102" cy="8" rx="14" ry="4" />
<ellipse fill="#48443b" fill-opacity="0.835294" cx="24" cy="133" rx="1" ry="110" />
<ellipse fill="#423e36" fill-opacity="0.529412" cx="124" cy="130" rx="3" ry="64" />
<ellipse fill="#aaa69f" fill-opacity="0.549020" cx="193" cy="31" rx="15" ry="37" />
<ellipse fill="#090000" fill-opacity="0.325490" cx="52" cy="44" rx="1" ry="130" />
<ellipse fill="#f3f4ee" fill-opacity="0.149020" cx="113" cy="85" rx="10" ry="50" />
<ellipse fill="#d5d6d7" fill-opacity="0.588235" cx="165" cy="17" rx="15" ry="11" />
<ellipse fill="#cccabe" fill-opacity="0.552941" cx="92" cy="142" rx="14" ry="2" />
<ellipse fill="#7c7870" fill-opacity="0.737255" cx="10" cy="50" rx="21" ry="3" />
<ellipse fill="#584c45" fill-opacity="0.870588" cx="94" cy="124" rx="28" ry="1" />
<ellipse fill="#474543" fill-opacity="0.749020" cx="238" cy="67" rx="35" ry="2" />
<ellipse fill="#e9e2d7" fill-opacity="0.266667" cx="83" cy="73" rx="5" ry="55" />
<ellipse fill="#f6f7f3" fill-opacity="0.345098" cx="168" cy="81" rx="18" ry="7" />
<ellipse fill="#2d1e13" fill-opacity="0.372549" cx="86" cy="5" rx="14" ry="2" />
<ellipse fill="#f6f7f5" fill-opacity="0.419608" cx="133" cy="52" rx="10" ry="10" />
<ellipse fill="#d7d7d8" fill-opacity="0.552941" cx="151" cy="1" rx="21" ry="5" />
<ellipse fill="#3f4247" fill-opacity="0.419608" cx="228" cy="26" rx="31" ry="4" />
<ellipse fill="#251f21" fill-opacity="0.294118" cx="154" cy="39" rx="21" ry="2" />
<ellipse fill="#34342f" fill-opacity="0.400000" cx="205" cy="94" rx="35" ry="2" />
<ellipse fill="#c7c5c2" fill-opacity="0.698039" cx="93" cy="18" rx="6" ry="13" />
<ellipse fill="#44433d" fill-opacity="0.243137" cx="203" cy="110" rx="45" ry="4" />
<ellipse fill="#e8eae6" fill-opacity="0.498039" cx="147" cy="36" rx="16" ry="3" />
<ellipse fill="#423c39" fill-opacity="0.501961" cx="188" cy="2" rx="11" ry="2" />
<ellipse fill="#fffff2" fill-opacity="0.290196" cx="222" cy="136" rx="3" ry="27" />
<ellipse fill="#413a3b" fill-opacity="0.454902" cx="184" cy="37" rx="13" ry="2" />
<ellipse fill="#000005" fill-opacity="0.333333" cx="150" cy="7" rx="13" ry="2" />
<ellipse fill="#d3d8dc" fill-opacity="0.470588" cx="214" cy="0" rx="4" ry="22" />
<ellipse fill="#6e6d61" fill-opacity="0.301961" cx="94" cy="93" rx="6" ry="65" />
<ellipse fill="#372d26" fill-opacity="0.572549" cx="104" cy="137" rx="41" ry="3" />
<ellipse fill="#4f4d43" fill-opacity="0.529412" cx="73" cy="142" rx="7" ry="31" />
<ellipse fill="#bbb9ab" fill-opacity="0.529412" cx="115" cy="129" rx="30" ry="3" />
<ellipse fill="#1a100a" fill-opacity="0.505882" cx="155" cy="74" rx="15" ry="1" />
<ellipse fill="#c5c5b5" fill-opacity="0.415686" cx="0" cy="117" rx="27" ry="9" />
<ellipse fill="#241910" fill-opacity="0.431373" cx="53" cy="12" rx="8" ry="2" />
<ellipse fill="#bfbeb2" fill-opacity="0.686275" cx="189" cy="121" rx="24" ry="6" />
<ellipse fill="#b2afa2" fill-opacity="0.835294" cx="182" cy="142" rx="31" ry="14" />
<ellipse fill="#14110a" fill-opacity="0.447059" cx="143" cy="19" rx="1" ry="27" />
<ellipse fill="#47403b" fill-opacity="0.984314" cx="204" cy="35" rx="8" ry="1" />
<ellipse fill="#5d5a5c" fill-opacity="0.615686" cx="171" cy="4" rx="9" ry="2" />
<ellipse fill="#332c28" fill-opacity="0.745098" cx="121" cy="73" rx="24" ry="1" />
<ellipse fill="#58524d" fill-opacity="0.619608" cx="193" cy="128" rx="21" ry="2" />
<ellipse fill="#b3afa2" fill-opacity="0.423529" cx="146" cy="133" rx="27" ry="4" />
<ellipse fill="#0f0a00" fill-opacity="0.207843" cx="86" cy="74" rx="1" ry="48" />
<ellipse fill="#61584d" fill-opacity="0.560784" cx="48" cy="44" rx="14" ry="2" />
<ellipse fill="#798895" fill-opacity="0.250980" cx="236" cy="131" rx="9" ry="33" />
<ellipse fill="#1c0c03" fill-opacity="0.454902" cx="180" cy="73" rx="14" ry="1" />
<ellipse fill="#25180e" fill-opacity="0.580392" cx="119" cy="0" rx="7" ry="2" />
<ellipse fill="#5c564b" fill-opacity="0.647059" cx="144" cy="142" rx="2" ry="84" />
<ellipse fill="#fffffd" fill-opacity="0.239216" cx="25" cy="45" rx="1" ry="59" />
<ellipse fill="#6d675f" fill-opacity="0.525490" cx="182" cy="28" rx="14" ry="2" />
<ellipse fill="#302318" fill-opacity="0.356863" cx="78" cy="64" rx="1" ry="109" />
<ellipse fill="#2d1d13" fill-opacity="0.474510" cx="149" cy="70" rx="23" ry="1" />
<ellipse fill="#261f1d" fill-opacity="0.329412" cx="80" cy="17" rx="13" ry="2" />
<ellipse fill="#fffff9" fill-opacity="0.176471" cx="40" cy="72" rx="51" ry="3" />
<ellipse fill="#361c00" fill-opacity="0.231373" cx="60" cy="14" rx="1" ry="96" />
<ellipse fill="#ffffff" fill-opacity="0.121569" cx="47" cy="34" rx="5" ry="142" />
<ellipse fill="#d2d2ce" fill-opacity="0.513725" cx="15" cy="43" rx="8" ry="9" />
<ellipse fill="#000000" fill-opacity="0.176471" cx="32" cy="52" rx="22" ry="2" />
<ellipse fill="#f4f5f6" fill-opacity="0.270588" cx="189" cy="41" rx="28" ry="3" />
<ellipse fill="#dddcd6" fill-opacity="0.443137" cx="133" cy="30" rx="14" ry="3" />
<ellipse fill="#51453f" fill-opacity="0.980392" cx="211" cy="48" rx="1" ry="25" />
<ellipse fill="#33302f" fill-opacity="0.752941" cx="222" cy="34" rx="16" ry="1" />
</g>
</svg>