<svg xmlns="http://www.w3.org/2000/svg" version="1.1" width="256" height="143">
<rect x="0" y="0" width="256" height="143" fill="#f0f0f0" />
<g transform="scale(1.000000) translate(0.5 0.5)">
<ellipse fill="#685f4e" fill-opacity="0.776471" cx="145" cy="45" rx="221" ry="142" />
<ellipse fill="#fcdba6" fill-opacity="0.576471" cx="37" cy="103" rx="42" ry="33" />
<ellipse fill="#000b16" fill-opacity="0.439216" cx="224" cy="126" rx="28" ry="54" />
<ellipse fill="#556372" fill-opacity="0.886275" cx="232" cy="36" rx="37" ry="73" />
<ellipse fill="#4e330d" fill-opacity="0.454902" cx="128" cy="80" rx="40" ry="25" />
<ellipse fill="#ddb884" fill-opacity="0.584314" cx="134" cy="128" rx="53" ry="23" />
<ellipse fill="#fedca7" fill-opacity="0.662745" cx="184" cy="60" rx="6" ry="47" />
<ellipse fill="#221400" fill-opacity="0.556863" cx="202" cy="10" rx="13" ry="13" />
<ellipse fill="#e8cda3" fill-opacity="0.721569" cx="62" cy="82" rx="23" ry="13" />
<ellipse fill="#5079a9" fill-opacity="0.388235" cx="39" cy="15" rx="102" ry="41" />
<ellipse fill="#f3d9ac" fill-opacity="0.647059" cx="152" cy="30" rx="21" ry="7" />
<ellipse fill="#e2c18f" fill-opacity="0.619608" cx="175" cy="84" rx="11" ry="24" />
<ellipse fill="#564731" fill-opacity="0.992157" cx="146" cy="61" rx="27" ry="9" />
<ellipse fill="#ffe4b1" fill-opacity="0.462745" cx="151" cy="91" rx="5" ry="29" />
<ellipse fill="#d3bc96" fill-opacity="0.654902" cx="94" cy="55" rx="26" ry="8" />
<ellipse fill="#302111" fill-opacity="0.568627" cx="126" cy="125" rx="16" ry="4" />
<ellipse fill="#000000" fill-opacity="0.619608" cx="139" cy="90" rx="8" ry="13" />
<ellipse fill="#462c0d" fill-opacity="0.474510" cx="190" cy="113" rx="33" ry="7" />
<ellipse fill="#ffeec5" fill-opacity="0.552941" cx="108" cy="118" rx="25" ry="6" />
<ellipse fill="#332312" fill-opacity="0.623529" cx="147" cy="121" rx="15" ry="3" />
<ellipse fill="#e5c79b" fill-opacity="0.549020" cx="139" cy="75" rx="17" ry="4" />
<ellipse fill="#412700" fill-opacity="0.501961" cx="5" cy="142" rx="10" ry="18" />
<ellipse fill="#3a3123" fill-opacity="0.764706" cx="218" cy="140" rx="20" ry="35" />
<ellipse fill="#56452c" fill-opacity="0.498039" cx="102" cy="90" rx="18" ry="22" />
<ellipse fill="#ffe9bb" fill-opacity="0.705882" cx="156" cy="106" rx="16" ry="3" />
<ellipse fill="#5b472a" fill-opacity="0.521569" cx="93" cy="129" rx="28" ry="4" />
<ellipse fill="#5a411f" fill-opacity="0.372549" cx="173" cy="23" rx="8" ry="35" />
<ellipse fill="#e7c793" fill-opacity="0.529412" cx="69" cy="142" rx="48" ry="6" />
<ellipse fill="#8c8b84" fill-opacity="0.650980" cx="25" cy="66" rx="34" ry="14" />
<ellipse fill="#332a19" fill-opacity="0.560784" cx="200" cy="85" rx="3" ry="43" />
<ellipse fill="#627689" fill-opacity="0.698039" cx="250" cy="72" rx="17" ry="45" />
<ellipse fill="#7c5e38" fill-opacity="0.266667" cx="70" cy="132" rx="13" ry="41" />
<ellipse fill="#ffefc4" fill-opacity="0.709804" cx="134" cy="35" rx="7" ry="5" />
<ellipse fill="#e4c99e" fill-opacity="0.462745" cx="133" cy="136" rx="30" ry="10" />
<ellipse fill="#f2e1bf" fill-opacity="0.470588" cx="107" cy="56" rx="6" ry="13" />
<ellipse fill="#4d657c" fill-opacity="0.466667" cx="138" cy="3" rx="34" ry="20" />
<ellipse fill="#ae9675" fill-opacity="0.690196" cx="122" cy="97" rx="4" ry="26" />
<ellipse fill="#685b44" fill-opacity="0.733333" cx="96" cy="72" rx="6" ry="22" />
<ellipse fill="#f2dab2" fill-opacity="0.501961" cx="50" cy="97" rx="16" ry="18" />
<ellipse fill="#e7c692" fill-opacity="0.423529" cx="192" cy="30" rx="6" ry="17" />
<ellipse fill="#ead4ae" fill-opacity="0.494118" cx="124" cy="115" rx="28" ry="6" />
<ellipse fill="#4d391a" fill-opacity="0.317647" cx="161" cy="62" rx="7" ry="37" />
<ellipse fill="#414548" fill-opacity="1.000000" cx="250" cy="142" rx="8" ry="16" />
<ellipse fill="#d8bb8f" fill-opacity="0.556863" cx="75" cy="77" rx="13" ry="12" />
<ellipse fill="#1a0700" fill-opacity="0.521569" cx="185" cy="91" rx="5" ry="2" />
<ellipse fill="#62401c" fill-opacity="0.466667" cx="181" cy="1" rx="17" ry="13" />
<ellipse fill="#a68e6c" fill-opacity="0.921569" cx="132" cy="47" rx="15" ry="8" />
<ellipse fill="#dfcba5" fill-opacity="0.588235" cx="157" cy="26" rx="17" ry="5" />
<ellipse fill="#67543e" fill-opacity="0.509804" cx="43" cy="118" rx="14" ry="3" />
<ellipse fill="#695943" fill-opacity="1.000000" cx="85" cy="106" rx="5" ry="9" />
<ellipse fill="#d4b284" fill-opacity="0.349020" cx="147" cy="71" rx="14" ry="7" />
<ellipse fill="#20190f" fill-opacity="0.741176" cx="135" cy="97" rx="8" ry="7" />
<ellipse fill="#f3d5a5" fill-opacity="0.623529" cx="87" cy="123" rx="6" ry="6" />
<ellipse fill="#90693d" fill-opacity="0.439216" cx="178" cy="142" rx="15" ry="15" />
<ellipse fill="#000000" fill-opacity="0.600000" cx="160" cy="92" rx="3" ry="8" />
<ellipse fill="#687887" fill-opacity="0.682353" cx="211" cy="56" rx="10" ry="30" />
<ellipse fill="#3a3020" fill-opacity="0.494118" cx="114" cy="84" rx="6" ry="23" />
<ellipse fill="#778596" fill-opacity="0.654902" cx="23" cy="49" rx="52" ry="14" />
<ellipse fill="#251d10" fill-opacity="0.537255" cx="140" cy="85" rx="8" ry="10" />
<ellipse fill="#473727" fill-opacity="0.447059" cx="120" cy="118" rx="2" ry="13" />
<ellipse fill="#3a342e" fill-opacity="0.439216" cx="229" cy="98" rx="6" ry="28" />
<ellipse fill="#f7e0b9" fill-opacity="0.674510" cx="35" cy="93" rx="11" ry="6" />
<ellipse fill="#7d6548" fill-opacity="0.698039" cx="178" cy="118" rx="26" ry="3" />
<ellipse fill="#574834" fill-opacity="0.411765" cx="68" cy="115" rx="16" ry="3" />
<ellipse fill="#f2d19f" fill-opacity="0.690196" cx="170" cy="103" rx="15" ry="2" />
<ellipse fill="#ffffd3" fill-opacity="0.513725" cx="126" cy="40" rx="3" ry="5" />
<ellipse fill="#fff5ca" fill-opacity="0.494118" cx="146" cy="142" rx="13" ry="7" />
<ellipse fill="#481d00" fill-opacity="0.266667" cx="190" cy="94" rx="2" ry="55" />
<ellipse fill="#b5a487" fill-opacity="0.596078" cx="97" cy="37" rx="4" ry="14" />
<ellipse fill="#f3d19e" fill-opacity="0.301961" cx="183" cy="132" rx="4" ry="23" />
<ellipse fill="#fff6ca" fill-opacity="0.443137" cx="182" cy="63" rx="8" ry="8" />
<ellipse fill="#af8b5a" fill-opacity="0.431373" cx="70" cy="65" rx="24" ry="8" />
<ellipse fill="#787971" fill-opacity="0.603922" cx="218" cy="96" rx="9" ry="11" />
<ellipse fill="#725733" fill-opacity="0.537255" cx="159" cy="41" rx="22" ry="5" />
<ellipse fill="#a38e6c" fill-opacity="0.388235" cx="71" cy="97" rx="45" ry="3" />
<ellipse fill="#6a757d" fill-opacity="0.717647" cx="120" cy="8" rx="16" ry="31" />
<ellipse fill="#546477" fill-opacity="0.847059" cx="242" cy="0" rx="32" ry="40" />
<ellipse fill="#ffca6b" fill-opacity="0.196078" cx="194" cy="142" rx="4" ry="102" />
<ellipse fill="#574734" fill-opacity="0.556863" cx="137" cy="115" rx="2" ry="12" />
<ellipse fill="#e8cc9f" fill-opacity="0.690196" cx="172" cy="85" rx="8" ry="7" />
<ellipse fill="#493a24" fill-opacity="0.529412" cx="74" cy="134" rx="4" ry="9" />
<ellipse fill="#100903" fill-opacity="0.564706" cx="11" cy="121" rx="2" ry="3" />
<ellipse fill="#f1d9b1" fill-opacity="0.447059" cx="58" cy="123" rx="10" ry="6" />
<ellipse fill="#3c2d21" fill-opacity="0.407843" cx="116" cy="142" rx="2" ry="20" />
<ellipse fill="#0c0b04" fill-opacity="0.400000" cx="107" cy="86" rx="5" ry="11" />
<ellipse fill="#362f24" fill-opacity="0.501961" cx="203" cy="109" rx="6" ry="28" />
<ellipse fill="#726753" fill-opacity="0.564706" cx="189" cy="72" rx="18" ry="2" />
<ellipse fill="#ffffdb" fill-opacity="0.392157" cx="141" cy="109" rx="14" ry="3" />
<ellipse fill="#ae8a53" fill-opacity="0.333333" cx="24" cy="75" rx="33" ry="7" />
<ellipse fill="#c1ac8b" fill-opacity="0.921569" cx="20" cy="116" rx="8" ry="23" />
<ellipse fill="#392500" fill-opacity="0.352941" cx="198" cy="40" rx="2" ry="25" />
<ellipse fill="#c2b49a" fill-opacity="0.537255" cx="106" cy="57" rx="3" ry="17" />
<ellipse fill="#362c1b" fill-opacity="0.533333" cx="153" cy="57" rx="13" ry="7" />
<ellipse fill="#f5deb7" fill-opacity="0.509804" cx="1" cy="97" rx="18" ry="7" />
<ellipse fill="#695234" fill-opacity="0.560784" cx="136" cy="46" rx="10" ry="3" />
<ellipse fill="#2b1b0c" fill-opacity="0.282353" cx="122" cy="66" rx="10" ry="10" />
<ellipse fill="#e5cfaa" fill-opacity="0.517647" cx="54" cy="82" rx="27" ry="8" />
<ellipse fill="#68788c" fill-opacity="0.639216" cx="111" cy="42" rx="10" ry="6" />
<ellipse fill="#442911" fill-opacity="0.443137" cx="174" cy="93" rx="8" ry="2" />
<ellipse fill="#433222" fill-opacity="0.352941" cx="133" cy="140" rx="2" ry="25" />
</g>
</svg>