<svg xmlns="http://www.w3.org/2000/svg" version="1.1" width="256" height="161">
<rect x="0" y="0" width="256" height="161" fill="#f0f0f0" />
<g transform="scale(1.000000) translate(0.5 0.5)">
<ellipse fill="#3a3114" fill-opacity="0.607843" cx="139" cy="135" rx="250" ry="70" />
<ellipse fill="#afb6b4" fill-opacity="0.705882" cx="128" cy="32" rx="220" ry="52" />
<ellipse fill="#fde0be" fill-opacity="0.686275" cx="15" cy="114" rx="25" ry="12" />
<ellipse fill="#011100" fill-opacity="0.592157" cx="45" cy="107" rx="7" ry="36" />
<ellipse fill="#474e3f" fill-opacity="0.615686" cx="204" cy="95" rx="27" ry="29" />
<ellipse fill="#645f4f" fill-opacity="0.796078" cx="214" cy="117" rx="70" ry="33" />
<ellipse fill="#b9ad9a" fill-opacity="0.886275" cx="133" cy="71" rx="26" ry="28" />
<ellipse fill="#28391e" fill-opacity="0.435294" cx="38" cy="90" rx="62" ry="10" />
<ellipse fill="#ffe4c7" fill-opacity="0.607843" cx="61" cy="109" rx="9" ry="11" />
<ellipse fill="#d6e1e5" fill-opacity="0.501961" cx="162" cy="12" rx="85" ry="36" />
<ellipse fill="#878277" fill-opacity="0.768627" cx="192" cy="43" rx="4" ry="26" />
<ellipse fill="#061306" fill-opacity="0.717647" cx="255" cy="107" rx="4" ry="35" />
<ellipse fill="#9eadb5" fill-opacity="0.658824" cx="11" cy="26" rx="28" ry="55" />
<ellipse fill="#583a21" fill-opacity="0.615686" cx="161" cy="145" rx="33" ry="8" />
<ellipse fill="#c4b5ae" fill-opacity="0.427451" cx="122" cy="120" rx="21" ry="17" />
<ellipse fill="#ebecec" fill-opacity="0.447059" cx="165" cy="69" rx="11" ry="22" />
<ellipse fill="#242f10" fill-opacity="0.423529" cx="56" cy="78" rx="19" ry="5" />
<ellipse fill="#978c76" fill-opacity="0.678431" cx="71" cy="44" rx="4" ry="26" />
<ellipse fill="#dfdfdd" fill-opacity="0.384314" cx="233" cy="49" rx="25" ry="34" />
<ellipse fill="#241003" fill-opacity="0.474510" cx="6" cy="140" rx="13" ry="7" />
<ellipse fill="#303705" fill-opacity="0.603922" cx="74" cy="116" rx="4" ry="16" />
<ellipse fill="#987b5e" fill-opacity="0.619608" cx="174" cy="128" rx="36" ry="10" />
<ellipse fill="#2e3401" fill-opacity="0.603922" cx="57" cy="132" rx="16" ry="4" />
<ellipse fill="#988d85" fill-opacity="0.584314" cx="98" cy="145" rx="32" ry="22" />
<ellipse fill="#fffbcf" fill-opacity="0.298039" cx="74" cy="101" rx="12" ry="5" />
<ellipse fill="#e8d0b2" fill-opacity="0.564706" cx="32" cy="111" rx="8" ry="11" />
<ellipse fill="#3e441a" fill-opacity="0.556863" cx="88" cy="103" rx="3" ry="22" />
<ellipse fill="#82817e" fill-opacity="0.462745" cx="223" cy="101" rx="28" ry="9" />
<ellipse fill="#48362c" fill-opacity="0.584314" cx="206" cy="141" rx="22" ry="7" />
<ellipse fill="#a69f91" fill-opacity="0.909804" cx="178" cy="54" rx="3" ry="19" />
<ellipse fill="#cac6be" fill-opacity="0.494118" cx="76" cy="68" rx="51" ry="7" />
<ellipse fill="#908a7c" fill-opacity="0.584314" cx="84" cy="59" rx="3" ry="23" />
<ellipse fill="#edd2b4" fill-opacity="0.490196" cx="92" cy="90" rx="2" ry="21" />
<ellipse fill="#d0b597" fill-opacity="0.427451" cx="0" cy="121" rx="42" ry="10" />
<ellipse fill="#061e04" fill-opacity="0.313725" cx="191" cy="91" rx="5" ry="20" />
<ellipse fill="#e0b071" fill-opacity="0.525490" cx="163" cy="143" rx="5" ry="5" />
<ellipse fill="#2f3800" fill-opacity="0.443137" cx="231" cy="132" rx="13" ry="5" />
<ellipse fill="#948c79" fill-opacity="0.372549" cx="122" cy="51" rx="13" ry="12" />
<ellipse fill="#f7dcb7" fill-opacity="0.517647" cx="76" cy="56" rx="4" ry="23" />
<ellipse fill="#50584b" fill-opacity="0.521569" cx="220" cy="82" rx="5" ry="15" />
<ellipse fill="#ffe4c3" fill-opacity="0.494118" cx="80" cy="103" rx="5" ry="6" />
<ellipse fill="#484b2a" fill-opacity="0.615686" cx="74" cy="103" rx="3" ry="24" />
<ellipse fill="#191b1b" fill-opacity="0.517647" cx="132" cy="142" rx="3" ry="10" />
<ellipse fill="#c5b295" fill-opacity="0.674510" cx="196" cy="42" rx="3" ry="27" />
<ellipse fill="#91877b" fill-opacity="0.682353" cx="47" cy="160" rx="45" ry="19" />
<ellipse fill="#ffedd2" fill-opacity="0.450980" cx="181" cy="64" rx="4" ry="13" />
<ellipse fill="#b1bbbe" fill-opacity="0.419608" cx="23" cy="54" rx="27" ry="29" />
<ellipse fill="#988a7a" fill-opacity="0.682353" cx="145" cy="89" rx="35" ry="3" />
<ellipse fill="#91928d" fill-opacity="0.541176" cx="195" cy="129" rx="20" ry="6" />
<ellipse fill="#7c5331" fill-opacity="0.498039" cx="150" cy="133" rx="9" ry="20" />
<ellipse fill="#102500" fill-opacity="0.474510" cx="216" cy="117" rx="3" ry="10" />
<ellipse fill="#06170c" fill-opacity="0.427451" cx="253" cy="92" rx="3" ry="19" />
<ellipse fill="#9c9891" fill-opacity="0.701961" cx="155" cy="109" rx="5" ry="7" />
<ellipse fill="#4c513a" fill-opacity="0.403922" cx="8" cy="95" rx="31" ry="9" />
<ellipse fill="#dadad8" fill-opacity="0.678431" cx="211" cy="47" rx="15" ry="17" />
<ellipse fill="#948873" fill-opacity="0.454902" cx="152" cy="52" rx="5" ry="10" />
<ellipse fill="#56562c" fill-opacity="0.305882" cx="76" cy="116" rx="22" ry="4" />
<ellipse fill="#aaa08f" fill-opacity="0.674510" cx="100" cy="86" rx="2" ry="22" />
<ellipse fill="#fff0d1" fill-opacity="0.215686" cx="125" cy="81" rx="5" ry="25" />
<ellipse fill="#ede2cc" fill-opacity="0.749020" cx="140" cy="42" rx="9" ry="8" />
<ellipse fill="#89857f" fill-opacity="0.486275" cx="235" cy="155" rx="11" ry="20" />
<ellipse fill="#d4e0e6" fill-opacity="0.498039" cx="161" cy="9" rx="32" ry="30" />
<ellipse fill="#232400" fill-opacity="0.356863" cx="42" cy="140" rx="13" ry="3" />
<ellipse fill="#cfd5d7" fill-opacity="0.607843" cx="106" cy="59" rx="4" ry="26" />
<ellipse fill="#0a1616" fill-opacity="0.227451" cx="143" cy="149" rx="36" ry="3" />
<ellipse fill="#a89f90" fill-opacity="0.588235" cx="135" cy="95" rx="7" ry="41" />
<ellipse fill="#819299" fill-opacity="0.333333" cx="0" cy="0" rx="12" ry="48" />
<ellipse fill="#4f5540" fill-opacity="0.470588" cx="93" cy="94" rx="29" ry="3" />
<ellipse fill="#d8d8d5" fill-opacity="0.537255" cx="185" cy="42" rx="5" ry="32" />
<ellipse fill="#807d75" fill-opacity="0.490196" cx="207" cy="105" rx="12" ry="13" />
<ellipse fill="#2f3903" fill-opacity="0.419608" cx="97" cy="104" rx="2" ry="13" />
<ellipse fill="#000000" fill-opacity="0.517647" cx="147" cy="112" rx="3" ry="3" />
<ellipse fill="#b5c4cc" fill-opacity="0.545098" cx="48" cy="16" rx="21" ry="57" />
<ellipse fill="#9c9b99" fill-opacity="0.415686" cx="176" cy="85" rx="3" ry="25" />
<ellipse fill="#858b85" fill-opacity="0.435294" cx="187" cy="114" rx="4" ry="17" />
<ellipse fill="#a4998f" fill-opacity="0.529412" cx="100" cy="126" rx="15" ry="8" />
<ellipse fill="#5f5645" fill-opacity="0.466667" cx="72" cy="60" rx="7" ry="2" />
<ellipse fill="#24341b" fill-opacity="0.556863" cx="181" cy="99" rx="2" ry="17" />
<ellipse fill="#ffeccd" fill-opacity="0.290196" cx="61" cy="103" rx="10" ry="6" />
<ellipse fill="#c69f71" fill-opacity="0.560784" cx="163" cy="136" rx="8" ry="4" />
<ellipse fill="#555f51" fill-opacity="0.490196" cx="207" cy="80" rx="10" ry="16" />
<ellipse fill="#6f6f5a" fill-opacity="0.631373" cx="77" cy="86" rx="8" ry="7" />
<ellipse fill="#6b6b6b" fill-opacity="0.505882" cx="238" cy="116" rx="15" ry="14" />
<ellipse fill="#ceccc3" fill-opacity="0.498039" cx="162" cy="77" rx="19" ry="10" />
<ellipse fill="#685033" fill-opacity="0.490196" cx="163" cy="127" rx="14" ry="6" />
<ellipse fill="#232d09" fill-opacity="0.505882" cx="44" cy="116" rx="4" ry="23" />
<ellipse fill="#6f716b" fill-opacity="0.658824" cx="101" cy="78" rx="2" ry="11" />
<ellipse fill="#95877a" fill-opacity="0.560784" cx="29" cy="129" rx="12" ry="8" />
<ellipse fill="#443d30" fill-opacity="0.352941" cx="194" cy="60" rx="8" ry="2" />
<ellipse fill="#d0d2cf" fill-opacity="0.376471" cx="240" cy="58" rx="14" ry="26" />
<ellipse fill="#a39584" fill-opacity="0.498039" cx="169" cy="119" rx="6" ry="6" />
<ellipse fill="#353c28" fill-opacity="0.403922" cx="185" cy="112" rx="12" ry="5" />
<ellipse fill="#d4dbdc" fill-opacity="0.560784" cx="119" cy="35" rx="4" ry="18" />
<ellipse fill="#484913" fill-opacity="0.560784" cx="79" cy="121" rx="10" ry="3" />
<ellipse fill="#978e7b" fill-opacity="0.627451" cx="140" cy="54" rx="14" ry="4" />
<ellipse fill="#31312d" fill-opacity="0.611765" cx="135" cy="144" rx="4" ry="9" />
<ellipse fill="#37442a" fill-opacity="0.341176" cx="116" cy="96" rx="5" ry="7" />
<ellipse fill="#686625" fill-opacity="0.490196" cx="63" cy="128" rx="17" ry="3" />
<ellipse fill="#80735c" fill-opacity="0.345098" cx="73" cy="30" rx="6" ry="8" />
<ellipse fill="#b2a389" fill-opacity="0.317647" cx="131" cy="54" rx="6" ry="28" />
</g>
</svg>