<svg xmlns="http://www.w3.org/2000/svg" version="1.1" width="256" height="143">
<rect x="0" y="0" width="256" height="143" fill="#f0f0f0" />
<g transform="scale(1.000000) translate(0.5 0.5)">
<ellipse fill="#68654d" fill-opacity="0.584314" cx="127" cy="55" rx="163" ry="142" />
<ellipse fill="#634717" fill-opacity="0.501961" cx="165" cy="111" rx="33" ry="38" />
<ellipse fill="#cce2f0" fill-opacity="0.400000" cx="52" cy="98" rx="42" ry="45" />
<ellipse fill="#0a0300" fill-opacity="0.592157" cx="252" cy="12" rx="10" ry="29" />
<ellipse fill="#0d0000" fill-opacity="0.568627" cx="91" cy="34" rx="12" ry="12" />
<ellipse fill="#2e77d7" fill-opacity="0.223529" cx="21" cy="0" rx="66" ry="83" />
<ellipse fill="#fce2af" fill-opacity="0.454902" cx="111" cy="117" rx="17" ry="43" />
<ellipse fill="#2b1900" fill-opacity="0.341176" cx="228" cy="6" rx="40" ry="8" />
<ellipse fill="#e4c996" fill-opacity="0.501961" cx="228" cy="125" rx="31" ry="23" />
<ellipse fill="#91acce" fill-opacity="0.552941" cx="134" cy="11" rx="38" ry="22" />
<ellipse fill="#e3cea3" fill-opacity="0.380392" cx="184" cy="55" rx="39" ry="22" />
<ellipse fill="#4f606d" fill-opacity="0.462745" cx="0" cy="5" rx="36" ry="33" />
<ellipse fill="#382401" fill-opacity="0.356863" cx="185" cy="17" rx="13" ry="8" />
<ellipse fill="#5c4720" fill-opacity="0.501961" cx="222" cy="80" rx="5" ry="25" />
<ellipse fill="#eae8d6" fill-opacity="0.521569" cx="115" cy="43" rx="16" ry="9" />
<ellipse fill="#dfd1b1" fill-opacity="0.505882" cx="130" cy="75" rx="17" ry="15" />
<ellipse fill="#715f3e" fill-opacity="0.584314" cx="82" cy="52" rx="11" ry="9" />
<ellipse fill="#b7a681" fill-opacity="0.772549" cx="73" cy="142" rx="17" ry="28" />
<ellipse fill="#adbdca" fill-opacity="0.435294" cx="47" cy="71" rx="27" ry="47" />
<ellipse fill="#dfcda3" fill-opacity="0.682353" cx="234" cy="97" rx="7" ry="28" />
<ellipse fill="#301e00" fill-opacity="0.478431" cx="96" cy="84" rx="5" ry="8" />
<ellipse fill="#746240" fill-opacity="0.525490" cx="171" cy="29" rx="14" ry="8" />
<ellipse fill="#8e7b52" fill-opacity="0.486275" cx="250" cy="52" rx="17" ry="22" />
<ellipse fill="#c6b388" fill-opacity="0.427451" cx="226" cy="28" rx="19" ry="27" />
<ellipse fill="#b69d6f" fill-opacity="0.674510" cx="129" cy="121" rx="11" ry="23" />
<ellipse fill="#8f805f" fill-opacity="0.980392" cx="169" cy="142" rx="31" ry="24" />
<ellipse fill="#bcb298" fill-opacity="0.631373" cx="197" cy="50" rx="27" ry="31" />
<ellipse fill="#625439" fill-opacity="0.486275" cx="162" cy="88" rx="20" ry="16" />
<ellipse fill="#d6c6a1" fill-opacity="0.537255" cx="81" cy="102" rx="14" ry="27" />
<ellipse fill="#b8c6cb" fill-opacity="0.619608" cx="38" cy="125" rx="22" ry="25" />
<ellipse fill="#110e00" fill-opacity="0.454902" cx="211" cy="0" rx="11" ry="6" />
<ellipse fill="#573f16" fill-opacity="0.474510" cx="232" cy="64" rx="12" ry="4" />
<ellipse fill="#8399a8" fill-opacity="0.352941" cx="13" cy="103" rx="15" ry="82" />
<ellipse fill="#ddcca8" fill-opacity="0.545098" cx="107" cy="142" rx="31" ry="13" />
<ellipse fill="#d2c09c" fill-opacity="0.356863" cx="207" cy="88" rx="12" ry="44" />
<ellipse fill="#a4b4c1" fill-opacity="0.549020" cx="69" cy="30" rx="10" ry="21" />
<ellipse fill="#715e3b" fill-opacity="0.376471" cx="155" cy="39" rx="8" ry="9" />
<ellipse fill="#b7a783" fill-opacity="0.627451" cx="251" cy="114" rx="14" ry="52" />
<ellipse fill="#665431" fill-opacity="0.462745" cx="103" cy="66" rx="3" ry="13" />
<ellipse fill="#9bacbd" fill-opacity="0.807843" cx="172" cy="2" rx="9" ry="14" />
<ellipse fill="#473517" fill-opacity="0.372549" cx="93" cy="41" rx="6" ry="13" />
<ellipse fill="#4a3b1d" fill-opacity="0.584314" cx="100" cy="78" rx="3" ry="6" />
<ellipse fill="#f8ecca" fill-opacity="0.521569" cx="130" cy="39" rx="9" ry="4" />
<ellipse fill="#020600" fill-opacity="0.643137" cx="255" cy="0" rx="10" ry="13" />
<ellipse fill="#deceab" fill-opacity="0.470588" cx="235" cy="53" rx="8" ry="7" />
<ellipse fill="#514830" fill-opacity="0.627451" cx="197" cy="11" rx="5" ry="5" />
<ellipse fill="#9a8765" fill-opacity="0.537255" cx="132" cy="52" rx="11" ry="8" />
<ellipse fill="#cac0a6" fill-opacity="0.529412" cx="145" cy="62" rx="15" ry="11" />
<ellipse fill="#8c9fb3" fill-opacity="0.607843" cx="99" cy="5" rx="41" ry="14" />
<ellipse fill="#d3cbb3" fill-opacity="0.501961" cx="104" cy="104" rx="10" ry="24" />
<ellipse fill="#1c1000" fill-opacity="0.439216" cx="83" cy="131" rx="5" ry="2" />
<ellipse fill="#c1af88" fill-opacity="0.619608" cx="85" cy="82" rx="4" ry="22" />
<ellipse fill="#7a8c9d" fill-opacity="0.435294" cx="35" cy="23" rx="18" ry="24" />
<ellipse fill="#515f63" fill-opacity="0.231373" cx="0" cy="0" rx="15" ry="68" />
<ellipse fill="#53482f" fill-opacity="0.372549" cx="222" cy="90" rx="5" ry="15" />
<ellipse fill="#ab9a76" fill-opacity="0.525490" cx="227" cy="114" rx="3" ry="46" />
<ellipse fill="#7f6f4c" fill-opacity="0.545098" cx="150" cy="101" rx="24" ry="10" />
<ellipse fill="#9fafbc" fill-opacity="0.537255" cx="116" cy="21" rx="16" ry="17" />
<ellipse fill="#a09172" fill-opacity="0.490196" cx="105" cy="60" rx="29" ry="8" />
<ellipse fill="#cfcdbd" fill-opacity="0.462745" cx="85" cy="72" rx="14" ry="5" />
<ellipse fill="#4d4026" fill-opacity="0.415686" cx="251" cy="59" rx="9" ry="4" />
<ellipse fill="#675a3e" fill-opacity="0.603922" cx="184" cy="97" rx="9" ry="13" />
<ellipse fill="#4e3f23" fill-opacity="0.470588" cx="95" cy="81" rx="6" ry="5" />
<ellipse fill="#c0bfb0" fill-opacity="0.627451" cx="108" cy="47" rx="7" ry="12" />
<ellipse fill="#423a29" fill-opacity="0.290196" cx="79" cy="50" rx="2" ry="19" />
<ellipse fill="#a9d8ff" fill-opacity="0.333333" cx="91" cy="100" rx="5" ry="12" />
<ellipse fill="#7f6b47" fill-opacity="0.486275" cx="70" cy="135" rx="11" ry="3" />
<ellipse fill="#9d9271" fill-opacity="0.341176" cx="224" cy="17" rx="30" ry="7" />
<ellipse fill="#cec4a9" fill-opacity="0.549020" cx="196" cy="80" rx="6" ry="14" />
<ellipse fill="#a4a08c" fill-opacity="0.384314" cx="194" cy="4" rx="9" ry="8" />
<ellipse fill="#b3aa92" fill-opacity="0.643137" cx="182" cy="44" rx="24" ry="14" />
<ellipse fill="#554c36" fill-opacity="0.494118" cx="181" cy="21" rx="7" ry="5" />
<ellipse fill="#b4a789" fill-opacity="0.552941" cx="244" cy="73" rx="33" ry="5" />
<ellipse fill="#fceec7" fill-opacity="0.466667" cx="233" cy="142" rx="4" ry="14" />
<ellipse fill="#52422f" fill-opacity="0.572549" cx="91" cy="28" rx="5" ry="8" />
<ellipse fill="#cbc2aa" fill-opacity="0.521569" cx="125" cy="83" rx="8" ry="18" />
<ellipse fill="#745b2d" fill-opacity="0.529412" cx="133" cy="28" rx="2" ry="7" />
<ellipse fill="#84663b" fill-opacity="0.478431" cx="228" cy="127" rx="10" ry="2" />
<ellipse fill="#f4eacd" fill-opacity="0.505882" cx="119" cy="45" rx="6" ry="6" />
<ellipse fill="#836a3e" fill-opacity="0.301961" cx="142" cy="45" rx="8" ry="7" />
<ellipse fill="#191405" fill-opacity="0.415686" cx="169" cy="30" rx="3" ry="3" />
<ellipse fill="#3e3629" fill-opacity="0.788235" cx="85" cy="34" rx="8" ry="3" />
<ellipse fill="#b7d8f4" fill-opacity="0.525490" cx="98" cy="66" rx="2" ry="7" />
<ellipse fill="#a9b5b9" fill-opacity="0.333333" cx="23" cy="102" rx="18" ry="44" />
<ellipse fill="#162b42" fill-opacity="0.090196" cx="25" cy="0" rx="45" ry="11" />
<ellipse fill="#93a3b1" fill-opacity="0.650980" cx="63" cy="25" rx="20" ry="12" />
<ellipse fill="#4a462c" fill-opacity="0.494118" cx="248" cy="31" rx="4" ry="11" />
<ellipse fill="#93896f" fill-opacity="0.674510" cx="225" cy="0" rx="2" ry="60" />
<ellipse fill="#758590" fill-opacity="0.321569" cx="0" cy="142" rx="8" ry="124" />
<ellipse fill="#d6d2c0" fill-opacity="0.501961" cx="210" cy="121" rx="7" ry="8" />
<ellipse fill="#a4b2be" fill-opacity="0.537255" cx="66" cy="42" rx="13" ry="8" />
<ellipse fill="#7e745c" fill-opacity="0.607843" cx="239" cy="45" rx="5" ry="4" />
<ellipse fill="#413b27" fill-opacity="0.592157" cx="208" cy="0" rx="5" ry="11" />
<ellipse fill="#c1ced3" fill-opacity="0.423529" cx="55" cy="106" rx="10" ry="21" />
<ellipse fill="#1a1608" fill-opacity="0.501961" cx="193" cy="16" rx="4" ry="2" />
<ellipse fill="#8b7d5e" fill-opacity="0.509804" cx="178" cy="121" rx="22" ry="10" />
<ellipse fill="#e6d9b8" fill-opacity="0.482353" cx="230" cy="43" rx="2" ry="18" />
<ellipse fill="#c1b7a0" fill-opacity="0.443137" cx="166" cy="58" rx="28" ry="16" />
<ellipse fill="#f1d8a7" fill-opacity="0.388235" cx="78" cy="101" rx="6" ry="16" />
<ellipse fill="#c7c2ae" fill-opacity="0.501961" cx="244" cy="47" rx="6" ry="3" />
</g>
</svg>