<svg xmlns="http://www.w3.org/2000/svg" version="1.1" width="256" height="143">
<rect x="0" y="0" width="256" height="143" fill="#f0f0f0" />
<g transform="scale(1.000000) translate(0.5 0.5)">
<ellipse fill="#191700" fill-opacity="0.482353" cx="111" cy="64" rx="254" ry="101" />
<ellipse fill="#f8fcff" fill-opacity="0.639216" cx="110" cy="60" rx="35" ry="44" />
<ellipse fill="#000300" fill-opacity="0.486275" cx="5" cy="134" rx="44" ry="70" />
<ellipse fill="#222520" fill-opacity="0.490196" cx="243" cy="111" rx="68" ry="50" />
<ellipse fill="#ebe2ce" fill-opacity="0.470588" cx="168" cy="59" rx="51" ry="23" />
<ellipse fill="#d4dee5" fill-opacity="0.894118" cx="88" cy="33" rx="24" ry="15" />
<ellipse fill="#1c3219" fill-opacity="0.305882" cx="63" cy="88" rx="19" ry="48" />
<ellipse fill="#d1c7b0" fill-opacity="0.419608" cx="122" cy="102" rx="29" ry="44" />
<ellipse fill="#64645b" fill-opacity="0.780392" cx="183" cy="127" rx="29" ry="43" />
<ellipse fill="#d5dee4" fill-opacity="0.784314" cx="100" cy="41" rx="22" ry="30" />
<ellipse fill="#fdf8e4" fill-opacity="0.513725" cx="175" cy="62" rx="14" ry="17" />
<ellipse fill="#3b3c34" fill-opacity="0.639216" cx="254" cy="64" rx="22" ry="19" />
<ellipse fill="#b1b1a6" fill-opacity="0.603922" cx="89" cy="102" rx="24" ry="12" />
<ellipse fill="#000000" fill-opacity="0.337255" cx="103" cy="9" rx="24" ry="5" />
<ellipse fill="#d6dde3" fill-opacity="0.768627" cx="136" cy="82" rx="10" ry="22" />
<ellipse fill="#9d9785" fill-opacity="0.945098" cx="153" cy="46" rx="9" ry="49" />
<ellipse fill="#9d9787" fill-opacity="0.674510" cx="37" cy="52" rx="15" ry="39" />
<ellipse fill="#b28255" fill-opacity="0.376471" cx="123" cy="94" rx="5" ry="63" />
<ellipse fill="#d2c9b6" fill-opacity="0.517647" cx="96" cy="140" rx="36" ry="4" />
<ellipse fill="#272922" fill-opacity="0.639216" cx="0" cy="68" rx="11" ry="14" />
<ellipse fill="#a49e8b" fill-opacity="0.580392" cx="185" cy="16" rx="31" ry="23" />
<ellipse fill="#2c2920" fill-opacity="0.541176" cx="126" cy="17" rx="9" ry="5" />
<ellipse fill="#aba595" fill-opacity="0.984314" cx="206" cy="53" rx="19" ry="12" />
<ellipse fill="#636c5a" fill-opacity="0.603922" cx="68" cy="56" rx="13" ry="15" />
<ellipse fill="#838659" fill-opacity="0.564706" cx="131" cy="117" rx="19" ry="9" />
<ellipse fill="#61614e" fill-opacity="0.494118" cx="68" cy="126" rx="31" ry="10" />
<ellipse fill="#d2dce1" fill-opacity="0.549020" cx="87" cy="36" rx="27" ry="12" />
<ellipse fill="#485141" fill-opacity="0.588235" cx="55" cy="77" rx="5" ry="46" />
<ellipse fill="#32332c" fill-opacity="0.450980" cx="249" cy="126" rx="16" ry="29" />
<ellipse fill="#d7dde4" fill-opacity="0.709804" cx="92" cy="72" rx="18" ry="8" />
<ellipse fill="#d7e0e7" fill-opacity="0.662745" cx="104" cy="86" rx="11" ry="15" />
<ellipse fill="#191711" fill-opacity="0.533333" cx="78" cy="15" rx="7" ry="3" />
<ellipse fill="#dedbcf" fill-opacity="0.447059" cx="149" cy="78" rx="24" ry="5" />
<ellipse fill="#37352d" fill-opacity="0.494118" cx="71" cy="18" rx="6" ry="5" />
<ellipse fill="#61625a" fill-opacity="0.505882" cx="204" cy="102" rx="28" ry="29" />
<ellipse fill="#817a67" fill-opacity="0.517647" cx="237" cy="10" rx="19" ry="45" />
<ellipse fill="#908a77" fill-opacity="0.745098" cx="146" cy="0" rx="32" ry="19" />
<ellipse fill="#d3dce2" fill-opacity="0.674510" cx="100" cy="31" rx="29" ry="17" />
<ellipse fill="#dcd7c5" fill-opacity="0.627451" cx="185" cy="68" rx="21" ry="8" />
<ellipse fill="#3e493e" fill-opacity="0.470588" cx="67" cy="88" rx="10" ry="12" />
<ellipse fill="#4b4c45" fill-opacity="0.611765" cx="223" cy="79" rx="25" ry="12" />
<ellipse fill="#5e5643" fill-opacity="0.447059" cx="135" cy="19" rx="6" ry="10" />
<ellipse fill="#181715" fill-opacity="0.533333" cx="114" cy="12" rx="6" ry="4" />
<ellipse fill="#0b0a01" fill-opacity="0.529412" cx="40" cy="0" rx="7" ry="2" />
<ellipse fill="#aea795" fill-opacity="0.678431" cx="106" cy="104" rx="45" ry="5" />
<ellipse fill="#d0d6d9" fill-opacity="0.541176" cx="87" cy="75" rx="18" ry="3" />
<ellipse fill="#8a6e56" fill-opacity="0.584314" cx="124" cy="83" rx="8" ry="3" />
<ellipse fill="#d1dde5" fill-opacity="0.701961" cx="99" cy="20" rx="9" ry="9" />
<ellipse fill="#a7a79b" fill-opacity="0.513725" cx="83" cy="101" rx="10" ry="16" />
<ellipse fill="#9b9687" fill-opacity="0.458824" cx="32" cy="53" rx="16" ry="31" />
<ellipse fill="#95907f" fill-opacity="0.533333" cx="196" cy="44" rx="7" ry="22" />
<ellipse fill="#847f6d" fill-opacity="0.541176" cx="10" cy="20" rx="20" ry="39" />
<ellipse fill="#4d4e48" fill-opacity="0.580392" cx="43" cy="122" rx="7" ry="33" />
<ellipse fill="#e1ddcc" fill-opacity="0.486275" cx="218" cy="49" rx="7" ry="6" />
<ellipse fill="#3c3b32" fill-opacity="0.482353" cx="59" cy="28" rx="4" ry="5" />
<ellipse fill="#9f9984" fill-opacity="0.501961" cx="50" cy="12" rx="25" ry="9" />
<ellipse fill="#4c3b28" fill-opacity="0.321569" cx="148" cy="74" rx="2" ry="15" />
<ellipse fill="#343630" fill-opacity="0.533333" cx="3" cy="140" rx="14" ry="82" />
<ellipse fill="#393b35" fill-opacity="0.568627" cx="240" cy="66" rx="14" ry="11" />
<ellipse fill="#827b6c" fill-opacity="0.411765" cx="252" cy="79" rx="8" ry="10" />
<ellipse fill="#0b0b08" fill-opacity="0.384314" cx="66" cy="23" rx="4" ry="4" />
<ellipse fill="#faf7e5" fill-opacity="0.447059" cx="165" cy="47" rx="6" ry="5" />
<ellipse fill="#35511b" fill-opacity="0.400000" cx="66" cy="116" rx="12" ry="6" />
<ellipse fill="#070400" fill-opacity="0.345098" cx="103" cy="7" rx="8" ry="4" />
<ellipse fill="#34312b" fill-opacity="0.564706" cx="130" cy="20" rx="5" ry="4" />
<ellipse fill="#090a01" fill-opacity="0.474510" cx="255" cy="137" rx="4" ry="19" />
<ellipse fill="#afa997" fill-opacity="0.372549" cx="153" cy="16" rx="23" ry="7" />
<ellipse fill="#8e8976" fill-opacity="0.745098" cx="74" cy="2" rx="22" ry="8" />
<ellipse fill="#322f25" fill-opacity="0.462745" cx="82" cy="12" rx="10" ry="3" />
<ellipse fill="#3e403c" fill-opacity="0.380392" cx="176" cy="9" rx="7" ry="4" />
<ellipse fill="#edf9fa" fill-opacity="0.305882" cx="61" cy="40" rx="5" ry="4" />
<ellipse fill="#a1a18e" fill-opacity="0.498039" cx="88" cy="106" rx="9" ry="19" />
<ellipse fill="#666d5d" fill-opacity="0.435294" cx="67" cy="56" rx="12" ry="16" />
<ellipse fill="#252e25" fill-opacity="0.380392" cx="79" cy="79" rx="4" ry="4" />
<ellipse fill="#413828" fill-opacity="0.450980" cx="140" cy="29" rx="4" ry="5" />
<ellipse fill="#d9dfe6" fill-opacity="0.690196" cx="111" cy="69" rx="9" ry="11" />
<ellipse fill="#b8b5a9" fill-opacity="0.509804" cx="34" cy="39" rx="4" ry="16" />
<ellipse fill="#d2dfec" fill-opacity="0.478431" cx="136" cy="61" rx="9" ry="28" />
<ellipse fill="#bdb7a7" fill-opacity="0.486275" cx="223" cy="41" rx="2" ry="22" />
<ellipse fill="#b3ae9e" fill-opacity="1.000000" cx="176" cy="32" rx="19" ry="2" />
<ellipse fill="#d7dedf" fill-opacity="0.615686" cx="136" cy="95" rx="10" ry="7" />
<ellipse fill="#8c8778" fill-opacity="0.486275" cx="41" cy="80" rx="8" ry="16" />
<ellipse fill="#6f6d64" fill-opacity="0.619608" cx="64" cy="130" rx="23" ry="8" />
<ellipse fill="#3f392c" fill-opacity="0.466667" cx="227" cy="31" rx="2" ry="10" />
<ellipse fill="#d1cdbe" fill-opacity="0.364706" cx="19" cy="48" rx="18" ry="2" />
<ellipse fill="#7f7b6f" fill-opacity="0.415686" cx="187" cy="80" rx="20" ry="3" />
<ellipse fill="#cac3af" fill-opacity="0.623529" cx="184" cy="61" rx="4" ry="19" />
<ellipse fill="#8b8470" fill-opacity="0.607843" cx="134" cy="2" rx="29" ry="9" />
<ellipse fill="#d9dfe5" fill-opacity="0.505882" cx="83" cy="49" rx="10" ry="3" />
<ellipse fill="#746e5c" fill-opacity="0.270588" cx="209" cy="19" rx="13" ry="12" />
<ellipse fill="#fbd4b7" fill-opacity="0.545098" cx="121" cy="96" rx="4" ry="9" />
<ellipse fill="#8a8470" fill-opacity="0.513725" cx="150" cy="120" rx="7" ry="26" />
<ellipse fill="#ddd8c7" fill-opacity="0.490196" cx="203" cy="65" rx="7" ry="7" />
<ellipse fill="#44463e" fill-opacity="0.592157" cx="21" cy="111" rx="18" ry="32" />
<ellipse fill="#817967" fill-opacity="0.423529" cx="153" cy="64" rx="9" ry="9" />
<ellipse fill="#5a5546" fill-opacity="0.439216" cx="5" cy="28" rx="17" ry="3" />
<ellipse fill="#3d4844" fill-opacity="0.560784" cx="69" cy="70" rx="4" ry="6" />
<ellipse fill="#302f28" fill-opacity="0.392157" cx="215" cy="137" rx="13" ry="3" />
<ellipse fill="#4a4b44" fill-opacity="0.501961" cx="240" cy="123" rx="9" ry="52" />
<ellipse fill="#b3957e" fill-opacity="0.517647" cx="125" cy="61" rx="2" ry="28" />
</g>
</svg>