<svg xmlns="http://www.w3.org/2000/svg" version="1.1" width="256" height="143">
<rect x="0" y="0" width="256" height="143" fill="#f0f0f0" />
<g transform="scale(1.000000) translate(0.5 0.5)">
<ellipse fill="#262305" fill-opacity="0.541176" cx="92" cy="101" rx="243" ry="142" />
<ellipse fill="#d0dee8" fill-opacity="0.682353" cx="214" cy="0" rx="181" ry="39" />
<ellipse fill="#121902" fill-opacity="0.537255" cx="12" cy="71" rx="36" ry="75" />
<ellipse fill="#5d5948" fill-opacity="0.866667" cx="91" cy="122" rx="79" ry="15" />
<ellipse fill="#331900" fill-opacity="0.215686" cx="255" cy="84" rx="22" ry="115" />
<ellipse fill="#c3cdd3" fill-opacity="0.725490" cx="201" cy="24" rx="39" ry="24" />
<ellipse fill="#7d7c61" fill-opacity="0.568627" cx="68" cy="25" rx="29" ry="15" />
<ellipse fill="#0c0c03" fill-opacity="0.639216" cx="196" cy="114" rx="8" ry="11" />
<ellipse fill="#585444" fill-opacity="0.615686" cx="152" cy="121" rx="13" ry="74" />
<ellipse fill="#3a4030" fill-opacity="0.737255" cx="34" cy="37" rx="19" ry="23" />
<ellipse fill="#929077" fill-opacity="0.674510" cx="115" cy="46" rx="66" ry="18" />
<ellipse fill="#cbd5dc" fill-opacity="0.784314" cx="140" cy="9" rx="56" ry="18" />
<ellipse fill="#cbb28e" fill-opacity="0.450980" cx="190" cy="97" rx="25" ry="13" />
<ellipse fill="#878167" fill-opacity="0.584314" cx="34" cy="105" rx="20" ry="11" />
<ellipse fill="#494537" fill-opacity="0.701961" cx="138" cy="140" rx="20" ry="9" />
<ellipse fill="#a29980" fill-opacity="0.533333" cx="105" cy="66" rx="19" ry="47" />
<ellipse fill="#fee9c5" fill-opacity="0.482353" cx="207" cy="111" rx="3" ry="17" />
<ellipse fill="#cabc9d" fill-opacity="0.529412" cx="179" cy="114" rx="10" ry="12" />
<ellipse fill="#ae9881" fill-opacity="0.505882" cx="94" cy="138" rx="27" ry="8" />
<ellipse fill="#b4c0ce" fill-opacity="0.545098" cx="36" cy="0" rx="15" ry="10" />
<ellipse fill="#313524" fill-opacity="0.749020" cx="0" cy="67" rx="44" ry="23" />
<ellipse fill="#403f33" fill-opacity="0.576471" cx="73" cy="121" rx="32" ry="9" />
<ellipse fill="#a59a7c" fill-opacity="0.556863" cx="180" cy="137" rx="22" ry="16" />
<ellipse fill="#a4b3bc" fill-opacity="0.521569" cx="236" cy="2" rx="29" ry="34" />
<ellipse fill="#f1f1e6" fill-opacity="0.309804" cx="188" cy="46" rx="9" ry="11" />
<ellipse fill="#7d6632" fill-opacity="0.247059" cx="247" cy="85" rx="40" ry="52" />
<ellipse fill="#edd8bc" fill-opacity="0.705882" cx="199" cy="97" rx="8" ry="4" />
<ellipse fill="#777362" fill-opacity="0.552941" cx="144" cy="76" rx="8" ry="51" />
<ellipse fill="#404038" fill-opacity="0.733333" cx="196" cy="105" rx="8" ry="5" />
<ellipse fill="#7d7a61" fill-opacity="0.600000" cx="53" cy="70" rx="9" ry="32" />
<ellipse fill="#615a41" fill-opacity="0.541176" cx="29" cy="129" rx="20" ry="24" />
<ellipse fill="#b6ad9a" fill-opacity="0.325490" cx="121" cy="129" rx="9" ry="7" />
<ellipse fill="#979781" fill-opacity="0.678431" cx="82" cy="27" rx="27" ry="7" />
<ellipse fill="#a5926f" fill-opacity="0.352941" cx="187" cy="71" rx="27" ry="26" />
<ellipse fill="#525044" fill-opacity="0.509804" cx="153" cy="73" rx="6" ry="28" />
<ellipse fill="#222a24" fill-opacity="0.552941" cx="5" cy="11" rx="26" ry="8" />
<ellipse fill="#5b5438" fill-opacity="0.458824" cx="254" cy="95" rx="11" ry="53" />
<ellipse fill="#bfc9ce" fill-opacity="0.643137" cx="213" cy="24" rx="7" ry="27" />
<ellipse fill="#b4ad9f" fill-opacity="0.419608" cx="124" cy="43" rx="28" ry="5" />
<ellipse fill="#a19a85" fill-opacity="0.600000" cx="41" cy="103" rx="10" ry="5" />
<ellipse fill="#a39372" fill-opacity="0.517647" cx="214" cy="134" rx="9" ry="31" />
<ellipse fill="#252a10" fill-opacity="0.490196" cx="0" cy="96" rx="5" ry="53" />
<ellipse fill="#000000" fill-opacity="0.317647" cx="197" cy="121" rx="12" ry="3" />
<ellipse fill="#858a71" fill-opacity="0.564706" cx="138" cy="35" rx="26" ry="6" />
<ellipse fill="#a69f8c" fill-opacity="0.560784" cx="136" cy="121" rx="5" ry="4" />
<ellipse fill="#636c54" fill-opacity="0.541176" cx="162" cy="42" rx="12" ry="5" />
<ellipse fill="#b0bcc2" fill-opacity="0.584314" cx="243" cy="33" rx="2" ry="14" />
<ellipse fill="#9f8465" fill-opacity="0.380392" cx="41" cy="140" rx="42" ry="3" />
<ellipse fill="#101514" fill-opacity="0.509804" cx="172" cy="68" rx="2" ry="4" />
<ellipse fill="#646d43" fill-opacity="0.600000" cx="10" cy="116" rx="11" ry="5" />
<ellipse fill="#b6b1a2" fill-opacity="0.388235" cx="177" cy="50" rx="21" ry="5" />
<ellipse fill="#4e503b" fill-opacity="0.478431" cx="27" cy="90" rx="13" ry="14" />
<ellipse fill="#908567" fill-opacity="0.427451" cx="248" cy="124" rx="53" ry="5" />
<ellipse fill="#3b3829" fill-opacity="0.305882" cx="162" cy="105" rx="5" ry="20" />
<ellipse fill="#ab9d88" fill-opacity="1.000000" cx="187" cy="101" rx="13" ry="1" />
<ellipse fill="#979477" fill-opacity="0.450980" cx="70" cy="54" rx="30" ry="7" />
<ellipse fill="#b9c1c5" fill-opacity="0.494118" cx="46" cy="12" rx="5" ry="8" />
<ellipse fill="#c4ced4" fill-opacity="0.564706" cx="187" cy="16" rx="24" ry="28" />
<ellipse fill="#817d68" fill-opacity="0.678431" cx="89" cy="73" rx="6" ry="21" />
<ellipse fill="#877d63" fill-opacity="0.415686" cx="227" cy="71" rx="19" ry="30" />
<ellipse fill="#a29c80" fill-opacity="0.592157" cx="163" cy="137" rx="4" ry="14" />
<ellipse fill="#c5d0d8" fill-opacity="0.603922" cx="82" cy="1" rx="31" ry="11" />
<ellipse fill="#0e181a" fill-opacity="0.301961" cx="30" cy="18" rx="11" ry="8" />
<ellipse fill="#dde8f0" fill-opacity="0.262745" cx="125" cy="21" rx="15" ry="11" />
<ellipse fill="#e0c9ae" fill-opacity="0.584314" cx="203" cy="94" rx="5" ry="8" />
<ellipse fill="#504d3f" fill-opacity="0.501961" cx="148" cy="137" rx="12" ry="19" />
<ellipse fill="#746452" fill-opacity="0.552941" cx="59" cy="135" rx="30" ry="5" />
<ellipse fill="#494f3a" fill-opacity="0.317647" cx="31" cy="43" rx="26" ry="16" />
<ellipse fill="#635e4e" fill-opacity="0.411765" cx="105" cy="119" rx="28" ry="12" />
<ellipse fill="#b7bebd" fill-opacity="0.439216" cx="227" cy="27" rx="7" ry="21" />
<ellipse fill="#837b66" fill-opacity="0.498039" cx="63" cy="86" rx="21" ry="23" />
<ellipse fill="#7a7461" fill-opacity="0.560784" cx="140" cy="79" rx="11" ry="30" />
<ellipse fill="#93896f" fill-opacity="0.576471" cx="174" cy="88" rx="11" ry="19" />
<ellipse fill="#1e2901" fill-opacity="0.239216" cx="0" cy="128" rx="23" ry="9" />
<ellipse fill="#16241b" fill-opacity="0.211765" cx="43" cy="32" rx="11" ry="14" />
<ellipse fill="#14150e" fill-opacity="0.470588" cx="192" cy="113" rx="4" ry="12" />
<ellipse fill="#a09882" fill-opacity="0.529412" cx="62" cy="18" rx="18" ry="6" />
<ellipse fill="#5b4d31" fill-opacity="0.509804" cx="243" cy="111" rx="17" ry="5" />
<ellipse fill="#2b3018" fill-opacity="0.521569" cx="6" cy="99" rx="13" ry="6" />
<ellipse fill="#312f28" fill-opacity="0.239216" cx="55" cy="113" rx="17" ry="7" />
<ellipse fill="#434033" fill-opacity="0.592157" cx="124" cy="142" rx="10" ry="4" />
<ellipse fill="#94a1a7" fill-opacity="0.564706" cx="255" cy="22" rx="4" ry="22" />
<ellipse fill="#887c60" fill-opacity="0.615686" cx="228" cy="142" rx="13" ry="30" />
<ellipse fill="#8d8468" fill-opacity="0.486275" cx="202" cy="51" rx="7" ry="8" />
<ellipse fill="#7e7762" fill-opacity="0.533333" cx="174" cy="126" rx="9" ry="5" />
<ellipse fill="#748393" fill-opacity="0.086275" cx="220" cy="0" rx="50" ry="17" />
<ellipse fill="#ffdc9c" fill-opacity="0.070588" cx="95" cy="93" rx="16" ry="16" />
<ellipse fill="#b0bcc3" fill-opacity="0.345098" cx="42" cy="0" rx="26" ry="5" />
<ellipse fill="#a8a28e" fill-opacity="0.509804" cx="116" cy="135" rx="6" ry="5" />
<ellipse fill="#b3a890" fill-opacity="0.796078" cx="186" cy="105" rx="3" ry="14" />
<ellipse fill="#a1967e" fill-opacity="0.470588" cx="198" cy="139" rx="15" ry="16" />
<ellipse fill="#ebdfc4" fill-opacity="0.560784" cx="207" cy="108" rx="2" ry="12" />
<ellipse fill="#878669" fill-opacity="0.427451" cx="20" cy="98" rx="3" ry="10" />
<ellipse fill="#968c76" fill-opacity="0.447059" cx="119" cy="80" rx="13" ry="31" />
<ellipse fill="#5d5e48" fill-opacity="0.533333" cx="11" cy="34" rx="19" ry="4" />
<ellipse fill="#979682" fill-opacity="0.678431" cx="83" cy="22" rx="6" ry="12" />
<ellipse fill="#a5987a" fill-opacity="0.545098" cx="170" cy="112" rx="3" ry="13" />
<ellipse fill="#999583" fill-opacity="0.549020" cx="132" cy="124" rx="5" ry="3" />
<ellipse fill="#63644a" fill-opacity="0.380392" cx="15" cy="73" rx="6" ry="7" />
<ellipse fill="#d0dade" fill-opacity="0.619608" cx="169" cy="27" rx="23" ry="3" />
</g>
</svg>