<svg xmlns="http://www.w3.org/2000/svg" version="1.1" width="256" height="143">
<rect x="0" y="0" width="256" height="143" fill="#f0f0f0" />
<g transform="scale(1.000000) translate(0.5 0.5)">
<ellipse fill="#434b33" fill-opacity="0.831373" cx="119" cy="97" rx="255" ry="56" />
<ellipse fill="#384128" fill-opacity="0.650980" cx="240" cy="76" rx="50" ry="77" />
<ellipse fill="#a7b4a0" fill-opacity="0.784314" cx="29" cy="47" rx="184" ry="23" />
<ellipse fill="#3b504e" fill-opacity="0.588235" cx="20" cy="45" rx="37" ry="27" />
<ellipse fill="#ffffff" fill-opacity="0.803922" cx="105" cy="22" rx="32" ry="40" />
<ellipse fill="#fbfffd" fill-opacity="0.698039" cx="215" cy="1" rx="16" ry="16" />
<ellipse fill="#33322d" fill-opacity="0.529412" cx="17" cy="131" rx="47" ry="45" />
<ellipse fill="#ffffff" fill-opacity="0.819608" cx="166" cy="19" rx="20" ry="26" />
<ellipse fill="#231723" fill-opacity="0.305882" cx="237" cy="142" rx="97" ry="60" />
<ellipse fill="#7c9162" fill-opacity="0.400000" cx="206" cy="49" rx="24" ry="34" />
<ellipse fill="#5a6c4b" fill-opacity="0.780392" cx="255" cy="27" rx="26" ry="29" />
<ellipse fill="#829478" fill-opacity="0.549020" cx="48" cy="56" rx="19" ry="34" />
<ellipse fill="#ffffff" fill-opacity="0.603922" cx="128" cy="16" rx="77" ry="19" />
<ellipse fill="#a6bf50" fill-opacity="0.317647" cx="85" cy="71" rx="71" ry="8" />
<ellipse fill="#5a6250" fill-opacity="0.427451" cx="177" cy="82" rx="56" ry="28" />
<ellipse fill="#94a695" fill-opacity="0.549020" cx="143" cy="39" rx="17" ry="6" />
<ellipse fill="#28323a" fill-opacity="0.223529" cx="7" cy="51" rx="30" ry="23" />
<ellipse fill="#fffd20" fill-opacity="0.207843" cx="255" cy="45" rx="52" ry="5" />
<ellipse fill="#56554b" fill-opacity="0.529412" cx="104" cy="118" rx="69" ry="28" />
<ellipse fill="#9faea2" fill-opacity="0.709804" cx="82" cy="55" rx="8" ry="12" />
<ellipse fill="#24271c" fill-opacity="0.560784" cx="255" cy="113" rx="17" ry="57" />
<ellipse fill="#dce383" fill-opacity="0.282353" cx="148" cy="52" rx="30" ry="9" />
<ellipse fill="#98a563" fill-opacity="0.443137" cx="131" cy="65" rx="30" ry="8" />
<ellipse fill="#6c7a50" fill-opacity="0.968627" cx="40" cy="79" rx="115" ry="4" />
<ellipse fill="#95a8a0" fill-opacity="0.447059" cx="192" cy="31" rx="13" ry="7" />
<ellipse fill="#ffffff" fill-opacity="0.698039" cx="53" cy="7" rx="42" ry="13" />
<ellipse fill="#fafff1" fill-opacity="0.494118" cx="3" cy="15" rx="10" ry="10" />
<ellipse fill="#ffffff" fill-opacity="0.619608" cx="100" cy="19" rx="32" ry="31" />
<ellipse fill="#5a731b" fill-opacity="0.196078" cx="223" cy="61" rx="64" ry="13" />
<ellipse fill="#bdcac0" fill-opacity="0.709804" cx="230" cy="0" rx="11" ry="3" />
<ellipse fill="#ffffff" fill-opacity="0.478431" cx="220" cy="9" rx="5" ry="10" />
<ellipse fill="#2d2d23" fill-opacity="0.415686" cx="24" cy="127" rx="17" ry="14" />
<ellipse fill="#c2cacc" fill-opacity="0.501961" cx="252" cy="18" rx="7" ry="3" />
<ellipse fill="#65756e" fill-opacity="0.474510" cx="18" cy="34" rx="9" ry="18" />
<ellipse fill="#ffffd7" fill-opacity="0.294118" cx="106" cy="58" rx="21" ry="6" />
<ellipse fill="#001834" fill-opacity="0.129412" cx="238" cy="34" rx="49" ry="6" />
<ellipse fill="#dfe9e2" fill-opacity="0.462745" cx="197" cy="17" rx="12" ry="12" />
<ellipse fill="#6d766f" fill-opacity="0.415686" cx="131" cy="76" rx="27" ry="14" />
<ellipse fill="#7489a8" fill-opacity="0.247059" cx="57" cy="45" rx="18" ry="23" />
<ellipse fill="#b7bf4e" fill-opacity="0.423529" cx="22" cy="77" rx="15" ry="3" />
<ellipse fill="#ffffff" fill-opacity="0.560784" cx="162" cy="41" rx="6" ry="6" />
<ellipse fill="#cfd25a" fill-opacity="0.407843" cx="58" cy="70" rx="17" ry="3" />
<ellipse fill="#37473e" fill-opacity="0.592157" cx="0" cy="64" rx="18" ry="8" />
<ellipse fill="#ffffff" fill-opacity="0.627451" cx="122" cy="20" rx="33" ry="17" />
<ellipse fill="#bdc283" fill-opacity="0.415686" cx="182" cy="48" rx="25" ry="5" />
<ellipse fill="#414236" fill-opacity="0.709804" cx="206" cy="133" rx="20" ry="30" />
<ellipse fill="#bac19b" fill-opacity="0.466667" cx="130" cy="61" rx="5" ry="13" />
<ellipse fill="#55584c" fill-opacity="0.368627" cx="51" cy="107" rx="31" ry="23" />
<ellipse fill="#546331" fill-opacity="0.552941" cx="249" cy="52" rx="23" ry="8" />
<ellipse fill="#737975" fill-opacity="0.474510" cx="90" cy="87" rx="17" ry="7" />
<ellipse fill="#839794" fill-opacity="0.427451" cx="210" cy="19" rx="6" ry="9" />
<ellipse fill="#ffffff" fill-opacity="0.760784" cx="190" cy="4" rx="22" ry="11" />
<ellipse fill="#4c4a47" fill-opacity="0.294118" cx="201" cy="99" rx="49" ry="22" />
<ellipse fill="#686d62" fill-opacity="0.407843" cx="1" cy="142" rx="16" ry="16" />
<ellipse fill="#ffffff" fill-opacity="0.509804" cx="106" cy="33" rx="21" ry="25" />
<ellipse fill="#9da99d" fill-opacity="0.549020" cx="143" cy="44" rx="13" ry="10" />
<ellipse fill="#aab3a9" fill-opacity="0.478431" cx="1" cy="49" rx="2" ry="7" />
<ellipse fill="#687c51" fill-opacity="0.560784" cx="161" cy="65" rx="30" ry="7" />
<ellipse fill="#41412f" fill-opacity="0.219608" cx="94" cy="138" rx="64" ry="9" />
<ellipse fill="#4f5f57" fill-opacity="0.713725" cx="255" cy="2" rx="12" ry="16" />
<ellipse fill="#838386" fill-opacity="0.560784" cx="199" cy="76" rx="14" ry="2" />
<ellipse fill="#2e302b" fill-opacity="0.168627" cx="237" cy="81" rx="34" ry="22" />
<ellipse fill="#5c7146" fill-opacity="0.607843" cx="84" cy="77" rx="33" ry="5" />
<ellipse fill="#fefffd" fill-opacity="0.588235" cx="39" cy="18" rx="4" ry="6" />
<ellipse fill="#bdc3c2" fill-opacity="0.592157" cx="255" cy="23" rx="2" ry="4" />
<ellipse fill="#b1bdae" fill-opacity="0.478431" cx="25" cy="19" rx="9" ry="2" />
<ellipse fill="#272b22" fill-opacity="0.443137" cx="5" cy="113" rx="6" ry="10" />
<ellipse fill="#b3ba52" fill-opacity="0.431373" cx="92" cy="67" rx="21" ry="4" />
<ellipse fill="#c9c8c0" fill-opacity="0.494118" cx="122" cy="72" rx="2" ry="5" />
<ellipse fill="#f1f7f4" fill-opacity="0.388235" cx="181" cy="39" rx="6" ry="5" />
<ellipse fill="#697749" fill-opacity="0.301961" cx="220" cy="54" rx="29" ry="8" />
<ellipse fill="#f1f6f2" fill-opacity="0.337255" cx="247" cy="17" rx="3" ry="3" />
<ellipse fill="#d6d840" fill-opacity="0.172549" cx="159" cy="55" rx="26" ry="5" />
<ellipse fill="#6b8173" fill-opacity="0.552941" cx="230" cy="17" rx="7" ry="8" />
<ellipse fill="#90a498" fill-opacity="0.447059" cx="195" cy="17" rx="6" ry="2" />
<ellipse fill="#667878" fill-opacity="0.466667" cx="31" cy="41" rx="11" ry="22" />
<ellipse fill="#c0c6c4" fill-opacity="0.466667" cx="155" cy="46" rx="24" ry="2" />
<ellipse fill="#140f07" fill-opacity="0.203922" cx="249" cy="135" rx="28" ry="13" />
<ellipse fill="#535650" fill-opacity="0.513725" cx="121" cy="92" rx="31" ry="7" />
<ellipse fill="#636558" fill-opacity="0.470588" cx="115" cy="114" rx="30" ry="17" />
<ellipse fill="#d9d6bd" fill-opacity="0.219608" cx="255" cy="19" rx="1" ry="23" />
<ellipse fill="#98a695" fill-opacity="0.494118" cx="134" cy="53" rx="15" ry="3" />
<ellipse fill="#5a5e52" fill-opacity="0.364706" cx="193" cy="101" rx="11" ry="24" />
<ellipse fill="#ece98b" fill-opacity="0.415686" cx="99" cy="63" rx="14" ry="2" />
<ellipse fill="#4d5e50" fill-opacity="0.368627" cx="237" cy="28" rx="15" ry="12" />
<ellipse fill="#cfd3c6" fill-opacity="0.537255" cx="11" cy="42" rx="3" ry="3" />
<ellipse fill="#565b47" fill-opacity="0.364706" cx="118" cy="63" rx="6" ry="2" />
<ellipse fill="#c3c15b" fill-opacity="0.619608" cx="233" cy="43" rx="10" ry="2" />
<ellipse fill="#19261c" fill-opacity="0.329412" cx="250" cy="29" rx="4" ry="6" />
<ellipse fill="#cdd444" fill-opacity="0.317647" cx="39" cy="75" rx="13" ry="2" />
<ellipse fill="#52653f" fill-opacity="0.431373" cx="152" cy="75" rx="17" ry="6" />
<ellipse fill="#829384" fill-opacity="0.686275" cx="58" cy="62" rx="22" ry="4" />
<ellipse fill="#9baba4" fill-opacity="0.501961" cx="76" cy="49" rx="11" ry="7" />
<ellipse fill="#a8a948" fill-opacity="0.572549" cx="251" cy="41" rx="14" ry="2" />
<ellipse fill="#969d45" fill-opacity="0.607843" cx="1" cy="79" rx="26" ry="2" />
<ellipse fill="#9fae9f" fill-opacity="0.458824" cx="194" cy="26" rx="2" ry="11" />
<ellipse fill="#ffffff" fill-opacity="0.470588" cx="201" cy="19" rx="3" ry="9" />
<ellipse fill="#f3f6ee" fill-opacity="0.733333" cx="6" cy="2" rx="5" ry="22" />
<ellipse fill="#f0eed8" fill-opacity="0.443137" cx="150" cy="46" rx="2" ry="5" />
<ellipse fill="#687c74" fill-opacity="0.419608" cx="224" cy="24" rx="21" ry="7" />
</g>
</svg>