<svg xmlns="http://www.w3.org/2000/svg" version="1.1" width="256" height="143">
<rect x="0" y="0" width="256" height="143" fill="#f0f0f0" />
<g transform="scale(1.000000) translate(0.5 0.5)">
<ellipse fill="#2f2e11" fill-opacity="0.596078" cx="135" cy="88" rx="178" ry="142" />
<ellipse fill="#211a0b" fill-opacity="0.474510" cx="254" cy="121" rx="68" ry="50" />
<ellipse fill="#adb5b9" fill-opacity="0.486275" cx="179" cy="7" rx="158" ry="45" />
<ellipse fill="#313715" fill-opacity="0.364706" cx="0" cy="100" rx="51" ry="35" />
<ellipse fill="#575234" fill-opacity="0.674510" cx="164" cy="92" rx="31" ry="15" />
<ellipse fill="#ac9a6d" fill-opacity="0.572549" cx="82" cy="129" rx="61" ry="18" />
<ellipse fill="#000000" fill-opacity="0.572549" cx="52" cy="105" rx="13" ry="6" />
<ellipse fill="#080700" fill-opacity="0.760784" cx="236" cy="86" rx="20" ry="6" />
<ellipse fill="#6b644d" fill-opacity="0.619608" cx="198" cy="142" rx="35" ry="69" />
<ellipse fill="#4a4e34" fill-opacity="0.956863" cx="2" cy="122" rx="15" ry="21" />
<ellipse fill="#322c18" fill-opacity="0.474510" cx="131" cy="81" rx="14" ry="8" />
<ellipse fill="#adb3b7" fill-opacity="0.360784" cx="154" cy="0" rx="86" ry="22" />
<ellipse fill="#c1ab7b" fill-opacity="0.443137" cx="101" cy="98" rx="26" ry="9" />
<ellipse fill="#3d3b31" fill-opacity="0.427451" cx="180" cy="142" rx="34" ry="12" />
<ellipse fill="#8b8d7f" fill-opacity="0.725490" cx="162" cy="46" rx="99" ry="13" />
<ellipse fill="#160f00" fill-opacity="0.466667" cx="81" cy="82" rx="4" ry="8" />
<ellipse fill="#060903" fill-opacity="0.615686" cx="255" cy="103" rx="12" ry="8" />
<ellipse fill="#86784e" fill-opacity="0.560784" cx="132" cy="137" rx="36" ry="11" />
<ellipse fill="#baa77a" fill-opacity="0.549020" cx="159" cy="120" rx="17" ry="5" />
<ellipse fill="#858b86" fill-opacity="0.709804" cx="56" cy="27" rx="37" ry="15" />
<ellipse fill="#d7c8b5" fill-opacity="0.560784" cx="15" cy="97" rx="6" ry="3" />
<ellipse fill="#a09675" fill-opacity="0.709804" cx="78" cy="129" rx="22" ry="31" />
<ellipse fill="#605744" fill-opacity="0.713725" cx="255" cy="72" rx="24" ry="11" />
<ellipse fill="#312c1d" fill-opacity="0.435294" cx="109" cy="110" rx="12" ry="4" />
<ellipse fill="#878367" fill-opacity="0.478431" cx="191" cy="84" rx="13" ry="27" />
<ellipse fill="#707059" fill-opacity="0.560784" cx="33" cy="67" rx="103" ry="13" />
<ellipse fill="#39372b" fill-opacity="0.592157" cx="250" cy="142" rx="22" ry="22" />
<ellipse fill="#596362" fill-opacity="0.458824" cx="0" cy="31" rx="14" ry="30" />
<ellipse fill="#a89e8a" fill-opacity="0.603922" cx="48" cy="96" rx="11" ry="3" />
<ellipse fill="#afa392" fill-opacity="0.450980" cx="141" cy="107" rx="17" ry="4" />
<ellipse fill="#3e382c" fill-opacity="0.478431" cx="101" cy="63" rx="6" ry="6" />
<ellipse fill="#070900" fill-opacity="0.082353" cx="255" cy="0" rx="11" ry="92" />
<ellipse fill="#adada5" fill-opacity="0.266667" cx="199" cy="16" rx="34" ry="28" />
<ellipse fill="#27271e" fill-opacity="0.639216" cx="41" cy="108" rx="4" ry="9" />
<ellipse fill="#81806c" fill-opacity="0.470588" cx="149" cy="63" rx="30" ry="18" />
<ellipse fill="#292714" fill-opacity="0.474510" cx="84" cy="80" rx="6" ry="4" />
<ellipse fill="#878a70" fill-opacity="0.443137" cx="51" cy="61" rx="44" ry="7" />
<ellipse fill="#666c56" fill-opacity="0.564706" cx="41" cy="78" rx="25" ry="11" />
<ellipse fill="#7a8083" fill-opacity="0.482353" cx="20" cy="12" rx="16" ry="20" />
<ellipse fill="#535040" fill-opacity="0.611765" cx="212" cy="121" rx="27" ry="10" />
<ellipse fill="#7c8377" fill-opacity="0.482353" cx="192" cy="62" rx="46" ry="18" />
<ellipse fill="#41442c" fill-opacity="0.380392" cx="150" cy="93" rx="13" ry="10" />
<ellipse fill="#aea08e" fill-opacity="0.368627" cx="107" cy="51" rx="28" ry="5" />
<ellipse fill="#797757" fill-opacity="0.529412" cx="197" cy="82" rx="21" ry="12" />
<ellipse fill="#7d7866" fill-opacity="0.396078" cx="240" cy="116" rx="10" ry="6" />
<ellipse fill="#8a7b4c" fill-opacity="0.564706" cx="23" cy="138" rx="12" ry="10" />
<ellipse fill="#a39466" fill-opacity="0.505882" cx="145" cy="124" rx="23" ry="7" />
<ellipse fill="#988f71" fill-opacity="0.596078" cx="111" cy="96" rx="24" ry="11" />
<ellipse fill="#2d2b1f" fill-opacity="0.470588" cx="122" cy="78" rx="4" ry="9" />
<ellipse fill="#232418" fill-opacity="0.521569" cx="194" cy="115" rx="8" ry="4" />
<ellipse fill="#95896e" fill-opacity="0.431373" cx="193" cy="110" rx="21" ry="3" />
<ellipse fill="#646941" fill-opacity="0.415686" cx="93" cy="114" rx="11" ry="4" />
<ellipse fill="#807964" fill-opacity="0.517647" cx="190" cy="125" rx="9" ry="5" />
<ellipse fill="#89877b" fill-opacity="0.482353" cx="223" cy="135" rx="6" ry="5" />
<ellipse fill="#413d29" fill-opacity="0.470588" cx="62" cy="101" rx="7" ry="4" />
<ellipse fill="#3b3724" fill-opacity="0.556863" cx="159" cy="106" rx="2" ry="9" />
<ellipse fill="#000100" fill-opacity="0.360784" cx="237" cy="89" rx="19" ry="4" />
<ellipse fill="#b9a795" fill-opacity="0.368627" cx="71" cy="85" rx="6" ry="9" />
<ellipse fill="#949895" fill-opacity="0.474510" cx="124" cy="18" rx="72" ry="11" />
<ellipse fill="#6d6858" fill-opacity="0.400000" cx="227" cy="101" rx="13" ry="11" />
<ellipse fill="#1b1c16" fill-opacity="0.415686" cx="249" cy="107" rx="28" ry="3" />
<ellipse fill="#28281f" fill-opacity="0.470588" cx="205" cy="137" rx="4" ry="13" />
<ellipse fill="#32342b" fill-opacity="0.439216" cx="173" cy="132" rx="14" ry="3" />
<ellipse fill="#baa584" fill-opacity="0.462745" cx="38" cy="124" rx="11" ry="5" />
<ellipse fill="#6b6742" fill-opacity="0.533333" cx="102" cy="142" rx="9" ry="7" />
<ellipse fill="#676446" fill-opacity="0.513725" cx="171" cy="87" rx="24" ry="10" />
<ellipse fill="#2f2c1b" fill-opacity="0.537255" cx="79" cy="88" rx="3" ry="5" />
<ellipse fill="#313417" fill-opacity="0.443137" cx="3" cy="137" rx="9" ry="12" />
<ellipse fill="#a7956f" fill-opacity="0.411765" cx="169" cy="116" rx="17" ry="5" />
<ellipse fill="#5d5e45" fill-opacity="0.439216" cx="4" cy="113" rx="37" ry="12" />
<ellipse fill="#fbf2e2" fill-opacity="0.501961" cx="108" cy="46" rx="2" ry="2" />
<ellipse fill="#878147" fill-opacity="0.360784" cx="66" cy="127" rx="23" ry="4" />
<ellipse fill="#8d8266" fill-opacity="0.603922" cx="105" cy="80" rx="13" ry="12" />
<ellipse fill="#a29a7b" fill-opacity="0.341176" cx="87" cy="114" rx="11" ry="31" />
<ellipse fill="#5e5c4c" fill-opacity="0.439216" cx="235" cy="131" rx="66" ry="2" />
<ellipse fill="#9f957e" fill-opacity="0.545098" cx="55" cy="95" rx="9" ry="5" />
<ellipse fill="#847c5c" fill-opacity="0.788235" cx="100" cy="105" rx="6" ry="5" />
<ellipse fill="#9e947b" fill-opacity="0.498039" cx="123" cy="102" rx="23" ry="5" />
<ellipse fill="#827d64" fill-opacity="0.411765" cx="24" cy="102" rx="13" ry="6" />
<ellipse fill="#68614f" fill-opacity="0.713725" cx="109" cy="63" rx="10" ry="6" />
<ellipse fill="#667367" fill-opacity="0.349020" cx="34" cy="46" rx="42" ry="8" />
<ellipse fill="#d3b187" fill-opacity="0.207843" cx="62" cy="115" rx="13" ry="7" />
<ellipse fill="#aeabb1" fill-opacity="0.333333" cx="97" cy="128" rx="7" ry="7" />
<ellipse fill="#1d1e13" fill-opacity="0.403922" cx="47" cy="107" rx="10" ry="6" />
<ellipse fill="#33342a" fill-opacity="0.498039" cx="206" cy="101" rx="6" ry="4" />
<ellipse fill="#73664f" fill-opacity="0.478431" cx="233" cy="76" rx="12" ry="4" />
<ellipse fill="#15130a" fill-opacity="0.345098" cx="249" cy="142" rx="3" ry="27" />
<ellipse fill="#887f5d" fill-opacity="0.494118" cx="140" cy="80" rx="7" ry="4" />
<ellipse fill="#171711" fill-opacity="0.486275" cx="222" cy="129" rx="4" ry="3" />
<ellipse fill="#3f3f32" fill-opacity="0.419608" cx="131" cy="85" rx="20" ry="3" />
<ellipse fill="#a1a4a2" fill-opacity="0.611765" cx="71" cy="0" rx="28" ry="11" />
<ellipse fill="#5f5b41" fill-opacity="0.807843" cx="168" cy="97" rx="9" ry="14" />
<ellipse fill="#838075" fill-opacity="0.262745" cx="229" cy="141" rx="18" ry="4" />
<ellipse fill="#1e1b11" fill-opacity="0.549020" cx="226" cy="85" rx="8" ry="7" />
<ellipse fill="#201e16" fill-opacity="0.505882" cx="219" cy="112" rx="6" ry="2" />
<ellipse fill="#44433c" fill-opacity="0.368627" cx="89" cy="74" rx="5" ry="6" />
<ellipse fill="#787160" fill-opacity="0.505882" cx="137" cy="113" rx="24" ry="4" />
<ellipse fill="#706956" fill-opacity="0.450980" cx="224" cy="124" rx="19" ry="3" />
<ellipse fill="#8b877b" fill-opacity="0.619608" cx="118" cy="116" rx="15" ry="4" />
<ellipse fill="#969888" fill-opacity="0.294118" cx="227" cy="45" rx="28" ry="17" />
</g>
</svg>