<svg xmlns="http://www.w3.org/2000/svg" version="1.1" width="256" height="190">
<rect x="0" y="0" width="256" height="190" fill="#f0f0f0" />
<g transform="scale(1.000000) translate(0.5 0.5)">
<ellipse fill="#616457" fill-opacity="0.756863" cx="136" cy="73" rx="178" ry="189" />
<ellipse fill="#0d110f" fill-opacity="0.737255" cx="118" cy="21" rx="40" ry="100" />
<ellipse fill="#e2e3d7" fill-opacity="0.541176" cx="194" cy="56" rx="23" ry="189" />
<ellipse fill="#3d4342" fill-opacity="0.631373" cx="97" cy="159" rx="43" ry="59" />
<ellipse fill="#fffff1" fill-opacity="0.317647" cx="19" cy="127" rx="38" ry="88" />
<ellipse fill="#b5b6a8" fill-opacity="0.501961" cx="226" cy="143" rx="61" ry="121" />
<ellipse fill="#6f6c62" fill-opacity="0.647059" cx="152" cy="85" rx="27" ry="39" />
<ellipse fill="#bec1b4" fill-opacity="0.419608" cx="64" cy="62" rx="26" ry="39" />
<ellipse fill="#050a09" fill-opacity="0.631373" cx="113" cy="23" rx="37" ry="38" />
<ellipse fill="#daddd5" fill-opacity="0.443137" cx="187" cy="30" rx="28" ry="35" />
<ellipse fill="#70746d" fill-opacity="0.403922" cx="80" cy="77" rx="24" ry="40" />
<ellipse fill="#fcfff5" fill-opacity="0.505882" cx="60" cy="39" rx="10" ry="13" />
<ellipse fill="#585c53" fill-opacity="0.517647" cx="171" cy="65" rx="21" ry="9" />
<ellipse fill="#4d4b43" fill-opacity="0.929412" cx="141" cy="160" rx="24" ry="5" />
<ellipse fill="#928978" fill-opacity="0.466667" cx="191" cy="183" rx="62" ry="20" />
<ellipse fill="#ffffff" fill-opacity="0.443137" cx="199" cy="59" rx="9" ry="19" />
<ellipse fill="#f3f7f7" fill-opacity="0.474510" cx="4" cy="70" rx="6" ry="23" />
<ellipse fill="#bfc3b7" fill-opacity="0.517647" cx="244" cy="134" rx="21" ry="26" />
<ellipse fill="#746e63" fill-opacity="1.000000" cx="136" cy="127" rx="9" ry="34" />
<ellipse fill="#9fa08f" fill-opacity="0.682353" cx="36" cy="62" rx="13" ry="108" />
<ellipse fill="#7e7f6a" fill-opacity="0.360784" cx="207" cy="5" rx="18" ry="21" />
<ellipse fill="#1c282e" fill-opacity="0.556863" cx="97" cy="115" rx="7" ry="27" />
<ellipse fill="#3b3d36" fill-opacity="0.580392" cx="150" cy="45" rx="13" ry="17" />
<ellipse fill="#646d67" fill-opacity="0.525490" cx="64" cy="111" rx="19" ry="13" />
<ellipse fill="#fcfff1" fill-opacity="0.223529" cx="71" cy="0" rx="7" ry="46" />
<ellipse fill="#9b9382" fill-opacity="0.545098" cx="119" cy="131" rx="3" ry="27" />
<ellipse fill="#060905" fill-opacity="0.494118" cx="135" cy="124" rx="11" ry="4" />
<ellipse fill="#39464c" fill-opacity="0.568627" cx="71" cy="183" rx="17" ry="49" />
<ellipse fill="#000207" fill-opacity="0.568627" cx="61" cy="66" rx="4" ry="5" />
<ellipse fill="#f0f0e8" fill-opacity="0.474510" cx="204" cy="107" rx="8" ry="16" />
<ellipse fill="#a5ada5" fill-opacity="0.580392" cx="167" cy="0" rx="14" ry="19" />
<ellipse fill="#c9cbbf" fill-opacity="0.564706" cx="167" cy="55" rx="8" ry="7" />
<ellipse fill="#473b32" fill-opacity="0.576471" cx="145" cy="178" rx="25" ry="3" />
<ellipse fill="#d6d6d0" fill-opacity="0.619608" cx="0" cy="134" rx="25" ry="8" />
<ellipse fill="#a6a99f" fill-opacity="0.627451" cx="185" cy="102" rx="12" ry="34" />
<ellipse fill="#929385" fill-opacity="0.894118" cx="17" cy="39" rx="36" ry="11" />
<ellipse fill="#8c8c81" fill-opacity="0.698039" cx="82" cy="84" rx="9" ry="25" />
<ellipse fill="#565a54" fill-opacity="0.772549" cx="155" cy="73" rx="15" ry="12" />
<ellipse fill="#888c7e" fill-opacity="0.525490" cx="232" cy="73" rx="30" ry="9" />
<ellipse fill="#757263" fill-opacity="0.501961" cx="109" cy="166" rx="15" ry="41" />
<ellipse fill="#ada49b" fill-opacity="0.447059" cx="146" cy="149" rx="18" ry="8" />
<ellipse fill="#161a17" fill-opacity="0.631373" cx="132" cy="87" rx="14" ry="4" />
<ellipse fill="#d9ded9" fill-opacity="0.505882" cx="52" cy="56" rx="10" ry="6" />
<ellipse fill="#f5f3eb" fill-opacity="0.333333" cx="55" cy="87" rx="9" ry="8" />
<ellipse fill="#f7fcff" fill-opacity="0.454902" cx="52" cy="135" rx="4" ry="12" />
<ellipse fill="#0b0f0e" fill-opacity="0.631373" cx="133" cy="14" rx="22" ry="24" />
<ellipse fill="#a4a196" fill-opacity="0.443137" cx="174" cy="107" rx="31" ry="10" />
<ellipse fill="#202929" fill-opacity="0.403922" cx="125" cy="133" rx="4" ry="75" />
<ellipse fill="#515d5b" fill-opacity="0.298039" cx="69" cy="154" rx="28" ry="13" />
<ellipse fill="#1b1f1c" fill-opacity="0.541176" cx="150" cy="121" rx="10" ry="3" />
<ellipse fill="#cfcdc4" fill-opacity="0.364706" cx="40" cy="187" rx="14" ry="22" />
<ellipse fill="#817c6b" fill-opacity="0.439216" cx="149" cy="63" rx="8" ry="17" />
<ellipse fill="#faf7ef" fill-opacity="0.439216" cx="209" cy="149" rx="3" ry="17" />
<ellipse fill="#eaede5" fill-opacity="0.501961" cx="186" cy="28" rx="5" ry="27" />
<ellipse fill="#646b59" fill-opacity="0.435294" cx="251" cy="15" rx="16" ry="16" />
<ellipse fill="#808074" fill-opacity="0.619608" cx="68" cy="63" rx="6" ry="21" />
<ellipse fill="#232a26" fill-opacity="0.580392" cx="108" cy="117" rx="10" ry="10" />
<ellipse fill="#444b49" fill-opacity="0.537255" cx="99" cy="73" rx="19" ry="8" />
<ellipse fill="#65665d" fill-opacity="0.901961" cx="174" cy="83" rx="11" ry="2" />
<ellipse fill="#f7f1dd" fill-opacity="0.286275" cx="207" cy="28" rx="5" ry="48" />
<ellipse fill="#f0f4ed" fill-opacity="0.541176" cx="4" cy="87" rx="10" ry="6" />
<ellipse fill="#959689" fill-opacity="0.603922" cx="0" cy="103" rx="30" ry="12" />
<ellipse fill="#8f9482" fill-opacity="0.509804" cx="240" cy="53" rx="25" ry="25" />
<ellipse fill="#828173" fill-opacity="0.564706" cx="176" cy="62" rx="12" ry="9" />
<ellipse fill="#eaf3f7" fill-opacity="0.305882" cx="175" cy="124" rx="2" ry="40" />
<ellipse fill="#242927" fill-opacity="0.552941" cx="157" cy="39" rx="3" ry="20" />
<ellipse fill="#fcfbf6" fill-opacity="0.250980" cx="115" cy="189" rx="138" ry="1" />
<ellipse fill="#a2967e" fill-opacity="0.600000" cx="135" cy="171" rx="6" ry="6" />
<ellipse fill="#c9d1c9" fill-opacity="0.411765" cx="178" cy="75" rx="8" ry="5" />
<ellipse fill="#babbb2" fill-opacity="0.415686" cx="11" cy="62" rx="41" ry="15" />
<ellipse fill="#9e9b93" fill-opacity="0.411765" cx="171" cy="127" rx="30" ry="7" />
<ellipse fill="#5b6769" fill-opacity="0.466667" cx="60" cy="123" rx="5" ry="30" />
<ellipse fill="#9e9e8f" fill-opacity="0.623529" cx="200" cy="159" rx="6" ry="18" />
<ellipse fill="#686d5d" fill-opacity="0.454902" cx="13" cy="0" rx="10" ry="28" />
<ellipse fill="#9eacaf" fill-opacity="0.513725" cx="81" cy="125" rx="3" ry="6" />
<ellipse fill="#0f130f" fill-opacity="0.478431" cx="146" cy="82" rx="8" ry="4" />
<ellipse fill="#182429" fill-opacity="0.364706" cx="163" cy="74" rx="8" ry="8" />
<ellipse fill="#71695d" fill-opacity="0.901961" cx="162" cy="136" rx="8" ry="4" />
<ellipse fill="#f3fff8" fill-opacity="0.113725" cx="236" cy="159" rx="9" ry="29" />
<ellipse fill="#707466" fill-opacity="0.600000" cx="216" cy="10" rx="3" ry="15" />
<ellipse fill="#938d7b" fill-opacity="0.478431" cx="139" cy="77" rx="7" ry="5" />
<ellipse fill="#959889" fill-opacity="0.474510" cx="252" cy="110" rx="15" ry="28" />
<ellipse fill="#0e1512" fill-opacity="0.517647" cx="116" cy="99" rx="12" ry="9" />
<ellipse fill="#e2e6dd" fill-opacity="0.600000" cx="65" cy="34" rx="11" ry="7" />
<ellipse fill="#94958b" fill-opacity="0.474510" cx="88" cy="93" rx="4" ry="20" />
<ellipse fill="#988e71" fill-opacity="0.450980" cx="108" cy="138" rx="7" ry="11" />
<ellipse fill="#f4eee8" fill-opacity="0.325490" cx="4" cy="120" rx="39" ry="2" />
<ellipse fill="#5a645e" fill-opacity="0.380392" cx="47" cy="187" rx="2" ry="42" />
<ellipse fill="#586153" fill-opacity="0.364706" cx="45" cy="4" rx="9" ry="9" />
<ellipse fill="#c8cac2" fill-opacity="0.607843" cx="183" cy="96" rx="7" ry="9" />
<ellipse fill="#b4b7a2" fill-opacity="0.400000" cx="32" cy="22" rx="15" ry="9" />
<ellipse fill="#fdfffb" fill-opacity="0.298039" cx="198" cy="70" rx="4" ry="23" />
<ellipse fill="#8b8c7c" fill-opacity="0.505882" cx="47" cy="38" rx="6" ry="19" />
<ellipse fill="#c2cdcf" fill-opacity="0.321569" cx="1" cy="34" rx="3" ry="25" />
<ellipse fill="#434557" fill-opacity="0.341176" cx="173" cy="133" rx="1" ry="49" />
<ellipse fill="#a29a8c" fill-opacity="0.596078" cx="170" cy="185" rx="30" ry="6" />
<ellipse fill="#81796d" fill-opacity="0.537255" cx="144" cy="103" rx="8" ry="17" />
<ellipse fill="#969e8d" fill-opacity="0.533333" cx="69" cy="15" rx="9" ry="14" />
<ellipse fill="#000000" fill-opacity="0.482353" cx="160" cy="118" rx="4" ry="2" />
<ellipse fill="#ccd2c9" fill-opacity="0.341176" cx="176" cy="22" rx="18" ry="13" />
</g>
</svg>