<svg xmlns="http://www.w3.org/2000/svg" version="1.1" width="256" height="143">
<rect x="0" y="0" width="256" height="143" fill="#f0f0f0" />
<g transform="scale(1.000000) translate(0.5 0.5)">
<ellipse fill="#3e3512" fill-opacity="0.662745" cx="40" cy="135" rx="255" ry="126" />
<ellipse fill="#889084" fill-opacity="0.568627" cx="171" cy="0" rx="172" ry="73" />
<ellipse fill="#3a3e27" fill-opacity="0.780392" cx="0" cy="64" rx="48" ry="76" />
<ellipse fill="#c5d4de" fill-opacity="0.827451" cx="159" cy="13" rx="71" ry="19" />
<ellipse fill="#c5d2d5" fill-opacity="0.878431" cx="200" cy="34" rx="30" ry="14" />
<ellipse fill="#817b64" fill-opacity="0.960784" cx="243" cy="60" rx="27" ry="25" />
<ellipse fill="#59533d" fill-opacity="0.878431" cx="71" cy="120" rx="97" ry="13" />
<ellipse fill="#9b8e71" fill-opacity="0.733333" cx="198" cy="117" rx="32" ry="75" />
<ellipse fill="#414430" fill-opacity="0.850980" cx="23" cy="40" rx="30" ry="32" />
<ellipse fill="#060801" fill-opacity="0.576471" cx="196" cy="119" rx="8" ry="7" />
<ellipse fill="#574e39" fill-opacity="0.458824" cx="149" cy="90" rx="14" ry="62" />
<ellipse fill="#948b6d" fill-opacity="0.854902" cx="103" cy="60" rx="19" ry="41" />
<ellipse fill="#7f91a3" fill-opacity="0.364706" cx="237" cy="0" rx="64" ry="22" />
<ellipse fill="#ffe6c7" fill-opacity="0.572549" cx="203" cy="94" rx="7" ry="8" />
<ellipse fill="#a09a7b" fill-opacity="0.388235" cx="34" cy="105" rx="20" ry="11" />
<ellipse fill="#bbab94" fill-opacity="0.184314" cx="124" cy="103" rx="28" ry="28" />
<ellipse fill="#e9f9ff" fill-opacity="0.458824" cx="134" cy="18" rx="29" ry="9" />
<ellipse fill="#1c1c14" fill-opacity="0.556863" cx="195" cy="110" rx="7" ry="9" />
<ellipse fill="#fffff2" fill-opacity="0.501961" cx="207" cy="110" rx="3" ry="10" />
<ellipse fill="#89825b" fill-opacity="0.627451" cx="144" cy="38" rx="21" ry="11" />
<ellipse fill="#c1d7ea" fill-opacity="0.431373" cx="81" cy="1" rx="61" ry="11" />
<ellipse fill="#4d472e" fill-opacity="0.474510" cx="45" cy="123" rx="68" ry="15" />
<ellipse fill="#c9be9f" fill-opacity="0.549020" cx="183" cy="106" rx="6" ry="20" />
<ellipse fill="#c8d7de" fill-opacity="0.996078" cx="170" cy="20" rx="13" ry="16" />
<ellipse fill="#ae9074" fill-opacity="0.447059" cx="94" cy="136" rx="28" ry="7" />
<ellipse fill="#3f3c30" fill-opacity="0.509804" cx="141" cy="141" rx="19" ry="14" />
<ellipse fill="#8a7f5d" fill-opacity="0.435294" cx="71" cy="60" rx="26" ry="50" />
<ellipse fill="#2e3221" fill-opacity="0.756863" cx="7" cy="6" rx="17" ry="6" />
<ellipse fill="#d3e4fb" fill-opacity="0.470588" cx="47" cy="11" rx="7" ry="4" />
<ellipse fill="#887d60" fill-opacity="0.556863" cx="204" cy="68" rx="44" ry="19" />
<ellipse fill="#e7cfb1" fill-opacity="0.541176" cx="200" cy="97" rx="12" ry="5" />
<ellipse fill="#534e3a" fill-opacity="0.611765" cx="154" cy="78" rx="7" ry="29" />
<ellipse fill="#9d967b" fill-opacity="0.501961" cx="189" cy="141" rx="31" ry="18" />
<ellipse fill="#2d3219" fill-opacity="0.427451" cx="44" cy="32" rx="11" ry="13" />
<ellipse fill="#9a987a" fill-opacity="0.474510" cx="69" cy="54" rx="29" ry="7" />
<ellipse fill="#acb9be" fill-opacity="0.513725" cx="226" cy="19" rx="11" ry="28" />
<ellipse fill="#67613c" fill-opacity="0.501961" cx="164" cy="43" rx="16" ry="4" />
<ellipse fill="#bcaf9a" fill-opacity="0.450980" cx="129" cy="42" rx="24" ry="3" />
<ellipse fill="#d3e0e7" fill-opacity="0.498039" cx="188" cy="32" rx="11" ry="17" />
<ellipse fill="#c6b087" fill-opacity="0.380392" cx="175" cy="50" rx="22" ry="5" />
<ellipse fill="#a3977a" fill-opacity="0.482353" cx="98" cy="98" rx="20" ry="11" />
<ellipse fill="#40431f" fill-opacity="0.521569" cx="1" cy="135" rx="20" ry="16" />
<ellipse fill="#d5e5ee" fill-opacity="0.533333" cx="115" cy="13" rx="29" ry="7" />
<ellipse fill="#776c51" fill-opacity="0.360784" cx="141" cy="57" rx="16" ry="32" />
<ellipse fill="#4c4835" fill-opacity="0.690196" cx="161" cy="104" rx="4" ry="20" />
<ellipse fill="#5a5c48" fill-opacity="0.545098" cx="3" cy="32" rx="24" ry="13" />
<ellipse fill="#212310" fill-opacity="0.396078" cx="1" cy="78" rx="7" ry="33" />
<ellipse fill="#6f6c4d" fill-opacity="0.333333" cx="25" cy="117" rx="16" ry="31" />
<ellipse fill="#26291b" fill-opacity="0.517647" cx="24" cy="19" rx="16" ry="9" />
<ellipse fill="#847c64" fill-opacity="0.501961" cx="226" cy="78" rx="20" ry="38" />
<ellipse fill="#93a2ab" fill-opacity="0.470588" cx="253" cy="16" rx="20" ry="28" />
<ellipse fill="#cfdee8" fill-opacity="0.650980" cx="152" cy="16" rx="8" ry="15" />
<ellipse fill="#b6aa97" fill-opacity="0.501961" cx="43" cy="102" rx="9" ry="3" />
<ellipse fill="#cbc1a4" fill-opacity="0.411765" cx="179" cy="112" rx="10" ry="9" />
<ellipse fill="#302d20" fill-opacity="0.400000" cx="62" cy="119" rx="17" ry="9" />
<ellipse fill="#6f6a55" fill-opacity="0.505882" cx="249" cy="64" rx="7" ry="32" />
<ellipse fill="#bf9c78" fill-opacity="0.509804" cx="80" cy="142" rx="33" ry="3" />
<ellipse fill="#7d7664" fill-opacity="0.415686" cx="70" cy="84" rx="28" ry="26" />
<ellipse fill="#9ba6b0" fill-opacity="0.509804" cx="37" cy="0" rx="11" ry="11" />
<ellipse fill="#998a6b" fill-opacity="0.537255" cx="180" cy="87" rx="18" ry="14" />
<ellipse fill="#918352" fill-opacity="0.513725" cx="78" cy="24" rx="17" ry="11" />
<ellipse fill="#fffae0" fill-opacity="0.501961" cx="197" cy="99" rx="9" ry="2" />
<ellipse fill="#c5d1d7" fill-opacity="0.580392" cx="214" cy="40" rx="4" ry="11" />
<ellipse fill="#262a16" fill-opacity="0.345098" cx="35" cy="67" rx="12" ry="12" />
<ellipse fill="#7a784f" fill-opacity="0.525490" cx="120" cy="34" rx="43" ry="4" />
<ellipse fill="#68513b" fill-opacity="0.364706" cx="52" cy="135" rx="49" ry="5" />
<ellipse fill="#524d3e" fill-opacity="0.525490" cx="202" cy="108" rx="3" ry="8" />
<ellipse fill="#fff7dd" fill-opacity="0.243137" cx="105" cy="43" rx="5" ry="5" />
<ellipse fill="#b5c2cb" fill-opacity="0.415686" cx="210" cy="19" rx="36" ry="11" />
<ellipse fill="#665a3f" fill-opacity="0.494118" cx="251" cy="112" rx="21" ry="7" />
<ellipse fill="#898065" fill-opacity="0.745098" cx="226" cy="142" rx="15" ry="31" />
<ellipse fill="#b1b39a" fill-opacity="0.454902" cx="121" cy="30" rx="15" ry="3" />
<ellipse fill="#8f7d56" fill-opacity="0.619608" cx="65" cy="16" rx="17" ry="6" />
<ellipse fill="#beb5a3" fill-opacity="0.337255" cx="121" cy="131" rx="6" ry="4" />
<ellipse fill="#afa989" fill-opacity="0.474510" cx="163" cy="139" rx="4" ry="15" />
<ellipse fill="#9a8e72" fill-opacity="0.580392" cx="109" cy="86" rx="16" ry="22" />
<ellipse fill="#9c9279" fill-opacity="0.474510" cx="134" cy="44" rx="17" ry="7" />
<ellipse fill="#57503d" fill-opacity="0.423529" cx="115" cy="114" rx="28" ry="7" />
<ellipse fill="#818166" fill-opacity="0.611765" cx="56" cy="48" rx="6" ry="19" />
<ellipse fill="#757048" fill-opacity="0.470588" cx="100" cy="26" rx="10" ry="5" />
<ellipse fill="#4b4437" fill-opacity="0.482353" cx="173" cy="69" rx="4" ry="5" />
<ellipse fill="#abb9bf" fill-opacity="0.364706" cx="182" cy="0" rx="35" ry="13" />
<ellipse fill="#544f3d" fill-opacity="0.462745" cx="182" cy="132" rx="4" ry="4" />
<ellipse fill="#b9c3c7" fill-opacity="0.486275" cx="44" cy="11" rx="4" ry="8" />
<ellipse fill="#7a725b" fill-opacity="0.478431" cx="136" cy="79" rx="11" ry="30" />
<ellipse fill="#787057" fill-opacity="0.478431" cx="85" cy="71" rx="13" ry="18" />
<ellipse fill="#a09270" fill-opacity="0.439216" cx="174" cy="56" rx="17" ry="9" />
<ellipse fill="#aab3b1" fill-opacity="0.623529" cx="243" cy="41" rx="2" ry="5" />
<ellipse fill="#636335" fill-opacity="0.549020" cx="165" cy="39" rx="7" ry="4" />
<ellipse fill="#a9a390" fill-opacity="0.556863" cx="136" cy="121" rx="5" ry="3" />
<ellipse fill="#b3ad9a" fill-opacity="0.529412" cx="65" cy="57" rx="4" ry="6" />
<ellipse fill="#1f2e03" fill-opacity="0.498039" cx="2" cy="125" rx="12" ry="4" />
<ellipse fill="#d2dee6" fill-opacity="0.443137" cx="168" cy="24" rx="9" ry="13" />
<ellipse fill="#4d462a" fill-opacity="0.482353" cx="255" cy="138" rx="8" ry="5" />
<ellipse fill="#59613e" fill-opacity="0.396078" cx="37" cy="48" rx="26" ry="4" />
<ellipse fill="#a9a895" fill-opacity="0.400000" cx="233" cy="68" rx="2" ry="18" />
<ellipse fill="#9c967d" fill-opacity="0.513725" cx="41" cy="104" rx="11" ry="4" />
<ellipse fill="#4d4838" fill-opacity="0.494118" cx="154" cy="136" rx="6" ry="23" />
<ellipse fill="#b5ad95" fill-opacity="0.603922" cx="108" cy="142" rx="5" ry="5" />
<ellipse fill="#28261a" fill-opacity="0.450980" cx="193" cy="121" rx="8" ry="3" />
</g>
</svg>