<svg xmlns="http://www.w3.org/2000/svg" version="1.1" width="144" height="256">
<rect x="0" y="0" width="144" height="256" fill="#f0f0f0" />
<g transform="scale(1.000000) translate(0.5 0.5)">
<ellipse fill="#606764" fill-opacity="0.831373" cx="77" cy="155" rx="143" ry="191" />
<ellipse fill="#00030b" fill-opacity="0.411765" cx="49" cy="229" rx="83" ry="47" />
<ellipse fill="#c2c1b6" fill-opacity="0.517647" cx="99" cy="58" rx="59" ry="94" />
<ellipse fill="#5d656a" fill-opacity="1.000000" cx="24" cy="166" rx="46" ry="68" />
<ellipse fill="#0d1918" fill-opacity="0.541176" cx="61" cy="250" rx="62" ry="20" />
<ellipse fill="#3d4e35" fill-opacity="0.505882" cx="106" cy="21" rx="9" ry="27" />
<ellipse fill="#c1c9ce" fill-opacity="0.235294" cx="34" cy="61" rx="96" ry="35" />
<ellipse fill="#c4c4c0" fill-opacity="0.505882" cx="93" cy="98" rx="32" ry="30" />
<ellipse fill="#687076" fill-opacity="0.890196" cx="42" cy="207" rx="28" ry="22" />
<ellipse fill="#8b8f79" fill-opacity="0.733333" cx="143" cy="174" rx="16" ry="237" />
<ellipse fill="#333d39" fill-opacity="0.658824" cx="101" cy="219" rx="31" ry="24" />
<ellipse fill="#b4b3b4" fill-opacity="0.431373" cx="74" cy="132" rx="10" ry="49" />
<ellipse fill="#232a30" fill-opacity="0.541176" cx="101" cy="133" rx="14" ry="3" />
<ellipse fill="#8b9294" fill-opacity="0.454902" cx="37" cy="32" rx="45" ry="72" />
<ellipse fill="#395a45" fill-opacity="0.172549" cx="0" cy="110" rx="59" ry="50" />
<ellipse fill="#a9b689" fill-opacity="0.556863" cx="124" cy="125" rx="9" ry="33" />
<ellipse fill="#9fa5ac" fill-opacity="0.556863" cx="92" cy="176" rx="13" ry="8" />
<ellipse fill="#43504d" fill-opacity="0.494118" cx="109" cy="34" rx="6" ry="17" />
<ellipse fill="#bfbdba" fill-opacity="0.411765" cx="111" cy="78" rx="30" ry="18" />
<ellipse fill="#bac09d" fill-opacity="0.439216" cx="139" cy="188" rx="15" ry="13" />
<ellipse fill="#8e8e89" fill-opacity="0.666667" cx="87" cy="0" rx="35" ry="18" />
<ellipse fill="#6f757b" fill-opacity="0.568627" cx="97" cy="160" rx="26" ry="13" />
<ellipse fill="#66616b" fill-opacity="0.490196" cx="142" cy="38" rx="8" ry="24" />
<ellipse fill="#4b524d" fill-opacity="0.741176" cx="80" cy="232" rx="11" ry="11" />
<ellipse fill="#5d646d" fill-opacity="0.600000" cx="120" cy="171" rx="19" ry="10" />
<ellipse fill="#3f454b" fill-opacity="0.431373" cx="21" cy="202" rx="26" ry="6" />
<ellipse fill="#c6cbbc" fill-opacity="0.474510" cx="117" cy="145" rx="9" ry="9" />
<ellipse fill="#a7a6a8" fill-opacity="0.435294" cx="59" cy="58" rx="35" ry="31" />
<ellipse fill="#747985" fill-opacity="0.431373" cx="37" cy="145" rx="16" ry="19" />
<ellipse fill="#b9ae9b" fill-opacity="0.643137" cx="129" cy="10" rx="21" ry="6" />
<ellipse fill="#a09f9a" fill-opacity="0.509804" cx="129" cy="246" rx="4" ry="20" />
<ellipse fill="#9fa098" fill-opacity="0.529412" cx="109" cy="89" rx="6" ry="43" />
<ellipse fill="#5c753e" fill-opacity="0.407843" cx="138" cy="107" rx="9" ry="10" />
<ellipse fill="#141f27" fill-opacity="0.533333" cx="44" cy="250" rx="27" ry="21" />
<ellipse fill="#c6d0d6" fill-opacity="0.125490" cx="0" cy="35" rx="22" ry="45" />
<ellipse fill="#c2c4c3" fill-opacity="0.580392" cx="96" cy="74" rx="6" ry="38" />
<ellipse fill="#b2b1ac" fill-opacity="0.513725" cx="78" cy="138" rx="16" ry="9" />
<ellipse fill="#222c31" fill-opacity="0.305882" cx="109" cy="212" rx="16" ry="24" />
<ellipse fill="#546140" fill-opacity="0.501961" cx="141" cy="142" rx="8" ry="7" />
<ellipse fill="#d2d3d9" fill-opacity="0.533333" cx="117" cy="46" rx="2" ry="26" />
<ellipse fill="#444c50" fill-opacity="0.517647" cx="60" cy="157" rx="7" ry="18" />
<ellipse fill="#4a565e" fill-opacity="0.552941" cx="0" cy="137" rx="18" ry="40" />
<ellipse fill="#172228" fill-opacity="0.568627" cx="64" cy="232" rx="7" ry="9" />
<ellipse fill="#6c7385" fill-opacity="0.325490" cx="39" cy="12" rx="15" ry="33" />
<ellipse fill="#778579" fill-opacity="0.666667" cx="45" cy="98" rx="15" ry="6" />
<ellipse fill="#3d5159" fill-opacity="0.458824" cx="19" cy="69" rx="8" ry="5" />
<ellipse fill="#ecffbc" fill-opacity="0.509804" cx="142" cy="156" rx="3" ry="4" />
<ellipse fill="#443e3d" fill-opacity="0.431373" cx="142" cy="250" rx="6" ry="7" />
<ellipse fill="#6f757b" fill-opacity="0.462745" cx="48" cy="198" rx="21" ry="29" />
<ellipse fill="#949683" fill-opacity="0.772549" cx="143" cy="212" rx="20" ry="3" />
<ellipse fill="#687381" fill-opacity="0.454902" cx="106" cy="187" rx="13" ry="11" />
<ellipse fill="#00090f" fill-opacity="0.470588" cx="110" cy="133" rx="13" ry="1" />
<ellipse fill="#576161" fill-opacity="0.521569" cx="53" cy="132" rx="11" ry="16" />
<ellipse fill="#727a77" fill-opacity="0.490196" cx="114" cy="239" rx="7" ry="4" />
<ellipse fill="#535a36" fill-opacity="0.290196" cx="138" cy="197" rx="3" ry="18" />
<ellipse fill="#99a58c" fill-opacity="0.509804" cx="18" cy="84" rx="11" ry="9" />
<ellipse fill="#c2bdaf" fill-opacity="0.580392" cx="92" cy="22" rx="5" ry="10" />
<ellipse fill="#d0d4c2" fill-opacity="0.243137" cx="126" cy="88" rx="54" ry="6" />
<ellipse fill="#8c9193" fill-opacity="0.427451" cx="46" cy="153" rx="10" ry="6" />
<ellipse fill="#95999c" fill-opacity="0.498039" cx="89" cy="156" rx="4" ry="35" />
<ellipse fill="#aaa7ad" fill-opacity="0.482353" cx="141" cy="219" rx="5" ry="10" />
<ellipse fill="#515960" fill-opacity="0.650980" cx="6" cy="208" rx="10" ry="30" />
<ellipse fill="#5d704f" fill-opacity="0.352941" cx="106" cy="27" rx="10" ry="17" />
<ellipse fill="#767f8a" fill-opacity="0.443137" cx="48" cy="219" rx="22" ry="7" />
<ellipse fill="#aeb390" fill-opacity="0.541176" cx="131" cy="200" rx="5" ry="12" />
<ellipse fill="#5b6570" fill-opacity="0.278431" cx="92" cy="142" rx="5" ry="15" />
<ellipse fill="#b8ca97" fill-opacity="0.560784" cx="135" cy="120" rx="11" ry="3" />
<ellipse fill="#2e3940" fill-opacity="0.349020" cx="35" cy="203" rx="15" ry="3" />
<ellipse fill="#817c7e" fill-opacity="0.403922" cx="139" cy="47" rx="11" ry="33" />
<ellipse fill="#aeb391" fill-opacity="0.560784" cx="142" cy="182" rx="7" ry="12" />
<ellipse fill="#c5baac" fill-opacity="0.521569" cx="80" cy="3" rx="5" ry="5" />
<ellipse fill="#cdcac3" fill-opacity="0.521569" cx="125" cy="22" rx="2" ry="15" />
<ellipse fill="#27302c" fill-opacity="0.501961" cx="127" cy="217" rx="8" ry="4" />
<ellipse fill="#97a66e" fill-opacity="0.576471" cx="128" cy="100" rx="6" ry="11" />
<ellipse fill="#45505c" fill-opacity="0.501961" cx="54" cy="167" rx="13" ry="9" />
<ellipse fill="#747880" fill-opacity="0.443137" cx="75" cy="12" rx="14" ry="7" />
<ellipse fill="#557259" fill-opacity="0.337255" cx="0" cy="100" rx="14" ry="22" />
<ellipse fill="#b1b597" fill-opacity="0.549020" cx="139" cy="190" rx="20" ry="3" />
<ellipse fill="#222b2f" fill-opacity="0.580392" cx="57" cy="251" rx="15" ry="25" />
<ellipse fill="#81878b" fill-opacity="0.752941" cx="100" cy="178" rx="6" ry="11" />
<ellipse fill="#5f6568" fill-opacity="0.588235" cx="106" cy="160" rx="4" ry="14" />
<ellipse fill="#aeb0a7" fill-opacity="0.678431" cx="115" cy="138" rx="15" ry="4" />
<ellipse fill="#adb1af" fill-opacity="0.474510" cx="22" cy="56" rx="15" ry="5" />
<ellipse fill="#c1c1be" fill-opacity="0.490196" cx="85" cy="91" rx="8" ry="27" />
<ellipse fill="#cbcac3" fill-opacity="0.466667" cx="66" cy="112" rx="2" ry="30" />
<ellipse fill="#8f9599" fill-opacity="0.529412" cx="42" cy="42" rx="7" ry="25" />
<ellipse fill="#969896" fill-opacity="0.419608" cx="85" cy="79" rx="14" ry="3" />
<ellipse fill="#9f9a93" fill-opacity="0.560784" cx="134" cy="66" rx="4" ry="24" />
<ellipse fill="#5f656a" fill-opacity="0.749020" cx="50" cy="197" rx="12" ry="6" />
<ellipse fill="#6c7c5c" fill-opacity="0.572549" cx="137" cy="134" rx="4" ry="13" />
<ellipse fill="#c9ce95" fill-opacity="0.192157" cx="10" cy="76" rx="9" ry="8" />
<ellipse fill="#4a545b" fill-opacity="0.490196" cx="110" cy="171" rx="3" ry="14" />
<ellipse fill="#585b63" fill-opacity="0.576471" cx="139" cy="167" rx="4" ry="5" />
<ellipse fill="#68727b" fill-opacity="0.521569" cx="38" cy="127" rx="29" ry="3" />
<ellipse fill="#414948" fill-opacity="0.325490" cx="80" cy="244" rx="12" ry="61" />
<ellipse fill="#afb2b3" fill-opacity="0.450980" cx="0" cy="41" rx="9" ry="13" />
<ellipse fill="#848290" fill-opacity="0.439216" cx="114" cy="36" rx="2" ry="25" />
<ellipse fill="#626a72" fill-opacity="0.443137" cx="34" cy="3" rx="13" ry="7" />
<ellipse fill="#2e493b" fill-opacity="0.447059" cx="50" cy="98" rx="3" ry="5" />
<ellipse fill="#988a77" fill-opacity="0.501961" cx="136" cy="5" rx="17" ry="4" />
</g>
</svg>