<svg xmlns="http://www.w3.org/2000/svg" version="1.1" width="144" height="256">
<rect x="0" y="0" width="144" height="256" fill="#f0f0f0" />
<g transform="scale(1.000000) translate(0.5 0.5)">
<ellipse fill="#282003" fill-opacity="0.619608" cx="23" cy="210" rx="101" ry="201" />
<ellipse fill="#5f5a48" fill-opacity="1.000000" cx="102" cy="235" rx="143" ry="27" />
<ellipse fill="#d5ecfa" fill-opacity="0.980392" cx="101" cy="63" rx="30" ry="41" />
<ellipse fill="#648ba7" fill-opacity="0.498039" cx="100" cy="0" rx="116" ry="28" />
<ellipse fill="#332e22" fill-opacity="0.619608" cx="93" cy="188" rx="28" ry="21" />
<ellipse fill="#c3dff4" fill-opacity="0.674510" cx="90" cy="28" rx="31" ry="25" />
<ellipse fill="#515046" fill-opacity="1.000000" cx="112" cy="125" rx="12" ry="7" />
<ellipse fill="#9e9274" fill-opacity="0.831373" cx="16" cy="78" rx="59" ry="21" />
<ellipse fill="#4a4331" fill-opacity="0.450980" cx="9" cy="24" rx="32" ry="25" />
<ellipse fill="#f6ffff" fill-opacity="0.478431" cx="118" cy="208" rx="6" ry="14" />
<ellipse fill="#000000" fill-opacity="0.549020" cx="22" cy="177" rx="14" ry="10" />
<ellipse fill="#131310" fill-opacity="0.509804" cx="75" cy="103" rx="20" ry="8" />
<ellipse fill="#e2f6fe" fill-opacity="0.945098" cx="120" cy="101" rx="21" ry="14" />
<ellipse fill="#b6cfe2" fill-opacity="0.792157" cx="68" cy="18" rx="23" ry="13" />
<ellipse fill="#b3a27c" fill-opacity="0.490196" cx="77" cy="129" rx="33" ry="12" />
<ellipse fill="#e2ffff" fill-opacity="0.407843" cx="143" cy="151" rx="28" ry="34" />
<ellipse fill="#34352b" fill-opacity="0.647059" cx="29" cy="255" rx="42" ry="14" />
<ellipse fill="#534c3a" fill-opacity="0.537255" cx="93" cy="198" rx="27" ry="12" />
<ellipse fill="#030300" fill-opacity="0.341176" cx="49" cy="103" rx="7" ry="16" />
<ellipse fill="#cbe7f9" fill-opacity="0.545098" cx="136" cy="45" rx="68" ry="29" />
<ellipse fill="#242113" fill-opacity="0.384314" cx="30" cy="169" rx="12" ry="19" />
<ellipse fill="#17160d" fill-opacity="0.486275" cx="143" cy="248" rx="16" ry="14" />
<ellipse fill="#141718" fill-opacity="0.580392" cx="94" cy="111" rx="8" ry="7" />
<ellipse fill="#c2c7bd" fill-opacity="0.768627" cx="116" cy="218" rx="6" ry="5" />
<ellipse fill="#39382e" fill-opacity="0.572549" cx="97" cy="184" rx="31" ry="8" />
<ellipse fill="#000000" fill-opacity="0.470588" cx="63" cy="142" rx="4" ry="11" />
<ellipse fill="#5f5843" fill-opacity="0.560784" cx="129" cy="229" rx="14" ry="23" />
<ellipse fill="#f2ffff" fill-opacity="0.549020" cx="128" cy="200" rx="9" ry="10" />
<ellipse fill="#242624" fill-opacity="0.666667" cx="108" cy="120" rx="8" ry="6" />
<ellipse fill="#9e9274" fill-opacity="0.666667" cx="74" cy="124" rx="9" ry="21" />
<ellipse fill="#5b5647" fill-opacity="0.623529" cx="58" cy="53" rx="11" ry="19" />
<ellipse fill="#6f654d" fill-opacity="0.623529" cx="38" cy="208" rx="57" ry="23" />
<ellipse fill="#9bb3c6" fill-opacity="0.584314" cx="59" cy="2" rx="40" ry="14" />
<ellipse fill="#dbc596" fill-opacity="0.560784" cx="50" cy="138" rx="4" ry="12" />
<ellipse fill="#00090f" fill-opacity="0.447059" cx="30" cy="32" rx="7" ry="9" />
<ellipse fill="#2b2618" fill-opacity="0.376471" cx="76" cy="169" rx="18" ry="9" />
<ellipse fill="#e1f6ff" fill-opacity="0.725490" cx="128" cy="95" rx="18" ry="30" />
<ellipse fill="#7c6f52" fill-opacity="0.513725" cx="54" cy="175" rx="24" ry="16" />
<ellipse fill="#c8b893" fill-opacity="0.439216" cx="108" cy="137" rx="10" ry="9" />
<ellipse fill="#666050" fill-opacity="0.603922" cx="70" cy="79" rx="4" ry="18" />
<ellipse fill="#000003" fill-opacity="0.407843" cx="75" cy="95" rx="8" ry="4" />
<ellipse fill="#c4b790" fill-opacity="0.494118" cx="12" cy="71" rx="15" ry="8" />
<ellipse fill="#bed6e9" fill-opacity="0.611765" cx="131" cy="27" rx="76" ry="13" />
<ellipse fill="#746c57" fill-opacity="0.588235" cx="5" cy="37" rx="16" ry="31" />
<ellipse fill="#433f32" fill-opacity="0.556863" cx="84" cy="151" rx="3" ry="22" />
<ellipse fill="#84795b" fill-opacity="0.631373" cx="132" cy="210" rx="9" ry="4" />
<ellipse fill="#faffff" fill-opacity="0.686275" cx="120" cy="206" rx="4" ry="6" />
<ellipse fill="#615a44" fill-opacity="0.474510" cx="7" cy="182" rx="12" ry="33" />
<ellipse fill="#e6f9ff" fill-opacity="0.501961" cx="100" cy="82" rx="18" ry="21" />
<ellipse fill="#b3a484" fill-opacity="0.494118" cx="41" cy="99" rx="6" ry="10" />
<ellipse fill="#4e4939" fill-opacity="0.454902" cx="92" cy="198" rx="28" ry="12" />
<ellipse fill="#a4997d" fill-opacity="0.682353" cx="62" cy="87" rx="10" ry="9" />
<ellipse fill="#322c20" fill-opacity="0.490196" cx="30" cy="101" rx="7" ry="5" />
<ellipse fill="#202423" fill-opacity="0.525490" cx="118" cy="126" rx="8" ry="4" />
<ellipse fill="#948767" fill-opacity="0.486275" cx="30" cy="213" rx="11" ry="11" />
<ellipse fill="#000508" fill-opacity="0.509804" cx="97" cy="149" rx="2" ry="8" />
<ellipse fill="#b19e77" fill-opacity="0.419608" cx="54" cy="155" rx="3" ry="39" />
<ellipse fill="#9b8f72" fill-opacity="0.678431" cx="73" cy="123" rx="23" ry="12" />
<ellipse fill="#2a2a21" fill-opacity="0.494118" cx="36" cy="183" rx="8" ry="6" />
<ellipse fill="#000000" fill-opacity="0.572549" cx="23" cy="179" rx="7" ry="7" />
<ellipse fill="#ffffda" fill-opacity="0.619608" cx="58" cy="211" rx="2" ry="3" />
<ellipse fill="#f0ffff" fill-opacity="0.784314" cx="115" cy="215" rx="3" ry="4" />
<ellipse fill="#839bae" fill-opacity="0.596078" cx="18" cy="0" rx="35" ry="7" />
<ellipse fill="#def5ff" fill-opacity="0.588235" cx="79" cy="80" rx="4" ry="13" />
<ellipse fill="#8e7e61" fill-opacity="0.486275" cx="110" cy="168" rx="11" ry="8" />
<ellipse fill="#eaffff" fill-opacity="0.607843" cx="138" cy="152" rx="19" ry="34" />
<ellipse fill="#889fb1" fill-opacity="0.196078" cx="143" cy="10" rx="51" ry="15" />
<ellipse fill="#635c48" fill-opacity="0.541176" cx="0" cy="16" rx="38" ry="10" />
<ellipse fill="#25251f" fill-opacity="0.521569" cx="59" cy="108" rx="6" ry="6" />
<ellipse fill="#2f302c" fill-opacity="0.509804" cx="59" cy="49" rx="4" ry="13" />
<ellipse fill="#948668" fill-opacity="0.439216" cx="15" cy="54" rx="56" ry="4" />
<ellipse fill="#cbe6f8" fill-opacity="0.635294" cx="86" cy="35" rx="22" ry="11" />
<ellipse fill="#595240" fill-opacity="0.517647" cx="101" cy="204" rx="14" ry="17" />
<ellipse fill="#b6cfe2" fill-opacity="0.509804" cx="66" cy="17" rx="24" ry="8" />
<ellipse fill="#9a8c6e" fill-opacity="0.447059" cx="10" cy="97" rx="14" ry="20" />
<ellipse fill="#7e7155" fill-opacity="0.470588" cx="11" cy="142" rx="13" ry="33" />
<ellipse fill="#ab9e7f" fill-opacity="0.705882" cx="105" cy="143" rx="3" ry="13" />
<ellipse fill="#8d7f61" fill-opacity="0.556863" cx="87" cy="155" rx="6" ry="9" />
<ellipse fill="#34322b" fill-opacity="0.215686" cx="7" cy="244" rx="27" ry="26" />
<ellipse fill="#11110d" fill-opacity="0.568627" cx="28" cy="104" rx="4" ry="5" />
<ellipse fill="#4c4738" fill-opacity="0.509804" cx="22" cy="156" rx="13" ry="7" />
<ellipse fill="#34332d" fill-opacity="0.505882" cx="99" cy="115" rx="12" ry="5" />
<ellipse fill="#25241e" fill-opacity="0.258824" cx="131" cy="246" rx="19" ry="12" />
<ellipse fill="#080d0f" fill-opacity="0.552941" cx="110" cy="154" rx="2" ry="4" />
<ellipse fill="#d9f1fe" fill-opacity="0.360784" cx="102" cy="51" rx="32" ry="22" />
<ellipse fill="#615c4a" fill-opacity="0.490196" cx="26" cy="80" rx="9" ry="4" />
<ellipse fill="#b1a07d" fill-opacity="0.294118" cx="35" cy="83" rx="5" ry="34" />
<ellipse fill="#4e493a" fill-opacity="0.509804" cx="30" cy="199" rx="51" ry="3" />
<ellipse fill="#000209" fill-opacity="0.439216" cx="82" cy="141" rx="2" ry="7" />
<ellipse fill="#776f58" fill-opacity="0.498039" cx="141" cy="217" rx="24" ry="9" />
<ellipse fill="#9c8d6d" fill-opacity="0.470588" cx="57" cy="195" rx="4" ry="11" />
<ellipse fill="#97886a" fill-opacity="0.529412" cx="101" cy="192" rx="4" ry="5" />
<ellipse fill="#f0ffff" fill-opacity="0.764706" cx="141" cy="198" rx="21" ry="9" />
<ellipse fill="#0c1312" fill-opacity="0.537255" cx="82" cy="175" rx="7" ry="4" />
<ellipse fill="#77725f" fill-opacity="0.403922" cx="65" cy="63" rx="8" ry="16" />
<ellipse fill="#736a53" fill-opacity="0.400000" cx="75" cy="230" rx="34" ry="13" />
<ellipse fill="#250e00" fill-opacity="0.113725" cx="42" cy="117" rx="8" ry="19" />
<ellipse fill="#4d4737" fill-opacity="0.662745" cx="59" cy="172" rx="6" ry="3" />
<ellipse fill="#716650" fill-opacity="0.552941" cx="86" cy="185" rx="6" ry="5" />
<ellipse fill="#9f9478" fill-opacity="0.568627" cx="57" cy="83" rx="16" ry="9" />
</g>
</svg>