<svg xmlns="http://www.w3.org/2000/svg" version="1.1" width="144" height="256">
<rect x="0" y="0" width="144" height="256" fill="#f0f0f0" />
<g transform="scale(1.000000) translate(0.5 0.5)">
<ellipse fill="#111108" fill-opacity="0.682353" cx="39" cy="152" rx="142" ry="155" />
<ellipse fill="#aba59a" fill-opacity="1.000000" cx="138" cy="125" rx="14" ry="157" />
<ellipse fill="#c0b9ae" fill-opacity="0.956863" cx="114" cy="0" rx="68" ry="21" />
<ellipse fill="#00090e" fill-opacity="0.462745" cx="25" cy="193" rx="64" ry="37" />
<ellipse fill="#0c0d0b" fill-opacity="0.462745" cx="83" cy="74" rx="32" ry="53" />
<ellipse fill="#261000" fill-opacity="0.431373" cx="118" cy="45" rx="25" ry="16" />
<ellipse fill="#77827c" fill-opacity="0.443137" cx="19" cy="56" rx="55" ry="36" />
<ellipse fill="#2b322f" fill-opacity="0.690196" cx="63" cy="159" rx="23" ry="69" />
<ellipse fill="#fffff0" fill-opacity="0.290196" cx="143" cy="99" rx="24" ry="48" />
<ellipse fill="#c7b9ae" fill-opacity="0.890196" cx="127" cy="18" rx="28" ry="12" />
<ellipse fill="#250800" fill-opacity="0.494118" cx="39" cy="14" rx="28" ry="8" />
<ellipse fill="#abaca3" fill-opacity="0.996078" cx="0" cy="8" rx="4" ry="40" />
<ellipse fill="#89a8bc" fill-opacity="0.321569" cx="7" cy="149" rx="21" ry="20" />
<ellipse fill="#7f7063" fill-opacity="0.552941" cx="116" cy="145" rx="13" ry="66" />
<ellipse fill="#131e1f" fill-opacity="0.450980" cx="11" cy="255" rx="25" ry="84" />
<ellipse fill="#2e2013" fill-opacity="0.811765" cx="17" cy="0" rx="13" ry="18" />
<ellipse fill="#5b5c51" fill-opacity="0.329412" cx="91" cy="238" rx="79" ry="38" />
<ellipse fill="#283940" fill-opacity="0.470588" cx="12" cy="97" rx="17" ry="37" />
<ellipse fill="#a2b1b6" fill-opacity="0.478431" cx="35" cy="96" rx="8" ry="15" />
<ellipse fill="#000100" fill-opacity="0.411765" cx="94" cy="73" rx="26" ry="12" />
<ellipse fill="#8d8c7f" fill-opacity="0.678431" cx="104" cy="245" rx="38" ry="4" />
<ellipse fill="#c3c3b9" fill-opacity="0.847059" cx="55" cy="0" rx="21" ry="6" />
<ellipse fill="#4e443d" fill-opacity="0.600000" cx="80" cy="38" rx="24" ry="21" />
<ellipse fill="#040600" fill-opacity="0.658824" cx="107" cy="255" rx="15" ry="6" />
<ellipse fill="#927460" fill-opacity="0.549020" cx="139" cy="0" rx="13" ry="15" />
<ellipse fill="#85887f" fill-opacity="0.537255" cx="64" cy="125" rx="5" ry="10" />
<ellipse fill="#111513" fill-opacity="0.619608" cx="108" cy="57" rx="15" ry="15" />
<ellipse fill="#462e1c" fill-opacity="0.537255" cx="53" cy="19" rx="21" ry="9" />
<ellipse fill="#f6f4e8" fill-opacity="0.462745" cx="141" cy="99" rx="12" ry="18" />
<ellipse fill="#695a4d" fill-opacity="0.482353" cx="108" cy="192" rx="23" ry="38" />
<ellipse fill="#020707" fill-opacity="0.580392" cx="81" cy="118" rx="4" ry="25" />
<ellipse fill="#272722" fill-opacity="0.584314" cx="88" cy="164" rx="24" ry="4" />
<ellipse fill="#828174" fill-opacity="0.733333" cx="86" cy="255" rx="7" ry="27" />
<ellipse fill="#7b543e" fill-opacity="0.470588" cx="110" cy="34" rx="20" ry="7" />
<ellipse fill="#000000" fill-opacity="0.529412" cx="60" cy="99" rx="6" ry="12" />
<ellipse fill="#827367" fill-opacity="0.364706" cx="109" cy="128" rx="16" ry="32" />
<ellipse fill="#7d7e71" fill-opacity="0.501961" cx="28" cy="44" rx="27" ry="22" />
<ellipse fill="#cecec6" fill-opacity="0.666667" cx="87" cy="8" rx="30" ry="6" />
<ellipse fill="#38413f" fill-opacity="0.458824" cx="44" cy="246" rx="35" ry="12" />
<ellipse fill="#121919" fill-opacity="0.541176" cx="35" cy="196" rx="30" ry="13" />
<ellipse fill="#363c3c" fill-opacity="0.584314" cx="76" cy="207" rx="10" ry="26" />
<ellipse fill="#454e4e" fill-opacity="0.698039" cx="74" cy="53" rx="22" ry="12" />
<ellipse fill="#000502" fill-opacity="0.482353" cx="113" cy="159" rx="7" ry="3" />
<ellipse fill="#98958c" fill-opacity="0.400000" cx="107" cy="153" rx="22" ry="5" />
<ellipse fill="#473428" fill-opacity="0.760784" cx="126" cy="41" rx="9" ry="8" />
<ellipse fill="#a49b8a" fill-opacity="0.568627" cx="142" cy="50" rx="12" ry="10" />
<ellipse fill="#6e7978" fill-opacity="0.580392" cx="33" cy="135" rx="2" ry="35" />
<ellipse fill="#636c6c" fill-opacity="0.650980" cx="77" cy="92" rx="6" ry="4" />
<ellipse fill="#000100" fill-opacity="0.482353" cx="69" cy="86" rx="7" ry="9" />
<ellipse fill="#8b8881" fill-opacity="0.843137" cx="124" cy="111" rx="2" ry="42" />
<ellipse fill="#12140e" fill-opacity="0.470588" cx="97" cy="254" rx="7" ry="9" />
<ellipse fill="#5d402e" fill-opacity="0.576471" cx="85" cy="29" rx="30" ry="6" />
<ellipse fill="#505754" fill-opacity="0.831373" cx="52" cy="79" rx="8" ry="16" />
<ellipse fill="#121816" fill-opacity="0.423529" cx="52" cy="164" rx="7" ry="22" />
<ellipse fill="#374040" fill-opacity="0.541176" cx="11" cy="71" rx="19" ry="9" />
<ellipse fill="#e9e8e0" fill-opacity="0.439216" cx="133" cy="131" rx="4" ry="21" />
<ellipse fill="#afafa6" fill-opacity="0.749020" cx="143" cy="158" rx="11" ry="32" />
<ellipse fill="#d1cfc7" fill-opacity="0.670588" cx="101" cy="13" rx="26" ry="6" />
<ellipse fill="#485051" fill-opacity="0.596078" cx="4" cy="220" rx="86" ry="3" />
<ellipse fill="#cbbbae" fill-opacity="0.552941" cx="136" cy="23" rx="21" ry="10" />
<ellipse fill="#53606a" fill-opacity="0.462745" cx="51" cy="211" rx="36" ry="2" />
<ellipse fill="#81766b" fill-opacity="0.388235" cx="113" cy="177" rx="18" ry="14" />
<ellipse fill="#695f4c" fill-opacity="0.345098" cx="125" cy="63" rx="6" ry="12" />
<ellipse fill="#5a605f" fill-opacity="0.196078" cx="67" cy="157" rx="9" ry="55" />
<ellipse fill="#727d7f" fill-opacity="0.862745" cx="25" cy="142" rx="4" ry="14" />
<ellipse fill="#8e9594" fill-opacity="0.490196" cx="37" cy="85" rx="6" ry="18" />
<ellipse fill="#161818" fill-opacity="0.247059" cx="79" cy="121" rx="12" ry="25" />
<ellipse fill="#63584b" fill-opacity="0.305882" cx="113" cy="79" rx="9" ry="13" />
<ellipse fill="#0a0b08" fill-opacity="0.368627" cx="90" cy="84" rx="6" ry="22" />
<ellipse fill="#edf6ff" fill-opacity="0.098039" cx="73" cy="244" rx="50" ry="3" />
<ellipse fill="#000000" fill-opacity="0.709804" cx="125" cy="255" rx="8" ry="1" />
<ellipse fill="#242826" fill-opacity="0.764706" cx="82" cy="166" rx="3" ry="42" />
<ellipse fill="#7e7d6d" fill-opacity="0.666667" cx="143" cy="250" rx="26" ry="5" />
<ellipse fill="#96988d" fill-opacity="0.596078" cx="143" cy="229" rx="17" ry="24" />
<ellipse fill="#958b7b" fill-opacity="0.384314" cx="88" cy="160" rx="7" ry="5" />
<ellipse fill="#36271a" fill-opacity="0.788235" cx="26" cy="9" rx="17" ry="7" />
<ellipse fill="#a9a9a0" fill-opacity="0.639216" cx="1" cy="0" rx="4" ry="35" />
<ellipse fill="#142125" fill-opacity="0.368627" cx="89" cy="44" rx="14" ry="7" />
<ellipse fill="#272a27" fill-opacity="0.811765" cx="82" cy="168" rx="13" ry="3" />
<ellipse fill="#374343" fill-opacity="0.494118" cx="42" cy="125" rx="4" ry="28" />
<ellipse fill="#545d5c" fill-opacity="0.564706" cx="15" cy="88" rx="14" ry="12" />
<ellipse fill="#101410" fill-opacity="0.486275" cx="57" cy="108" rx="5" ry="15" />
<ellipse fill="#000000" fill-opacity="0.156863" cx="23" cy="238" rx="52" ry="3" />
<ellipse fill="#666e6c" fill-opacity="0.819608" cx="32" cy="108" rx="7" ry="7" />
<ellipse fill="#6d9ecd" fill-opacity="0.129412" cx="50" cy="232" rx="44" ry="3" />
<ellipse fill="#030706" fill-opacity="0.549020" cx="75" cy="105" rx="6" ry="7" />
<ellipse fill="#d1c8bf" fill-opacity="0.447059" cx="110" cy="19" rx="13" ry="7" />
<ellipse fill="#4f595a" fill-opacity="0.619608" cx="0" cy="165" rx="14" ry="9" />
<ellipse fill="#313735" fill-opacity="0.631373" cx="42" cy="160" rx="9" ry="11" />
<ellipse fill="#c0c1b5" fill-opacity="0.478431" cx="51" cy="0" rx="24" ry="2" />
<ellipse fill="#0a1010" fill-opacity="0.392157" cx="5" cy="209" rx="17" ry="10" />
<ellipse fill="#16130b" fill-opacity="0.380392" cx="104" cy="163" rx="11" ry="3" />
<ellipse fill="#b2ad9b" fill-opacity="0.443137" cx="88" cy="236" rx="3" ry="7" />
<ellipse fill="#563e30" fill-opacity="0.662745" cx="131" cy="37" rx="8" ry="5" />
<ellipse fill="#626965" fill-opacity="0.494118" cx="72" cy="146" rx="7" ry="4" />
<ellipse fill="#384142" fill-opacity="0.729412" cx="17" cy="118" rx="12" ry="12" />
<ellipse fill="#c5c7be" fill-opacity="0.513725" cx="69" cy="0" rx="28" ry="10" />
<ellipse fill="#81847f" fill-opacity="0.411765" cx="128" cy="204" rx="4" ry="39" />
<ellipse fill="#ad9481" fill-opacity="0.533333" cx="139" cy="15" rx="5" ry="8" />
<ellipse fill="#707c82" fill-opacity="0.611765" cx="0" cy="132" rx="8" ry="7" />
</g>
</svg>