<svg xmlns="http://www.w3.org/2000/svg" version="1.1" width="256" height="143">
<rect x="0" y="0" width="256" height="143" fill="#f0f0f0" />
<g transform="scale(1.000000) translate(0.5 0.5)">
<ellipse fill="#676137" fill-opacity="0.796078" cx="38" cy="112" rx="255" ry="63" />
<ellipse fill="#cad3d1" fill-opacity="0.890196" cx="230" cy="37" rx="129" ry="38" />
<ellipse fill="#5e6047" fill-opacity="0.878431" cx="252" cy="70" rx="24" ry="14" />
<ellipse fill="#776b46" fill-opacity="0.588235" cx="62" cy="68" rx="60" ry="29" />
<ellipse fill="#b3c1bf" fill-opacity="0.584314" cx="21" cy="5" rx="46" ry="48" />
<ellipse fill="#fefdff" fill-opacity="0.270588" cx="208" cy="90" rx="20" ry="29" />
<ellipse fill="#3a470a" fill-opacity="0.490196" cx="27" cy="133" rx="83" ry="10" />
<ellipse fill="#ecf7f9" fill-opacity="0.545098" cx="149" cy="34" rx="46" ry="32" />
<ellipse fill="#3b4020" fill-opacity="0.631373" cx="168" cy="75" rx="18" ry="10" />
<ellipse fill="#424b19" fill-opacity="0.552941" cx="252" cy="137" rx="36" ry="28" />
<ellipse fill="#75756c" fill-opacity="0.266667" cx="248" cy="27" rx="23" ry="94" />
<ellipse fill="#3b3524" fill-opacity="0.584314" cx="105" cy="83" rx="25" ry="11" />
<ellipse fill="#a9a581" fill-opacity="0.600000" cx="88" cy="54" rx="30" ry="9" />
<ellipse fill="#ccbda8" fill-opacity="0.250980" cx="139" cy="92" rx="17" ry="33" />
<ellipse fill="#deeaec" fill-opacity="0.619608" cx="213" cy="76" rx="12" ry="8" />
<ellipse fill="#ada189" fill-opacity="0.494118" cx="176" cy="92" rx="41" ry="10" />
<ellipse fill="#575633" fill-opacity="0.549020" cx="3" cy="126" rx="27" ry="32" />
<ellipse fill="#deebed" fill-opacity="0.698039" cx="98" cy="20" rx="47" ry="27" />
<ellipse fill="#636736" fill-opacity="0.631373" cx="189" cy="139" rx="51" ry="9" />
<ellipse fill="#96926f" fill-opacity="0.682353" cx="53" cy="49" rx="22" ry="11" />
<ellipse fill="#262e12" fill-opacity="0.584314" cx="8" cy="57" rx="15" ry="5" />
<ellipse fill="#9d8f6e" fill-opacity="0.666667" cx="87" cy="104" rx="44" ry="12" />
<ellipse fill="#918a6c" fill-opacity="0.407843" cx="218" cy="108" rx="29" ry="23" />
<ellipse fill="#d7975d" fill-opacity="0.662745" cx="231" cy="54" rx="3" ry="15" />
<ellipse fill="#695837" fill-opacity="0.541176" cx="61" cy="74" rx="41" ry="10" />
<ellipse fill="#d9e3e3" fill-opacity="0.713725" cx="190" cy="37" rx="21" ry="33" />
<ellipse fill="#bba991" fill-opacity="0.333333" cx="37" cy="92" rx="36" ry="4" />
<ellipse fill="#4b4830" fill-opacity="0.529412" cx="113" cy="83" rx="20" ry="11" />
<ellipse fill="#5a5a33" fill-opacity="0.466667" cx="167" cy="72" rx="14" ry="10" />
<ellipse fill="#a59873" fill-opacity="0.517647" cx="121" cy="119" rx="20" ry="16" />
<ellipse fill="#d5dddb" fill-opacity="0.517647" cx="24" cy="32" rx="14" ry="20" />
<ellipse fill="#b9b19c" fill-opacity="0.462745" cx="201" cy="96" rx="48" ry="4" />
<ellipse fill="#9faaad" fill-opacity="0.270588" cx="0" cy="0" rx="21" ry="52" />
<ellipse fill="#797940" fill-opacity="0.580392" cx="156" cy="128" rx="17" ry="14" />
<ellipse fill="#4f563b" fill-opacity="0.662745" cx="251" cy="71" rx="12" ry="11" />
<ellipse fill="#ccd7d6" fill-opacity="0.286275" cx="219" cy="41" rx="29" ry="33" />
<ellipse fill="#262900" fill-opacity="0.141176" cx="250" cy="127" rx="27" ry="25" />
<ellipse fill="#060704" fill-opacity="0.439216" cx="175" cy="142" rx="6" ry="8" />
<ellipse fill="#939070" fill-opacity="0.650980" cx="79" cy="54" rx="12" ry="12" />
<ellipse fill="#cfdee4" fill-opacity="0.513725" cx="124" cy="0" rx="78" ry="8" />
<ellipse fill="#847d57" fill-opacity="0.713725" cx="55" cy="120" rx="27" ry="8" />
<ellipse fill="#28340f" fill-opacity="0.435294" cx="48" cy="135" rx="17" ry="4" />
<ellipse fill="#90974d" fill-opacity="0.552941" cx="83" cy="141" rx="56" ry="2" />
<ellipse fill="#a0a192" fill-opacity="0.592157" cx="143" cy="74" rx="8" ry="11" />
<ellipse fill="#8c8470" fill-opacity="0.474510" cx="222" cy="89" rx="29" ry="7" />
<ellipse fill="#3e4836" fill-opacity="0.478431" cx="179" cy="77" rx="14" ry="6" />
<ellipse fill="#79693b" fill-opacity="0.627451" cx="44" cy="65" rx="33" ry="8" />
<ellipse fill="#616531" fill-opacity="0.643137" cx="92" cy="137" rx="24" ry="4" />
<ellipse fill="#9ba8a9" fill-opacity="0.670588" cx="255" cy="0" rx="12" ry="27" />
<ellipse fill="#877d62" fill-opacity="0.470588" cx="161" cy="102" rx="71" ry="5" />
<ellipse fill="#dae3e4" fill-opacity="0.592157" cx="57" cy="23" rx="17" ry="17" />
<ellipse fill="#b5b295" fill-opacity="0.486275" cx="35" cy="55" rx="5" ry="7" />
<ellipse fill="#6e644d" fill-opacity="0.588235" cx="12" cy="101" rx="33" ry="7" />
<ellipse fill="#e4eeef" fill-opacity="0.670588" cx="131" cy="30" rx="29" ry="27" />
<ellipse fill="#888445" fill-opacity="0.501961" cx="113" cy="62" rx="14" ry="8" />
<ellipse fill="#a49978" fill-opacity="0.533333" cx="126" cy="111" rx="36" ry="8" />
<ellipse fill="#d4863e" fill-opacity="0.294118" cx="230" cy="58" rx="3" ry="19" />
<ellipse fill="#d9e2e0" fill-opacity="0.647059" cx="199" cy="51" rx="13" ry="25" />
<ellipse fill="#ab9b76" fill-opacity="0.654902" cx="101" cy="53" rx="12" ry="6" />
<ellipse fill="#bdcdd5" fill-opacity="0.286275" cx="213" cy="6" rx="25" ry="40" />
<ellipse fill="#cdc6ac" fill-opacity="0.486275" cx="202" cy="98" rx="13" ry="4" />
<ellipse fill="#9a9475" fill-opacity="0.545098" cx="48" cy="47" rx="13" ry="10" />
<ellipse fill="#9c9369" fill-opacity="0.466667" cx="154" cy="140" rx="6" ry="16" />
<ellipse fill="#5d543b" fill-opacity="0.356863" cx="97" cy="80" rx="32" ry="14" />
<ellipse fill="#535829" fill-opacity="0.494118" cx="184" cy="115" rx="7" ry="4" />
<ellipse fill="#aca18a" fill-opacity="0.431373" cx="79" cy="95" rx="48" ry="2" />
<ellipse fill="#b5b593" fill-opacity="0.396078" cx="154" cy="66" rx="26" ry="2" />
<ellipse fill="#3b341d" fill-opacity="0.490196" cx="93" cy="96" rx="2" ry="7" />
<ellipse fill="#3a3925" fill-opacity="0.556863" cx="124" cy="88" rx="4" ry="6" />
<ellipse fill="#58533b" fill-opacity="0.823529" cx="107" cy="94" rx="2" ry="10" />
<ellipse fill="#a49373" fill-opacity="0.333333" cx="36" cy="86" rx="10" ry="10" />
<ellipse fill="#e5eee8" fill-opacity="0.501961" cx="149" cy="50" rx="5" ry="19" />
<ellipse fill="#838652" fill-opacity="0.368627" cx="200" cy="131" rx="30" ry="8" />
<ellipse fill="#364513" fill-opacity="0.560784" cx="5" cy="142" rx="12" ry="8" />
<ellipse fill="#9c9377" fill-opacity="0.568627" cx="202" cy="109" rx="14" ry="11" />
<ellipse fill="#8a815e" fill-opacity="0.611765" cx="132" cy="105" rx="4" ry="29" />
<ellipse fill="#776847" fill-opacity="0.470588" cx="67" cy="82" rx="27" ry="11" />
<ellipse fill="#a79d86" fill-opacity="0.337255" cx="233" cy="111" rx="16" ry="3" />
<ellipse fill="#868c82" fill-opacity="0.650980" cx="1" cy="49" rx="6" ry="2" />
<ellipse fill="#d6d6cf" fill-opacity="0.376471" cx="226" cy="58" rx="23" ry="3" />
<ellipse fill="#f7f5e3" fill-opacity="0.784314" cx="176" cy="92" rx="3" ry="1" />
<ellipse fill="#9a9362" fill-opacity="0.345098" cx="90" cy="142" rx="4" ry="38" />
<ellipse fill="#898756" fill-opacity="0.494118" cx="123" cy="74" rx="8" ry="4" />
<ellipse fill="#d4dcd8" fill-opacity="0.552941" cx="22" cy="37" rx="13" ry="15" />
<ellipse fill="#ced6d3" fill-opacity="0.403922" cx="218" cy="70" rx="10" ry="16" />
<ellipse fill="#636229" fill-opacity="0.392157" cx="102" cy="131" rx="9" ry="9" />
<ellipse fill="#2e3726" fill-opacity="0.447059" cx="185" cy="81" rx="2" ry="8" />
<ellipse fill="#131100" fill-opacity="0.486275" cx="31" cy="66" rx="2" ry="4" />
<ellipse fill="#393320" fill-opacity="0.286275" cx="120" cy="96" rx="3" ry="9" />
<ellipse fill="#8e8361" fill-opacity="0.501961" cx="92" cy="118" rx="21" ry="9" />
<ellipse fill="#283313" fill-opacity="0.423529" cx="162" cy="108" rx="4" ry="2" />
<ellipse fill="#545b47" fill-opacity="0.537255" cx="7" cy="53" rx="18" ry="2" />
<ellipse fill="#a0abaf" fill-opacity="0.443137" cx="0" cy="0" rx="10" ry="16" />
<ellipse fill="#e2ebe8" fill-opacity="0.498039" cx="152" cy="42" rx="27" ry="23" />
<ellipse fill="#64643b" fill-opacity="0.490196" cx="12" cy="124" rx="26" ry="12" />
<ellipse fill="#5d533a" fill-opacity="0.505882" cx="0" cy="81" rx="6" ry="6" />
<ellipse fill="#d6dedb" fill-opacity="0.490196" cx="206" cy="69" rx="4" ry="18" />
<ellipse fill="#4d5225" fill-opacity="0.301961" cx="167" cy="126" rx="10" ry="5" />
<ellipse fill="#75694c" fill-opacity="0.545098" cx="77" cy="106" rx="2" ry="16" />
<ellipse fill="#aba07e" fill-opacity="0.415686" cx="113" cy="109" rx="24" ry="6" />
</g>
</svg>