<svg xmlns="http://www.w3.org/2000/svg" version="1.1" width="256" height="136">
<rect x="0" y="0" width="256" height="136" fill="#f0f0f0" />
<g transform="scale(1.000000) translate(0.5 0.5)">
<ellipse fill="#262700" fill-opacity="0.658824" cx="25" cy="100" rx="255" ry="83" />
<ellipse fill="#595a3c" fill-opacity="0.552941" cx="238" cy="62" rx="42" ry="77" />
<ellipse fill="#666a4c" fill-opacity="1.000000" cx="0" cy="26" rx="63" ry="20" />
<ellipse fill="#d8dee0" fill-opacity="0.831373" cx="165" cy="17" rx="57" ry="22" />
<ellipse fill="#f9e8d3" fill-opacity="0.533333" cx="35" cy="84" rx="17" ry="9" />
<ellipse fill="#3e3535" fill-opacity="0.447059" cx="71" cy="127" rx="85" ry="32" />
<ellipse fill="#e3eaec" fill-opacity="0.878431" cx="120" cy="15" rx="49" ry="11" />
<ellipse fill="#9a9b74" fill-opacity="0.490196" cx="226" cy="42" rx="41" ry="26" />
<ellipse fill="#8b8f58" fill-opacity="0.945098" cx="67" cy="37" rx="81" ry="7" />
<ellipse fill="#393d3b" fill-opacity="0.756863" cx="0" cy="16" rx="25" ry="12" />
<ellipse fill="#8b857c" fill-opacity="0.627451" cx="176" cy="94" rx="52" ry="10" />
<ellipse fill="#c6b8ab" fill-opacity="0.415686" cx="21" cy="94" rx="24" ry="10" />
<ellipse fill="#465223" fill-opacity="0.576471" cx="162" cy="74" rx="43" ry="12" />
<ellipse fill="#949183" fill-opacity="0.756863" cx="107" cy="65" rx="10" ry="22" />
<ellipse fill="#342d36" fill-opacity="0.400000" cx="242" cy="128" rx="57" ry="29" />
<ellipse fill="#d1d4d8" fill-opacity="0.470588" cx="191" cy="36" rx="31" ry="7" />
<ellipse fill="#57632f" fill-opacity="0.576471" cx="30" cy="60" rx="69" ry="15" />
<ellipse fill="#7d824f" fill-opacity="0.835294" cx="155" cy="48" rx="48" ry="8" />
<ellipse fill="#829715" fill-opacity="0.301961" cx="255" cy="61" rx="130" ry="9" />
<ellipse fill="#afb1ac" fill-opacity="0.533333" cx="215" cy="19" rx="15" ry="29" />
<ellipse fill="#484b48" fill-opacity="0.694118" cx="39" cy="22" rx="32" ry="8" />
<ellipse fill="#d4e1e6" fill-opacity="0.478431" cx="46" cy="3" rx="36" ry="8" />
<ellipse fill="#e0e5e8" fill-opacity="0.752941" cx="164" cy="12" rx="43" ry="26" />
<ellipse fill="#332e20" fill-opacity="0.454902" cx="8" cy="118" rx="12" ry="19" />
<ellipse fill="#ecea72" fill-opacity="0.309804" cx="9" cy="29" rx="20" ry="4" />
<ellipse fill="#47484c" fill-opacity="0.596078" cx="91" cy="30" rx="31" ry="4" />
<ellipse fill="#89837a" fill-opacity="0.494118" cx="164" cy="103" rx="24" ry="17" />
<ellipse fill="#41432b" fill-opacity="0.607843" cx="249" cy="92" rx="13" ry="22" />
<ellipse fill="#b1a89c" fill-opacity="0.576471" cx="88" cy="82" rx="10" ry="5" />
<ellipse fill="#1b1b2d" fill-opacity="0.450980" cx="209" cy="50" rx="16" ry="3" />
<ellipse fill="#2f2823" fill-opacity="0.364706" cx="196" cy="101" rx="9" ry="10" />
<ellipse fill="#ccd46f" fill-opacity="0.329412" cx="118" cy="42" rx="23" ry="5" />
<ellipse fill="#ccc1b2" fill-opacity="0.501961" cx="50" cy="79" rx="6" ry="5" />
<ellipse fill="#cac867" fill-opacity="0.388235" cx="205" cy="56" rx="36" ry="3" />
<ellipse fill="#595e3b" fill-opacity="0.619608" cx="1" cy="61" rx="33" ry="25" />
<ellipse fill="#bfc16b" fill-opacity="0.435294" cx="49" cy="34" rx="30" ry="4" />
<ellipse fill="#656161" fill-opacity="0.313725" cx="255" cy="26" rx="10" ry="38" />
<ellipse fill="#4f5f23" fill-opacity="0.521569" cx="223" cy="73" rx="35" ry="9" />
<ellipse fill="#45464c" fill-opacity="0.572549" cx="147" cy="38" rx="10" ry="2" />
<ellipse fill="#bbbe63" fill-opacity="0.556863" cx="152" cy="47" rx="15" ry="3" />
<ellipse fill="#a8a89b" fill-opacity="0.596078" cx="206" cy="37" rx="19" ry="9" />
<ellipse fill="#b4b09f" fill-opacity="0.415686" cx="211" cy="94" rx="6" ry="10" />
<ellipse fill="#4e5b33" fill-opacity="0.364706" cx="142" cy="63" rx="28" ry="17" />
<ellipse fill="#a49e8c" fill-opacity="0.537255" cx="23" cy="101" rx="8" ry="8" />
<ellipse fill="#484435" fill-opacity="0.419608" cx="45" cy="121" rx="20" ry="28" />
<ellipse fill="#3c3c48" fill-opacity="0.564706" cx="184" cy="46" rx="17" ry="3" />
<ellipse fill="#7a8743" fill-opacity="0.388235" cx="53" cy="47" rx="48" ry="11" />
<ellipse fill="#595649" fill-opacity="0.494118" cx="158" cy="101" rx="15" ry="6" />
<ellipse fill="#babe5e" fill-opacity="0.466667" cx="173" cy="51" rx="12" ry="4" />
<ellipse fill="#e3eaec" fill-opacity="0.560784" cx="117" cy="5" rx="27" ry="23" />
<ellipse fill="#4c4c4f" fill-opacity="0.650980" cx="111" cy="33" rx="16" ry="3" />
<ellipse fill="#595653" fill-opacity="0.450980" cx="100" cy="83" rx="8" ry="16" />
<ellipse fill="#dfe17c" fill-opacity="0.407843" cx="90" cy="36" rx="12" ry="3" />
<ellipse fill="#5b574b" fill-opacity="0.678431" cx="111" cy="121" rx="33" ry="28" />
<ellipse fill="#1c1b48" fill-opacity="0.431373" cx="130" cy="36" rx="6" ry="3" />
<ellipse fill="#e5e8e9" fill-opacity="0.623529" cx="177" cy="38" rx="9" ry="3" />
<ellipse fill="#e6ebee" fill-opacity="0.549020" cx="143" cy="26" rx="21" ry="9" />
<ellipse fill="#e1e8ea" fill-opacity="0.501961" cx="52" cy="0" rx="25" ry="14" />
<ellipse fill="#b3a79c" fill-opacity="0.501961" cx="199" cy="83" rx="6" ry="4" />
<ellipse fill="#b1b1a2" fill-opacity="0.537255" cx="98" cy="71" rx="2" ry="10" />
<ellipse fill="#575246" fill-opacity="0.498039" cx="65" cy="104" rx="23" ry="22" />
<ellipse fill="#444849" fill-opacity="0.447059" cx="79" cy="27" rx="18" ry="6" />
<ellipse fill="#beb6ab" fill-opacity="0.478431" cx="228" cy="84" rx="3" ry="5" />
<ellipse fill="#9d9a93" fill-opacity="0.400000" cx="132" cy="90" rx="27" ry="3" />
<ellipse fill="#ada79b" fill-opacity="0.670588" cx="73" cy="81" rx="10" ry="2" />
<ellipse fill="#413542" fill-opacity="0.443137" cx="233" cy="54" rx="12" ry="2" />
<ellipse fill="#e5ddc1" fill-opacity="0.352941" cx="183" cy="95" rx="6" ry="5" />
<ellipse fill="#d2d9dc" fill-opacity="0.627451" cx="197" cy="0" rx="21" ry="12" />
<ellipse fill="#d7ceb2" fill-opacity="0.478431" cx="104" cy="53" rx="3" ry="7" />
<ellipse fill="#52553b" fill-opacity="0.564706" cx="148" cy="81" rx="31" ry="7" />
<ellipse fill="#444a2f" fill-opacity="0.525490" cx="68" cy="70" rx="9" ry="10" />
<ellipse fill="#ada79b" fill-opacity="0.505882" cx="168" cy="113" rx="8" ry="4" />
<ellipse fill="#b0a6a0" fill-opacity="0.372549" cx="189" cy="116" rx="4" ry="6" />
<ellipse fill="#3f3c30" fill-opacity="0.525490" cx="114" cy="104" rx="20" ry="5" />
<ellipse fill="#5c594d" fill-opacity="0.847059" cx="183" cy="135" rx="32" ry="9" />
<ellipse fill="#3c3d49" fill-opacity="0.592157" cx="169" cy="43" rx="14" ry="2" />
<ellipse fill="#b3ad9d" fill-opacity="0.474510" cx="109" cy="72" rx="3" ry="21" />
<ellipse fill="#9a9893" fill-opacity="0.345098" cx="227" cy="30" rx="21" ry="21" />
<ellipse fill="#4f523a" fill-opacity="0.541176" cx="18" cy="63" rx="6" ry="22" />
<ellipse fill="#6f6c5b" fill-opacity="0.498039" cx="68" cy="121" rx="7" ry="16" />
<ellipse fill="#5a5450" fill-opacity="0.498039" cx="243" cy="94" rx="29" ry="7" />
<ellipse fill="#a0a55a" fill-opacity="0.607843" cx="55" cy="42" rx="8" ry="6" />
<ellipse fill="#736f65" fill-opacity="0.564706" cx="154" cy="121" rx="13" ry="7" />
<ellipse fill="#353935" fill-opacity="0.513725" cx="0" cy="13" rx="11" ry="10" />
<ellipse fill="#262317" fill-opacity="0.580392" cx="0" cy="123" rx="4" ry="19" />
<ellipse fill="#352d1c" fill-opacity="0.498039" cx="57" cy="97" rx="12" ry="4" />
<ellipse fill="#373b3e" fill-opacity="0.560784" cx="30" cy="14" rx="16" ry="3" />
<ellipse fill="#e1e8eb" fill-opacity="0.470588" cx="75" cy="4" rx="24" ry="16" />
<ellipse fill="#9e9f54" fill-opacity="0.411765" cx="11" cy="55" rx="3" ry="11" />
<ellipse fill="#666f42" fill-opacity="0.631373" cx="82" cy="52" rx="21" ry="8" />
<ellipse fill="#77775d" fill-opacity="0.776471" cx="141" cy="88" rx="3" ry="11" />
<ellipse fill="#9fa042" fill-opacity="0.615686" cx="249" cy="60" rx="23" ry="4" />
<ellipse fill="#000008" fill-opacity="0.235294" cx="119" cy="57" rx="5" ry="5" />
<ellipse fill="#686a5b" fill-opacity="0.494118" cx="12" cy="74" rx="21" ry="5" />
<ellipse fill="#78777a" fill-opacity="0.505882" cx="116" cy="75" rx="3" ry="17" />
<ellipse fill="#3c4419" fill-opacity="0.525490" cx="246" cy="82" rx="11" ry="8" />
<ellipse fill="#3e3d2e" fill-opacity="0.545098" cx="104" cy="75" rx="3" ry="5" />
<ellipse fill="#d2dadc" fill-opacity="0.635294" cx="12" cy="0" rx="12" ry="6" />
<ellipse fill="#cec968" fill-opacity="0.431373" cx="217" cy="56" rx="18" ry="2" />
<ellipse fill="#5c5749" fill-opacity="0.321569" cx="16" cy="116" rx="5" ry="26" />
</g>
</svg>