<svg xmlns="http://www.w3.org/2000/svg" version="1.1" width="150" height="256">
<rect x="0" y="0" width="150" height="256" fill="#f0f0f0" />
<g transform="scale(1.000000) translate(0.5 0.5)">
<ellipse fill="#2f260f" fill-opacity="0.388235" cx="98" cy="60" rx="77" ry="255" />
<ellipse fill="#592600" fill-opacity="0.545098" cx="82" cy="170" rx="56" ry="36" />
<ellipse fill="#b7cbd6" fill-opacity="0.956863" cx="0" cy="34" rx="56" ry="153" />
<ellipse fill="#c5e7ff" fill-opacity="0.607843" cx="129" cy="91" rx="23" ry="55" />
<ellipse fill="#d29e68" fill-opacity="0.811765" cx="86" cy="216" rx="32" ry="51" />
<ellipse fill="#bed0d6" fill-opacity="0.968627" cx="12" cy="235" rx="46" ry="48" />
<ellipse fill="#3b1500" fill-opacity="0.580392" cx="80" cy="81" rx="24" ry="9" />
<ellipse fill="#809bac" fill-opacity="0.717647" cx="117" cy="0" rx="149" ry="45" />
<ellipse fill="#bedcec" fill-opacity="0.654902" cx="149" cy="219" rx="34" ry="34" />
<ellipse fill="#4a260d" fill-opacity="0.572549" cx="59" cy="94" rx="9" ry="16" />
<ellipse fill="#ffcb86" fill-opacity="0.576471" cx="77" cy="108" rx="15" ry="25" />
<ellipse fill="#4b1a00" fill-opacity="0.549020" cx="77" cy="40" rx="18" ry="7" />
<ellipse fill="#bed1dc" fill-opacity="0.992157" cx="149" cy="159" rx="12" ry="68" />
<ellipse fill="#e6f1f2" fill-opacity="0.486275" cx="30" cy="125" rx="31" ry="25" />
<ellipse fill="#3c1d08" fill-opacity="0.537255" cx="100" cy="94" rx="8" ry="14" />
<ellipse fill="#000000" fill-opacity="0.317647" cx="126" cy="171" rx="11" ry="25" />
<ellipse fill="#140909" fill-opacity="0.411765" cx="86" cy="145" rx="39" ry="9" />
<ellipse fill="#221d1b" fill-opacity="0.525490" cx="42" cy="173" rx="12" ry="25" />
<ellipse fill="#b2cdde" fill-opacity="0.729412" cx="110" cy="55" rx="15" ry="29" />
<ellipse fill="#cadde9" fill-opacity="0.717647" cx="124" cy="116" rx="25" ry="17" />
<ellipse fill="#361904" fill-opacity="0.501961" cx="62" cy="52" rx="6" ry="12" />
<ellipse fill="#f9d093" fill-opacity="0.529412" cx="81" cy="233" rx="18" ry="19" />
<ellipse fill="#eec38e" fill-opacity="0.658824" cx="76" cy="59" rx="13" ry="14" />
<ellipse fill="#c3d3d6" fill-opacity="0.360784" cx="69" cy="24" rx="53" ry="11" />
<ellipse fill="#39302d" fill-opacity="0.847059" cx="93" cy="51" rx="3" ry="9" />
<ellipse fill="#7b563a" fill-opacity="0.556863" cx="58" cy="220" rx="3" ry="81" />
<ellipse fill="#37576e" fill-opacity="0.411765" cx="149" cy="0" rx="35" ry="19" />
<ellipse fill="#cedde6" fill-opacity="0.866667" cx="2" cy="166" rx="27" ry="49" />
<ellipse fill="#eac18d" fill-opacity="0.709804" cx="92" cy="114" rx="6" ry="22" />
<ellipse fill="#ffe7af" fill-opacity="0.650980" cx="86" cy="205" rx="16" ry="4" />
<ellipse fill="#a77b50" fill-opacity="0.474510" cx="110" cy="221" rx="7" ry="50" />
<ellipse fill="#617481" fill-opacity="0.466667" cx="0" cy="0" rx="44" ry="15" />
<ellipse fill="#cbdfe8" fill-opacity="0.529412" cx="38" cy="69" rx="23" ry="20" />
<ellipse fill="#9fb4bc" fill-opacity="0.886275" cx="147" cy="254" rx="29" ry="25" />
<ellipse fill="#e1c693" fill-opacity="0.435294" cx="80" cy="159" rx="19" ry="3" />
<ellipse fill="#a6bac0" fill-opacity="0.603922" cx="0" cy="251" rx="58" ry="16" />
<ellipse fill="#3b2f25" fill-opacity="0.615686" cx="48" cy="191" rx="6" ry="13" />
<ellipse fill="#96b3c7" fill-opacity="0.552941" cx="134" cy="49" rx="21" ry="22" />
<ellipse fill="#0d0500" fill-opacity="0.505882" cx="119" cy="197" rx="4" ry="5" />
<ellipse fill="#a8bfcc" fill-opacity="0.819608" cx="25" cy="35" rx="37" ry="10" />
<ellipse fill="#cbdde6" fill-opacity="0.768627" cx="17" cy="113" rx="36" ry="35" />
<ellipse fill="#30261d" fill-opacity="0.639216" cx="80" cy="72" rx="9" ry="2" />
<ellipse fill="#2a0102" fill-opacity="0.321569" cx="87" cy="166" rx="16" ry="5" />
<ellipse fill="#d1e0e5" fill-opacity="0.741176" cx="37" cy="212" rx="19" ry="10" />
<ellipse fill="#483029" fill-opacity="0.521569" cx="86" cy="199" rx="14" ry="2" />
<ellipse fill="#f8c589" fill-opacity="0.509804" cx="86" cy="186" rx="24" ry="4" />
<ellipse fill="#9bb4c4" fill-opacity="0.745098" cx="103" cy="29" rx="18" ry="14" />
<ellipse fill="#875035" fill-opacity="0.474510" cx="90" cy="214" rx="26" ry="3" />
<ellipse fill="#daa166" fill-opacity="0.552941" cx="99" cy="255" rx="19" ry="39" />
<ellipse fill="#563f29" fill-opacity="0.325490" cx="45" cy="164" rx="17" ry="20" />
<ellipse fill="#c0d2da" fill-opacity="0.882353" cx="145" cy="201" rx="18" ry="19" />
<ellipse fill="#996e48" fill-opacity="0.588235" cx="59" cy="198" rx="9" ry="13" />
<ellipse fill="#eea756" fill-opacity="0.470588" cx="75" cy="29" rx="10" ry="5" />
<ellipse fill="#c19363" fill-opacity="0.607843" cx="64" cy="122" rx="5" ry="18" />
<ellipse fill="#c9d8e0" fill-opacity="0.564706" cx="148" cy="137" rx="22" ry="21" />
<ellipse fill="#bdd1dd" fill-opacity="0.474510" cx="111" cy="64" rx="19" ry="17" />
<ellipse fill="#452305" fill-opacity="0.356863" cx="90" cy="49" rx="4" ry="13" />
<ellipse fill="#f3c790" fill-opacity="0.403922" cx="88" cy="130" rx="31" ry="5" />
<ellipse fill="#40322b" fill-opacity="0.619608" cx="80" cy="78" rx="14" ry="7" />
<ellipse fill="#ffedb9" fill-opacity="0.513725" cx="85" cy="195" rx="12" ry="2" />
<ellipse fill="#41362e" fill-opacity="0.403922" cx="125" cy="168" rx="14" ry="18" />
<ellipse fill="#ecd0a9" fill-opacity="0.388235" cx="35" cy="146" rx="7" ry="9" />
<ellipse fill="#f4d7a4" fill-opacity="0.376471" cx="88" cy="225" rx="22" ry="10" />
<ellipse fill="#f0b067" fill-opacity="0.470588" cx="53" cy="137" rx="7" ry="5" />
<ellipse fill="#9a642e" fill-opacity="0.172549" cx="117" cy="156" rx="13" ry="23" />
<ellipse fill="#e8c296" fill-opacity="0.301961" cx="76" cy="57" rx="14" ry="15" />
<ellipse fill="#c79061" fill-opacity="0.407843" cx="87" cy="183" rx="31" ry="15" />
<ellipse fill="#2f2920" fill-opacity="0.588235" cx="124" cy="185" rx="5" ry="12" />
<ellipse fill="#38302b" fill-opacity="0.584314" cx="38" cy="180" rx="10" ry="8" />
<ellipse fill="#cddce3" fill-opacity="0.678431" cx="25" cy="204" rx="13" ry="20" />
<ellipse fill="#554d4a" fill-opacity="0.431373" cx="114" cy="206" rx="2" ry="22" />
<ellipse fill="#72452a" fill-opacity="0.450980" cx="62" cy="218" rx="6" ry="5" />
<ellipse fill="#1a1002" fill-opacity="0.349020" cx="77" cy="37" rx="9" ry="5" />
<ellipse fill="#c4d6dc" fill-opacity="0.474510" cx="126" cy="224" rx="10" ry="27" />
<ellipse fill="#261e1c" fill-opacity="0.376471" cx="56" cy="96" rx="6" ry="12" />
<ellipse fill="#cbdee6" fill-opacity="0.603922" cx="30" cy="117" rx="31" ry="14" />
<ellipse fill="#c9d8dd" fill-opacity="0.490196" cx="42" cy="247" rx="15" ry="47" />
<ellipse fill="#422f25" fill-opacity="0.466667" cx="64" cy="149" rx="14" ry="11" />
<ellipse fill="#f7cf9c" fill-opacity="0.521569" cx="81" cy="97" rx="12" ry="10" />
<ellipse fill="#443227" fill-opacity="0.427451" cx="85" cy="143" rx="23" ry="10" />
<ellipse fill="#704c35" fill-opacity="0.505882" cx="85" cy="178" rx="16" ry="2" />
<ellipse fill="#050403" fill-opacity="0.333333" cx="59" cy="49" rx="3" ry="9" />
<ellipse fill="#2c211b" fill-opacity="0.568627" cx="51" cy="199" rx="3" ry="6" />
<ellipse fill="#7b9eb5" fill-opacity="0.372549" cx="115" cy="16" rx="27" ry="13" />
<ellipse fill="#6c503d" fill-opacity="0.423529" cx="63" cy="85" rx="13" ry="7" />
<ellipse fill="#7e523b" fill-opacity="0.400000" cx="73" cy="55" rx="14" ry="2" />
<ellipse fill="#d99e67" fill-opacity="0.470588" cx="62" cy="195" rx="7" ry="8" />
<ellipse fill="#c2d3db" fill-opacity="0.639216" cx="143" cy="207" rx="29" ry="9" />
<ellipse fill="#d1b58a" fill-opacity="0.509804" cx="99" cy="160" rx="5" ry="3" />
<ellipse fill="#9b7655" fill-opacity="0.713725" cx="109" cy="201" rx="8" ry="7" />
<ellipse fill="#1f3846" fill-opacity="0.078431" cx="2" cy="22" rx="11" ry="38" />
<ellipse fill="#d6a971" fill-opacity="0.537255" cx="116" cy="137" rx="8" ry="5" />
<ellipse fill="#bd7c47" fill-opacity="0.388235" cx="101" cy="255" rx="19" ry="12" />
<ellipse fill="#75563c" fill-opacity="0.670588" cx="58" cy="218" rx="2" ry="20" />
<ellipse fill="#90a6b0" fill-opacity="0.352941" cx="9" cy="255" rx="36" ry="10" />
<ellipse fill="#433129" fill-opacity="0.435294" cx="110" cy="218" rx="5" ry="3" />
<ellipse fill="#905239" fill-opacity="0.592157" cx="86" cy="192" rx="16" ry="2" />
<ellipse fill="#e5a25e" fill-opacity="0.388235" cx="64" cy="252" rx="8" ry="29" />
<ellipse fill="#e6b279" fill-opacity="0.643137" cx="85" cy="183" rx="16" ry="5" />
<ellipse fill="#3a2b21" fill-opacity="0.513725" cx="100" cy="100" rx="3" ry="11" />
</g>
</svg>