<svg xmlns="http://www.w3.org/2000/svg" version="1.1" width="256" height="143">
<rect x="0" y="0" width="256" height="143" fill="#f0f0f0" />
<g transform="scale(1.000000) translate(0.5 0.5)">
<ellipse fill="#474528" fill-opacity="0.721569" cx="125" cy="68" rx="170" ry="134" />
<ellipse fill="#a8acaa" fill-opacity="0.725490" cx="217" cy="0" rx="155" ry="37" />
<ellipse fill="#3e482f" fill-opacity="0.494118" cx="5" cy="71" rx="128" ry="45" />
<ellipse fill="#786d4b" fill-opacity="1.000000" cx="54" cy="135" rx="235" ry="35" />
<ellipse fill="#8b8d86" fill-opacity="0.572549" cx="232" cy="47" rx="78" ry="22" />
<ellipse fill="#707c71" fill-opacity="0.450980" cx="101" cy="37" rx="71" ry="23" />
<ellipse fill="#031a1b" fill-opacity="0.258824" cx="4" cy="28" rx="14" ry="70" />
<ellipse fill="#babbb6" fill-opacity="0.501961" cx="183" cy="3" rx="48" ry="19" />
<ellipse fill="#474932" fill-opacity="0.325490" cx="78" cy="85" rx="83" ry="21" />
<ellipse fill="#92825d" fill-opacity="0.498039" cx="196" cy="100" rx="49" ry="25" />
<ellipse fill="#22291f" fill-opacity="0.541176" cx="160" cy="122" rx="13" ry="6" />
<ellipse fill="#7d8888" fill-opacity="0.592157" cx="67" cy="6" rx="36" ry="17" />
<ellipse fill="#575433" fill-opacity="0.549020" cx="242" cy="142" rx="38" ry="24" />
<ellipse fill="#917e5d" fill-opacity="0.454902" cx="109" cy="134" rx="48" ry="21" />
<ellipse fill="#6c6c5b" fill-opacity="0.450980" cx="137" cy="70" rx="58" ry="29" />
<ellipse fill="#2c301f" fill-opacity="0.443137" cx="171" cy="142" rx="8" ry="18" />
<ellipse fill="#50533e" fill-opacity="0.552941" cx="116" cy="108" rx="31" ry="6" />
<ellipse fill="#e2c48c" fill-opacity="0.223529" cx="38" cy="107" rx="21" ry="6" />
<ellipse fill="#000202" fill-opacity="0.219608" cx="63" cy="96" rx="50" ry="4" />
<ellipse fill="#526258" fill-opacity="0.372549" cx="38" cy="36" rx="34" ry="25" />
<ellipse fill="#9a8e6e" fill-opacity="0.427451" cx="228" cy="73" rx="22" ry="11" />
<ellipse fill="#90805b" fill-opacity="0.568627" cx="78" cy="118" rx="29" ry="8" />
<ellipse fill="#907c5a" fill-opacity="0.654902" cx="164" cy="142" rx="7" ry="10" />
<ellipse fill="#b6b3b0" fill-opacity="0.172549" cx="222" cy="35" rx="18" ry="26" />
<ellipse fill="#69592d" fill-opacity="0.552941" cx="0" cy="135" rx="12" ry="31" />
<ellipse fill="#55441d" fill-opacity="0.125490" cx="255" cy="65" rx="8" ry="127" />
<ellipse fill="#877a60" fill-opacity="0.541176" cx="95" cy="87" rx="13" ry="5" />
<ellipse fill="#414a29" fill-opacity="0.521569" cx="10" cy="78" rx="17" ry="19" />
<ellipse fill="#8b7d60" fill-opacity="0.411765" cx="186" cy="102" rx="26" ry="29" />
<ellipse fill="#67644f" fill-opacity="0.713725" cx="135" cy="93" rx="13" ry="32" />
<ellipse fill="#667070" fill-opacity="0.552941" cx="24" cy="10" rx="15" ry="13" />
<ellipse fill="#949189" fill-opacity="0.262745" cx="151" cy="27" rx="27" ry="20" />
<ellipse fill="#383a38" fill-opacity="0.509804" cx="147" cy="118" rx="3" ry="7" />
<ellipse fill="#434446" fill-opacity="0.231373" cx="129" cy="84" rx="32" ry="8" />
<ellipse fill="#888c83" fill-opacity="0.513725" cx="226" cy="40" rx="34" ry="8" />
<ellipse fill="#2e3324" fill-opacity="0.447059" cx="163" cy="125" rx="9" ry="6" />
<ellipse fill="#2c3225" fill-opacity="0.458824" cx="143" cy="110" rx="4" ry="5" />
<ellipse fill="#847858" fill-opacity="0.600000" cx="160" cy="95" rx="27" ry="8" />
<ellipse fill="#4b593c" fill-opacity="0.423529" cx="32" cy="67" rx="30" ry="16" />
<ellipse fill="#dfe7ea" fill-opacity="0.066667" cx="130" cy="0" rx="89" ry="12" />
<ellipse fill="#9a8866" fill-opacity="0.427451" cx="75" cy="114" rx="11" ry="8" />
<ellipse fill="#65675a" fill-opacity="0.490196" cx="144" cy="72" rx="36" ry="9" />
<ellipse fill="#1c2513" fill-opacity="0.356863" cx="174" cy="136" rx="6" ry="5" />
<ellipse fill="#798075" fill-opacity="0.290196" cx="75" cy="22" rx="25" ry="16" />
<ellipse fill="#a4a39d" fill-opacity="0.560784" cx="177" cy="21" rx="31" ry="7" />
<ellipse fill="#7a6845" fill-opacity="0.415686" cx="52" cy="142" rx="30" ry="32" />
<ellipse fill="#ad9573" fill-opacity="0.290196" cx="109" cy="125" rx="6" ry="13" />
<ellipse fill="#504629" fill-opacity="0.545098" cx="38" cy="139" rx="2" ry="20" />
<ellipse fill="#484a36" fill-opacity="0.517647" cx="92" cy="106" rx="6" ry="7" />
<ellipse fill="#5f5d43" fill-opacity="0.529412" cx="119" cy="101" rx="11" ry="17" />
<ellipse fill="#9b8a5b" fill-opacity="0.278431" cx="129" cy="132" rx="5" ry="39" />
<ellipse fill="#3d3c35" fill-opacity="0.458824" cx="66" cy="93" rx="30" ry="3" />
<ellipse fill="#96825b" fill-opacity="0.470588" cx="32" cy="124" rx="4" ry="13" />
<ellipse fill="#7a6d3b" fill-opacity="0.474510" cx="3" cy="114" rx="20" ry="18" />
<ellipse fill="#3d4120" fill-opacity="0.560784" cx="214" cy="142" rx="5" ry="6" />
<ellipse fill="#7d8175" fill-opacity="0.443137" cx="136" cy="33" rx="32" ry="8" />
<ellipse fill="#887f64" fill-opacity="0.470588" cx="195" cy="86" rx="15" ry="34" />
<ellipse fill="#323f3e" fill-opacity="0.321569" cx="2" cy="12" rx="4" ry="48" />
<ellipse fill="#767b7b" fill-opacity="0.262745" cx="9" cy="14" rx="76" ry="5" />
<ellipse fill="#7d7965" fill-opacity="0.505882" cx="248" cy="69" rx="9" ry="21" />
<ellipse fill="#6a5c3d" fill-opacity="0.501961" cx="106" cy="141" rx="15" ry="4" />
<ellipse fill="#60664b" fill-opacity="0.384314" cx="44" cy="51" rx="36" ry="11" />
<ellipse fill="#3b4040" fill-opacity="0.478431" cx="115" cy="82" rx="8" ry="5" />
<ellipse fill="#7a6c3f" fill-opacity="0.392157" cx="251" cy="102" rx="10" ry="15" />
<ellipse fill="#7b7351" fill-opacity="0.454902" cx="223" cy="114" rx="7" ry="22" />
<ellipse fill="#565e3e" fill-opacity="0.501961" cx="52" cy="81" rx="34" ry="14" />
<ellipse fill="#787b71" fill-opacity="0.635294" cx="182" cy="49" rx="37" ry="5" />
<ellipse fill="#445140" fill-opacity="0.400000" cx="47" cy="69" rx="37" ry="7" />
<ellipse fill="#aaa07a" fill-opacity="0.133333" cx="10" cy="104" rx="59" ry="4" />
<ellipse fill="#a8947d" fill-opacity="0.290196" cx="146" cy="128" rx="4" ry="7" />
<ellipse fill="#414d4d" fill-opacity="0.270588" cx="13" cy="28" rx="20" ry="11" />
<ellipse fill="#9e988c" fill-opacity="0.407843" cx="217" cy="56" rx="6" ry="14" />
<ellipse fill="#404732" fill-opacity="0.447059" cx="80" cy="97" rx="11" ry="8" />
<ellipse fill="#8b8f86" fill-opacity="0.403922" cx="85" cy="10" rx="28" ry="8" />
<ellipse fill="#937e5d" fill-opacity="0.431373" cx="185" cy="130" rx="10" ry="5" />
<ellipse fill="#b5b1a9" fill-opacity="0.462745" cx="225" cy="19" rx="17" ry="3" />
<ellipse fill="#a6a8a3" fill-opacity="0.368627" cx="135" cy="1" rx="28" ry="18" />
<ellipse fill="#747959" fill-opacity="0.533333" cx="83" cy="52" rx="22" ry="4" />
<ellipse fill="#7a7759" fill-opacity="0.458824" cx="203" cy="81" rx="33" ry="4" />
<ellipse fill="#f1f3ed" fill-opacity="0.435294" cx="193" cy="4" rx="3" ry="2" />
<ellipse fill="#a08f63" fill-opacity="0.400000" cx="47" cy="113" rx="6" ry="5" />
<ellipse fill="#606041" fill-opacity="0.458824" cx="74" cy="102" rx="13" ry="6" />
<ellipse fill="#524720" fill-opacity="0.529412" cx="147" cy="139" rx="3" ry="2" />
<ellipse fill="#837454" fill-opacity="0.521569" cx="80" cy="124" rx="27" ry="8" />
<ellipse fill="#6d5e3e" fill-opacity="0.505882" cx="119" cy="134" rx="6" ry="5" />
<ellipse fill="#ae9a76" fill-opacity="0.447059" cx="81" cy="111" rx="7" ry="3" />
<ellipse fill="#616348" fill-opacity="0.533333" cx="82" cy="84" rx="29" ry="3" />
<ellipse fill="#625137" fill-opacity="0.537255" cx="26" cy="141" rx="4" ry="12" />
<ellipse fill="#6a5f36" fill-opacity="0.509804" cx="1" cy="119" rx="21" ry="9" />
<ellipse fill="#968968" fill-opacity="0.498039" cx="218" cy="106" rx="23" ry="3" />
<ellipse fill="#897c5c" fill-opacity="0.513725" cx="161" cy="107" rx="17" ry="6" />
<ellipse fill="#7a8275" fill-opacity="0.419608" cx="97" cy="24" rx="31" ry="4" />
<ellipse fill="#807246" fill-opacity="0.564706" cx="25" cy="114" rx="19" ry="4" />
<ellipse fill="#928765" fill-opacity="0.521569" cx="99" cy="104" rx="5" ry="2" />
<ellipse fill="#71694b" fill-opacity="0.450980" cx="40" cy="90" rx="21" ry="2" />
<ellipse fill="#81857a" fill-opacity="0.619608" cx="161" cy="35" rx="23" ry="4" />
<ellipse fill="#404432" fill-opacity="0.478431" cx="113" cy="107" rx="4" ry="6" />
<ellipse fill="#787e66" fill-opacity="0.490196" cx="139" cy="49" rx="10" ry="16" />
<ellipse fill="#a38e72" fill-opacity="0.474510" cx="92" cy="88" rx="7" ry="2" />
<ellipse fill="#675c36" fill-opacity="0.439216" cx="125" cy="131" rx="4" ry="5" />
</g>
</svg>