<svg xmlns="http://www.w3.org/2000/svg" version="1.1" width="256" height="143">
<rect x="0" y="0" width="256" height="143" fill="#f0f0f0" />
<g transform="scale(1.000000) translate(0.5 0.5)">
<ellipse fill="#4a5152" fill-opacity="0.650980" cx="137" cy="65" rx="189" ry="120" />
<ellipse fill="#31260f" fill-opacity="0.407843" cx="165" cy="119" rx="149" ry="44" />
<ellipse fill="#c7d7ee" fill-opacity="0.564706" cx="0" cy="0" rx="159" ry="76" />
<ellipse fill="#b0c1d6" fill-opacity="0.623529" cx="250" cy="33" rx="27" ry="66" />
<ellipse fill="#9cabbd" fill-opacity="1.000000" cx="227" cy="7" rx="82" ry="29" />
<ellipse fill="#bcc7cf" fill-opacity="0.952941" cx="0" cy="81" rx="20" ry="43" />
<ellipse fill="#040b0c" fill-opacity="0.400000" cx="249" cy="123" rx="61" ry="24" />
<ellipse fill="#30322f" fill-opacity="0.572549" cx="203" cy="57" rx="17" ry="19" />
<ellipse fill="#1c1200" fill-opacity="0.431373" cx="136" cy="60" rx="59" ry="7" />
<ellipse fill="#cdcaba" fill-opacity="0.474510" cx="123" cy="102" rx="69" ry="6" />
<ellipse fill="#b8ad94" fill-opacity="0.341176" cx="81" cy="105" rx="25" ry="64" />
<ellipse fill="#131106" fill-opacity="0.478431" cx="122" cy="114" rx="50" ry="6" />
<ellipse fill="#eff1e9" fill-opacity="0.596078" cx="28" cy="92" rx="36" ry="4" />
<ellipse fill="#343024" fill-opacity="0.490196" cx="146" cy="69" rx="8" ry="39" />
<ellipse fill="#181b18" fill-opacity="0.525490" cx="31" cy="101" rx="21" ry="6" />
<ellipse fill="#7b735e" fill-opacity="0.466667" cx="124" cy="38" rx="31" ry="9" />
<ellipse fill="#666863" fill-opacity="0.854902" cx="221" cy="87" rx="11" ry="35" />
<ellipse fill="#262215" fill-opacity="0.600000" cx="29" cy="142" rx="26" ry="6" />
<ellipse fill="#302b22" fill-opacity="0.650980" cx="95" cy="90" rx="5" ry="14" />
<ellipse fill="#d8e0e1" fill-opacity="0.592157" cx="46" cy="59" rx="32" ry="12" />
<ellipse fill="#cec7ac" fill-opacity="0.294118" cx="143" cy="66" rx="52" ry="6" />
<ellipse fill="#fffff9" fill-opacity="0.341176" cx="65" cy="111" rx="15" ry="6" />
<ellipse fill="#303129" fill-opacity="0.556863" cx="61" cy="123" rx="25" ry="6" />
<ellipse fill="#c1c1b4" fill-opacity="0.505882" cx="185" cy="86" rx="5" ry="22" />
<ellipse fill="#130e05" fill-opacity="0.521569" cx="172" cy="85" rx="9" ry="14" />
<ellipse fill="#fffff4" fill-opacity="0.396078" cx="172" cy="51" rx="27" ry="3" />
<ellipse fill="#201910" fill-opacity="0.580392" cx="81" cy="92" rx="4" ry="14" />
<ellipse fill="#fffff9" fill-opacity="0.337255" cx="76" cy="82" rx="17" ry="6" />
<ellipse fill="#000000" fill-opacity="0.533333" cx="194" cy="93" rx="4" ry="12" />
<ellipse fill="#bcb5a7" fill-opacity="0.384314" cx="79" cy="136" rx="25" ry="10" />
<ellipse fill="#687f9d" fill-opacity="0.498039" cx="255" cy="0" rx="28" ry="31" />
<ellipse fill="#aebaca" fill-opacity="0.709804" cx="149" cy="13" rx="67" ry="17" />
<ellipse fill="#2a271a" fill-opacity="0.533333" cx="178" cy="114" rx="33" ry="6" />
<ellipse fill="#bec9d9" fill-opacity="0.466667" cx="226" cy="38" rx="16" ry="13" />
<ellipse fill="#464848" fill-opacity="0.560784" cx="192" cy="36" rx="9" ry="8" />
<ellipse fill="#312719" fill-opacity="0.701961" cx="120" cy="79" rx="9" ry="7" />
<ellipse fill="#625e52" fill-opacity="0.482353" cx="83" cy="59" rx="6" ry="15" />
<ellipse fill="#8196b3" fill-opacity="0.603922" cx="0" cy="0" rx="39" ry="27" />
<ellipse fill="#252725" fill-opacity="0.556863" cx="208" cy="91" rx="4" ry="46" />
<ellipse fill="#262622" fill-opacity="0.415686" cx="117" cy="59" rx="26" ry="7" />
<ellipse fill="#ebe5ce" fill-opacity="0.513725" cx="113" cy="50" rx="25" ry="4" />
<ellipse fill="#070000" fill-opacity="0.431373" cx="57" cy="78" rx="7" ry="5" />
<ellipse fill="#bac1c5" fill-opacity="0.458824" cx="241" cy="60" rx="13" ry="39" />
<ellipse fill="#e9e8d9" fill-opacity="0.333333" cx="115" cy="100" rx="18" ry="7" />
<ellipse fill="#d1cfbe" fill-opacity="0.494118" cx="158" cy="83" rx="3" ry="14" />
<ellipse fill="#ffffff" fill-opacity="0.470588" cx="95" cy="71" rx="7" ry="5" />
<ellipse fill="#72716a" fill-opacity="0.607843" cx="220" cy="81" rx="22" ry="5" />
<ellipse fill="#1d180f" fill-opacity="0.541176" cx="146" cy="83" rx="10" ry="10" />
<ellipse fill="#f8f6e7" fill-opacity="0.564706" cx="87" cy="87" rx="2" ry="17" />
<ellipse fill="#34332b" fill-opacity="0.643137" cx="80" cy="119" rx="13" ry="5" />
<ellipse fill="#92928a" fill-opacity="0.615686" cx="228" cy="106" rx="4" ry="14" />
<ellipse fill="#eef3ef" fill-opacity="0.631373" cx="12" cy="117" rx="3" ry="6" />
<ellipse fill="#1a1815" fill-opacity="0.525490" cx="68" cy="72" rx="7" ry="3" />
<ellipse fill="#b2afa0" fill-opacity="0.576471" cx="131" cy="91" rx="3" ry="14" />
<ellipse fill="#f9f9ec" fill-opacity="0.560784" cx="88" cy="55" rx="4" ry="5" />
<ellipse fill="#b5b7ae" fill-opacity="0.352941" cx="201" cy="90" rx="4" ry="21" />
<ellipse fill="#33332e" fill-opacity="0.611765" cx="227" cy="139" rx="39" ry="21" />
<ellipse fill="#625c4f" fill-opacity="0.588235" cx="66" cy="100" rx="5" ry="12" />
<ellipse fill="#8f887b" fill-opacity="0.588235" cx="84" cy="47" rx="14" ry="5" />
<ellipse fill="#fffff7" fill-opacity="0.454902" cx="59" cy="101" rx="2" ry="19" />
<ellipse fill="#56564c" fill-opacity="0.733333" cx="52" cy="113" rx="5" ry="19" />
<ellipse fill="#b7b4a4" fill-opacity="0.529412" cx="186" cy="71" rx="14" ry="5" />
<ellipse fill="#292620" fill-opacity="0.596078" cx="171" cy="57" rx="25" ry="3" />
<ellipse fill="#aeada0" fill-opacity="0.556863" cx="164" cy="104" rx="30" ry="3" />
<ellipse fill="#fffff8" fill-opacity="0.333333" cx="72" cy="82" rx="2" ry="25" />
<ellipse fill="#b1c4dc" fill-opacity="0.447059" cx="52" cy="30" rx="43" ry="16" />
<ellipse fill="#b7b6a7" fill-opacity="0.525490" cx="105" cy="91" rx="4" ry="14" />
<ellipse fill="#403d31" fill-opacity="0.294118" cx="151" cy="118" rx="34" ry="14" />
<ellipse fill="#d0d1c6" fill-opacity="0.486275" cx="172" cy="47" rx="20" ry="3" />
<ellipse fill="#dbdbd1" fill-opacity="0.513725" cx="33" cy="83" rx="21" ry="2" />
<ellipse fill="#505559" fill-opacity="0.517647" cx="129" cy="34" rx="25" ry="2" />
<ellipse fill="#ded9c8" fill-opacity="0.580392" cx="85" cy="75" rx="10" ry="5" />
<ellipse fill="#d9dbd3" fill-opacity="0.243137" cx="102" cy="39" rx="90" ry="3" />
<ellipse fill="#d7dfe7" fill-opacity="0.368627" cx="236" cy="62" rx="8" ry="17" />
<ellipse fill="#1c1912" fill-opacity="0.498039" cx="82" cy="87" rx="4" ry="6" />
<ellipse fill="#858274" fill-opacity="0.372549" cx="134" cy="66" rx="29" ry="7" />
<ellipse fill="#0d0f0f" fill-opacity="0.419608" cx="84" cy="66" rx="6" ry="3" />
<ellipse fill="#fffff9" fill-opacity="0.552941" cx="69" cy="67" rx="11" ry="2" />
<ellipse fill="#c8cdc4" fill-opacity="0.572549" cx="0" cy="127" rx="4" ry="13" />
<ellipse fill="#47453b" fill-opacity="0.533333" cx="39" cy="86" rx="19" ry="2" />
<ellipse fill="#32332e" fill-opacity="0.658824" cx="198" cy="63" rx="14" ry="4" />
<ellipse fill="#8c8a78" fill-opacity="0.337255" cx="161" cy="94" rx="12" ry="10" />
<ellipse fill="#4b493e" fill-opacity="0.529412" cx="63" cy="76" rx="11" ry="3" />
<ellipse fill="#91a5c8" fill-opacity="0.411765" cx="62" cy="0" rx="52" ry="20" />
<ellipse fill="#ddddd2" fill-opacity="0.498039" cx="107" cy="105" rx="25" ry="2" />
<ellipse fill="#aaa89b" fill-opacity="0.635294" cx="255" cy="86" rx="17" ry="14" />
<ellipse fill="#837a66" fill-opacity="0.270588" cx="75" cy="51" rx="14" ry="9" />
<ellipse fill="#282117" fill-opacity="0.564706" cx="99" cy="80" rx="3" ry="6" />
<ellipse fill="#829ab1" fill-opacity="0.349020" cx="0" cy="18" rx="16" ry="41" />
<ellipse fill="#fefef2" fill-opacity="0.541176" cx="63" cy="114" rx="7" ry="2" />
<ellipse fill="#706f63" fill-opacity="0.517647" cx="26" cy="122" rx="12" ry="19" />
<ellipse fill="#323637" fill-opacity="0.411765" cx="145" cy="48" rx="6" ry="14" />
<ellipse fill="#2d261d" fill-opacity="0.486275" cx="80" cy="100" rx="4" ry="9" />
<ellipse fill="#5c5447" fill-opacity="0.501961" cx="134" cy="43" rx="31" ry="2" />
<ellipse fill="#adaa9e" fill-opacity="0.505882" cx="158" cy="28" rx="34" ry="5" />
<ellipse fill="#ffffff" fill-opacity="0.529412" cx="62" cy="87" rx="2" ry="4" />
<ellipse fill="#504f47" fill-opacity="0.505882" cx="210" cy="142" rx="23" ry="15" />
<ellipse fill="#cac8b9" fill-opacity="0.470588" cx="80" cy="109" rx="11" ry="3" />
<ellipse fill="#2e2d2e" fill-opacity="0.568627" cx="43" cy="125" rx="5" ry="10" />
<ellipse fill="#120c03" fill-opacity="0.521569" cx="221" cy="96" rx="3" ry="6" />
</g>
</svg>