<svg xmlns="http://www.w3.org/2000/svg" version="1.1" width="256" height="143">
<rect x="0" y="0" width="256" height="143" fill="#f0f0f0" />
<g transform="scale(1.000000) translate(0.5 0.5)">
<ellipse fill="#0e0b00" fill-opacity="0.721569" cx="129" cy="80" rx="160" ry="142" />
<ellipse fill="#939491" fill-opacity="0.498039" cx="141" cy="136" rx="66" ry="36" />
<ellipse fill="#8d8e8b" fill-opacity="0.392157" cx="14" cy="91" rx="16" ry="110" />
<ellipse fill="#130d00" fill-opacity="0.227451" cx="146" cy="29" rx="114" ry="62" />
<ellipse fill="#77746b" fill-opacity="0.580392" cx="186" cy="97" rx="13" ry="18" />
<ellipse fill="#000500" fill-opacity="0.290196" cx="71" cy="96" rx="11" ry="34" />
<ellipse fill="#26241d" fill-opacity="0.639216" cx="214" cy="66" rx="8" ry="51" />
<ellipse fill="#6b6a64" fill-opacity="0.521569" cx="137" cy="83" rx="11" ry="32" />
<ellipse fill="#3a3932" fill-opacity="0.749020" cx="171" cy="98" rx="7" ry="26" />
<ellipse fill="#302c20" fill-opacity="0.568627" cx="243" cy="113" rx="8" ry="62" />
<ellipse fill="#afada8" fill-opacity="0.525490" cx="16" cy="18" rx="4" ry="24" />
<ellipse fill="#b0aca2" fill-opacity="0.498039" cx="255" cy="91" rx="4" ry="22" />
<ellipse fill="#c7d1d8" fill-opacity="0.462745" cx="0" cy="134" rx="6" ry="15" />
<ellipse fill="#3c3b31" fill-opacity="0.435294" cx="7" cy="64" rx="5" ry="70" />
<ellipse fill="#6a655c" fill-opacity="0.564706" cx="183" cy="49" rx="15" ry="12" />
<ellipse fill="#c7cdd2" fill-opacity="0.400000" cx="14" cy="95" rx="3" ry="22" />
<ellipse fill="#323126" fill-opacity="0.584314" cx="42" cy="101" rx="7" ry="54" />
<ellipse fill="#726758" fill-opacity="0.356863" cx="227" cy="43" rx="6" ry="133" />
<ellipse fill="#302f26" fill-opacity="0.749020" cx="80" cy="30" rx="15" ry="56" />
<ellipse fill="#757773" fill-opacity="0.368627" cx="57" cy="142" rx="5" ry="100" />
<ellipse fill="#202019" fill-opacity="0.262745" cx="136" cy="29" rx="26" ry="42" />
<ellipse fill="#adb1b7" fill-opacity="0.372549" cx="0" cy="29" rx="17" ry="7" />
<ellipse fill="#5e5749" fill-opacity="0.745098" cx="28" cy="43" rx="8" ry="38" />
<ellipse fill="#868681" fill-opacity="0.294118" cx="143" cy="131" rx="74" ry="13" />
<ellipse fill="#262821" fill-opacity="0.517647" cx="111" cy="90" rx="16" ry="11" />
<ellipse fill="#252621" fill-opacity="0.917647" cx="79" cy="116" rx="7" ry="8" />
<ellipse fill="#2a291f" fill-opacity="0.454902" cx="21" cy="122" rx="4" ry="15" />
<ellipse fill="#262113" fill-opacity="0.372549" cx="18" cy="76" rx="3" ry="22" />
<ellipse fill="#b1bbc2" fill-opacity="0.290196" cx="1" cy="89" rx="3" ry="27" />
<ellipse fill="#242215" fill-opacity="0.494118" cx="0" cy="2" rx="8" ry="23" />
<ellipse fill="#5c564c" fill-opacity="0.592157" cx="163" cy="31" rx="14" ry="9" />
<ellipse fill="#5e5a53" fill-opacity="0.580392" cx="204" cy="128" rx="10" ry="35" />
<ellipse fill="#979ea2" fill-opacity="0.576471" cx="4" cy="139" rx="20" ry="3" />
<ellipse fill="#232319" fill-opacity="0.470588" cx="7" cy="95" rx="3" ry="20" />
<ellipse fill="#47463e" fill-opacity="0.623529" cx="99" cy="54" rx="6" ry="70" />
<ellipse fill="#2b2a21" fill-opacity="0.552941" cx="160" cy="68" rx="6" ry="33" />
<ellipse fill="#9ea2a1" fill-opacity="0.533333" cx="25" cy="88" rx="4" ry="9" />
<ellipse fill="#1a1a15" fill-opacity="0.529412" cx="186" cy="74" rx="13" ry="7" />
<ellipse fill="#131612" fill-opacity="0.486275" cx="89" cy="67" rx="8" ry="13" />
<ellipse fill="#38362c" fill-opacity="0.784314" cx="0" cy="56" rx="4" ry="9" />
<ellipse fill="#010600" fill-opacity="0.521569" cx="11" cy="130" rx="3" ry="6" />
<ellipse fill="#888278" fill-opacity="0.388235" cx="168" cy="67" rx="4" ry="11" />
<ellipse fill="#5b5449" fill-opacity="0.509804" cx="190" cy="9" rx="18" ry="10" />
<ellipse fill="#6e6f6a" fill-opacity="0.796078" cx="127" cy="106" rx="25" ry="7" />
<ellipse fill="#58544a" fill-opacity="0.431373" cx="90" cy="48" rx="16" ry="9" />
<ellipse fill="#7e7868" fill-opacity="0.525490" cx="251" cy="0" rx="3" ry="25" />
<ellipse fill="#555044" fill-opacity="0.466667" cx="62" cy="9" rx="9" ry="34" />
<ellipse fill="#736e64" fill-opacity="0.278431" cx="135" cy="67" rx="7" ry="28" />
<ellipse fill="#60615c" fill-opacity="0.474510" cx="90" cy="98" rx="8" ry="21" />
<ellipse fill="#2d2b22" fill-opacity="0.556863" cx="217" cy="95" rx="6" ry="29" />
<ellipse fill="#63635d" fill-opacity="0.552941" cx="135" cy="80" rx="18" ry="6" />
<ellipse fill="#54514a" fill-opacity="0.537255" cx="177" cy="98" rx="6" ry="18" />
<ellipse fill="#32312a" fill-opacity="0.576471" cx="158" cy="90" rx="16" ry="11" />
<ellipse fill="#8f8d8b" fill-opacity="0.592157" cx="8" cy="62" rx="4" ry="5" />
<ellipse fill="#222018" fill-opacity="0.443137" cx="202" cy="38" rx="10" ry="11" />
<ellipse fill="#878986" fill-opacity="0.858824" cx="18" cy="41" rx="2" ry="14" />
<ellipse fill="#88847e" fill-opacity="0.517647" cx="183" cy="130" rx="27" ry="7" />
<ellipse fill="#11130e" fill-opacity="0.439216" cx="89" cy="16" rx="9" ry="9" />
<ellipse fill="#918573" fill-opacity="0.490196" cx="29" cy="58" rx="3" ry="11" />
<ellipse fill="#1c1c1f" fill-opacity="0.647059" cx="198" cy="142" rx="6" ry="4" />
<ellipse fill="#20221a" fill-opacity="0.400000" cx="200" cy="118" rx="7" ry="6" />
<ellipse fill="#8d8b84" fill-opacity="0.556863" cx="19" cy="2" rx="6" ry="21" />
<ellipse fill="#9d9d9e" fill-opacity="0.725490" cx="11" cy="112" rx="2" ry="9" />
<ellipse fill="#3e3b30" fill-opacity="0.705882" cx="15" cy="65" rx="7" ry="5" />
<ellipse fill="#423b2d" fill-opacity="0.435294" cx="10" cy="42" rx="6" ry="12" />
<ellipse fill="#28271d" fill-opacity="0.490196" cx="115" cy="58" rx="9" ry="23" />
<ellipse fill="#585349" fill-opacity="0.549020" cx="105" cy="28" rx="12" ry="8" />
<ellipse fill="#191b13" fill-opacity="0.474510" cx="171" cy="118" rx="5" ry="5" />
<ellipse fill="#080a02" fill-opacity="0.254902" cx="9" cy="102" rx="2" ry="26" />
<ellipse fill="#898075" fill-opacity="0.431373" cx="182" cy="85" rx="10" ry="5" />
<ellipse fill="#403e34" fill-opacity="0.458824" cx="27" cy="116" rx="8" ry="11" />
<ellipse fill="#090c0a" fill-opacity="0.435294" cx="152" cy="17" rx="7" ry="8" />
<ellipse fill="#61635e" fill-opacity="0.560784" cx="74" cy="132" rx="5" ry="10" />
<ellipse fill="#191a14" fill-opacity="0.533333" cx="66" cy="56" rx="3" ry="19" />
<ellipse fill="#4b463b" fill-opacity="0.552941" cx="55" cy="60" rx="10" ry="20" />
<ellipse fill="#0d100c" fill-opacity="0.466667" cx="120" cy="18" rx="7" ry="7" />
<ellipse fill="#38362c" fill-opacity="0.796078" cx="214" cy="16" rx="7" ry="32" />
<ellipse fill="#4c463a" fill-opacity="0.498039" cx="234" cy="81" rx="6" ry="70" />
<ellipse fill="#5b5b54" fill-opacity="0.525490" cx="115" cy="129" rx="48" ry="2" />
<ellipse fill="#8d9192" fill-opacity="0.466667" cx="0" cy="32" rx="7" ry="9" />
<ellipse fill="#4b483d" fill-opacity="0.462745" cx="137" cy="22" rx="10" ry="13" />
<ellipse fill="#525048" fill-opacity="0.474510" cx="136" cy="116" rx="36" ry="2" />
<ellipse fill="#817b6d" fill-opacity="0.541176" cx="252" cy="75" rx="2" ry="14" />
<ellipse fill="#747169" fill-opacity="0.545098" cx="196" cy="101" rx="10" ry="9" />
<ellipse fill="#d8dde6" fill-opacity="0.141176" cx="134" cy="119" rx="33" ry="2" />
<ellipse fill="#1b1b17" fill-opacity="0.407843" cx="211" cy="59" rx="7" ry="26" />
<ellipse fill="#958c7b" fill-opacity="0.443137" cx="203" cy="9" rx="5" ry="3" />
<ellipse fill="#625f56" fill-opacity="0.576471" cx="101" cy="66" rx="4" ry="11" />
<ellipse fill="#989f9f" fill-opacity="0.462745" cx="25" cy="139" rx="3" ry="11" />
<ellipse fill="#4d493e" fill-opacity="0.482353" cx="26" cy="31" rx="9" ry="10" />
<ellipse fill="#bdc3c6" fill-opacity="0.403922" cx="14" cy="56" rx="4" ry="3" />
<ellipse fill="#8a8880" fill-opacity="0.482353" cx="164" cy="119" rx="3" ry="16" />
<ellipse fill="#2b2a21" fill-opacity="0.670588" cx="180" cy="68" rx="9" ry="10" />
<ellipse fill="#6f716b" fill-opacity="0.513725" cx="57" cy="119" rx="3" ry="36" />
<ellipse fill="#797367" fill-opacity="0.376471" cx="27" cy="11" rx="5" ry="21" />
<ellipse fill="#747066" fill-opacity="0.541176" cx="225" cy="139" rx="2" ry="51" />
<ellipse fill="#413e31" fill-opacity="0.482353" cx="67" cy="3" rx="43" ry="7" />
<ellipse fill="#5c554b" fill-opacity="0.482353" cx="196" cy="59" rx="7" ry="11" />
<ellipse fill="#908d87" fill-opacity="0.564706" cx="4" cy="67" rx="3" ry="6" />
<ellipse fill="#383429" fill-opacity="0.584314" cx="242" cy="43" rx="40" ry="4" />
</g>
</svg>