<svg xmlns="http://www.w3.org/2000/svg" version="1.1" width="256" height="143">
<rect x="0" y="0" width="256" height="143" fill="#f0f0f0" />
<g transform="scale(1.000000) translate(0.5 0.5)">
<ellipse fill="#272623" fill-opacity="0.698039" cx="117" cy="75" rx="171" ry="130" />
<ellipse fill="#d2dff7" fill-opacity="0.392157" cx="199" cy="3" rx="95" ry="40" />
<ellipse fill="#000000" fill-opacity="0.423529" cx="28" cy="61" rx="41" ry="69" />
<ellipse fill="#070300" fill-opacity="0.517647" cx="144" cy="116" rx="35" ry="13" />
<ellipse fill="#828385" fill-opacity="0.705882" cx="247" cy="62" rx="63" ry="51" />
<ellipse fill="#030000" fill-opacity="0.286275" cx="116" cy="48" rx="25" ry="32" />
<ellipse fill="#dedbcd" fill-opacity="0.380392" cx="193" cy="111" rx="9" ry="21" />
<ellipse fill="#c0bcaf" fill-opacity="0.384314" cx="133" cy="131" rx="111" ry="4" />
<ellipse fill="#b5b0ad" fill-opacity="0.254902" cx="61" cy="69" rx="40" ry="11" />
<ellipse fill="#12110d" fill-opacity="0.596078" cx="51" cy="105" rx="14" ry="21" />
<ellipse fill="#150e00" fill-opacity="0.443137" cx="209" cy="114" rx="11" ry="16" />
<ellipse fill="#f6faff" fill-opacity="0.811765" cx="217" cy="0" rx="15" ry="5" />
<ellipse fill="#93938e" fill-opacity="0.580392" cx="91" cy="6" rx="34" ry="17" />
<ellipse fill="#3f3f46" fill-opacity="0.654902" cx="168" cy="58" rx="15" ry="24" />
<ellipse fill="#c6c1ab" fill-opacity="0.384314" cx="234" cy="108" rx="17" ry="17" />
<ellipse fill="#1c1c1c" fill-opacity="0.388235" cx="134" cy="97" rx="17" ry="29" />
<ellipse fill="#080b09" fill-opacity="0.521569" cx="37" cy="41" rx="19" ry="19" />
<ellipse fill="#2f2210" fill-opacity="0.588235" cx="85" cy="98" rx="8" ry="18" />
<ellipse fill="#a7aab3" fill-opacity="0.592157" cx="188" cy="26" rx="14" ry="32" />
<ellipse fill="#f6f6f3" fill-opacity="0.356863" cx="159" cy="84" rx="9" ry="8" />
<ellipse fill="#949390" fill-opacity="0.886275" cx="149" cy="49" rx="4" ry="34" />
<ellipse fill="#9a9995" fill-opacity="0.650980" cx="185" cy="100" rx="22" ry="9" />
<ellipse fill="#8a8b84" fill-opacity="0.686275" cx="13" cy="130" rx="134" ry="5" />
<ellipse fill="#faf0d2" fill-opacity="0.196078" cx="100" cy="84" rx="13" ry="14" />
<ellipse fill="#585046" fill-opacity="1.000000" cx="71" cy="39" rx="13" ry="18" />
<ellipse fill="#a7a49c" fill-opacity="0.678431" cx="72" cy="105" rx="3" ry="23" />
<ellipse fill="#00051e" fill-opacity="0.454902" cx="183" cy="85" rx="14" ry="6" />
<ellipse fill="#353f42" fill-opacity="0.466667" cx="21" cy="113" rx="17" ry="31" />
<ellipse fill="#a5977c" fill-opacity="0.392157" cx="163" cy="141" rx="47" ry="10" />
<ellipse fill="#232117" fill-opacity="0.607843" cx="14" cy="53" rx="30" ry="15" />
<ellipse fill="#d2d5d5" fill-opacity="0.584314" cx="189" cy="125" rx="12" ry="3" />
<ellipse fill="#19191b" fill-opacity="0.568627" cx="158" cy="121" rx="23" ry="8" />
<ellipse fill="#445570" fill-opacity="0.454902" cx="251" cy="28" rx="16" ry="13" />
<ellipse fill="#3e4243" fill-opacity="1.000000" cx="26" cy="0" rx="29" ry="22" />
<ellipse fill="#a9bace" fill-opacity="0.545098" cx="246" cy="0" rx="23" ry="14" />
<ellipse fill="#6d6357" fill-opacity="0.521569" cx="169" cy="108" rx="18" ry="8" />
<ellipse fill="#9e9c97" fill-opacity="0.584314" cx="85" cy="127" rx="23" ry="6" />
<ellipse fill="#7a7e86" fill-opacity="0.392157" cx="140" cy="39" rx="13" ry="23" />
<ellipse fill="#dad8d3" fill-opacity="0.568627" cx="152" cy="76" rx="3" ry="10" />
<ellipse fill="#515153" fill-opacity="0.698039" cx="22" cy="81" rx="23" ry="11" />
<ellipse fill="#3f3d42" fill-opacity="0.639216" cx="155" cy="46" rx="4" ry="14" />
<ellipse fill="#b4b4b0" fill-opacity="0.611765" cx="115" cy="132" rx="45" ry="2" />
<ellipse fill="#494b58" fill-opacity="0.623529" cx="204" cy="59" rx="6" ry="15" />
<ellipse fill="#b7b8b7" fill-opacity="0.494118" cx="166" cy="92" rx="8" ry="6" />
<ellipse fill="#888680" fill-opacity="0.462745" cx="127" cy="82" rx="11" ry="6" />
<ellipse fill="#645c44" fill-opacity="0.462745" cx="245" cy="130" rx="13" ry="25" />
<ellipse fill="#bebdaf" fill-opacity="0.533333" cx="223" cy="122" rx="3" ry="13" />
<ellipse fill="#aeb2b8" fill-opacity="0.603922" cx="168" cy="13" rx="14" ry="13" />
<ellipse fill="#bd9754" fill-opacity="0.423529" cx="0" cy="34" rx="17" ry="4" />
<ellipse fill="#848480" fill-opacity="0.576471" cx="128" cy="22" rx="21" ry="5" />
<ellipse fill="#58544f" fill-opacity="0.545098" cx="116" cy="114" rx="8" ry="17" />
<ellipse fill="#191e20" fill-opacity="0.556863" cx="54" cy="21" rx="12" ry="7" />
<ellipse fill="#b2a798" fill-opacity="0.325490" cx="98" cy="109" rx="4" ry="32" />
<ellipse fill="#383632" fill-opacity="0.505882" cx="113" cy="49" rx="21" ry="20" />
<ellipse fill="#101110" fill-opacity="0.533333" cx="215" cy="128" rx="7" ry="3" />
<ellipse fill="#13150a" fill-opacity="0.635294" cx="3" cy="24" rx="28" ry="4" />
<ellipse fill="#a9aaa1" fill-opacity="0.556863" cx="233" cy="134" rx="18" ry="2" />
<ellipse fill="#3b3837" fill-opacity="0.513725" cx="191" cy="92" rx="5" ry="7" />
<ellipse fill="#a9a699" fill-opacity="0.329412" cx="70" cy="61" rx="6" ry="12" />
<ellipse fill="#1b262b" fill-opacity="0.627451" cx="11" cy="118" rx="10" ry="9" />
<ellipse fill="#89857f" fill-opacity="0.588235" cx="83" cy="15" rx="9" ry="21" />
<ellipse fill="#60615b" fill-opacity="0.474510" cx="255" cy="74" rx="16" ry="24" />
<ellipse fill="#4a3116" fill-opacity="0.470588" cx="186" cy="131" rx="6" ry="4" />
<ellipse fill="#756c58" fill-opacity="0.533333" cx="69" cy="140" rx="40" ry="9" />
<ellipse fill="#ece6d6" fill-opacity="0.458824" cx="198" cy="101" rx="3" ry="10" />
<ellipse fill="#848682" fill-opacity="0.474510" cx="44" cy="128" rx="32" ry="4" />
<ellipse fill="#ababad" fill-opacity="0.498039" cx="195" cy="59" rx="4" ry="17" />
<ellipse fill="#23211f" fill-opacity="0.427451" cx="154" cy="118" rx="35" ry="7" />
<ellipse fill="#504332" fill-opacity="0.474510" cx="82" cy="70" rx="3" ry="25" />
<ellipse fill="#342d24" fill-opacity="0.474510" cx="89" cy="104" rx="6" ry="17" />
<ellipse fill="#fef4dc" fill-opacity="0.274510" cx="90" cy="70" rx="3" ry="11" />
<ellipse fill="#1a1c1b" fill-opacity="0.576471" cx="47" cy="115" rx="16" ry="11" />
<ellipse fill="#a3a5a4" fill-opacity="0.462745" cx="187" cy="127" rx="16" ry="3" />
<ellipse fill="#e2e4c5" fill-opacity="0.376471" cx="4" cy="130" rx="3" ry="7" />
<ellipse fill="#423e36" fill-opacity="0.384314" cx="141" cy="94" rx="24" ry="7" />
<ellipse fill="#1e1500" fill-opacity="0.509804" cx="252" cy="130" rx="9" ry="3" />
<ellipse fill="#373c49" fill-opacity="0.545098" cx="160" cy="43" rx="7" ry="9" />
<ellipse fill="#7f8696" fill-opacity="0.498039" cx="223" cy="31" rx="24" ry="22" />
<ellipse fill="#585557" fill-opacity="0.470588" cx="65" cy="92" rx="5" ry="34" />
<ellipse fill="#4b4436" fill-opacity="0.521569" cx="221" cy="93" rx="5" ry="5" />
<ellipse fill="#9e9e9e" fill-opacity="0.486275" cx="117" cy="3" rx="45" ry="8" />
<ellipse fill="#d2d2c8" fill-opacity="0.549020" cx="221" cy="110" rx="2" ry="12" />
<ellipse fill="#514833" fill-opacity="0.266667" cx="101" cy="44" rx="14" ry="33" />
<ellipse fill="#93816a" fill-opacity="0.294118" cx="216" cy="78" rx="30" ry="14" />
<ellipse fill="#1a1200" fill-opacity="0.270588" cx="250" cy="90" rx="17" ry="3" />
<ellipse fill="#b6bdc4" fill-opacity="0.545098" cx="175" cy="95" rx="11" ry="3" />
<ellipse fill="#000000" fill-opacity="0.211765" cx="146" cy="83" rx="5" ry="11" />
<ellipse fill="#6f6a66" fill-opacity="0.631373" cx="98" cy="128" rx="33" ry="2" />
<ellipse fill="#4a5e84" fill-opacity="0.419608" cx="186" cy="0" rx="9" ry="6" />
<ellipse fill="#444039" fill-opacity="0.400000" cx="89" cy="13" rx="7" ry="4" />
<ellipse fill="#53555b" fill-opacity="0.607843" cx="30" cy="90" rx="6" ry="18" />
<ellipse fill="#7c6847" fill-opacity="0.658824" cx="14" cy="30" rx="6" ry="3" />
<ellipse fill="#101817" fill-opacity="0.447059" cx="23" cy="139" rx="5" ry="7" />
<ellipse fill="#a8a9a1" fill-opacity="0.458824" cx="238" cy="101" rx="16" ry="7" />
<ellipse fill="#6d675c" fill-opacity="0.423529" cx="109" cy="89" rx="9" ry="27" />
<ellipse fill="#42484e" fill-opacity="0.776471" cx="43" cy="18" rx="7" ry="7" />
<ellipse fill="#9e9c99" fill-opacity="0.498039" cx="147" cy="49" rx="5" ry="21" />
<ellipse fill="#545356" fill-opacity="0.690196" cx="134" cy="49" rx="15" ry="4" />
<ellipse fill="#313034" fill-opacity="0.419608" cx="168" cy="66" rx="5" ry="19" />
<ellipse fill="#5c5f65" fill-opacity="0.509804" cx="52" cy="63" rx="6" ry="13" />
</g>
</svg>