<svg xmlns="http://www.w3.org/2000/svg" version="1.1" width="161" height="256">
<rect x="0" y="0" width="161" height="256" fill="#f0f0f0" />
<g transform="scale(1.000000) translate(0.5 0.5)">
<ellipse fill="#321e03" fill-opacity="0.729412" cx="75" cy="133" rx="160" ry="167" />
<ellipse fill="#ac9776" fill-opacity="0.603922" cx="127" cy="61" rx="35" ry="54" />
<ellipse fill="#231e16" fill-opacity="0.564706" cx="23" cy="197" rx="30" ry="77" />
<ellipse fill="#1b1812" fill-opacity="0.368627" cx="56" cy="121" rx="21" ry="57" />
<ellipse fill="#d2bf9d" fill-opacity="0.588235" cx="138" cy="65" rx="16" ry="24" />
<ellipse fill="#9d8767" fill-opacity="0.721569" cx="70" cy="0" rx="74" ry="13" />
<ellipse fill="#050903" fill-opacity="0.584314" cx="155" cy="236" rx="7" ry="35" />
<ellipse fill="#ac8964" fill-opacity="0.501961" cx="102" cy="248" rx="47" ry="17" />
<ellipse fill="#3c3326" fill-opacity="0.615686" cx="72" cy="147" rx="62" ry="22" />
<ellipse fill="#f3cb9a" fill-opacity="0.145098" cx="17" cy="95" rx="18" ry="57" />
<ellipse fill="#968168" fill-opacity="0.509804" cx="50" cy="211" rx="19" ry="15" />
<ellipse fill="#766650" fill-opacity="0.647059" cx="104" cy="66" rx="21" ry="55" />
<ellipse fill="#403528" fill-opacity="0.705882" cx="158" cy="211" rx="53" ry="13" />
<ellipse fill="#241e16" fill-opacity="0.349020" cx="68" cy="234" rx="33" ry="11" />
<ellipse fill="#1f1d15" fill-opacity="0.501961" cx="19" cy="200" rx="13" ry="63" />
<ellipse fill="#957b5e" fill-opacity="0.729412" cx="55" cy="253" rx="29" ry="5" />
<ellipse fill="#74624d" fill-opacity="0.564706" cx="74" cy="142" rx="13" ry="17" />
<ellipse fill="#7f6d50" fill-opacity="0.701961" cx="128" cy="101" rx="32" ry="17" />
<ellipse fill="#967c5c" fill-opacity="0.686275" cx="127" cy="237" rx="22" ry="11" />
<ellipse fill="#201e14" fill-opacity="0.466667" cx="94" cy="221" rx="11" ry="12" />
<ellipse fill="#463e30" fill-opacity="0.796078" cx="53" cy="57" rx="9" ry="24" />
<ellipse fill="#4f4337" fill-opacity="0.584314" cx="160" cy="171" rx="32" ry="44" />
<ellipse fill="#524333" fill-opacity="0.588235" cx="32" cy="125" rx="16" ry="20" />
<ellipse fill="#020601" fill-opacity="0.458824" cx="42" cy="152" rx="15" ry="11" />
<ellipse fill="#9c896b" fill-opacity="0.337255" cx="19" cy="73" rx="32" ry="14" />
<ellipse fill="#71604c" fill-opacity="1.000000" cx="109" cy="187" rx="21" ry="20" />
<ellipse fill="#897557" fill-opacity="0.603922" cx="51" cy="108" rx="6" ry="10" />
<ellipse fill="#1f1f15" fill-opacity="0.788235" cx="0" cy="254" rx="18" ry="22" />
<ellipse fill="#48382c" fill-opacity="0.341176" cx="135" cy="2" rx="34" ry="7" />
<ellipse fill="#b69c75" fill-opacity="0.509804" cx="45" cy="1" rx="43" ry="6" />
<ellipse fill="#10120c" fill-opacity="0.474510" cx="97" cy="158" rx="22" ry="4" />
<ellipse fill="#cfb891" fill-opacity="0.415686" cx="126" cy="43" rx="4" ry="28" />
<ellipse fill="#856d55" fill-opacity="0.572549" cx="96" cy="150" rx="14" ry="4" />
<ellipse fill="#6d5d49" fill-opacity="0.462745" cx="40" cy="214" rx="17" ry="16" />
<ellipse fill="#a98e71" fill-opacity="0.298039" cx="78" cy="242" rx="16" ry="12" />
<ellipse fill="#796853" fill-opacity="0.403922" cx="66" cy="73" rx="11" ry="22" />
<ellipse fill="#3c362e" fill-opacity="0.431373" cx="78" cy="96" rx="16" ry="15" />
<ellipse fill="#6e614e" fill-opacity="0.607843" cx="23" cy="16" rx="70" ry="11" />
<ellipse fill="#000100" fill-opacity="0.301961" cx="45" cy="96" rx="6" ry="13" />
<ellipse fill="#030000" fill-opacity="0.352941" cx="121" cy="121" rx="2" ry="22" />
<ellipse fill="#7d6b55" fill-opacity="0.694118" cx="62" cy="203" rx="14" ry="16" />
<ellipse fill="#14150d" fill-opacity="0.545098" cx="54" cy="125" rx="6" ry="10" />
<ellipse fill="#1d1b11" fill-opacity="0.529412" cx="57" cy="232" rx="10" ry="7" />
<ellipse fill="#c7b190" fill-opacity="0.541176" cx="144" cy="72" rx="15" ry="11" />
<ellipse fill="#836f53" fill-opacity="0.541176" cx="44" cy="122" rx="4" ry="11" />
<ellipse fill="#000402" fill-opacity="0.298039" cx="37" cy="113" rx="5" ry="15" />
<ellipse fill="#393022" fill-opacity="0.525490" cx="89" cy="220" rx="25" ry="5" />
<ellipse fill="#987e62" fill-opacity="0.403922" cx="149" cy="39" rx="11" ry="25" />
<ellipse fill="#59412f" fill-opacity="0.486275" cx="137" cy="33" rx="7" ry="6" />
<ellipse fill="#574233" fill-opacity="0.521569" cx="159" cy="46" rx="2" ry="26" />
<ellipse fill="#806f56" fill-opacity="0.615686" cx="57" cy="93" rx="3" ry="12" />
<ellipse fill="#5f4d3b" fill-opacity="0.870588" cx="48" cy="246" rx="19" ry="4" />
<ellipse fill="#6a513f" fill-opacity="0.345098" cx="13" cy="140" rx="23" ry="15" />
<ellipse fill="#7d634f" fill-opacity="0.325490" cx="48" cy="176" rx="8" ry="13" />
<ellipse fill="#bc9f7b" fill-opacity="0.133333" cx="100" cy="223" rx="6" ry="50" />
<ellipse fill="#70614d" fill-opacity="0.886275" cx="25" cy="49" rx="19" ry="16" />
<ellipse fill="#645143" fill-opacity="0.427451" cx="0" cy="191" rx="9" ry="25" />
<ellipse fill="#302a23" fill-opacity="0.505882" cx="81" cy="195" rx="6" ry="9" />
<ellipse fill="#6e604f" fill-opacity="0.525490" cx="89" cy="39" rx="25" ry="28" />
<ellipse fill="#1d1a11" fill-opacity="0.435294" cx="94" cy="133" rx="13" ry="5" />
<ellipse fill="#392f23" fill-opacity="0.647059" cx="71" cy="183" rx="4" ry="8" />
<ellipse fill="#b09577" fill-opacity="0.380392" cx="78" cy="211" rx="6" ry="8" />
<ellipse fill="#a5926e" fill-opacity="0.447059" cx="107" cy="101" rx="13" ry="6" />
<ellipse fill="#1b1b13" fill-opacity="0.364706" cx="42" cy="164" rx="48" ry="5" />
<ellipse fill="#a58c64" fill-opacity="0.513725" cx="0" cy="9" rx="8" ry="11" />
<ellipse fill="#695846" fill-opacity="0.517647" cx="112" cy="178" rx="21" ry="19" />
<ellipse fill="#564b3e" fill-opacity="0.588235" cx="25" cy="21" rx="13" ry="15" />
<ellipse fill="#938169" fill-opacity="0.160784" cx="78" cy="95" rx="7" ry="50" />
<ellipse fill="#8f7b61" fill-opacity="0.345098" cx="45" cy="220" rx="16" ry="8" />
<ellipse fill="#a48667" fill-opacity="0.466667" cx="83" cy="175" rx="7" ry="6" />
<ellipse fill="#12130d" fill-opacity="0.364706" cx="51" cy="85" rx="6" ry="10" />
<ellipse fill="#b89e7c" fill-opacity="0.470588" cx="151" cy="50" rx="7" ry="16" />
<ellipse fill="#8c7559" fill-opacity="0.533333" cx="123" cy="215" rx="5" ry="4" />
<ellipse fill="#222014" fill-opacity="0.560784" cx="112" cy="213" rx="5" ry="7" />
<ellipse fill="#352c21" fill-opacity="0.474510" cx="57" cy="47" rx="9" ry="12" />
<ellipse fill="#0f130d" fill-opacity="0.443137" cx="66" cy="103" rx="5" ry="10" />
<ellipse fill="#957d5e" fill-opacity="0.776471" cx="139" cy="232" rx="9" ry="7" />
<ellipse fill="#4d3e31" fill-opacity="0.435294" cx="153" cy="14" rx="13" ry="6" />
<ellipse fill="#9b8869" fill-opacity="0.560784" cx="71" cy="81" rx="5" ry="4" />
<ellipse fill="#040100" fill-opacity="0.211765" cx="160" cy="173" rx="2" ry="88" />
<ellipse fill="#aa9273" fill-opacity="0.623529" cx="98" cy="9" rx="19" ry="3" />
<ellipse fill="#88775e" fill-opacity="0.639216" cx="111" cy="201" rx="15" ry="5" />
<ellipse fill="#1f1f14" fill-opacity="0.552941" cx="90" cy="223" rx="4" ry="12" />
<ellipse fill="#1a1812" fill-opacity="0.400000" cx="58" cy="118" rx="5" ry="12" />
<ellipse fill="#917a5b" fill-opacity="0.607843" cx="137" cy="16" rx="8" ry="13" />
<ellipse fill="#c5b194" fill-opacity="0.431373" cx="157" cy="84" rx="2" ry="13" />
<ellipse fill="#6c5b47" fill-opacity="0.682353" cx="69" cy="154" rx="13" ry="4" />
<ellipse fill="#c2b394" fill-opacity="0.474510" cx="130" cy="64" rx="6" ry="25" />
<ellipse fill="#867558" fill-opacity="0.529412" cx="108" cy="80" rx="21" ry="13" />
<ellipse fill="#4d4236" fill-opacity="0.545098" cx="83" cy="59" rx="14" ry="3" />
<ellipse fill="#201f17" fill-opacity="0.364706" cx="28" cy="180" rx="10" ry="33" />
<ellipse fill="#6c5340" fill-opacity="0.313725" cx="142" cy="127" rx="18" ry="32" />
<ellipse fill="#6d5f4c" fill-opacity="0.537255" cx="97" cy="200" rx="8" ry="19" />
<ellipse fill="#c3a885" fill-opacity="0.501961" cx="72" cy="5" rx="15" ry="3" />
<ellipse fill="#836e53" fill-opacity="0.654902" cx="75" cy="141" rx="10" ry="5" />
<ellipse fill="#17181a" fill-opacity="0.243137" cx="90" cy="205" rx="7" ry="8" />
<ellipse fill="#cdb590" fill-opacity="0.419608" cx="59" cy="220" rx="5" ry="3" />
<ellipse fill="#9c8764" fill-opacity="0.513725" cx="49" cy="116" rx="3" ry="5" />
<ellipse fill="#232017" fill-opacity="0.513725" cx="116" cy="149" rx="4" ry="10" />
<ellipse fill="#000200" fill-opacity="0.337255" cx="133" cy="209" rx="5" ry="5" />
</g>
</svg>