<svg xmlns="http://www.w3.org/2000/svg" version="1.1" width="256" height="143">
<rect x="0" y="0" width="256" height="143" fill="#f0f0f0" />
<g transform="scale(1.000000) translate(0.5 0.5)">
<ellipse fill="#1e2218" fill-opacity="0.658824" cx="127" cy="65" rx="163" ry="142" />
<ellipse fill="#f5f6e5" fill-opacity="0.400000" cx="211" cy="142" rx="158" ry="29" />
<ellipse fill="#080a06" fill-opacity="0.517647" cx="146" cy="37" rx="86" ry="16" />
<ellipse fill="#0a0d08" fill-opacity="0.501961" cx="123" cy="98" rx="92" ry="15" />
<ellipse fill="#484d48" fill-opacity="0.945098" cx="43" cy="74" rx="36" ry="58" />
<ellipse fill="#8b8e85" fill-opacity="0.909804" cx="242" cy="85" rx="29" ry="55" />
<ellipse fill="#9d9c91" fill-opacity="0.549020" cx="152" cy="68" rx="81" ry="16" />
<ellipse fill="#8c928f" fill-opacity="0.490196" cx="110" cy="0" rx="103" ry="25" />
<ellipse fill="#080c0c" fill-opacity="0.576471" cx="209" cy="36" rx="20" ry="19" />
<ellipse fill="#060c09" fill-opacity="0.623529" cx="50" cy="75" rx="11" ry="21" />
<ellipse fill="#a8a594" fill-opacity="0.600000" cx="185" cy="52" rx="7" ry="22" />
<ellipse fill="#d3d7cf" fill-opacity="0.513725" cx="136" cy="137" rx="49" ry="9" />
<ellipse fill="#4f524c" fill-opacity="0.647059" cx="62" cy="31" rx="29" ry="27" />
<ellipse fill="#22241e" fill-opacity="0.811765" cx="196" cy="92" rx="18" ry="10" />
<ellipse fill="#8d8d82" fill-opacity="0.776471" cx="128" cy="60" rx="8" ry="22" />
<ellipse fill="#060c0c" fill-opacity="0.584314" cx="125" cy="106" rx="10" ry="16" />
<ellipse fill="#a5aaa1" fill-opacity="0.690196" cx="52" cy="142" rx="33" ry="10" />
<ellipse fill="#72746d" fill-opacity="0.694118" cx="71" cy="111" rx="12" ry="22" />
<ellipse fill="#b0aea6" fill-opacity="0.768627" cx="172" cy="117" rx="2" ry="36" />
<ellipse fill="#161a17" fill-opacity="0.564706" cx="100" cy="43" rx="23" ry="13" />
<ellipse fill="#6d6f64" fill-opacity="0.458824" cx="228" cy="135" rx="35" ry="12" />
<ellipse fill="#333a38" fill-opacity="0.631373" cx="21" cy="120" rx="17" ry="17" />
<ellipse fill="#deddd7" fill-opacity="0.576471" cx="56" cy="0" rx="18" ry="5" />
<ellipse fill="#b6bbb5" fill-opacity="0.521569" cx="252" cy="42" rx="24" ry="12" />
<ellipse fill="#adada0" fill-opacity="0.784314" cx="216" cy="109" rx="6" ry="16" />
<ellipse fill="#0e1414" fill-opacity="0.470588" cx="152" cy="42" rx="18" ry="14" />
<ellipse fill="#afb6b3" fill-opacity="0.470588" cx="9" cy="14" rx="17" ry="6" />
<ellipse fill="#71756d" fill-opacity="0.937255" cx="83" cy="124" rx="14" ry="9" />
<ellipse fill="#393e3d" fill-opacity="0.196078" cx="250" cy="73" rx="14" ry="34" />
<ellipse fill="#686c64" fill-opacity="0.368627" cx="31" cy="45" rx="56" ry="14" />
<ellipse fill="#e1dcce" fill-opacity="0.568627" cx="191" cy="119" rx="19" ry="4" />
<ellipse fill="#979a98" fill-opacity="0.435294" cx="174" cy="14" rx="45" ry="6" />
<ellipse fill="#a7aba6" fill-opacity="0.270588" cx="92" cy="78" rx="31" ry="7" />
<ellipse fill="#181912" fill-opacity="0.439216" cx="123" cy="95" rx="47" ry="9" />
<ellipse fill="#f7fcfb" fill-opacity="0.239216" cx="35" cy="7" rx="15" ry="4" />
<ellipse fill="#929181" fill-opacity="0.274510" cx="182" cy="106" rx="11" ry="11" />
<ellipse fill="#d1cbb9" fill-opacity="0.584314" cx="184" cy="52" rx="7" ry="5" />
<ellipse fill="#8c908c" fill-opacity="0.615686" cx="106" cy="3" rx="18" ry="23" />
<ellipse fill="#939890" fill-opacity="0.435294" cx="4" cy="98" rx="25" ry="5" />
<ellipse fill="#3b3a30" fill-opacity="0.760784" cx="176" cy="24" rx="40" ry="4" />
<ellipse fill="#51554f" fill-opacity="0.525490" cx="151" cy="115" rx="21" ry="3" />
<ellipse fill="#9da29a" fill-opacity="0.568627" cx="47" cy="139" rx="87" ry="3" />
<ellipse fill="#ffffff" fill-opacity="0.482353" cx="23" cy="124" rx="5" ry="2" />
<ellipse fill="#101517" fill-opacity="0.533333" cx="216" cy="40" rx="12" ry="14" />
<ellipse fill="#fffff1" fill-opacity="0.129412" cx="150" cy="110" rx="5" ry="19" />
<ellipse fill="#939286" fill-opacity="0.654902" cx="177" cy="65" rx="61" ry="7" />
<ellipse fill="#010909" fill-opacity="0.490196" cx="55" cy="82" rx="5" ry="23" />
<ellipse fill="#5c5c4e" fill-opacity="0.650980" cx="186" cy="35" rx="9" ry="7" />
<ellipse fill="#6a6c5e" fill-opacity="0.498039" cx="105" cy="109" rx="5" ry="16" />
<ellipse fill="#3e372b" fill-opacity="0.568627" cx="186" cy="84" rx="34" ry="2" />
<ellipse fill="#a7aaa3" fill-opacity="0.764706" cx="223" cy="87" rx="8" ry="8" />
<ellipse fill="#3b403f" fill-opacity="0.498039" cx="79" cy="0" rx="6" ry="14" />
<ellipse fill="#fdf5e2" fill-opacity="0.203922" cx="150" cy="142" rx="15" ry="24" />
<ellipse fill="#605f51" fill-opacity="0.623529" cx="128" cy="38" rx="8" ry="7" />
<ellipse fill="#64665f" fill-opacity="0.647059" cx="86" cy="61" rx="16" ry="7" />
<ellipse fill="#020b0e" fill-opacity="0.462745" cx="93" cy="100" rx="8" ry="12" />
<ellipse fill="#60635a" fill-opacity="0.678431" cx="19" cy="55" rx="7" ry="34" />
<ellipse fill="#57584e" fill-opacity="0.352941" cx="251" cy="97" rx="34" ry="6" />
<ellipse fill="#333b3a" fill-opacity="0.462745" cx="52" cy="122" rx="12" ry="12" />
<ellipse fill="#000204" fill-opacity="0.509804" cx="199" cy="104" rx="5" ry="5" />
<ellipse fill="#000608" fill-opacity="0.396078" cx="164" cy="100" rx="6" ry="15" />
<ellipse fill="#787b76" fill-opacity="0.756863" cx="183" cy="76" rx="38" ry="7" />
<ellipse fill="#474b46" fill-opacity="0.454902" cx="54" cy="20" rx="22" ry="14" />
<ellipse fill="#c6c7b7" fill-opacity="0.286275" cx="213" cy="113" rx="30" ry="3" />
<ellipse fill="#45473f" fill-opacity="0.341176" cx="28" cy="89" rx="25" ry="21" />
<ellipse fill="#535842" fill-opacity="0.486275" cx="4" cy="1" rx="27" ry="7" />
<ellipse fill="#ddd5bc" fill-opacity="0.501961" cx="126" cy="51" rx="5" ry="4" />
<ellipse fill="#565854" fill-opacity="0.745098" cx="68" cy="81" rx="8" ry="17" />
<ellipse fill="#353c37" fill-opacity="0.439216" cx="86" cy="114" rx="14" ry="4" />
<ellipse fill="#dfe2d7" fill-opacity="0.415686" cx="232" cy="40" rx="4" ry="8" />
<ellipse fill="#161813" fill-opacity="0.549020" cx="221" cy="29" rx="6" ry="12" />
<ellipse fill="#989f99" fill-opacity="0.490196" cx="0" cy="108" rx="8" ry="9" />
<ellipse fill="#88877a" fill-opacity="0.533333" cx="105" cy="121" rx="18" ry="6" />
<ellipse fill="#1a1e1e" fill-opacity="0.529412" cx="165" cy="41" rx="15" ry="12" />
<ellipse fill="#878475" fill-opacity="0.796078" cx="208" cy="61" rx="14" ry="7" />
<ellipse fill="#2f3833" fill-opacity="0.505882" cx="253" cy="6" rx="5" ry="10" />
<ellipse fill="#7f8881" fill-opacity="0.541176" cx="230" cy="18" rx="4" ry="18" />
<ellipse fill="#1e2323" fill-opacity="0.541176" cx="111" cy="48" rx="12" ry="7" />
<ellipse fill="#3b413d" fill-opacity="0.521569" cx="30" cy="118" rx="6" ry="19" />
<ellipse fill="#9a9d97" fill-opacity="0.482353" cx="231" cy="69" rx="10" ry="23" />
<ellipse fill="#62665c" fill-opacity="0.568627" cx="255" cy="138" rx="13" ry="10" />
<ellipse fill="#161711" fill-opacity="0.517647" cx="58" cy="62" rx="9" ry="5" />
<ellipse fill="#5e6058" fill-opacity="0.517647" cx="244" cy="71" rx="24" ry="3" />
<ellipse fill="#696f6e" fill-opacity="0.545098" cx="89" cy="20" rx="15" ry="6" />
<ellipse fill="#63696b" fill-opacity="0.525490" cx="148" cy="1" rx="9" ry="22" />
<ellipse fill="#5e635f" fill-opacity="0.698039" cx="58" cy="108" rx="20" ry="5" />
<ellipse fill="#808582" fill-opacity="0.494118" cx="172" cy="130" rx="11" ry="4" />
<ellipse fill="#272a27" fill-opacity="0.556863" cx="196" cy="48" rx="6" ry="7" />
<ellipse fill="#28261e" fill-opacity="0.705882" cx="197" cy="86" rx="19" ry="3" />
<ellipse fill="#333836" fill-opacity="0.596078" cx="148" cy="52" rx="15" ry="3" />
<ellipse fill="#8b8f89" fill-opacity="0.458824" cx="111" cy="75" rx="34" ry="10" />
<ellipse fill="#363c3a" fill-opacity="0.447059" cx="12" cy="54" rx="7" ry="9" />
<ellipse fill="#d1cebc" fill-opacity="0.392157" cx="108" cy="131" rx="13" ry="7" />
<ellipse fill="#686355" fill-opacity="0.470588" cx="141" cy="63" rx="21" ry="2" />
<ellipse fill="#838885" fill-opacity="0.780392" cx="119" cy="19" rx="18" ry="5" />
<ellipse fill="#a6a496" fill-opacity="0.568627" cx="150" cy="66" rx="34" ry="3" />
<ellipse fill="#2e2d22" fill-opacity="0.552941" cx="90" cy="31" rx="13" ry="5" />
<ellipse fill="#191d1d" fill-opacity="0.545098" cx="128" cy="102" rx="16" ry="13" />
<ellipse fill="#474d4c" fill-opacity="0.247059" cx="194" cy="0" rx="33" ry="7" />
<ellipse fill="#a6a79b" fill-opacity="0.450980" cx="232" cy="118" rx="11" ry="10" />
</g>
</svg>