<svg xmlns="http://www.w3.org/2000/svg" version="1.1" width="256" height="164">
<rect x="0" y="0" width="256" height="164" fill="#f0f0f0" />
<g transform="scale(1.000000) translate(0.5 0.5)">
<ellipse fill="#10120b" fill-opacity="0.666667" cx="112" cy="89" rx="188" ry="147" />
<ellipse fill="#060802" fill-opacity="0.737255" cx="35" cy="50" rx="38" ry="110" />
<ellipse fill="#c4c5c4" fill-opacity="0.611765" cx="210" cy="102" rx="30" ry="163" />
<ellipse fill="#d4d5d1" fill-opacity="0.396078" cx="98" cy="154" rx="30" ry="120" />
<ellipse fill="#060a05" fill-opacity="0.949020" cx="255" cy="63" rx="14" ry="163" />
<ellipse fill="#161711" fill-opacity="0.588235" cx="165" cy="0" rx="18" ry="100" />
<ellipse fill="#212320" fill-opacity="1.000000" cx="181" cy="88" rx="5" ry="20" />
<ellipse fill="#20211a" fill-opacity="0.933333" cx="5" cy="146" rx="21" ry="27" />
<ellipse fill="#080300" fill-opacity="0.498039" cx="215" cy="86" rx="3" ry="39" />
<ellipse fill="#34342d" fill-opacity="0.996078" cx="68" cy="9" rx="38" ry="17" />
<ellipse fill="#aeaca7" fill-opacity="0.509804" cx="129" cy="28" rx="13" ry="23" />
<ellipse fill="#fefffc" fill-opacity="0.380392" cx="191" cy="151" rx="8" ry="95" />
<ellipse fill="#edf2f5" fill-opacity="0.235294" cx="71" cy="155" rx="23" ry="30" />
<ellipse fill="#d5d6d0" fill-opacity="0.196078" cx="160" cy="133" rx="52" ry="24" />
<ellipse fill="#111410" fill-opacity="0.666667" cx="53" cy="98" rx="22" ry="32" />
<ellipse fill="#030300" fill-opacity="0.243137" cx="233" cy="43" rx="12" ry="20" />
<ellipse fill="#dfe1dc" fill-opacity="0.600000" cx="0" cy="104" rx="4" ry="13" />
<ellipse fill="#eff2f2" fill-opacity="0.525490" cx="116" cy="123" rx="5" ry="26" />
<ellipse fill="#afb0aa" fill-opacity="0.752941" cx="119" cy="63" rx="4" ry="24" />
<ellipse fill="#11110c" fill-opacity="0.180392" cx="105" cy="77" rx="8" ry="72" />
<ellipse fill="#d5d7d3" fill-opacity="0.396078" cx="192" cy="41" rx="11" ry="38" />
<ellipse fill="#4a4c45" fill-opacity="0.733333" cx="152" cy="75" rx="27" ry="30" />
<ellipse fill="#020300" fill-opacity="0.447059" cx="170" cy="17" rx="13" ry="32" />
<ellipse fill="#474640" fill-opacity="0.450980" cx="124" cy="142" rx="4" ry="49" />
<ellipse fill="#020602" fill-opacity="0.815686" cx="241" cy="9" rx="2" ry="51" />
<ellipse fill="#787978" fill-opacity="0.403922" cx="236" cy="149" rx="7" ry="151" />
<ellipse fill="#a7a7a4" fill-opacity="0.572549" cx="199" cy="53" rx="20" ry="17" />
<ellipse fill="#575852" fill-opacity="0.650980" cx="80" cy="53" rx="10" ry="14" />
<ellipse fill="#393a34" fill-opacity="0.545098" cx="43" cy="148" rx="18" ry="11" />
<ellipse fill="#1a130d" fill-opacity="0.431373" cx="145" cy="162" rx="32" ry="4" />
<ellipse fill="#f6f5ec" fill-opacity="0.145098" cx="95" cy="43" rx="13" ry="25" />
<ellipse fill="#121410" fill-opacity="0.560784" cx="68" cy="85" rx="7" ry="33" />
<ellipse fill="#232521" fill-opacity="0.505882" cx="180" cy="93" rx="7" ry="18" />
<ellipse fill="#6a6b66" fill-opacity="0.439216" cx="148" cy="62" rx="6" ry="98" />
<ellipse fill="#000000" fill-opacity="0.345098" cx="99" cy="80" rx="3" ry="15" />
<ellipse fill="#383831" fill-opacity="0.788235" cx="115" cy="33" rx="6" ry="8" />
<ellipse fill="#070b05" fill-opacity="0.462745" cx="35" cy="41" rx="30" ry="27" />
<ellipse fill="#20201a" fill-opacity="0.745098" cx="171" cy="2" rx="18" ry="11" />
<ellipse fill="#cbcdcd" fill-opacity="0.415686" cx="98" cy="163" rx="15" ry="15" />
<ellipse fill="#5f5f5a" fill-opacity="0.466667" cx="92" cy="136" rx="9" ry="15" />
<ellipse fill="#f8fbf9" fill-opacity="0.360784" cx="67" cy="135" rx="6" ry="8" />
<ellipse fill="#15150e" fill-opacity="0.392157" cx="137" cy="73" rx="5" ry="25" />
<ellipse fill="#858681" fill-opacity="0.572549" cx="227" cy="9" rx="11" ry="54" />
<ellipse fill="#b4b5b3" fill-opacity="0.490196" cx="82" cy="106" rx="8" ry="19" />
<ellipse fill="#19190f" fill-opacity="0.443137" cx="107" cy="20" rx="8" ry="9" />
<ellipse fill="#060300" fill-opacity="0.337255" cx="217" cy="94" rx="2" ry="36" />
<ellipse fill="#c4c6c3" fill-opacity="0.576471" cx="194" cy="153" rx="13" ry="34" />
<ellipse fill="#6e6d69" fill-opacity="0.325490" cx="204" cy="94" rx="7" ry="29" />
<ellipse fill="#030200" fill-opacity="0.384314" cx="160" cy="84" rx="10" ry="9" />
<ellipse fill="#8f9596" fill-opacity="0.356863" cx="50" cy="163" rx="40" ry="6" />
<ellipse fill="#b4b6b6" fill-opacity="0.282353" cx="231" cy="92" rx="12" ry="31" />
<ellipse fill="#868078" fill-opacity="0.490196" cx="121" cy="0" rx="16" ry="19" />
<ellipse fill="#a2a29d" fill-opacity="0.654902" cx="126" cy="32" rx="6" ry="16" />
<ellipse fill="#96958e" fill-opacity="0.486275" cx="91" cy="38" rx="12" ry="7" />
<ellipse fill="#3a3830" fill-opacity="0.698039" cx="72" cy="15" rx="11" ry="27" />
<ellipse fill="#cfd1cf" fill-opacity="0.454902" cx="186" cy="54" rx="7" ry="14" />
<ellipse fill="#5b5c56" fill-opacity="0.737255" cx="110" cy="62" rx="3" ry="32" />
<ellipse fill="#131715" fill-opacity="0.470588" cx="244" cy="152" rx="3" ry="47" />
<ellipse fill="#5d5f5a" fill-opacity="0.407843" cx="94" cy="92" rx="4" ry="26" />
<ellipse fill="#6b6c68" fill-opacity="0.670588" cx="130" cy="156" rx="19" ry="5" />
<ellipse fill="#171918" fill-opacity="0.443137" cx="182" cy="87" rx="5" ry="20" />
<ellipse fill="#b5b8b4" fill-opacity="0.439216" cx="99" cy="61" rx="8" ry="8" />
<ellipse fill="#b9bab5" fill-opacity="0.572549" cx="120" cy="88" rx="3" ry="22" />
<ellipse fill="#afb1b0" fill-opacity="0.196078" cx="83" cy="141" rx="40" ry="8" />
<ellipse fill="#6b6b65" fill-opacity="0.372549" cx="172" cy="68" rx="6" ry="21" />
<ellipse fill="#bdbeb8" fill-opacity="0.517647" cx="88" cy="99" rx="3" ry="24" />
<ellipse fill="#161914" fill-opacity="0.784314" cx="45" cy="67" rx="31" ry="23" />
<ellipse fill="#848581" fill-opacity="0.435294" cx="214" cy="50" rx="21" ry="14" />
<ellipse fill="#b5b7b4" fill-opacity="0.533333" cx="198" cy="22" rx="16" ry="22" />
<ellipse fill="#4f4e43" fill-opacity="0.650980" cx="117" cy="62" rx="3" ry="4" />
<ellipse fill="#020701" fill-opacity="0.368627" cx="251" cy="30" rx="13" ry="58" />
<ellipse fill="#272720" fill-opacity="0.992157" cx="0" cy="25" rx="3" ry="67" />
<ellipse fill="#b1b3b2" fill-opacity="0.533333" cx="207" cy="148" rx="11" ry="28" />
<ellipse fill="#49433d" fill-opacity="0.266667" cx="148" cy="2" rx="18" ry="28" />
<ellipse fill="#808281" fill-opacity="0.560784" cx="234" cy="147" rx="7" ry="40" />
<ellipse fill="#878984" fill-opacity="0.282353" cx="147" cy="80" rx="7" ry="17" />
<ellipse fill="#eeeef0" fill-opacity="0.345098" cx="190" cy="79" rx="5" ry="12" />
<ellipse fill="#0b0f0b" fill-opacity="0.415686" cx="177" cy="26" rx="6" ry="26" />
<ellipse fill="#636560" fill-opacity="0.235294" cx="173" cy="112" rx="18" ry="13" />
<ellipse fill="#585953" fill-opacity="0.560784" cx="83" cy="58" rx="6" ry="12" />
<ellipse fill="#15160f" fill-opacity="0.282353" cx="73" cy="25" rx="42" ry="3" />
<ellipse fill="#cdcfcb" fill-opacity="0.627451" cx="184" cy="119" rx="3" ry="13" />
<ellipse fill="#bbbdbb" fill-opacity="0.317647" cx="71" cy="128" rx="5" ry="14" />
<ellipse fill="#656863" fill-opacity="0.670588" cx="128" cy="71" rx="3" ry="25" />
<ellipse fill="#403e37" fill-opacity="0.521569" cx="52" cy="10" rx="37" ry="7" />
<ellipse fill="#484944" fill-opacity="0.537255" cx="146" cy="49" rx="24" ry="3" />
<ellipse fill="#868786" fill-opacity="0.490196" cx="238" cy="111" rx="8" ry="4" />
<ellipse fill="#757672" fill-opacity="0.501961" cx="95" cy="133" rx="8" ry="25" />
<ellipse fill="#151713" fill-opacity="0.501961" cx="25" cy="105" rx="17" ry="56" />
<ellipse fill="#b5b6b3" fill-opacity="0.454902" cx="204" cy="116" rx="3" ry="27" />
<ellipse fill="#9fa19e" fill-opacity="0.384314" cx="112" cy="146" rx="27" ry="4" />
<ellipse fill="#171a16" fill-opacity="0.529412" cx="55" cy="104" rx="11" ry="33" />
<ellipse fill="#b2b5b2" fill-opacity="0.415686" cx="77" cy="84" rx="2" ry="31" />
<ellipse fill="#74736e" fill-opacity="0.678431" cx="141" cy="28" rx="3" ry="22" />
<ellipse fill="#1a1b15" fill-opacity="0.525490" cx="96" cy="0" rx="8" ry="17" />
<ellipse fill="#9b9d9a" fill-opacity="0.580392" cx="213" cy="34" rx="10" ry="24" />
<ellipse fill="#28271e" fill-opacity="0.196078" cx="49" cy="150" rx="27" ry="5" />
<ellipse fill="#1c1b1c" fill-opacity="0.498039" cx="185" cy="89" rx="1" ry="22" />
<ellipse fill="#b8b3a9" fill-opacity="0.329412" cx="83" cy="35" rx="5" ry="6" />
<ellipse fill="#6b6c67" fill-opacity="0.529412" cx="164" cy="130" rx="18" ry="28" />
</g>
</svg>