<svg xmlns="http://www.w3.org/2000/svg" version="1.1" width="256" height="143">
<rect x="0" y="0" width="256" height="143" fill="#f0f0f0" />
<g transform="scale(1.000000) translate(0.5 0.5)">
<ellipse fill="#6b6760" fill-opacity="0.678431" cx="134" cy="58" rx="176" ry="142" />
<ellipse fill="#0e1517" fill-opacity="0.439216" cx="8" cy="63" rx="14" ry="142" />
<ellipse fill="#c1bfbb" fill-opacity="0.560784" cx="127" cy="38" rx="76" ry="64" />
<ellipse fill="#3d362c" fill-opacity="0.419608" cx="237" cy="142" rx="95" ry="27" />
<ellipse fill="#231413" fill-opacity="0.282353" cx="222" cy="30" rx="61" ry="7" />
<ellipse fill="#1a140f" fill-opacity="0.470588" cx="239" cy="123" rx="48" ry="5" />
<ellipse fill="#000002" fill-opacity="0.466667" cx="234" cy="64" rx="4" ry="17" />
<ellipse fill="#c0b6a7" fill-opacity="0.501961" cx="198" cy="59" rx="33" ry="32" />
<ellipse fill="#cacec9" fill-opacity="0.666667" cx="65" cy="12" rx="12" ry="35" />
<ellipse fill="#443d3c" fill-opacity="0.454902" cx="65" cy="103" rx="128" ry="2" />
<ellipse fill="#615544" fill-opacity="0.517647" cx="159" cy="72" rx="6" ry="18" />
<ellipse fill="#a39c8f" fill-opacity="0.639216" cx="205" cy="137" rx="23" ry="11" />
<ellipse fill="#5b5b59" fill-opacity="0.415686" cx="130" cy="142" rx="51" ry="15" />
<ellipse fill="#747678" fill-opacity="0.996078" cx="27" cy="0" rx="23" ry="16" />
<ellipse fill="#d8d1bf" fill-opacity="0.580392" cx="80" cy="92" rx="21" ry="7" />
<ellipse fill="#383b3a" fill-opacity="0.321569" cx="255" cy="115" rx="30" ry="18" />
<ellipse fill="#f9efde" fill-opacity="0.545098" cx="167" cy="49" rx="15" ry="6" />
<ellipse fill="#41403d" fill-opacity="0.784314" cx="5" cy="128" rx="8" ry="45" />
<ellipse fill="#9b9790" fill-opacity="0.431373" cx="41" cy="73" rx="28" ry="51" />
<ellipse fill="#e7ebe9" fill-opacity="0.501961" cx="97" cy="32" rx="35" ry="4" />
<ellipse fill="#ffeac6" fill-opacity="0.294118" cx="141" cy="66" rx="14" ry="21" />
<ellipse fill="#908e92" fill-opacity="0.721569" cx="148" cy="28" rx="16" ry="16" />
<ellipse fill="#5c5c5f" fill-opacity="0.329412" cx="249" cy="9" rx="34" ry="31" />
<ellipse fill="#5a5754" fill-opacity="0.388235" cx="18" cy="116" rx="11" ry="41" />
<ellipse fill="#c9bba5" fill-opacity="0.541176" cx="224" cy="42" rx="23" ry="8" />
<ellipse fill="#1b1411" fill-opacity="0.482353" cx="252" cy="32" rx="24" ry="3" />
<ellipse fill="#f0ffff" fill-opacity="0.345098" cx="91" cy="0" rx="38" ry="6" />
<ellipse fill="#1f1406" fill-opacity="0.447059" cx="71" cy="81" rx="8" ry="3" />
<ellipse fill="#9b9a9d" fill-opacity="0.513725" cx="82" cy="20" rx="29" ry="11" />
<ellipse fill="#d6c8c0" fill-opacity="0.239216" cx="125" cy="117" rx="25" ry="13" />
<ellipse fill="#cdb695" fill-opacity="0.501961" cx="142" cy="85" rx="26" ry="9" />
<ellipse fill="#000000" fill-opacity="0.376471" cx="91" cy="102" rx="19" ry="2" />
<ellipse fill="#6c625d" fill-opacity="0.466667" cx="130" cy="45" rx="13" ry="4" />
<ellipse fill="#424140" fill-opacity="0.647059" cx="234" cy="72" rx="3" ry="23" />
<ellipse fill="#858284" fill-opacity="0.309804" cx="195" cy="46" rx="15" ry="27" />
<ellipse fill="#7d878d" fill-opacity="0.533333" cx="103" cy="72" rx="5" ry="27" />
<ellipse fill="#60666d" fill-opacity="0.458824" cx="179" cy="111" rx="12" ry="10" />
<ellipse fill="#9c9e9f" fill-opacity="0.462745" cx="244" cy="22" rx="32" ry="6" />
<ellipse fill="#7d8194" fill-opacity="0.411765" cx="166" cy="0" rx="17" ry="18" />
<ellipse fill="#bcbbae" fill-opacity="0.454902" cx="31" cy="52" rx="5" ry="37" />
<ellipse fill="#000315" fill-opacity="0.403922" cx="160" cy="60" rx="4" ry="5" />
<ellipse fill="#b3aca0" fill-opacity="0.623529" cx="70" cy="116" rx="6" ry="20" />
<ellipse fill="#89807e" fill-opacity="0.439216" cx="38" cy="136" rx="22" ry="49" />
<ellipse fill="#1e171e" fill-opacity="0.376471" cx="213" cy="28" rx="10" ry="4" />
<ellipse fill="#989692" fill-opacity="0.941176" cx="159" cy="98" rx="22" ry="5" />
<ellipse fill="#d5d4d0" fill-opacity="0.533333" cx="76" cy="48" rx="15" ry="5" />
<ellipse fill="#807c71" fill-opacity="0.560784" cx="227" cy="135" rx="24" ry="10" />
<ellipse fill="#9b9a9b" fill-opacity="0.623529" cx="202" cy="116" rx="19" ry="4" />
<ellipse fill="#7c776e" fill-opacity="0.705882" cx="238" cy="80" rx="3" ry="32" />
<ellipse fill="#1f1811" fill-opacity="0.596078" cx="156" cy="142" rx="16" ry="2" />
<ellipse fill="#83827f" fill-opacity="0.764706" cx="143" cy="133" rx="17" ry="9" />
<ellipse fill="#d7d7ec" fill-opacity="0.211765" cx="203" cy="13" rx="30" ry="5" />
<ellipse fill="#abadb6" fill-opacity="0.360784" cx="135" cy="17" rx="43" ry="19" />
<ellipse fill="#b0aca7" fill-opacity="0.764706" cx="194" cy="57" rx="6" ry="34" />
<ellipse fill="#58493c" fill-opacity="0.376471" cx="146" cy="39" rx="11" ry="3" />
<ellipse fill="#000715" fill-opacity="0.380392" cx="1" cy="4" rx="4" ry="15" />
<ellipse fill="#949695" fill-opacity="0.631373" cx="11" cy="8" rx="3" ry="13" />
<ellipse fill="#b9bbb8" fill-opacity="0.427451" cx="96" cy="88" rx="24" ry="14" />
<ellipse fill="#0b1020" fill-opacity="0.474510" cx="199" cy="25" rx="3" ry="4" />
<ellipse fill="#e8e0d2" fill-opacity="0.501961" cx="177" cy="55" rx="9" ry="6" />
<ellipse fill="#1a1d22" fill-opacity="0.501961" cx="7" cy="30" rx="7" ry="4" />
<ellipse fill="#ccbe99" fill-opacity="0.290196" cx="246" cy="67" rx="7" ry="29" />
<ellipse fill="#e9e2d2" fill-opacity="0.623529" cx="131" cy="55" rx="9" ry="5" />
<ellipse fill="#5d4129" fill-opacity="0.415686" cx="255" cy="36" rx="27" ry="3" />
<ellipse fill="#ccd3d4" fill-opacity="0.341176" cx="111" cy="53" rx="6" ry="28" />
<ellipse fill="#807d77" fill-opacity="0.650980" cx="167" cy="85" rx="4" ry="6" />
<ellipse fill="#6e6d6d" fill-opacity="0.576471" cx="52" cy="48" rx="5" ry="7" />
<ellipse fill="#020000" fill-opacity="0.156863" cx="121" cy="104" rx="54" ry="2" />
<ellipse fill="#807f7a" fill-opacity="0.701961" cx="255" cy="19" rx="18" ry="13" />
<ellipse fill="#3d4450" fill-opacity="0.474510" cx="30" cy="5" rx="15" ry="3" />
<ellipse fill="#7a7b7e" fill-opacity="0.560784" cx="226" cy="105" rx="15" ry="12" />
<ellipse fill="#a0a095" fill-opacity="0.376471" cx="34" cy="43" rx="16" ry="36" />
<ellipse fill="#b4a898" fill-opacity="0.439216" cx="195" cy="141" rx="12" ry="13" />
<ellipse fill="#756e69" fill-opacity="0.356863" cx="196" cy="63" rx="25" ry="2" />
<ellipse fill="#a9a292" fill-opacity="0.662745" cx="225" cy="63" rx="6" ry="34" />
<ellipse fill="#262327" fill-opacity="0.396078" cx="143" cy="98" rx="7" ry="2" />
<ellipse fill="#22171b" fill-opacity="0.431373" cx="169" cy="32" rx="4" ry="3" />
<ellipse fill="#e1e1db" fill-opacity="0.635294" cx="117" cy="28" rx="8" ry="3" />
<ellipse fill="#f0f1f0" fill-opacity="0.658824" cx="131" cy="100" rx="16" ry="1" />
<ellipse fill="#99948a" fill-opacity="0.592157" cx="204" cy="69" rx="5" ry="44" />
<ellipse fill="#ccceda" fill-opacity="0.125490" cx="210" cy="101" rx="76" ry="3" />
<ellipse fill="#67574c" fill-opacity="0.635294" cx="156" cy="36" rx="6" ry="2" />
<ellipse fill="#fffdef" fill-opacity="0.600000" cx="132" cy="60" rx="2" ry="10" />
<ellipse fill="#5b5850" fill-opacity="0.568627" cx="242" cy="128" rx="27" ry="4" />
<ellipse fill="#1b1d29" fill-opacity="0.388235" cx="187" cy="28" rx="2" ry="5" />
<ellipse fill="#7f8588" fill-opacity="0.501961" cx="103" cy="85" rx="4" ry="14" />
<ellipse fill="#d0c8be" fill-opacity="0.458824" cx="181" cy="76" rx="12" ry="9" />
<ellipse fill="#fdf8e5" fill-opacity="0.498039" cx="76" cy="93" rx="5" ry="5" />
<ellipse fill="#1d1813" fill-opacity="0.666667" cx="255" cy="119" rx="9" ry="3" />
<ellipse fill="#cbceca" fill-opacity="0.431373" cx="94" cy="62" rx="3" ry="35" />
<ellipse fill="#a79d96" fill-opacity="0.549020" cx="49" cy="108" rx="18" ry="7" />
<ellipse fill="#979286" fill-opacity="0.615686" cx="225" cy="140" rx="25" ry="3" />
<ellipse fill="#686668" fill-opacity="0.396078" cx="101" cy="121" rx="20" ry="2" />
<ellipse fill="#514e4c" fill-opacity="0.674510" cx="234" cy="52" rx="10" ry="3" />
<ellipse fill="#c9beaf" fill-opacity="0.482353" cx="167" cy="56" rx="4" ry="23" />
<ellipse fill="#83817f" fill-opacity="0.556863" cx="213" cy="139" rx="4" ry="19" />
<ellipse fill="#000414" fill-opacity="0.317647" cx="162" cy="69" rx="2" ry="10" />
<ellipse fill="#ffffff" fill-opacity="0.568627" cx="66" cy="0" rx="10" ry="4" />
<ellipse fill="#b3a598" fill-opacity="0.494118" cx="197" cy="35" rx="26" ry="5" />
<ellipse fill="#737270" fill-opacity="0.541176" cx="94" cy="142" rx="14" ry="16" />
</g>
</svg>