<svg xmlns="http://www.w3.org/2000/svg" version="1.1" width="256" height="143">
<rect x="0" y="0" width="256" height="143" fill="#f0f0f0" />
<g transform="scale(1.000000) translate(0.5 0.5)">
<ellipse fill="#424b2b" fill-opacity="0.666667" cx="172" cy="77" rx="220" ry="142" />
<ellipse fill="#f9fbfb" fill-opacity="0.854902" cx="131" cy="0" rx="45" ry="42" />
<ellipse fill="#162100" fill-opacity="0.694118" cx="9" cy="53" rx="33" ry="66" />
<ellipse fill="#1a270f" fill-opacity="0.556863" cx="217" cy="59" rx="66" ry="35" />
<ellipse fill="#cecab1" fill-opacity="0.600000" cx="137" cy="117" rx="105" ry="28" />
<ellipse fill="#000e06" fill-opacity="0.513725" cx="73" cy="23" rx="13" ry="26" />
<ellipse fill="#414d2c" fill-opacity="0.419608" cx="145" cy="72" rx="140" ry="21" />
<ellipse fill="#b0b7b0" fill-opacity="0.901961" cx="98" cy="17" rx="13" ry="32" />
<ellipse fill="#ffffff" fill-opacity="0.741176" cx="158" cy="3" rx="32" ry="12" />
<ellipse fill="#d5d6ab" fill-opacity="0.603922" cx="83" cy="101" rx="35" ry="17" />
<ellipse fill="#67725b" fill-opacity="0.619608" cx="182" cy="39" rx="23" ry="29" />
<ellipse fill="#646148" fill-opacity="0.478431" cx="36" cy="125" rx="49" ry="16" />
<ellipse fill="#f8faff" fill-opacity="0.678431" cx="41" cy="3" rx="7" ry="13" />
<ellipse fill="#fff4cb" fill-opacity="0.549020" cx="127" cy="139" rx="32" ry="15" />
<ellipse fill="#263221" fill-opacity="0.545098" cx="228" cy="46" rx="22" ry="35" />
<ellipse fill="#fdffff" fill-opacity="0.654902" cx="148" cy="36" rx="13" ry="8" />
<ellipse fill="#ffffff" fill-opacity="0.647059" cx="50" cy="15" rx="7" ry="5" />
<ellipse fill="#122116" fill-opacity="0.372549" cx="41" cy="26" rx="68" ry="6" />
<ellipse fill="#ebfef9" fill-opacity="0.423529" cx="52" cy="37" rx="14" ry="7" />
<ellipse fill="#ffffff" fill-opacity="0.580392" cx="93" cy="25" rx="5" ry="20" />
<ellipse fill="#949493" fill-opacity="0.400000" cx="223" cy="119" rx="74" ry="31" />
<ellipse fill="#ffffff" fill-opacity="0.686275" cx="135" cy="5" rx="28" ry="33" />
<ellipse fill="#606d5d" fill-opacity="0.592157" cx="105" cy="48" rx="6" ry="27" />
<ellipse fill="#041100" fill-opacity="0.458824" cx="10" cy="19" rx="15" ry="23" />
<ellipse fill="#d5d9d3" fill-opacity="0.521569" cx="154" cy="101" rx="42" ry="5" />
<ellipse fill="#4a532b" fill-opacity="0.521569" cx="30" cy="77" rx="21" ry="31" />
<ellipse fill="#202224" fill-opacity="0.572549" cx="121" cy="84" rx="4" ry="14" />
<ellipse fill="#303927" fill-opacity="0.541176" cx="163" cy="76" rx="18" ry="15" />
<ellipse fill="#727e69" fill-opacity="0.450980" cx="105" cy="66" rx="18" ry="32" />
<ellipse fill="#a9a389" fill-opacity="0.654902" cx="72" cy="138" rx="31" ry="6" />
<ellipse fill="#7b8b5f" fill-opacity="0.721569" cx="156" cy="48" rx="31" ry="6" />
<ellipse fill="#525535" fill-opacity="0.454902" cx="13" cy="131" rx="14" ry="51" />
<ellipse fill="#58655d" fill-opacity="0.435294" cx="188" cy="29" rx="32" ry="11" />
<ellipse fill="#8a9670" fill-opacity="0.600000" cx="48" cy="47" rx="14" ry="7" />
<ellipse fill="#39493b" fill-opacity="0.360784" cx="238" cy="6" rx="19" ry="18" />
<ellipse fill="#212c0f" fill-opacity="0.533333" cx="15" cy="22" rx="33" ry="12" />
<ellipse fill="#a6b898" fill-opacity="0.537255" cx="128" cy="43" rx="32" ry="3" />
<ellipse fill="#ffffff" fill-opacity="0.650980" cx="116" cy="18" rx="28" ry="4" />
<ellipse fill="#4c5822" fill-opacity="0.650980" cx="48" cy="59" rx="16" ry="8" />
<ellipse fill="#485252" fill-opacity="0.427451" cx="67" cy="5" rx="26" ry="6" />
<ellipse fill="#101d0d" fill-opacity="0.486275" cx="100" cy="27" rx="6" ry="4" />
<ellipse fill="#e4eae2" fill-opacity="0.458824" cx="212" cy="18" rx="7" ry="4" />
<ellipse fill="#c6c8cd" fill-opacity="0.549020" cx="83" cy="0" rx="3" ry="14" />
<ellipse fill="#edfffd" fill-opacity="0.486275" cx="90" cy="35" rx="6" ry="9" />
<ellipse fill="#697253" fill-opacity="0.474510" cx="244" cy="92" rx="83" ry="5" />
<ellipse fill="#acb0b0" fill-opacity="0.396078" cx="239" cy="8" rx="7" ry="8" />
<ellipse fill="#2d3626" fill-opacity="0.521569" cx="229" cy="60" rx="32" ry="26" />
<ellipse fill="#465044" fill-opacity="0.698039" cx="54" cy="25" rx="23" ry="6" />
<ellipse fill="#f4f8fc" fill-opacity="0.584314" cx="252" cy="23" rx="4" ry="3" />
<ellipse fill="#f7f6e8" fill-opacity="0.396078" cx="59" cy="79" rx="6" ry="3" />
<ellipse fill="#53663e" fill-opacity="0.498039" cx="142" cy="58" rx="14" ry="15" />
<ellipse fill="#94a879" fill-opacity="0.482353" cx="85" cy="59" rx="14" ry="6" />
<ellipse fill="#d7d7ac" fill-opacity="0.537255" cx="77" cy="103" rx="17" ry="15" />
<ellipse fill="#ffffff" fill-opacity="0.333333" cx="195" cy="0" rx="27" ry="3" />
<ellipse fill="#bfc365" fill-opacity="0.301961" cx="143" cy="86" rx="17" ry="4" />
<ellipse fill="#ffffff" fill-opacity="0.458824" cx="154" cy="25" rx="6" ry="21" />
<ellipse fill="#ffffff" fill-opacity="0.501961" cx="184" cy="5" rx="4" ry="8" />
<ellipse fill="#a0a294" fill-opacity="0.364706" cx="200" cy="120" rx="43" ry="30" />
<ellipse fill="#495149" fill-opacity="0.482353" cx="108" cy="10" rx="5" ry="3" />
<ellipse fill="#eaebea" fill-opacity="0.752941" cx="113" cy="0" rx="11" ry="10" />
<ellipse fill="#ffffff" fill-opacity="0.592157" cx="120" cy="32" rx="10" ry="10" />
<ellipse fill="#29381b" fill-opacity="0.443137" cx="68" cy="45" rx="13" ry="4" />
<ellipse fill="#ffffff" fill-opacity="0.482353" cx="92" cy="13" rx="8" ry="5" />
<ellipse fill="#364035" fill-opacity="0.517647" cx="74" cy="22" rx="15" ry="13" />
<ellipse fill="#c8c388" fill-opacity="0.349020" cx="41" cy="109" rx="21" ry="4" />
<ellipse fill="#949b87" fill-opacity="0.368627" cx="252" cy="33" rx="12" ry="6" />
<ellipse fill="#ffffff" fill-opacity="0.513725" cx="51" cy="15" rx="4" ry="6" />
<ellipse fill="#263322" fill-opacity="0.792157" cx="73" cy="0" rx="8" ry="10" />
<ellipse fill="#888770" fill-opacity="0.384314" cx="58" cy="125" rx="29" ry="16" />
<ellipse fill="#0f1f03" fill-opacity="0.525490" cx="24" cy="44" rx="9" ry="9" />
<ellipse fill="#f6f9fc" fill-opacity="0.662745" cx="125" cy="70" rx="5" ry="1" />
<ellipse fill="#6f7349" fill-opacity="0.392157" cx="191" cy="62" rx="10" ry="29" />
<ellipse fill="#28332d" fill-opacity="0.258824" cx="96" cy="78" rx="28" ry="5" />
<ellipse fill="#9b9c93" fill-opacity="0.596078" cx="146" cy="111" rx="30" ry="8" />
<ellipse fill="#e6debe" fill-opacity="0.709804" cx="146" cy="142" rx="26" ry="5" />
<ellipse fill="#b7b895" fill-opacity="0.450980" cx="111" cy="111" rx="5" ry="30" />
<ellipse fill="#b0b4ad" fill-opacity="0.466667" cx="202" cy="23" rx="9" ry="5" />
<ellipse fill="#1f2b1b" fill-opacity="0.596078" cx="63" cy="8" rx="9" ry="3" />
<ellipse fill="#414d31" fill-opacity="0.458824" cx="228" cy="29" rx="21" ry="14" />
<ellipse fill="#4e5952" fill-opacity="0.458824" cx="177" cy="32" rx="18" ry="13" />
<ellipse fill="#dcdfd3" fill-opacity="0.266667" cx="143" cy="98" rx="69" ry="4" />
<ellipse fill="#ffffff" fill-opacity="0.254902" cx="49" cy="4" rx="12" ry="2" />
<ellipse fill="#000004" fill-opacity="0.333333" cx="119" cy="84" rx="3" ry="14" />
<ellipse fill="#212b20" fill-opacity="0.400000" cx="107" cy="12" rx="4" ry="3" />
<ellipse fill="#e4deb9" fill-opacity="0.458824" cx="124" cy="129" rx="15" ry="12" />
<ellipse fill="#4f5a2d" fill-opacity="0.423529" cx="21" cy="0" rx="16" ry="8" />
<ellipse fill="#9b9a7c" fill-opacity="0.447059" cx="92" cy="125" rx="26" ry="6" />
<ellipse fill="#706f62" fill-opacity="0.184314" cx="255" cy="127" rx="41" ry="22" />
<ellipse fill="#3a4534" fill-opacity="0.447059" cx="255" cy="13" rx="11" ry="9" />
<ellipse fill="#525f55" fill-opacity="0.541176" cx="205" cy="5" rx="5" ry="6" />
<ellipse fill="#6b6c56" fill-opacity="0.498039" cx="28" cy="121" rx="20" ry="10" />
<ellipse fill="#ffffff" fill-opacity="0.662745" cx="36" cy="6" rx="4" ry="2" />
<ellipse fill="#c7bfa1" fill-opacity="0.611765" cx="93" cy="142" rx="42" ry="2" />
<ellipse fill="#778348" fill-opacity="0.443137" cx="131" cy="92" rx="34" ry="3" />
<ellipse fill="#f7fcfd" fill-opacity="0.482353" cx="255" cy="2" rx="4" ry="2" />
<ellipse fill="#172017" fill-opacity="0.501961" cx="28" cy="86" rx="5" ry="12" />
<ellipse fill="#bcbd79" fill-opacity="0.482353" cx="53" cy="97" rx="10" ry="7" />
<ellipse fill="#767b4e" fill-opacity="0.568627" cx="20" cy="64" rx="4" ry="8" />
<ellipse fill="#ffffff" fill-opacity="0.619608" cx="140" cy="14" rx="30" ry="12" />
<ellipse fill="#606855" fill-opacity="0.533333" cx="255" cy="92" rx="57" ry="5" />
</g>
</svg>