<svg xmlns="http://www.w3.org/2000/svg" version="1.1" width="256" height="143">
<rect x="0" y="0" width="256" height="143" fill="#f0f0f0" />
<g transform="scale(1.000000) translate(0.5 0.5)">
<ellipse fill="#1f1f17" fill-opacity="0.709804" cx="112" cy="71" rx="176" ry="142" />
<ellipse fill="#b1b0aa" fill-opacity="0.713725" cx="172" cy="142" rx="61" ry="93" />
<ellipse fill="#030701" fill-opacity="0.752941" cx="60" cy="27" rx="30" ry="102" />
<ellipse fill="#020300" fill-opacity="0.647059" cx="254" cy="56" rx="29" ry="85" />
<ellipse fill="#d3d2cb" fill-opacity="0.450980" cx="144" cy="75" rx="21" ry="142" />
<ellipse fill="#11130b" fill-opacity="0.537255" cx="26" cy="12" rx="90" ry="46" />
<ellipse fill="#000000" fill-opacity="0.482353" cx="178" cy="31" rx="14" ry="35" />
<ellipse fill="#908d86" fill-opacity="1.000000" cx="207" cy="72" rx="19" ry="42" />
<ellipse fill="#777570" fill-opacity="0.980392" cx="122" cy="58" rx="25" ry="30" />
<ellipse fill="#121615" fill-opacity="0.517647" cx="170" cy="96" rx="7" ry="22" />
<ellipse fill="#a09e9c" fill-opacity="0.450980" cx="85" cy="136" rx="18" ry="29" />
<ellipse fill="#dcdcd5" fill-opacity="0.384314" cx="154" cy="142" rx="11" ry="139" />
<ellipse fill="#9b9f9d" fill-opacity="0.301961" cx="29" cy="86" rx="11" ry="42" />
<ellipse fill="#71716a" fill-opacity="0.439216" cx="106" cy="80" rx="24" ry="45" />
<ellipse fill="#7d7a74" fill-opacity="0.588235" cx="193" cy="66" rx="24" ry="17" />
<ellipse fill="#01090a" fill-opacity="0.219608" cx="0" cy="123" rx="21" ry="141" />
<ellipse fill="#85827c" fill-opacity="0.678431" cx="205" cy="122" rx="35" ry="10" />
<ellipse fill="#d1d2c6" fill-opacity="0.403922" cx="221" cy="89" rx="5" ry="35" />
<ellipse fill="#95938e" fill-opacity="0.988235" cx="117" cy="142" rx="34" ry="6" />
<ellipse fill="#272416" fill-opacity="0.505882" cx="214" cy="3" rx="44" ry="6" />
<ellipse fill="#070a06" fill-opacity="0.498039" cx="172" cy="33" rx="3" ry="49" />
<ellipse fill="#575451" fill-opacity="0.498039" cx="139" cy="75" rx="15" ry="9" />
<ellipse fill="#121511" fill-opacity="0.717647" cx="168" cy="30" rx="6" ry="13" />
<ellipse fill="#a4a095" fill-opacity="0.729412" cx="155" cy="0" rx="14" ry="21" />
<ellipse fill="#bebdb4" fill-opacity="0.513725" cx="157" cy="62" rx="13" ry="27" />
<ellipse fill="#12130e" fill-opacity="0.596078" cx="92" cy="42" rx="4" ry="17" />
<ellipse fill="#57574f" fill-opacity="0.541176" cx="16" cy="42" rx="9" ry="21" />
<ellipse fill="#282926" fill-opacity="0.800000" cx="232" cy="98" rx="6" ry="19" />
<ellipse fill="#201f19" fill-opacity="0.678431" cx="247" cy="42" rx="27" ry="25" />
<ellipse fill="#282822" fill-opacity="0.509804" cx="106" cy="109" rx="4" ry="25" />
<ellipse fill="#2c2e2d" fill-opacity="0.494118" cx="43" cy="113" rx="9" ry="21" />
<ellipse fill="#ddd9d4" fill-opacity="0.588235" cx="168" cy="138" rx="11" ry="6" />
<ellipse fill="#9a9080" fill-opacity="0.486275" cx="209" cy="33" rx="13" ry="10" />
<ellipse fill="#8e8e8a" fill-opacity="0.490196" cx="94" cy="99" rx="10" ry="14" />
<ellipse fill="#c1c1be" fill-opacity="0.435294" cx="230" cy="137" rx="7" ry="16" />
<ellipse fill="#45433b" fill-opacity="0.713725" cx="105" cy="25" rx="14" ry="13" />
<ellipse fill="#575145" fill-opacity="0.447059" cx="193" cy="34" rx="8" ry="27" />
<ellipse fill="#1f2018" fill-opacity="0.933333" cx="12" cy="8" rx="36" ry="9" />
<ellipse fill="#95928c" fill-opacity="0.592157" cx="182" cy="84" rx="8" ry="32" />
<ellipse fill="#807e75" fill-opacity="0.662745" cx="127" cy="17" rx="8" ry="34" />
<ellipse fill="#d7dad7" fill-opacity="0.505882" cx="151" cy="126" rx="15" ry="13" />
<ellipse fill="#6d6758" fill-opacity="0.670588" cx="221" cy="17" rx="11" ry="11" />
<ellipse fill="#b9b3a7" fill-opacity="0.478431" cx="148" cy="30" rx="15" ry="13" />
<ellipse fill="#8b8c87" fill-opacity="0.611765" cx="25" cy="100" rx="5" ry="29" />
<ellipse fill="#a2a29e" fill-opacity="0.431373" cx="102" cy="47" rx="6" ry="11" />
<ellipse fill="#5e5e5b" fill-opacity="0.466667" cx="213" cy="86" rx="4" ry="16" />
<ellipse fill="#171816" fill-opacity="0.392157" cx="168" cy="90" rx="6" ry="10" />
<ellipse fill="#1a1d1b" fill-opacity="0.537255" cx="77" cy="89" rx="6" ry="26" />
<ellipse fill="#b4b4ae" fill-opacity="0.501961" cx="162" cy="74" rx="10" ry="9" />
<ellipse fill="#797874" fill-opacity="0.509804" cx="211" cy="142" rx="14" ry="24" />
<ellipse fill="#989a93" fill-opacity="0.533333" cx="127" cy="99" rx="7" ry="18" />
<ellipse fill="#131819" fill-opacity="0.419608" cx="55" cy="125" rx="14" ry="6" />
<ellipse fill="#5b5b57" fill-opacity="0.509804" cx="191" cy="128" rx="25" ry="2" />
<ellipse fill="#010600" fill-opacity="0.462745" cx="255" cy="11" rx="11" ry="31" />
<ellipse fill="#b4b4ab" fill-opacity="0.725490" cx="218" cy="60" rx="3" ry="20" />
<ellipse fill="#1f201a" fill-opacity="0.619608" cx="180" cy="37" rx="9" ry="16" />
<ellipse fill="#87847c" fill-opacity="0.466667" cx="225" cy="67" rx="2" ry="16" />
<ellipse fill="#6d6861" fill-opacity="0.698039" cx="84" cy="118" rx="15" ry="7" />
<ellipse fill="#000000" fill-opacity="0.329412" cx="0" cy="28" rx="5" ry="40" />
<ellipse fill="#38372f" fill-opacity="0.443137" cx="29" cy="17" rx="9" ry="24" />
<ellipse fill="#2a2a24" fill-opacity="0.835294" cx="87" cy="0" rx="18" ry="9" />
<ellipse fill="#454843" fill-opacity="0.517647" cx="34" cy="67" rx="7" ry="15" />
<ellipse fill="#54544f" fill-opacity="0.427451" cx="98" cy="65" rx="6" ry="20" />
<ellipse fill="#716d6b" fill-opacity="0.431373" cx="142" cy="72" rx="8" ry="13" />
<ellipse fill="#9e9b94" fill-opacity="0.552941" cx="191" cy="107" rx="18" ry="11" />
<ellipse fill="#c6c5bc" fill-opacity="0.517647" cx="163" cy="54" rx="6" ry="13" />
<ellipse fill="#0a0d07" fill-opacity="0.462745" cx="52" cy="76" rx="11" ry="35" />
<ellipse fill="#6e706a" fill-opacity="0.431373" cx="22" cy="50" rx="8" ry="8" />
<ellipse fill="#b9b4aa" fill-opacity="0.627451" cx="213" cy="45" rx="5" ry="7" />
<ellipse fill="#9c9590" fill-opacity="0.509804" cx="197" cy="74" rx="17" ry="9" />
<ellipse fill="#22221d" fill-opacity="0.458824" cx="91" cy="32" rx="4" ry="35" />
<ellipse fill="#646561" fill-opacity="0.356863" cx="110" cy="130" rx="12" ry="8" />
<ellipse fill="#6c7276" fill-opacity="0.537255" cx="61" cy="138" rx="27" ry="5" />
<ellipse fill="#3b3930" fill-opacity="0.521569" cx="233" cy="30" rx="10" ry="9" />
<ellipse fill="#a6a59f" fill-opacity="0.501961" cx="102" cy="141" rx="14" ry="7" />
<ellipse fill="#121511" fill-opacity="0.470588" cx="169" cy="26" rx="8" ry="5" />
<ellipse fill="#413e35" fill-opacity="0.466667" cx="187" cy="28" rx="6" ry="27" />
<ellipse fill="#57554d" fill-opacity="0.494118" cx="117" cy="7" rx="5" ry="34" />
<ellipse fill="#545858" fill-opacity="0.576471" cx="8" cy="92" rx="13" ry="14" />
<ellipse fill="#252623" fill-opacity="0.415686" cx="172" cy="62" rx="2" ry="52" />
<ellipse fill="#5c5e5b" fill-opacity="0.482353" cx="90" cy="72" rx="7" ry="17" />
<ellipse fill="#4a4c48" fill-opacity="0.372549" cx="37" cy="104" rx="5" ry="37" />
<ellipse fill="#c4c9c6" fill-opacity="0.478431" cx="145" cy="107" rx="12" ry="25" />
<ellipse fill="#434644" fill-opacity="0.458824" cx="166" cy="99" rx="2" ry="22" />
<ellipse fill="#4c4c4a" fill-opacity="0.501961" cx="45" cy="112" rx="6" ry="5" />
<ellipse fill="#999c9b" fill-opacity="0.494118" cx="85" cy="129" rx="15" ry="4" />
<ellipse fill="#242829" fill-opacity="0.482353" cx="255" cy="127" rx="16" ry="18" />
<ellipse fill="#343732" fill-opacity="0.639216" cx="0" cy="61" rx="20" ry="8" />
<ellipse fill="#4a4639" fill-opacity="0.576471" cx="223" cy="0" rx="22" ry="7" />
<ellipse fill="#0f120b" fill-opacity="0.403922" cx="62" cy="46" rx="33" ry="14" />
<ellipse fill="#908a7e" fill-opacity="0.600000" cx="216" cy="30" rx="7" ry="6" />
<ellipse fill="#3b3b35" fill-opacity="0.537255" cx="104" cy="125" rx="4" ry="9" />
<ellipse fill="#c9c8c0" fill-opacity="0.325490" cx="214" cy="113" rx="12" ry="6" />
<ellipse fill="#1e1e19" fill-opacity="0.396078" cx="164" cy="82" rx="2" ry="3" />
<ellipse fill="#86898b" fill-opacity="0.482353" cx="235" cy="139" rx="5" ry="14" />
<ellipse fill="#9a9893" fill-opacity="0.501961" cx="111" cy="75" rx="4" ry="7" />
<ellipse fill="#736e67" fill-opacity="0.556863" cx="191" cy="120" rx="17" ry="3" />
<ellipse fill="#41423e" fill-opacity="0.564706" cx="173" cy="89" rx="2" ry="26" />
<ellipse fill="#070a02" fill-opacity="0.482353" cx="60" cy="14" rx="13" ry="16" />
<ellipse fill="#696c64" fill-opacity="0.533333" cx="209" cy="57" rx="7" ry="6" />
</g>
</svg>