<svg xmlns="http://www.w3.org/2000/svg" version="1.1" width="256" height="143">
<rect x="0" y="0" width="256" height="143" fill="#f0f0f0" />
<g transform="scale(1.000000) translate(0.5 0.5)">
<ellipse fill="#000400" fill-opacity="0.615686" cx="122" cy="74" rx="193" ry="140" />
<ellipse fill="#bdbdbc" fill-opacity="0.576471" cx="111" cy="44" rx="47" ry="40" />
<ellipse fill="#070800" fill-opacity="0.803922" cx="3" cy="4" rx="46" ry="55" />
<ellipse fill="#050707" fill-opacity="0.505882" cx="235" cy="121" rx="61" ry="35" />
<ellipse fill="#96989a" fill-opacity="1.000000" cx="154" cy="0" rx="46" ry="40" />
<ellipse fill="#090c0a" fill-opacity="0.603922" cx="48" cy="89" rx="24" ry="22" />
<ellipse fill="#fffffb" fill-opacity="0.470588" cx="89" cy="61" rx="15" ry="26" />
<ellipse fill="#16160e" fill-opacity="0.654902" cx="69" cy="8" rx="30" ry="13" />
<ellipse fill="#565551" fill-opacity="0.882353" cx="146" cy="75" rx="36" ry="20" />
<ellipse fill="#ffffff" fill-opacity="0.650980" cx="186" cy="0" rx="17" ry="11" />
<ellipse fill="#8b8c88" fill-opacity="0.564706" cx="128" cy="106" rx="41" ry="17" />
<ellipse fill="#b9bbbb" fill-opacity="0.572549" cx="142" cy="42" rx="32" ry="13" />
<ellipse fill="#26251e" fill-opacity="0.650980" cx="0" cy="67" rx="45" ry="12" />
<ellipse fill="#a8abad" fill-opacity="0.309804" cx="65" cy="47" rx="33" ry="25" />
<ellipse fill="#3e4245" fill-opacity="0.588235" cx="248" cy="33" rx="72" ry="21" />
<ellipse fill="#373d41" fill-opacity="0.474510" cx="109" cy="25" rx="23" ry="6" />
<ellipse fill="#0d1720" fill-opacity="0.180392" cx="158" cy="17" rx="23" ry="15" />
<ellipse fill="#d1d1ca" fill-opacity="0.317647" cx="98" cy="88" rx="17" ry="16" />
<ellipse fill="#030500" fill-opacity="0.639216" cx="244" cy="127" rx="22" ry="10" />
<ellipse fill="#000000" fill-opacity="0.282353" cx="3" cy="108" rx="9" ry="142" />
<ellipse fill="#2e2d29" fill-opacity="0.545098" cx="137" cy="90" rx="9" ry="17" />
<ellipse fill="#6c6f72" fill-opacity="0.541176" cx="182" cy="54" rx="56" ry="11" />
<ellipse fill="#8d8d85" fill-opacity="0.498039" cx="19" cy="93" rx="8" ry="21" />
<ellipse fill="#838482" fill-opacity="0.556863" cx="139" cy="136" rx="27" ry="10" />
<ellipse fill="#292d30" fill-opacity="0.478431" cx="64" cy="41" rx="7" ry="9" />
<ellipse fill="#4d504f" fill-opacity="0.537255" cx="186" cy="109" rx="24" ry="20" />
<ellipse fill="#2e3231" fill-opacity="0.490196" cx="78" cy="137" rx="29" ry="8" />
<ellipse fill="#343735" fill-opacity="0.670588" cx="72" cy="84" rx="10" ry="12" />
<ellipse fill="#353630" fill-opacity="0.341176" cx="252" cy="62" rx="24" ry="60" />
<ellipse fill="#1f1f1b" fill-opacity="0.490196" cx="49" cy="0" rx="6" ry="45" />
<ellipse fill="#8d8b89" fill-opacity="0.196078" cx="205" cy="77" rx="41" ry="18" />
<ellipse fill="#eae7dd" fill-opacity="0.501961" cx="126" cy="40" rx="10" ry="9" />
<ellipse fill="#e7e8e6" fill-opacity="0.462745" cx="82" cy="22" rx="13" ry="3" />
<ellipse fill="#bbbeb9" fill-opacity="0.301961" cx="146" cy="114" rx="25" ry="7" />
<ellipse fill="#98a0ad" fill-opacity="0.388235" cx="204" cy="11" rx="14" ry="9" />
<ellipse fill="#dcddd9" fill-opacity="0.447059" cx="129" cy="5" rx="9" ry="11" />
<ellipse fill="#07111a" fill-opacity="0.301961" cx="111" cy="30" rx="6" ry="11" />
<ellipse fill="#2e3636" fill-opacity="0.278431" cx="103" cy="94" rx="3" ry="42" />
<ellipse fill="#d2d3cf" fill-opacity="0.486275" cx="99" cy="38" rx="4" ry="34" />
<ellipse fill="#a1a4a8" fill-opacity="0.474510" cx="43" cy="55" rx="16" ry="6" />
<ellipse fill="#333840" fill-opacity="0.501961" cx="202" cy="41" rx="11" ry="21" />
<ellipse fill="#696965" fill-opacity="0.443137" cx="78" cy="32" rx="13" ry="8" />
<ellipse fill="#cecfca" fill-opacity="0.423529" cx="74" cy="59" rx="8" ry="16" />
<ellipse fill="#e1e0d9" fill-opacity="0.631373" cx="113" cy="51" rx="5" ry="7" />
<ellipse fill="#b7b8b8" fill-opacity="0.482353" cx="61" cy="28" rx="10" ry="5" />
<ellipse fill="#afafac" fill-opacity="0.509804" cx="188" cy="57" rx="5" ry="9" />
<ellipse fill="#656560" fill-opacity="0.529412" cx="86" cy="61" rx="4" ry="5" />
<ellipse fill="#616461" fill-opacity="0.694118" cx="8" cy="100" rx="19" ry="9" />
<ellipse fill="#3a4451" fill-opacity="0.443137" cx="144" cy="15" rx="7" ry="9" />
<ellipse fill="#0a0a04" fill-opacity="0.501961" cx="192" cy="136" rx="16" ry="6" />
<ellipse fill="#23211c" fill-opacity="0.462745" cx="171" cy="88" rx="5" ry="12" />
<ellipse fill="#1d2020" fill-opacity="0.623529" cx="42" cy="86" rx="15" ry="23" />
<ellipse fill="#e7e7e1" fill-opacity="0.407843" cx="90" cy="51" rx="14" ry="11" />
<ellipse fill="#656157" fill-opacity="0.596078" cx="242" cy="27" rx="17" ry="10" />
<ellipse fill="#97a0ac" fill-opacity="0.250980" cx="215" cy="142" rx="23" ry="4" />
<ellipse fill="#181b18" fill-opacity="0.694118" cx="88" cy="132" rx="22" ry="2" />
<ellipse fill="#353634" fill-opacity="0.572549" cx="116" cy="67" rx="9" ry="3" />
<ellipse fill="#020000" fill-opacity="0.396078" cx="162" cy="122" rx="11" ry="3" />
<ellipse fill="#2c333a" fill-opacity="0.513725" cx="125" cy="19" rx="6" ry="4" />
<ellipse fill="#000000" fill-opacity="0.400000" cx="5" cy="142" rx="19" ry="5" />
<ellipse fill="#aaaba6" fill-opacity="0.462745" cx="144" cy="29" rx="28" ry="5" />
<ellipse fill="#282a23" fill-opacity="0.392157" cx="86" cy="112" rx="7" ry="10" />
<ellipse fill="#1f2124" fill-opacity="0.549020" cx="251" cy="13" rx="17" ry="6" />
<ellipse fill="#7f8386" fill-opacity="0.431373" cx="175" cy="40" rx="11" ry="20" />
<ellipse fill="#23231b" fill-opacity="0.635294" cx="57" cy="4" rx="23" ry="19" />
<ellipse fill="#ffffff" fill-opacity="0.631373" cx="186" cy="0" rx="8" ry="8" />
<ellipse fill="#a8a69b" fill-opacity="0.290196" cx="221" cy="59" rx="5" ry="20" />
<ellipse fill="#484943" fill-opacity="0.568627" cx="120" cy="88" rx="6" ry="13" />
<ellipse fill="#655d4f" fill-opacity="0.494118" cx="15" cy="70" rx="11" ry="7" />
<ellipse fill="#131512" fill-opacity="0.407843" cx="248" cy="88" rx="16" ry="7" />
<ellipse fill="#434444" fill-opacity="0.313725" cx="71" cy="75" rx="12" ry="8" />
<ellipse fill="#afb2b1" fill-opacity="0.478431" cx="67" cy="66" rx="10" ry="5" />
<ellipse fill="#2f3437" fill-opacity="0.435294" cx="159" cy="60" rx="12" ry="6" />
<ellipse fill="#cfd0c8" fill-opacity="0.262745" cx="101" cy="86" rx="11" ry="8" />
<ellipse fill="#888c8e" fill-opacity="0.886275" cx="119" cy="142" rx="15" ry="3" />
<ellipse fill="#191711" fill-opacity="0.494118" cx="193" cy="100" rx="17" ry="3" />
<ellipse fill="#bbbab4" fill-opacity="0.537255" cx="72" cy="48" rx="5" ry="12" />
<ellipse fill="#434642" fill-opacity="0.552941" cx="63" cy="103" rx="11" ry="10" />
<ellipse fill="#474c50" fill-opacity="0.478431" cx="107" cy="24" rx="17" ry="4" />
<ellipse fill="#b7bcb5" fill-opacity="0.211765" cx="150" cy="89" rx="4" ry="26" />
<ellipse fill="#d1d2d0" fill-opacity="0.423529" cx="111" cy="15" rx="13" ry="4" />
<ellipse fill="#474a49" fill-opacity="0.470588" cx="221" cy="108" rx="24" ry="10" />
<ellipse fill="#3f413d" fill-opacity="0.517647" cx="89" cy="4" rx="11" ry="14" />
<ellipse fill="#5b5d5a" fill-opacity="0.803922" cx="113" cy="136" rx="32" ry="3" />
<ellipse fill="#7f8286" fill-opacity="0.862745" cx="173" cy="17" rx="38" ry="3" />
<ellipse fill="#9b9d9c" fill-opacity="0.666667" cx="169" cy="43" rx="5" ry="12" />
<ellipse fill="#6a6c6c" fill-opacity="0.733333" cx="105" cy="56" rx="2" ry="20" />
<ellipse fill="#ced1d2" fill-opacity="0.462745" cx="140" cy="0" rx="14" ry="6" />
<ellipse fill="#545d67" fill-opacity="0.705882" cx="226" cy="0" rx="25" ry="12" />
<ellipse fill="#909697" fill-opacity="0.349020" cx="111" cy="121" rx="22" ry="4" />
<ellipse fill="#22292c" fill-opacity="0.360784" cx="101" cy="118" rx="2" ry="27" />
<ellipse fill="#30322f" fill-opacity="0.552941" cx="200" cy="65" rx="2" ry="22" />
<ellipse fill="#83888c" fill-opacity="0.694118" cx="129" cy="57" rx="14" ry="5" />
<ellipse fill="#3d3f3c" fill-opacity="0.623529" cx="50" cy="73" rx="11" ry="7" />
<ellipse fill="#2d302c" fill-opacity="0.521569" cx="232" cy="58" rx="3" ry="21" />
<ellipse fill="#a0a19d" fill-opacity="0.517647" cx="147" cy="129" rx="20" ry="2" />
<ellipse fill="#414950" fill-opacity="0.501961" cx="177" cy="39" rx="4" ry="12" />
<ellipse fill="#5f6263" fill-opacity="0.705882" cx="52" cy="30" rx="9" ry="4" />
<ellipse fill="#404442" fill-opacity="0.411765" cx="93" cy="5" rx="26" ry="2" />
<ellipse fill="#797d7d" fill-opacity="0.513725" cx="35" cy="136" rx="18" ry="4" />
</g>
</svg>