<svg xmlns="http://www.w3.org/2000/svg" version="1.1" width="256" height="143">
<rect x="0" y="0" width="256" height="143" fill="#f0f0f0" />
<g transform="scale(1.000000) translate(0.5 0.5)">
<ellipse fill="#040600" fill-opacity="0.752941" cx="92" cy="74" rx="194" ry="142" />
<ellipse fill="#b2ada8" fill-opacity="0.552941" cx="97" cy="109" rx="24" ry="106" />
<ellipse fill="#050802" fill-opacity="0.631373" cx="50" cy="104" rx="26" ry="107" />
<ellipse fill="#c1bcb7" fill-opacity="0.466667" cx="226" cy="97" rx="13" ry="45" />
<ellipse fill="#070a05" fill-opacity="0.631373" cx="151" cy="19" rx="56" ry="26" />
<ellipse fill="#000200" fill-opacity="0.803922" cx="253" cy="25" rx="27" ry="54" />
<ellipse fill="#ccccc5" fill-opacity="0.266667" cx="154" cy="71" rx="18" ry="49" />
<ellipse fill="#ffffff" fill-opacity="0.447059" cx="79" cy="52" rx="4" ry="142" />
<ellipse fill="#120e06" fill-opacity="0.474510" cx="91" cy="89" rx="8" ry="49" />
<ellipse fill="#040601" fill-opacity="0.564706" cx="196" cy="86" rx="17" ry="53" />
<ellipse fill="#909690" fill-opacity="0.552941" cx="4" cy="98" rx="8" ry="41" />
<ellipse fill="#838988" fill-opacity="0.509804" cx="80" cy="19" rx="19" ry="27" />
<ellipse fill="#000000" fill-opacity="0.647059" cx="14" cy="22" rx="5" ry="97" />
<ellipse fill="#fafffc" fill-opacity="0.368627" cx="216" cy="61" rx="3" ry="54" />
<ellipse fill="#0b0d07" fill-opacity="0.760784" cx="129" cy="70" rx="6" ry="67" />
<ellipse fill="#ece8e2" fill-opacity="0.470588" cx="104" cy="52" rx="12" ry="12" />
<ellipse fill="#faeae7" fill-opacity="0.345098" cx="116" cy="130" rx="8" ry="38" />
<ellipse fill="#44443f" fill-opacity="0.921569" cx="222" cy="65" rx="4" ry="49" />
<ellipse fill="#fef5f1" fill-opacity="0.729412" cx="96" cy="142" rx="3" ry="21" />
<ellipse fill="#cdcec8" fill-opacity="0.329412" cx="23" cy="108" rx="4" ry="28" />
<ellipse fill="#959691" fill-opacity="0.501961" cx="162" cy="105" rx="19" ry="13" />
<ellipse fill="#ffffff" fill-opacity="0.635294" cx="80" cy="126" rx="4" ry="26" />
<ellipse fill="#a0a19e" fill-opacity="0.509804" cx="233" cy="124" rx="16" ry="13" />
<ellipse fill="#1b1d18" fill-opacity="0.945098" cx="255" cy="83" rx="16" ry="37" />
<ellipse fill="#120801" fill-opacity="0.564706" cx="104" cy="124" rx="2" ry="27" />
<ellipse fill="#92958f" fill-opacity="0.658824" cx="16" cy="127" rx="8" ry="9" />
<ellipse fill="#040700" fill-opacity="0.729412" cx="7" cy="7" rx="9" ry="22" />
<ellipse fill="#ffffff" fill-opacity="0.549020" cx="123" cy="142" rx="8" ry="6" />
<ellipse fill="#000200" fill-opacity="0.611765" cx="161" cy="0" rx="56" ry="16" />
<ellipse fill="#9da29e" fill-opacity="0.474510" cx="210" cy="42" rx="11" ry="9" />
<ellipse fill="#030200" fill-opacity="0.603922" cx="98" cy="79" rx="4" ry="14" />
<ellipse fill="#000000" fill-opacity="0.486275" cx="150" cy="123" rx="29" ry="5" />
<ellipse fill="#91948e" fill-opacity="0.254902" cx="138" cy="33" rx="8" ry="23" />
<ellipse fill="#272b25" fill-opacity="0.380392" cx="46" cy="0" rx="38" ry="34" />
<ellipse fill="#21211a" fill-opacity="0.588235" cx="223" cy="75" rx="7" ry="9" />
<ellipse fill="#424541" fill-opacity="0.607843" cx="213" cy="18" rx="18" ry="15" />
<ellipse fill="#2b2a23" fill-opacity="0.517647" cx="150" cy="69" rx="5" ry="27" />
<ellipse fill="#000000" fill-opacity="0.694118" cx="29" cy="52" rx="5" ry="25" />
<ellipse fill="#020400" fill-opacity="0.537255" cx="243" cy="35" rx="22" ry="22" />
<ellipse fill="#020400" fill-opacity="0.537255" cx="188" cy="38" rx="9" ry="39" />
<ellipse fill="#d8ccc9" fill-opacity="0.513725" cx="94" cy="98" rx="1" ry="34" />
<ellipse fill="#45423b" fill-opacity="0.556863" cx="232" cy="131" rx="3" ry="57" />
<ellipse fill="#4a4c46" fill-opacity="0.525490" cx="171" cy="72" rx="10" ry="45" />
<ellipse fill="#111614" fill-opacity="0.509804" cx="134" cy="125" rx="14" ry="15" />
<ellipse fill="#9a958f" fill-opacity="0.874510" cx="113" cy="74" rx="10" ry="10" />
<ellipse fill="#656a65" fill-opacity="0.505882" cx="33" cy="17" rx="17" ry="4" />
<ellipse fill="#171a15" fill-opacity="0.529412" cx="110" cy="27" rx="10" ry="14" />
<ellipse fill="#33332c" fill-opacity="0.650980" cx="93" cy="53" rx="3" ry="14" />
<ellipse fill="#1c1f19" fill-opacity="0.870588" cx="194" cy="118" rx="23" ry="9" />
<ellipse fill="#93938c" fill-opacity="0.403922" cx="146" cy="94" rx="13" ry="15" />
<ellipse fill="#fcfdfb" fill-opacity="0.486275" cx="224" cy="119" rx="6" ry="4" />
<ellipse fill="#14140f" fill-opacity="0.596078" cx="124" cy="54" rx="8" ry="16" />
<ellipse fill="#3b2f27" fill-opacity="0.368627" cx="107" cy="112" rx="3" ry="33" />
<ellipse fill="#2b2a24" fill-opacity="0.580392" cx="88" cy="76" rx="8" ry="10" />
<ellipse fill="#bdc0bd" fill-opacity="0.490196" cx="77" cy="64" rx="3" ry="34" />
<ellipse fill="#8d9290" fill-opacity="0.376471" cx="87" cy="3" rx="15" ry="35" />
<ellipse fill="#8f9995" fill-opacity="0.219608" cx="5" cy="69" rx="7" ry="39" />
<ellipse fill="#000000" fill-opacity="0.800000" cx="236" cy="1" rx="16" ry="9" />
<ellipse fill="#434847" fill-opacity="0.509804" cx="188" cy="142" rx="60" ry="13" />
<ellipse fill="#5d615e" fill-opacity="0.662745" cx="59" cy="35" rx="7" ry="4" />
<ellipse fill="#eceee9" fill-opacity="0.454902" cx="218" cy="110" rx="2" ry="18" />
<ellipse fill="#fffcf7" fill-opacity="0.411765" cx="228" cy="58" rx="4" ry="7" />
<ellipse fill="#000000" fill-opacity="0.521569" cx="126" cy="92" rx="7" ry="14" />
<ellipse fill="#72736c" fill-opacity="0.568627" cx="28" cy="110" rx="7" ry="5" />
<ellipse fill="#eeeae4" fill-opacity="0.439216" cx="227" cy="102" rx="2" ry="20" />
<ellipse fill="#000400" fill-opacity="0.325490" cx="48" cy="75" rx="21" ry="41" />
<ellipse fill="#3e3c34" fill-opacity="0.627451" cx="89" cy="142" rx="5" ry="100" />
<ellipse fill="#a8a29e" fill-opacity="0.615686" cx="236" cy="95" rx="3" ry="29" />
<ellipse fill="#070800" fill-opacity="0.501961" cx="18" cy="95" rx="3" ry="24" />
<ellipse fill="#ebe4e2" fill-opacity="0.423529" cx="100" cy="133" rx="2" ry="37" />
<ellipse fill="#f6ede7" fill-opacity="0.462745" cx="96" cy="58" rx="2" ry="10" />
<ellipse fill="#1c1f18" fill-opacity="0.352941" cx="64" cy="116" rx="13" ry="49" />
<ellipse fill="#050702" fill-opacity="0.733333" cx="134" cy="115" rx="9" ry="8" />
<ellipse fill="#282d2c" fill-opacity="0.650980" cx="248" cy="115" rx="7" ry="8" />
<ellipse fill="#24130e" fill-opacity="0.392157" cx="103" cy="128" rx="5" ry="6" />
<ellipse fill="#cccbc7" fill-opacity="0.498039" cx="104" cy="83" rx="2" ry="16" />
<ellipse fill="#c4c5c1" fill-opacity="0.611765" cx="131" cy="142" rx="6" ry="2" />
<ellipse fill="#c6cac7" fill-opacity="0.447059" cx="221" cy="47" rx="3" ry="5" />
<ellipse fill="#aaada8" fill-opacity="0.364706" cx="253" cy="126" rx="17" ry="5" />
<ellipse fill="#fffffc" fill-opacity="0.478431" cx="216" cy="97" rx="2" ry="18" />
<ellipse fill="#6b6e69" fill-opacity="0.584314" cx="24" cy="96" rx="4" ry="24" />
<ellipse fill="#010400" fill-opacity="0.431373" cx="35" cy="0" rx="27" ry="7" />
<ellipse fill="#3b322c" fill-opacity="0.407843" cx="114" cy="142" rx="2" ry="18" />
<ellipse fill="#9ca19c" fill-opacity="0.521569" cx="86" cy="31" rx="14" ry="10" />
<ellipse fill="#5a5d5a" fill-opacity="0.607843" cx="222" cy="16" rx="9" ry="9" />
<ellipse fill="#0c0e06" fill-opacity="0.486275" cx="26" cy="127" rx="2" ry="18" />
<ellipse fill="#353a39" fill-opacity="0.509804" cx="131" cy="130" rx="12" ry="8" />
<ellipse fill="#b0b3b1" fill-opacity="0.192157" cx="177" cy="72" rx="2" ry="44" />
<ellipse fill="#1f221d" fill-opacity="0.415686" cx="210" cy="99" rx="5" ry="33" />
<ellipse fill="#5e5e58" fill-opacity="1.000000" cx="225" cy="79" rx="1" ry="30" />
<ellipse fill="#000300" fill-opacity="0.533333" cx="126" cy="8" rx="25" ry="8" />
<ellipse fill="#3f423b" fill-opacity="0.494118" cx="140" cy="20" rx="16" ry="7" />
<ellipse fill="#020600" fill-opacity="0.552941" cx="1" cy="142" rx="21" ry="4" />
<ellipse fill="#cac5c4" fill-opacity="0.631373" cx="116" cy="92" rx="2" ry="14" />
<ellipse fill="#000000" fill-opacity="0.737255" cx="229" cy="39" rx="8" ry="12" />
<ellipse fill="#050801" fill-opacity="0.564706" cx="184" cy="11" rx="18" ry="20" />
<ellipse fill="#14130c" fill-opacity="0.545098" cx="164" cy="87" rx="3" ry="6" />
<ellipse fill="#494842" fill-opacity="0.713725" cx="41" cy="31" rx="11" ry="3" />
<ellipse fill="#000100" fill-opacity="0.466667" cx="54" cy="8" rx="5" ry="27" />
<ellipse fill="#9a9b96" fill-opacity="0.388235" cx="213" cy="136" rx="7" ry="3" />
</g>
</svg>