<svg xmlns="http://www.w3.org/2000/svg" version="1.1" width="256" height="143">
<rect x="0" y="0" width="256" height="143" fill="#f0f0f0" />
<g transform="scale(1.000000) translate(0.5 0.5)">
<ellipse fill="#171f00" fill-opacity="0.690196" cx="147" cy="131" rx="170" ry="132" />
<ellipse fill="#f6f7f6" fill-opacity="0.929412" cx="51" cy="14" rx="33" ry="30" />
<ellipse fill="#21281a" fill-opacity="0.580392" cx="29" cy="85" rx="147" ry="43" />
<ellipse fill="#b5bab6" fill-opacity="0.596078" cx="255" cy="75" rx="63" ry="25" />
<ellipse fill="#c7cbc7" fill-opacity="0.819608" cx="244" cy="2" rx="34" ry="29" />
<ellipse fill="#303732" fill-opacity="0.537255" cx="193" cy="31" rx="33" ry="35" />
<ellipse fill="#fffa97" fill-opacity="0.384314" cx="169" cy="128" rx="104" ry="8" />
<ellipse fill="#697266" fill-opacity="0.717647" cx="18" cy="48" rx="17" ry="15" />
<ellipse fill="#55624c" fill-opacity="0.792157" cx="255" cy="96" rx="30" ry="27" />
<ellipse fill="#ffffff" fill-opacity="0.549020" cx="231" cy="69" rx="10" ry="12" />
<ellipse fill="#616963" fill-opacity="0.588235" cx="140" cy="0" rx="57" ry="27" />
<ellipse fill="#212926" fill-opacity="0.505882" cx="114" cy="48" rx="35" ry="25" />
<ellipse fill="#eff0ed" fill-opacity="0.721569" cx="255" cy="56" rx="22" ry="6" />
<ellipse fill="#9ea552" fill-opacity="0.745098" cx="56" cy="132" rx="48" ry="5" />
<ellipse fill="#21281b" fill-opacity="0.705882" cx="0" cy="91" rx="150" ry="17" />
<ellipse fill="#f5f8f4" fill-opacity="0.262745" cx="49" cy="28" rx="31" ry="23" />
<ellipse fill="#ebdbff" fill-opacity="0.211765" cx="157" cy="65" rx="7" ry="32" />
<ellipse fill="#edebf1" fill-opacity="0.482353" cx="86" cy="6" rx="20" ry="7" />
<ellipse fill="#f4f6f4" fill-opacity="0.686275" cx="243" cy="18" rx="17" ry="11" />
<ellipse fill="#7b852f" fill-opacity="0.321569" cx="101" cy="139" rx="53" ry="30" />
<ellipse fill="#4b5353" fill-opacity="0.337255" cx="98" cy="29" rx="25" ry="19" />
<ellipse fill="#091608" fill-opacity="0.458824" cx="255" cy="99" rx="7" ry="24" />
<ellipse fill="#fffcff" fill-opacity="0.615686" cx="196" cy="69" rx="3" ry="9" />
<ellipse fill="#555b00" fill-opacity="0.521569" cx="205" cy="138" rx="125" ry="4" />
<ellipse fill="#d4cacb" fill-opacity="0.447059" cx="223" cy="128" rx="31" ry="4" />
<ellipse fill="#182017" fill-opacity="0.501961" cx="237" cy="0" rx="6" ry="7" />
<ellipse fill="#272a1c" fill-opacity="0.525490" cx="224" cy="48" rx="7" ry="14" />
<ellipse fill="#9bab7f" fill-opacity="0.313725" cx="222" cy="94" rx="26" ry="17" />
<ellipse fill="#363e00" fill-opacity="0.576471" cx="8" cy="139" rx="27" ry="6" />
<ellipse fill="#d6d7d4" fill-opacity="0.576471" cx="235" cy="55" rx="7" ry="9" />
<ellipse fill="#4e5a48" fill-opacity="0.356863" cx="64" cy="62" rx="23" ry="23" />
<ellipse fill="#393c28" fill-opacity="0.682353" cx="139" cy="102" rx="34" ry="17" />
<ellipse fill="#cfd314" fill-opacity="0.654902" cx="156" cy="135" rx="62" ry="1" />
<ellipse fill="#545351" fill-opacity="0.509804" cx="165" cy="74" rx="30" ry="18" />
<ellipse fill="#555e4e" fill-opacity="0.698039" cx="154" cy="0" rx="47" ry="25" />
<ellipse fill="#202323" fill-opacity="0.278431" cx="214" cy="40" rx="56" ry="9" />
<ellipse fill="#f7f2fc" fill-opacity="0.470588" cx="174" cy="67" rx="4" ry="4" />
<ellipse fill="#59694d" fill-opacity="0.450980" cx="59" cy="111" rx="25" ry="9" />
<ellipse fill="#afadb1" fill-opacity="0.588235" cx="84" cy="24" rx="5" ry="6" />
<ellipse fill="#908f65" fill-opacity="0.611765" cx="145" cy="121" rx="58" ry="3" />
<ellipse fill="#e5e7e4" fill-opacity="0.623529" cx="246" cy="21" rx="29" ry="4" />
<ellipse fill="#2c2d27" fill-opacity="0.333333" cx="186" cy="83" rx="18" ry="8" />
<ellipse fill="#909389" fill-opacity="0.725490" cx="160" cy="0" rx="10" ry="6" />
<ellipse fill="#ffffff" fill-opacity="0.392157" cx="48" cy="29" rx="9" ry="19" />
<ellipse fill="#e4dbf5" fill-opacity="0.301961" cx="159" cy="49" rx="5" ry="9" />
<ellipse fill="#424d3c" fill-opacity="0.721569" cx="0" cy="59" rx="90" ry="6" />
<ellipse fill="#e0e3dc" fill-opacity="0.635294" cx="233" cy="126" rx="22" ry="2" />
<ellipse fill="#868b74" fill-opacity="0.545098" cx="2" cy="114" rx="13" ry="4" />
<ellipse fill="#f3f6f4" fill-opacity="0.701961" cx="35" cy="12" rx="19" ry="29" />
<ellipse fill="#e5e1ea" fill-opacity="0.462745" cx="207" cy="76" rx="5" ry="8" />
<ellipse fill="#c0be7b" fill-opacity="0.431373" cx="32" cy="132" rx="31" ry="3" />
<ellipse fill="#161a16" fill-opacity="0.619608" cx="255" cy="48" rx="6" ry="5" />
<ellipse fill="#b6b5b6" fill-opacity="0.376471" cx="143" cy="69" rx="4" ry="7" />
<ellipse fill="#030000" fill-opacity="0.372549" cx="211" cy="67" rx="5" ry="4" />
<ellipse fill="#dde4e0" fill-opacity="0.505882" cx="0" cy="22" rx="8" ry="28" />
<ellipse fill="#ffffff" fill-opacity="0.552941" cx="228" cy="67" rx="9" ry="5" />
<ellipse fill="#151915" fill-opacity="0.556863" cx="167" cy="58" rx="5" ry="7" />
<ellipse fill="#ffffff" fill-opacity="0.341176" cx="193" cy="65" rx="7" ry="3" />
<ellipse fill="#3a4a2a" fill-opacity="0.482353" cx="198" cy="109" rx="14" ry="12" />
<ellipse fill="#271c16" fill-opacity="0.360784" cx="246" cy="130" rx="14" ry="2" />
<ellipse fill="#5f661e" fill-opacity="0.698039" cx="14" cy="126" rx="30" ry="3" />
<ellipse fill="#505845" fill-opacity="0.478431" cx="205" cy="15" rx="23" ry="6" />
<ellipse fill="#2d3700" fill-opacity="0.600000" cx="218" cy="137" rx="42" ry="2" />
<ellipse fill="#67725c" fill-opacity="0.349020" cx="251" cy="75" rx="18" ry="15" />
<ellipse fill="#282d1c" fill-opacity="0.392157" cx="246" cy="32" rx="3" ry="8" />
<ellipse fill="#b6b4b9" fill-opacity="0.568627" cx="141" cy="25" rx="4" ry="4" />
<ellipse fill="#a1b3ac" fill-opacity="0.356863" cx="36" cy="115" rx="10" ry="3" />
<ellipse fill="#d4d4d1" fill-opacity="0.521569" cx="229" cy="62" rx="22" ry="3" />
<ellipse fill="#3d4036" fill-opacity="0.784314" cx="202" cy="64" rx="3" ry="6" />
<ellipse fill="#6d7362" fill-opacity="0.596078" cx="158" cy="84" rx="9" ry="13" />
<ellipse fill="#393c2c" fill-opacity="0.435294" cx="219" cy="56" rx="17" ry="4" />
<ellipse fill="#f0f4f1" fill-opacity="0.670588" cx="247" cy="9" rx="7" ry="11" />
<ellipse fill="#afa781" fill-opacity="0.584314" cx="75" cy="142" rx="10" ry="4" />
<ellipse fill="#d9d13c" fill-opacity="0.423529" cx="231" cy="133" rx="26" ry="2" />
<ellipse fill="#8e9086" fill-opacity="0.415686" cx="213" cy="25" rx="18" ry="3" />
<ellipse fill="#3e4537" fill-opacity="0.498039" cx="233" cy="89" rx="9" ry="6" />
<ellipse fill="#77885d" fill-opacity="0.517647" cx="227" cy="108" rx="13" ry="15" />
<ellipse fill="#0e170f" fill-opacity="0.349020" cx="16" cy="96" rx="33" ry="15" />
<ellipse fill="#282a1f" fill-opacity="0.403922" cx="122" cy="84" rx="40" ry="9" />
<ellipse fill="#696d65" fill-opacity="0.360784" cx="13" cy="47" rx="8" ry="16" />
<ellipse fill="#242b22" fill-opacity="0.380392" cx="181" cy="37" rx="7" ry="29" />
<ellipse fill="#f9eefa" fill-opacity="0.501961" cx="172" cy="51" rx="2" ry="3" />
<ellipse fill="#70746f" fill-opacity="0.486275" cx="227" cy="2" rx="4" ry="6" />
<ellipse fill="#9fa1a0" fill-opacity="0.552941" cx="253" cy="41" rx="10" ry="2" />
<ellipse fill="#8c8a56" fill-opacity="0.572549" cx="154" cy="142" rx="59" ry="2" />
<ellipse fill="#4d5946" fill-opacity="0.376471" cx="28" cy="50" rx="18" ry="11" />
<ellipse fill="#cdd5d4" fill-opacity="0.501961" cx="218" cy="88" rx="7" ry="5" />
<ellipse fill="#c3c71b" fill-opacity="0.345098" cx="133" cy="135" rx="59" ry="2" />
<ellipse fill="#616855" fill-opacity="0.388235" cx="71" cy="43" rx="4" ry="10" />
<ellipse fill="#464f4d" fill-opacity="0.439216" cx="90" cy="17" rx="9" ry="8" />
<ellipse fill="#fbfdfc" fill-opacity="0.560784" cx="55" cy="13" rx="28" ry="14" />
<ellipse fill="#b5b4b8" fill-opacity="0.443137" cx="233" cy="31" rx="6" ry="4" />
<ellipse fill="#ffffff" fill-opacity="0.466667" cx="239" cy="53" rx="5" ry="4" />
<ellipse fill="#a19da2" fill-opacity="0.529412" cx="115" cy="19" rx="4" ry="5" />
<ellipse fill="#3c4539" fill-opacity="0.537255" cx="102" cy="36" rx="17" ry="20" />
<ellipse fill="#6f7758" fill-opacity="0.623529" cx="201" cy="8" rx="15" ry="4" />
<ellipse fill="#3c430d" fill-opacity="0.435294" cx="40" cy="122" rx="52" ry="5" />
<ellipse fill="#b4baa9" fill-opacity="0.501961" cx="161" cy="90" rx="3" ry="4" />
<ellipse fill="#c3cdc5" fill-opacity="0.505882" cx="154" cy="77" rx="3" ry="4" />
<ellipse fill="#3f4439" fill-opacity="0.894118" cx="201" cy="59" rx="1" ry="32" />
</g>
</svg>