<svg xmlns="http://www.w3.org/2000/svg" version="1.1" width="256" height="143">
<rect x="0" y="0" width="256" height="143" fill="#f0f0f0" />
<g transform="scale(1.000000) translate(0.5 0.5)">
<ellipse fill="#070700" fill-opacity="0.580392" cx="82" cy="67" rx="231" ry="118" />
<ellipse fill="#000200" fill-opacity="0.560784" cx="158" cy="20" rx="85" ry="25" />
<ellipse fill="#bdbcb7" fill-opacity="0.411765" cx="118" cy="95" rx="164" ry="33" />
<ellipse fill="#262520" fill-opacity="0.913725" cx="215" cy="36" rx="31" ry="27" />
<ellipse fill="#000000" fill-opacity="0.670588" cx="0" cy="137" rx="20" ry="28" />
<ellipse fill="#1e1f1d" fill-opacity="1.000000" cx="75" cy="0" rx="37" ry="13" />
<ellipse fill="#171105" fill-opacity="0.600000" cx="231" cy="141" rx="89" ry="10" />
<ellipse fill="#a9aba9" fill-opacity="0.592157" cx="78" cy="41" rx="10" ry="25" />
<ellipse fill="#767671" fill-opacity="0.725490" cx="155" cy="55" rx="35" ry="20" />
<ellipse fill="#ffffff" fill-opacity="0.309804" cx="248" cy="0" rx="36" ry="15" />
<ellipse fill="#c3c5c1" fill-opacity="0.431373" cx="206" cy="111" rx="21" ry="24" />
<ellipse fill="#a0a3a2" fill-opacity="0.854902" cx="48" cy="64" rx="9" ry="23" />
<ellipse fill="#d5d7d4" fill-opacity="0.403922" cx="133" cy="90" rx="7" ry="56" />
<ellipse fill="#6b6963" fill-opacity="0.956863" cx="103" cy="136" rx="18" ry="34" />
<ellipse fill="#6c695e" fill-opacity="0.611765" cx="208" cy="73" rx="52" ry="12" />
<ellipse fill="#0f1212" fill-opacity="0.686275" cx="121" cy="21" rx="33" ry="17" />
<ellipse fill="#352b1c" fill-opacity="0.635294" cx="166" cy="134" rx="23" ry="9" />
<ellipse fill="#1e190a" fill-opacity="0.596078" cx="24" cy="139" rx="19" ry="9" />
<ellipse fill="#1d231f" fill-opacity="0.450980" cx="3" cy="25" rx="31" ry="10" />
<ellipse fill="#a8a7a4" fill-opacity="0.494118" cx="68" cy="132" rx="21" ry="9" />
<ellipse fill="#000704" fill-opacity="0.380392" cx="245" cy="131" rx="13" ry="12" />
<ellipse fill="#34332e" fill-opacity="0.419608" cx="90" cy="53" rx="5" ry="35" />
<ellipse fill="#959997" fill-opacity="0.521569" cx="38" cy="104" rx="30" ry="27" />
<ellipse fill="#2a2922" fill-opacity="0.854902" cx="244" cy="24" rx="5" ry="11" />
<ellipse fill="#c5c4c0" fill-opacity="0.431373" cx="178" cy="102" rx="6" ry="26" />
<ellipse fill="#929694" fill-opacity="0.698039" cx="22" cy="69" rx="23" ry="10" />
<ellipse fill="#202321" fill-opacity="0.647059" cx="150" cy="13" rx="17" ry="30" />
<ellipse fill="#484840" fill-opacity="0.494118" cx="48" cy="37" rx="30" ry="7" />
<ellipse fill="#555246" fill-opacity="0.509804" cx="178" cy="28" rx="25" ry="10" />
<ellipse fill="#635e53" fill-opacity="0.596078" cx="190" cy="87" rx="6" ry="20" />
<ellipse fill="#3e392e" fill-opacity="0.529412" cx="153" cy="65" rx="14" ry="6" />
<ellipse fill="#b5babc" fill-opacity="0.498039" cx="81" cy="28" rx="7" ry="10" />
<ellipse fill="#172124" fill-opacity="0.396078" cx="15" cy="0" rx="28" ry="8" />
<ellipse fill="#9a9a96" fill-opacity="0.580392" cx="131" cy="132" rx="13" ry="38" />
<ellipse fill="#9fa9a4" fill-opacity="0.188235" cx="255" cy="53" rx="27" ry="25" />
<ellipse fill="#4d473a" fill-opacity="0.329412" cx="116" cy="70" rx="9" ry="23" />
<ellipse fill="#c0c3bd" fill-opacity="0.494118" cx="240" cy="92" rx="16" ry="6" />
<ellipse fill="#5e6463" fill-opacity="0.623529" cx="225" cy="127" rx="11" ry="11" />
<ellipse fill="#161816" fill-opacity="0.760784" cx="80" cy="5" rx="18" ry="13" />
<ellipse fill="#5b5c58" fill-opacity="0.686275" cx="60" cy="70" rx="7" ry="8" />
<ellipse fill="#abaaa7" fill-opacity="0.498039" cx="148" cy="113" rx="39" ry="8" />
<ellipse fill="#a5a7a4" fill-opacity="0.611765" cx="76" cy="75" rx="8" ry="26" />
<ellipse fill="#ebefed" fill-opacity="0.447059" cx="154" cy="78" rx="5" ry="7" />
<ellipse fill="#0f1213" fill-opacity="0.600000" cx="209" cy="50" rx="22" ry="9" />
<ellipse fill="#d9dedf" fill-opacity="0.462745" cx="52" cy="49" rx="6" ry="8" />
<ellipse fill="#444e4c" fill-opacity="0.290196" cx="0" cy="92" rx="17" ry="18" />
<ellipse fill="#272620" fill-opacity="0.333333" cx="226" cy="43" rx="22" ry="24" />
<ellipse fill="#d5dad9" fill-opacity="0.301961" cx="200" cy="121" rx="18" ry="8" />
<ellipse fill="#494c48" fill-opacity="0.545098" cx="144" cy="81" rx="3" ry="19" />
<ellipse fill="#868277" fill-opacity="0.560784" cx="217" cy="89" rx="6" ry="25" />
<ellipse fill="#464236" fill-opacity="0.431373" cx="177" cy="74" rx="14" ry="6" />
<ellipse fill="#353f42" fill-opacity="0.450980" cx="238" cy="104" rx="9" ry="5" />
<ellipse fill="#494945" fill-opacity="0.490196" cx="129" cy="137" rx="4" ry="13" />
<ellipse fill="#979b97" fill-opacity="0.600000" cx="255" cy="38" rx="4" ry="37" />
<ellipse fill="#dedbd3" fill-opacity="0.454902" cx="130" cy="70" rx="2" ry="35" />
<ellipse fill="#070b00" fill-opacity="0.462745" cx="0" cy="129" rx="11" ry="23" />
<ellipse fill="#57544d" fill-opacity="0.521569" cx="163" cy="92" rx="4" ry="14" />
<ellipse fill="#cccdc9" fill-opacity="0.647059" cx="208" cy="107" rx="4" ry="17" />
<ellipse fill="#757054" fill-opacity="0.254902" cx="107" cy="0" rx="15" ry="11" />
<ellipse fill="#757d7e" fill-opacity="0.549020" cx="36" cy="54" rx="8" ry="19" />
<ellipse fill="#afaca8" fill-opacity="0.435294" cx="98" cy="96" rx="21" ry="8" />
<ellipse fill="#2e312d" fill-opacity="0.627451" cx="0" cy="19" rx="12" ry="8" />
<ellipse fill="#c4eef8" fill-opacity="0.105882" cx="4" cy="40" rx="15" ry="19" />
<ellipse fill="#0f1314" fill-opacity="0.509804" cx="120" cy="27" rx="10" ry="19" />
<ellipse fill="#5c5a51" fill-opacity="0.545098" cx="66" cy="45" rx="9" ry="14" />
<ellipse fill="#7e807d" fill-opacity="0.545098" cx="169" cy="51" rx="18" ry="13" />
<ellipse fill="#e4e9e8" fill-opacity="0.482353" cx="207" cy="74" rx="5" ry="2" />
<ellipse fill="#0d1111" fill-opacity="0.921569" cx="44" cy="0" rx="15" ry="4" />
<ellipse fill="#0a0c01" fill-opacity="0.498039" cx="17" cy="57" rx="5" ry="3" />
<ellipse fill="#abb1b4" fill-opacity="0.431373" cx="57" cy="25" rx="9" ry="4" />
<ellipse fill="#44443d" fill-opacity="0.580392" cx="39" cy="30" rx="17" ry="5" />
<ellipse fill="#d6d6d2" fill-opacity="0.501961" cx="202" cy="91" rx="8" ry="6" />
<ellipse fill="#4c463a" fill-opacity="0.725490" cx="122" cy="54" rx="8" ry="4" />
<ellipse fill="#9d9d9b" fill-opacity="0.525490" cx="103" cy="142" rx="3" ry="28" />
<ellipse fill="#f7fdff" fill-opacity="0.349020" cx="114" cy="45" rx="6" ry="2" />
<ellipse fill="#5d594c" fill-opacity="0.400000" cx="231" cy="50" rx="11" ry="9" />
<ellipse fill="#4a4742" fill-opacity="0.290196" cx="100" cy="123" rx="31" ry="4" />
<ellipse fill="#bcbcb5" fill-opacity="0.474510" cx="239" cy="7" rx="6" ry="9" />
<ellipse fill="#4f4b45" fill-opacity="0.658824" cx="87" cy="73" rx="3" ry="14" />
<ellipse fill="#48402f" fill-opacity="0.403922" cx="99" cy="50" rx="13" ry="7" />
<ellipse fill="#575648" fill-opacity="0.650980" cx="17" cy="128" rx="5" ry="5" />
<ellipse fill="#d8d5ca" fill-opacity="0.364706" cx="224" cy="101" rx="6" ry="9" />
<ellipse fill="#7d7c77" fill-opacity="0.439216" cx="162" cy="122" rx="27" ry="6" />
<ellipse fill="#0f110b" fill-opacity="0.619608" cx="255" cy="136" rx="10" ry="12" />
<ellipse fill="#605b50" fill-opacity="0.556863" cx="189" cy="102" rx="7" ry="5" />
<ellipse fill="#191813" fill-opacity="0.376471" cx="233" cy="25" rx="24" ry="6" />
<ellipse fill="#686e6f" fill-opacity="0.588235" cx="36" cy="13" rx="22" ry="7" />
<ellipse fill="#272824" fill-opacity="0.090196" cx="76" cy="110" rx="35" ry="10" />
<ellipse fill="#2b2820" fill-opacity="0.470588" cx="210" cy="24" rx="26" ry="19" />
<ellipse fill="#a0a3a3" fill-opacity="0.666667" cx="82" cy="39" rx="5" ry="20" />
<ellipse fill="#929491" fill-opacity="0.745098" cx="197" cy="69" rx="9" ry="4" />
<ellipse fill="#f6f7f4" fill-opacity="0.423529" cx="156" cy="97" rx="3" ry="4" />
<ellipse fill="#aaadac" fill-opacity="0.470588" cx="52" cy="84" rx="16" ry="7" />
<ellipse fill="#757673" fill-opacity="0.572549" cx="67" cy="23" rx="11" ry="9" />
<ellipse fill="#cecdd0" fill-opacity="0.466667" cx="102" cy="42" rx="5" ry="2" />
<ellipse fill="#a6a9a8" fill-opacity="0.470588" cx="181" cy="64" rx="9" ry="4" />
<ellipse fill="#acaba8" fill-opacity="0.541176" cx="135" cy="105" rx="13" ry="9" />
<ellipse fill="#9a9b98" fill-opacity="0.556863" cx="29" cy="108" rx="12" ry="22" />
<ellipse fill="#949695" fill-opacity="0.662745" cx="211" cy="130" rx="7" ry="5" />
<ellipse fill="#241f11" fill-opacity="0.407843" cx="27" cy="142" rx="36" ry="3" />
</g>
</svg>