<svg xmlns="http://www.w3.org/2000/svg" version="1.1" width="256" height="143">
<rect x="0" y="0" width="256" height="143" fill="#f0f0f0" />
<g transform="scale(1.000000) translate(0.5 0.5)">
<ellipse fill="#2d2f28" fill-opacity="0.850980" cx="69" cy="129" rx="188" ry="128" />
<ellipse fill="#dadbd3" fill-opacity="1.000000" cx="237" cy="60" rx="25" ry="26" />
<ellipse fill="#bbc4ca" fill-opacity="0.886275" cx="122" cy="0" rx="63" ry="17" />
<ellipse fill="#3c413e" fill-opacity="0.972549" cx="7" cy="1" rx="47" ry="26" />
<ellipse fill="#a9afac" fill-opacity="0.984314" cx="255" cy="0" rx="43" ry="44" />
<ellipse fill="#343734" fill-opacity="0.878431" cx="249" cy="107" rx="23" ry="27" />
<ellipse fill="#000401" fill-opacity="0.560784" cx="121" cy="91" rx="28" ry="20" />
<ellipse fill="#484d4f" fill-opacity="0.874510" cx="150" cy="33" rx="13" ry="30" />
<ellipse fill="#d2d9d6" fill-opacity="0.639216" cx="216" cy="20" rx="22" ry="31" />
<ellipse fill="#fdffff" fill-opacity="0.600000" cx="133" cy="0" rx="11" ry="22" />
<ellipse fill="#070500" fill-opacity="0.501961" cx="26" cy="136" rx="32" ry="11" />
<ellipse fill="#0f1519" fill-opacity="0.509804" cx="198" cy="91" rx="24" ry="17" />
<ellipse fill="#404646" fill-opacity="0.886275" cx="77" cy="28" rx="14" ry="23" />
<ellipse fill="#eaf5f7" fill-opacity="0.725490" cx="103" cy="4" rx="4" ry="24" />
<ellipse fill="#383f42" fill-opacity="0.690196" cx="114" cy="42" rx="11" ry="33" />
<ellipse fill="#272820" fill-opacity="0.545098" cx="238" cy="142" rx="105" ry="19" />
<ellipse fill="#788992" fill-opacity="0.376471" cx="219" cy="2" rx="40" ry="9" />
<ellipse fill="#756f60" fill-opacity="0.568627" cx="27" cy="95" rx="24" ry="17" />
<ellipse fill="#232524" fill-opacity="0.584314" cx="160" cy="70" rx="31" ry="10" />
<ellipse fill="#8d897b" fill-opacity="0.313725" cx="34" cy="30" rx="18" ry="19" />
<ellipse fill="#000700" fill-opacity="0.388235" cx="0" cy="49" rx="7" ry="45" />
<ellipse fill="#747269" fill-opacity="0.486275" cx="82" cy="59" rx="13" ry="23" />
<ellipse fill="#ebf7f7" fill-opacity="0.513725" cx="119" cy="3" rx="31" ry="8" />
<ellipse fill="#454a4d" fill-opacity="0.658824" cx="152" cy="23" rx="7" ry="24" />
<ellipse fill="#0e0e00" fill-opacity="0.105882" cx="255" cy="8" rx="11" ry="75" />
<ellipse fill="#c9d6df" fill-opacity="0.709804" cx="178" cy="9" rx="20" ry="14" />
<ellipse fill="#fffffc" fill-opacity="0.513725" cx="229" cy="64" rx="14" ry="18" />
<ellipse fill="#faf8f2" fill-opacity="0.333333" cx="214" cy="30" rx="14" ry="23" />
<ellipse fill="#444a4d" fill-opacity="0.611765" cx="119" cy="31" rx="15" ry="18" />
<ellipse fill="#f2f6f0" fill-opacity="0.541176" cx="196" cy="25" rx="12" ry="9" />
<ellipse fill="#4a4e52" fill-opacity="0.560784" cx="196" cy="58" rx="18" ry="15" />
<ellipse fill="#d2d7df" fill-opacity="0.470588" cx="5" cy="0" rx="9" ry="3" />
<ellipse fill="#4a4d4f" fill-opacity="0.525490" cx="154" cy="31" rx="19" ry="17" />
<ellipse fill="#38352a" fill-opacity="0.447059" cx="140" cy="134" rx="48" ry="17" />
<ellipse fill="#1e1f18" fill-opacity="0.541176" cx="90" cy="80" rx="6" ry="12" />
<ellipse fill="#736a59" fill-opacity="0.462745" cx="165" cy="85" rx="10" ry="15" />
<ellipse fill="#dae4e9" fill-opacity="0.627451" cx="98" cy="2" rx="19" ry="11" />
<ellipse fill="#2f3a40" fill-opacity="0.478431" cx="74" cy="21" rx="27" ry="12" />
<ellipse fill="#3d4245" fill-opacity="0.501961" cx="210" cy="84" rx="11" ry="15" />
<ellipse fill="#121f20" fill-opacity="0.541176" cx="8" cy="14" rx="10" ry="11" />
<ellipse fill="#2a2b25" fill-opacity="0.600000" cx="54" cy="127" rx="4" ry="44" />
<ellipse fill="#675b44" fill-opacity="0.333333" cx="80" cy="108" rx="24" ry="27" />
<ellipse fill="#2d332e" fill-opacity="0.517647" cx="63" cy="54" rx="8" ry="31" />
<ellipse fill="#110e03" fill-opacity="0.568627" cx="75" cy="142" rx="10" ry="5" />
<ellipse fill="#e7e5d3" fill-opacity="0.490196" cx="243" cy="66" rx="11" ry="17" />
<ellipse fill="#191b1a" fill-opacity="0.435294" cx="204" cy="99" rx="12" ry="14" />
<ellipse fill="#514d3c" fill-opacity="0.725490" cx="13" cy="117" rx="17" ry="13" />
<ellipse fill="#0a0e09" fill-opacity="0.513725" cx="240" cy="133" rx="18" ry="4" />
<ellipse fill="#4b4235" fill-opacity="0.572549" cx="29" cy="66" rx="9" ry="25" />
<ellipse fill="#404342" fill-opacity="0.701961" cx="244" cy="95" rx="21" ry="12" />
<ellipse fill="#40413c" fill-opacity="0.772549" cx="204" cy="124" rx="48" ry="7" />
<ellipse fill="#6c6a60" fill-opacity="0.494118" cx="76" cy="79" rx="9" ry="15" />
<ellipse fill="#4a4f4d" fill-opacity="0.584314" cx="76" cy="24" rx="4" ry="23" />
<ellipse fill="#191b12" fill-opacity="1.000000" cx="0" cy="142" rx="15" ry="15" />
<ellipse fill="#d8e2e4" fill-opacity="0.592157" cx="101" cy="5" rx="10" ry="13" />
<ellipse fill="#70706a" fill-opacity="0.521569" cx="44" cy="42" rx="13" ry="8" />
<ellipse fill="#eef1ec" fill-opacity="0.654902" cx="210" cy="33" rx="11" ry="13" />
<ellipse fill="#c8ccc9" fill-opacity="0.490196" cx="223" cy="23" rx="9" ry="20" />
<ellipse fill="#2d2c23" fill-opacity="1.000000" cx="46" cy="137" rx="11" ry="15" />
<ellipse fill="#444a4d" fill-opacity="0.709804" cx="114" cy="27" rx="5" ry="19" />
<ellipse fill="#edfaf9" fill-opacity="0.631373" cx="134" cy="15" rx="5" ry="5" />
<ellipse fill="#575349" fill-opacity="0.729412" cx="154" cy="104" rx="18" ry="5" />
<ellipse fill="#242724" fill-opacity="0.494118" cx="137" cy="77" rx="27" ry="9" />
<ellipse fill="#f1f4f1" fill-opacity="0.545098" cx="215" cy="43" rx="5" ry="12" />
<ellipse fill="#222626" fill-opacity="0.521569" cx="205" cy="98" rx="30" ry="6" />
<ellipse fill="#252d31" fill-opacity="0.486275" cx="118" cy="49" rx="17" ry="7" />
<ellipse fill="#ffffff" fill-opacity="0.341176" cx="67" cy="4" rx="7" ry="3" />
<ellipse fill="#f1f4f0" fill-opacity="0.721569" cx="197" cy="29" rx="3" ry="8" />
<ellipse fill="#5f594c" fill-opacity="0.698039" cx="19" cy="71" rx="6" ry="20" />
<ellipse fill="#696961" fill-opacity="0.513725" cx="86" cy="55" rx="15" ry="15" />
<ellipse fill="#e7f2f0" fill-opacity="0.580392" cx="130" cy="1" rx="18" ry="13" />
<ellipse fill="#595851" fill-opacity="0.439216" cx="200" cy="134" rx="14" ry="6" />
<ellipse fill="#706b60" fill-opacity="0.470588" cx="37" cy="105" rx="10" ry="18" />
<ellipse fill="#665f51" fill-opacity="0.498039" cx="180" cy="110" rx="13" ry="7" />
<ellipse fill="#505251" fill-opacity="0.647059" cx="192" cy="57" rx="23" ry="5" />
<ellipse fill="#4f524d" fill-opacity="0.541176" cx="101" cy="73" rx="10" ry="6" />
<ellipse fill="#313633" fill-opacity="0.513725" cx="253" cy="102" rx="7" ry="23" />
<ellipse fill="#505356" fill-opacity="0.388235" cx="167" cy="36" rx="19" ry="15" />
<ellipse fill="#5e5c51" fill-opacity="0.858824" cx="28" cy="13" rx="11" ry="4" />
<ellipse fill="#8c929f" fill-opacity="0.592157" cx="143" cy="17" rx="4" ry="2" />
<ellipse fill="#091213" fill-opacity="0.505882" cx="126" cy="97" rx="13" ry="13" />
<ellipse fill="#7899b4" fill-opacity="0.282353" cx="199" cy="0" rx="14" ry="7" />
<ellipse fill="#4b4e4d" fill-opacity="0.662745" cx="131" cy="34" rx="7" ry="15" />
<ellipse fill="#414545" fill-opacity="0.407843" cx="202" cy="76" rx="14" ry="14" />
<ellipse fill="#757567" fill-opacity="0.435294" cx="12" cy="87" rx="7" ry="14" />
<ellipse fill="#71716b" fill-opacity="0.556863" cx="30" cy="31" rx="9" ry="10" />
<ellipse fill="#828986" fill-opacity="0.572549" cx="255" cy="12" rx="7" ry="24" />
<ellipse fill="#cad3d5" fill-opacity="0.839216" cx="101" cy="7" rx="1" ry="21" />
<ellipse fill="#161a12" fill-opacity="0.533333" cx="0" cy="49" rx="15" ry="4" />
<ellipse fill="#e5eaf4" fill-opacity="0.482353" cx="166" cy="0" rx="10" ry="11" />
<ellipse fill="#444748" fill-opacity="0.666667" cx="141" cy="33" rx="3" ry="20" />
<ellipse fill="#43443c" fill-opacity="0.819608" cx="60" cy="98" rx="6" ry="22" />
<ellipse fill="#a6ada9" fill-opacity="0.396078" cx="240" cy="25" rx="9" ry="21" />
<ellipse fill="#283133" fill-opacity="0.384314" cx="103" cy="49" rx="4" ry="23" />
<ellipse fill="#4c504f" fill-opacity="0.486275" cx="255" cy="92" rx="27" ry="11" />
<ellipse fill="#e7ede9" fill-opacity="0.517647" cx="192" cy="23" rx="7" ry="11" />
<ellipse fill="#2d393d" fill-opacity="0.227451" cx="45" cy="10" rx="16" ry="20" />
<ellipse fill="#3f413f" fill-opacity="0.474510" cx="219" cy="91" rx="7" ry="13" />
<ellipse fill="#4a4b4f" fill-opacity="0.627451" cx="206" cy="48" rx="4" ry="3" />
<ellipse fill="#736e60" fill-opacity="0.435294" cx="160" cy="92" rx="13" ry="6" />
</g>
</svg>