<svg xmlns="http://www.w3.org/2000/svg" version="1.1" width="256" height="143">
<rect x="0" y="0" width="256" height="143" fill="#f0f0f0" />
<g transform="scale(1.000000) translate(0.5 0.5)">
<ellipse fill="#030702" fill-opacity="0.607843" cx="130" cy="67" rx="185" ry="112" />
<ellipse fill="#c8c7c2" fill-opacity="0.541176" cx="184" cy="70" rx="62" ry="53" />
<ellipse fill="#000503" fill-opacity="0.635294" cx="13" cy="104" rx="85" ry="77" />
<ellipse fill="#000000" fill-opacity="0.631373" cx="0" cy="17" rx="26" ry="142" />
<ellipse fill="#fbfcff" fill-opacity="0.180392" cx="88" cy="30" rx="32" ry="37" />
<ellipse fill="#d1d2d2" fill-opacity="0.490196" cx="127" cy="142" rx="15" ry="38" />
<ellipse fill="#9ba3ab" fill-opacity="0.505882" cx="57" cy="119" rx="7" ry="33" />
<ellipse fill="#757471" fill-opacity="0.694118" cx="184" cy="113" rx="36" ry="33" />
<ellipse fill="#bec7d4" fill-opacity="0.458824" cx="81" cy="122" rx="5" ry="25" />
<ellipse fill="#000708" fill-opacity="0.525490" cx="110" cy="102" rx="16" ry="15" />
<ellipse fill="#c3c2bf" fill-opacity="0.505882" cx="172" cy="54" rx="35" ry="28" />
<ellipse fill="#1e2118" fill-opacity="0.509804" cx="243" cy="2" rx="43" ry="22" />
<ellipse fill="#22251f" fill-opacity="0.486275" cx="136" cy="6" rx="31" ry="15" />
<ellipse fill="#171b16" fill-opacity="0.407843" cx="250" cy="76" rx="14" ry="22" />
<ellipse fill="#c7c2b1" fill-opacity="0.494118" cx="198" cy="29" rx="39" ry="11" />
<ellipse fill="#030908" fill-opacity="0.733333" cx="108" cy="133" rx="4" ry="25" />
<ellipse fill="#cccdcd" fill-opacity="0.278431" cx="176" cy="118" rx="14" ry="28" />
<ellipse fill="#bbbdbd" fill-opacity="0.517647" cx="139" cy="90" rx="11" ry="34" />
<ellipse fill="#030200" fill-opacity="0.423529" cx="181" cy="85" rx="19" ry="5" />
<ellipse fill="#050400" fill-opacity="0.415686" cx="79" cy="24" rx="9" ry="12" />
<ellipse fill="#858987" fill-opacity="0.572549" cx="118" cy="54" rx="21" ry="32" />
<ellipse fill="#959691" fill-opacity="0.882353" cx="234" cy="102" rx="14" ry="11" />
<ellipse fill="#939ca5" fill-opacity="0.607843" cx="100" cy="126" rx="5" ry="20" />
<ellipse fill="#000100" fill-opacity="0.568627" cx="46" cy="102" rx="7" ry="41" />
<ellipse fill="#5c6160" fill-opacity="0.443137" cx="28" cy="113" rx="8" ry="35" />
<ellipse fill="#0f120f" fill-opacity="0.513725" cx="52" cy="9" rx="12" ry="8" />
<ellipse fill="#000000" fill-opacity="0.580392" cx="97" cy="43" rx="4" ry="9" />
<ellipse fill="#1f2422" fill-opacity="0.666667" cx="92" cy="89" rx="18" ry="15" />
<ellipse fill="#8d8f93" fill-opacity="0.501961" cx="57" cy="29" rx="13" ry="17" />
<ellipse fill="#25251c" fill-opacity="0.368627" cx="252" cy="142" rx="56" ry="14" />
<ellipse fill="#33312c" fill-opacity="0.572549" cx="156" cy="105" rx="7" ry="10" />
<ellipse fill="#201e19" fill-opacity="0.611765" cx="194" cy="115" rx="4" ry="11" />
<ellipse fill="#2e312d" fill-opacity="0.400000" cx="122" cy="57" rx="10" ry="12" />
<ellipse fill="#040000" fill-opacity="0.258824" cx="136" cy="142" rx="12" ry="18" />
<ellipse fill="#d3e5ed" fill-opacity="0.149020" cx="21" cy="4" rx="21" ry="12" />
<ellipse fill="#c3c5c5" fill-opacity="0.545098" cx="98" cy="21" rx="9" ry="9" />
<ellipse fill="#c8d2e1" fill-opacity="0.274510" cx="62" cy="96" rx="5" ry="13" />
<ellipse fill="#171b18" fill-opacity="1.000000" cx="90" cy="140" rx="5" ry="20" />
<ellipse fill="#c5c3c0" fill-opacity="0.458824" cx="186" cy="96" rx="14" ry="9" />
<ellipse fill="#121613" fill-opacity="0.741176" cx="100" cy="1" rx="2" ry="19" />
<ellipse fill="#2b2f27" fill-opacity="0.537255" cx="255" cy="56" rx="6" ry="68" />
<ellipse fill="#f5f5f8" fill-opacity="0.368627" cx="78" cy="3" rx="12" ry="5" />
<ellipse fill="#90908a" fill-opacity="0.600000" cx="221" cy="43" rx="27" ry="21" />
<ellipse fill="#111511" fill-opacity="0.666667" cx="40" cy="61" rx="34" ry="17" />
<ellipse fill="#e5e7e7" fill-opacity="0.352941" cx="105" cy="9" rx="2" ry="66" />
<ellipse fill="#c0c0be" fill-opacity="0.301961" cx="221" cy="74" rx="30" ry="10" />
<ellipse fill="#ced1d0" fill-opacity="0.443137" cx="128" cy="42" rx="2" ry="31" />
<ellipse fill="#bec0c0" fill-opacity="0.439216" cx="140" cy="86" rx="24" ry="10" />
<ellipse fill="#282a2a" fill-opacity="0.576471" cx="73" cy="39" rx="3" ry="21" />
<ellipse fill="#000400" fill-opacity="0.525490" cx="146" cy="30" rx="2" ry="12" />
<ellipse fill="#42403c" fill-opacity="0.486275" cx="185" cy="123" rx="10" ry="6" />
<ellipse fill="#50524c" fill-opacity="0.580392" cx="158" cy="9" rx="21" ry="16" />
<ellipse fill="#bcbfc5" fill-opacity="0.549020" cx="64" cy="26" rx="7" ry="10" />
<ellipse fill="#000000" fill-opacity="0.498039" cx="114" cy="24" rx="2" ry="9" />
<ellipse fill="#000000" fill-opacity="0.552941" cx="71" cy="139" rx="4" ry="50" />
<ellipse fill="#b5b4b8" fill-opacity="0.266667" cx="82" cy="49" rx="13" ry="12" />
<ellipse fill="#080d09" fill-opacity="0.619608" cx="0" cy="42" rx="35" ry="29" />
<ellipse fill="#cbd4df" fill-opacity="0.274510" cx="119" cy="134" rx="7" ry="28" />
<ellipse fill="#5f6265" fill-opacity="0.588235" cx="48" cy="29" rx="13" ry="7" />
<ellipse fill="#fdffff" fill-opacity="0.490196" cx="96" cy="0" rx="2" ry="22" />
<ellipse fill="#080700" fill-opacity="0.545098" cx="164" cy="94" rx="4" ry="6" />
<ellipse fill="#161c1d" fill-opacity="0.435294" cx="89" cy="0" rx="6" ry="7" />
<ellipse fill="#0d0c03" fill-opacity="0.545098" cx="149" cy="119" rx="5" ry="5" />
<ellipse fill="#a0a19f" fill-opacity="0.560784" cx="164" cy="119" rx="10" ry="12" />
<ellipse fill="#4e504b" fill-opacity="0.690196" cx="137" cy="34" rx="2" ry="31" />
<ellipse fill="#eaf0f3" fill-opacity="0.411765" cx="134" cy="48" rx="2" ry="22" />
<ellipse fill="#ecf1f6" fill-opacity="0.517647" cx="88" cy="0" rx="2" ry="16" />
<ellipse fill="#000200" fill-opacity="0.498039" cx="124" cy="0" rx="4" ry="22" />
<ellipse fill="#9e9a96" fill-opacity="0.545098" cx="145" cy="98" rx="12" ry="12" />
<ellipse fill="#bfc6c6" fill-opacity="0.533333" cx="142" cy="53" rx="3" ry="37" />
<ellipse fill="#a3a4a0" fill-opacity="0.541176" cx="105" cy="62" rx="8" ry="15" />
<ellipse fill="#171915" fill-opacity="0.494118" cx="95" cy="41" rx="2" ry="21" />
<ellipse fill="#434642" fill-opacity="1.000000" cx="131" cy="25" rx="1" ry="36" />
<ellipse fill="#c9cbc4" fill-opacity="0.364706" cx="153" cy="37" rx="4" ry="24" />
<ellipse fill="#5b5952" fill-opacity="0.513725" cx="218" cy="104" rx="6" ry="10" />
<ellipse fill="#bbbab6" fill-opacity="0.800000" cx="132" cy="111" rx="6" ry="12" />
<ellipse fill="#9da09e" fill-opacity="0.513725" cx="112" cy="33" rx="2" ry="38" />
<ellipse fill="#000301" fill-opacity="0.705882" cx="120" cy="25" rx="1" ry="11" />
<ellipse fill="#000000" fill-opacity="0.545098" cx="43" cy="2" rx="2" ry="18" />
<ellipse fill="#5c5c57" fill-opacity="0.505882" cx="109" cy="47" rx="4" ry="14" />
<ellipse fill="#3d4140" fill-opacity="0.807843" cx="105" cy="130" rx="2" ry="29" />
<ellipse fill="#0f1312" fill-opacity="0.603922" cx="114" cy="98" rx="16" ry="6" />
<ellipse fill="#dfe1de" fill-opacity="0.333333" cx="118" cy="38" rx="6" ry="8" />
<ellipse fill="#656662" fill-opacity="0.529412" cx="244" cy="78" rx="12" ry="8" />
<ellipse fill="#c5c5c0" fill-opacity="0.474510" cx="138" cy="128" rx="3" ry="13" />
<ellipse fill="#202522" fill-opacity="0.694118" cx="65" cy="73" rx="29" ry="12" />
<ellipse fill="#bfbdbb" fill-opacity="0.270588" cx="203" cy="114" rx="5" ry="20" />
<ellipse fill="#000402" fill-opacity="0.552941" cx="108" cy="0" rx="2" ry="26" />
<ellipse fill="#2b3232" fill-opacity="0.458824" cx="134" cy="72" rx="7" ry="2" />
<ellipse fill="#e9ebec" fill-opacity="0.501961" cx="108" cy="29" rx="4" ry="5" />
<ellipse fill="#8d8e8a" fill-opacity="0.564706" cx="240" cy="112" rx="11" ry="9" />
<ellipse fill="#131718" fill-opacity="0.486275" cx="242" cy="84" rx="8" ry="3" />
<ellipse fill="#323636" fill-opacity="0.552941" cx="26" cy="3" rx="4" ry="24" />
<ellipse fill="#cdcbc8" fill-opacity="0.572549" cx="83" cy="11" rx="3" ry="5" />
<ellipse fill="#000200" fill-opacity="0.690196" cx="11" cy="124" rx="7" ry="64" />
<ellipse fill="#0f110c" fill-opacity="0.639216" cx="160" cy="99" rx="3" ry="6" />
<ellipse fill="#798187" fill-opacity="0.564706" cx="79" cy="134" rx="4" ry="30" />
<ellipse fill="#dce1e9" fill-opacity="0.305882" cx="69" cy="4" rx="3" ry="27" />
<ellipse fill="#b9b6ab" fill-opacity="0.435294" cx="194" cy="27" rx="21" ry="12" />
<ellipse fill="#080b06" fill-opacity="0.705882" cx="125" cy="26" rx="1" ry="16" />
</g>
</svg>