<svg xmlns="http://www.w3.org/2000/svg" version="1.1" width="256" height="143">
<rect x="0" y="0" width="256" height="143" fill="#f0f0f0" />
<g transform="scale(1.000000) translate(0.5 0.5)">
<ellipse fill="#323829" fill-opacity="0.760784" cx="24" cy="111" rx="228" ry="115" />
<ellipse fill="#fbfcfc" fill-opacity="0.533333" cx="226" cy="20" rx="60" ry="67" />
<ellipse fill="#3d413e" fill-opacity="0.705882" cx="31" cy="23" rx="108" ry="80" />
<ellipse fill="#818c6a" fill-opacity="0.619608" cx="231" cy="114" rx="27" ry="64" />
<ellipse fill="#ffffff" fill-opacity="0.898039" cx="182" cy="6" rx="28" ry="32" />
<ellipse fill="#000400" fill-opacity="0.494118" cx="5" cy="41" rx="18" ry="49" />
<ellipse fill="#6b7153" fill-opacity="0.992157" cx="220" cy="142" rx="163" ry="37" />
<ellipse fill="#50575b" fill-opacity="0.737255" cx="159" cy="70" rx="35" ry="32" />
<ellipse fill="#777568" fill-opacity="0.760784" cx="36" cy="82" rx="17" ry="32" />
<ellipse fill="#5e6a73" fill-opacity="0.619608" cx="126" cy="25" rx="27" ry="22" />
<ellipse fill="#ffffff" fill-opacity="0.835294" cx="214" cy="31" rx="14" ry="30" />
<ellipse fill="#000200" fill-opacity="0.556863" cx="69" cy="85" rx="10" ry="16" />
<ellipse fill="#d7d8df" fill-opacity="0.470588" cx="255" cy="80" rx="24" ry="16" />
<ellipse fill="#3e4e29" fill-opacity="0.533333" cx="186" cy="142" rx="48" ry="15" />
<ellipse fill="#150f01" fill-opacity="0.474510" cx="40" cy="86" rx="8" ry="11" />
<ellipse fill="#242b23" fill-opacity="0.517647" cx="24" cy="34" rx="26" ry="23" />
<ellipse fill="#50462a" fill-opacity="0.576471" cx="0" cy="133" rx="43" ry="25" />
<ellipse fill="#a7acab" fill-opacity="0.172549" cx="207" cy="92" rx="38" ry="33" />
<ellipse fill="#8c8c7f" fill-opacity="0.403922" cx="57" cy="54" rx="12" ry="18" />
<ellipse fill="#ffffff" fill-opacity="0.509804" cx="218" cy="35" rx="43" ry="10" />
<ellipse fill="#8e8a88" fill-opacity="0.431373" cx="122" cy="96" rx="21" ry="15" />
<ellipse fill="#525a5a" fill-opacity="0.733333" cx="95" cy="22" rx="23" ry="26" />
<ellipse fill="#676c67" fill-opacity="0.627451" cx="192" cy="91" rx="18" ry="20" />
<ellipse fill="#c7c1c7" fill-opacity="0.462745" cx="73" cy="142" rx="8" ry="9" />
<ellipse fill="#555d61" fill-opacity="0.541176" cx="148" cy="52" rx="27" ry="29" />
<ellipse fill="#86887b" fill-opacity="0.498039" cx="1" cy="41" rx="5" ry="9" />
<ellipse fill="#1a1d1b" fill-opacity="0.462745" cx="95" cy="93" rx="9" ry="10" />
<ellipse fill="#858374" fill-opacity="0.494118" cx="86" cy="74" rx="12" ry="7" />
<ellipse fill="#ffffff" fill-opacity="0.501961" cx="164" cy="13" rx="15" ry="11" />
<ellipse fill="#000500" fill-opacity="0.439216" cx="10" cy="18" rx="25" ry="9" />
<ellipse fill="#97978d" fill-opacity="0.525490" cx="44" cy="68" rx="14" ry="9" />
<ellipse fill="#fefaff" fill-opacity="0.509804" cx="215" cy="82" rx="4" ry="7" />
<ellipse fill="#3f4441" fill-opacity="0.470588" cx="156" cy="90" rx="20" ry="19" />
<ellipse fill="#323239" fill-opacity="0.560784" cx="125" cy="113" rx="13" ry="5" />
<ellipse fill="#938e71" fill-opacity="0.443137" cx="34" cy="113" rx="28" ry="5" />
<ellipse fill="#8e8c8e" fill-opacity="0.298039" cx="154" cy="113" rx="23" ry="14" />
<ellipse fill="#3e4440" fill-opacity="0.678431" cx="109" cy="65" rx="22" ry="16" />
<ellipse fill="#8a8577" fill-opacity="0.494118" cx="47" cy="82" rx="5" ry="24" />
<ellipse fill="#676951" fill-opacity="0.988235" cx="0" cy="101" rx="43" ry="6" />
<ellipse fill="#b5b2a8" fill-opacity="0.380392" cx="28" cy="87" rx="6" ry="12" />
<ellipse fill="#040600" fill-opacity="0.525490" cx="54" cy="90" rx="3" ry="14" />
<ellipse fill="#787f77" fill-opacity="0.486275" cx="232" cy="56" rx="6" ry="8" />
<ellipse fill="#666f75" fill-opacity="0.521569" cx="125" cy="16" rx="21" ry="15" />
<ellipse fill="#ffffff" fill-opacity="0.580392" cx="250" cy="35" rx="13" ry="32" />
<ellipse fill="#d9d6d7" fill-opacity="0.270588" cx="121" cy="106" rx="27" ry="2" />
<ellipse fill="#e5e3d0" fill-opacity="0.133333" cx="35" cy="22" rx="3" ry="54" />
<ellipse fill="#000a09" fill-opacity="0.454902" cx="46" cy="10" rx="4" ry="10" />
<ellipse fill="#a3a69f" fill-opacity="0.658824" cx="222" cy="69" rx="18" ry="10" />
<ellipse fill="#212510" fill-opacity="0.486275" cx="1" cy="119" rx="7" ry="13" />
<ellipse fill="#ffffff" fill-opacity="0.741176" cx="151" cy="0" rx="20" ry="6" />
<ellipse fill="#5c6057" fill-opacity="0.776471" cx="46" cy="22" rx="13" ry="4" />
<ellipse fill="#6b6f6a" fill-opacity="0.533333" cx="134" cy="64" rx="25" ry="5" />
<ellipse fill="#838b85" fill-opacity="0.325490" cx="192" cy="50" rx="13" ry="10" />
<ellipse fill="#000501" fill-opacity="0.494118" cx="44" cy="34" rx="7" ry="8" />
<ellipse fill="#7a7d75" fill-opacity="0.556863" cx="59" cy="0" rx="3" ry="25" />
<ellipse fill="#ffffff" fill-opacity="0.584314" cx="202" cy="11" rx="48" ry="30" />
<ellipse fill="#929a69" fill-opacity="0.435294" cx="186" cy="114" rx="33" ry="6" />
<ellipse fill="#2c2c29" fill-opacity="0.541176" cx="84" cy="115" rx="14" ry="3" />
<ellipse fill="#161b14" fill-opacity="0.494118" cx="73" cy="37" rx="8" ry="6" />
<ellipse fill="#7b7a72" fill-opacity="0.615686" cx="109" cy="92" rx="6" ry="20" />
<ellipse fill="#b0b4af" fill-opacity="0.501961" cx="253" cy="88" rx="8" ry="12" />
<ellipse fill="#5b4d3f" fill-opacity="0.501961" cx="97" cy="137" rx="15" ry="10" />
<ellipse fill="#151e11" fill-opacity="0.431373" cx="185" cy="130" rx="11" ry="4" />
<ellipse fill="#030600" fill-opacity="0.482353" cx="38" cy="85" rx="4" ry="8" />
<ellipse fill="#202a29" fill-opacity="0.541176" cx="66" cy="13" rx="4" ry="22" />
<ellipse fill="#929b8a" fill-opacity="0.843137" cx="255" cy="102" rx="20" ry="4" />
<ellipse fill="#827f6a" fill-opacity="0.431373" cx="112" cy="124" rx="50" ry="7" />
<ellipse fill="#363a32" fill-opacity="0.603922" cx="123" cy="99" rx="5" ry="4" />
<ellipse fill="#595b50" fill-opacity="0.545098" cx="66" cy="60" rx="24" ry="8" />
<ellipse fill="#878c61" fill-opacity="0.607843" cx="169" cy="137" rx="12" ry="3" />
<ellipse fill="#213443" fill-opacity="0.411765" cx="90" cy="0" rx="12" ry="18" />
<ellipse fill="#6c7f46" fill-opacity="0.505882" cx="248" cy="126" rx="54" ry="11" />
<ellipse fill="#ffffff" fill-opacity="0.450980" cx="213" cy="58" rx="9" ry="4" />
<ellipse fill="#7a7769" fill-opacity="0.525490" cx="88" cy="33" rx="7" ry="9" />
<ellipse fill="#666d74" fill-opacity="0.607843" cx="167" cy="42" rx="9" ry="8" />
<ellipse fill="#3d423a" fill-opacity="0.643137" cx="28" cy="54" rx="2" ry="27" />
<ellipse fill="#888775" fill-opacity="0.466667" cx="40" cy="0" rx="5" ry="9" />
<ellipse fill="#ffffff" fill-opacity="0.513725" cx="215" cy="20" rx="28" ry="30" />
<ellipse fill="#2b383f" fill-opacity="0.494118" cx="100" cy="24" rx="8" ry="10" />
<ellipse fill="#14180e" fill-opacity="0.450980" cx="71" cy="83" rx="19" ry="5" />
<ellipse fill="#ffffff" fill-opacity="0.474510" cx="179" cy="23" rx="5" ry="22" />
<ellipse fill="#fffffe" fill-opacity="0.470588" cx="202" cy="72" rx="3" ry="5" />
<ellipse fill="#020700" fill-opacity="0.529412" cx="0" cy="57" rx="21" ry="5" />
<ellipse fill="#1d282c" fill-opacity="0.501961" cx="159" cy="91" rx="9" ry="5" />
<ellipse fill="#626d5b" fill-opacity="0.447059" cx="255" cy="80" rx="7" ry="3" />
<ellipse fill="#3c3e34" fill-opacity="0.470588" cx="17" cy="61" rx="6" ry="22" />
<ellipse fill="#ffffff" fill-opacity="0.482353" cx="249" cy="75" rx="10" ry="3" />
<ellipse fill="#635d4b" fill-opacity="0.647059" cx="34" cy="140" rx="34" ry="11" />
<ellipse fill="#283740" fill-opacity="0.270588" cx="153" cy="53" rx="16" ry="10" />
<ellipse fill="#252925" fill-opacity="0.396078" cx="117" cy="72" rx="17" ry="5" />
<ellipse fill="#ada18c" fill-opacity="0.372549" cx="82" cy="92" rx="3" ry="6" />
<ellipse fill="#222924" fill-opacity="0.537255" cx="95" cy="56" rx="6" ry="10" />
<ellipse fill="#797672" fill-opacity="0.474510" cx="95" cy="109" rx="24" ry="5" />
<ellipse fill="#09161a" fill-opacity="0.509804" cx="55" cy="1" rx="3" ry="13" />
<ellipse fill="#1a221b" fill-opacity="0.494118" cx="21" cy="21" rx="17" ry="12" />
<ellipse fill="#575f64" fill-opacity="0.388235" cx="138" cy="37" rx="29" ry="19" />
<ellipse fill="#606564" fill-opacity="0.431373" cx="183" cy="85" rx="19" ry="20" />
<ellipse fill="#67755c" fill-opacity="0.447059" cx="226" cy="90" rx="10" ry="8" />
<ellipse fill="#39521a" fill-opacity="0.517647" cx="255" cy="133" rx="6" ry="8" />
<ellipse fill="#565c4f" fill-opacity="0.482353" cx="15" cy="3" rx="8" ry="6" />
</g>
</svg>