<svg xmlns="http://www.w3.org/2000/svg" version="1.1" width="256" height="143">
<rect x="0" y="0" width="256" height="143" fill="#f0f0f0" />
<g transform="scale(1.000000) translate(0.5 0.5)">
<ellipse fill="#1d201c" fill-opacity="0.580392" cx="133" cy="87" rx="183" ry="142" />
<ellipse fill="#00050b" fill-opacity="0.603922" cx="216" cy="76" rx="24" ry="21" />
<ellipse fill="#b4b3b0" fill-opacity="0.470588" cx="111" cy="24" rx="35" ry="68" />
<ellipse fill="#bbbabd" fill-opacity="0.482353" cx="201" cy="142" rx="80" ry="22" />
<ellipse fill="#0d110e" fill-opacity="0.207843" cx="158" cy="92" rx="45" ry="33" />
<ellipse fill="#0f0e06" fill-opacity="0.466667" cx="24" cy="77" rx="38" ry="7" />
<ellipse fill="#383c39" fill-opacity="0.541176" cx="255" cy="15" rx="24" ry="36" />
<ellipse fill="#081017" fill-opacity="0.458824" cx="166" cy="32" rx="15" ry="11" />
<ellipse fill="#8e8f8d" fill-opacity="0.909804" cx="92" cy="91" rx="24" ry="30" />
<ellipse fill="#000000" fill-opacity="0.564706" cx="46" cy="20" rx="6" ry="13" />
<ellipse fill="#000309" fill-opacity="0.584314" cx="123" cy="103" rx="6" ry="13" />
<ellipse fill="#c8cfd6" fill-opacity="0.615686" cx="182" cy="142" rx="19" ry="17" />
<ellipse fill="#040400" fill-opacity="0.388235" cx="47" cy="94" rx="6" ry="22" />
<ellipse fill="#757775" fill-opacity="0.690196" cx="186" cy="52" rx="31" ry="20" />
<ellipse fill="#121517" fill-opacity="0.560784" cx="70" cy="18" rx="6" ry="11" />
<ellipse fill="#f4f2e3" fill-opacity="0.356863" cx="132" cy="36" rx="15" ry="11" />
<ellipse fill="#595f5f" fill-opacity="0.486275" cx="247" cy="121" rx="14" ry="67" />
<ellipse fill="#8e8e88" fill-opacity="0.768627" cx="28" cy="39" rx="90" ry="9" />
<ellipse fill="#11181d" fill-opacity="0.490196" cx="226" cy="76" rx="12" ry="24" />
<ellipse fill="#a0a2aa" fill-opacity="0.627451" cx="222" cy="121" rx="19" ry="10" />
<ellipse fill="#78746f" fill-opacity="0.501961" cx="150" cy="119" rx="30" ry="19" />
<ellipse fill="#c3c1ac" fill-opacity="0.243137" cx="55" cy="132" rx="12" ry="35" />
<ellipse fill="#9b998a" fill-opacity="0.556863" cx="18" cy="19" rx="13" ry="32" />
<ellipse fill="#7d807f" fill-opacity="0.615686" cx="130" cy="73" rx="24" ry="17" />
<ellipse fill="#373a3f" fill-opacity="0.313725" cx="156" cy="39" rx="7" ry="101" />
<ellipse fill="#ffffff" fill-opacity="0.145098" cx="114" cy="0" rx="91" ry="6" />
<ellipse fill="#c3bfb4" fill-opacity="0.541176" cx="60" cy="25" rx="7" ry="8" />
<ellipse fill="#99a0aa" fill-opacity="0.313725" cx="214" cy="98" rx="16" ry="8" />
<ellipse fill="#4d4e46" fill-opacity="0.388235" cx="232" cy="140" rx="39" ry="4" />
<ellipse fill="#acb2b0" fill-opacity="0.352941" cx="117" cy="121" rx="17" ry="8" />
<ellipse fill="#212113" fill-opacity="0.301961" cx="0" cy="37" rx="4" ry="53" />
<ellipse fill="#a4a7a4" fill-opacity="0.513725" cx="206" cy="31" rx="4" ry="35" />
<ellipse fill="#33373b" fill-opacity="0.454902" cx="237" cy="104" rx="8" ry="14" />
<ellipse fill="#00050a" fill-opacity="0.415686" cx="243" cy="0" rx="11" ry="9" />
<ellipse fill="#000008" fill-opacity="0.376471" cx="177" cy="25" rx="19" ry="3" />
<ellipse fill="#f0f8fc" fill-opacity="0.478431" cx="133" cy="140" rx="7" ry="5" />
<ellipse fill="#686a68" fill-opacity="0.996078" cx="235" cy="29" rx="10" ry="18" />
<ellipse fill="#2d2c26" fill-opacity="0.509804" cx="90" cy="131" rx="22" ry="2" />
<ellipse fill="#8b8879" fill-opacity="0.407843" cx="28" cy="86" rx="14" ry="11" />
<ellipse fill="#909290" fill-opacity="0.431373" cx="138" cy="105" rx="8" ry="17" />
<ellipse fill="#c0bdad" fill-opacity="0.513725" cx="24" cy="100" rx="5" ry="8" />
<ellipse fill="#181c20" fill-opacity="0.584314" cx="58" cy="9" rx="11" ry="2" />
<ellipse fill="#c1c0b6" fill-opacity="0.470588" cx="51" cy="68" rx="11" ry="4" />
<ellipse fill="#33342b" fill-opacity="0.368627" cx="89" cy="142" rx="22" ry="5" />
<ellipse fill="#bdb9ab" fill-opacity="0.411765" cx="185" cy="37" rx="5" ry="13" />
<ellipse fill="#050707" fill-opacity="0.407843" cx="71" cy="70" rx="5" ry="4" />
<ellipse fill="#929491" fill-opacity="0.525490" cx="242" cy="83" rx="5" ry="15" />
<ellipse fill="#030c15" fill-opacity="0.529412" cx="215" cy="74" rx="23" ry="6" />
<ellipse fill="#909194" fill-opacity="0.670588" cx="237" cy="127" rx="18" ry="9" />
<ellipse fill="#888883" fill-opacity="0.423529" cx="148" cy="21" rx="6" ry="51" />
<ellipse fill="#d5e0e5" fill-opacity="0.396078" cx="59" cy="142" rx="8" ry="7" />
<ellipse fill="#d4d7d2" fill-opacity="0.317647" cx="108" cy="137" rx="11" ry="3" />
<ellipse fill="#ced2d6" fill-opacity="0.584314" cx="166" cy="142" rx="34" ry="3" />
<ellipse fill="#121a1e" fill-opacity="0.513725" cx="127" cy="107" rx="4" ry="11" />
<ellipse fill="#804641" fill-opacity="0.490196" cx="160" cy="131" rx="5" ry="10" />
<ellipse fill="#fffce4" fill-opacity="0.349020" cx="122" cy="26" rx="5" ry="7" />
<ellipse fill="#fffffe" fill-opacity="0.325490" cx="138" cy="26" rx="3" ry="9" />
<ellipse fill="#7e8284" fill-opacity="0.505882" cx="138" cy="14" rx="62" ry="6" />
<ellipse fill="#3c3f3f" fill-opacity="0.290196" cx="179" cy="59" rx="36" ry="4" />
<ellipse fill="#070a06" fill-opacity="0.407843" cx="43" cy="94" rx="2" ry="25" />
<ellipse fill="#a8a7a3" fill-opacity="0.392157" cx="29" cy="47" rx="33" ry="4" />
<ellipse fill="#8f908e" fill-opacity="0.941176" cx="87" cy="58" rx="11" ry="46" />
<ellipse fill="#505250" fill-opacity="0.478431" cx="171" cy="91" rx="13" ry="26" />
<ellipse fill="#000000" fill-opacity="0.184314" cx="18" cy="72" rx="47" ry="3" />
<ellipse fill="#939d7e" fill-opacity="0.576471" cx="185" cy="116" rx="6" ry="7" />
<ellipse fill="#979997" fill-opacity="0.600000" cx="111" cy="107" rx="7" ry="16" />
<ellipse fill="#919385" fill-opacity="0.494118" cx="9" cy="133" rx="32" ry="7" />
<ellipse fill="#4c4e49" fill-opacity="0.474510" cx="32" cy="10" rx="2" ry="33" />
<ellipse fill="#979387" fill-opacity="0.623529" cx="68" cy="82" rx="11" ry="8" />
<ellipse fill="#767568" fill-opacity="0.454902" cx="4" cy="114" rx="20" ry="37" />
<ellipse fill="#414444" fill-opacity="0.580392" cx="214" cy="89" rx="21" ry="5" />
<ellipse fill="#000000" fill-opacity="0.298039" cx="1" cy="5" rx="7" ry="3" />
<ellipse fill="#c0c6c8" fill-opacity="0.450980" cx="189" cy="7" rx="2" ry="11" />
<ellipse fill="#7b7e7c" fill-opacity="0.513725" cx="236" cy="30" rx="21" ry="7" />
<ellipse fill="#6a6b66" fill-opacity="0.537255" cx="65" cy="104" rx="11" ry="10" />
<ellipse fill="#273136" fill-opacity="0.474510" cx="234" cy="19" rx="2" ry="26" />
<ellipse fill="#95948a" fill-opacity="0.329412" cx="38" cy="64" rx="3" ry="61" />
<ellipse fill="#444851" fill-opacity="0.498039" cx="224" cy="107" rx="2" ry="22" />
<ellipse fill="#acb4b9" fill-opacity="0.607843" cx="169" cy="132" rx="6" ry="7" />
<ellipse fill="#7b766e" fill-opacity="0.478431" cx="132" cy="22" rx="4" ry="15" />
<ellipse fill="#000d1d" fill-opacity="0.184314" cx="211" cy="41" rx="2" ry="49" />
<ellipse fill="#b2b2ac" fill-opacity="0.541176" cx="130" cy="56" rx="22" ry="3" />
<ellipse fill="#93938f" fill-opacity="0.443137" cx="42" cy="0" rx="38" ry="9" />
<ellipse fill="#000817" fill-opacity="0.278431" cx="44" cy="21" rx="5" ry="14" />
<ellipse fill="#7a7c79" fill-opacity="0.533333" cx="112" cy="38" rx="5" ry="22" />
<ellipse fill="#a5a69f" fill-opacity="0.537255" cx="48" cy="68" rx="6" ry="5" />
<ellipse fill="#a4a299" fill-opacity="0.505882" cx="183" cy="42" rx="11" ry="4" />
<ellipse fill="#535857" fill-opacity="0.584314" cx="47" cy="133" rx="6" ry="4" />
<ellipse fill="#b3b9ba" fill-opacity="0.419608" cx="221" cy="116" rx="10" ry="5" />
<ellipse fill="#505557" fill-opacity="0.498039" cx="152" cy="0" rx="4" ry="30" />
<ellipse fill="#403e3a" fill-opacity="0.509804" cx="66" cy="63" rx="6" ry="4" />
<ellipse fill="#101414" fill-opacity="0.247059" cx="172" cy="67" rx="26" ry="2" />
<ellipse fill="#0c151e" fill-opacity="0.537255" cx="157" cy="33" rx="3" ry="10" />
<ellipse fill="#989993" fill-opacity="0.454902" cx="252" cy="97" rx="7" ry="6" />
<ellipse fill="#989ea0" fill-opacity="0.400000" cx="224" cy="29" rx="3" ry="21" />
<ellipse fill="#d3c5b0" fill-opacity="0.301961" cx="175" cy="63" rx="14" ry="2" />
<ellipse fill="#05090a" fill-opacity="0.231373" cx="245" cy="40" rx="19" ry="3" />
<ellipse fill="#bfc4c8" fill-opacity="0.564706" cx="189" cy="132" rx="13" ry="6" />
<ellipse fill="#b0a085" fill-opacity="0.592157" cx="151" cy="130" rx="4" ry="8" />
<ellipse fill="#4b4d4d" fill-opacity="0.435294" cx="255" cy="75" rx="11" ry="14" />
</g>
</svg>