<svg xmlns="http://www.w3.org/2000/svg" version="1.1" width="256" height="143">
<rect x="0" y="0" width="256" height="143" fill="#f0f0f0" />
<g transform="scale(1.000000) translate(0.5 0.5)">
<ellipse fill="#16130a" fill-opacity="0.690196" cx="222" cy="27" rx="245" ry="116" />
<ellipse fill="#93938a" fill-opacity="0.466667" cx="43" cy="119" rx="133" ry="74" />
<ellipse fill="#000000" fill-opacity="0.337255" cx="242" cy="33" rx="166" ry="34" />
<ellipse fill="#cdd0cd" fill-opacity="0.392157" cx="160" cy="18" rx="21" ry="8" />
<ellipse fill="#040500" fill-opacity="0.623529" cx="244" cy="120" rx="23" ry="12" />
<ellipse fill="#d4d9dc" fill-opacity="0.360784" cx="66" cy="134" rx="59" ry="29" />
<ellipse fill="#959081" fill-opacity="0.780392" cx="31" cy="87" rx="34" ry="15" />
<ellipse fill="#5d594f" fill-opacity="0.635294" cx="137" cy="96" rx="57" ry="28" />
<ellipse fill="#eefeff" fill-opacity="0.121569" cx="87" cy="12" rx="77" ry="11" />
<ellipse fill="#1b1a11" fill-opacity="0.411765" cx="154" cy="43" rx="47" ry="22" />
<ellipse fill="#1c1e17" fill-opacity="0.521569" cx="246" cy="88" rx="24" ry="15" />
<ellipse fill="#020300" fill-opacity="0.705882" cx="247" cy="11" rx="14" ry="11" />
<ellipse fill="#a5a29a" fill-opacity="0.662745" cx="158" cy="142" rx="28" ry="11" />
<ellipse fill="#080905" fill-opacity="0.674510" cx="228" cy="47" rx="15" ry="12" />
<ellipse fill="#90938f" fill-opacity="0.454902" cx="208" cy="69" rx="43" ry="6" />
<ellipse fill="#8a8982" fill-opacity="0.486275" cx="212" cy="32" rx="16" ry="8" />
<ellipse fill="#bbbfbd" fill-opacity="0.482353" cx="204" cy="108" rx="21" ry="3" />
<ellipse fill="#91918f" fill-opacity="0.529412" cx="176" cy="21" rx="12" ry="7" />
<ellipse fill="#e2e9ef" fill-opacity="0.517647" cx="33" cy="98" rx="5" ry="10" />
<ellipse fill="#b5bcbd" fill-opacity="0.364706" cx="84" cy="49" rx="22" ry="4" />
<ellipse fill="#716553" fill-opacity="0.858824" cx="215" cy="142" rx="34" ry="15" />
<ellipse fill="#d2d3d1" fill-opacity="0.372549" cx="54" cy="117" rx="9" ry="32" />
<ellipse fill="#6d7675" fill-opacity="0.482353" cx="25" cy="90" rx="5" ry="35" />
<ellipse fill="#040e11" fill-opacity="0.549020" cx="3" cy="0" rx="8" ry="15" />
<ellipse fill="#6c665a" fill-opacity="0.564706" cx="0" cy="75" rx="20" ry="19" />
<ellipse fill="#161309" fill-opacity="0.631373" cx="198" cy="9" rx="39" ry="4" />
<ellipse fill="#010c0f" fill-opacity="0.431373" cx="57" cy="40" rx="12" ry="7" />
<ellipse fill="#634f37" fill-opacity="0.388235" cx="178" cy="122" rx="28" ry="16" />
<ellipse fill="#a3a7a2" fill-opacity="0.529412" cx="236" cy="105" rx="17" ry="3" />
<ellipse fill="#3b3a35" fill-opacity="0.866667" cx="119" cy="23" rx="10" ry="16" />
<ellipse fill="#000200" fill-opacity="0.505882" cx="168" cy="54" rx="11" ry="13" />
<ellipse fill="#e0eceb" fill-opacity="0.129412" cx="75" cy="28" rx="15" ry="16" />
<ellipse fill="#a49d90" fill-opacity="0.247059" cx="183" cy="47" rx="4" ry="32" />
<ellipse fill="#615e58" fill-opacity="0.694118" cx="205" cy="63" rx="4" ry="46" />
<ellipse fill="#707473" fill-opacity="0.682353" cx="25" cy="17" rx="13" ry="16" />
<ellipse fill="#ced4d5" fill-opacity="0.560784" cx="10" cy="102" rx="10" ry="12" />
<ellipse fill="#020400" fill-opacity="0.513725" cx="195" cy="54" rx="6" ry="13" />
<ellipse fill="#2b2821" fill-opacity="0.780392" cx="165" cy="4" rx="16" ry="5" />
<ellipse fill="#212019" fill-opacity="0.686275" cx="241" cy="40" rx="29" ry="7" />
<ellipse fill="#c6cdd2" fill-opacity="0.450980" cx="144" cy="98" rx="11" ry="2" />
<ellipse fill="#a7acae" fill-opacity="0.545098" cx="171" cy="103" rx="11" ry="3" />
<ellipse fill="#000000" fill-opacity="0.290196" cx="156" cy="106" rx="18" ry="4" />
<ellipse fill="#61635c" fill-opacity="0.709804" cx="254" cy="60" rx="11" ry="9" />
<ellipse fill="#cdd1d2" fill-opacity="0.592157" cx="61" cy="132" rx="34" ry="18" />
<ellipse fill="#000000" fill-opacity="0.247059" cx="143" cy="34" rx="8" ry="26" />
<ellipse fill="#5e5f5c" fill-opacity="0.721569" cx="97" cy="73" rx="29" ry="10" />
<ellipse fill="#0a0b09" fill-opacity="0.356863" cx="126" cy="100" rx="15" ry="4" />
<ellipse fill="#b2b8bd" fill-opacity="0.466667" cx="133" cy="95" rx="9" ry="3" />
<ellipse fill="#1c1c16" fill-opacity="0.509804" cx="234" cy="78" rx="16" ry="6" />
<ellipse fill="#1b180f" fill-opacity="0.541176" cx="211" cy="64" rx="10" ry="4" />
<ellipse fill="#c4c6c8" fill-opacity="0.454902" cx="133" cy="12" rx="5" ry="3" />
<ellipse fill="#6b675f" fill-opacity="0.431373" cx="154" cy="33" rx="4" ry="28" />
<ellipse fill="#d3bfa9" fill-opacity="0.494118" cx="198" cy="123" rx="9" ry="2" />
<ellipse fill="#000a0f" fill-opacity="0.501961" cx="36" cy="34" rx="7" ry="5" />
<ellipse fill="#a0a19f" fill-opacity="0.392157" cx="85" cy="9" rx="8" ry="12" />
<ellipse fill="#413e35" fill-opacity="0.752941" cx="212" cy="119" rx="17" ry="5" />
<ellipse fill="#7a7770" fill-opacity="0.403922" cx="126" cy="30" rx="5" ry="11" />
<ellipse fill="#a2a8a8" fill-opacity="0.552941" cx="91" cy="86" rx="10" ry="3" />
<ellipse fill="#c0bbb4" fill-opacity="0.270588" cx="115" cy="124" rx="15" ry="9" />
<ellipse fill="#5e615d" fill-opacity="0.360784" cx="225" cy="89" rx="162" ry="7" />
<ellipse fill="#6c6d67" fill-opacity="0.549020" cx="40" cy="59" rx="20" ry="22" />
<ellipse fill="#1c2221" fill-opacity="0.443137" cx="8" cy="38" rx="7" ry="9" />
<ellipse fill="#bdac9a" fill-opacity="0.662745" cx="182" cy="119" rx="7" ry="2" />
<ellipse fill="#e1c9ad" fill-opacity="0.501961" cx="162" cy="115" rx="6" ry="2" />
<ellipse fill="#babcb9" fill-opacity="0.564706" cx="206" cy="110" rx="8" ry="3" />
<ellipse fill="#8c8f8e" fill-opacity="0.533333" cx="39" cy="49" rx="60" ry="3" />
<ellipse fill="#d7c0a8" fill-opacity="0.615686" cx="213" cy="127" rx="5" ry="2" />
<ellipse fill="#2e2c23" fill-opacity="0.450980" cx="98" cy="26" rx="23" ry="7" />
<ellipse fill="#6b5437" fill-opacity="0.603922" cx="96" cy="112" rx="4" ry="12" />
<ellipse fill="#c2c5c7" fill-opacity="0.517647" cx="111" cy="91" rx="8" ry="2" />
<ellipse fill="#1c1a0c" fill-opacity="0.266667" cx="254" cy="103" rx="5" ry="108" />
<ellipse fill="#959694" fill-opacity="0.627451" cx="203" cy="73" rx="9" ry="4" />
<ellipse fill="#b1b6b9" fill-opacity="0.513725" cx="87" cy="59" rx="10" ry="3" />
<ellipse fill="#543d21" fill-opacity="0.294118" cx="145" cy="120" rx="28" ry="6" />
<ellipse fill="#9d9c93" fill-opacity="0.419608" cx="242" cy="22" rx="6" ry="3" />
<ellipse fill="#272a29" fill-opacity="0.501961" cx="179" cy="112" rx="16" ry="4" />
<ellipse fill="#0b0f0d" fill-opacity="0.545098" cx="125" cy="54" rx="7" ry="8" />
<ellipse fill="#c6cdd0" fill-opacity="0.478431" cx="184" cy="106" rx="5" ry="3" />
<ellipse fill="#050601" fill-opacity="0.662745" cx="233" cy="31" rx="4" ry="10" />
<ellipse fill="#787c7d" fill-opacity="0.227451" cx="102" cy="32" rx="5" ry="61" />
<ellipse fill="#4b402e" fill-opacity="0.498039" cx="203" cy="132" rx="17" ry="5" />
<ellipse fill="#00050b" fill-opacity="0.407843" cx="61" cy="0" rx="14" ry="3" />
<ellipse fill="#898f8f" fill-opacity="0.368627" cx="20" cy="30" rx="11" ry="8" />
<ellipse fill="#75634a" fill-opacity="0.549020" cx="64" cy="92" rx="3" ry="22" />
<ellipse fill="#32322d" fill-opacity="0.556863" cx="112" cy="97" rx="14" ry="3" />
<ellipse fill="#020908" fill-opacity="0.498039" cx="91" cy="41" rx="8" ry="6" />
<ellipse fill="#7a7d7a" fill-opacity="0.627451" cx="172" cy="69" rx="34" ry="3" />
<ellipse fill="#9da19e" fill-opacity="0.501961" cx="57" cy="24" rx="4" ry="4" />
<ellipse fill="#d0b9a4" fill-opacity="0.533333" cx="148" cy="111" rx="6" ry="2" />
<ellipse fill="#b6a18d" fill-opacity="0.619608" cx="255" cy="136" rx="10" ry="2" />
<ellipse fill="#2c2c25" fill-opacity="0.690196" cx="250" cy="100" rx="11" ry="5" />
<ellipse fill="#373631" fill-opacity="0.572549" cx="194" cy="115" rx="13" ry="5" />
<ellipse fill="#ced1d3" fill-opacity="0.474510" cx="99" cy="88" rx="6" ry="2" />
<ellipse fill="#9b9e99" fill-opacity="0.501961" cx="241" cy="68" rx="7" ry="5" />
<ellipse fill="#363c3b" fill-opacity="0.596078" cx="21" cy="45" rx="11" ry="3" />
<ellipse fill="#9ca39e" fill-opacity="0.337255" cx="2" cy="142" rx="18" ry="18" />
<ellipse fill="#978f84" fill-opacity="0.631373" cx="149" cy="130" rx="14" ry="4" />
<ellipse fill="#666a6a" fill-opacity="0.360784" cx="134" cy="56" rx="3" ry="21" />
<ellipse fill="#babdbb" fill-opacity="0.443137" cx="68" cy="33" rx="4" ry="5" />
<ellipse fill="#9fa4a6" fill-opacity="0.537255" cx="157" cy="99" rx="8" ry="3" />
</g>
</svg>