<svg xmlns="http://www.w3.org/2000/svg" version="1.1" width="256" height="143">
<rect x="0" y="0" width="256" height="143" fill="#f0f0f0" />
<g transform="scale(1.000000) translate(0.5 0.5)">
<ellipse fill="#30312b" fill-opacity="0.729412" cx="158" cy="108" rx="169" ry="141" />
<ellipse fill="#0d0c07" fill-opacity="0.670588" cx="249" cy="56" rx="43" ry="37" />
<ellipse fill="#000000" fill-opacity="0.513725" cx="107" cy="109" rx="62" ry="20" />
<ellipse fill="#c8c3b5" fill-opacity="0.447059" cx="228" cy="119" rx="65" ry="24" />
<ellipse fill="#cfdded" fill-opacity="0.215686" cx="20" cy="99" rx="27" ry="131" />
<ellipse fill="#98968f" fill-opacity="0.592157" cx="123" cy="59" rx="71" ry="21" />
<ellipse fill="#0a1015" fill-opacity="0.419608" cx="99" cy="19" rx="48" ry="11" />
<ellipse fill="#9b9a90" fill-opacity="0.627451" cx="87" cy="113" rx="6" ry="19" />
<ellipse fill="#000302" fill-opacity="0.796078" cx="153" cy="118" rx="10" ry="15" />
<ellipse fill="#c6c3b6" fill-opacity="0.470588" cx="136" cy="114" rx="6" ry="18" />
<ellipse fill="#c3bcad" fill-opacity="0.454902" cx="238" cy="97" rx="5" ry="36" />
<ellipse fill="#151917" fill-opacity="0.498039" cx="62" cy="104" rx="16" ry="27" />
<ellipse fill="#8d9092" fill-opacity="0.431373" cx="194" cy="8" rx="35" ry="34" />
<ellipse fill="#000000" fill-opacity="0.654902" cx="113" cy="116" rx="17" ry="15" />
<ellipse fill="#171610" fill-opacity="0.709804" cx="151" cy="95" rx="30" ry="5" />
<ellipse fill="#e9f7ff" fill-opacity="0.529412" cx="1" cy="25" rx="28" ry="17" />
<ellipse fill="#000000" fill-opacity="0.537255" cx="228" cy="80" rx="6" ry="25" />
<ellipse fill="#8a8c8a" fill-opacity="0.705882" cx="192" cy="84" rx="15" ry="25" />
<ellipse fill="#000206" fill-opacity="0.294118" cx="167" cy="45" rx="7" ry="33" />
<ellipse fill="#0e0f0a" fill-opacity="0.576471" cx="255" cy="41" rx="19" ry="41" />
<ellipse fill="#fff3d4" fill-opacity="0.129412" cx="28" cy="107" rx="30" ry="20" />
<ellipse fill="#1d1c18" fill-opacity="0.737255" cx="119" cy="82" rx="50" ry="2" />
<ellipse fill="#525458" fill-opacity="0.450980" cx="21" cy="59" rx="42" ry="12" />
<ellipse fill="#747b83" fill-opacity="0.556863" cx="77" cy="3" rx="30" ry="13" />
<ellipse fill="#42413c" fill-opacity="0.513725" cx="143" cy="65" rx="66" ry="2" />
<ellipse fill="#716f66" fill-opacity="0.686275" cx="52" cy="141" rx="88" ry="17" />
<ellipse fill="#292f36" fill-opacity="0.619608" cx="61" cy="25" rx="15" ry="11" />
<ellipse fill="#1f1d17" fill-opacity="0.501961" cx="223" cy="55" rx="26" ry="15" />
<ellipse fill="#161815" fill-opacity="0.498039" cx="69" cy="94" rx="24" ry="6" />
<ellipse fill="#a4a69f" fill-opacity="0.447059" cx="160" cy="0" rx="9" ry="25" />
<ellipse fill="#000000" fill-opacity="0.435294" cx="161" cy="34" rx="12" ry="6" />
<ellipse fill="#7f817e" fill-opacity="0.627451" cx="182" cy="60" rx="17" ry="22" />
<ellipse fill="#b0aca0" fill-opacity="0.662745" cx="225" cy="122" rx="19" ry="12" />
<ellipse fill="#6b6e6a" fill-opacity="0.439216" cx="179" cy="128" rx="18" ry="31" />
<ellipse fill="#0f1213" fill-opacity="0.501961" cx="131" cy="13" rx="18" ry="5" />
<ellipse fill="#000000" fill-opacity="0.517647" cx="69" cy="113" rx="12" ry="13" />
<ellipse fill="#a9a9a5" fill-opacity="0.588235" cx="99" cy="58" rx="30" ry="4" />
<ellipse fill="#b8b1a7" fill-opacity="0.396078" cx="81" cy="70" rx="29" ry="5" />
<ellipse fill="#1d1c19" fill-opacity="0.752941" cx="83" cy="80" rx="28" ry="2" />
<ellipse fill="#2b2921" fill-opacity="0.545098" cx="247" cy="30" rx="19" ry="17" />
<ellipse fill="#000000" fill-opacity="0.556863" cx="100" cy="116" rx="8" ry="14" />
<ellipse fill="#5d5d55" fill-opacity="0.525490" cx="51" cy="115" rx="8" ry="11" />
<ellipse fill="#727270" fill-opacity="0.443137" cx="68" cy="85" rx="49" ry="4" />
<ellipse fill="#5a554a" fill-opacity="0.521569" cx="152" cy="101" rx="28" ry="4" />
<ellipse fill="#838076" fill-opacity="0.443137" cx="235" cy="82" rx="3" ry="26" />
<ellipse fill="#818074" fill-opacity="0.349020" cx="211" cy="84" rx="11" ry="18" />
<ellipse fill="#b5ad9d" fill-opacity="0.415686" cx="62" cy="142" rx="18" ry="6" />
<ellipse fill="#484843" fill-opacity="0.537255" cx="80" cy="98" rx="31" ry="4" />
<ellipse fill="#9c9c97" fill-opacity="0.388235" cx="84" cy="48" rx="17" ry="15" />
<ellipse fill="#d4cdc4" fill-opacity="0.400000" cx="115" cy="74" rx="30" ry="2" />
<ellipse fill="#454947" fill-opacity="0.494118" cx="175" cy="10" rx="6" ry="13" />
<ellipse fill="#8b8c8b" fill-opacity="0.501961" cx="205" cy="9" rx="14" ry="32" />
<ellipse fill="#afa79f" fill-opacity="0.227451" cx="149" cy="88" rx="59" ry="3" />
<ellipse fill="#7a7c7d" fill-opacity="0.623529" cx="40" cy="54" rx="9" ry="41" />
<ellipse fill="#9b9b96" fill-opacity="0.643137" cx="178" cy="54" rx="3" ry="29" />
<ellipse fill="#e1eefa" fill-opacity="0.560784" cx="3" cy="16" rx="25" ry="22" />
<ellipse fill="#12130e" fill-opacity="0.470588" cx="141" cy="83" rx="32" ry="2" />
<ellipse fill="#1a160d" fill-opacity="0.505882" cx="95" cy="64" rx="12" ry="2" />
<ellipse fill="#b0a798" fill-opacity="0.282353" cx="243" cy="98" rx="8" ry="17" />
<ellipse fill="#656560" fill-opacity="0.741176" cx="158" cy="136" rx="40" ry="6" />
<ellipse fill="#394251" fill-opacity="0.443137" cx="35" cy="19" rx="7" ry="7" />
<ellipse fill="#989992" fill-opacity="0.458824" cx="139" cy="52" rx="23" ry="12" />
<ellipse fill="#a2a096" fill-opacity="0.494118" cx="86" cy="119" rx="6" ry="9" />
<ellipse fill="#a09994" fill-opacity="0.290196" cx="156" cy="75" rx="31" ry="7" />
<ellipse fill="#888781" fill-opacity="0.525490" cx="138" cy="139" rx="6" ry="27" />
<ellipse fill="#a9a598" fill-opacity="0.737255" cx="255" cy="105" rx="12" ry="11" />
<ellipse fill="#4f4f46" fill-opacity="0.635294" cx="120" cy="34" rx="5" ry="12" />
<ellipse fill="#030300" fill-opacity="0.270588" cx="81" cy="92" rx="35" ry="4" />
<ellipse fill="#9b9c97" fill-opacity="0.411765" cx="27" cy="108" rx="10" ry="29" />
<ellipse fill="#31302b" fill-opacity="0.333333" cx="140" cy="66" rx="24" ry="3" />
<ellipse fill="#8c8d86" fill-opacity="0.564706" cx="202" cy="106" rx="22" ry="20" />
<ellipse fill="#91979a" fill-opacity="0.439216" cx="53" cy="12" rx="7" ry="6" />
<ellipse fill="#000305" fill-opacity="0.407843" cx="255" cy="72" rx="11" ry="22" />
<ellipse fill="#ecf4fb" fill-opacity="0.682353" cx="3" cy="34" rx="10" ry="12" />
<ellipse fill="#a3a197" fill-opacity="0.627451" cx="212" cy="142" rx="14" ry="19" />
<ellipse fill="#060d17" fill-opacity="0.172549" cx="52" cy="65" rx="4" ry="52" />
<ellipse fill="#000407" fill-opacity="0.094118" cx="39" cy="131" rx="124" ry="4" />
<ellipse fill="#000000" fill-opacity="0.388235" cx="175" cy="94" rx="6" ry="5" />
<ellipse fill="#6b6e6f" fill-opacity="0.525490" cx="49" cy="45" rx="26" ry="8" />
<ellipse fill="#000000" fill-opacity="0.360784" cx="70" cy="63" rx="2" ry="4" />
<ellipse fill="#000000" fill-opacity="0.498039" cx="160" cy="125" rx="3" ry="7" />
<ellipse fill="#84837f" fill-opacity="0.796078" cx="146" cy="63" rx="4" ry="18" />
<ellipse fill="#433e36" fill-opacity="0.498039" cx="217" cy="44" rx="11" ry="8" />
<ellipse fill="#73787a" fill-opacity="0.505882" cx="233" cy="1" rx="16" ry="12" />
<ellipse fill="#858173" fill-opacity="0.576471" cx="254" cy="138" rx="12" ry="29" />
<ellipse fill="#4e525a" fill-opacity="0.490196" cx="6" cy="61" rx="9" ry="9" />
<ellipse fill="#120a01" fill-opacity="0.388235" cx="123" cy="77" rx="12" ry="1" />
<ellipse fill="#000100" fill-opacity="0.501961" cx="127" cy="125" rx="3" ry="6" />
<ellipse fill="#101310" fill-opacity="0.454902" cx="218" cy="59" rx="21" ry="4" />
<ellipse fill="#6f706a" fill-opacity="0.603922" cx="170" cy="109" rx="8" ry="5" />
<ellipse fill="#f5feff" fill-opacity="0.615686" cx="0" cy="44" rx="3" ry="10" />
<ellipse fill="#78797a" fill-opacity="0.439216" cx="18" cy="49" rx="6" ry="17" />
<ellipse fill="#030602" fill-opacity="0.584314" cx="11" cy="110" rx="2" ry="2" />
<ellipse fill="#0c1110" fill-opacity="0.486275" cx="227" cy="82" rx="4" ry="24" />
<ellipse fill="#a6a49b" fill-opacity="0.462745" cx="44" cy="125" rx="14" ry="2" />
<ellipse fill="#a4a49d" fill-opacity="0.400000" cx="136" cy="128" rx="7" ry="6" />
<ellipse fill="#4a4d4d" fill-opacity="0.564706" cx="143" cy="12" rx="6" ry="13" />
<ellipse fill="#6f7170" fill-opacity="0.600000" cx="190" cy="42" rx="9" ry="32" />
<ellipse fill="#232622" fill-opacity="0.474510" cx="231" cy="87" rx="3" ry="18" />
<ellipse fill="#7b796e" fill-opacity="0.686275" cx="76" cy="140" rx="16" ry="9" />
</g>
</svg>