<svg xmlns="http://www.w3.org/2000/svg" version="1.1" width="256" height="144">
<rect x="0" y="0" width="256" height="144" fill="#f0f0f0" />
<g transform="scale(1.000000) translate(0.5 0.5)">
<ellipse fill="#484842" fill-opacity="0.847059" cx="88" cy="54" rx="241" ry="143" />
<ellipse fill="#080b04" fill-opacity="0.815686" cx="76" cy="26" rx="32" ry="97" />
<ellipse fill="#c5c6c5" fill-opacity="0.588235" cx="225" cy="75" rx="22" ry="143" />
<ellipse fill="#cfd1d1" fill-opacity="0.447059" cx="129" cy="116" rx="26" ry="96" />
<ellipse fill="#070600" fill-opacity="0.501961" cx="34" cy="143" rx="37" ry="47" />
<ellipse fill="#12120b" fill-opacity="0.584314" cx="190" cy="24" rx="13" ry="55" />
<ellipse fill="#0c0600" fill-opacity="0.517647" cx="6" cy="30" rx="11" ry="36" />
<ellipse fill="#3d3d38" fill-opacity="1.000000" cx="196" cy="61" rx="12" ry="25" />
<ellipse fill="#d7d8d5" fill-opacity="0.639216" cx="212" cy="125" rx="9" ry="67" />
<ellipse fill="#a2a19c" fill-opacity="0.615686" cx="34" cy="77" rx="17" ry="17" />
<ellipse fill="#322d22" fill-opacity="0.650980" cx="37" cy="16" rx="12" ry="51" />
<ellipse fill="#7e7e7c" fill-opacity="0.839216" cx="243" cy="69" rx="12" ry="77" />
<ellipse fill="#cbd2d7" fill-opacity="0.400000" cx="102" cy="129" rx="48" ry="8" />
<ellipse fill="#494845" fill-opacity="0.458824" cx="133" cy="66" rx="8" ry="46" />
<ellipse fill="#d5d7d6" fill-opacity="0.286275" cx="174" cy="140" rx="55" ry="11" />
<ellipse fill="#d7d6cf" fill-opacity="0.388235" cx="22" cy="46" rx="6" ry="26" />
<ellipse fill="#c9c3be" fill-opacity="0.454902" cx="154" cy="9" rx="10" ry="17" />
<ellipse fill="#90928e" fill-opacity="0.666667" cx="8" cy="96" rx="6" ry="27" />
<ellipse fill="#d1d1cb" fill-opacity="0.607843" cx="146" cy="65" rx="3" ry="51" />
<ellipse fill="#fafeff" fill-opacity="0.603922" cx="122" cy="90" rx="5" ry="12" />
<ellipse fill="#cfcfcb" fill-opacity="0.454902" cx="212" cy="24" rx="10" ry="36" />
<ellipse fill="#16110a" fill-opacity="0.501961" cx="234" cy="65" rx="3" ry="29" />
<ellipse fill="#7d7c75" fill-opacity="0.490196" cx="177" cy="95" rx="29" ry="27" />
<ellipse fill="#201e14" fill-opacity="0.525490" cx="57" cy="0" rx="86" ry="14" />
<ellipse fill="#070b08" fill-opacity="0.509804" cx="92" cy="72" rx="16" ry="26" />
<ellipse fill="#010300" fill-opacity="0.549020" cx="189" cy="11" rx="15" ry="15" />
<ellipse fill="#41403a" fill-opacity="0.466667" cx="173" cy="51" rx="23" ry="29" />
<ellipse fill="#bfbfbd" fill-opacity="0.282353" cx="118" cy="111" rx="30" ry="18" />
<ellipse fill="#434037" fill-opacity="1.000000" cx="17" cy="96" rx="5" ry="31" />
<ellipse fill="#201e15" fill-opacity="0.560784" cx="48" cy="108" rx="12" ry="21" />
<ellipse fill="#020200" fill-opacity="0.627451" cx="3" cy="140" rx="14" ry="23" />
<ellipse fill="#000000" fill-opacity="0.466667" cx="206" cy="62" rx="3" ry="19" />
<ellipse fill="#928f87" fill-opacity="0.447059" cx="117" cy="28" rx="15" ry="18" />
<ellipse fill="#b0afac" fill-opacity="0.556863" cx="24" cy="96" rx="3" ry="15" />
<ellipse fill="#a8aba9" fill-opacity="0.498039" cx="245" cy="67" rx="8" ry="32" />
<ellipse fill="#322f28" fill-opacity="0.286275" cx="149" cy="131" rx="7" ry="18" />
<ellipse fill="#e4e7e5" fill-opacity="0.549020" cx="143" cy="93" rx="4" ry="19" />
<ellipse fill="#030501" fill-opacity="0.737255" cx="255" cy="0" rx="2" ry="35" />
<ellipse fill="#33312a" fill-opacity="0.517647" cx="72" cy="115" rx="25" ry="10" />
<ellipse fill="#000c10" fill-opacity="0.352941" cx="126" cy="59" rx="4" ry="16" />
<ellipse fill="#28201a" fill-opacity="0.533333" cx="170" cy="127" rx="25" ry="3" />
<ellipse fill="#282720" fill-opacity="0.811765" cx="76" cy="143" rx="20" ry="5" />
<ellipse fill="#534f47" fill-opacity="1.000000" cx="42" cy="68" rx="2" ry="36" />
<ellipse fill="#1e1d16" fill-opacity="0.501961" cx="162" cy="48" rx="5" ry="23" />
<ellipse fill="#120c03" fill-opacity="0.545098" cx="143" cy="12" rx="4" ry="6" />
<ellipse fill="#53534d" fill-opacity="0.670588" cx="113" cy="32" rx="7" ry="12" />
<ellipse fill="#a5a39d" fill-opacity="0.419608" cx="122" cy="26" rx="8" ry="25" />
<ellipse fill="#615d57" fill-opacity="0.666667" cx="154" cy="79" rx="6" ry="23" />
<ellipse fill="#8a8883" fill-opacity="0.478431" cx="225" cy="14" rx="9" ry="78" />
<ellipse fill="#e2e3e3" fill-opacity="0.501961" cx="214" cy="53" rx="7" ry="11" />
<ellipse fill="#ffffff" fill-opacity="0.400000" cx="47" cy="79" rx="3" ry="11" />
<ellipse fill="#79776f" fill-opacity="0.623529" cx="16" cy="12" rx="6" ry="8" />
<ellipse fill="#888884" fill-opacity="0.623529" cx="4" cy="86" rx="10" ry="21" />
<ellipse fill="#0a0e0a" fill-opacity="0.733333" cx="203" cy="60" rx="4" ry="17" />
<ellipse fill="#070b03" fill-opacity="0.607843" cx="77" cy="21" rx="28" ry="16" />
<ellipse fill="#2c2c20" fill-opacity="0.231373" cx="249" cy="18" rx="10" ry="20" />
<ellipse fill="#170f07" fill-opacity="0.274510" cx="138" cy="11" rx="3" ry="59" />
<ellipse fill="#a0a19c" fill-opacity="0.937255" cx="32" cy="82" rx="9" ry="13" />
<ellipse fill="#83898c" fill-opacity="0.525490" cx="85" cy="133" rx="33" ry="5" />
<ellipse fill="#38342a" fill-opacity="0.690196" cx="105" cy="10" rx="7" ry="16" />
<ellipse fill="#d6d9d8" fill-opacity="0.517647" cx="204" cy="32" rx="3" ry="11" />
<ellipse fill="#6f6c64" fill-opacity="0.466667" cx="29" cy="52" rx="4" ry="36" />
<ellipse fill="#b4b4b3" fill-opacity="0.431373" cx="226" cy="112" rx="14" ry="23" />
<ellipse fill="#66665f" fill-opacity="0.521569" cx="193" cy="41" rx="6" ry="17" />
<ellipse fill="#9d9d98" fill-opacity="0.301961" cx="171" cy="54" rx="6" ry="16" />
<ellipse fill="#818786" fill-opacity="0.521569" cx="18" cy="123" rx="6" ry="5" />
<ellipse fill="#a3a39e" fill-opacity="0.615686" cx="111" cy="110" rx="12" ry="27" />
<ellipse fill="#544f46" fill-opacity="0.588235" cx="44" cy="56" rx="7" ry="12" />
<ellipse fill="#201e14" fill-opacity="0.545098" cx="38" cy="138" rx="13" ry="40" />
<ellipse fill="#a3a5a1" fill-opacity="0.600000" cx="109" cy="74" rx="2" ry="32" />
<ellipse fill="#85827c" fill-opacity="0.537255" cx="161" cy="109" rx="13" ry="17" />
<ellipse fill="#adaea9" fill-opacity="0.552941" cx="23" cy="57" rx="7" ry="12" />
<ellipse fill="#878985" fill-opacity="0.756863" cx="12" cy="109" rx="2" ry="14" />
<ellipse fill="#11150f" fill-opacity="0.533333" cx="88" cy="69" rx="19" ry="36" />
<ellipse fill="#1c1a11" fill-opacity="0.486275" cx="182" cy="56" rx="5" ry="14" />
<ellipse fill="#cef0fa" fill-opacity="0.407843" cx="119" cy="78" rx="3" ry="16" />
<ellipse fill="#98958d" fill-opacity="0.498039" cx="144" cy="46" rx="5" ry="25" />
<ellipse fill="#fffffe" fill-opacity="0.400000" cx="121" cy="121" rx="4" ry="6" />
<ellipse fill="#50524c" fill-opacity="0.372549" cx="113" cy="41" rx="5" ry="21" />
<ellipse fill="#322f22" fill-opacity="0.662745" cx="5" cy="38" rx="13" ry="28" />
<ellipse fill="#37342d" fill-opacity="0.568627" cx="176" cy="3" rx="6" ry="20" />
<ellipse fill="#d1cec9" fill-opacity="0.552941" cx="137" cy="141" rx="4" ry="25" />
<ellipse fill="#16160d" fill-opacity="0.364706" cx="37" cy="2" rx="24" ry="14" />
<ellipse fill="#66645d" fill-opacity="0.478431" cx="136" cy="98" rx="5" ry="12" />
<ellipse fill="#afafaa" fill-opacity="0.525490" cx="130" cy="37" rx="5" ry="7" />
<ellipse fill="#3b3a32" fill-opacity="0.521569" cx="133" cy="8" rx="10" ry="7" />
<ellipse fill="#3c382e" fill-opacity="0.603922" cx="14" cy="76" rx="2" ry="35" />
<ellipse fill="#c0c3bf" fill-opacity="0.721569" cx="21" cy="61" rx="5" ry="5" />
<ellipse fill="#121106" fill-opacity="0.615686" cx="9" cy="137" rx="17" ry="11" />
<ellipse fill="#8e8d88" fill-opacity="0.698039" cx="230" cy="68" rx="3" ry="25" />
<ellipse fill="#b7b4ae" fill-opacity="0.619608" cx="149" cy="18" rx="3" ry="9" />
<ellipse fill="#757776" fill-opacity="0.470588" cx="113" cy="142" rx="6" ry="18" />
<ellipse fill="#10110a" fill-opacity="0.545098" cx="186" cy="59" rx="7" ry="7" />
<ellipse fill="#8d8d88" fill-opacity="0.443137" cx="162" cy="15" rx="7" ry="12" />
<ellipse fill="#070300" fill-opacity="0.243137" cx="235" cy="65" rx="2" ry="32" />
<ellipse fill="#5f5b53" fill-opacity="0.572549" cx="29" cy="62" rx="4" ry="7" />
<ellipse fill="#4b473c" fill-opacity="0.482353" cx="36" cy="32" rx="12" ry="18" />
<ellipse fill="#362f28" fill-opacity="0.407843" cx="174" cy="126" rx="31" ry="3" />
<ellipse fill="#e6ebe9" fill-opacity="0.403922" cx="104" cy="129" rx="5" ry="4" />
<ellipse fill="#494e4f" fill-opacity="0.450980" cx="81" cy="137" rx="18" ry="3" />
</g>
</svg>