<svg xmlns="http://www.w3.org/2000/svg" version="1.1" width="256" height="143">
<rect x="0" y="0" width="256" height="143" fill="#f0f0f0" />
<g transform="scale(1.000000) translate(0.5 0.5)">
<ellipse fill="#2a2921" fill-opacity="0.819608" cx="118" cy="77" rx="165" ry="142" />
<ellipse fill="#0a0b06" fill-opacity="0.505882" cx="18" cy="104" rx="170" ry="17" />
<ellipse fill="#fbffff" fill-opacity="0.145098" cx="61" cy="63" rx="24" ry="142" />
<ellipse fill="#cbc8ba" fill-opacity="0.682353" cx="246" cy="39" rx="10" ry="18" />
<ellipse fill="#a6a39b" fill-opacity="0.431373" cx="202" cy="21" rx="39" ry="14" />
<ellipse fill="#150c00" fill-opacity="0.631373" cx="248" cy="2" rx="37" ry="17" />
<ellipse fill="#cdcfd0" fill-opacity="0.415686" cx="159" cy="10" rx="31" ry="5" />
<ellipse fill="#e6eefd" fill-opacity="0.196078" cx="75" cy="0" rx="74" ry="12" />
<ellipse fill="#050300" fill-opacity="0.603922" cx="221" cy="91" rx="16" ry="11" />
<ellipse fill="#000000" fill-opacity="0.639216" cx="58" cy="96" rx="6" ry="24" />
<ellipse fill="#080a01" fill-opacity="0.607843" cx="12" cy="23" rx="34" ry="7" />
<ellipse fill="#201d12" fill-opacity="0.368627" cx="128" cy="38" rx="46" ry="27" />
<ellipse fill="#a4a4a7" fill-opacity="0.411765" cx="190" cy="69" rx="55" ry="5" />
<ellipse fill="#0f0f0a" fill-opacity="0.662745" cx="33" cy="38" rx="27" ry="4" />
<ellipse fill="#a3a7a8" fill-opacity="0.478431" cx="128" cy="123" rx="27" ry="5" />
<ellipse fill="#000000" fill-opacity="0.384314" cx="123" cy="101" rx="27" ry="19" />
<ellipse fill="#cac6bc" fill-opacity="0.494118" cx="254" cy="95" rx="17" ry="6" />
<ellipse fill="#000200" fill-opacity="0.513725" cx="24" cy="141" rx="24" ry="8" />
<ellipse fill="#0a0900" fill-opacity="0.427451" cx="0" cy="101" rx="36" ry="26" />
<ellipse fill="#93969b" fill-opacity="0.466667" cx="68" cy="56" rx="18" ry="19" />
<ellipse fill="#787977" fill-opacity="0.717647" cx="88" cy="105" rx="6" ry="9" />
<ellipse fill="#909192" fill-opacity="0.517647" cx="183" cy="71" rx="8" ry="21" />
<ellipse fill="#7f7e77" fill-opacity="1.000000" cx="231" cy="28" rx="25" ry="7" />
<ellipse fill="#0b0c07" fill-opacity="0.745098" cx="255" cy="74" rx="6" ry="19" />
<ellipse fill="#130900" fill-opacity="0.611765" cx="83" cy="89" rx="5" ry="17" />
<ellipse fill="#020100" fill-opacity="0.517647" cx="55" cy="19" rx="15" ry="4" />
<ellipse fill="#090601" fill-opacity="0.415686" cx="67" cy="59" rx="111" ry="2" />
<ellipse fill="#feffff" fill-opacity="0.184314" cx="69" cy="26" rx="29" ry="5" />
<ellipse fill="#36332c" fill-opacity="0.658824" cx="196" cy="81" rx="10" ry="16" />
<ellipse fill="#131109" fill-opacity="0.349020" cx="56" cy="35" rx="85" ry="4" />
<ellipse fill="#b1b6b8" fill-opacity="0.454902" cx="63" cy="127" rx="16" ry="6" />
<ellipse fill="#bfc3c6" fill-opacity="0.407843" cx="174" cy="112" rx="4" ry="9" />
<ellipse fill="#0f0c06" fill-opacity="0.513725" cx="161" cy="80" rx="4" ry="22" />
<ellipse fill="#020400" fill-opacity="0.596078" cx="125" cy="88" rx="4" ry="32" />
<ellipse fill="#acaeb1" fill-opacity="0.400000" cx="22" cy="69" rx="9" ry="8" />
<ellipse fill="#302d23" fill-opacity="0.454902" cx="147" cy="139" rx="64" ry="11" />
<ellipse fill="#ebebf1" fill-opacity="0.160784" cx="151" cy="93" rx="5" ry="30" />
<ellipse fill="#aeb1b4" fill-opacity="0.478431" cx="110" cy="128" rx="14" ry="3" />
<ellipse fill="#383529" fill-opacity="0.498039" cx="100" cy="15" rx="36" ry="6" />
<ellipse fill="#191708" fill-opacity="0.521569" cx="243" cy="129" rx="21" ry="6" />
<ellipse fill="#7c8082" fill-opacity="0.529412" cx="40" cy="10" rx="22" ry="9" />
<ellipse fill="#e7e2d6" fill-opacity="0.439216" cx="245" cy="47" rx="7" ry="12" />
<ellipse fill="#9a948b" fill-opacity="0.517647" cx="232" cy="73" rx="12" ry="7" />
<ellipse fill="#8a8883" fill-opacity="0.439216" cx="211" cy="109" rx="15" ry="8" />
<ellipse fill="#555451" fill-opacity="0.505882" cx="131" cy="50" rx="38" ry="9" />
<ellipse fill="#2f2f29" fill-opacity="0.643137" cx="0" cy="45" rx="12" ry="41" />
<ellipse fill="#31230a" fill-opacity="0.388235" cx="202" cy="0" rx="72" ry="7" />
<ellipse fill="#363731" fill-opacity="0.741176" cx="32" cy="108" rx="7" ry="28" />
<ellipse fill="#0c0700" fill-opacity="0.478431" cx="217" cy="50" rx="22" ry="3" />
<ellipse fill="#888989" fill-opacity="0.670588" cx="109" cy="68" rx="9" ry="5" />
<ellipse fill="#abafb1" fill-opacity="0.501961" cx="181" cy="21" rx="7" ry="11" />
<ellipse fill="#9c9b9a" fill-opacity="0.513725" cx="72" cy="92" rx="8" ry="5" />
<ellipse fill="#dee1da" fill-opacity="0.537255" cx="238" cy="25" rx="8" ry="4" />
<ellipse fill="#0f0e09" fill-opacity="0.741176" cx="168" cy="92" rx="6" ry="6" />
<ellipse fill="#858986" fill-opacity="0.439216" cx="13" cy="130" rx="13" ry="6" />
<ellipse fill="#48463e" fill-opacity="0.639216" cx="114" cy="83" rx="9" ry="15" />
<ellipse fill="#2a2616" fill-opacity="0.525490" cx="253" cy="30" rx="16" ry="3" />
<ellipse fill="#747572" fill-opacity="0.678431" cx="115" cy="122" rx="7" ry="9" />
<ellipse fill="#d2d6db" fill-opacity="0.345098" cx="88" cy="132" rx="16" ry="2" />
<ellipse fill="#98999a" fill-opacity="0.403922" cx="68" cy="69" rx="24" ry="6" />
<ellipse fill="#444038" fill-opacity="0.729412" cx="5" cy="77" rx="24" ry="7" />
<ellipse fill="#100d07" fill-opacity="0.400000" cx="96" cy="80" rx="5" ry="29" />
<ellipse fill="#2f281c" fill-opacity="0.490196" cx="206" cy="18" rx="14" ry="3" />
<ellipse fill="#2a2617" fill-opacity="0.572549" cx="159" cy="25" rx="15" ry="7" />
<ellipse fill="#181102" fill-opacity="0.305882" cx="58" cy="83" rx="10" ry="16" />
<ellipse fill="#060500" fill-opacity="0.419608" cx="47" cy="103" rx="4" ry="16" />
<ellipse fill="#898a8a" fill-opacity="0.623529" cx="145" cy="70" rx="10" ry="7" />
<ellipse fill="#888985" fill-opacity="0.470588" cx="155" cy="12" rx="19" ry="8" />
<ellipse fill="#19160b" fill-opacity="0.768627" cx="255" cy="5" rx="11" ry="21" />
<ellipse fill="#1b170e" fill-opacity="0.419608" cx="191" cy="36" rx="16" ry="4" />
<ellipse fill="#a4a7ad" fill-opacity="0.196078" cx="197" cy="58" rx="19" ry="7" />
<ellipse fill="#818382" fill-opacity="0.662745" cx="171" cy="117" rx="10" ry="5" />
<ellipse fill="#a5aebc" fill-opacity="0.333333" cx="44" cy="30" rx="13" ry="4" />
<ellipse fill="#221e16" fill-opacity="0.721569" cx="150" cy="62" rx="32" ry="2" />
<ellipse fill="#140f01" fill-opacity="0.466667" cx="158" cy="127" rx="17" ry="3" />
<ellipse fill="#070500" fill-opacity="0.600000" cx="77" cy="102" rx="4" ry="8" />
<ellipse fill="#2e271b" fill-opacity="0.427451" cx="225" cy="25" rx="6" ry="5" />
<ellipse fill="#b0b2ba" fill-opacity="0.384314" cx="15" cy="63" rx="11" ry="3" />
<ellipse fill="#1a1913" fill-opacity="0.490196" cx="95" cy="118" rx="12" ry="8" />
<ellipse fill="#423d2f" fill-opacity="0.498039" cx="233" cy="45" rx="7" ry="9" />
<ellipse fill="#1e1c10" fill-opacity="0.419608" cx="255" cy="66" rx="14" ry="12" />
<ellipse fill="#9ea3a7" fill-opacity="0.560784" cx="80" cy="43" rx="5" ry="7" />
<ellipse fill="#0f0e09" fill-opacity="0.615686" cx="237" cy="88" rx="7" ry="5" />
<ellipse fill="#ffffff" fill-opacity="0.635294" cx="241" cy="53" rx="5" ry="2" />
<ellipse fill="#fcfeff" fill-opacity="0.235294" cx="37" cy="118" rx="6" ry="3" />
<ellipse fill="#595954" fill-opacity="0.745098" cx="113" cy="10" rx="23" ry="4" />
<ellipse fill="#a5aaa6" fill-opacity="0.458824" cx="48" cy="142" rx="15" ry="2" />
<ellipse fill="#2a2721" fill-opacity="0.670588" cx="91" cy="59" rx="8" ry="9" />
<ellipse fill="#170f00" fill-opacity="0.447059" cx="215" cy="40" rx="16" ry="3" />
<ellipse fill="#c0c2bf" fill-opacity="0.435294" cx="203" cy="22" rx="2" ry="13" />
<ellipse fill="#1a1812" fill-opacity="0.631373" cx="214" cy="83" rx="6" ry="11" />
<ellipse fill="#807b6d" fill-opacity="0.509804" cx="255" cy="139" rx="15" ry="7" />
<ellipse fill="#8c8d8c" fill-opacity="0.647059" cx="145" cy="122" rx="20" ry="3" />
<ellipse fill="#b7bbbf" fill-opacity="0.478431" cx="77" cy="22" rx="8" ry="4" />
<ellipse fill="#a8a69d" fill-opacity="0.674510" cx="255" cy="102" rx="3" ry="7" />
<ellipse fill="#423722" fill-opacity="0.592157" cx="204" cy="5" rx="23" ry="5" />
<ellipse fill="#aaaeac" fill-opacity="0.513725" cx="188" cy="142" rx="6" ry="3" />
<ellipse fill="#030400" fill-opacity="0.556863" cx="17" cy="110" rx="7" ry="16" />
<ellipse fill="#24241b" fill-opacity="0.690196" cx="40" cy="135" rx="7" ry="5" />
<ellipse fill="#787775" fill-opacity="0.439216" cx="174" cy="80" rx="11" ry="9" />
</g>
</svg>