<svg xmlns="http://www.w3.org/2000/svg" version="1.1" width="144" height="256">
<rect x="0" y="0" width="144" height="256" fill="#f0f0f0" />
<g transform="scale(1.000000) translate(0.5 0.5)">
<ellipse fill="#0f110c" fill-opacity="0.619608" cx="57" cy="126" rx="143" ry="169" />
<ellipse fill="#050400" fill-opacity="0.560784" cx="36" cy="155" rx="67" ry="51" />
<ellipse fill="#dbdedf" fill-opacity="0.474510" cx="122" cy="64" rx="28" ry="104" />
<ellipse fill="#090d0e" fill-opacity="0.737255" cx="125" cy="200" rx="46" ry="33" />
<ellipse fill="#a09f97" fill-opacity="0.737255" cx="66" cy="75" rx="47" ry="35" />
<ellipse fill="#ced1ce" fill-opacity="0.513725" cx="54" cy="255" rx="108" ry="20" />
<ellipse fill="#00020a" fill-opacity="0.478431" cx="65" cy="0" rx="37" ry="30" />
<ellipse fill="#e1e3e8" fill-opacity="0.360784" cx="27" cy="40" rx="16" ry="33" />
<ellipse fill="#1b170e" fill-opacity="0.549020" cx="3" cy="107" rx="22" ry="57" />
<ellipse fill="#231f16" fill-opacity="0.450980" cx="79" cy="75" rx="23" ry="11" />
<ellipse fill="#4e493e" fill-opacity="0.568627" cx="79" cy="133" rx="38" ry="29" />
<ellipse fill="#81827e" fill-opacity="0.725490" cx="25" cy="224" rx="71" ry="20" />
<ellipse fill="#e6e3d8" fill-opacity="0.486275" cx="101" cy="45" rx="9" ry="28" />
<ellipse fill="#f9f6eb" fill-opacity="0.474510" cx="69" cy="99" rx="20" ry="7" />
<ellipse fill="#0a0e10" fill-opacity="0.345098" cx="54" cy="181" rx="30" ry="33" />
<ellipse fill="#d1d2cd" fill-opacity="0.619608" cx="111" cy="158" rx="9" ry="11" />
<ellipse fill="#343431" fill-opacity="1.000000" cx="1" cy="0" rx="5" ry="84" />
<ellipse fill="#434746" fill-opacity="0.690196" cx="120" cy="229" rx="29" ry="12" />
<ellipse fill="#b4b6b7" fill-opacity="0.200000" cx="6" cy="206" rx="38" ry="19" />
<ellipse fill="#a5a6a4" fill-opacity="0.490196" cx="48" cy="74" rx="14" ry="39" />
<ellipse fill="#4b4a4b" fill-opacity="0.541176" cx="73" cy="34" rx="20" ry="20" />
<ellipse fill="#020000" fill-opacity="0.403922" cx="47" cy="94" rx="7" ry="6" />
<ellipse fill="#bdc2c4" fill-opacity="0.529412" cx="120" cy="59" rx="6" ry="68" />
<ellipse fill="#5c6267" fill-opacity="0.541176" cx="110" cy="52" rx="4" ry="21" />
<ellipse fill="#686c6e" fill-opacity="0.650980" cx="140" cy="131" rx="5" ry="36" />
<ellipse fill="#05090b" fill-opacity="0.552941" cx="22" cy="151" rx="19" ry="20" />
<ellipse fill="#f9f2e4" fill-opacity="0.576471" cx="92" cy="104" rx="6" ry="4" />
<ellipse fill="#090d0d" fill-opacity="0.431373" cx="114" cy="190" rx="34" ry="23" />
<ellipse fill="#37332b" fill-opacity="0.592157" cx="99" cy="142" rx="15" ry="8" />
<ellipse fill="#979998" fill-opacity="0.478431" cx="0" cy="204" rx="5" ry="34" />
<ellipse fill="#b4b8b5" fill-opacity="0.447059" cx="87" cy="249" rx="20" ry="19" />
<ellipse fill="#413c33" fill-opacity="0.733333" cx="29" cy="114" rx="14" ry="16" />
<ellipse fill="#d9d7cf" fill-opacity="0.560784" cx="96" cy="53" rx="8" ry="16" />
<ellipse fill="#14171b" fill-opacity="0.549020" cx="68" cy="0" rx="36" ry="11" />
<ellipse fill="#5f5d56" fill-opacity="0.584314" cx="68" cy="69" rx="27" ry="6" />
<ellipse fill="#625e53" fill-opacity="0.470588" cx="93" cy="86" rx="15" ry="13" />
<ellipse fill="#48484b" fill-opacity="0.525490" cx="37" cy="0" rx="7" ry="30" />
<ellipse fill="#04080a" fill-opacity="0.564706" cx="9" cy="164" rx="5" ry="36" />
<ellipse fill="#ffffff" fill-opacity="0.266667" cx="51" cy="34" rx="2" ry="22" />
<ellipse fill="#e3e4e1" fill-opacity="0.462745" cx="132" cy="104" rx="4" ry="20" />
<ellipse fill="#808485" fill-opacity="0.552941" cx="111" cy="110" rx="9" ry="24" />
<ellipse fill="#b8bab7" fill-opacity="0.486275" cx="41" cy="55" rx="28" ry="8" />
<ellipse fill="#b1b3af" fill-opacity="0.568627" cx="131" cy="160" rx="8" ry="7" />
<ellipse fill="#0a0b01" fill-opacity="0.486275" cx="9" cy="219" rx="6" ry="3" />
<ellipse fill="#3c4143" fill-opacity="0.905882" cx="0" cy="3" rx="15" ry="13" />
<ellipse fill="#cececa" fill-opacity="0.486275" cx="48" cy="82" rx="11" ry="7" />
<ellipse fill="#3e3f3e" fill-opacity="0.462745" cx="57" cy="202" rx="32" ry="9" />
<ellipse fill="#3d3b34" fill-opacity="0.274510" cx="117" cy="138" rx="83" ry="4" />
<ellipse fill="#a0a2a1" fill-opacity="0.545098" cx="31" cy="51" rx="17" ry="28" />
<ellipse fill="#49463e" fill-opacity="0.670588" cx="81" cy="121" rx="26" ry="10" />
<ellipse fill="#d9d4c9" fill-opacity="0.541176" cx="64" cy="91" rx="8" ry="6" />
<ellipse fill="#9a9e95" fill-opacity="0.494118" cx="42" cy="110" rx="4" ry="5" />
<ellipse fill="#898a87" fill-opacity="0.400000" cx="71" cy="222" rx="2" ry="44" />
<ellipse fill="#c9cbc7" fill-opacity="0.349020" cx="105" cy="63" rx="30" ry="5" />
<ellipse fill="#5c5c54" fill-opacity="0.576471" cx="50" cy="225" rx="23" ry="4" />
<ellipse fill="#a7adae" fill-opacity="0.447059" cx="117" cy="250" rx="46" ry="11" />
<ellipse fill="#ece8da" fill-opacity="0.462745" cx="100" cy="103" rx="3" ry="13" />
<ellipse fill="#3e3c33" fill-opacity="0.745098" cx="84" cy="160" rx="20" ry="9" />
<ellipse fill="#454035" fill-opacity="0.615686" cx="14" cy="94" rx="12" ry="24" />
<ellipse fill="#484849" fill-opacity="0.447059" cx="67" cy="24" rx="31" ry="8" />
<ellipse fill="#636a71" fill-opacity="0.494118" cx="10" cy="24" rx="7" ry="16" />
<ellipse fill="#edede7" fill-opacity="0.203922" cx="16" cy="213" rx="11" ry="5" />
<ellipse fill="#c8cac9" fill-opacity="0.301961" cx="84" cy="219" rx="14" ry="3" />
<ellipse fill="#262824" fill-opacity="0.603922" cx="130" cy="173" rx="23" ry="7" />
<ellipse fill="#ffffff" fill-opacity="0.541176" cx="104" cy="166" rx="2" ry="2" />
<ellipse fill="#838a90" fill-opacity="0.474510" cx="126" cy="79" rx="3" ry="31" />
<ellipse fill="#3c382c" fill-opacity="0.623529" cx="74" cy="116" rx="4" ry="13" />
<ellipse fill="#181812" fill-opacity="0.498039" cx="105" cy="96" rx="2" ry="5" />
<ellipse fill="#b6bcc0" fill-opacity="0.596078" cx="135" cy="52" rx="7" ry="10" />
<ellipse fill="#cdc9bf" fill-opacity="0.611765" cx="80" cy="98" rx="6" ry="8" />
<ellipse fill="#0d1010" fill-opacity="0.545098" cx="53" cy="168" rx="16" ry="12" />
<ellipse fill="#babcb3" fill-opacity="0.596078" cx="50" cy="104" rx="5" ry="7" />
<ellipse fill="#6f6f68" fill-opacity="0.431373" cx="35" cy="43" rx="7" ry="8" />
<ellipse fill="#b7b8b4" fill-opacity="0.470588" cx="108" cy="87" rx="22" ry="3" />
<ellipse fill="#939694" fill-opacity="0.596078" cx="121" cy="130" rx="20" ry="6" />
<ellipse fill="#000000" fill-opacity="0.407843" cx="0" cy="24" rx="3" ry="20" />
<ellipse fill="#b4b7b6" fill-opacity="0.580392" cx="26" cy="60" rx="9" ry="15" />
<ellipse fill="#dadddd" fill-opacity="0.364706" cx="119" cy="56" rx="5" ry="20" />
<ellipse fill="#e3e7ed" fill-opacity="0.498039" cx="53" cy="47" rx="4" ry="5" />
<ellipse fill="#767871" fill-opacity="0.376471" cx="55" cy="118" rx="14" ry="3" />
<ellipse fill="#504c44" fill-opacity="0.490196" cx="65" cy="68" rx="8" ry="9" />
<ellipse fill="#0c0f10" fill-opacity="0.392157" cx="30" cy="180" rx="5" ry="28" />
<ellipse fill="#a2a7aa" fill-opacity="0.392157" cx="119" cy="11" rx="23" ry="12" />
<ellipse fill="#aeb0af" fill-opacity="0.701961" cx="27" cy="66" rx="5" ry="21" />
<ellipse fill="#fffdf2" fill-opacity="0.388235" cx="72" cy="59" rx="5" ry="3" />
<ellipse fill="#5f656a" fill-opacity="0.478431" cx="111" cy="45" rx="3" ry="23" />
<ellipse fill="#c7cac9" fill-opacity="0.372549" cx="125" cy="118" rx="9" ry="10" />
<ellipse fill="#928d85" fill-opacity="0.215686" cx="24" cy="188" rx="2" ry="35" />
<ellipse fill="#34393b" fill-opacity="0.639216" cx="111" cy="228" rx="14" ry="11" />
<ellipse fill="#bdbfbd" fill-opacity="0.482353" cx="112" cy="74" rx="9" ry="8" />
<ellipse fill="#9c9e9e" fill-opacity="0.568627" cx="22" cy="29" rx="7" ry="26" />
<ellipse fill="#4c4f4e" fill-opacity="0.694118" cx="84" cy="209" rx="4" ry="6" />
<ellipse fill="#66645c" fill-opacity="0.517647" cx="86" cy="83" rx="23" ry="5" />
<ellipse fill="#414341" fill-opacity="0.470588" cx="3" cy="162" rx="3" ry="19" />
<ellipse fill="#84837c" fill-opacity="0.474510" cx="70" cy="106" rx="2" ry="6" />
<ellipse fill="#a6a397" fill-opacity="0.498039" cx="94" cy="86" rx="9" ry="4" />
<ellipse fill="#878c8f" fill-opacity="0.607843" cx="142" cy="106" rx="7" ry="18" />
<ellipse fill="#33332f" fill-opacity="0.415686" cx="96" cy="76" rx="7" ry="6" />
<ellipse fill="#c8c8c3" fill-opacity="0.564706" cx="109" cy="159" rx="5" ry="10" />
<ellipse fill="#cac8c0" fill-opacity="0.482353" cx="99" cy="39" rx="8" ry="16" />
</g>
</svg>