<svg xmlns="http://www.w3.org/2000/svg" version="1.1" width="149" height="256">
<rect x="0" y="0" width="149" height="256" fill="#f0f0f0" />
<g transform="scale(1.000000) translate(0.5 0.5)">
<ellipse fill="#242015" fill-opacity="0.745098" cx="58" cy="118" rx="145" ry="181" />
<ellipse fill="#ecedf0" fill-opacity="0.525490" cx="87" cy="189" rx="13" ry="32" />
<ellipse fill="#a7acac" fill-opacity="0.513725" cx="90" cy="251" rx="71" ry="27" />
<ellipse fill="#130e02" fill-opacity="0.521569" cx="13" cy="58" rx="28" ry="106" />
<ellipse fill="#bfbcbc" fill-opacity="0.450980" cx="65" cy="116" rx="13" ry="61" />
<ellipse fill="#cdc8bc" fill-opacity="0.396078" cx="139" cy="105" rx="18" ry="55" />
<ellipse fill="#0f0d05" fill-opacity="0.674510" cx="9" cy="222" rx="12" ry="69" />
<ellipse fill="#110a00" fill-opacity="0.537255" cx="94" cy="66" rx="18" ry="26" />
<ellipse fill="#150e00" fill-opacity="0.454902" cx="124" cy="183" rx="17" ry="39" />
<ellipse fill="#161306" fill-opacity="0.635294" cx="148" cy="5" rx="29" ry="41" />
<ellipse fill="#bab7b7" fill-opacity="0.376471" cx="32" cy="197" rx="7" ry="62" />
<ellipse fill="#3f3b2f" fill-opacity="1.000000" cx="38" cy="19" rx="23" ry="72" />
<ellipse fill="#070000" fill-opacity="0.447059" cx="52" cy="181" rx="11" ry="26" />
<ellipse fill="#0d0a01" fill-opacity="0.552941" cx="91" cy="139" rx="14" ry="16" />
<ellipse fill="#84817f" fill-opacity="0.772549" cx="71" cy="201" rx="8" ry="53" />
<ellipse fill="#b2b1aa" fill-opacity="0.603922" cx="148" cy="219" rx="4" ry="89" />
<ellipse fill="#1f1c13" fill-opacity="0.650980" cx="0" cy="225" rx="31" ry="32" />
<ellipse fill="#090300" fill-opacity="0.470588" cx="118" cy="119" rx="6" ry="26" />
<ellipse fill="#9c9a99" fill-opacity="0.670588" cx="100" cy="171" rx="6" ry="23" />
<ellipse fill="#e0e8d7" fill-opacity="0.172549" cx="117" cy="44" rx="15" ry="25" />
<ellipse fill="#282112" fill-opacity="0.521569" cx="144" cy="77" rx="10" ry="12" />
<ellipse fill="#1c150a" fill-opacity="0.478431" cx="81" cy="228" rx="9" ry="11" />
<ellipse fill="#322e27" fill-opacity="0.827451" cx="43" cy="162" rx="8" ry="30" />
<ellipse fill="#e6e9ec" fill-opacity="0.360784" cx="58" cy="143" rx="7" ry="20" />
<ellipse fill="#868581" fill-opacity="0.631373" cx="72" cy="104" rx="33" ry="11" />
<ellipse fill="#201c15" fill-opacity="0.654902" cx="56" cy="209" rx="6" ry="27" />
<ellipse fill="#acb3b7" fill-opacity="0.392157" cx="31" cy="196" rx="13" ry="14" />
<ellipse fill="#110c00" fill-opacity="0.458824" cx="83" cy="38" rx="11" ry="15" />
<ellipse fill="#72726f" fill-opacity="0.992157" cx="44" cy="224" rx="7" ry="24" />
<ellipse fill="#fffeff" fill-opacity="0.235294" cx="134" cy="132" rx="8" ry="22" />
<ellipse fill="#040600" fill-opacity="0.509804" cx="0" cy="0" rx="20" ry="47" />
<ellipse fill="#2b261a" fill-opacity="0.549020" cx="132" cy="218" rx="8" ry="20" />
<ellipse fill="#fff9ea" fill-opacity="0.701961" cx="23" cy="255" rx="6" ry="6" />
<ellipse fill="#342c22" fill-opacity="0.525490" cx="86" cy="88" rx="33" ry="5" />
<ellipse fill="#b0b4b2" fill-opacity="0.486275" cx="93" cy="223" rx="5" ry="40" />
<ellipse fill="#989a96" fill-opacity="0.631373" cx="118" cy="243" rx="8" ry="27" />
<ellipse fill="#939085" fill-opacity="0.466667" cx="68" cy="63" rx="8" ry="30" />
<ellipse fill="#252116" fill-opacity="0.662745" cx="93" cy="128" rx="8" ry="21" />
<ellipse fill="#2c241d" fill-opacity="0.447059" cx="81" cy="153" rx="13" ry="9" />
<ellipse fill="#aca499" fill-opacity="0.341176" cx="127" cy="79" rx="10" ry="26" />
<ellipse fill="#484135" fill-opacity="0.474510" cx="123" cy="199" rx="26" ry="19" />
<ellipse fill="#2c2619" fill-opacity="0.529412" cx="110" cy="81" rx="6" ry="30" />
<ellipse fill="#1e1102" fill-opacity="0.282353" cx="143" cy="159" rx="4" ry="27" />
<ellipse fill="#322e26" fill-opacity="0.768627" cx="0" cy="165" rx="26" ry="23" />
<ellipse fill="#444034" fill-opacity="0.984314" cx="56" cy="14" rx="19" ry="17" />
<ellipse fill="#ffffff" fill-opacity="0.447059" cx="32" cy="237" rx="4" ry="7" />
<ellipse fill="#b9b8b9" fill-opacity="0.525490" cx="28" cy="171" rx="3" ry="23" />
<ellipse fill="#f9faf4" fill-opacity="0.294118" cx="146" cy="225" rx="4" ry="17" />
<ellipse fill="#1d1509" fill-opacity="0.529412" cx="49" cy="128" rx="5" ry="11" />
<ellipse fill="#2d281f" fill-opacity="0.454902" cx="12" cy="219" rx="24" ry="20" />
<ellipse fill="#c3bdba" fill-opacity="0.415686" cx="82" cy="174" rx="10" ry="17" />
<ellipse fill="#020400" fill-opacity="0.501961" cx="123" cy="159" rx="6" ry="17" />
<ellipse fill="#372e24" fill-opacity="0.415686" cx="52" cy="180" rx="18" ry="14" />
<ellipse fill="#848581" fill-opacity="0.537255" cx="39" cy="124" rx="5" ry="15" />
<ellipse fill="#979d95" fill-opacity="0.329412" cx="110" cy="33" rx="11" ry="16" />
<ellipse fill="#2a2719" fill-opacity="0.282353" cx="137" cy="0" rx="25" ry="53" />
<ellipse fill="#342b1e" fill-opacity="0.466667" cx="32" cy="76" rx="27" ry="20" />
<ellipse fill="#545248" fill-opacity="0.423529" cx="23" cy="39" rx="13" ry="27" />
<ellipse fill="#969a96" fill-opacity="0.686275" cx="91" cy="243" rx="34" ry="6" />
<ellipse fill="#322a1e" fill-opacity="0.443137" cx="132" cy="170" rx="3" ry="34" />
<ellipse fill="#4e493e" fill-opacity="0.600000" cx="126" cy="113" rx="3" ry="13" />
<ellipse fill="#dfe3e0" fill-opacity="0.227451" cx="133" cy="115" rx="5" ry="25" />
<ellipse fill="#9ea39d" fill-opacity="0.345098" cx="148" cy="8" rx="3" ry="16" />
<ellipse fill="#7c7b75" fill-opacity="0.545098" cx="108" cy="132" rx="4" ry="20" />
<ellipse fill="#d5d7db" fill-opacity="0.482353" cx="60" cy="131" rx="5" ry="12" />
<ellipse fill="#2e2c25" fill-opacity="0.588235" cx="50" cy="234" rx="8" ry="3" />
<ellipse fill="#99a0a1" fill-opacity="0.525490" cx="67" cy="234" rx="4" ry="28" />
<ellipse fill="#e7ddcd" fill-opacity="0.525490" cx="27" cy="253" rx="4" ry="12" />
<ellipse fill="#3e3324" fill-opacity="0.415686" cx="148" cy="115" rx="11" ry="5" />
<ellipse fill="#777c79" fill-opacity="0.666667" cx="148" cy="255" rx="85" ry="10" />
<ellipse fill="#a3a097" fill-opacity="0.533333" cx="62" cy="61" rx="6" ry="8" />
<ellipse fill="#4d463d" fill-opacity="0.376471" cx="105" cy="218" rx="11" ry="17" />
<ellipse fill="#c4c6c6" fill-opacity="0.545098" cx="90" cy="207" rx="5" ry="18" />
<ellipse fill="#221e17" fill-opacity="0.666667" cx="27" cy="107" rx="10" ry="20" />
<ellipse fill="#b0ada9" fill-opacity="0.701961" cx="52" cy="145" rx="3" ry="7" />
<ellipse fill="#363b36" fill-opacity="0.501961" cx="33" cy="250" rx="5" ry="3" />
<ellipse fill="#36322b" fill-opacity="0.388235" cx="81" cy="148" rx="8" ry="16" />
<ellipse fill="#020500" fill-opacity="0.235294" cx="114" cy="0" rx="30" ry="8" />
<ellipse fill="#2f2e27" fill-opacity="0.694118" cx="57" cy="228" rx="7" ry="6" />
<ellipse fill="#7b7673" fill-opacity="0.423529" cx="63" cy="159" rx="7" ry="16" />
<ellipse fill="#585c57" fill-opacity="0.501961" cx="37" cy="247" rx="6" ry="6" />
<ellipse fill="#9b9b9a" fill-opacity="0.439216" cx="49" cy="107" rx="10" ry="7" />
<ellipse fill="#252116" fill-opacity="0.313725" cx="134" cy="171" rx="33" ry="8" />
<ellipse fill="#231a0e" fill-opacity="0.458824" cx="140" cy="104" rx="4" ry="5" />
<ellipse fill="#0f0d05" fill-opacity="0.552941" cx="99" cy="75" rx="7" ry="11" />
<ellipse fill="#90918b" fill-opacity="0.478431" cx="99" cy="102" rx="5" ry="11" />
<ellipse fill="#878683" fill-opacity="0.576471" cx="69" cy="108" rx="19" ry="17" />
<ellipse fill="#57534f" fill-opacity="0.145098" cx="0" cy="139" rx="42" ry="31" />
<ellipse fill="#8e8e85" fill-opacity="0.658824" cx="141" cy="60" rx="23" ry="8" />
<ellipse fill="#1d1b12" fill-opacity="0.533333" cx="45" cy="143" rx="5" ry="16" />
<ellipse fill="#1e1e16" fill-opacity="0.549020" cx="137" cy="222" rx="4" ry="14" />
<ellipse fill="#2f291e" fill-opacity="0.533333" cx="85" cy="229" rx="6" ry="7" />
<ellipse fill="#635c50" fill-opacity="0.470588" cx="54" cy="89" rx="10" ry="12" />
<ellipse fill="#141309" fill-opacity="0.545098" cx="6" cy="3" rx="26" ry="9" />
<ellipse fill="#272216" fill-opacity="0.541176" cx="43" cy="36" rx="8" ry="13" />
<ellipse fill="#999e9e" fill-opacity="0.458824" cx="27" cy="191" rx="10" ry="9" />
<ellipse fill="#4a4439" fill-opacity="0.498039" cx="111" cy="181" rx="7" ry="39" />
<ellipse fill="#636457" fill-opacity="0.345098" cx="99" cy="19" rx="26" ry="13" />
<ellipse fill="#e9f8ff" fill-opacity="0.309804" cx="91" cy="165" rx="11" ry="3" />
<ellipse fill="#969694" fill-opacity="0.478431" cx="95" cy="195" rx="3" ry="40" />
</g>
</svg>