<svg xmlns="http://www.w3.org/2000/svg" version="1.1" width="256" height="143">
<rect x="0" y="0" width="256" height="143" fill="#f0f0f0" />
<g transform="scale(1.000000) translate(0.5 0.5)">
<ellipse fill="#050a01" fill-opacity="0.643137" cx="173" cy="69" rx="222" ry="134" />
<ellipse fill="#cdd1c2" fill-opacity="0.407843" cx="81" cy="129" rx="36" ry="36" />
<ellipse fill="#242a2a" fill-opacity="0.658824" cx="147" cy="29" rx="47" ry="40" />
<ellipse fill="#8d8f80" fill-opacity="0.454902" cx="20" cy="69" rx="113" ry="27" />
<ellipse fill="#2f3531" fill-opacity="0.670588" cx="58" cy="10" rx="54" ry="24" />
<ellipse fill="#fffbe0" fill-opacity="0.196078" cx="172" cy="134" rx="83" ry="11" />
<ellipse fill="#0d2400" fill-opacity="0.501961" cx="0" cy="111" rx="35" ry="18" />
<ellipse fill="#191f29" fill-opacity="0.325490" cx="187" cy="77" rx="25" ry="52" />
<ellipse fill="#e9ecfb" fill-opacity="0.458824" cx="99" cy="125" rx="8" ry="20" />
<ellipse fill="#000b06" fill-opacity="0.564706" cx="54" cy="34" rx="13" ry="14" />
<ellipse fill="#e7ddd6" fill-opacity="0.415686" cx="154" cy="115" rx="5" ry="24" />
<ellipse fill="#bbb8b9" fill-opacity="0.427451" cx="252" cy="102" rx="10" ry="24" />
<ellipse fill="#000000" fill-opacity="0.262745" cx="120" cy="107" rx="21" ry="18" />
<ellipse fill="#95918a" fill-opacity="0.760784" cx="217" cy="117" rx="5" ry="36" />
<ellipse fill="#737561" fill-opacity="1.000000" cx="17" cy="139" rx="62" ry="12" />
<ellipse fill="#888a88" fill-opacity="0.513725" cx="7" cy="41" rx="36" ry="20" />
<ellipse fill="#585c46" fill-opacity="0.517647" cx="73" cy="109" rx="13" ry="13" />
<ellipse fill="#101719" fill-opacity="0.486275" cx="156" cy="49" rx="20" ry="22" />
<ellipse fill="#293137" fill-opacity="0.478431" cx="222" cy="47" rx="28" ry="13" />
<ellipse fill="#484f53" fill-opacity="0.447059" cx="185" cy="8" rx="78" ry="19" />
<ellipse fill="#9a9ea4" fill-opacity="0.529412" cx="48" cy="60" rx="22" ry="8" />
<ellipse fill="#6b6d6d" fill-opacity="0.545098" cx="186" cy="68" rx="10" ry="22" />
<ellipse fill="#242319" fill-opacity="0.333333" cx="138" cy="124" rx="13" ry="15" />
<ellipse fill="#525b3c" fill-opacity="0.509804" cx="51" cy="81" rx="38" ry="7" />
<ellipse fill="#212526" fill-opacity="0.427451" cx="228" cy="97" rx="8" ry="19" />
<ellipse fill="#000702" fill-opacity="0.478431" cx="174" cy="100" rx="8" ry="9" />
<ellipse fill="#0b1508" fill-opacity="0.541176" cx="11" cy="7" rx="9" ry="10" />
<ellipse fill="#dfe3ea" fill-opacity="0.450980" cx="92" cy="113" rx="6" ry="11" />
<ellipse fill="#7d7c7c" fill-opacity="0.450980" cx="100" cy="54" rx="18" ry="16" />
<ellipse fill="#686a63" fill-opacity="0.545098" cx="217" cy="124" rx="60" ry="9" />
<ellipse fill="#454d34" fill-opacity="0.403922" cx="84" cy="124" rx="6" ry="12" />
<ellipse fill="#73746e" fill-opacity="0.513725" cx="36" cy="28" rx="7" ry="20" />
<ellipse fill="#a3a3a7" fill-opacity="0.356863" cx="214" cy="69" rx="9" ry="9" />
<ellipse fill="#09100f" fill-opacity="0.349020" cx="113" cy="28" rx="20" ry="10" />
<ellipse fill="#959b9a" fill-opacity="0.482353" cx="66" cy="92" rx="16" ry="7" />
<ellipse fill="#3c3f3f" fill-opacity="0.588235" cx="66" cy="30" rx="7" ry="28" />
<ellipse fill="#212920" fill-opacity="0.490196" cx="111" cy="94" rx="11" ry="9" />
<ellipse fill="#c1ae99" fill-opacity="0.329412" cx="197" cy="141" rx="38" ry="6" />
<ellipse fill="#666a5a" fill-opacity="0.709804" cx="46" cy="140" rx="8" ry="37" />
<ellipse fill="#2c384a" fill-opacity="0.427451" cx="238" cy="9" rx="28" ry="11" />
<ellipse fill="#777b7d" fill-opacity="0.560784" cx="241" cy="30" rx="20" ry="6" />
<ellipse fill="#585a62" fill-opacity="0.403922" cx="80" cy="7" rx="13" ry="46" />
<ellipse fill="#888b8f" fill-opacity="0.482353" cx="74" cy="64" rx="29" ry="9" />
<ellipse fill="#2f3f1d" fill-opacity="0.623529" cx="0" cy="106" rx="9" ry="23" />
<ellipse fill="#222529" fill-opacity="0.552941" cx="157" cy="84" rx="6" ry="8" />
<ellipse fill="#747572" fill-opacity="0.290196" cx="194" cy="15" rx="16" ry="17" />
<ellipse fill="#6b6c6f" fill-opacity="0.501961" cx="134" cy="82" rx="14" ry="13" />
<ellipse fill="#5a574b" fill-opacity="0.537255" cx="149" cy="138" rx="6" ry="11" />
<ellipse fill="#adaba2" fill-opacity="0.274510" cx="114" cy="135" rx="10" ry="20" />
<ellipse fill="#eceffe" fill-opacity="0.423529" cx="87" cy="103" rx="4" ry="5" />
<ellipse fill="#7a7970" fill-opacity="0.560784" cx="0" cy="25" rx="16" ry="12" />
<ellipse fill="#969078" fill-opacity="0.525490" cx="17" cy="84" rx="10" ry="7" />
<ellipse fill="#6f7260" fill-opacity="0.662745" cx="54" cy="103" rx="25" ry="7" />
<ellipse fill="#687060" fill-opacity="0.560784" cx="96" cy="96" rx="9" ry="9" />
<ellipse fill="#171c1e" fill-opacity="0.305882" cx="195" cy="95" rx="9" ry="17" />
<ellipse fill="#696b71" fill-opacity="0.525490" cx="186" cy="75" rx="40" ry="3" />
<ellipse fill="#7d7d76" fill-opacity="0.458824" cx="162" cy="128" rx="6" ry="45" />
<ellipse fill="#989680" fill-opacity="0.533333" cx="23" cy="134" rx="14" ry="6" />
<ellipse fill="#131d13" fill-opacity="0.541176" cx="25" cy="19" rx="6" ry="7" />
<ellipse fill="#555758" fill-opacity="0.356863" cx="123" cy="68" rx="22" ry="15" />
<ellipse fill="#141e1e" fill-opacity="0.886275" cx="167" cy="58" rx="6" ry="14" />
<ellipse fill="#86837c" fill-opacity="0.372549" cx="128" cy="71" rx="2" ry="32" />
<ellipse fill="#e7e0da" fill-opacity="0.447059" cx="152" cy="107" rx="2" ry="12" />
<ellipse fill="#9fa09f" fill-opacity="0.505882" cx="210" cy="35" rx="2" ry="8" />
<ellipse fill="#7c7f7f" fill-opacity="0.745098" cx="40" cy="50" rx="15" ry="7" />
<ellipse fill="#b0aca5" fill-opacity="0.533333" cx="217" cy="103" rx="4" ry="14" />
<ellipse fill="#081708" fill-opacity="0.509804" cx="6" cy="106" rx="22" ry="4" />
<ellipse fill="#262c2f" fill-opacity="0.560784" cx="201" cy="49" rx="7" ry="17" />
<ellipse fill="#cfd4d6" fill-opacity="0.756863" cx="105" cy="142" rx="4" ry="10" />
<ellipse fill="#626558" fill-opacity="0.466667" cx="132" cy="3" rx="13" ry="10" />
<ellipse fill="#5c614f" fill-opacity="0.329412" cx="90" cy="140" rx="6" ry="11" />
<ellipse fill="#3e4126" fill-opacity="0.317647" cx="34" cy="114" rx="9" ry="19" />
<ellipse fill="#333731" fill-opacity="1.000000" cx="33" cy="0" rx="35" ry="5" />
<ellipse fill="#2d4426" fill-opacity="0.521569" cx="68" cy="82" rx="11" ry="3" />
<ellipse fill="#1d2f00" fill-opacity="0.419608" cx="26" cy="75" rx="6" ry="4" />
<ellipse fill="#4e5458" fill-opacity="0.490196" cx="249" cy="86" rx="3" ry="22" />
<ellipse fill="#fff6ff" fill-opacity="0.152941" cx="51" cy="111" rx="6" ry="6" />
<ellipse fill="#202b00" fill-opacity="0.364706" cx="254" cy="142" rx="20" ry="4" />
<ellipse fill="#474a48" fill-opacity="0.490196" cx="182" cy="54" rx="11" ry="11" />
<ellipse fill="#9a8d7e" fill-opacity="0.470588" cx="46" cy="77" rx="13" ry="3" />
<ellipse fill="#252b26" fill-opacity="0.552941" cx="126" cy="109" rx="10" ry="8" />
<ellipse fill="#203200" fill-opacity="0.588235" cx="5" cy="71" rx="3" ry="3" />
<ellipse fill="#62635e" fill-opacity="0.607843" cx="185" cy="116" rx="30" ry="3" />
<ellipse fill="#465332" fill-opacity="0.619608" cx="14" cy="123" rx="17" ry="6" />
<ellipse fill="#2d3331" fill-opacity="0.682353" cx="231" cy="84" rx="12" ry="4" />
<ellipse fill="#737577" fill-opacity="0.462745" cx="177" cy="88" rx="5" ry="6" />
<ellipse fill="#383b2c" fill-opacity="0.439216" cx="99" cy="88" rx="21" ry="3" />
<ellipse fill="#4b4d4d" fill-opacity="0.431373" cx="202" cy="115" rx="12" ry="16" />
<ellipse fill="#6e7360" fill-opacity="0.925490" cx="78" cy="116" rx="8" ry="13" />
<ellipse fill="#151e1a" fill-opacity="0.509804" cx="60" cy="38" rx="5" ry="12" />
<ellipse fill="#a5a29c" fill-opacity="0.423529" cx="253" cy="113" rx="9" ry="10" />
<ellipse fill="#707360" fill-opacity="0.690196" cx="244" cy="130" rx="19" ry="9" />
<ellipse fill="#5a5f64" fill-opacity="0.552941" cx="255" cy="63" rx="21" ry="19" />
<ellipse fill="#030f0a" fill-opacity="0.419608" cx="171" cy="101" rx="4" ry="13" />
<ellipse fill="#0a170b" fill-opacity="0.611765" cx="16" cy="15" rx="6" ry="5" />
<ellipse fill="#646767" fill-opacity="0.537255" cx="80" cy="47" rx="10" ry="21" />
<ellipse fill="#afb0af" fill-opacity="0.525490" cx="255" cy="87" rx="6" ry="5" />
<ellipse fill="#2d3013" fill-opacity="0.501961" cx="28" cy="67" rx="6" ry="2" />
<ellipse fill="#fff8ff" fill-opacity="0.113725" cx="54" cy="127" rx="21" ry="3" />
<ellipse fill="#353c42" fill-opacity="0.533333" cx="230" cy="63" rx="6" ry="12" />
</g>
</svg>