<svg xmlns="http://www.w3.org/2000/svg" version="1.1" width="256" height="143">
<rect x="0" y="0" width="256" height="143" fill="#f0f0f0" />
<g transform="scale(1.000000) translate(0.5 0.5)">
<ellipse fill="#5a5c57" fill-opacity="0.709804" cx="122" cy="66" rx="212" ry="99" />
<ellipse fill="#d6dde2" fill-opacity="0.431373" cx="36" cy="48" rx="57" ry="39" />
<ellipse fill="#2d2f2b" fill-opacity="0.521569" cx="233" cy="7" rx="40" ry="42" />
<ellipse fill="#4f4d47" fill-opacity="0.588235" cx="182" cy="133" rx="33" ry="39" />
<ellipse fill="#575753" fill-opacity="0.470588" cx="138" cy="78" rx="46" ry="29" />
<ellipse fill="#adada8" fill-opacity="0.403922" cx="35" cy="129" rx="70" ry="29" />
<ellipse fill="#80746d" fill-opacity="0.737255" cx="78" cy="76" rx="10" ry="28" />
<ellipse fill="#ccd1d2" fill-opacity="0.478431" cx="13" cy="59" rx="26" ry="29" />
<ellipse fill="#060500" fill-opacity="0.576471" cx="129" cy="0" rx="15" ry="5" />
<ellipse fill="#9a9e9f" fill-opacity="0.745098" cx="66" cy="21" rx="86" ry="15" />
<ellipse fill="#afafa5" fill-opacity="0.450980" cx="247" cy="0" rx="14" ry="18" />
<ellipse fill="#2f2c22" fill-opacity="0.517647" cx="10" cy="0" rx="25" ry="7" />
<ellipse fill="#070a07" fill-opacity="0.513725" cx="255" cy="27" rx="17" ry="10" />
<ellipse fill="#070206" fill-opacity="0.462745" cx="43" cy="64" rx="4" ry="10" />
<ellipse fill="#a9aba8" fill-opacity="0.341176" cx="197" cy="33" rx="41" ry="7" />
<ellipse fill="#444744" fill-opacity="0.501961" cx="28" cy="138" rx="8" ry="13" />
<ellipse fill="#a9aba8" fill-opacity="0.427451" cx="202" cy="79" rx="19" ry="23" />
<ellipse fill="#6e695f" fill-opacity="0.737255" cx="87" cy="106" rx="54" ry="4" />
<ellipse fill="#cbd3d5" fill-opacity="0.470588" cx="0" cy="93" rx="87" ry="3" />
<ellipse fill="#4c504d" fill-opacity="0.466667" cx="166" cy="70" rx="11" ry="29" />
<ellipse fill="#73736c" fill-opacity="0.682353" cx="21" cy="81" rx="49" ry="2" />
<ellipse fill="#31322d" fill-opacity="0.407843" cx="210" cy="13" rx="22" ry="16" />
<ellipse fill="#d2d2cb" fill-opacity="0.427451" cx="154" cy="1" rx="9" ry="16" />
<ellipse fill="#ced5dd" fill-opacity="0.360784" cx="76" cy="19" rx="9" ry="30" />
<ellipse fill="#323c44" fill-opacity="0.501961" cx="66" cy="44" rx="4" ry="9" />
<ellipse fill="#787a76" fill-opacity="0.650980" cx="131" cy="118" rx="29" ry="80" />
<ellipse fill="#e3dbcf" fill-opacity="0.529412" cx="17" cy="139" rx="3" ry="38" />
<ellipse fill="#c6cacc" fill-opacity="0.549020" cx="33" cy="42" rx="8" ry="37" />
<ellipse fill="#333e49" fill-opacity="0.466667" cx="22" cy="8" rx="4" ry="14" />
<ellipse fill="#5a574e" fill-opacity="0.501961" cx="196" cy="140" rx="31" ry="27" />
<ellipse fill="#d0d5d6" fill-opacity="0.501961" cx="55" cy="60" rx="6" ry="24" />
<ellipse fill="#5f615b" fill-opacity="0.505882" cx="252" cy="84" rx="17" ry="14" />
<ellipse fill="#b8bbbe" fill-opacity="0.223529" cx="145" cy="119" rx="20" ry="15" />
<ellipse fill="#363f3e" fill-opacity="0.600000" cx="81" cy="86" rx="22" ry="2" />
<ellipse fill="#412320" fill-opacity="0.525490" cx="90" cy="77" rx="12" ry="3" />
<ellipse fill="#1c232e" fill-opacity="0.635294" cx="76" cy="57" rx="4" ry="9" />
<ellipse fill="#d7ba96" fill-opacity="0.501961" cx="67" cy="72" rx="12" ry="8" />
<ellipse fill="#737672" fill-opacity="0.698039" cx="7" cy="142" rx="11" ry="14" />
<ellipse fill="#6f716e" fill-opacity="0.607843" cx="214" cy="39" rx="11" ry="20" />
<ellipse fill="#3f4244" fill-opacity="0.501961" cx="159" cy="23" rx="7" ry="7" />
<ellipse fill="#fbffff" fill-opacity="0.592157" cx="73" cy="43" rx="5" ry="6" />
<ellipse fill="#444842" fill-opacity="0.494118" cx="33" cy="98" rx="28" ry="2" />
<ellipse fill="#2c2930" fill-opacity="0.470588" cx="72" cy="33" rx="6" ry="3" />
<ellipse fill="#c3d0d3" fill-opacity="0.454902" cx="88" cy="90" rx="18" ry="2" />
<ellipse fill="#698154" fill-opacity="0.400000" cx="44" cy="13" rx="5" ry="31" />
<ellipse fill="#aab0b1" fill-opacity="0.478431" cx="189" cy="62" rx="13" ry="9" />
<ellipse fill="#bfc1c9" fill-opacity="0.529412" cx="43" cy="51" rx="27" ry="7" />
<ellipse fill="#b7b0a3" fill-opacity="0.462745" cx="210" cy="105" rx="11" ry="7" />
<ellipse fill="#d0c2ac" fill-opacity="0.411765" cx="66" cy="101" rx="23" ry="3" />
<ellipse fill="#848481" fill-opacity="0.705882" cx="111" cy="48" rx="11" ry="27" />
<ellipse fill="#f6f4ea" fill-opacity="0.435294" cx="34" cy="103" rx="13" ry="2" />
<ellipse fill="#6a6b6e" fill-opacity="0.592157" cx="92" cy="31" rx="6" ry="9" />
<ellipse fill="#4b4b47" fill-opacity="0.647059" cx="0" cy="8" rx="2" ry="24" />
<ellipse fill="#e5e6df" fill-opacity="0.447059" cx="5" cy="106" rx="14" ry="3" />
<ellipse fill="#000500" fill-opacity="0.266667" cx="1" cy="90" rx="31" ry="2" />
<ellipse fill="#4d524f" fill-opacity="0.482353" cx="92" cy="95" rx="34" ry="2" />
<ellipse fill="#59554b" fill-opacity="0.415686" cx="158" cy="98" rx="36" ry="8" />
<ellipse fill="#101c2b" fill-opacity="0.513725" cx="58" cy="12" rx="3" ry="5" />
<ellipse fill="#9a9a92" fill-opacity="0.345098" cx="247" cy="58" rx="31" ry="16" />
<ellipse fill="#a6adae" fill-opacity="0.435294" cx="77" cy="142" rx="36" ry="14" />
<ellipse fill="#8b8d89" fill-opacity="0.525490" cx="155" cy="46" rx="10" ry="20" />
<ellipse fill="#30302c" fill-opacity="0.576471" cx="155" cy="72" rx="7" ry="4" />
<ellipse fill="#c8ccca" fill-opacity="0.556863" cx="10" cy="126" rx="19" ry="3" />
<ellipse fill="#b7b9bd" fill-opacity="0.494118" cx="87" cy="54" rx="8" ry="12" />
<ellipse fill="#999e9f" fill-opacity="0.631373" cx="147" cy="98" rx="14" ry="2" />
<ellipse fill="#6c7173" fill-opacity="0.682353" cx="101" cy="0" rx="13" ry="12" />
<ellipse fill="#393529" fill-opacity="0.278431" cx="83" cy="103" rx="21" ry="3" />
<ellipse fill="#c1c7cd" fill-opacity="0.439216" cx="143" cy="89" rx="14" ry="2" />
<ellipse fill="#cad0d2" fill-opacity="0.462745" cx="11" cy="96" rx="16" ry="2" />
<ellipse fill="#999a95" fill-opacity="0.486275" cx="174" cy="1" rx="16" ry="30" />
<ellipse fill="#41443d" fill-opacity="0.427451" cx="0" cy="100" rx="33" ry="2" />
<ellipse fill="#a2abb1" fill-opacity="0.666667" cx="70" cy="8" rx="11" ry="11" />
<ellipse fill="#6e6e6a" fill-opacity="0.498039" cx="128" cy="43" rx="37" ry="6" />
<ellipse fill="#acafac" fill-opacity="0.400000" cx="130" cy="28" rx="15" ry="12" />
<ellipse fill="#494c48" fill-opacity="0.725490" cx="148" cy="83" rx="21" ry="2" />
<ellipse fill="#747065" fill-opacity="0.592157" cx="44" cy="108" rx="32" ry="2" />
<ellipse fill="#bcc2bf" fill-opacity="0.427451" cx="49" cy="124" rx="9" ry="8" />
<ellipse fill="#000004" fill-opacity="0.478431" cx="73" cy="51" rx="2" ry="3" />
<ellipse fill="#ffffff" fill-opacity="0.192157" cx="10" cy="137" rx="20" ry="3" />
<ellipse fill="#837058" fill-opacity="0.709804" cx="213" cy="142" rx="26" ry="5" />
<ellipse fill="#cea86f" fill-opacity="0.619608" cx="70" cy="80" rx="8" ry="3" />
<ellipse fill="#feffff" fill-opacity="0.282353" cx="2" cy="116" rx="15" ry="3" />
<ellipse fill="#433d32" fill-opacity="0.556863" cx="10" cy="131" rx="6" ry="2" />
<ellipse fill="#6a6b67" fill-opacity="0.607843" cx="120" cy="108" rx="5" ry="44" />
<ellipse fill="#16171a" fill-opacity="0.501961" cx="63" cy="23" rx="2" ry="3" />
<ellipse fill="#818483" fill-opacity="0.478431" cx="209" cy="67" rx="18" ry="17" />
<ellipse fill="#575b5a" fill-opacity="0.607843" cx="176" cy="108" rx="12" ry="27" />
<ellipse fill="#595f60" fill-opacity="0.545098" cx="155" cy="142" rx="24" ry="10" />
<ellipse fill="#3e3f3a" fill-opacity="0.466667" cx="136" cy="4" rx="8" ry="5" />
<ellipse fill="#626461" fill-opacity="0.482353" cx="229" cy="46" rx="22" ry="6" />
<ellipse fill="#121c22" fill-opacity="0.482353" cx="64" cy="43" rx="2" ry="7" />
<ellipse fill="#b6b7b1" fill-opacity="0.431373" cx="189" cy="82" rx="8" ry="10" />
<ellipse fill="#c1c1c2" fill-opacity="0.572549" cx="92" cy="64" rx="3" ry="7" />
<ellipse fill="#7d995a" fill-opacity="0.623529" cx="48" cy="24" rx="4" ry="7" />
<ellipse fill="#fdffff" fill-opacity="0.388235" cx="76" cy="38" rx="9" ry="3" />
<ellipse fill="#aaa6a0" fill-opacity="0.501961" cx="120" cy="60" rx="9" ry="4" />
<ellipse fill="#555954" fill-opacity="0.729412" cx="59" cy="97" rx="15" ry="2" />
<ellipse fill="#b0a697" fill-opacity="0.301961" cx="227" cy="122" rx="11" ry="16" />
<ellipse fill="#3e433c" fill-opacity="0.407843" cx="7" cy="120" rx="7" ry="2" />
<ellipse fill="#6e706b" fill-opacity="0.552941" cx="255" cy="118" rx="13" ry="13" />
</g>
</svg>