<svg xmlns="http://www.w3.org/2000/svg" version="1.1" width="256" height="143">
<rect x="0" y="0" width="256" height="143" fill="#f0f0f0" />
<g transform="scale(1.000000) translate(0.5 0.5)">
<ellipse fill="#12130d" fill-opacity="0.760784" cx="121" cy="78" rx="209" ry="133" />
<ellipse fill="#c8c3bb" fill-opacity="0.439216" cx="145" cy="78" rx="38" ry="59" />
<ellipse fill="#000300" fill-opacity="0.662745" cx="14" cy="57" rx="54" ry="87" />
<ellipse fill="#6a6861" fill-opacity="1.000000" cx="184" cy="55" rx="47" ry="65" />
<ellipse fill="#000200" fill-opacity="0.568627" cx="233" cy="122" rx="28" ry="37" />
<ellipse fill="#ecefee" fill-opacity="0.498039" cx="127" cy="82" rx="9" ry="47" />
<ellipse fill="#b5b2af" fill-opacity="0.517647" cx="159" cy="120" rx="51" ry="11" />
<ellipse fill="#040601" fill-opacity="0.784314" cx="107" cy="0" rx="19" ry="29" />
<ellipse fill="#151812" fill-opacity="0.945098" cx="141" cy="142" rx="34" ry="12" />
<ellipse fill="#d6cec6" fill-opacity="0.600000" cx="212" cy="62" rx="5" ry="30" />
<ellipse fill="#0b100d" fill-opacity="0.352941" cx="98" cy="72" rx="18" ry="51" />
<ellipse fill="#50564f" fill-opacity="0.458824" cx="31" cy="54" rx="14" ry="32" />
<ellipse fill="#f3f8f5" fill-opacity="0.313725" cx="84" cy="13" rx="7" ry="15" />
<ellipse fill="#000206" fill-opacity="0.305882" cx="223" cy="0" rx="49" ry="20" />
<ellipse fill="#bfc1bd" fill-opacity="0.745098" cx="126" cy="112" rx="15" ry="16" />
<ellipse fill="#241f13" fill-opacity="0.400000" cx="147" cy="119" rx="4" ry="86" />
<ellipse fill="#262924" fill-opacity="0.776471" cx="65" cy="112" rx="37" ry="16" />
<ellipse fill="#89898a" fill-opacity="0.419608" cx="228" cy="38" rx="19" ry="21" />
<ellipse fill="#cdc9c6" fill-opacity="0.564706" cx="168" cy="90" rx="3" ry="23" />
<ellipse fill="#000100" fill-opacity="0.658824" cx="32" cy="9" rx="37" ry="13" />
<ellipse fill="#030702" fill-opacity="0.992157" cx="3" cy="74" rx="15" ry="142" />
<ellipse fill="#989794" fill-opacity="0.596078" cx="185" cy="133" rx="16" ry="4" />
<ellipse fill="#d0cec9" fill-opacity="0.525490" cx="215" cy="80" rx="7" ry="13" />
<ellipse fill="#97938a" fill-opacity="0.466667" cx="167" cy="50" rx="20" ry="17" />
<ellipse fill="#121510" fill-opacity="0.909804" cx="167" cy="140" rx="36" ry="5" />
<ellipse fill="#262922" fill-opacity="0.607843" cx="66" cy="39" rx="27" ry="20" />
<ellipse fill="#1c1c14" fill-opacity="0.427451" cx="180" cy="76" rx="10" ry="13" />
<ellipse fill="#3b342f" fill-opacity="0.482353" cx="207" cy="101" rx="3" ry="57" />
<ellipse fill="#adaaa6" fill-opacity="0.647059" cx="137" cy="96" rx="8" ry="11" />
<ellipse fill="#717571" fill-opacity="0.474510" cx="74" cy="76" rx="11" ry="19" />
<ellipse fill="#4b4d49" fill-opacity="0.815686" cx="107" cy="59" rx="11" ry="23" />
<ellipse fill="#454b45" fill-opacity="0.486275" cx="44" cy="135" rx="25" ry="27" />
<ellipse fill="#302b20" fill-opacity="0.419608" cx="157" cy="81" rx="7" ry="22" />
<ellipse fill="#b7b8b0" fill-opacity="0.360784" cx="131" cy="27" rx="7" ry="14" />
<ellipse fill="#181a15" fill-opacity="0.713725" cx="125" cy="139" rx="17" ry="12" />
<ellipse fill="#3d4346" fill-opacity="0.584314" cx="238" cy="77" rx="17" ry="25" />
<ellipse fill="#030400" fill-opacity="0.631373" cx="49" cy="87" rx="16" ry="19" />
<ellipse fill="#110800" fill-opacity="0.407843" cx="177" cy="126" rx="5" ry="6" />
<ellipse fill="#403e3a" fill-opacity="0.509804" cx="201" cy="29" rx="12" ry="12" />
<ellipse fill="#565a58" fill-opacity="0.615686" cx="89" cy="138" rx="26" ry="14" />
<ellipse fill="#c0c3c0" fill-opacity="0.529412" cx="90" cy="21" rx="3" ry="8" />
<ellipse fill="#323127" fill-opacity="0.498039" cx="139" cy="0" rx="28" ry="15" />
<ellipse fill="#21241e" fill-opacity="0.749020" cx="212" cy="120" rx="6" ry="30" />
<ellipse fill="#484039" fill-opacity="0.643137" cx="156" cy="122" rx="17" ry="2" />
<ellipse fill="#cecfcd" fill-opacity="0.537255" cx="160" cy="116" rx="11" ry="6" />
<ellipse fill="#484b47" fill-opacity="0.647059" cx="58" cy="28" rx="21" ry="5" />
<ellipse fill="#96938b" fill-opacity="0.478431" cx="170" cy="128" rx="27" ry="5" />
<ellipse fill="#5f6162" fill-opacity="0.592157" cx="236" cy="47" rx="17" ry="23" />
<ellipse fill="#56564f" fill-opacity="0.549020" cx="123" cy="23" rx="7" ry="13" />
<ellipse fill="#090d09" fill-opacity="0.576471" cx="241" cy="142" rx="35" ry="25" />
<ellipse fill="#010300" fill-opacity="0.407843" cx="97" cy="84" rx="6" ry="19" />
<ellipse fill="#847e73" fill-opacity="0.584314" cx="189" cy="9" rx="17" ry="3" />
<ellipse fill="#000100" fill-opacity="0.592157" cx="87" cy="73" rx="3" ry="19" />
<ellipse fill="#5b574b" fill-opacity="0.611765" cx="145" cy="32" rx="7" ry="30" />
<ellipse fill="#22221b" fill-opacity="0.541176" cx="181" cy="95" rx="4" ry="7" />
<ellipse fill="#000300" fill-opacity="0.568627" cx="100" cy="7" rx="14" ry="7" />
<ellipse fill="#f2f5f6" fill-opacity="0.466667" cx="126" cy="87" rx="7" ry="8" />
<ellipse fill="#10120a" fill-opacity="0.466667" cx="51" cy="64" rx="15" ry="33" />
<ellipse fill="#adaeac" fill-opacity="0.470588" cx="126" cy="103" rx="17" ry="11" />
<ellipse fill="#acaba4" fill-opacity="0.592157" cx="132" cy="51" rx="5" ry="32" />
<ellipse fill="#4f5551" fill-opacity="0.509804" cx="22" cy="104" rx="2" ry="20" />
<ellipse fill="#433e35" fill-opacity="0.658824" cx="144" cy="121" rx="3" ry="7" />
<ellipse fill="#000200" fill-opacity="0.592157" cx="93" cy="44" rx="5" ry="10" />
<ellipse fill="#746f6a" fill-opacity="0.470588" cx="135" cy="97" rx="8" ry="6" />
<ellipse fill="#33362f" fill-opacity="0.423529" cx="66" cy="55" rx="6" ry="82" />
<ellipse fill="#bbc2c7" fill-opacity="0.368627" cx="194" cy="136" rx="11" ry="2" />
<ellipse fill="#a8a7a5" fill-opacity="0.501961" cx="123" cy="70" rx="9" ry="9" />
<ellipse fill="#c5c7c9" fill-opacity="0.419608" cx="165" cy="87" rx="10" ry="3" />
<ellipse fill="#070d07" fill-opacity="0.266667" cx="218" cy="0" rx="55" ry="6" />
<ellipse fill="#c2bfbf" fill-opacity="0.419608" cx="189" cy="122" rx="6" ry="10" />
<ellipse fill="#bec0bc" fill-opacity="0.705882" cx="125" cy="120" rx="16" ry="7" />
<ellipse fill="#bdbcb4" fill-opacity="0.462745" cx="214" cy="62" rx="5" ry="31" />
<ellipse fill="#111919" fill-opacity="0.435294" cx="255" cy="100" rx="12" ry="25" />
<ellipse fill="#c7c5bf" fill-opacity="0.466667" cx="137" cy="108" rx="7" ry="13" />
<ellipse fill="#4e4b44" fill-opacity="0.474510" cx="201" cy="111" rx="15" ry="4" />
<ellipse fill="#848782" fill-opacity="0.494118" cx="78" cy="6" rx="7" ry="11" />
<ellipse fill="#423f39" fill-opacity="0.556863" cx="175" cy="107" rx="5" ry="8" />
<ellipse fill="#2c2e29" fill-opacity="0.486275" cx="189" cy="64" rx="4" ry="10" />
<ellipse fill="#767268" fill-opacity="0.937255" cx="170" cy="62" rx="15" ry="7" />
<ellipse fill="#000000" fill-opacity="0.345098" cx="117" cy="88" rx="2" ry="11" />
<ellipse fill="#97948d" fill-opacity="0.435294" cx="217" cy="29" rx="9" ry="9" />
<ellipse fill="#0e0e07" fill-opacity="0.490196" cx="117" cy="58" rx="3" ry="6" />
<ellipse fill="#342f28" fill-opacity="0.596078" cx="201" cy="126" rx="7" ry="3" />
<ellipse fill="#282821" fill-opacity="0.501961" cx="202" cy="119" rx="11" ry="2" />
<ellipse fill="#f6ece5" fill-opacity="0.321569" cx="151" cy="98" rx="3" ry="6" />
<ellipse fill="#030000" fill-opacity="0.282353" cx="170" cy="95" rx="1" ry="23" />
<ellipse fill="#171912" fill-opacity="0.572549" cx="115" cy="16" rx="5" ry="22" />
<ellipse fill="#070702" fill-opacity="0.439216" cx="179" cy="125" rx="2" ry="7" />
<ellipse fill="#6c716d" fill-opacity="0.529412" cx="77" cy="40" rx="7" ry="4" />
<ellipse fill="#6a6962" fill-opacity="0.325490" cx="105" cy="34" rx="14" ry="7" />
<ellipse fill="#bfb5a3" fill-opacity="0.262745" cx="177" cy="6" rx="15" ry="3" />
<ellipse fill="#7e7a74" fill-opacity="0.482353" cx="205" cy="94" rx="2" ry="34" />
<ellipse fill="#545148" fill-opacity="0.560784" cx="179" cy="14" rx="56" ry="4" />
<ellipse fill="#777266" fill-opacity="0.749020" cx="147" cy="19" rx="14" ry="5" />
<ellipse fill="#1c1e19" fill-opacity="0.560784" cx="76" cy="106" rx="15" ry="14" />
<ellipse fill="#b0b2ac" fill-opacity="0.411765" cx="90" cy="92" rx="2" ry="7" />
<ellipse fill="#7d7f7e" fill-opacity="0.501961" cx="80" cy="73" rx="4" ry="15" />
<ellipse fill="#12150f" fill-opacity="0.615686" cx="161" cy="139" rx="31" ry="5" />
<ellipse fill="#0f110b" fill-opacity="0.537255" cx="66" cy="49" rx="21" ry="5" />
<ellipse fill="#474b46" fill-opacity="0.368627" cx="36" cy="65" rx="9" ry="15" />
</g>
</svg>