<svg xmlns="http://www.w3.org/2000/svg" version="1.1" width="256" height="143">
<rect x="0" y="0" width="256" height="143" fill="#f0f0f0" />
<g transform="scale(1.000000) translate(0.5 0.5)">
<ellipse fill="#272c25" fill-opacity="0.705882" cx="56" cy="29" rx="216" ry="114" />
<ellipse fill="#000100" fill-opacity="0.776471" cx="166" cy="80" rx="26" ry="35" />
<ellipse fill="#000000" fill-opacity="0.278431" cx="234" cy="125" rx="27" ry="82" />
<ellipse fill="#0b0f0d" fill-opacity="0.952941" cx="105" cy="79" rx="16" ry="22" />
<ellipse fill="#b3b5ac" fill-opacity="0.709804" cx="54" cy="142" rx="227" ry="20" />
<ellipse fill="#c7cac0" fill-opacity="0.482353" cx="203" cy="121" rx="30" ry="31" />
<ellipse fill="#b3b8b9" fill-opacity="0.352941" cx="89" cy="15" rx="63" ry="31" />
<ellipse fill="#000000" fill-opacity="0.662745" cx="226" cy="75" rx="14" ry="21" />
<ellipse fill="#020e14" fill-opacity="0.517647" cx="62" cy="98" rx="15" ry="17" />
<ellipse fill="#b6b5ad" fill-opacity="0.498039" cx="217" cy="34" rx="42" ry="10" />
<ellipse fill="#a7a9a3" fill-opacity="0.611765" cx="131" cy="111" rx="11" ry="41" />
<ellipse fill="#878d89" fill-opacity="0.564706" cx="30" cy="59" rx="32" ry="26" />
<ellipse fill="#a4a79b" fill-opacity="0.643137" cx="252" cy="98" rx="14" ry="46" />
<ellipse fill="#14160d" fill-opacity="0.305882" cx="90" cy="58" rx="30" ry="24" />
<ellipse fill="#bcbfb9" fill-opacity="0.925490" cx="219" cy="121" rx="22" ry="24" />
<ellipse fill="#878980" fill-opacity="1.000000" cx="254" cy="16" rx="17" ry="24" />
<ellipse fill="#302b1e" fill-opacity="0.866667" cx="166" cy="54" rx="29" ry="9" />
<ellipse fill="#a9a79f" fill-opacity="0.576471" cx="204" cy="85" rx="10" ry="16" />
<ellipse fill="#94968d" fill-opacity="0.768627" cx="35" cy="136" rx="51" ry="21" />
<ellipse fill="#001323" fill-opacity="0.396078" cx="89" cy="117" rx="18" ry="8" />
<ellipse fill="#1d0f00" fill-opacity="0.388235" cx="232" cy="52" rx="21" ry="11" />
<ellipse fill="#878a84" fill-opacity="0.717647" cx="127" cy="105" rx="26" ry="8" />
<ellipse fill="#3a3f42" fill-opacity="0.501961" cx="205" cy="5" rx="33" ry="20" />
<ellipse fill="#f8fcfb" fill-opacity="0.352941" cx="132" cy="29" rx="29" ry="3" />
<ellipse fill="#000102" fill-opacity="0.482353" cx="157" cy="94" rx="8" ry="34" />
<ellipse fill="#24261e" fill-opacity="0.478431" cx="192" cy="100" rx="5" ry="10" />
<ellipse fill="#f1f2ea" fill-opacity="0.619608" cx="167" cy="135" rx="20" ry="8" />
<ellipse fill="#b0b3ad" fill-opacity="0.780392" cx="114" cy="142" rx="33" ry="17" />
<ellipse fill="#000000" fill-opacity="0.517647" cx="219" cy="91" rx="6" ry="7" />
<ellipse fill="#454c3c" fill-opacity="0.498039" cx="12" cy="20" rx="20" ry="18" />
<ellipse fill="#cbcbc2" fill-opacity="0.360784" cx="189" cy="41" rx="31" ry="4" />
<ellipse fill="#bec186" fill-opacity="0.529412" cx="33" cy="0" rx="14" ry="10" />
<ellipse fill="#3e4b4d" fill-opacity="0.501961" cx="27" cy="57" rx="10" ry="17" />
<ellipse fill="#c3c9ca" fill-opacity="0.482353" cx="84" cy="13" rx="13" ry="6" />
<ellipse fill="#efefe9" fill-opacity="0.749020" cx="191" cy="118" rx="5" ry="6" />
<ellipse fill="#000504" fill-opacity="0.615686" cx="166" cy="77" rx="27" ry="20" />
<ellipse fill="#717774" fill-opacity="0.549020" cx="111" cy="110" rx="25" ry="12" />
<ellipse fill="#adafac" fill-opacity="0.345098" cx="52" cy="62" rx="6" ry="28" />
<ellipse fill="#545859" fill-opacity="0.501961" cx="65" cy="1" rx="21" ry="12" />
<ellipse fill="#010708" fill-opacity="0.760784" cx="110" cy="93" rx="11" ry="7" />
<ellipse fill="#000301" fill-opacity="0.368627" cx="139" cy="134" rx="6" ry="4" />
<ellipse fill="#00070b" fill-opacity="0.549020" cx="77" cy="110" rx="7" ry="6" />
<ellipse fill="#40453f" fill-opacity="0.501961" cx="14" cy="105" rx="16" ry="14" />
<ellipse fill="#939793" fill-opacity="0.568627" cx="41" cy="112" rx="15" ry="5" />
<ellipse fill="#09100f" fill-opacity="0.650980" cx="174" cy="112" rx="5" ry="4" />
<ellipse fill="#595e63" fill-opacity="0.415686" cx="153" cy="17" rx="68" ry="8" />
<ellipse fill="#afb3b4" fill-opacity="0.513725" cx="180" cy="26" rx="41" ry="2" />
<ellipse fill="#707574" fill-opacity="0.682353" cx="95" cy="42" rx="73" ry="5" />
<ellipse fill="#6a6c67" fill-opacity="0.537255" cx="146" cy="141" rx="16" ry="2" />
<ellipse fill="#8e8c7f" fill-opacity="0.356863" cx="85" cy="78" rx="8" ry="15" />
<ellipse fill="#5b5f5c" fill-opacity="0.529412" cx="197" cy="33" rx="28" ry="4" />
<ellipse fill="#fffff7" fill-opacity="0.321569" cx="178" cy="120" rx="17" ry="3" />
<ellipse fill="#161200" fill-opacity="0.517647" cx="245" cy="44" rx="8" ry="6" />
<ellipse fill="#000000" fill-opacity="0.654902" cx="231" cy="69" rx="11" ry="12" />
<ellipse fill="#3d4245" fill-opacity="0.411765" cx="115" cy="139" rx="5" ry="7" />
<ellipse fill="#dfe3dd" fill-opacity="0.509804" cx="98" cy="6" rx="9" ry="3" />
<ellipse fill="#a5a79f" fill-opacity="0.466667" cx="25" cy="82" rx="9" ry="9" />
<ellipse fill="#120e03" fill-opacity="0.400000" cx="172" cy="60" rx="52" ry="2" />
<ellipse fill="#6e7574" fill-opacity="0.941176" cx="27" cy="20" rx="53" ry="3" />
<ellipse fill="#1e1300" fill-opacity="0.498039" cx="105" cy="51" rx="16" ry="4" />
<ellipse fill="#000505" fill-opacity="0.439216" cx="6" cy="35" rx="10" ry="4" />
<ellipse fill="#787970" fill-opacity="0.466667" cx="18" cy="142" rx="38" ry="11" />
<ellipse fill="#aea99c" fill-opacity="0.337255" cx="125" cy="82" rx="5" ry="33" />
<ellipse fill="#d4d7d6" fill-opacity="0.474510" cx="114" cy="33" rx="13" ry="3" />
<ellipse fill="#ffffff" fill-opacity="0.145098" cx="237" cy="101" rx="64" ry="5" />
<ellipse fill="#b7b8ae" fill-opacity="0.427451" cx="28" cy="36" rx="6" ry="8" />
<ellipse fill="#94958c" fill-opacity="0.584314" cx="203" cy="86" rx="10" ry="25" />
<ellipse fill="#939285" fill-opacity="0.482353" cx="253" cy="67" rx="12" ry="19" />
<ellipse fill="#e6e7e0" fill-opacity="0.486275" cx="117" cy="129" rx="22" ry="3" />
<ellipse fill="#cad0cd" fill-opacity="0.521569" cx="55" cy="15" rx="20" ry="2" />
<ellipse fill="#001219" fill-opacity="0.207843" cx="71" cy="74" rx="8" ry="35" />
<ellipse fill="#37382f" fill-opacity="0.364706" cx="191" cy="107" rx="7" ry="8" />
<ellipse fill="#c8c8bb" fill-opacity="0.450980" cx="229" cy="40" rx="15" ry="3" />
<ellipse fill="#a7adaa" fill-opacity="0.478431" cx="68" cy="131" rx="13" ry="15" />
<ellipse fill="#fffcd7" fill-opacity="0.117647" cx="185" cy="54" rx="37" ry="3" />
<ellipse fill="#3a4147" fill-opacity="0.737255" cx="165" cy="0" rx="7" ry="15" />
<ellipse fill="#4e5659" fill-opacity="0.580392" cx="70" cy="24" rx="8" ry="9" />
<ellipse fill="#ebebe0" fill-opacity="0.380392" cx="93" cy="138" rx="8" ry="12" />
<ellipse fill="#30332e" fill-opacity="0.600000" cx="230" cy="7" rx="6" ry="19" />
<ellipse fill="#ced3d0" fill-opacity="0.305882" cx="88" cy="24" rx="12" ry="6" />
<ellipse fill="#1b2323" fill-opacity="0.443137" cx="93" cy="33" rx="8" ry="4" />
<ellipse fill="#130600" fill-opacity="0.501961" cx="186" cy="49" rx="8" ry="4" />
<ellipse fill="#878982" fill-opacity="0.525490" cx="139" cy="111" rx="15" ry="14" />
<ellipse fill="#8c9089" fill-opacity="0.690196" cx="253" cy="140" rx="10" ry="24" />
<ellipse fill="#000303" fill-opacity="0.545098" cx="220" cy="80" rx="8" ry="18" />
<ellipse fill="#0b100e" fill-opacity="0.670588" cx="149" cy="92" rx="10" ry="8" />
<ellipse fill="#84867b" fill-opacity="0.529412" cx="5" cy="65" rx="14" ry="28" />
<ellipse fill="#384040" fill-opacity="0.615686" cx="51" cy="82" rx="10" ry="3" />
<ellipse fill="#060d0b" fill-opacity="0.533333" cx="95" cy="94" rx="6" ry="6" />
<ellipse fill="#2f3d45" fill-opacity="0.384314" cx="95" cy="120" rx="12" ry="8" />
<ellipse fill="#cdcbba" fill-opacity="0.298039" cx="33" cy="133" rx="8" ry="16" />
<ellipse fill="#838782" fill-opacity="0.407843" cx="111" cy="105" rx="34" ry="7" />
<ellipse fill="#7a7568" fill-opacity="0.529412" cx="127" cy="64" rx="10" ry="14" />
<ellipse fill="#9aa09d" fill-opacity="0.396078" cx="59" cy="40" rx="12" ry="11" />
<ellipse fill="#1e1d13" fill-opacity="0.411765" cx="121" cy="61" rx="56" ry="2" />
<ellipse fill="#121417" fill-opacity="0.274510" cx="155" cy="31" rx="19" ry="2" />
<ellipse fill="#aeb1ab" fill-opacity="0.458824" cx="130" cy="87" rx="10" ry="13" />
<ellipse fill="#aeb0ab" fill-opacity="0.419608" cx="221" cy="124" rx="31" ry="11" />
<ellipse fill="#616166" fill-opacity="0.584314" cx="119" cy="6" rx="11" ry="8" />
<ellipse fill="#211500" fill-opacity="0.388235" cx="219" cy="45" rx="23" ry="2" />
</g>
</svg>