<svg xmlns="http://www.w3.org/2000/svg" version="1.1" width="256" height="143">
<rect x="0" y="0" width="256" height="143" fill="#f0f0f0" />
<g transform="scale(1.000000) translate(0.5 0.5)">
<ellipse fill="#010400" fill-opacity="0.670588" cx="128" cy="59" rx="160" ry="141" />
<ellipse fill="#bdb7a8" fill-opacity="0.443137" cx="25" cy="37" rx="18" ry="54" />
<ellipse fill="#1a1e1c" fill-opacity="0.635294" cx="236" cy="61" rx="35" ry="142" />
<ellipse fill="#a1a5a9" fill-opacity="0.454902" cx="184" cy="118" rx="17" ry="55" />
<ellipse fill="#100b03" fill-opacity="0.549020" cx="125" cy="10" rx="25" ry="32" />
<ellipse fill="#fbeed8" fill-opacity="0.313725" cx="91" cy="31" rx="12" ry="26" />
<ellipse fill="#888a8c" fill-opacity="0.725490" cx="152" cy="80" rx="6" ry="72" />
<ellipse fill="#c1c0b5" fill-opacity="0.298039" cx="53" cy="77" rx="8" ry="57" />
<ellipse fill="#1d1e19" fill-opacity="0.517647" cx="71" cy="63" rx="8" ry="132" />
<ellipse fill="#020300" fill-opacity="0.505882" cx="164" cy="80" rx="6" ry="39" />
<ellipse fill="#93999c" fill-opacity="0.423529" cx="91" cy="119" rx="13" ry="34" />
<ellipse fill="#828487" fill-opacity="0.572549" cx="167" cy="18" rx="11" ry="27" />
<ellipse fill="#858784" fill-opacity="0.803922" cx="101" cy="76" rx="4" ry="49" />
<ellipse fill="#1c1e1c" fill-opacity="0.490196" cx="182" cy="39" rx="12" ry="24" />
<ellipse fill="#e3e2db" fill-opacity="0.454902" cx="34" cy="1" rx="13" ry="9" />
<ellipse fill="#676863" fill-opacity="0.945098" cx="5" cy="48" rx="11" ry="34" />
<ellipse fill="#fffff3" fill-opacity="0.341176" cx="63" cy="66" rx="9" ry="7" />
<ellipse fill="#8b8c8b" fill-opacity="0.839216" cx="138" cy="66" rx="15" ry="6" />
<ellipse fill="#fffcec" fill-opacity="0.435294" cx="61" cy="23" rx="5" ry="8" />
<ellipse fill="#000002" fill-opacity="0.380392" cx="2" cy="6" rx="19" ry="12" />
<ellipse fill="#3b372e" fill-opacity="0.694118" cx="109" cy="28" rx="15" ry="11" />
<ellipse fill="#060400" fill-opacity="0.423529" cx="43" cy="19" rx="12" ry="9" />
<ellipse fill="#130e02" fill-opacity="0.419608" cx="47" cy="58" rx="9" ry="12" />
<ellipse fill="#060501" fill-opacity="0.525490" cx="138" cy="136" rx="6" ry="26" />
<ellipse fill="#acaeaa" fill-opacity="0.400000" cx="172" cy="95" rx="3" ry="63" />
<ellipse fill="#151510" fill-opacity="0.654902" cx="142" cy="34" rx="6" ry="22" />
<ellipse fill="#4b4f4e" fill-opacity="0.419608" cx="244" cy="82" rx="12" ry="73" />
<ellipse fill="#b7b2a6" fill-opacity="0.545098" cx="24" cy="33" rx="7" ry="24" />
<ellipse fill="#030a0d" fill-opacity="0.368627" cx="3" cy="132" rx="9" ry="43" />
<ellipse fill="#070500" fill-opacity="0.568627" cx="138" cy="80" rx="5" ry="12" />
<ellipse fill="#0b0b06" fill-opacity="0.400000" cx="91" cy="56" rx="3" ry="26" />
<ellipse fill="#e0d8ce" fill-opacity="0.211765" cx="37" cy="76" rx="25" ry="10" />
<ellipse fill="#ddddd4" fill-opacity="0.462745" cx="86" cy="22" rx="3" ry="19" />
<ellipse fill="#2d3031" fill-opacity="0.580392" cx="43" cy="113" rx="6" ry="36" />
<ellipse fill="#c2c4bd" fill-opacity="0.384314" cx="84" cy="39" rx="6" ry="17" />
<ellipse fill="#878a8f" fill-opacity="0.305882" cx="186" cy="0" rx="16" ry="31" />
<ellipse fill="#cac6c4" fill-opacity="0.196078" cx="127" cy="92" rx="6" ry="33" />
<ellipse fill="#222523" fill-opacity="0.725490" cx="214" cy="41" rx="13" ry="142" />
<ellipse fill="#e5e2d8" fill-opacity="0.470588" cx="54" cy="44" rx="4" ry="7" />
<ellipse fill="#272520" fill-opacity="0.721569" cx="128" cy="2" rx="30" ry="17" />
<ellipse fill="#8e9397" fill-opacity="0.643137" cx="168" cy="38" rx="13" ry="5" />
<ellipse fill="#1f1709" fill-opacity="0.454902" cx="33" cy="61" rx="14" ry="3" />
<ellipse fill="#000000" fill-opacity="0.537255" cx="87" cy="76" rx="4" ry="10" />
<ellipse fill="#cccac3" fill-opacity="0.482353" cx="17" cy="57" rx="3" ry="20" />
<ellipse fill="#30332f" fill-opacity="0.647059" cx="162" cy="128" rx="6" ry="28" />
<ellipse fill="#656a6c" fill-opacity="0.713725" cx="196" cy="83" rx="7" ry="32" />
<ellipse fill="#383b37" fill-opacity="0.643137" cx="110" cy="103" rx="5" ry="72" />
<ellipse fill="#0b0801" fill-opacity="0.396078" cx="76" cy="3" rx="5" ry="40" />
<ellipse fill="#040300" fill-opacity="0.286275" cx="197" cy="44" rx="30" ry="7" />
<ellipse fill="#231d13" fill-opacity="0.556863" cx="43" cy="47" rx="8" ry="6" />
<ellipse fill="#0f0f09" fill-opacity="0.603922" cx="48" cy="14" rx="6" ry="11" />
<ellipse fill="#8e9192" fill-opacity="0.392157" cx="33" cy="97" rx="3" ry="48" />
<ellipse fill="#8e908e" fill-opacity="0.545098" cx="105" cy="53" rx="2" ry="24" />
<ellipse fill="#424546" fill-opacity="0.560784" cx="191" cy="139" rx="2" ry="96" />
<ellipse fill="#282b26" fill-opacity="0.607843" cx="94" cy="142" rx="2" ry="42" />
<ellipse fill="#83827e" fill-opacity="0.533333" cx="137" cy="103" rx="10" ry="8" />
<ellipse fill="#3f413e" fill-opacity="0.690196" cx="19" cy="94" rx="3" ry="17" />
<ellipse fill="#c1c0b7" fill-opacity="0.576471" cx="40" cy="53" rx="6" ry="2" />
<ellipse fill="#868785" fill-opacity="0.552941" cx="118" cy="46" rx="2" ry="19" />
<ellipse fill="#000000" fill-opacity="0.411765" cx="66" cy="52" rx="11" ry="3" />
<ellipse fill="#ddd8ca" fill-opacity="0.294118" cx="46" cy="31" rx="10" ry="6" />
<ellipse fill="#2d3130" fill-opacity="0.603922" cx="65" cy="123" rx="6" ry="52" />
<ellipse fill="#2a2822" fill-opacity="0.682353" cx="122" cy="3" rx="31" ry="16" />
<ellipse fill="#000000" fill-opacity="0.360784" cx="123" cy="45" rx="3" ry="19" />
<ellipse fill="#bebaaf" fill-opacity="0.470588" cx="60" cy="24" rx="8" ry="5" />
<ellipse fill="#d3d2c9" fill-opacity="0.462745" cx="90" cy="13" rx="7" ry="6" />
<ellipse fill="#787977" fill-opacity="0.533333" cx="160" cy="13" rx="19" ry="5" />
<ellipse fill="#3c4144" fill-opacity="0.556863" cx="10" cy="88" rx="4" ry="44" />
<ellipse fill="#7b7e7f" fill-opacity="0.666667" cx="151" cy="117" rx="6" ry="51" />
<ellipse fill="#979691" fill-opacity="0.403922" cx="15" cy="93" rx="3" ry="23" />
<ellipse fill="#000000" fill-opacity="0.243137" cx="174" cy="23" rx="9" ry="10" />
<ellipse fill="#d9dde2" fill-opacity="0.188235" cx="135" cy="40" rx="5" ry="8" />
<ellipse fill="#282b29" fill-opacity="0.674510" cx="205" cy="122" rx="4" ry="80" />
<ellipse fill="#939594" fill-opacity="0.549020" cx="174" cy="94" rx="6" ry="25" />
<ellipse fill="#434540" fill-opacity="0.780392" cx="75" cy="68" rx="7" ry="18" />
<ellipse fill="#727573" fill-opacity="0.584314" cx="117" cy="105" rx="2" ry="49" />
<ellipse fill="#707578" fill-opacity="0.337255" cx="199" cy="11" rx="4" ry="142" />
<ellipse fill="#342916" fill-opacity="0.545098" cx="24" cy="61" rx="5" ry="6" />
<ellipse fill="#262825" fill-opacity="0.498039" cx="56" cy="98" rx="23" ry="3" />
<ellipse fill="#32322d" fill-opacity="0.576471" cx="125" cy="132" rx="9" ry="7" />
<ellipse fill="#b4b0a9" fill-opacity="0.454902" cx="180" cy="0" rx="9" ry="6" />
<ellipse fill="#1a1a13" fill-opacity="0.643137" cx="45" cy="21" rx="2" ry="16" />
<ellipse fill="#c2bfb6" fill-opacity="0.592157" cx="34" cy="70" rx="10" ry="3" />
<ellipse fill="#4d5251" fill-opacity="0.717647" cx="16" cy="2" rx="3" ry="33" />
<ellipse fill="#19160d" fill-opacity="0.627451" cx="65" cy="34" rx="11" ry="3" />
<ellipse fill="#252724" fill-opacity="0.458824" cx="134" cy="87" rx="6" ry="13" />
<ellipse fill="#989998" fill-opacity="0.486275" cx="122" cy="6" rx="5" ry="3" />
<ellipse fill="#b2b1a9" fill-opacity="0.419608" cx="100" cy="14" rx="9" ry="2" />
<ellipse fill="#282e2d" fill-opacity="0.513725" cx="51" cy="126" rx="2" ry="10" />
<ellipse fill="#adaba3" fill-opacity="0.701961" cx="29" cy="6" rx="9" ry="10" />
<ellipse fill="#c1bfb6" fill-opacity="0.411765" cx="31" cy="50" rx="10" ry="3" />
<ellipse fill="#e9e1d2" fill-opacity="0.239216" cx="62" cy="45" rx="9" ry="4" />
<ellipse fill="#1c1b12" fill-opacity="0.329412" cx="33" cy="29" rx="5" ry="6" />
<ellipse fill="#26251a" fill-opacity="0.431373" cx="36" cy="46" rx="14" ry="2" />
<ellipse fill="#16140c" fill-opacity="0.521569" cx="68" cy="51" rx="6" ry="7" />
<ellipse fill="#808486" fill-opacity="0.576471" cx="83" cy="107" rx="4" ry="20" />
<ellipse fill="#020100" fill-opacity="0.184314" cx="176" cy="52" rx="21" ry="9" />
<ellipse fill="#010000" fill-opacity="0.607843" cx="54" cy="56" rx="3" ry="4" />
<ellipse fill="#7d8287" fill-opacity="0.619608" cx="56" cy="121" rx="3" ry="23" />
<ellipse fill="#787c7c" fill-opacity="0.705882" cx="28" cy="126" rx="7" ry="6" />
</g>
</svg>