<svg xmlns="http://www.w3.org/2000/svg" version="1.1" width="144" height="256">
<rect x="0" y="0" width="144" height="256" fill="#f0f0f0" />
<g transform="scale(1.000000) translate(0.5 0.5)">
<ellipse fill="#0f130e" fill-opacity="0.525490" cx="67" cy="152" rx="140" ry="195" />
<ellipse fill="#0a0d0b" fill-opacity="0.784314" cx="15" cy="137" rx="23" ry="38" />
<ellipse fill="#ffffff" fill-opacity="0.501961" cx="69" cy="51" rx="33" ry="30" />
<ellipse fill="#c2c2bf" fill-opacity="0.584314" cx="102" cy="166" rx="11" ry="130" />
<ellipse fill="#f6f7f2" fill-opacity="0.584314" cx="53" cy="144" rx="5" ry="63" />
<ellipse fill="#1f2424" fill-opacity="0.301961" cx="24" cy="234" rx="30" ry="138" />
<ellipse fill="#abada9" fill-opacity="1.000000" cx="109" cy="108" rx="19" ry="40" />
<ellipse fill="#100700" fill-opacity="0.262745" cx="70" cy="134" rx="12" ry="69" />
<ellipse fill="#212520" fill-opacity="0.552941" cx="114" cy="197" rx="6" ry="28" />
<ellipse fill="#030600" fill-opacity="0.568627" cx="143" cy="98" rx="13" ry="15" />
<ellipse fill="#a8a8a3" fill-opacity="0.815686" cx="82" cy="230" rx="19" ry="20" />
<ellipse fill="#050b0a" fill-opacity="0.521569" cx="143" cy="165" rx="5" ry="63" />
<ellipse fill="#616769" fill-opacity="0.623529" cx="131" cy="14" rx="42" ry="59" />
<ellipse fill="#babcb8" fill-opacity="0.905882" cx="64" cy="210" rx="8" ry="9" />
<ellipse fill="#adb0ab" fill-opacity="0.568627" cx="113" cy="248" rx="22" ry="19" />
<ellipse fill="#676a68" fill-opacity="0.874510" cx="17" cy="5" rx="81" ry="21" />
<ellipse fill="#44443f" fill-opacity="0.556863" cx="118" cy="177" rx="7" ry="36" />
<ellipse fill="#5b5550" fill-opacity="0.819608" cx="81" cy="227" rx="64" ry="2" />
<ellipse fill="#f0f4f1" fill-opacity="0.270588" cx="84" cy="60" rx="18" ry="26" />
<ellipse fill="#ababa9" fill-opacity="0.552941" cx="111" cy="116" rx="26" ry="27" />
<ellipse fill="#7d7c76" fill-opacity="0.525490" cx="91" cy="105" rx="19" ry="19" />
<ellipse fill="#b7b8b5" fill-opacity="0.482353" cx="48" cy="98" rx="4" ry="78" />
<ellipse fill="#e4e3e0" fill-opacity="0.368627" cx="103" cy="164" rx="7" ry="43" />
<ellipse fill="#cdd0cc" fill-opacity="0.443137" cx="60" cy="237" rx="36" ry="3" />
<ellipse fill="#788286" fill-opacity="0.513725" cx="10" cy="186" rx="33" ry="14" />
<ellipse fill="#3d3e35" fill-opacity="0.627451" cx="16" cy="107" rx="25" ry="9" />
<ellipse fill="#d9ddd6" fill-opacity="0.231373" cx="58" cy="173" rx="8" ry="36" />
<ellipse fill="#91928e" fill-opacity="0.847059" cx="59" cy="76" rx="17" ry="9" />
<ellipse fill="#292f2f" fill-opacity="0.545098" cx="0" cy="249" rx="37" ry="7" />
<ellipse fill="#332e23" fill-opacity="0.568627" cx="73" cy="140" rx="8" ry="17" />
<ellipse fill="#1f2420" fill-opacity="0.733333" cx="13" cy="167" rx="26" ry="7" />
<ellipse fill="#73716c" fill-opacity="0.545098" cx="40" cy="129" rx="6" ry="58" />
<ellipse fill="#4b5152" fill-opacity="0.745098" cx="75" cy="195" rx="8" ry="15" />
<ellipse fill="#a5a79f" fill-opacity="0.498039" cx="4" cy="82" rx="11" ry="17" />
<ellipse fill="#d0d3d0" fill-opacity="0.635294" cx="137" cy="198" rx="1" ry="41" />
<ellipse fill="#8b8e8b" fill-opacity="0.682353" cx="55" cy="244" rx="27" ry="4" />
<ellipse fill="#868885" fill-opacity="0.572549" cx="105" cy="31" rx="10" ry="28" />
<ellipse fill="#1f231f" fill-opacity="0.635294" cx="132" cy="91" rx="5" ry="7" />
<ellipse fill="#e7e9e7" fill-opacity="0.435294" cx="56" cy="48" rx="10" ry="17" />
<ellipse fill="#e2e4e2" fill-opacity="0.333333" cx="112" cy="96" rx="5" ry="30" />
<ellipse fill="#080000" fill-opacity="0.203922" cx="134" cy="237" rx="4" ry="25" />
<ellipse fill="#d8dad6" fill-opacity="0.411765" cx="83" cy="220" rx="23" ry="4" />
<ellipse fill="#302a26" fill-opacity="0.564706" cx="30" cy="200" rx="2" ry="25" />
<ellipse fill="#53585a" fill-opacity="0.490196" cx="126" cy="16" rx="11" ry="51" />
<ellipse fill="#5a564d" fill-opacity="0.552941" cx="88" cy="93" rx="13" ry="5" />
<ellipse fill="#4c4f4c" fill-opacity="0.690196" cx="54" cy="233" rx="13" ry="3" />
<ellipse fill="#757b7d" fill-opacity="0.839216" cx="137" cy="137" rx="4" ry="19" />
<ellipse fill="#131616" fill-opacity="0.592157" cx="1" cy="136" rx="35" ry="26" />
<ellipse fill="#838b90" fill-opacity="0.380392" cx="35" cy="40" rx="11" ry="27" />
<ellipse fill="#838583" fill-opacity="0.611765" cx="90" cy="172" rx="6" ry="45" />
<ellipse fill="#606564" fill-opacity="0.556863" cx="116" cy="211" rx="10" ry="14" />
<ellipse fill="#f0f0ef" fill-opacity="0.525490" cx="54" cy="112" rx="3" ry="31" />
<ellipse fill="#4c4032" fill-opacity="0.427451" cx="61" cy="118" rx="4" ry="34" />
<ellipse fill="#4f4a43" fill-opacity="0.556863" cx="31" cy="77" rx="7" ry="8" />
<ellipse fill="#434642" fill-opacity="0.529412" cx="0" cy="1" rx="17" ry="17" />
<ellipse fill="#dbdddd" fill-opacity="0.541176" cx="105" cy="72" rx="6" ry="10" />
<ellipse fill="#757c81" fill-opacity="0.631373" cx="140" cy="74" rx="22" ry="14" />
<ellipse fill="#484d4b" fill-opacity="0.733333" cx="54" cy="253" rx="12" ry="4" />
<ellipse fill="#646561" fill-opacity="0.509804" cx="84" cy="190" rx="6" ry="27" />
<ellipse fill="#4e4c47" fill-opacity="0.360784" cx="0" cy="216" rx="62" ry="14" />
<ellipse fill="#c8c7c1" fill-opacity="0.211765" cx="38" cy="229" rx="7" ry="12" />
<ellipse fill="#9b9c98" fill-opacity="0.352941" cx="81" cy="82" rx="26" ry="8" />
<ellipse fill="#babab7" fill-opacity="0.705882" cx="111" cy="129" rx="4" ry="33" />
<ellipse fill="#aaafaf" fill-opacity="0.690196" cx="55" cy="28" rx="13" ry="5" />
<ellipse fill="#313129" fill-opacity="0.509804" cx="116" cy="170" rx="4" ry="20" />
<ellipse fill="#e1e3e3" fill-opacity="0.615686" cx="74" cy="22" rx="7" ry="2" />
<ellipse fill="#24241a" fill-opacity="0.572549" cx="141" cy="108" rx="4" ry="13" />
<ellipse fill="#a59890" fill-opacity="0.458824" cx="47" cy="222" rx="37" ry="2" />
<ellipse fill="#3b2e24" fill-opacity="0.439216" cx="114" cy="228" rx="22" ry="2" />
<ellipse fill="#9d9e9c" fill-opacity="0.427451" cx="87" cy="114" rx="22" ry="5" />
<ellipse fill="#4f463f" fill-opacity="0.619608" cx="38" cy="225" rx="44" ry="1" />
<ellipse fill="#b6c1c4" fill-opacity="0.313725" cx="137" cy="217" rx="2" ry="31" />
<ellipse fill="#bacce7" fill-opacity="0.098039" cx="125" cy="184" rx="8" ry="36" />
<ellipse fill="#a7a7a3" fill-opacity="0.329412" cx="117" cy="250" rx="17" ry="27" />
<ellipse fill="#453d2e" fill-opacity="0.282353" cx="68" cy="94" rx="12" ry="12" />
<ellipse fill="#d8d7cf" fill-opacity="0.572549" cx="57" cy="200" rx="3" ry="6" />
<ellipse fill="#c6c6c3" fill-opacity="0.478431" cx="129" cy="114" rx="3" ry="16" />
<ellipse fill="#13140b" fill-opacity="0.400000" cx="143" cy="149" rx="3" ry="31" />
<ellipse fill="#121010" fill-opacity="0.466667" cx="131" cy="226" rx="3" ry="6" />
<ellipse fill="#727675" fill-opacity="0.611765" cx="97" cy="9" rx="12" ry="29" />
<ellipse fill="#9b9e9d" fill-opacity="0.470588" cx="93" cy="77" rx="8" ry="13" />
<ellipse fill="#e8e2df" fill-opacity="0.568627" cx="57" cy="83" rx="3" ry="4" />
<ellipse fill="#595143" fill-opacity="0.415686" cx="81" cy="147" rx="3" ry="35" />
<ellipse fill="#c6c8c5" fill-opacity="0.498039" cx="103" cy="195" rx="5" ry="29" />
<ellipse fill="#f1e9dd" fill-opacity="0.384314" cx="136" cy="172" rx="1" ry="18" />
<ellipse fill="#74736c" fill-opacity="0.396078" cx="122" cy="142" rx="5" ry="19" />
<ellipse fill="#c0c3bf" fill-opacity="0.600000" cx="89" cy="235" rx="13" ry="6" />
<ellipse fill="#241100" fill-opacity="0.145098" cx="135" cy="221" rx="2" ry="58" />
<ellipse fill="#333a3f" fill-opacity="0.647059" cx="140" cy="205" rx="2" ry="19" />
<ellipse fill="#353731" fill-opacity="0.545098" cx="31" cy="115" rx="4" ry="18" />
<ellipse fill="#c9c8c4" fill-opacity="0.301961" cx="44" cy="65" rx="4" ry="23" />
<ellipse fill="#656a68" fill-opacity="0.227451" cx="0" cy="38" rx="43" ry="26" />
<ellipse fill="#4d483d" fill-opacity="0.239216" cx="50" cy="212" rx="6" ry="23" />
<ellipse fill="#919391" fill-opacity="0.572549" cx="104" cy="106" rx="5" ry="21" />
<ellipse fill="#d2d4d1" fill-opacity="0.450980" cx="80" cy="50" rx="12" ry="28" />
<ellipse fill="#676660" fill-opacity="0.584314" cx="54" cy="70" rx="6" ry="3" />
<ellipse fill="#858886" fill-opacity="0.282353" cx="48" cy="156" rx="5" ry="26" />
<ellipse fill="#b9bbb7" fill-opacity="0.737255" cx="75" cy="216" rx="6" ry="6" />
<ellipse fill="#2b281d" fill-opacity="0.427451" cx="119" cy="164" rx="6" ry="5" />
<ellipse fill="#9c8f87" fill-opacity="0.905882" cx="0" cy="221" rx="22" ry="1" />
</g>
</svg>