<svg xmlns="http://www.w3.org/2000/svg" version="1.1" width="256" height="163">
<rect x="0" y="0" width="256" height="163" fill="#f0f0f0" />
<g transform="scale(1.000000) translate(0.5 0.5)">
<ellipse fill="#10140b" fill-opacity="0.682353" cx="151" cy="98" rx="238" ry="119" />
<ellipse fill="#c7cac0" fill-opacity="0.529412" cx="59" cy="70" rx="56" ry="59" />
<ellipse fill="#1c1d19" fill-opacity="0.552941" cx="192" cy="103" rx="87" ry="78" />
<ellipse fill="#ffffff" fill-opacity="0.619608" cx="163" cy="1" rx="8" ry="31" />
<ellipse fill="#ffffdf" fill-opacity="0.458824" cx="56" cy="81" rx="36" ry="21" />
<ellipse fill="#8b9087" fill-opacity="1.000000" cx="99" cy="16" rx="24" ry="63" />
<ellipse fill="#020604" fill-opacity="0.686275" cx="0" cy="162" rx="28" ry="54" />
<ellipse fill="#0d1319" fill-opacity="0.521569" cx="78" cy="135" rx="36" ry="17" />
<ellipse fill="#797e79" fill-opacity="0.988235" cx="38" cy="28" rx="64" ry="30" />
<ellipse fill="#1a1c16" fill-opacity="0.619608" cx="139" cy="24" rx="16" ry="92" />
<ellipse fill="#dcdbc4" fill-opacity="0.654902" cx="36" cy="100" rx="12" ry="30" />
<ellipse fill="#e0e6ff" fill-opacity="0.674510" cx="91" cy="112" rx="23" ry="4" />
<ellipse fill="#faf5fa" fill-opacity="0.650980" cx="255" cy="109" rx="3" ry="18" />
<ellipse fill="#2f3133" fill-opacity="0.690196" cx="98" cy="103" rx="47" ry="4" />
<ellipse fill="#474841" fill-opacity="0.988235" cx="198" cy="10" rx="24" ry="112" />
<ellipse fill="#c1bdc2" fill-opacity="0.509804" cx="235" cy="113" rx="4" ry="14" />
<ellipse fill="#acb3b6" fill-opacity="0.301961" cx="241" cy="22" rx="34" ry="13" />
<ellipse fill="#050a02" fill-opacity="0.368627" cx="3" cy="96" rx="10" ry="22" />
<ellipse fill="#e3e3d7" fill-opacity="0.635294" cx="68" cy="91" rx="33" ry="8" />
<ellipse fill="#0b0f0f" fill-opacity="0.682353" cx="245" cy="43" rx="26" ry="8" />
<ellipse fill="#cacdb8" fill-opacity="0.505882" cx="97" cy="63" rx="23" ry="8" />
<ellipse fill="#121615" fill-opacity="0.549020" cx="224" cy="125" rx="13" ry="21" />
<ellipse fill="#83897a" fill-opacity="0.403922" cx="28" cy="55" rx="52" ry="27" />
<ellipse fill="#4c5058" fill-opacity="0.568627" cx="58" cy="120" rx="12" ry="19" />
<ellipse fill="#36333c" fill-opacity="0.482353" cx="103" cy="79" rx="10" ry="9" />
<ellipse fill="#1c1e24" fill-opacity="0.349020" cx="33" cy="155" rx="20" ry="28" />
<ellipse fill="#ffffff" fill-opacity="0.623529" cx="49" cy="90" rx="8" ry="11" />
<ellipse fill="#21221c" fill-opacity="0.658824" cx="153" cy="70" rx="16" ry="46" />
<ellipse fill="#020b14" fill-opacity="0.419608" cx="87" cy="85" rx="7" ry="3" />
<ellipse fill="#2f2f23" fill-opacity="0.780392" cx="177" cy="42" rx="5" ry="101" />
<ellipse fill="#ffffff" fill-opacity="0.537255" cx="239" cy="104" rx="3" ry="4" />
<ellipse fill="#9a9eb3" fill-opacity="0.501961" cx="89" cy="116" rx="26" ry="5" />
<ellipse fill="#313129" fill-opacity="0.792157" cx="236" cy="0" rx="25" ry="9" />
<ellipse fill="#000406" fill-opacity="0.509804" cx="247" cy="117" rx="5" ry="33" />
<ellipse fill="#8f9480" fill-opacity="0.376471" cx="22" cy="97" rx="13" ry="32" />
<ellipse fill="#dbced0" fill-opacity="0.509804" cx="169" cy="26" rx="3" ry="9" />
<ellipse fill="#eadbd4" fill-opacity="0.552941" cx="44" cy="64" rx="6" ry="10" />
<ellipse fill="#e5dad0" fill-opacity="0.686275" cx="161" cy="14" rx="7" ry="13" />
<ellipse fill="#383b3a" fill-opacity="0.643137" cx="88" cy="145" rx="5" ry="34" />
<ellipse fill="#5d5f5b" fill-opacity="0.949020" cx="211" cy="62" rx="3" ry="46" />
<ellipse fill="#676762" fill-opacity="0.564706" cx="149" cy="5" rx="8" ry="12" />
<ellipse fill="#151a1a" fill-opacity="0.564706" cx="243" cy="70" rx="19" ry="13" />
<ellipse fill="#dde2d1" fill-opacity="0.466667" cx="115" cy="8" rx="6" ry="9" />
<ellipse fill="#474743" fill-opacity="0.843137" cx="129" cy="155" rx="13" ry="27" />
<ellipse fill="#eeeeff" fill-opacity="0.317647" cx="237" cy="86" rx="10" ry="2" />
<ellipse fill="#fffff4" fill-opacity="0.341176" cx="38" cy="118" rx="8" ry="13" />
<ellipse fill="#ded9e0" fill-opacity="0.309804" cx="236" cy="113" rx="4" ry="10" />
<ellipse fill="#282a1d" fill-opacity="0.549020" cx="199" cy="12" rx="8" ry="27" />
<ellipse fill="#484a4b" fill-opacity="0.988235" cx="255" cy="161" rx="33" ry="9" />
<ellipse fill="#191e1c" fill-opacity="0.886275" cx="235" cy="85" rx="3" ry="13" />
<ellipse fill="#494b4d" fill-opacity="0.725490" cx="98" cy="102" rx="20" ry="5" />
<ellipse fill="#d1cec7" fill-opacity="0.662745" cx="86" cy="92" rx="16" ry="6" />
<ellipse fill="#282a23" fill-opacity="0.647059" cx="132" cy="0" rx="13" ry="10" />
<ellipse fill="#232827" fill-opacity="0.627451" cx="109" cy="129" rx="18" ry="11" />
<ellipse fill="#080c0d" fill-opacity="0.521569" cx="141" cy="23" rx="13" ry="9" />
<ellipse fill="#fff5f4" fill-opacity="0.494118" cx="88" cy="73" rx="7" ry="4" />
<ellipse fill="#252730" fill-opacity="0.274510" cx="4" cy="109" rx="18" ry="15" />
<ellipse fill="#1f221f" fill-opacity="0.662745" cx="217" cy="148" rx="8" ry="57" />
<ellipse fill="#686d6f" fill-opacity="0.584314" cx="15" cy="33" rx="16" ry="25" />
<ellipse fill="#bbc6d0" fill-opacity="0.392157" cx="0" cy="0" rx="16" ry="12" />
<ellipse fill="#757a76" fill-opacity="0.600000" cx="72" cy="25" rx="29" ry="35" />
<ellipse fill="#5c5b53" fill-opacity="0.596078" cx="187" cy="106" rx="4" ry="36" />
<ellipse fill="#dbe4aa" fill-opacity="0.133333" cx="32" cy="52" rx="7" ry="82" />
<ellipse fill="#e7edff" fill-opacity="0.301961" cx="86" cy="111" rx="25" ry="4" />
<ellipse fill="#babfb2" fill-opacity="0.384314" cx="227" cy="53" rx="3" ry="6" />
<ellipse fill="#e2e0ed" fill-opacity="0.403922" cx="232" cy="144" rx="3" ry="3" />
<ellipse fill="#65635f" fill-opacity="0.427451" cx="171" cy="24" rx="2" ry="71" />
<ellipse fill="#6d6f72" fill-opacity="0.576471" cx="42" cy="139" rx="13" ry="3" />
<ellipse fill="#b3b6b6" fill-opacity="0.435294" cx="248" cy="54" rx="3" ry="4" />
<ellipse fill="#222828" fill-opacity="0.580392" cx="81" cy="125" rx="21" ry="4" />
<ellipse fill="#545252" fill-opacity="0.482353" cx="124" cy="41" rx="4" ry="23" />
<ellipse fill="#51565a" fill-opacity="0.576471" cx="83" cy="100" rx="5" ry="6" />
<ellipse fill="#5e5e5e" fill-opacity="0.654902" cx="74" cy="155" rx="34" ry="5" />
<ellipse fill="#ffffeb" fill-opacity="0.380392" cx="109" cy="69" rx="6" ry="3" />
<ellipse fill="#cecab6" fill-opacity="0.501961" cx="245" cy="70" rx="3" ry="3" />
<ellipse fill="#757270" fill-opacity="0.329412" cx="111" cy="143" rx="17" ry="5" />
<ellipse fill="#171b18" fill-opacity="1.000000" cx="253" cy="139" rx="11" ry="11" />
<ellipse fill="#555550" fill-opacity="0.854902" cx="187" cy="0" rx="4" ry="125" />
<ellipse fill="#1a1f1e" fill-opacity="0.423529" cx="57" cy="145" rx="45" ry="5" />
<ellipse fill="#5f6567" fill-opacity="0.400000" cx="103" cy="47" rx="7" ry="12" />
<ellipse fill="#3c3f3c" fill-opacity="0.749020" cx="214" cy="0" rx="3" ry="39" />
<ellipse fill="#676561" fill-opacity="0.388235" cx="143" cy="131" rx="11" ry="6" />
<ellipse fill="#303129" fill-opacity="0.776471" cx="152" cy="111" rx="19" ry="16" />
<ellipse fill="#0c1110" fill-opacity="0.466667" cx="237" cy="124" rx="17" ry="3" />
<ellipse fill="#0e130c" fill-opacity="0.501961" cx="10" cy="157" rx="25" ry="8" />
<ellipse fill="#c3c6a8" fill-opacity="0.501961" cx="70" cy="89" rx="13" ry="12" />
<ellipse fill="#f6e5e8" fill-opacity="0.603922" cx="38" cy="125" rx="10" ry="2" />
<ellipse fill="#5b5c58" fill-opacity="0.560784" cx="217" cy="75" rx="5" ry="15" />
<ellipse fill="#8e9286" fill-opacity="0.803922" cx="1" cy="58" rx="10" ry="8" />
<ellipse fill="#141818" fill-opacity="0.556863" cx="226" cy="42" rx="7" ry="9" />
<ellipse fill="#848484" fill-opacity="0.698039" cx="252" cy="109" rx="1" ry="12" />
<ellipse fill="#f9f0ff" fill-opacity="0.521569" cx="95" cy="94" rx="10" ry="3" />
<ellipse fill="#111818" fill-opacity="0.505882" cx="250" cy="88" rx="5" ry="13" />
<ellipse fill="#2f3239" fill-opacity="0.533333" cx="93" cy="83" rx="7" ry="2" />
<ellipse fill="#1c1f1d" fill-opacity="0.717647" cx="230" cy="116" rx="3" ry="28" />
<ellipse fill="#3e4037" fill-opacity="0.478431" cx="126" cy="68" rx="11" ry="14" />
<ellipse fill="#25261d" fill-opacity="0.403922" cx="148" cy="147" rx="16" ry="13" />
<ellipse fill="#1c201d" fill-opacity="0.596078" cx="43" cy="133" rx="10" ry="4" />
<ellipse fill="#c2c4b1" fill-opacity="0.345098" cx="117" cy="41" rx="6" ry="9" />
<ellipse fill="#6e6f77" fill-opacity="0.337255" cx="23" cy="120" rx="6" ry="18" />
</g>
</svg>