<svg xmlns="http://www.w3.org/2000/svg" version="1.1" width="141" height="256">
<rect x="0" y="0" width="141" height="256" fill="#f0f0f0" />
<g transform="scale(1.000000) translate(0.5 0.5)">
<ellipse fill="#161d12" fill-opacity="0.568627" cx="63" cy="156" rx="138" ry="123" />
<ellipse fill="#2d3026" fill-opacity="0.411765" cx="113" cy="245" rx="140" ry="70" />
<ellipse fill="#e0e3df" fill-opacity="0.321569" cx="77" cy="40" rx="26" ry="192" />
<ellipse fill="#f2fcf1" fill-opacity="0.396078" cx="108" cy="45" rx="22" ry="33" />
<ellipse fill="#939e93" fill-opacity="0.752941" cx="5" cy="48" rx="41" ry="18" />
<ellipse fill="#798084" fill-opacity="0.674510" cx="63" cy="37" rx="11" ry="20" />
<ellipse fill="#393f3e" fill-opacity="0.454902" cx="118" cy="172" rx="29" ry="27" />
<ellipse fill="#1c221a" fill-opacity="0.439216" cx="119" cy="245" rx="30" ry="30" />
<ellipse fill="#c9cdc3" fill-opacity="0.556863" cx="24" cy="97" rx="11" ry="14" />
<ellipse fill="#252b2d" fill-opacity="0.690196" cx="96" cy="118" rx="7" ry="10" />
<ellipse fill="#345553" fill-opacity="0.219608" cx="134" cy="47" rx="14" ry="30" />
<ellipse fill="#000b08" fill-opacity="0.223529" cx="4" cy="196" rx="16" ry="49" />
<ellipse fill="#212b2b" fill-opacity="1.000000" cx="99" cy="206" rx="6" ry="27" />
<ellipse fill="#818279" fill-opacity="0.529412" cx="68" cy="203" rx="26" ry="34" />
<ellipse fill="#c7c9c0" fill-opacity="0.588235" cx="70" cy="89" rx="13" ry="19" />
<ellipse fill="#b4aa92" fill-opacity="0.466667" cx="140" cy="120" rx="24" ry="25" />
<ellipse fill="#fffeff" fill-opacity="0.552941" cx="104" cy="14" rx="28" ry="31" />
<ellipse fill="#6c7273" fill-opacity="0.639216" cx="49" cy="63" rx="12" ry="34" />
<ellipse fill="#fdfffd" fill-opacity="0.494118" cx="32" cy="14" rx="22" ry="27" />
<ellipse fill="#a4a99f" fill-opacity="0.537255" cx="21" cy="109" rx="8" ry="34" />
<ellipse fill="#b4baae" fill-opacity="0.615686" cx="91" cy="57" rx="36" ry="9" />
<ellipse fill="#757264" fill-opacity="0.639216" cx="123" cy="201" rx="18" ry="12" />
<ellipse fill="#4e505d" fill-opacity="0.254902" cx="118" cy="67" rx="67" ry="5" />
<ellipse fill="#3c4139" fill-opacity="0.835294" cx="84" cy="255" rx="27" ry="14" />
<ellipse fill="#7d7f74" fill-opacity="0.568627" cx="123" cy="138" rx="28" ry="15" />
<ellipse fill="#000a0d" fill-opacity="0.576471" cx="9" cy="212" rx="6" ry="10" />
<ellipse fill="#fbfef6" fill-opacity="0.196078" cx="59" cy="178" rx="3" ry="45" />
<ellipse fill="#636a67" fill-opacity="0.545098" cx="41" cy="110" rx="17" ry="13" />
<ellipse fill="#8fa493" fill-opacity="0.576471" cx="139" cy="50" rx="35" ry="7" />
<ellipse fill="#9e9e95" fill-opacity="0.576471" cx="113" cy="106" rx="56" ry="6" />
<ellipse fill="#5f6664" fill-opacity="0.800000" cx="103" cy="156" rx="14" ry="10" />
<ellipse fill="#93948c" fill-opacity="0.556863" cx="33" cy="236" rx="14" ry="4" />
<ellipse fill="#686d66" fill-opacity="0.639216" cx="28" cy="172" rx="29" ry="24" />
<ellipse fill="#747468" fill-opacity="0.854902" cx="82" cy="226" rx="13" ry="11" />
<ellipse fill="#091008" fill-opacity="0.607843" cx="34" cy="253" rx="4" ry="11" />
<ellipse fill="#a1a7a2" fill-opacity="0.541176" cx="40" cy="64" rx="14" ry="5" />
<ellipse fill="#160300" fill-opacity="0.180392" cx="130" cy="91" rx="22" ry="6" />
<ellipse fill="#d2c8b1" fill-opacity="0.474510" cx="123" cy="116" rx="6" ry="9" />
<ellipse fill="#fafafa" fill-opacity="0.670588" cx="84" cy="16" rx="18" ry="17" />
<ellipse fill="#2f3133" fill-opacity="0.250980" cx="140" cy="172" rx="26" ry="27" />
<ellipse fill="#323d3e" fill-opacity="0.380392" cx="131" cy="125" rx="8" ry="6" />
<ellipse fill="#9ea19c" fill-opacity="0.552941" cx="100" cy="75" rx="19" ry="14" />
<ellipse fill="#566162" fill-opacity="0.576471" cx="8" cy="86" rx="6" ry="25" />
<ellipse fill="#50656f" fill-opacity="0.419608" cx="13" cy="31" rx="3" ry="5" />
<ellipse fill="#3a3f36" fill-opacity="0.529412" cx="36" cy="226" rx="23" ry="5" />
<ellipse fill="#3f4648" fill-opacity="0.392157" cx="107" cy="113" rx="6" ry="10" />
<ellipse fill="#6d6f65" fill-opacity="0.639216" cx="108" cy="209" rx="4" ry="22" />
<ellipse fill="#394646" fill-opacity="0.447059" cx="7" cy="143" rx="3" ry="25" />
<ellipse fill="#2e3b42" fill-opacity="0.568627" cx="41" cy="89" rx="4" ry="8" />
<ellipse fill="#8a9195" fill-opacity="0.568627" cx="69" cy="36" rx="18" ry="5" />
<ellipse fill="#9ea98d" fill-opacity="0.592157" cx="1" cy="40" rx="29" ry="9" />
<ellipse fill="#394649" fill-opacity="0.552941" cx="9" cy="153" rx="30" ry="3" />
<ellipse fill="#858376" fill-opacity="0.439216" cx="8" cy="247" rx="20" ry="5" />
<ellipse fill="#c5c7c1" fill-opacity="0.415686" cx="72" cy="125" rx="16" ry="5" />
<ellipse fill="#b5b9ac" fill-opacity="0.505882" cx="101" cy="129" rx="4" ry="6" />
<ellipse fill="#989d93" fill-opacity="0.431373" cx="0" cy="212" rx="4" ry="9" />
<ellipse fill="#50534a" fill-opacity="0.631373" cx="48" cy="220" rx="8" ry="16" />
<ellipse fill="#636f78" fill-opacity="0.498039" cx="35" cy="52" rx="24" ry="5" />
<ellipse fill="#fbfcfd" fill-opacity="0.623529" cx="53" cy="14" rx="4" ry="17" />
<ellipse fill="#112027" fill-opacity="0.509804" cx="96" cy="194" rx="4" ry="16" />
<ellipse fill="#d9dbd2" fill-opacity="0.584314" cx="82" cy="98" rx="4" ry="7" />
<ellipse fill="#777b74" fill-opacity="0.854902" cx="52" cy="130" rx="5" ry="32" />
<ellipse fill="#fefff9" fill-opacity="0.388235" cx="64" cy="91" rx="5" ry="7" />
<ellipse fill="#585b54" fill-opacity="0.627451" cx="133" cy="118" rx="3" ry="12" />
<ellipse fill="#6b706c" fill-opacity="0.505882" cx="67" cy="170" rx="3" ry="25" />
<ellipse fill="#92948d" fill-opacity="0.674510" cx="77" cy="183" rx="8" ry="28" />
<ellipse fill="#c1b8a4" fill-opacity="0.450980" cx="124" cy="139" rx="4" ry="10" />
<ellipse fill="#f4f5f0" fill-opacity="0.396078" cx="39" cy="26" rx="5" ry="18" />
<ellipse fill="#7c807a" fill-opacity="0.478431" cx="21" cy="173" rx="23" ry="9" />
<ellipse fill="#fafcc7" fill-opacity="0.470588" cx="110" cy="56" rx="14" ry="2" />
<ellipse fill="#e9eee2" fill-opacity="0.309804" cx="33" cy="97" rx="4" ry="6" />
<ellipse fill="#a8ada3" fill-opacity="0.517647" cx="104" cy="167" rx="3" ry="7" />
<ellipse fill="#333a37" fill-opacity="0.670588" cx="113" cy="210" rx="3" ry="8" />
<ellipse fill="#eef9ed" fill-opacity="0.250980" cx="0" cy="98" rx="3" ry="14" />
<ellipse fill="#848b8f" fill-opacity="0.584314" cx="65" cy="27" rx="2" ry="14" />
<ellipse fill="#282c24" fill-opacity="0.478431" cx="140" cy="255" rx="22" ry="25" />
<ellipse fill="#dbe1e1" fill-opacity="0.741176" cx="133" cy="36" rx="15" ry="6" />
<ellipse fill="#7d827e" fill-opacity="0.490196" cx="89" cy="86" rx="7" ry="13" />
<ellipse fill="#a9afa4" fill-opacity="0.474510" cx="16" cy="110" rx="3" ry="37" />
<ellipse fill="#6b7177" fill-opacity="0.309804" cx="63" cy="48" rx="32" ry="6" />
<ellipse fill="#757a76" fill-opacity="0.513725" cx="38" cy="81" rx="29" ry="3" />
<ellipse fill="#cfd4d3" fill-opacity="0.423529" cx="81" cy="62" rx="7" ry="6" />
<ellipse fill="#bebcaf" fill-opacity="0.462745" cx="87" cy="158" rx="3" ry="23" />
<ellipse fill="#4a4e48" fill-opacity="0.592157" cx="99" cy="138" rx="2" ry="7" />
<ellipse fill="#81867d" fill-opacity="0.658824" cx="26" cy="138" rx="14" ry="13" />
<ellipse fill="#ffffff" fill-opacity="0.380392" cx="94" cy="39" rx="7" ry="8" />
<ellipse fill="#f9f9f9" fill-opacity="0.792157" cx="73" cy="6" rx="140" ry="9" />
<ellipse fill="#9f9173" fill-opacity="0.533333" cx="21" cy="160" rx="14" ry="3" />
<ellipse fill="#8d9199" fill-opacity="0.756863" cx="59" cy="22" rx="3" ry="6" />
<ellipse fill="#656765" fill-opacity="0.376471" cx="53" cy="56" rx="6" ry="27" />
<ellipse fill="#818073" fill-opacity="0.517647" cx="51" cy="250" rx="4" ry="11" />
<ellipse fill="#303332" fill-opacity="0.560784" cx="92" cy="122" rx="2" ry="10" />
<ellipse fill="#bec0ba" fill-opacity="0.466667" cx="62" cy="148" rx="2" ry="31" />
<ellipse fill="#62696a" fill-opacity="0.643137" cx="3" cy="69" rx="20" ry="7" />
<ellipse fill="#4a5048" fill-opacity="0.474510" cx="140" cy="143" rx="4" ry="12" />
<ellipse fill="#9ea097" fill-opacity="0.823529" cx="91" cy="83" rx="23" ry="3" />
<ellipse fill="#ffffff" fill-opacity="0.556863" cx="140" cy="43" rx="6" ry="3" />
<ellipse fill="#3c3f3c" fill-opacity="0.537255" cx="113" cy="121" rx="3" ry="6" />
<ellipse fill="#3c4441" fill-opacity="0.317647" cx="16" cy="181" rx="5" ry="16" />
<ellipse fill="#b0b2aa" fill-opacity="0.494118" cx="78" cy="145" rx="25" ry="4" />
</g>
</svg>