<svg xmlns="http://www.w3.org/2000/svg" version="1.1" width="144" height="256">
<rect x="0" y="0" width="144" height="256" fill="#f0f0f0" />
<g transform="scale(1.000000) translate(0.5 0.5)">
<ellipse fill="#40433f" fill-opacity="0.811765" cx="25" cy="159" rx="143" ry="160" />
<ellipse fill="#ebebe8" fill-opacity="0.541176" cx="72" cy="255" rx="71" ry="20" />
<ellipse fill="#bebfbb" fill-opacity="0.552941" cx="116" cy="18" rx="72" ry="50" />
<ellipse fill="#1e2123" fill-opacity="0.443137" cx="66" cy="102" rx="69" ry="44" />
<ellipse fill="#26292a" fill-opacity="0.619608" cx="14" cy="42" rx="27" ry="85" />
<ellipse fill="#15191e" fill-opacity="0.525490" cx="125" cy="150" rx="31" ry="36" />
<ellipse fill="#838382" fill-opacity="0.529412" cx="105" cy="54" rx="64" ry="33" />
<ellipse fill="#ffffff" fill-opacity="0.611765" cx="129" cy="5" rx="92" ry="13" />
<ellipse fill="#bbc2bf" fill-opacity="0.501961" cx="59" cy="196" rx="11" ry="17" />
<ellipse fill="#6b6d66" fill-opacity="0.666667" cx="15" cy="216" rx="23" ry="90" />
<ellipse fill="#a3a3a3" fill-opacity="0.596078" cx="135" cy="62" rx="17" ry="29" />
<ellipse fill="#ffffff" fill-opacity="0.105882" cx="0" cy="143" rx="87" ry="17" />
<ellipse fill="#9da59e" fill-opacity="0.592157" cx="75" cy="215" rx="9" ry="17" />
<ellipse fill="#0e1311" fill-opacity="0.470588" cx="79" cy="178" rx="14" ry="10" />
<ellipse fill="#95998d" fill-opacity="0.694118" cx="77" cy="16" rx="6" ry="28" />
<ellipse fill="#545758" fill-opacity="0.470588" cx="35" cy="41" rx="37" ry="18" />
<ellipse fill="#999d9e" fill-opacity="0.701961" cx="47" cy="181" rx="11" ry="10" />
<ellipse fill="#414637" fill-opacity="0.576471" cx="3" cy="180" rx="32" ry="12" />
<ellipse fill="#464a4a" fill-opacity="0.584314" cx="97" cy="88" rx="32" ry="22" />
<ellipse fill="#31353b" fill-opacity="0.568627" cx="26" cy="24" rx="23" ry="22" />
<ellipse fill="#ffffff" fill-opacity="0.847059" cx="133" cy="0" rx="45" ry="22" />
<ellipse fill="#9d9e95" fill-opacity="0.615686" cx="100" cy="37" rx="16" ry="23" />
<ellipse fill="#c2c4c0" fill-opacity="0.564706" cx="94" cy="250" rx="53" ry="10" />
<ellipse fill="#22262a" fill-opacity="0.898039" cx="7" cy="3" rx="11" ry="22" />
<ellipse fill="#292c2e" fill-opacity="0.564706" cx="42" cy="123" rx="8" ry="25" />
<ellipse fill="#a7a9ad" fill-opacity="0.266667" cx="50" cy="65" rx="6" ry="34" />
<ellipse fill="#737676" fill-opacity="0.450980" cx="135" cy="145" rx="8" ry="16" />
<ellipse fill="#fffec5" fill-opacity="0.125490" cx="110" cy="197" rx="58" ry="6" />
<ellipse fill="#191d1f" fill-opacity="0.607843" cx="72" cy="119" rx="19" ry="7" />
<ellipse fill="#9a917d" fill-opacity="0.356863" cx="3" cy="39" rx="17" ry="10" />
<ellipse fill="#7f827f" fill-opacity="0.658824" cx="35" cy="161" rx="17" ry="17" />
<ellipse fill="#ffffff" fill-opacity="0.525490" cx="51" cy="0" rx="14" ry="10" />
<ellipse fill="#bebfbc" fill-opacity="0.556863" cx="43" cy="240" rx="15" ry="6" />
<ellipse fill="#a0a09e" fill-opacity="0.588235" cx="122" cy="52" rx="19" ry="24" />
<ellipse fill="#3d443c" fill-opacity="0.545098" cx="53" cy="218" rx="5" ry="17" />
<ellipse fill="#1c2123" fill-opacity="0.494118" cx="114" cy="134" rx="20" ry="15" />
<ellipse fill="#131617" fill-opacity="0.682353" cx="19" cy="120" rx="4" ry="12" />
<ellipse fill="#62645c" fill-opacity="0.933333" cx="5" cy="205" rx="16" ry="29" />
<ellipse fill="#bfbdb4" fill-opacity="0.494118" cx="96" cy="182" rx="3" ry="12" />
<ellipse fill="#2c3420" fill-opacity="0.329412" cx="90" cy="199" rx="6" ry="19" />
<ellipse fill="#8c8b80" fill-opacity="0.509804" cx="0" cy="119" rx="5" ry="15" />
<ellipse fill="#7b7c75" fill-opacity="0.486275" cx="73" cy="137" rx="9" ry="13" />
<ellipse fill="#33393c" fill-opacity="0.498039" cx="76" cy="64" rx="19" ry="5" />
<ellipse fill="#000e00" fill-opacity="0.384314" cx="24" cy="183" rx="10" ry="6" />
<ellipse fill="#989892" fill-opacity="0.447059" cx="30" cy="127" rx="3" ry="15" />
<ellipse fill="#000a00" fill-opacity="0.215686" cx="59" cy="168" rx="17" ry="6" />
<ellipse fill="#8f8f8c" fill-opacity="0.576471" cx="0" cy="138" rx="21" ry="15" />
<ellipse fill="#889087" fill-opacity="0.654902" cx="85" cy="223" rx="9" ry="9" />
<ellipse fill="#10120d" fill-opacity="0.454902" cx="0" cy="91" rx="26" ry="11" />
<ellipse fill="#80817d" fill-opacity="0.666667" cx="77" cy="45" rx="31" ry="9" />
<ellipse fill="#7b7875" fill-opacity="0.443137" cx="117" cy="182" rx="3" ry="34" />
<ellipse fill="#434646" fill-opacity="0.682353" cx="106" cy="153" rx="37" ry="4" />
<ellipse fill="#0a1c00" fill-opacity="0.282353" cx="98" cy="214" rx="8" ry="9" />
<ellipse fill="#71706c" fill-opacity="0.498039" cx="13" cy="71" rx="10" ry="5" />
<ellipse fill="#000508" fill-opacity="0.474510" cx="107" cy="167" rx="7" ry="7" />
<ellipse fill="#4b4c49" fill-opacity="0.776471" cx="38" cy="112" rx="20" ry="6" />
<ellipse fill="#585955" fill-opacity="0.454902" cx="47" cy="85" rx="26" ry="8" />
<ellipse fill="#abaaa0" fill-opacity="0.607843" cx="88" cy="29" rx="27" ry="6" />
<ellipse fill="#3f4245" fill-opacity="0.419608" cx="17" cy="232" rx="52" ry="4" />
<ellipse fill="#ffffff" fill-opacity="0.376471" cx="52" cy="1" rx="4" ry="23" />
<ellipse fill="#000000" fill-opacity="0.450980" cx="12" cy="118" rx="6" ry="6" />
<ellipse fill="#8b8b83" fill-opacity="0.501961" cx="85" cy="149" rx="23" ry="2" />
<ellipse fill="#72766f" fill-opacity="0.470588" cx="26" cy="232" rx="7" ry="46" />
<ellipse fill="#131a2c" fill-opacity="0.286275" cx="59" cy="31" rx="5" ry="7" />
<ellipse fill="#464c54" fill-opacity="0.458824" cx="140" cy="85" rx="3" ry="13" />
<ellipse fill="#02070b" fill-opacity="0.474510" cx="125" cy="172" rx="7" ry="9" />
<ellipse fill="#1f2120" fill-opacity="0.713725" cx="29" cy="100" rx="13" ry="7" />
<ellipse fill="#2e372a" fill-opacity="0.407843" cx="138" cy="213" rx="14" ry="5" />
<ellipse fill="#8d9786" fill-opacity="0.576471" cx="60" cy="13" rx="5" ry="4" />
<ellipse fill="#878b92" fill-opacity="0.333333" cx="127" cy="151" rx="24" ry="2" />
<ellipse fill="#0e1111" fill-opacity="0.435294" cx="22" cy="124" rx="6" ry="10" />
<ellipse fill="#acada9" fill-opacity="0.968627" cx="137" cy="255" rx="8" ry="9" />
<ellipse fill="#525452" fill-opacity="0.635294" cx="129" cy="112" rx="13" ry="8" />
<ellipse fill="#ced0d3" fill-opacity="0.541176" cx="123" cy="52" rx="6" ry="4" />
<ellipse fill="#4a4b47" fill-opacity="0.670588" cx="63" cy="146" rx="8" ry="4" />
<ellipse fill="#90908b" fill-opacity="0.541176" cx="122" cy="235" rx="12" ry="3" />
<ellipse fill="#91978b" fill-opacity="0.611765" cx="29" cy="196" rx="6" ry="7" />
<ellipse fill="#9da093" fill-opacity="0.525490" cx="85" cy="25" rx="28" ry="10" />
<ellipse fill="#ffffff" fill-opacity="0.623529" cx="143" cy="15" rx="15" ry="12" />
<ellipse fill="#101314" fill-opacity="0.243137" cx="84" cy="235" rx="22" ry="2" />
<ellipse fill="#9a9993" fill-opacity="0.443137" cx="99" cy="83" rx="9" ry="3" />
<ellipse fill="#9ea9a0" fill-opacity="0.592157" cx="80" cy="9" rx="8" ry="3" />
<ellipse fill="#1c1e1e" fill-opacity="0.478431" cx="60" cy="111" rx="8" ry="9" />
<ellipse fill="#535956" fill-opacity="0.670588" cx="47" cy="203" rx="6" ry="10" />
<ellipse fill="#a1a1a0" fill-opacity="0.654902" cx="4" cy="255" rx="17" ry="5" />
<ellipse fill="#838180" fill-opacity="0.392157" cx="135" cy="43" rx="15" ry="8" />
<ellipse fill="#485042" fill-opacity="0.501961" cx="88" cy="207" rx="18" ry="3" />
<ellipse fill="#505353" fill-opacity="0.839216" cx="126" cy="185" rx="19" ry="4" />
<ellipse fill="#646965" fill-opacity="1.000000" cx="76" cy="204" rx="21" ry="1" />
<ellipse fill="#6b6b63" fill-opacity="0.576471" cx="17" cy="47" rx="8" ry="7" />
<ellipse fill="#b7bbc5" fill-opacity="0.443137" cx="61" cy="196" rx="6" ry="8" />
<ellipse fill="#585a53" fill-opacity="0.458824" cx="67" cy="182" rx="5" ry="10" />
<ellipse fill="#c0c1be" fill-opacity="0.525490" cx="75" cy="245" rx="43" ry="9" />
<ellipse fill="#20181e" fill-opacity="0.200000" cx="3" cy="162" rx="4" ry="18" />
<ellipse fill="#181d20" fill-opacity="0.447059" cx="143" cy="169" rx="7" ry="15" />
<ellipse fill="#1e201e" fill-opacity="0.564706" cx="0" cy="52" rx="10" ry="6" />
<ellipse fill="#686864" fill-opacity="0.858824" cx="18" cy="158" rx="19" ry="3" />
<ellipse fill="#191d1e" fill-opacity="0.478431" cx="88" cy="122" rx="11" ry="6" />
<ellipse fill="#ffffff" fill-opacity="0.517647" cx="83" cy="0" rx="5" ry="7" />
<ellipse fill="#191e1e" fill-opacity="0.458824" cx="38" cy="133" rx="4" ry="13" />
</g>
</svg>