<svg xmlns="http://www.w3.org/2000/svg" version="1.1" width="256" height="143">
<rect x="0" y="0" width="256" height="143" fill="#f0f0f0" />
<g transform="scale(1.000000) translate(0.5 0.5)">
<ellipse fill="#151814" fill-opacity="0.568627" cx="131" cy="73" rx="156" ry="142" />
<ellipse fill="#2b3030" fill-opacity="0.823529" cx="4" cy="62" rx="18" ry="142" />
<ellipse fill="#abaead" fill-opacity="0.533333" cx="121" cy="31" rx="70" ry="71" />
<ellipse fill="#2f2f2d" fill-opacity="0.545098" cx="255" cy="142" rx="120" ry="42" />
<ellipse fill="#8a8985" fill-opacity="0.584314" cx="200" cy="64" rx="25" ry="57" />
<ellipse fill="#0d0a08" fill-opacity="0.329412" cx="236" cy="30" rx="76" ry="7" />
<ellipse fill="#10100d" fill-opacity="0.666667" cx="245" cy="124" rx="56" ry="6" />
<ellipse fill="#181914" fill-opacity="0.600000" cx="236" cy="64" rx="6" ry="15" />
<ellipse fill="#040403" fill-opacity="0.486275" cx="119" cy="103" rx="53" ry="2" />
<ellipse fill="#434646" fill-opacity="0.650980" cx="125" cy="141" rx="47" ry="14" />
<ellipse fill="#24231d" fill-opacity="0.513725" cx="159" cy="66" rx="6" ry="14" />
<ellipse fill="#ded8c9" fill-opacity="0.537255" cx="163" cy="50" rx="19" ry="6" />
<ellipse fill="#9b9d9a" fill-opacity="0.952941" cx="92" cy="91" rx="30" ry="9" />
<ellipse fill="#e4f7f1" fill-opacity="0.474510" cx="80" cy="0" rx="29" ry="5" />
<ellipse fill="#a09d95" fill-opacity="0.450980" cx="194" cy="57" rx="31" ry="30" />
<ellipse fill="#4c5255" fill-opacity="0.752941" cx="28" cy="1" rx="25" ry="15" />
<ellipse fill="#c6cdcc" fill-opacity="0.580392" cx="81" cy="33" rx="28" ry="5" />
<ellipse fill="#616368" fill-opacity="0.478431" cx="150" cy="29" rx="16" ry="17" />
<ellipse fill="#c5baa4" fill-opacity="0.329412" cx="196" cy="142" rx="14" ry="15" />
<ellipse fill="#1e2228" fill-opacity="0.243137" cx="247" cy="0" rx="32" ry="40" />
<ellipse fill="#000000" fill-opacity="0.113725" cx="13" cy="127" rx="39" ry="43" />
<ellipse fill="#fff0d1" fill-opacity="0.321569" cx="236" cy="44" rx="13" ry="6" />
<ellipse fill="#908e8c" fill-opacity="0.447059" cx="139" cy="116" rx="38" ry="11" />
<ellipse fill="#7d807c" fill-opacity="0.615686" cx="38" cy="47" rx="20" ry="39" />
<ellipse fill="#5d6164" fill-opacity="0.501961" cx="197" cy="106" rx="42" ry="14" />
<ellipse fill="#5a656b" fill-opacity="0.549020" cx="103" cy="70" rx="5" ry="28" />
<ellipse fill="#b1ab9d" fill-opacity="0.694118" cx="140" cy="69" rx="14" ry="23" />
<ellipse fill="#141512" fill-opacity="0.466667" cx="235" cy="81" rx="4" ry="13" />
<ellipse fill="#000000" fill-opacity="0.223529" cx="131" cy="43" rx="14" ry="5" />
<ellipse fill="#696a64" fill-opacity="0.666667" cx="204" cy="65" rx="5" ry="25" />
<ellipse fill="#94969a" fill-opacity="0.827451" cx="193" cy="6" rx="5" ry="31" />
<ellipse fill="#000000" fill-opacity="0.380392" cx="70" cy="81" rx="8" ry="3" />
<ellipse fill="#b7c0c4" fill-opacity="0.384314" cx="119" cy="33" rx="13" ry="12" />
<ellipse fill="#6b6f70" fill-opacity="0.717647" cx="250" cy="22" rx="34" ry="7" />
<ellipse fill="#02070d" fill-opacity="0.360784" cx="211" cy="27" rx="16" ry="4" />
<ellipse fill="#757a80" fill-opacity="0.886275" cx="169" cy="0" rx="16" ry="13" />
<ellipse fill="#8b867b" fill-opacity="0.513725" cx="154" cy="91" rx="32" ry="12" />
<ellipse fill="#070501" fill-opacity="0.564706" cx="244" cy="33" rx="13" ry="3" />
<ellipse fill="#4a4f4f" fill-opacity="0.462745" cx="19" cy="85" rx="5" ry="142" />
<ellipse fill="#cbd3cd" fill-opacity="0.333333" cx="61" cy="1" rx="7" ry="46" />
<ellipse fill="#97958f" fill-opacity="0.596078" cx="71" cy="118" rx="6" ry="17" />
<ellipse fill="#817e71" fill-opacity="0.513725" cx="255" cy="71" rx="19" ry="26" />
<ellipse fill="#6a7179" fill-opacity="0.309804" cx="87" cy="19" rx="35" ry="9" />
<ellipse fill="#9ba3a3" fill-opacity="0.874510" cx="95" cy="6" rx="27" ry="5" />
<ellipse fill="#cbcfcc" fill-opacity="0.615686" cx="80" cy="47" rx="8" ry="4" />
<ellipse fill="#040100" fill-opacity="0.407843" cx="169" cy="142" rx="15" ry="5" />
<ellipse fill="#abaca5" fill-opacity="0.274510" cx="26" cy="69" rx="10" ry="13" />
<ellipse fill="#8d8b7f" fill-opacity="0.596078" cx="224" cy="57" rx="7" ry="28" />
<ellipse fill="#080800" fill-opacity="0.313725" cx="251" cy="124" rx="13" ry="12" />
<ellipse fill="#1d1f1d" fill-opacity="0.545098" cx="5" cy="120" rx="7" ry="36" />
<ellipse fill="#b7b5b0" fill-opacity="0.470588" cx="180" cy="76" rx="11" ry="9" />
<ellipse fill="#5a5d5c" fill-opacity="0.623529" cx="52" cy="57" rx="5" ry="17" />
<ellipse fill="#20282f" fill-opacity="0.443137" cx="146" cy="97" rx="9" ry="3" />
<ellipse fill="#6f7475" fill-opacity="0.584314" cx="11" cy="4" rx="4" ry="16" />
<ellipse fill="#272823" fill-opacity="0.309804" cx="255" cy="106" rx="4" ry="53" />
<ellipse fill="#b6b1a5" fill-opacity="0.482353" cx="216" cy="47" rx="6" ry="14" />
<ellipse fill="#d9d7ce" fill-opacity="0.482353" cx="175" cy="52" rx="5" ry="9" />
<ellipse fill="#242a30" fill-opacity="0.549020" cx="31" cy="5" rx="16" ry="3" />
<ellipse fill="#252725" fill-opacity="0.494118" cx="232" cy="52" rx="12" ry="3" />
<ellipse fill="#48423a" fill-opacity="0.498039" cx="152" cy="37" rx="10" ry="4" />
<ellipse fill="#dad6ca" fill-opacity="0.466667" cx="130" cy="57" rx="7" ry="7" />
<ellipse fill="#bfc9c8" fill-opacity="0.305882" cx="111" cy="66" rx="6" ry="16" />
<ellipse fill="#595b5a" fill-opacity="0.294118" cx="233" cy="129" rx="216" ry="4" />
<ellipse fill="#000009" fill-opacity="0.200000" cx="187" cy="43" rx="2" ry="22" />
<ellipse fill="#393d40" fill-opacity="0.423529" cx="176" cy="107" rx="13" ry="6" />
<ellipse fill="#717578" fill-opacity="0.533333" cx="231" cy="20" rx="25" ry="7" />
<ellipse fill="#fffdec" fill-opacity="0.407843" cx="76" cy="95" rx="5" ry="4" />
<ellipse fill="#000003" fill-opacity="0.396078" cx="2" cy="8" rx="8" ry="6" />
<ellipse fill="#83807c" fill-opacity="0.392157" cx="51" cy="99" rx="24" ry="18" />
<ellipse fill="#899096" fill-opacity="0.494118" cx="141" cy="12" rx="25" ry="26" />
<ellipse fill="#ffffff" fill-opacity="0.247059" cx="111" cy="0" rx="15" ry="4" />
<ellipse fill="#000000" fill-opacity="0.431373" cx="161" cy="62" rx="2" ry="9" />
<ellipse fill="#130b07" fill-opacity="0.435294" cx="169" cy="33" rx="4" ry="4" />
<ellipse fill="#ccd1d5" fill-opacity="0.317647" cx="134" cy="101" rx="21" ry="2" />
<ellipse fill="#2e2e2d" fill-opacity="0.498039" cx="124" cy="47" rx="7" ry="2" />
<ellipse fill="#6f706c" fill-opacity="0.439216" cx="66" cy="71" rx="17" ry="7" />
<ellipse fill="#020405" fill-opacity="0.509804" cx="110" cy="103" rx="32" ry="1" />
<ellipse fill="#a6a8a0" fill-opacity="0.486275" cx="33" cy="28" rx="6" ry="8" />
<ellipse fill="#b2b4b8" fill-opacity="0.325490" cx="114" cy="126" rx="10" ry="4" />
<ellipse fill="#000001" fill-opacity="0.470588" cx="233" cy="63" rx="2" ry="14" />
<ellipse fill="#5e6261" fill-opacity="0.549020" cx="142" cy="133" rx="16" ry="9" />
<ellipse fill="#484944" fill-opacity="0.564706" cx="214" cy="63" rx="10" ry="2" />
<ellipse fill="#756d5d" fill-opacity="0.647059" cx="163" cy="82" rx="9" ry="5" />
<ellipse fill="#5e5f5b" fill-opacity="0.678431" cx="213" cy="137" rx="4" ry="16" />
<ellipse fill="#fffff2" fill-opacity="0.243137" cx="163" cy="42" rx="4" ry="9" />
<ellipse fill="#3a3d3b" fill-opacity="0.572549" cx="255" cy="10" rx="16" ry="5" />
<ellipse fill="#aeb1ac" fill-opacity="0.556863" cx="90" cy="83" rx="8" ry="13" />
<ellipse fill="#4d585e" fill-opacity="0.529412" cx="81" cy="41" rx="7" ry="3" />
<ellipse fill="#919191" fill-opacity="0.258824" cx="197" cy="109" rx="13" ry="11" />
<ellipse fill="#b3ab9a" fill-opacity="0.403922" cx="151" cy="91" rx="15" ry="5" />
<ellipse fill="#ffffff" fill-opacity="0.603922" cx="68" cy="0" rx="7" ry="4" />
<ellipse fill="#7a7f84" fill-opacity="0.619608" cx="161" cy="20" rx="10" ry="12" />
<ellipse fill="#b4bbcd" fill-opacity="0.180392" cx="200" cy="13" rx="32" ry="5" />
<ellipse fill="#040200" fill-opacity="0.227451" cx="213" cy="123" rx="34" ry="4" />
<ellipse fill="#d2d5d1" fill-opacity="0.470588" cx="115" cy="30" rx="8" ry="4" />
<ellipse fill="#464848" fill-opacity="0.537255" cx="167" cy="113" rx="21" ry="2" />
<ellipse fill="#a8aba8" fill-opacity="1.000000" cx="67" cy="40" rx="7" ry="6" />
<ellipse fill="#bdc9cc" fill-opacity="0.294118" cx="99" cy="43" rx="10" ry="6" />
<ellipse fill="#515150" fill-opacity="0.533333" cx="178" cy="65" rx="8" ry="2" />
<ellipse fill="#2a2a2c" fill-opacity="0.254902" cx="242" cy="98" rx="44" ry="2" />
</g>
</svg>