<svg xmlns="http://www.w3.org/2000/svg" version="1.1" width="256" height="143">
<rect x="0" y="0" width="256" height="143" fill="#f0f0f0" />
<g transform="scale(1.000000) translate(0.5 0.5)">
<ellipse fill="#535853" fill-opacity="0.690196" cx="125" cy="0" rx="232" ry="138" />
<ellipse fill="#cdcec6" fill-opacity="0.905882" cx="70" cy="113" rx="45" ry="34" />
<ellipse fill="#03111c" fill-opacity="0.301961" cx="160" cy="62" rx="55" ry="71" />
<ellipse fill="#a6aaa8" fill-opacity="0.764706" cx="240" cy="105" rx="29" ry="142" />
<ellipse fill="#c1c3ba" fill-opacity="0.847059" cx="0" cy="142" rx="123" ry="25" />
<ellipse fill="#5a5749" fill-opacity="0.580392" cx="39" cy="46" rx="10" ry="54" />
<ellipse fill="#fffcf4" fill-opacity="0.466667" cx="228" cy="142" rx="6" ry="84" />
<ellipse fill="#fff9e1" fill-opacity="0.223529" cx="83" cy="82" rx="21" ry="48" />
<ellipse fill="#d0cbbc" fill-opacity="0.607843" cx="25" cy="73" rx="4" ry="76" />
<ellipse fill="#626560" fill-opacity="0.741176" cx="255" cy="124" rx="14" ry="11" />
<ellipse fill="#324053" fill-opacity="0.827451" cx="200" cy="117" rx="10" ry="11" />
<ellipse fill="#7f7d71" fill-opacity="0.615686" cx="52" cy="78" rx="19" ry="18" />
<ellipse fill="#878e88" fill-opacity="0.372549" cx="142" cy="133" rx="71" ry="9" />
<ellipse fill="#321606" fill-opacity="0.129412" cx="255" cy="63" rx="47" ry="29" />
<ellipse fill="#ccc38f" fill-opacity="0.376471" cx="133" cy="56" rx="11" ry="17" />
<ellipse fill="#233037" fill-opacity="0.643137" cx="112" cy="76" rx="11" ry="12" />
<ellipse fill="#2c425e" fill-opacity="0.513725" cx="182" cy="88" rx="20" ry="31" />
<ellipse fill="#dbdcd5" fill-opacity="0.811765" cx="223" cy="142" rx="27" ry="20" />
<ellipse fill="#e3e6ed" fill-opacity="0.494118" cx="157" cy="94" rx="5" ry="8" />
<ellipse fill="#0a161c" fill-opacity="0.580392" cx="135" cy="33" rx="15" ry="5" />
<ellipse fill="#969588" fill-opacity="0.525490" cx="100" cy="33" rx="21" ry="29" />
<ellipse fill="#8e9871" fill-opacity="0.600000" cx="142" cy="91" rx="7" ry="26" />
<ellipse fill="#e5e5db" fill-opacity="0.458824" cx="46" cy="132" rx="22" ry="36" />
<ellipse fill="#cecabe" fill-opacity="0.603922" cx="29" cy="98" rx="3" ry="42" />
<ellipse fill="#fdf6e4" fill-opacity="0.376471" cx="62" cy="19" rx="2" ry="54" />
<ellipse fill="#65656e" fill-opacity="0.549020" cx="197" cy="42" rx="22" ry="45" />
<ellipse fill="#e2e3de" fill-opacity="0.627451" cx="96" cy="105" rx="16" ry="21" />
<ellipse fill="#a0b5ba" fill-opacity="0.603922" cx="235" cy="4" rx="26" ry="27" />
<ellipse fill="#dbdcd6" fill-opacity="0.474510" cx="225" cy="76" rx="5" ry="28" />
<ellipse fill="#585a51" fill-opacity="0.784314" cx="31" cy="8" rx="4" ry="37" />
<ellipse fill="#7c7868" fill-opacity="0.552941" cx="1" cy="24" rx="18" ry="95" />
<ellipse fill="#0b120f" fill-opacity="0.411765" cx="174" cy="72" rx="6" ry="16" />
<ellipse fill="#d0d2c8" fill-opacity="0.349020" cx="174" cy="138" rx="55" ry="8" />
<ellipse fill="#707575" fill-opacity="0.392157" cx="125" cy="132" rx="38" ry="7" />
<ellipse fill="#505450" fill-opacity="0.631373" cx="253" cy="136" rx="3" ry="15" />
<ellipse fill="#ffb7ce" fill-opacity="0.415686" cx="177" cy="46" rx="7" ry="4" />
<ellipse fill="#bcb9ac" fill-opacity="0.694118" cx="21" cy="7" rx="3" ry="40" />
<ellipse fill="#ede1c1" fill-opacity="0.525490" cx="74" cy="54" rx="10" ry="6" />
<ellipse fill="#4a737e" fill-opacity="0.545098" cx="172" cy="114" rx="17" ry="19" />
<ellipse fill="#46464a" fill-opacity="0.376471" cx="208" cy="49" rx="31" ry="5" />
<ellipse fill="#dbdcd4" fill-opacity="0.415686" cx="255" cy="107" rx="12" ry="12" />
<ellipse fill="#851c3a" fill-opacity="0.364706" cx="134" cy="80" rx="7" ry="13" />
<ellipse fill="#55564f" fill-opacity="0.439216" cx="243" cy="117" rx="8" ry="7" />
<ellipse fill="#3e4746" fill-opacity="0.568627" cx="141" cy="123" rx="16" ry="6" />
<ellipse fill="#f6f6f2" fill-opacity="0.501961" cx="188" cy="73" rx="5" ry="2" />
<ellipse fill="#4c6377" fill-opacity="0.674510" cx="117" cy="112" rx="4" ry="13" />
<ellipse fill="#5f4c4f" fill-opacity="0.549020" cx="238" cy="60" rx="4" ry="13" />
<ellipse fill="#978a84" fill-opacity="0.733333" cx="217" cy="71" rx="11" ry="7" />
<ellipse fill="#4d535c" fill-opacity="0.419608" cx="214" cy="119" rx="13" ry="4" />
<ellipse fill="#fffff9" fill-opacity="0.580392" cx="124" cy="119" rx="3" ry="4" />
<ellipse fill="#313d44" fill-opacity="0.474510" cx="253" cy="81" rx="6" ry="7" />
<ellipse fill="#424849" fill-opacity="0.619608" cx="163" cy="80" rx="7" ry="15" />
<ellipse fill="#afb8a2" fill-opacity="0.545098" cx="248" cy="42" rx="10" ry="17" />
<ellipse fill="#b2c3d1" fill-opacity="0.568627" cx="120" cy="46" rx="5" ry="3" />
<ellipse fill="#f6fcf6" fill-opacity="0.545098" cx="242" cy="78" rx="7" ry="2" />
<ellipse fill="#bdc4e2" fill-opacity="0.458824" cx="214" cy="101" rx="4" ry="18" />
<ellipse fill="#363e43" fill-opacity="0.858824" cx="116" cy="61" rx="6" ry="7" />
<ellipse fill="#aaa79d" fill-opacity="0.631373" cx="79" cy="50" rx="2" ry="59" />
<ellipse fill="#cccac0" fill-opacity="0.564706" cx="64" cy="89" rx="2" ry="49" />
<ellipse fill="#dadbd3" fill-opacity="0.564706" cx="94" cy="103" rx="12" ry="27" />
<ellipse fill="#dddad8" fill-opacity="0.580392" cx="232" cy="101" rx="7" ry="10" />
<ellipse fill="#201200" fill-opacity="0.168627" cx="67" cy="50" rx="3" ry="34" />
<ellipse fill="#505553" fill-opacity="0.329412" cx="164" cy="8" rx="47" ry="19" />
<ellipse fill="#dadbd4" fill-opacity="0.627451" cx="206" cy="141" rx="31" ry="13" />
<ellipse fill="#83837a" fill-opacity="0.749020" cx="54" cy="43" rx="8" ry="46" />
<ellipse fill="#7f7b6d" fill-opacity="0.517647" cx="21" cy="100" rx="4" ry="18" />
<ellipse fill="#899087" fill-opacity="0.537255" cx="207" cy="40" rx="10" ry="8" />
<ellipse fill="#ffffb7" fill-opacity="0.156863" cx="148" cy="57" rx="15" ry="5" />
<ellipse fill="#626198" fill-opacity="0.537255" cx="206" cy="91" rx="4" ry="26" />
<ellipse fill="#a5a496" fill-opacity="0.509804" cx="2" cy="136" rx="20" ry="7" />
<ellipse fill="#8c8f84" fill-opacity="0.501961" cx="28" cy="128" rx="7" ry="4" />
<ellipse fill="#7c7571" fill-opacity="0.815686" cx="148" cy="43" rx="28" ry="3" />
<ellipse fill="#706a64" fill-opacity="0.470588" cx="219" cy="93" rx="4" ry="9" />
<ellipse fill="#d2d1c5" fill-opacity="0.537255" cx="189" cy="129" rx="2" ry="14" />
<ellipse fill="#706f65" fill-opacity="0.650980" cx="42" cy="86" rx="8" ry="11" />
<ellipse fill="#222a32" fill-opacity="0.572549" cx="164" cy="51" rx="4" ry="7" />
<ellipse fill="#888b83" fill-opacity="0.482353" cx="77" cy="100" rx="9" ry="3" />
<ellipse fill="#98adff" fill-opacity="0.447059" cx="188" cy="57" rx="7" ry="2" />
<ellipse fill="#b9b9af" fill-opacity="0.521569" cx="134" cy="121" rx="4" ry="3" />
<ellipse fill="#dce3e9" fill-opacity="0.498039" cx="225" cy="55" rx="4" ry="8" />
<ellipse fill="#607488" fill-opacity="0.615686" cx="186" cy="82" rx="7" ry="9" />
<ellipse fill="#24213f" fill-opacity="0.356863" cx="191" cy="66" rx="16" ry="5" />
<ellipse fill="#dfe1dc" fill-opacity="0.529412" cx="77" cy="115" rx="14" ry="14" />
<ellipse fill="#e3e3d7" fill-opacity="0.517647" cx="6" cy="122" rx="29" ry="4" />
<ellipse fill="#a6a6a0" fill-opacity="0.584314" cx="73" cy="78" rx="5" ry="9" />
<ellipse fill="#bfc2be" fill-opacity="0.466667" cx="149" cy="140" rx="3" ry="18" />
<ellipse fill="#a9a79d" fill-opacity="0.882353" cx="92" cy="20" rx="2" ry="49" />
<ellipse fill="#d4c2ba" fill-opacity="0.592157" cx="164" cy="61" rx="4" ry="2" />
<ellipse fill="#4e4c40" fill-opacity="0.435294" cx="73" cy="66" rx="7" ry="3" />
<ellipse fill="#3b3b58" fill-opacity="0.486275" cx="196" cy="96" rx="5" ry="34" />
<ellipse fill="#70646c" fill-opacity="0.498039" cx="232" cy="49" rx="3" ry="19" />
<ellipse fill="#8b8d86" fill-opacity="0.603922" cx="100" cy="47" rx="6" ry="31" />
<ellipse fill="#83857d" fill-opacity="0.560784" cx="108" cy="10" rx="15" ry="49" />
<ellipse fill="#c1cdcd" fill-opacity="0.533333" cx="168" cy="118" rx="4" ry="2" />
<ellipse fill="#5f6f77" fill-opacity="0.345098" cx="235" cy="81" rx="5" ry="13" />
<ellipse fill="#a05561" fill-opacity="0.482353" cx="200" cy="71" rx="3" ry="13" />
<ellipse fill="#d8d9d1" fill-opacity="0.701961" cx="117" cy="142" rx="102" ry="3" />
<ellipse fill="#828f8b" fill-opacity="0.521569" cx="218" cy="25" rx="13" ry="9" />
<ellipse fill="#383d3d" fill-opacity="0.478431" cx="177" cy="123" rx="6" ry="7" />
<ellipse fill="#21242f" fill-opacity="0.458824" cx="201" cy="56" rx="3" ry="9" />
</g>
</svg>