<svg xmlns="http://www.w3.org/2000/svg" version="1.1" width="256" height="187">
<rect x="0" y="0" width="256" height="187" fill="#f0f0f0" />
<g transform="scale(1.000000) translate(0.5 0.5)">
<ellipse fill="#939c82" fill-opacity="0.592157" cx="157" cy="80" rx="182" ry="171" />
<ellipse fill="#100e0e" fill-opacity="0.796078" cx="120" cy="158" rx="33" ry="19" />
<ellipse fill="#301b01" fill-opacity="0.662745" cx="205" cy="161" rx="31" ry="16" />
<ellipse fill="#191c1a" fill-opacity="0.576471" cx="36" cy="43" rx="32" ry="18" />
<ellipse fill="#ebeee6" fill-opacity="0.996078" cx="137" cy="130" rx="255" ry="12" />
<ellipse fill="#342c31" fill-opacity="0.443137" cx="116" cy="42" rx="29" ry="19" />
<ellipse fill="#f0f6e9" fill-opacity="0.643137" cx="36" cy="74" rx="251" ry="15" />
<ellipse fill="#3d4300" fill-opacity="0.552941" cx="32" cy="169" rx="35" ry="8" />
<ellipse fill="#362936" fill-opacity="0.619608" cx="107" cy="105" rx="18" ry="13" />
<ellipse fill="#44342d" fill-opacity="0.454902" cx="205" cy="104" rx="32" ry="15" />
<ellipse fill="#d6e2cd" fill-opacity="1.000000" cx="128" cy="11" rx="255" ry="15" />
<ellipse fill="#e4e6df" fill-opacity="0.917647" cx="78" cy="106" rx="13" ry="126" />
<ellipse fill="#eeede9" fill-opacity="1.000000" cx="159" cy="164" rx="8" ry="107" />
<ellipse fill="#d7ebcc" fill-opacity="0.980392" cx="248" cy="142" rx="13" ry="186" />
<ellipse fill="#52d702" fill-opacity="0.721569" cx="191" cy="70" rx="58" ry="2" />
<ellipse fill="#563714" fill-opacity="0.301961" cx="38" cy="105" rx="33" ry="14" />
<ellipse fill="#69c337" fill-opacity="0.713725" cx="191" cy="36" rx="53" ry="4" />
<ellipse fill="#e5f1de" fill-opacity="1.000000" cx="122" cy="185" rx="255" ry="9" />
<ellipse fill="#000000" fill-opacity="0.592157" cx="96" cy="161" rx="7" ry="20" />
<ellipse fill="#27ca00" fill-opacity="0.607843" cx="238" cy="17" rx="6" ry="7" />
<ellipse fill="#e8f5de" fill-opacity="0.858824" cx="232" cy="44" rx="90" ry="5" />
<ellipse fill="#f1fff3" fill-opacity="0.419608" cx="41" cy="149" rx="47" ry="15" />
<ellipse fill="#000103" fill-opacity="0.517647" cx="144" cy="159" rx="8" ry="19" />
<ellipse fill="#9e97a7" fill-opacity="0.490196" cx="108" cy="88" rx="130" ry="5" />
<ellipse fill="#dcead4" fill-opacity="0.945098" cx="2" cy="119" rx="4" ry="121" />
<ellipse fill="#6e6143" fill-opacity="1.000000" cx="228" cy="158" rx="8" ry="17" />
<ellipse fill="#62626c" fill-opacity="0.478431" cx="194" cy="54" rx="38" ry="6" />
<ellipse fill="#29d800" fill-opacity="0.576471" cx="241" cy="49" rx="2" ry="20" />
<ellipse fill="#382f22" fill-opacity="0.541176" cx="184" cy="161" rx="11" ry="16" />
<ellipse fill="#46de00" fill-opacity="0.619608" cx="229" cy="28" rx="6" ry="7" />
<ellipse fill="#4a4547" fill-opacity="0.670588" cx="94" cy="101" rx="5" ry="18" />
<ellipse fill="#4c4e4b" fill-opacity="0.576471" cx="60" cy="43" rx="8" ry="18" />
<ellipse fill="#402818" fill-opacity="0.572549" cx="57" cy="113" rx="10" ry="6" />
<ellipse fill="#3d3635" fill-opacity="0.513725" cx="112" cy="57" rx="31" ry="3" />
<ellipse fill="#a3a39f" fill-opacity="0.694118" cx="84" cy="150" rx="2" ry="153" />
<ellipse fill="#3a800a" fill-opacity="0.494118" cx="141" cy="48" rx="3" ry="23" />
<ellipse fill="#a9a0ad" fill-opacity="0.701961" cx="158" cy="34" rx="59" ry="3" />
<ellipse fill="#484e46" fill-opacity="0.584314" cx="14" cy="43" rx="9" ry="18" />
<ellipse fill="#eff2ea" fill-opacity="0.752941" cx="74" cy="90" rx="8" ry="115" />
<ellipse fill="#d9d9d5" fill-opacity="0.878431" cx="171" cy="169" rx="4" ry="98" />
<ellipse fill="#3b3633" fill-opacity="0.564706" cx="117" cy="27" rx="32" ry="2" />
<ellipse fill="#ebf4e7" fill-opacity="0.905882" cx="121" cy="180" rx="45" ry="4" />
<ellipse fill="#7c7875" fill-opacity="0.823529" cx="192" cy="94" rx="18" ry="11" />
<ellipse fill="#ffe9fe" fill-opacity="0.596078" cx="114" cy="72" rx="28" ry="12" />
<ellipse fill="#706e5a" fill-opacity="0.647059" cx="230" cy="102" rx="6" ry="19" />
<ellipse fill="#eaf8e2" fill-opacity="0.964706" cx="232" cy="58" rx="5" ry="11" />
<ellipse fill="#ffffff" fill-opacity="0.227451" cx="176" cy="23" rx="53" ry="11" />
<ellipse fill="#f9f1f2" fill-opacity="0.803922" cx="149" cy="54" rx="6" ry="15" />
<ellipse fill="#dcfff4" fill-opacity="0.223529" cx="37" cy="93" rx="17" ry="18" />
<ellipse fill="#6a6f68" fill-opacity="1.000000" cx="52" cy="36" rx="15" ry="11" />
<ellipse fill="#000000" fill-opacity="0.572549" cx="94" cy="150" rx="5" ry="9" />
<ellipse fill="#57f100" fill-opacity="0.631373" cx="190" cy="38" rx="52" ry="2" />
<ellipse fill="#f3e9ef" fill-opacity="1.000000" cx="159" cy="100" rx="8" ry="29" />
<ellipse fill="#312524" fill-opacity="0.486275" cx="41" cy="164" rx="6" ry="6" />
<ellipse fill="#fdfff6" fill-opacity="0.709804" cx="217" cy="86" rx="7" ry="6" />
<ellipse fill="#454743" fill-opacity="0.815686" cx="118" cy="175" rx="28" ry="2" />
<ellipse fill="#eef5e7" fill-opacity="0.588235" cx="79" cy="20" rx="149" ry="6" />
<ellipse fill="#000004" fill-opacity="0.572549" cx="110" cy="102" rx="4" ry="8" />
<ellipse fill="#ddcbd2" fill-opacity="0.619608" cx="117" cy="104" rx="2" ry="12" />
<ellipse fill="#21260a" fill-opacity="0.549020" cx="20" cy="167" rx="14" ry="4" />
<ellipse fill="#c3cfbd" fill-opacity="0.627451" cx="51" cy="5" rx="53" ry="9" />
<ellipse fill="#efeee9" fill-opacity="0.917647" cx="88" cy="17" rx="2" ry="185" />
<ellipse fill="#3c3932" fill-opacity="0.647059" cx="103" cy="29" rx="14" ry="4" />
<ellipse fill="#879133" fill-opacity="0.752941" cx="40" cy="174" rx="28" ry="3" />
<ellipse fill="#868883" fill-opacity="0.513725" cx="252" cy="86" rx="1" ry="161" />
<ellipse fill="#312334" fill-opacity="0.368627" cx="121" cy="116" rx="36" ry="2" />
<ellipse fill="#cec6c7" fill-opacity="0.568627" cx="104" cy="45" rx="4" ry="12" />
<ellipse fill="#c8afb2" fill-opacity="0.596078" cx="122" cy="113" rx="24" ry="3" />
<ellipse fill="#b5b4b0" fill-opacity="0.839216" cx="168" cy="130" rx="2" ry="67" />
<ellipse fill="#5a4425" fill-opacity="0.596078" cx="216" cy="172" rx="21" ry="5" />
<ellipse fill="#f0faea" fill-opacity="0.564706" cx="243" cy="131" rx="8" ry="63" />
<ellipse fill="#131412" fill-opacity="0.603922" cx="147" cy="152" rx="5" ry="10" />
<ellipse fill="#e9eee5" fill-opacity="0.545098" cx="251" cy="30" rx="18" ry="8" />
<ellipse fill="#ebf4e5" fill-opacity="0.858824" cx="38" cy="72" rx="38" ry="12" />
<ellipse fill="#908c6b" fill-opacity="0.713725" cx="9" cy="104" rx="4" ry="16" />
<ellipse fill="#685f50" fill-opacity="0.490196" cx="203" cy="114" rx="32" ry="4" />
<ellipse fill="#17171c" fill-opacity="0.529412" cx="95" cy="55" rx="5" ry="5" />
<ellipse fill="#000000" fill-opacity="0.576471" cx="132" cy="45" rx="2" ry="8" />
<ellipse fill="#52564c" fill-opacity="0.717647" cx="34" cy="29" rx="29" ry="4" />
<ellipse fill="#120e0d" fill-opacity="0.447059" cx="63" cy="55" rx="5" ry="5" />
<ellipse fill="#57e509" fill-opacity="0.866667" cx="225" cy="34" rx="6" ry="5" />
<ellipse fill="#ffffff" fill-opacity="0.345098" cx="173" cy="72" rx="3" ry="45" />
<ellipse fill="#706f6e" fill-opacity="1.000000" cx="115" cy="142" rx="25" ry="1" />
<ellipse fill="#706c6b" fill-opacity="0.482353" cx="136" cy="29" rx="17" ry="5" />
<ellipse fill="#4a3530" fill-opacity="0.458824" cx="63" cy="103" rx="4" ry="11" />
<ellipse fill="#423b4b" fill-opacity="0.564706" cx="161" cy="52" rx="4" ry="7" />
<ellipse fill="#f5f0ef" fill-opacity="0.717647" cx="178" cy="64" rx="29" ry="5" />
<ellipse fill="#71755d" fill-opacity="0.670588" cx="206" cy="148" rx="31" ry="3" />
<ellipse fill="#f0f6dc" fill-opacity="0.388235" cx="194" cy="178" rx="22" ry="4" />
<ellipse fill="#282117" fill-opacity="0.752941" cx="178" cy="170" rx="4" ry="4" />
<ellipse fill="#fff9f8" fill-opacity="0.698039" cx="167" cy="50" rx="2" ry="9" />
<ellipse fill="#636c62" fill-opacity="0.427451" cx="9" cy="44" rx="5" ry="19" />
<ellipse fill="#645559" fill-opacity="0.431373" cx="100" cy="86" rx="11" ry="3" />
<ellipse fill="#2c3135" fill-opacity="0.650980" cx="145" cy="172" rx="7" ry="5" />
<ellipse fill="#040605" fill-opacity="0.698039" cx="95" cy="167" rx="5" ry="10" />
<ellipse fill="#000000" fill-opacity="0.600000" cx="120" cy="157" rx="4" ry="15" />
<ellipse fill="#f3fceb" fill-opacity="0.666667" cx="205" cy="49" rx="2" ry="11" />
<ellipse fill="#2d3e36" fill-opacity="0.560784" cx="229" cy="145" rx="7" ry="3" />
<ellipse fill="#22262f" fill-opacity="0.458824" cx="211" cy="61" rx="5" ry="4" />
<ellipse fill="#cbc2ce" fill-opacity="0.517647" cx="126" cy="51" rx="5" ry="7" />
</g>
</svg>