<svg xmlns="http://www.w3.org/2000/svg" version="1.1" width="256" height="143">
<rect x="0" y="0" width="256" height="143" fill="#f0f0f0" />
<g transform="scale(1.000000) translate(0.5 0.5)">
<ellipse fill="#030601" fill-opacity="0.619608" cx="122" cy="53" rx="184" ry="139" />
<ellipse fill="#a4aaac" fill-opacity="0.435294" cx="171" cy="48" rx="53" ry="33" />
<ellipse fill="#44433d" fill-opacity="0.552941" cx="220" cy="109" rx="199" ry="22" />
<ellipse fill="#494c49" fill-opacity="0.623529" cx="69" cy="69" rx="41" ry="65" />
<ellipse fill="#33332e" fill-opacity="0.678431" cx="236" cy="139" rx="16" ry="42" />
<ellipse fill="#868a8a" fill-opacity="0.580392" cx="146" cy="117" rx="6" ry="109" />
<ellipse fill="#7e8382" fill-opacity="0.490196" cx="206" cy="65" rx="24" ry="38" />
<ellipse fill="#120c00" fill-opacity="0.517647" cx="255" cy="37" rx="17" ry="8" />
<ellipse fill="#7e8180" fill-opacity="0.552941" cx="13" cy="92" rx="8" ry="46" />
<ellipse fill="#a2aaaf" fill-opacity="0.490196" cx="177" cy="38" rx="23" ry="12" />
<ellipse fill="#35322b" fill-opacity="0.678431" cx="134" cy="87" rx="5" ry="27" />
<ellipse fill="#352f21" fill-opacity="0.247059" cx="188" cy="0" rx="50" ry="24" />
<ellipse fill="#8d8f8d" fill-opacity="0.454902" cx="55" cy="47" rx="9" ry="16" />
<ellipse fill="#8e8e8b" fill-opacity="0.419608" cx="137" cy="142" rx="34" ry="16" />
<ellipse fill="#323738" fill-opacity="0.501961" cx="99" cy="97" rx="6" ry="103" />
<ellipse fill="#7d7c77" fill-opacity="0.658824" cx="30" cy="124" rx="19" ry="12" />
<ellipse fill="#949a9d" fill-opacity="0.537255" cx="150" cy="23" rx="21" ry="9" />
<ellipse fill="#2c261a" fill-opacity="0.419608" cx="173" cy="98" rx="21" ry="9" />
<ellipse fill="#36342f" fill-opacity="0.466667" cx="59" cy="69" rx="37" ry="7" />
<ellipse fill="#767a78" fill-opacity="0.458824" cx="246" cy="80" rx="7" ry="28" />
<ellipse fill="#72736f" fill-opacity="0.556863" cx="62" cy="98" rx="3" ry="70" />
<ellipse fill="#74726c" fill-opacity="0.749020" cx="182" cy="72" rx="28" ry="14" />
<ellipse fill="#81888c" fill-opacity="0.415686" cx="23" cy="43" rx="10" ry="15" />
<ellipse fill="#1f1b10" fill-opacity="0.505882" cx="121" cy="94" rx="3" ry="19" />
<ellipse fill="#3a3a38" fill-opacity="0.494118" cx="195" cy="125" rx="12" ry="20" />
<ellipse fill="#221a0c" fill-opacity="0.490196" cx="176" cy="7" rx="15" ry="4" />
<ellipse fill="#9b9e9b" fill-opacity="0.537255" cx="120" cy="61" rx="3" ry="14" />
<ellipse fill="#595a55" fill-opacity="0.537255" cx="216" cy="16" rx="23" ry="21" />
<ellipse fill="#7a7a76" fill-opacity="0.529412" cx="114" cy="142" rx="11" ry="29" />
<ellipse fill="#7d7f7b" fill-opacity="0.462745" cx="181" cy="120" rx="12" ry="7" />
<ellipse fill="#292822" fill-opacity="1.000000" cx="255" cy="142" rx="14" ry="6" />
<ellipse fill="#24231c" fill-opacity="0.407843" cx="235" cy="91" rx="4" ry="26" />
<ellipse fill="#605e56" fill-opacity="0.749020" cx="126" cy="88" rx="5" ry="30" />
<ellipse fill="#535653" fill-opacity="0.737255" cx="86" cy="0" rx="13" ry="103" />
<ellipse fill="#1d2221" fill-opacity="0.615686" cx="107" cy="92" rx="5" ry="10" />
<ellipse fill="#26231a" fill-opacity="0.368627" cx="52" cy="50" rx="22" ry="3" />
<ellipse fill="#757773" fill-opacity="0.505882" cx="140" cy="46" rx="21" ry="21" />
<ellipse fill="#5c605e" fill-opacity="0.635294" cx="54" cy="101" rx="23" ry="10" />
<ellipse fill="#323330" fill-opacity="0.443137" cx="96" cy="113" rx="11" ry="26" />
<ellipse fill="#363a3b" fill-opacity="0.415686" cx="36" cy="67" rx="8" ry="34" />
<ellipse fill="#aebdca" fill-opacity="0.117647" cx="205" cy="60" rx="13" ry="31" />
<ellipse fill="#7b8084" fill-opacity="0.474510" cx="69" cy="142" rx="27" ry="6" />
<ellipse fill="#201b15" fill-opacity="0.301961" cx="159" cy="104" rx="4" ry="31" />
<ellipse fill="#b5bec5" fill-opacity="0.325490" cx="184" cy="0" rx="22" ry="2" />
<ellipse fill="#3d3b36" fill-opacity="0.709804" cx="136" cy="118" rx="8" ry="9" />
<ellipse fill="#28261f" fill-opacity="0.615686" cx="54" cy="64" rx="27" ry="2" />
<ellipse fill="#595d5d" fill-opacity="0.427451" cx="255" cy="127" rx="24" ry="11" />
<ellipse fill="#888d8e" fill-opacity="0.647059" cx="142" cy="84" rx="4" ry="12" />
<ellipse fill="#202019" fill-opacity="0.392157" cx="9" cy="57" rx="7" ry="5" />
<ellipse fill="#9aa4ac" fill-opacity="0.364706" cx="62" cy="36" rx="11" ry="4" />
<ellipse fill="#200f01" fill-opacity="0.192157" cx="10" cy="142" rx="9" ry="18" />
<ellipse fill="#7c7c77" fill-opacity="0.474510" cx="212" cy="139" rx="5" ry="22" />
<ellipse fill="#767f84" fill-opacity="0.403922" cx="248" cy="6" rx="56" ry="3" />
<ellipse fill="#464239" fill-opacity="0.372549" cx="56" cy="20" rx="47" ry="7" />
<ellipse fill="#949997" fill-opacity="0.368627" cx="255" cy="61" rx="10" ry="12" />
<ellipse fill="#979ea0" fill-opacity="0.203922" cx="76" cy="87" rx="30" ry="3" />
<ellipse fill="#8697a7" fill-opacity="0.317647" cx="1" cy="75" rx="15" ry="9" />
<ellipse fill="#352f25" fill-opacity="0.541176" cx="133" cy="70" rx="6" ry="6" />
<ellipse fill="#767a78" fill-opacity="0.733333" cx="54" cy="60" rx="15" ry="3" />
<ellipse fill="#788084" fill-opacity="0.592157" cx="9" cy="47" rx="10" ry="6" />
<ellipse fill="#60605b" fill-opacity="0.596078" cx="161" cy="13" rx="11" ry="7" />
<ellipse fill="#626059" fill-opacity="0.525490" cx="113" cy="29" rx="11" ry="29" />
<ellipse fill="#161209" fill-opacity="0.274510" cx="69" cy="76" rx="3" ry="23" />
<ellipse fill="#6c706e" fill-opacity="0.541176" cx="79" cy="37" rx="5" ry="14" />
<ellipse fill="#54524d" fill-opacity="0.603922" cx="166" cy="132" rx="18" ry="5" />
<ellipse fill="#727776" fill-opacity="0.454902" cx="44" cy="20" rx="11" ry="5" />
<ellipse fill="#373127" fill-opacity="0.513725" cx="155" cy="3" rx="15" ry="3" />
<ellipse fill="#7a7f82" fill-opacity="0.662745" cx="25" cy="88" rx="7" ry="4" />
<ellipse fill="#6c6f6b" fill-opacity="0.486275" cx="187" cy="21" rx="19" ry="9" />
<ellipse fill="#626462" fill-opacity="0.462745" cx="48" cy="85" rx="4" ry="37" />
<ellipse fill="#312c23" fill-opacity="0.419608" cx="213" cy="12" rx="13" ry="4" />
<ellipse fill="#3a3327" fill-opacity="0.525490" cx="124" cy="23" rx="2" ry="13" />
<ellipse fill="#3d403c" fill-opacity="0.474510" cx="0" cy="92" rx="9" ry="9" />
<ellipse fill="#737878" fill-opacity="0.478431" cx="72" cy="99" rx="19" ry="3" />
<ellipse fill="#61625e" fill-opacity="0.819608" cx="113" cy="114" rx="5" ry="18" />
<ellipse fill="#282926" fill-opacity="0.447059" cx="0" cy="24" rx="27" ry="2" />
<ellipse fill="#707678" fill-opacity="0.533333" cx="35" cy="7" rx="29" ry="3" />
<ellipse fill="#2a2a24" fill-opacity="0.466667" cx="119" cy="108" rx="4" ry="13" />
<ellipse fill="#302f28" fill-opacity="0.470588" cx="150" cy="49" rx="3" ry="3" />
<ellipse fill="#949692" fill-opacity="0.427451" cx="117" cy="72" rx="5" ry="7" />
<ellipse fill="#7a7870" fill-opacity="0.439216" cx="127" cy="99" rx="4" ry="19" />
<ellipse fill="#242218" fill-opacity="0.203922" cx="255" cy="76" rx="6" ry="16" />
<ellipse fill="#292419" fill-opacity="0.572549" cx="188" cy="104" rx="6" ry="6" />
<ellipse fill="#615d53" fill-opacity="0.541176" cx="205" cy="96" rx="20" ry="8" />
<ellipse fill="#71777b" fill-opacity="0.682353" cx="11" cy="33" rx="26" ry="3" />
<ellipse fill="#454742" fill-opacity="0.388235" cx="241" cy="48" rx="6" ry="19" />
<ellipse fill="#78756e" fill-opacity="0.615686" cx="44" cy="142" rx="6" ry="28" />
<ellipse fill="#463a2a" fill-opacity="0.501961" cx="128" cy="16" rx="4" ry="8" />
<ellipse fill="#9ca4a6" fill-opacity="0.411765" cx="162" cy="39" rx="6" ry="18" />
<ellipse fill="#6d6963" fill-opacity="0.458824" cx="169" cy="106" rx="6" ry="7" />
<ellipse fill="#4f5352" fill-opacity="0.674510" cx="31" cy="68" rx="7" ry="8" />
<ellipse fill="#b0b6b8" fill-opacity="0.513725" cx="130" cy="27" rx="3" ry="4" />
<ellipse fill="#80817e" fill-opacity="0.611765" cx="154" cy="141" rx="24" ry="6" />
<ellipse fill="#3a3931" fill-opacity="0.501961" cx="22" cy="44" rx="3" ry="5" />
<ellipse fill="#292923" fill-opacity="0.290196" cx="128" cy="80" rx="7" ry="9" />
<ellipse fill="#38362e" fill-opacity="0.474510" cx="12" cy="37" rx="7" ry="3" />
<ellipse fill="#7d7f7a" fill-opacity="0.501961" cx="111" cy="37" rx="4" ry="11" />
<ellipse fill="#8d9dad" fill-opacity="0.552941" cx="0" cy="36" rx="5" ry="3" />
<ellipse fill="#1d2223" fill-opacity="0.478431" cx="83" cy="1" rx="3" ry="7" />
<ellipse fill="#686b68" fill-opacity="0.505882" cx="71" cy="131" rx="2" ry="47" />
</g>
</svg>