<svg xmlns="http://www.w3.org/2000/svg" version="1.1" width="256" height="195">
<rect x="0" y="0" width="256" height="195" fill="#f0f0f0" />
<g transform="scale(1.000000) translate(0.5 0.5)">
<ellipse fill="#070f0f" fill-opacity="0.862745" cx="155" cy="5" rx="255" ry="7" />
<ellipse fill="#008213" fill-opacity="0.623529" cx="177" cy="43" rx="11" ry="4" />
<ellipse fill="#dffbd4" fill-opacity="0.490196" cx="34" cy="115" rx="54" ry="104" />
<ellipse fill="#1d2723" fill-opacity="0.360784" cx="17" cy="10" rx="255" ry="3" />
<ellipse fill="#eaffda" fill-opacity="0.505882" cx="233" cy="147" rx="50" ry="136" />
<ellipse fill="#fff6f9" fill-opacity="0.470588" cx="119" cy="103" rx="76" ry="42" />
<ellipse fill="#c8dac5" fill-opacity="0.498039" cx="23" cy="129" rx="11" ry="46" />
<ellipse fill="#eeffe6" fill-opacity="0.556863" cx="165" cy="194" rx="137" ry="52" />
<ellipse fill="#303836" fill-opacity="0.980392" cx="8" cy="6" rx="32" ry="6" />
<ellipse fill="#505650" fill-opacity="0.482353" cx="24" cy="104" rx="13" ry="2" />
<ellipse fill="#b3bdaf" fill-opacity="0.560784" cx="60" cy="115" rx="47" ry="2" />
<ellipse fill="#d7b606" fill-opacity="0.619608" cx="223" cy="134" rx="28" ry="1" />
<ellipse fill="#d5efca" fill-opacity="0.290196" cx="149" cy="22" rx="255" ry="11" />
<ellipse fill="#828298" fill-opacity="0.168627" cx="210" cy="54" rx="86" ry="4" />
<ellipse fill="#8c9b90" fill-opacity="0.482353" cx="28" cy="55" rx="22" ry="2" />
<ellipse fill="#a1aba0" fill-opacity="0.490196" cx="97" cy="6" rx="35" ry="1" />
<ellipse fill="#98a39a" fill-opacity="0.709804" cx="56" cy="148" rx="31" ry="1" />
<ellipse fill="#f4fbeb" fill-opacity="0.717647" cx="164" cy="38" rx="233" ry="3" />
<ellipse fill="#82b6d4" fill-opacity="0.513725" cx="30" cy="18" rx="18" ry="2" />
<ellipse fill="#effbe8" fill-opacity="0.576471" cx="16" cy="81" rx="79" ry="21" />
<ellipse fill="#726f7a" fill-opacity="0.317647" cx="94" cy="72" rx="25" ry="1" />
<ellipse fill="#aea883" fill-opacity="0.215686" cx="203" cy="133" rx="8" ry="8" />
<ellipse fill="#202826" fill-opacity="0.278431" cx="233" cy="10" rx="34" ry="3" />
<ellipse fill="#bdc2bb" fill-opacity="0.376471" cx="35" cy="29" rx="151" ry="2" />
<ellipse fill="#f7ffef" fill-opacity="0.619608" cx="35" cy="111" rx="99" ry="4" />
<ellipse fill="#e9e498" fill-opacity="0.749020" cx="236" cy="133" rx="41" ry="1" />
<ellipse fill="#ffecfa" fill-opacity="0.533333" cx="141" cy="88" rx="33" ry="30" />
<ellipse fill="#636d65" fill-opacity="0.525490" cx="13" cy="5" rx="9" ry="3" />
<ellipse fill="#dbd7e3" fill-opacity="0.462745" cx="201" cy="96" rx="7" ry="22" />
<ellipse fill="#229848" fill-opacity="0.466667" cx="170" cy="44" rx="4" ry="4" />
<ellipse fill="#2a9e49" fill-opacity="0.749020" cx="185" cy="45" rx="3" ry="2" />
<ellipse fill="#889585" fill-opacity="0.525490" cx="16" cy="91" rx="7" ry="2" />
<ellipse fill="#8b9288" fill-opacity="0.501961" cx="220" cy="56" rx="26" ry="1" />
<ellipse fill="#f7ffef" fill-opacity="0.490196" cx="74" cy="130" rx="44" ry="14" />
<ellipse fill="#e7f7e6" fill-opacity="0.666667" cx="42" cy="49" rx="52" ry="6" />
<ellipse fill="#242c2c" fill-opacity="0.835294" cx="21" cy="0" rx="9" ry="12" />
<ellipse fill="#aeb6aa" fill-opacity="0.474510" cx="219" cy="51" rx="24" ry="2" />
<ellipse fill="#cbc3c6" fill-opacity="0.564706" cx="143" cy="44" rx="18" ry="2" />
<ellipse fill="#dae0cd" fill-opacity="0.525490" cx="213" cy="139" rx="22" ry="5" />
<ellipse fill="#a1ccd8" fill-opacity="0.533333" cx="29" cy="179" rx="17" ry="2" />
<ellipse fill="#f0ffe7" fill-opacity="0.709804" cx="15" cy="142" rx="32" ry="4" />
<ellipse fill="#abb8a6" fill-opacity="0.427451" cx="32" cy="44" rx="28" ry="1" />
<ellipse fill="#aebfb4" fill-opacity="1.000000" cx="38" cy="56" rx="23" ry="1" />
<ellipse fill="#232a2a" fill-opacity="0.941176" cx="58" cy="2" rx="19" ry="7" />
<ellipse fill="#1167e1" fill-opacity="0.203922" cx="204" cy="114" rx="17" ry="1" />
<ellipse fill="#f6ffee" fill-opacity="0.509804" cx="216" cy="54" rx="44" ry="2" />
<ellipse fill="#94cde4" fill-opacity="0.490196" cx="11" cy="71" rx="2" ry="11" />
<ellipse fill="#f7f9f1" fill-opacity="0.639216" cx="190" cy="129" rx="5" ry="101" />
<ellipse fill="#b2a4ae" fill-opacity="0.262745" cx="186" cy="78" rx="24" ry="2" />
<ellipse fill="#fcfcf6" fill-opacity="0.529412" cx="206" cy="96" rx="25" ry="6" />
<ellipse fill="#eff8e9" fill-opacity="0.603922" cx="17" cy="26" rx="251" ry="3" />
<ellipse fill="#030723" fill-opacity="0.329412" cx="202" cy="128" rx="7" ry="1" />
<ellipse fill="#c3d3c0" fill-opacity="0.478431" cx="21" cy="158" rx="7" ry="13" />
<ellipse fill="#4a4e4e" fill-opacity="0.419608" cx="202" cy="103" rx="7" ry="1" />
<ellipse fill="#f0ffe6" fill-opacity="0.639216" cx="25" cy="188" rx="226" ry="9" />
<ellipse fill="#efffe5" fill-opacity="0.650980" cx="0" cy="144" rx="11" ry="127" />
<ellipse fill="#edfae6" fill-opacity="0.580392" cx="31" cy="15" rx="242" ry="3" />
<ellipse fill="#3b0d00" fill-opacity="0.168627" cx="10" cy="52" rx="2" ry="6" />
<ellipse fill="#b7c5b7" fill-opacity="0.396078" cx="51" cy="148" rx="41" ry="2" />
<ellipse fill="#f3ffeb" fill-opacity="0.482353" cx="242" cy="95" rx="24" ry="38" />
<ellipse fill="#63675e" fill-opacity="0.274510" cx="24" cy="123" rx="10" ry="2" />
<ellipse fill="#ecebf5" fill-opacity="0.800000" cx="146" cy="52" rx="47" ry="3" />
<ellipse fill="#f0fee7" fill-opacity="0.854902" cx="0" cy="119" rx="58" ry="3" />
<ellipse fill="#717e73" fill-opacity="0.384314" cx="25" cy="168" rx="9" ry="1" />
<ellipse fill="#b9b9c8" fill-opacity="0.427451" cx="165" cy="55" rx="19" ry="2" />
<ellipse fill="#bfcdbb" fill-opacity="0.521569" cx="233" cy="18" rx="51" ry="1" />
<ellipse fill="#939b92" fill-opacity="0.203922" cx="106" cy="6" rx="31" ry="2" />
<ellipse fill="#d4d1d3" fill-opacity="0.549020" cx="83" cy="80" rx="14" ry="2" />
<ellipse fill="#b7bfb5" fill-opacity="0.729412" cx="59" cy="115" rx="46" ry="1" />
<ellipse fill="#e7f2e7" fill-opacity="0.443137" cx="115" cy="162" rx="66" ry="12" />
<ellipse fill="#a7abaa" fill-opacity="0.556863" cx="207" cy="110" rx="12" ry="1" />
<ellipse fill="#ebfbe8" fill-opacity="0.694118" cx="19" cy="49" rx="63" ry="4" />
<ellipse fill="#c1cdd9" fill-opacity="0.454902" cx="209" cy="87" rx="11" ry="3" />
<ellipse fill="#9c9a90" fill-opacity="0.447059" cx="218" cy="138" rx="19" ry="1" />
<ellipse fill="#f3eaee" fill-opacity="0.568627" cx="177" cy="70" rx="20" ry="14" />
<ellipse fill="#f7fef1" fill-opacity="0.752941" cx="201" cy="131" rx="33" ry="2" />
<ellipse fill="#c3c2c2" fill-opacity="0.458824" cx="79" cy="65" rx="12" ry="2" />
<ellipse fill="#ebfde3" fill-opacity="0.603922" cx="253" cy="44" rx="7" ry="31" />
<ellipse fill="#dfe6dc" fill-opacity="0.847059" cx="171" cy="47" rx="17" ry="1" />
<ellipse fill="#616d54" fill-opacity="0.301961" cx="196" cy="43" rx="4" ry="2" />
<ellipse fill="#cbcdc1" fill-opacity="0.768627" cx="211" cy="142" rx="16" ry="1" />
<ellipse fill="#1b2123" fill-opacity="0.380392" cx="197" cy="0" rx="77" ry="11" />
<ellipse fill="#eefee5" fill-opacity="0.792157" cx="253" cy="153" rx="3" ry="141" />
<ellipse fill="#dcf1cf" fill-opacity="0.321569" cx="7" cy="22" rx="1" ry="19" />
<ellipse fill="#faf9f0" fill-opacity="0.584314" cx="100" cy="44" rx="30" ry="6" />
<ellipse fill="#b0b8a9" fill-opacity="0.231373" cx="223" cy="56" rx="29" ry="2" />
<ellipse fill="#c5c9c4" fill-opacity="1.000000" cx="84" cy="116" rx="22" ry="1" />
<ellipse fill="#f1edf0" fill-opacity="0.858824" cx="164" cy="47" rx="3" ry="10" />
<ellipse fill="#bccbb7" fill-opacity="0.384314" cx="14" cy="43" rx="46" ry="1" />
<ellipse fill="#a9404c" fill-opacity="0.619608" cx="245" cy="134" rx="3" ry="1" />
<ellipse fill="#98a396" fill-opacity="0.486275" cx="24" cy="105" rx="13" ry="2" />
<ellipse fill="#f7fdf2" fill-opacity="0.749020" cx="230" cy="136" rx="117" ry="1" />
<ellipse fill="#cdceca" fill-opacity="0.815686" cx="159" cy="30" rx="27" ry="1" />
<ellipse fill="#eefde5" fill-opacity="0.968627" cx="11" cy="111" rx="2" ry="18" />
<ellipse fill="#fcf9f6" fill-opacity="0.450980" cx="167" cy="123" rx="29" ry="21" />
<ellipse fill="#e4f0de" fill-opacity="0.133333" cx="34" cy="6" rx="15" ry="1" />
<ellipse fill="#767b7a" fill-opacity="0.537255" cx="199" cy="43" rx="4" ry="1" />
<ellipse fill="#f7fcf2" fill-opacity="0.619608" cx="205" cy="121" rx="21" ry="6" />
<ellipse fill="#cad9c1" fill-opacity="0.521569" cx="18" cy="68" rx="3" ry="6" />
<ellipse fill="#f7f1f1" fill-opacity="0.541176" cx="147" cy="31" rx="4" ry="19" />
</g>
</svg>