<svg xmlns="http://www.w3.org/2000/svg" version="1.1" width="256" height="187">
<rect x="0" y="0" width="256" height="187" fill="#f0f0f0" />
<g transform="scale(1.000000) translate(0.5 0.5)">
<ellipse fill="#14180b" fill-opacity="0.576471" cx="51" cy="92" rx="98" ry="78" />
<ellipse fill="#d0dec3" fill-opacity="0.729412" cx="184" cy="135" rx="78" ry="113" />
<ellipse fill="#464940" fill-opacity="0.913725" cx="100" cy="149" rx="30" ry="17" />
<ellipse fill="#4d4b4c" fill-opacity="0.721569" cx="107" cy="47" rx="23" ry="33" />
<ellipse fill="#38382f" fill-opacity="0.521569" cx="17" cy="135" rx="90" ry="30" />
<ellipse fill="#e9f5e3" fill-opacity="0.839216" cx="47" cy="182" rx="255" ry="18" />
<ellipse fill="#3dde00" fill-opacity="0.721569" cx="168" cy="136" rx="65" ry="2" />
<ellipse fill="#45a704" fill-opacity="0.635294" cx="159" cy="96" rx="70" ry="3" />
<ellipse fill="#e9f5e2" fill-opacity="1.000000" cx="89" cy="10" rx="255" ry="9" />
<ellipse fill="#4c4257" fill-opacity="0.525490" cx="183" cy="118" rx="29" ry="6" />
<ellipse fill="#47da00" fill-opacity="0.588235" cx="222" cy="132" rx="3" ry="37" />
<ellipse fill="#43443a" fill-opacity="0.670588" cx="0" cy="25" rx="133" ry="7" />
<ellipse fill="#faebf3" fill-opacity="0.588235" cx="140" cy="60" rx="13" ry="54" />
<ellipse fill="#6ee12e" fill-opacity="1.000000" cx="215" cy="142" rx="8" ry="8" />
<ellipse fill="#494247" fill-opacity="0.596078" cx="117" cy="66" rx="12" ry="32" />
<ellipse fill="#4ad800" fill-opacity="0.792157" cx="229" cy="159" rx="6" ry="8" />
<ellipse fill="#100a0e" fill-opacity="0.576471" cx="118" cy="161" rx="10" ry="5" />
<ellipse fill="#a1b4b6" fill-opacity="0.247059" cx="24" cy="63" rx="75" ry="23" />
<ellipse fill="#fbfdf8" fill-opacity="0.541176" cx="173" cy="159" rx="45" ry="22" />
<ellipse fill="#ffffff" fill-opacity="0.509804" cx="110" cy="117" rx="5" ry="20" />
<ellipse fill="#fff8ff" fill-opacity="0.639216" cx="137" cy="128" rx="31" ry="6" />
<ellipse fill="#f0eeeb" fill-opacity="0.627451" cx="192" cy="65" rx="64" ry="27" />
<ellipse fill="#fff4ff" fill-opacity="0.678431" cx="131" cy="104" rx="25" ry="5" />
<ellipse fill="#4c4e4c" fill-opacity="0.635294" cx="124" cy="25" rx="5" ry="7" />
<ellipse fill="#4bdd00" fill-opacity="0.639216" cx="148" cy="97" rx="50" ry="2" />
<ellipse fill="#e7f5df" fill-opacity="0.882353" cx="255" cy="120" rx="31" ry="47" />
<ellipse fill="#28271d" fill-opacity="0.556863" cx="0" cy="109" rx="10" ry="30" />
<ellipse fill="#41155d" fill-opacity="0.301961" cx="132" cy="118" rx="19" ry="6" />
<ellipse fill="#a6b9af" fill-opacity="0.290196" cx="16" cy="128" rx="6" ry="46" />
<ellipse fill="#575752" fill-opacity="0.639216" cx="87" cy="36" rx="41" ry="18" />
<ellipse fill="#8d8a8b" fill-opacity="0.541176" cx="160" cy="36" rx="21" ry="3" />
<ellipse fill="#326f06" fill-opacity="0.450980" cx="102" cy="115" rx="5" ry="25" />
<ellipse fill="#b1a3b1" fill-opacity="0.662745" cx="183" cy="93" rx="58" ry="3" />
<ellipse fill="#f6f2f3" fill-opacity="0.694118" cx="141" cy="151" rx="14" ry="14" />
<ellipse fill="#00000c" fill-opacity="0.376471" cx="156" cy="117" rx="2" ry="10" />
<ellipse fill="#2f2922" fill-opacity="0.368627" cx="40" cy="120" rx="20" ry="20" />
<ellipse fill="#e3f4da" fill-opacity="0.686275" cx="232" cy="31" rx="31" ry="67" />
<ellipse fill="#626661" fill-opacity="0.403922" cx="26" cy="159" rx="104" ry="7" />
<ellipse fill="#898f84" fill-opacity="0.992157" cx="49" cy="19" rx="79" ry="1" />
<ellipse fill="#fff6ff" fill-opacity="0.572549" cx="181" cy="105" rx="39" ry="6" />
<ellipse fill="#969394" fill-opacity="0.478431" cx="185" cy="59" rx="48" ry="2" />
<ellipse fill="#b9bfb3" fill-opacity="0.584314" cx="171" cy="25" rx="49" ry="3" />
<ellipse fill="#46e300" fill-opacity="0.647059" cx="207" cy="138" rx="5" ry="4" />
<ellipse fill="#b3acaf" fill-opacity="0.545098" cx="177" cy="70" rx="36" ry="3" />
<ellipse fill="#ebf6e4" fill-opacity="0.580392" cx="246" cy="141" rx="26" ry="12" />
<ellipse fill="#76ff0e" fill-opacity="0.556863" cx="105" cy="123" rx="2" ry="17" />
<ellipse fill="#9da6a7" fill-opacity="0.396078" cx="52" cy="57" rx="27" ry="11" />
<ellipse fill="#383525" fill-opacity="0.403922" cx="0" cy="27" rx="67" ry="8" />
<ellipse fill="#3c393c" fill-opacity="0.521569" cx="107" cy="156" rx="21" ry="10" />
<ellipse fill="#3fed00" fill-opacity="0.580392" cx="214" cy="97" rx="10" ry="2" />
<ellipse fill="#635f5f" fill-opacity="0.600000" cx="86" cy="134" rx="8" ry="32" />
<ellipse fill="#fbf2f9" fill-opacity="0.584314" cx="163" cy="128" rx="30" ry="6" />
<ellipse fill="#f2eceb" fill-opacity="0.882353" cx="133" cy="37" rx="5" ry="58" />
<ellipse fill="#331244" fill-opacity="0.309804" cx="98" cy="125" rx="6" ry="41" />
<ellipse fill="#7c7e7f" fill-opacity="0.564706" cx="193" cy="119" rx="9" ry="8" />
<ellipse fill="#393836" fill-opacity="0.501961" cx="67" cy="144" rx="13" ry="21" />
<ellipse fill="#5b576a" fill-opacity="0.509804" cx="106" cy="87" rx="23" ry="10" />
<ellipse fill="#6e7669" fill-opacity="0.674510" cx="7" cy="67" rx="20" ry="21" />
<ellipse fill="#352244" fill-opacity="0.560784" cx="121" cy="110" rx="5" ry="2" />
<ellipse fill="#43dc00" fill-opacity="0.521569" cx="220" cy="151" rx="6" ry="4" />
<ellipse fill="#7f7c8d" fill-opacity="0.372549" cx="86" cy="85" rx="18" ry="26" />
<ellipse fill="#e6f2e0" fill-opacity="0.501961" cx="194" cy="172" rx="30" ry="31" />
<ellipse fill="#7e8578" fill-opacity="0.596078" cx="13" cy="160" rx="27" ry="5" />
<ellipse fill="#f1f2ec" fill-opacity="0.607843" cx="189" cy="118" rx="2" ry="16" />
<ellipse fill="#ffffff" fill-opacity="0.592157" cx="165" cy="122" rx="2" ry="8" />
<ellipse fill="#f7f5f1" fill-opacity="0.823529" cx="172" cy="125" rx="2" ry="10" />
<ellipse fill="#3b3543" fill-opacity="0.611765" cx="144" cy="116" rx="2" ry="7" />
<ellipse fill="#f7e8f3" fill-opacity="0.619608" cx="151" cy="119" rx="5" ry="15" />
<ellipse fill="#51e500" fill-opacity="0.745098" cx="222" cy="117" rx="2" ry="22" />
<ellipse fill="#8b8f8c" fill-opacity="0.517647" cx="203" cy="117" rx="9" ry="7" />
<ellipse fill="#fffffc" fill-opacity="0.517647" cx="214" cy="119" rx="5" ry="15" />
<ellipse fill="#2f2b38" fill-opacity="0.733333" cx="117" cy="115" rx="2" ry="7" />
<ellipse fill="#fff3ff" fill-opacity="0.545098" cx="125" cy="116" rx="2" ry="18" />
<ellipse fill="#fff4f4" fill-opacity="0.454902" cx="142" cy="100" rx="2" ry="31" />
<ellipse fill="#3a3643" fill-opacity="0.603922" cx="168" cy="114" rx="7" ry="2" />
<ellipse fill="#f2f7eb" fill-opacity="0.545098" cx="184" cy="31" rx="51" ry="4" />
<ellipse fill="#36cf00" fill-opacity="0.588235" cx="232" cy="166" rx="3" ry="2" />
<ellipse fill="#150c00" fill-opacity="0.439216" cx="121" cy="57" rx="7" ry="8" />
<ellipse fill="#fcecf8" fill-opacity="0.498039" cx="166" cy="82" rx="38" ry="10" />
<ellipse fill="#070400" fill-opacity="0.419608" cx="11" cy="139" rx="3" ry="9" />
<ellipse fill="#626466" fill-opacity="0.596078" cx="117" cy="34" rx="12" ry="16" />
<ellipse fill="#72746d" fill-opacity="0.513725" cx="50" cy="142" rx="11" ry="8" />
<ellipse fill="#f6f1f0" fill-opacity="0.615686" cx="177" cy="112" rx="2" ry="13" />
<ellipse fill="#8f8e8f" fill-opacity="0.415686" cx="193" cy="37" rx="22" ry="2" />
<ellipse fill="#5dd308" fill-opacity="0.592157" cx="140" cy="97" rx="37" ry="2" />
<ellipse fill="#5ed408" fill-opacity="0.639216" cx="148" cy="136" rx="48" ry="2" />
<ellipse fill="#36303f" fill-opacity="0.670588" cx="134" cy="114" rx="2" ry="6" />
<ellipse fill="#39352c" fill-opacity="0.600000" cx="85" cy="32" rx="13" ry="5" />
<ellipse fill="#eaf5e4" fill-opacity="1.000000" cx="64" cy="173" rx="249" ry="8" />
<ellipse fill="#000000" fill-opacity="0.450980" cx="124" cy="163" rx="5" ry="2" />
<ellipse fill="#726c67" fill-opacity="0.317647" cx="63" cy="95" rx="37" ry="22" />
<ellipse fill="#fff3fc" fill-opacity="0.760784" cx="136" cy="115" rx="1" ry="12" />
<ellipse fill="#3a3d35" fill-opacity="0.556863" cx="118" cy="140" rx="10" ry="4" />
<ellipse fill="#000000" fill-opacity="0.215686" cx="156" cy="122" rx="42" ry="1" />
<ellipse fill="#a2b6a6" fill-opacity="0.403922" cx="13" cy="41" rx="12" ry="5" />
<ellipse fill="#dfe7da" fill-opacity="0.580392" cx="228" cy="127" rx="4" ry="29" />
<ellipse fill="#a3aa9f" fill-opacity="0.792157" cx="68" cy="165" rx="60" ry="1" />
<ellipse fill="#fff6fb" fill-opacity="0.635294" cx="108" cy="116" rx="2" ry="19" />
<ellipse fill="#6fff14" fill-opacity="0.509804" cx="105" cy="106" rx="2" ry="12" />
<ellipse fill="#c0eba2" fill-opacity="1.000000" cx="150" cy="134" rx="43" ry="1" />
</g>
</svg>