<svg xmlns="http://www.w3.org/2000/svg" version="1.1" width="256" height="187">
<rect x="0" y="0" width="256" height="187" fill="#f0f0f0" />
<g transform="scale(1.000000) translate(0.5 0.5)">
<ellipse fill="#252a22" fill-opacity="0.690196" cx="66" cy="168" rx="112" ry="34" />
<ellipse fill="#75944f" fill-opacity="0.211765" cx="119" cy="62" rx="150" ry="133" />
<ellipse fill="#514d4e" fill-opacity="0.772549" cx="142" cy="148" rx="31" ry="13" />
<ellipse fill="#47cb00" fill-opacity="0.619608" cx="213" cy="43" rx="87" ry="3" />
<ellipse fill="#5d5b62" fill-opacity="0.478431" cx="192" cy="63" rx="51" ry="6" />
<ellipse fill="#eceee6" fill-opacity="0.905882" cx="178" cy="155" rx="8" ry="70" />
<ellipse fill="#53d20c" fill-opacity="0.501961" cx="218" cy="24" rx="11" ry="12" />
<ellipse fill="#50cb04" fill-opacity="0.713725" cx="195" cy="80" rx="74" ry="2" />
<ellipse fill="#e8e8e2" fill-opacity="0.807843" cx="80" cy="111" rx="255" ry="26" />
<ellipse fill="#474a45" fill-opacity="0.705882" cx="13" cy="166" rx="58" ry="30" />
<ellipse fill="#9f9fb4" fill-opacity="0.368627" cx="106" cy="178" rx="39" ry="30" />
<ellipse fill="#58e20b" fill-opacity="0.576471" cx="242" cy="75" rx="2" ry="34" />
<ellipse fill="#58de0d" fill-opacity="0.815686" cx="209" cy="39" rx="8" ry="7" />
<ellipse fill="#559723" fill-opacity="0.549020" cx="131" cy="56" rx="3" ry="24" />
<ellipse fill="#f8f3f0" fill-opacity="0.533333" cx="84" cy="45" rx="47" ry="19" />
<ellipse fill="#434346" fill-opacity="0.513725" cx="165" cy="172" rx="7" ry="38" />
<ellipse fill="#d4dfc7" fill-opacity="0.964706" cx="255" cy="98" rx="17" ry="25" />
<ellipse fill="#6b8889" fill-opacity="0.525490" cx="29" cy="89" rx="26" ry="3" />
<ellipse fill="#e5f5dc" fill-opacity="0.654902" cx="236" cy="175" rx="66" ry="55" />
<ellipse fill="#4f4948" fill-opacity="0.650980" cx="117" cy="144" rx="45" ry="8" />
<ellipse fill="#d0dcc3" fill-opacity="0.992157" cx="252" cy="28" rx="9" ry="94" />
<ellipse fill="#fffffa" fill-opacity="0.525490" cx="191" cy="73" rx="48" ry="6" />
<ellipse fill="#fffafc" fill-opacity="0.701961" cx="142" cy="103" rx="106" ry="8" />
<ellipse fill="#d0beca" fill-opacity="0.650980" cx="124" cy="57" rx="7" ry="39" />
<ellipse fill="#e7f2dd" fill-opacity="0.631373" cx="244" cy="34" rx="27" ry="8" />
<ellipse fill="#ffffff" fill-opacity="0.501961" cx="198" cy="66" rx="4" ry="13" />
<ellipse fill="#ada9b4" fill-opacity="0.600000" cx="150" cy="37" rx="29" ry="5" />
<ellipse fill="#bad5b6" fill-opacity="0.439216" cx="10" cy="87" rx="24" ry="37" />
<ellipse fill="#dae1d1" fill-opacity="0.717647" cx="187" cy="17" rx="29" ry="22" />
<ellipse fill="#43d400" fill-opacity="0.627451" cx="225" cy="19" rx="4" ry="8" />
<ellipse fill="#564f5b" fill-opacity="0.792157" cx="147" cy="59" rx="3" ry="5" />
<ellipse fill="#878b83" fill-opacity="0.525490" cx="208" cy="160" rx="28" ry="2" />
<ellipse fill="#eaf9e1" fill-opacity="0.909804" cx="236" cy="62" rx="4" ry="17" />
<ellipse fill="#fff9fc" fill-opacity="0.580392" cx="163" cy="50" rx="29" ry="5" />
<ellipse fill="#92a08c" fill-opacity="0.541176" cx="15" cy="7" rx="26" ry="3" />
<ellipse fill="#cbc2bb" fill-opacity="0.329412" cx="151" cy="116" rx="141" ry="7" />
<ellipse fill="#54ea00" fill-opacity="0.537255" cx="163" cy="44" rx="37" ry="2" />
<ellipse fill="#d1d5c4" fill-opacity="0.670588" cx="63" cy="45" rx="68" ry="4" />
<ellipse fill="#96a39c" fill-opacity="0.494118" cx="33" cy="56" rx="30" ry="3" />
<ellipse fill="#f5f7f1" fill-opacity="0.450980" cx="118" cy="128" rx="165" ry="8" />
<ellipse fill="#f2f0eb" fill-opacity="0.462745" cx="177" cy="34" rx="27" ry="8" />
<ellipse fill="#38f400" fill-opacity="0.262745" cx="186" cy="79" rx="64" ry="2" />
<ellipse fill="#f6fbef" fill-opacity="0.443137" cx="198" cy="52" rx="39" ry="7" />
<ellipse fill="#001635" fill-opacity="0.203922" cx="150" cy="35" rx="29" ry="2" />
<ellipse fill="#58c111" fill-opacity="0.729412" cx="132" cy="64" rx="2" ry="18" />
<ellipse fill="#2e2d31" fill-opacity="0.556863" cx="163" cy="138" rx="9" ry="2" />
<ellipse fill="#dad2ce" fill-opacity="0.749020" cx="159" cy="89" rx="110" ry="6" />
<ellipse fill="#606863" fill-opacity="0.533333" cx="221" cy="60" rx="4" ry="6" />
<ellipse fill="#4f4f4b" fill-opacity="0.717647" cx="25" cy="140" rx="114" ry="4" />
<ellipse fill="#3bc500" fill-opacity="0.415686" cx="217" cy="25" rx="4" ry="9" />
<ellipse fill="#716476" fill-opacity="0.501961" cx="158" cy="61" rx="5" ry="8" />
<ellipse fill="#31be00" fill-opacity="0.423529" cx="243" cy="59" rx="2" ry="22" />
<ellipse fill="#a7adb3" fill-opacity="0.364706" cx="114" cy="165" rx="19" ry="8" />
<ellipse fill="#799085" fill-opacity="0.427451" cx="9" cy="35" rx="40" ry="2" />
<ellipse fill="#8c9094" fill-opacity="0.584314" cx="94" cy="154" rx="17" ry="7" />
<ellipse fill="#f7ecf0" fill-opacity="0.549020" cx="158" cy="61" rx="2" ry="16" />
<ellipse fill="#fffffd" fill-opacity="0.450980" cx="65" cy="61" rx="50" ry="3" />
<ellipse fill="#cdd9c7" fill-opacity="0.576471" cx="190" cy="2" rx="59" ry="15" />
<ellipse fill="#626760" fill-opacity="0.419608" cx="7" cy="164" rx="90" ry="9" />
<ellipse fill="#0e0000" fill-opacity="0.309804" cx="161" cy="163" rx="10" ry="5" />
<ellipse fill="#f7fff0" fill-opacity="0.713725" cx="55" cy="31" rx="30" ry="3" />
<ellipse fill="#6ca19a" fill-opacity="0.545098" cx="20" cy="103" rx="10" ry="3" />
<ellipse fill="#ced1c7" fill-opacity="0.635294" cx="238" cy="40" rx="27" ry="2" />
<ellipse fill="#f9fff2" fill-opacity="0.549020" cx="76" cy="34" rx="32" ry="7" />
<ellipse fill="#526881" fill-opacity="0.294118" cx="22" cy="91" rx="34" ry="2" />
<ellipse fill="#e3cfd7" fill-opacity="0.600000" cx="99" cy="76" rx="25" ry="14" />
<ellipse fill="#626768" fill-opacity="0.501961" cx="160" cy="147" rx="12" ry="11" />
<ellipse fill="#d5e0c7" fill-opacity="0.847059" cx="4" cy="66" rx="6" ry="58" />
<ellipse fill="#dadecc" fill-opacity="0.627451" cx="33" cy="80" rx="41" ry="9" />
<ellipse fill="#46e000" fill-opacity="0.525490" cx="210" cy="35" rx="4" ry="6" />
<ellipse fill="#f2ffeb" fill-opacity="0.600000" cx="231" cy="33" rx="13" ry="6" />
<ellipse fill="#131107" fill-opacity="0.462745" cx="19" cy="185" rx="20" ry="2" />
<ellipse fill="#f8fff0" fill-opacity="0.600000" cx="222" cy="65" rx="2" ry="6" />
<ellipse fill="#000000" fill-opacity="0.301961" cx="160" cy="60" rx="2" ry="6" />
<ellipse fill="#4df900" fill-opacity="0.501961" cx="230" cy="44" rx="13" ry="2" />
<ellipse fill="#fee9fa" fill-opacity="0.603922" cx="139" cy="60" rx="4" ry="14" />
<ellipse fill="#747d6f" fill-opacity="0.545098" cx="20" cy="172" rx="7" ry="12" />
<ellipse fill="#fdfff7" fill-opacity="0.533333" cx="64" cy="52" rx="41" ry="3" />
<ellipse fill="#080813" fill-opacity="0.501961" cx="203" cy="57" rx="2" ry="3" />
<ellipse fill="#aaafa7" fill-opacity="0.572549" cx="213" cy="142" rx="20" ry="2" />
<ellipse fill="#4ee300" fill-opacity="0.545098" cx="204" cy="41" rx="6" ry="4" />
<ellipse fill="#11101b" fill-opacity="0.447059" cx="193" cy="63" rx="2" ry="5" />
<ellipse fill="#f0ecea" fill-opacity="0.921569" cx="168" cy="58" rx="1" ry="11" />
<ellipse fill="#dae5ce" fill-opacity="0.835294" cx="25" cy="47" rx="4" ry="21" />
<ellipse fill="#343a3e" fill-opacity="0.462745" cx="54" cy="172" rx="5" ry="36" />
<ellipse fill="#babcb6" fill-opacity="0.866667" cx="39" cy="136" rx="131" ry="1" />
<ellipse fill="#5d6366" fill-opacity="0.631373" cx="157" cy="181" rx="14" ry="12" />
<ellipse fill="#00010a" fill-opacity="0.658824" cx="208" cy="63" rx="1" ry="5" />
<ellipse fill="#f7fcf2" fill-opacity="0.741176" cx="57" cy="102" rx="25" ry="8" />
<ellipse fill="#090016" fill-opacity="0.427451" cx="150" cy="64" rx="2" ry="4" />
<ellipse fill="#000004" fill-opacity="0.580392" cx="155" cy="62" rx="1" ry="7" />
<ellipse fill="#f0efea" fill-opacity="0.874510" cx="179" cy="62" rx="1" ry="15" />
<ellipse fill="#21112d" fill-opacity="0.380392" cx="143" cy="65" rx="2" ry="4" />
<ellipse fill="#3b3942" fill-opacity="0.501961" cx="186" cy="60" rx="7" ry="2" />
<ellipse fill="#f6f8f2" fill-opacity="0.439216" cx="177" cy="155" rx="7" ry="25" />
<ellipse fill="#21150c" fill-opacity="0.490196" cx="112" cy="142" rx="10" ry="3" />
<ellipse fill="#a588ab" fill-opacity="0.329412" cx="190" cy="81" rx="60" ry="1" />
<ellipse fill="#dbd5d0" fill-opacity="0.796078" cx="118" cy="27" rx="6" ry="67" />
<ellipse fill="#01000c" fill-opacity="0.647059" cx="181" cy="64" rx="1" ry="4" />
<ellipse fill="#cfdbc4" fill-opacity="0.882353" cx="255" cy="14" rx="16" ry="39" />
</g>
</svg>