<svg xmlns="http://www.w3.org/2000/svg" version="1.1" width="256" height="204">
<rect x="0" y="0" width="256" height="204" fill="#f0f0f0" />
<g transform="scale(1.000000) translate(0.5 0.5)">
<ellipse fill="#3b3d35" fill-opacity="0.741176" cx="163" cy="141" rx="57" ry="52" />
<ellipse fill="#53693b" fill-opacity="0.525490" cx="131" cy="46" rx="59" ry="31" />
<ellipse fill="#2a2d23" fill-opacity="0.572549" cx="189" cy="172" rx="27" ry="16" />
<ellipse fill="#5f5e5b" fill-opacity="0.894118" cx="117" cy="139" rx="9" ry="50" />
<ellipse fill="#83b760" fill-opacity="0.172549" cx="179" cy="85" rx="238" ry="197" />
<ellipse fill="#eaeee1" fill-opacity="0.611765" cx="140" cy="30" rx="35" ry="19" />
<ellipse fill="#e7f6df" fill-opacity="0.945098" cx="159" cy="191" rx="126" ry="5" />
<ellipse fill="#232817" fill-opacity="0.431373" cx="92" cy="42" rx="14" ry="27" />
<ellipse fill="#e9f6e1" fill-opacity="0.992157" cx="217" cy="138" rx="4" ry="62" />
<ellipse fill="#494a48" fill-opacity="0.772549" cx="201" cy="111" rx="13" ry="19" />
<ellipse fill="#f5faf0" fill-opacity="0.745098" cx="87" cy="139" rx="24" ry="72" />
<ellipse fill="#efefe9" fill-opacity="1.000000" cx="158" cy="90" rx="140" ry="4" />
<ellipse fill="#536446" fill-opacity="0.568627" cx="132" cy="58" rx="53" ry="11" />
<ellipse fill="#393038" fill-opacity="0.458824" cx="139" cy="163" rx="29" ry="25" />
<ellipse fill="#f0e7ec" fill-opacity="0.670588" cx="134" cy="81" rx="94" ry="13" />
<ellipse fill="#3f2f38" fill-opacity="0.596078" cx="150" cy="98" rx="40" ry="5" />
<ellipse fill="#e1e7da" fill-opacity="0.992157" cx="186" cy="34" rx="5" ry="50" />
<ellipse fill="#0a1c00" fill-opacity="0.411765" cx="177" cy="47" rx="5" ry="22" />
<ellipse fill="#211d22" fill-opacity="0.501961" cx="202" cy="176" rx="12" ry="13" />
<ellipse fill="#e0e5d9" fill-opacity="0.941176" cx="71" cy="37" rx="9" ry="36" />
<ellipse fill="#73cd3d" fill-opacity="0.498039" cx="122" cy="19" rx="57" ry="3" />
<ellipse fill="#fff6ff" fill-opacity="0.690196" cx="128" cy="43" rx="23" ry="5" />
<ellipse fill="#85828c" fill-opacity="0.643137" cx="157" cy="125" rx="32" ry="19" />
<ellipse fill="#bfdfaf" fill-opacity="0.505882" cx="243" cy="29" rx="26" ry="53" />
<ellipse fill="#72647c" fill-opacity="0.525490" cx="137" cy="35" rx="28" ry="4" />
<ellipse fill="#f0fee5" fill-opacity="0.545098" cx="81" cy="26" rx="121" ry="3" />
<ellipse fill="#c2e0b3" fill-opacity="0.592157" cx="13" cy="175" rx="24" ry="44" />
<ellipse fill="#3f363c" fill-opacity="0.717647" cx="85" cy="64" rx="7" ry="5" />
<ellipse fill="#706a67" fill-opacity="0.462745" cx="195" cy="67" rx="162" ry="2" />
<ellipse fill="#5da02e" fill-opacity="0.694118" cx="112" cy="63" rx="7" ry="10" />
<ellipse fill="#6a6f66" fill-opacity="0.658824" cx="128" cy="181" rx="19" ry="6" />
<ellipse fill="#fffdfa" fill-opacity="0.749020" cx="163" cy="44" rx="11" ry="4" />
<ellipse fill="#ecfbe5" fill-opacity="0.588235" cx="56" cy="168" rx="21" ry="100" />
<ellipse fill="#f1f3ec" fill-opacity="0.886275" cx="108" cy="141" rx="3" ry="58" />
<ellipse fill="#3a373a" fill-opacity="0.454902" cx="200" cy="161" rx="13" ry="26" />
<ellipse fill="#5cff00" fill-opacity="0.572549" cx="138" cy="49" rx="37" ry="2" />
<ellipse fill="#d2deca" fill-opacity="0.768627" cx="134" cy="5" rx="104" ry="14" />
<ellipse fill="#505453" fill-opacity="0.639216" cx="198" cy="98" rx="17" ry="5" />
<ellipse fill="#2a2733" fill-opacity="0.474510" cx="114" cy="140" rx="4" ry="48" />
<ellipse fill="#cee4c2" fill-opacity="1.000000" cx="116" cy="203" rx="249" ry="5" />
<ellipse fill="#919b85" fill-opacity="0.439216" cx="33" cy="161" rx="2" ry="107" />
<ellipse fill="#45433d" fill-opacity="0.698039" cx="163" cy="167" rx="19" ry="18" />
<ellipse fill="#7b7c7c" fill-opacity="0.780392" cx="142" cy="136" rx="5" ry="36" />
<ellipse fill="#54ae1b" fill-opacity="0.552941" cx="174" cy="44" rx="2" ry="27" />
<ellipse fill="#e4f1dd" fill-opacity="0.525490" cx="214" cy="140" rx="2" ry="49" />
<ellipse fill="#4cb308" fill-opacity="0.498039" cx="104" cy="37" rx="3" ry="18" />
<ellipse fill="#88858a" fill-opacity="0.352941" cx="32" cy="57" rx="145" ry="2" />
<ellipse fill="#f2ffe8" fill-opacity="0.556863" cx="18" cy="105" rx="15" ry="28" />
<ellipse fill="#e3f1da" fill-opacity="0.772549" cx="174" cy="188" rx="121" ry="2" />
<ellipse fill="#000010" fill-opacity="0.247059" cx="81" cy="19" rx="2" ry="49" />
<ellipse fill="#d5d3d0" fill-opacity="0.568627" cx="205" cy="74" rx="99" ry="7" />
<ellipse fill="#55c612" fill-opacity="0.627451" cx="157" cy="20" rx="18" ry="2" />
<ellipse fill="#4f4455" fill-opacity="0.686275" cx="169" cy="59" rx="11" ry="9" />
<ellipse fill="#f7f3ef" fill-opacity="0.800000" cx="109" cy="36" rx="3" ry="12" />
<ellipse fill="#03ff02" fill-opacity="0.796078" cx="36" cy="78" rx="1" ry="7" />
<ellipse fill="#e1eada" fill-opacity="0.827451" cx="68" cy="9" rx="12" ry="47" />
<ellipse fill="#5ce602" fill-opacity="0.745098" cx="124" cy="53" rx="5" ry="5" />
<ellipse fill="#cbe1be" fill-opacity="0.894118" cx="255" cy="148" rx="5" ry="141" />
<ellipse fill="#9382a2" fill-opacity="0.564706" cx="141" cy="58" rx="16" ry="8" />
<ellipse fill="#fff1ff" fill-opacity="0.380392" cx="138" cy="28" rx="31" ry="5" />
<ellipse fill="#554b4f" fill-opacity="0.549020" cx="160" cy="103" rx="49" ry="4" />
<ellipse fill="#6bd02f" fill-opacity="0.592157" cx="120" cy="20" rx="41" ry="2" />
<ellipse fill="#e59dff" fill-opacity="0.388235" cx="144" cy="19" rx="49" ry="1" />
<ellipse fill="#4dfa00" fill-opacity="0.549020" cx="91" cy="21" rx="6" ry="4" />
<ellipse fill="#2c2e28" fill-opacity="0.537255" cx="200" cy="184" rx="14" ry="3" />
<ellipse fill="#7d6c7f" fill-opacity="0.600000" cx="102" cy="58" rx="9" ry="10" />
<ellipse fill="#8fa696" fill-opacity="0.466667" cx="51" cy="77" rx="19" ry="2" />
<ellipse fill="#5f5358" fill-opacity="0.635294" cx="123" cy="108" rx="8" ry="15" />
<ellipse fill="#fbeef8" fill-opacity="0.572549" cx="97" cy="89" rx="14" ry="22" />
<ellipse fill="#7a7b78" fill-opacity="1.000000" cx="183" cy="94" rx="30" ry="1" />
<ellipse fill="#19130d" fill-opacity="0.368627" cx="134" cy="157" rx="3" ry="23" />
<ellipse fill="#f2eceb" fill-opacity="0.945098" cx="134" cy="36" rx="2" ry="11" />
<ellipse fill="#9fa3a9" fill-opacity="0.482353" cx="162" cy="118" rx="15" ry="7" />
<ellipse fill="#879481" fill-opacity="0.462745" cx="233" cy="109" rx="13" ry="2" />
<ellipse fill="#e6cee3" fill-opacity="0.482353" cx="142" cy="71" rx="26" ry="4" />
<ellipse fill="#6c7067" fill-opacity="0.850980" cx="152" cy="185" rx="41" ry="2" />
<ellipse fill="#58ef00" fill-opacity="0.686275" cx="120" cy="58" rx="3" ry="4" />
<ellipse fill="#5c455d" fill-opacity="0.470588" cx="93" cy="42" rx="11" ry="15" />
<ellipse fill="#fbfff1" fill-opacity="0.533333" cx="170" cy="35" rx="4" ry="14" />
<ellipse fill="#cfe5c3" fill-opacity="1.000000" cx="0" cy="56" rx="4" ry="203" />
<ellipse fill="#eeffe5" fill-opacity="0.509804" cx="236" cy="177" rx="15" ry="22" />
<ellipse fill="#eafedf" fill-opacity="0.474510" cx="22" cy="31" rx="20" ry="25" />
<ellipse fill="#878b83" fill-opacity="0.478431" cx="202" cy="44" rx="13" ry="2" />
<ellipse fill="#d1e5c6" fill-opacity="1.000000" cx="111" cy="0" rx="189" ry="4" />
<ellipse fill="#543d5a" fill-opacity="0.352941" cx="181" cy="48" rx="2" ry="22" />
<ellipse fill="#080712" fill-opacity="0.745098" cx="139" cy="31" rx="2" ry="1" />
<ellipse fill="#52ff00" fill-opacity="0.541176" cx="98" cy="23" rx="9" ry="2" />
<ellipse fill="#59de02" fill-opacity="0.521569" cx="114" cy="68" rx="5" ry="4" />
<ellipse fill="#928d9a" fill-opacity="0.494118" cx="145" cy="111" rx="15" ry="8" />
<ellipse fill="#fffffe" fill-opacity="0.392157" cx="64" cy="72" rx="25" ry="5" />
<ellipse fill="#6f6c64" fill-opacity="0.580392" cx="163" cy="140" rx="15" ry="11" />
<ellipse fill="#54544f" fill-opacity="0.376471" cx="186" cy="104" rx="28" ry="11" />
<ellipse fill="#f3eaec" fill-opacity="0.647059" cx="143" cy="43" rx="30" ry="5" />
<ellipse fill="#2d291c" fill-opacity="0.513725" cx="176" cy="54" rx="6" ry="6" />
<ellipse fill="#f1fde8" fill-opacity="0.521569" cx="192" cy="21" rx="16" ry="9" />
<ellipse fill="#65675e" fill-opacity="0.717647" cx="162" cy="171" rx="6" ry="6" />
<ellipse fill="#3e3c46" fill-opacity="0.666667" cx="112" cy="100" rx="2" ry="7" />
<ellipse fill="#2a251c" fill-opacity="0.509804" cx="152" cy="155" rx="8" ry="5" />
<ellipse fill="#0f0600" fill-opacity="0.501961" cx="209" cy="117" rx="4" ry="4" />
<ellipse fill="#000003" fill-opacity="0.247059" cx="126" cy="67" rx="56" ry="1" />
</g>
</svg>