<svg xmlns="http://www.w3.org/2000/svg" version="1.1" width="256" height="187">
<rect x="0" y="0" width="256" height="187" fill="#f0f0f0" />
<g transform="scale(1.000000) translate(0.5 0.5)">
<ellipse fill="#181d13" fill-opacity="0.678431" cx="24" cy="92" rx="44" ry="65" />
<ellipse fill="#b7d79e" fill-opacity="0.509804" cx="192" cy="98" rx="60" ry="76" />
<ellipse fill="#6e7169" fill-opacity="0.956863" cx="47" cy="52" rx="19" ry="25" />
<ellipse fill="#585a56" fill-opacity="0.866667" cx="53" cy="128" rx="13" ry="26" />
<ellipse fill="#dceeed" fill-opacity="0.976471" cx="90" cy="90" rx="26" ry="186" />
<ellipse fill="#46dc00" fill-opacity="0.796078" cx="197" cy="125" rx="59" ry="2" />
<ellipse fill="#46c800" fill-opacity="0.694118" cx="217" cy="88" rx="89" ry="2" />
<ellipse fill="#46d000" fill-opacity="0.674510" cx="187" cy="147" rx="7" ry="8" />
<ellipse fill="#e4f4e2" fill-opacity="0.850980" cx="10" cy="182" rx="178" ry="30" />
<ellipse fill="#636168" fill-opacity="0.415686" cx="206" cy="107" rx="71" ry="5" />
<ellipse fill="#50544c" fill-opacity="0.949020" cx="0" cy="49" rx="39" ry="20" />
<ellipse fill="#41433b" fill-opacity="0.639216" cx="8" cy="118" rx="39" ry="36" />
<ellipse fill="#5bdc11" fill-opacity="0.831373" cx="199" cy="131" rx="7" ry="8" />
<ellipse fill="#3bbb00" fill-opacity="0.603922" cx="142" cy="70" rx="7" ry="8" />
<ellipse fill="#e9eae6" fill-opacity="0.662745" cx="195" cy="53" rx="53" ry="33" />
<ellipse fill="#363427" fill-opacity="0.647059" cx="53" cy="35" rx="13" ry="6" />
<ellipse fill="#53ec00" fill-opacity="0.580392" cx="246" cy="113" rx="3" ry="25" />
<ellipse fill="#4dacb3" fill-opacity="0.478431" cx="113" cy="22" rx="46" ry="3" />
<ellipse fill="#e9f8e1" fill-opacity="0.713725" cx="241" cy="156" rx="51" ry="30" />
<ellipse fill="#e2f5d9" fill-opacity="0.741176" cx="28" cy="16" rx="49" ry="14" />
<ellipse fill="#5ecc18" fill-opacity="0.933333" cx="141" cy="108" rx="2" ry="21" />
<ellipse fill="#cee8ce" fill-opacity="0.337255" cx="176" cy="26" rx="114" ry="40" />
<ellipse fill="#ebf2fa" fill-opacity="0.690196" cx="151" cy="143" rx="31" ry="17" />
<ellipse fill="#73776f" fill-opacity="0.572549" cx="41" cy="145" rx="25" ry="9" />
<ellipse fill="#828889" fill-opacity="0.588235" cx="55" cy="77" rx="10" ry="38" />
<ellipse fill="#f6c01b" fill-opacity="0.494118" cx="174" cy="166" rx="13" ry="6" />
<ellipse fill="#e0e9f8" fill-opacity="0.752941" cx="119" cy="103" rx="21" ry="61" />
<ellipse fill="#46ba00" fill-opacity="0.588235" cx="151" cy="83" rx="5" ry="7" />
<ellipse fill="#e5f4dd" fill-opacity="1.000000" cx="254" cy="84" rx="6" ry="186" />
<ellipse fill="#fff0ff" fill-opacity="0.529412" cx="176" cy="97" rx="26" ry="8" />
<ellipse fill="#fff4ff" fill-opacity="0.650980" cx="172" cy="118" rx="29" ry="5" />
<ellipse fill="#ffecff" fill-opacity="0.592157" cx="147" cy="106" rx="4" ry="16" />
<ellipse fill="#161512" fill-opacity="0.392157" cx="62" cy="125" rx="3" ry="30" />
<ellipse fill="#2ede00" fill-opacity="0.533333" cx="195" cy="140" rx="4" ry="4" />
<ellipse fill="#f6f5f2" fill-opacity="0.658824" cx="193" cy="117" rx="50" ry="6" />
<ellipse fill="#92979b" fill-opacity="0.505882" cx="103" cy="51" rx="29" ry="2" />
<ellipse fill="#2b302f" fill-opacity="0.486275" cx="14" cy="108" rx="7" ry="45" />
<ellipse fill="#6f6368" fill-opacity="0.419608" cx="182" cy="44" rx="22" ry="2" />
<ellipse fill="#8f98a0" fill-opacity="0.454902" cx="103" cy="41" rx="36" ry="2" />
<ellipse fill="#f1f4ee" fill-opacity="0.635294" cx="196" cy="54" rx="75" ry="7" />
<ellipse fill="#fffff7" fill-opacity="0.568627" cx="240" cy="111" rx="4" ry="13" />
<ellipse fill="#1c1f15" fill-opacity="0.501961" cx="61" cy="31" rx="4" ry="3" />
<ellipse fill="#f9f8f5" fill-opacity="0.603922" cx="201" cy="95" rx="43" ry="5" />
<ellipse fill="#302c26" fill-opacity="0.670588" cx="43" cy="100" rx="4" ry="16" />
<ellipse fill="#5ae40b" fill-opacity="0.725490" cx="203" cy="127" rx="8" ry="5" />
<ellipse fill="#210037" fill-opacity="0.235294" cx="158" cy="104" rx="11" ry="4" />
<ellipse fill="#e7f4df" fill-opacity="0.596078" cx="211" cy="169" rx="27" ry="26" />
<ellipse fill="#6d6e62" fill-opacity="0.584314" cx="27" cy="68" rx="8" ry="36" />
<ellipse fill="#62a93e" fill-opacity="0.600000" cx="138" cy="62" rx="5" ry="3" />
<ellipse fill="#e7f6df" fill-opacity="0.827451" cx="242" cy="56" rx="25" ry="29" />
<ellipse fill="#fffffb" fill-opacity="0.627451" cx="196" cy="104" rx="3" ry="11" />
<ellipse fill="#def5f6" fill-opacity="0.501961" cx="108" cy="149" rx="44" ry="34" />
<ellipse fill="#b4b4af" fill-opacity="0.639216" cx="203" cy="63" rx="36" ry="2" />
<ellipse fill="#59d308" fill-opacity="0.823529" cx="156" cy="86" rx="3" ry="3" />
<ellipse fill="#392d46" fill-opacity="0.384314" cx="182" cy="105" rx="11" ry="2" />
<ellipse fill="#a19a9d" fill-opacity="0.458824" cx="189" cy="73" rx="33" ry="2" />
<ellipse fill="#40d500" fill-opacity="0.537255" cx="193" cy="139" rx="3" ry="5" />
<ellipse fill="#d1e3f5" fill-opacity="0.435294" cx="144" cy="41" rx="13" ry="23" />
<ellipse fill="#e4efda" fill-opacity="0.835294" cx="113" cy="2" rx="255" ry="11" />
<ellipse fill="#3fe900" fill-opacity="0.568627" cx="246" cy="105" rx="2" ry="19" />
<ellipse fill="#7b7471" fill-opacity="0.301961" cx="194" cy="35" rx="34" ry="2" />
<ellipse fill="#75727f" fill-opacity="0.396078" cx="212" cy="106" rx="15" ry="6" />
<ellipse fill="#e7f5e1" fill-opacity="0.670588" cx="43" cy="26" rx="31" ry="4" />
<ellipse fill="#58c413" fill-opacity="0.545098" cx="147" cy="73" rx="3" ry="7" />
<ellipse fill="#7e8279" fill-opacity="0.623529" cx="44" cy="68" rx="11" ry="20" />
<ellipse fill="#b9ec98" fill-opacity="1.000000" cx="193" cy="123" rx="50" ry="1" />
<ellipse fill="#767a6e" fill-opacity="0.474510" cx="34" cy="151" rx="33" ry="3" />
<ellipse fill="#33bf00" fill-opacity="0.580392" cx="193" cy="151" rx="2" ry="2" />
<ellipse fill="#f6effb" fill-opacity="0.521569" cx="162" cy="131" rx="33" ry="4" />
<ellipse fill="#5eadc1" fill-opacity="0.490196" cx="104" cy="22" rx="34" ry="2" />
<ellipse fill="#d6e3d4" fill-opacity="0.717647" cx="135" cy="172" rx="243" ry="2" />
<ellipse fill="#f0dcf1" fill-opacity="0.552941" cx="158" cy="71" rx="10" ry="9" />
<ellipse fill="#edf8e2" fill-opacity="0.654902" cx="203" cy="23" rx="55" ry="10" />
<ellipse fill="#edf7e7" fill-opacity="0.572549" cx="225" cy="145" rx="31" ry="11" />
<ellipse fill="#5a5a4f" fill-opacity="0.694118" cx="43" cy="39" rx="22" ry="4" />
<ellipse fill="#00000a" fill-opacity="0.607843" cx="151" cy="108" rx="1" ry="4" />
<ellipse fill="#898d8b" fill-opacity="0.388235" cx="53" cy="123" rx="4" ry="31" />
<ellipse fill="#6d736a" fill-opacity="0.501961" cx="24" cy="132" rx="5" ry="18" />
<ellipse fill="#65f508" fill-opacity="0.207843" cx="233" cy="90" rx="94" ry="1" />
<ellipse fill="#2d2720" fill-opacity="0.415686" cx="45" cy="128" rx="6" ry="12" />
<ellipse fill="#857f6f" fill-opacity="0.435294" cx="36" cy="114" rx="3" ry="19" />
<ellipse fill="#e5e3fc" fill-opacity="0.454902" cx="123" cy="81" rx="24" ry="9" />
<ellipse fill="#edf4e8" fill-opacity="0.866667" cx="183" cy="157" rx="35" ry="3" />
<ellipse fill="#929c99" fill-opacity="0.513725" cx="52" cy="50" rx="13" ry="6" />
<ellipse fill="#8c539b" fill-opacity="0.286275" cx="193" cy="87" rx="55" ry="1" />
<ellipse fill="#5b4a6a" fill-opacity="0.223529" cx="139" cy="107" rx="2" ry="20" />
<ellipse fill="#070200" fill-opacity="0.364706" cx="31" cy="118" rx="3" ry="13" />
<ellipse fill="#c5e5e2" fill-opacity="0.866667" cx="65" cy="53" rx="1" ry="119" />
<ellipse fill="#e5effa" fill-opacity="0.494118" cx="96" cy="100" rx="31" ry="47" />
<ellipse fill="#f8edf2" fill-opacity="0.627451" cx="178" cy="79" rx="25" ry="5" />
<ellipse fill="#52dd00" fill-opacity="0.431373" cx="246" cy="92" rx="3" ry="5" />
<ellipse fill="#f6ecf1" fill-opacity="0.752941" cx="168" cy="98" rx="14" ry="6" />
<ellipse fill="#f2fcec" fill-opacity="0.588235" cx="228" cy="99" rx="10" ry="5" />
<ellipse fill="#efe8e8" fill-opacity="0.533333" cx="174" cy="129" rx="22" ry="3" />
<ellipse fill="#45d100" fill-opacity="0.501961" cx="140" cy="65" rx="4" ry="3" />
<ellipse fill="#454b44" fill-opacity="0.270588" cx="0" cy="52" rx="37" ry="24" />
<ellipse fill="#f0efeb" fill-opacity="0.933333" cx="186" cy="102" rx="1" ry="12" />
<ellipse fill="#a8b5ae" fill-opacity="0.313725" cx="32" cy="82" rx="4" ry="12" />
<ellipse fill="#e9dedf" fill-opacity="0.549020" cx="176" cy="140" rx="13" ry="2" />
<ellipse fill="#e7f4e0" fill-opacity="0.815686" cx="231" cy="152" rx="37" ry="25" />
</g>
</svg>