<svg xmlns="http://www.w3.org/2000/svg" version="1.1" width="153" height="256">
<rect x="0" y="0" width="153" height="256" fill="#f0f0f0" />
<g transform="scale(1.000000) translate(0.5 0.5)">
<ellipse fill="#473c27" fill-opacity="0.760784" cx="59" cy="123" rx="134" ry="193" />
<ellipse fill="#aba79f" fill-opacity="0.505882" cx="93" cy="161" rx="152" ry="36" />
<ellipse fill="#222b31" fill-opacity="0.443137" cx="59" cy="229" rx="124" ry="36" />
<ellipse fill="#2c1d00" fill-opacity="0.372549" cx="99" cy="25" rx="108" ry="24" />
<ellipse fill="#a19888" fill-opacity="0.537255" cx="21" cy="127" rx="37" ry="63" />
<ellipse fill="#7f6138" fill-opacity="0.482353" cx="126" cy="98" rx="56" ry="75" />
<ellipse fill="#bbe6ff" fill-opacity="0.196078" cx="117" cy="186" rx="128" ry="12" />
<ellipse fill="#362b19" fill-opacity="0.552941" cx="78" cy="110" rx="21" ry="15" />
<ellipse fill="#554d41" fill-opacity="0.356863" cx="42" cy="151" rx="13" ry="21" />
<ellipse fill="#82735a" fill-opacity="0.505882" cx="60" cy="70" rx="73" ry="26" />
<ellipse fill="#4c4330" fill-opacity="1.000000" cx="131" cy="10" rx="61" ry="17" />
<ellipse fill="#53534d" fill-opacity="0.533333" cx="34" cy="194" rx="45" ry="4" />
<ellipse fill="#c3d4e0" fill-opacity="0.309804" cx="9" cy="175" rx="22" ry="13" />
<ellipse fill="#54462c" fill-opacity="0.741176" cx="37" cy="49" rx="9" ry="14" />
<ellipse fill="#906a2d" fill-opacity="0.568627" cx="142" cy="65" rx="16" ry="34" />
<ellipse fill="#a4b0b4" fill-opacity="0.717647" cx="152" cy="194" rx="34" ry="6" />
<ellipse fill="#4a3924" fill-opacity="0.537255" cx="80" cy="100" rx="7" ry="28" />
<ellipse fill="#816b4e" fill-opacity="0.901961" cx="121" cy="118" rx="14" ry="34" />
<ellipse fill="#827c75" fill-opacity="0.419608" cx="116" cy="168" rx="98" ry="16" />
<ellipse fill="#aca194" fill-opacity="0.478431" cx="76" cy="139" rx="24" ry="10" />
<ellipse fill="#493620" fill-opacity="0.470588" cx="29" cy="100" rx="3" ry="18" />
<ellipse fill="#ccc6af" fill-opacity="0.188235" cx="8" cy="113" rx="6" ry="70" />
<ellipse fill="#a99a8a" fill-opacity="0.325490" cx="55" cy="83" rx="21" ry="13" />
<ellipse fill="#351f00" fill-opacity="0.211765" cx="151" cy="71" rx="6" ry="79" />
<ellipse fill="#7a7160" fill-opacity="0.517647" cx="128" cy="5" rx="10" ry="7" />
<ellipse fill="#b0c5d0" fill-opacity="0.372549" cx="55" cy="186" rx="43" ry="4" />
<ellipse fill="#706c65" fill-opacity="0.705882" cx="19" cy="2" rx="37" ry="8" />
<ellipse fill="#432e10" fill-opacity="0.427451" cx="115" cy="50" rx="6" ry="11" />
<ellipse fill="#867c68" fill-opacity="0.580392" cx="76" cy="53" rx="6" ry="18" />
<ellipse fill="#3f3d36" fill-opacity="0.843137" cx="149" cy="253" rx="33" ry="10" />
<ellipse fill="#52483a" fill-opacity="0.549020" cx="42" cy="138" rx="6" ry="7" />
<ellipse fill="#482605" fill-opacity="0.549020" cx="129" cy="98" rx="9" ry="3" />
<ellipse fill="#a19785" fill-opacity="0.482353" cx="21" cy="124" rx="41" ry="10" />
<ellipse fill="#555854" fill-opacity="0.525490" cx="52" cy="234" rx="30" ry="19" />
<ellipse fill="#280f00" fill-opacity="0.247059" cx="2" cy="44" rx="1" ry="135" />
<ellipse fill="#79756b" fill-opacity="0.768627" cx="104" cy="166" rx="70" ry="5" />
<ellipse fill="#9c7e50" fill-opacity="0.450980" cx="122" cy="78" rx="11" ry="17" />
<ellipse fill="#575344" fill-opacity="0.278431" cx="36" cy="48" rx="22" ry="27" />
<ellipse fill="#a1afb5" fill-opacity="0.600000" cx="109" cy="191" rx="29" ry="4" />
<ellipse fill="#9c7f4d" fill-opacity="0.494118" cx="136" cy="56" rx="10" ry="15" />
<ellipse fill="#6e5940" fill-opacity="0.454902" cx="57" cy="106" rx="8" ry="15" />
<ellipse fill="#462503" fill-opacity="0.501961" cx="135" cy="80" rx="3" ry="8" />
<ellipse fill="#88785f" fill-opacity="0.580392" cx="121" cy="122" rx="24" ry="8" />
<ellipse fill="#654937" fill-opacity="0.482353" cx="117" cy="134" rx="8" ry="12" />
<ellipse fill="#2e2b25" fill-opacity="0.458824" cx="0" cy="255" rx="24" ry="12" />
<ellipse fill="#5d5e59" fill-opacity="0.309804" cx="7" cy="195" rx="27" ry="9" />
<ellipse fill="#938a7b" fill-opacity="0.788235" cx="43" cy="157" rx="23" ry="4" />
<ellipse fill="#877d6b" fill-opacity="0.545098" cx="74" cy="57" rx="27" ry="8" />
<ellipse fill="#706855" fill-opacity="0.690196" cx="107" cy="38" rx="9" ry="7" />
<ellipse fill="#36260f" fill-opacity="0.443137" cx="1" cy="31" rx="3" ry="17" />
<ellipse fill="#c0ae9a" fill-opacity="0.388235" cx="115" cy="161" rx="19" ry="2" />
<ellipse fill="#685843" fill-opacity="0.549020" cx="34" cy="81" rx="3" ry="18" />
<ellipse fill="#ad9d86" fill-opacity="0.415686" cx="40" cy="105" rx="8" ry="14" />
<ellipse fill="#a8ada9" fill-opacity="0.286275" cx="49" cy="173" rx="39" ry="4" />
<ellipse fill="#494336" fill-opacity="0.521569" cx="63" cy="19" rx="43" ry="14" />
<ellipse fill="#83796a" fill-opacity="0.525490" cx="51" cy="131" rx="5" ry="52" />
<ellipse fill="#655238" fill-opacity="0.596078" cx="85" cy="100" rx="28" ry="5" />
<ellipse fill="#5c3815" fill-opacity="0.490196" cx="92" cy="154" rx="6" ry="3" />
<ellipse fill="#6d726f" fill-opacity="0.490196" cx="123" cy="199" rx="19" ry="2" />
<ellipse fill="#908672" fill-opacity="0.517647" cx="21" cy="99" rx="17" ry="5" />
<ellipse fill="#0b0800" fill-opacity="0.521569" cx="66" cy="39" rx="5" ry="3" />
<ellipse fill="#46433b" fill-opacity="0.466667" cx="89" cy="209" rx="63" ry="9" />
<ellipse fill="#837766" fill-opacity="0.443137" cx="94" cy="71" rx="4" ry="33" />
<ellipse fill="#595546" fill-opacity="0.443137" cx="26" cy="35" rx="26" ry="12" />
<ellipse fill="#b1a08c" fill-opacity="0.505882" cx="135" cy="146" rx="3" ry="8" />
<ellipse fill="#3d3a33" fill-opacity="0.270588" cx="80" cy="116" rx="18" ry="13" />
<ellipse fill="#857d6c" fill-opacity="0.490196" cx="13" cy="141" rx="10" ry="7" />
<ellipse fill="#cab5a7" fill-opacity="0.427451" cx="0" cy="137" rx="2" ry="32" />
<ellipse fill="#786b5b" fill-opacity="0.521569" cx="32" cy="152" rx="12" ry="5" />
<ellipse fill="#7f776b" fill-opacity="0.549020" cx="48" cy="2" rx="22" ry="3" />
<ellipse fill="#523e1a" fill-opacity="0.458824" cx="124" cy="41" rx="7" ry="10" />
<ellipse fill="#726456" fill-opacity="0.470588" cx="65" cy="159" rx="5" ry="11" />
<ellipse fill="#5c5243" fill-opacity="0.564706" cx="36" cy="148" rx="6" ry="5" />
<ellipse fill="#2d200e" fill-opacity="0.513725" cx="24" cy="13" rx="11" ry="2" />
<ellipse fill="#5f5c54" fill-opacity="0.458824" cx="110" cy="169" rx="10" ry="5" />
<ellipse fill="#9d9483" fill-opacity="0.458824" cx="51" cy="151" rx="11" ry="9" />
<ellipse fill="#b2bfc3" fill-opacity="0.494118" cx="15" cy="183" rx="34" ry="4" />
<ellipse fill="#948572" fill-opacity="0.686275" cx="67" cy="84" rx="8" ry="13" />
<ellipse fill="#9eaaad" fill-opacity="0.611765" cx="98" cy="190" rx="44" ry="3" />
<ellipse fill="#3d240b" fill-opacity="0.400000" cx="33" cy="89" rx="5" ry="4" />
<ellipse fill="#7d6f5e" fill-opacity="0.427451" cx="149" cy="186" rx="7" ry="4" />
<ellipse fill="#59331b" fill-opacity="0.415686" cx="77" cy="86" rx="7" ry="4" />
<ellipse fill="#897c6e" fill-opacity="0.396078" cx="98" cy="134" rx="6" ry="23" />
<ellipse fill="#575146" fill-opacity="0.345098" cx="62" cy="196" rx="41" ry="3" />
<ellipse fill="#665640" fill-opacity="0.803922" cx="107" cy="94" rx="3" ry="18" />
<ellipse fill="#8e7e60" fill-opacity="0.478431" cx="116" cy="111" rx="6" ry="21" />
<ellipse fill="#6d6a62" fill-opacity="0.674510" cx="0" cy="7" rx="29" ry="6" />
<ellipse fill="#33260c" fill-opacity="0.439216" cx="152" cy="8" rx="10" ry="13" />
<ellipse fill="#756955" fill-opacity="0.611765" cx="98" cy="57" rx="8" ry="18" />
<ellipse fill="#ab8144" fill-opacity="0.501961" cx="144" cy="65" rx="2" ry="25" />
<ellipse fill="#97866f" fill-opacity="0.549020" cx="95" cy="82" rx="6" ry="8" />
<ellipse fill="#8a7b65" fill-opacity="0.592157" cx="87" cy="95" rx="2" ry="7" />
<ellipse fill="#241d13" fill-opacity="0.419608" cx="4" cy="15" rx="18" ry="2" />
<ellipse fill="#2b1b08" fill-opacity="0.501961" cx="98" cy="0" rx="12" ry="3" />
<ellipse fill="#7c7562" fill-opacity="0.427451" cx="25" cy="70" rx="15" ry="13" />
<ellipse fill="#2b1501" fill-opacity="0.360784" cx="77" cy="4" rx="13" ry="2" />
<ellipse fill="#383426" fill-opacity="0.498039" cx="123" cy="20" rx="25" ry="4" />
<ellipse fill="#aeaea9" fill-opacity="0.368627" cx="3" cy="158" rx="17" ry="6" />
<ellipse fill="#807663" fill-opacity="0.521569" cx="61" cy="61" rx="6" ry="21" />
<ellipse fill="#655942" fill-opacity="0.478431" cx="47" cy="49" rx="8" ry="16" />
</g>
</svg>