<svg xmlns="http://www.w3.org/2000/svg" version="1.1" width="128" height="256">
<rect x="0" y="0" width="128" height="256" fill="#f0f0f0" />
<g transform="scale(1.000000) translate(0.5 0.5)">
<ellipse fill="#1c1d0a" fill-opacity="0.505882" cx="77" cy="142" rx="118" ry="217" />
<ellipse fill="#2c291c" fill-opacity="0.588235" cx="35" cy="250" rx="97" ry="53" />
<ellipse fill="#cacec9" fill-opacity="0.521569" cx="87" cy="100" rx="89" ry="46" />
<ellipse fill="#3b3a30" fill-opacity="0.603922" cx="48" cy="68" rx="19" ry="21" />
<ellipse fill="#4a4a3e" fill-opacity="0.898039" cx="16" cy="37" rx="21" ry="25" />
<ellipse fill="#dfe0dd" fill-opacity="0.788235" cx="0" cy="90" rx="34" ry="27" />
<ellipse fill="#170f02" fill-opacity="0.537255" cx="4" cy="135" rx="28" ry="15" />
<ellipse fill="#c7dedd" fill-opacity="0.427451" cx="78" cy="140" rx="31" ry="25" />
<ellipse fill="#0c0a00" fill-opacity="0.478431" cx="49" cy="255" rx="30" ry="26" />
<ellipse fill="#dee0df" fill-opacity="0.580392" cx="43" cy="115" rx="27" ry="16" />
<ellipse fill="#c1c7c6" fill-opacity="0.458824" cx="2" cy="254" rx="13" ry="29" />
<ellipse fill="#c0e0de" fill-opacity="0.584314" cx="127" cy="187" rx="21" ry="14" />
<ellipse fill="#fbffff" fill-opacity="0.250980" cx="37" cy="12" rx="17" ry="20" />
<ellipse fill="#7d7b72" fill-opacity="0.556863" cx="82" cy="206" rx="39" ry="22" />
<ellipse fill="#4a4b41" fill-opacity="0.552941" cx="31" cy="54" rx="20" ry="21" />
<ellipse fill="#d7d8c5" fill-opacity="0.254902" cx="74" cy="39" rx="32" ry="18" />
<ellipse fill="#8e8b80" fill-opacity="0.674510" cx="68" cy="87" rx="19" ry="22" />
<ellipse fill="#655a4b" fill-opacity="0.525490" cx="26" cy="153" rx="19" ry="24" />
<ellipse fill="#c3caca" fill-opacity="0.486275" cx="0" cy="181" rx="22" ry="11" />
<ellipse fill="#777165" fill-opacity="0.556863" cx="53" cy="178" rx="23" ry="31" />
<ellipse fill="#242117" fill-opacity="0.517647" cx="0" cy="124" rx="12" ry="11" />
<ellipse fill="#d9dad6" fill-opacity="0.819608" cx="0" cy="84" rx="14" ry="29" />
<ellipse fill="#959b94" fill-opacity="0.533333" cx="31" cy="58" rx="7" ry="13" />
<ellipse fill="#a2a499" fill-opacity="0.258824" cx="108" cy="135" rx="28" ry="101" />
<ellipse fill="#45463b" fill-opacity="0.745098" cx="2" cy="31" rx="30" ry="20" />
<ellipse fill="#524c39" fill-opacity="0.772549" cx="0" cy="204" rx="36" ry="12" />
<ellipse fill="#887d61" fill-opacity="0.466667" cx="96" cy="21" rx="35" ry="30" />
<ellipse fill="#4e605b" fill-opacity="0.670588" cx="113" cy="169" rx="8" ry="11" />
<ellipse fill="#8b8674" fill-opacity="0.992157" cx="127" cy="66" rx="12" ry="13" />
<ellipse fill="#3b3625" fill-opacity="0.529412" cx="33" cy="229" rx="25" ry="21" />
<ellipse fill="#d2d4d1" fill-opacity="0.788235" cx="28" cy="102" rx="20" ry="21" />
<ellipse fill="#050500" fill-opacity="0.415686" cx="42" cy="47" rx="8" ry="7" />
<ellipse fill="#d6f6ff" fill-opacity="0.388235" cx="99" cy="177" rx="8" ry="6" />
<ellipse fill="#c6d5e0" fill-opacity="0.356863" cx="54" cy="34" rx="10" ry="13" />
<ellipse fill="#a3a7a4" fill-opacity="1.000000" cx="1" cy="0" rx="40" ry="8" />
<ellipse fill="#000004" fill-opacity="0.243137" cx="99" cy="255" rx="23" ry="14" />
<ellipse fill="#b6c3c2" fill-opacity="0.494118" cx="86" cy="145" rx="13" ry="29" />
<ellipse fill="#c0d5d2" fill-opacity="0.713725" cx="127" cy="183" rx="6" ry="20" />
<ellipse fill="#605e57" fill-opacity="0.529412" cx="127" cy="226" rx="66" ry="12" />
<ellipse fill="#878a7f" fill-opacity="0.443137" cx="20" cy="45" rx="8" ry="8" />
<ellipse fill="#bac5cc" fill-opacity="0.486275" cx="66" cy="48" rx="8" ry="11" />
<ellipse fill="#6b6551" fill-opacity="0.600000" cx="102" cy="0" rx="48" ry="7" />
<ellipse fill="#fffff2" fill-opacity="0.066667" cx="103" cy="19" rx="18" ry="74" />
<ellipse fill="#1a1913" fill-opacity="0.341176" cx="49" cy="59" rx="8" ry="11" />
<ellipse fill="#9b9487" fill-opacity="0.517647" cx="127" cy="120" rx="26" ry="23" />
<ellipse fill="#9ea09b" fill-opacity="0.654902" cx="0" cy="233" rx="6" ry="13" />
<ellipse fill="#bec7cc" fill-opacity="0.435294" cx="23" cy="192" rx="9" ry="4" />
<ellipse fill="#1a0e00" fill-opacity="0.356863" cx="21" cy="62" rx="7" ry="5" />
<ellipse fill="#a4a6a0" fill-opacity="0.525490" cx="2" cy="162" rx="4" ry="18" />
<ellipse fill="#797c75" fill-opacity="0.796078" cx="3" cy="255" rx="18" ry="13" />
<ellipse fill="#464238" fill-opacity="0.470588" cx="10" cy="141" rx="9" ry="23" />
<ellipse fill="#acb8b5" fill-opacity="0.439216" cx="87" cy="146" rx="33" ry="14" />
<ellipse fill="#c4cac4" fill-opacity="0.509804" cx="54" cy="121" rx="22" ry="19" />
<ellipse fill="#050601" fill-opacity="0.537255" cx="32" cy="40" rx="5" ry="4" />
<ellipse fill="#afb4b3" fill-opacity="0.505882" cx="36" cy="15" rx="17" ry="7" />
<ellipse fill="#798280" fill-opacity="0.376471" cx="110" cy="159" rx="24" ry="9" />
<ellipse fill="#4b493e" fill-opacity="0.647059" cx="36" cy="75" rx="8" ry="5" />
<ellipse fill="#b8ccd1" fill-opacity="0.623529" cx="93" cy="171" rx="6" ry="4" />
<ellipse fill="#726d62" fill-opacity="0.615686" cx="52" cy="89" rx="8" ry="5" />
<ellipse fill="#88826d" fill-opacity="0.525490" cx="64" cy="0" rx="16" ry="30" />
<ellipse fill="#241f13" fill-opacity="0.462745" cx="83" cy="1" rx="5" ry="5" />
<ellipse fill="#a6a399" fill-opacity="0.713725" cx="96" cy="101" rx="23" ry="21" />
<ellipse fill="#5c5644" fill-opacity="0.521569" cx="121" cy="5" rx="7" ry="9" />
<ellipse fill="#262820" fill-opacity="0.533333" cx="6" cy="19" rx="8" ry="8" />
<ellipse fill="#b8a390" fill-opacity="0.352941" cx="43" cy="145" rx="8" ry="9" />
<ellipse fill="#fffede" fill-opacity="0.184314" cx="0" cy="150" rx="11" ry="5" />
<ellipse fill="#d7d9d4" fill-opacity="0.533333" cx="3" cy="83" rx="22" ry="21" />
<ellipse fill="#403621" fill-opacity="0.450980" cx="14" cy="54" rx="10" ry="8" />
<ellipse fill="#99bfba" fill-opacity="0.776471" cx="68" cy="140" rx="8" ry="12" />
<ellipse fill="#b3b19e" fill-opacity="0.537255" cx="83" cy="10" rx="11" ry="4" />
<ellipse fill="#abb1b1" fill-opacity="0.611765" cx="20" cy="188" rx="8" ry="6" />
<ellipse fill="#625843" fill-opacity="0.560784" cx="85" cy="18" rx="11" ry="3" />
<ellipse fill="#afb3b1" fill-opacity="0.603922" cx="80" cy="57" rx="16" ry="9" />
<ellipse fill="#554e3b" fill-opacity="0.423529" cx="76" cy="41" rx="5" ry="6" />
<ellipse fill="#a3c5c6" fill-opacity="0.501961" cx="106" cy="183" rx="7" ry="7" />
<ellipse fill="#b3bbbc" fill-opacity="0.552941" cx="48" cy="28" rx="9" ry="10" />
<ellipse fill="#8d958e" fill-opacity="0.505882" cx="37" cy="56" rx="4" ry="6" />
<ellipse fill="#928c75" fill-opacity="0.494118" cx="118" cy="39" rx="12" ry="31" />
<ellipse fill="#7b7a6e" fill-opacity="0.717647" cx="68" cy="70" rx="4" ry="9" />
<ellipse fill="#c7d1da" fill-opacity="0.321569" cx="111" cy="78" rx="9" ry="10" />
<ellipse fill="#7a746a" fill-opacity="0.478431" cx="54" cy="178" rx="31" ry="20" />
<ellipse fill="#b3c4c1" fill-opacity="0.866667" cx="121" cy="188" rx="12" ry="7" />
<ellipse fill="#807c71" fill-opacity="0.403922" cx="105" cy="210" rx="23" ry="16" />
<ellipse fill="#bac0c3" fill-opacity="0.447059" cx="96" cy="66" rx="14" ry="11" />
<ellipse fill="#5b5a56" fill-opacity="0.494118" cx="105" cy="167" rx="10" ry="4" />
<ellipse fill="#4b4736" fill-opacity="0.639216" cx="25" cy="214" rx="22" ry="18" />
<ellipse fill="#2e2d26" fill-opacity="0.403922" cx="0" cy="133" rx="23" ry="11" />
<ellipse fill="#84887e" fill-opacity="0.407843" cx="26" cy="46" rx="6" ry="7" />
<ellipse fill="#b3ada9" fill-opacity="0.419608" cx="103" cy="150" rx="7" ry="16" />
<ellipse fill="#0b0c05" fill-opacity="0.560784" cx="27" cy="36" rx="5" ry="3" />
<ellipse fill="#69624e" fill-opacity="0.509804" cx="3" cy="199" rx="8" ry="9" />
<ellipse fill="#83c3bd" fill-opacity="0.470588" cx="79" cy="122" rx="8" ry="10" />
<ellipse fill="#d2d4d0" fill-opacity="0.713725" cx="18" cy="110" rx="15" ry="9" />
<ellipse fill="#9d9f9b" fill-opacity="0.486275" cx="8" cy="243" rx="5" ry="8" />
<ellipse fill="#757167" fill-opacity="0.560784" cx="94" cy="115" rx="5" ry="3" />
<ellipse fill="#252418" fill-opacity="0.611765" cx="54" cy="255" rx="30" ry="11" />
<ellipse fill="#d7d9d4" fill-opacity="0.541176" cx="1" cy="83" rx="18" ry="25" />
<ellipse fill="#656758" fill-opacity="0.364706" cx="3" cy="38" rx="24" ry="7" />
<ellipse fill="#1d1a0c" fill-opacity="0.380392" cx="71" cy="1" rx="3" ry="6" />
<ellipse fill="#544d3a" fill-opacity="0.474510" cx="127" cy="74" rx="8" ry="4" />
</g>
</svg>