<svg xmlns="http://www.w3.org/2000/svg" version="1.1" width="256" height="128">
<rect x="0" y="0" width="256" height="128" fill="#f0f0f0" />
<g transform="scale(1.000000) translate(0.5 0.5)">
<ellipse fill="#333432" fill-opacity="0.968627" cx="218" cy="94" rx="255" ry="76" />
<ellipse fill="#7d8e97" fill-opacity="0.878431" cx="188" cy="0" rx="75" ry="32" />
<ellipse fill="#21221f" fill-opacity="0.874510" cx="16" cy="54" rx="18" ry="24" />
<ellipse fill="#000000" fill-opacity="0.435294" cx="243" cy="66" rx="34" ry="71" />
<ellipse fill="#bdcac5" fill-opacity="0.513725" cx="64" cy="13" rx="69" ry="31" />
<ellipse fill="#faf8ed" fill-opacity="0.580392" cx="47" cy="37" rx="17" ry="9" />
<ellipse fill="#b6c1c6" fill-opacity="0.564706" cx="162" cy="10" rx="41" ry="18" />
<ellipse fill="#444340" fill-opacity="0.968627" cx="84" cy="46" rx="22" ry="14" />
<ellipse fill="#e4e7e3" fill-opacity="0.643137" cx="87" cy="22" rx="25" ry="11" />
<ellipse fill="#788f9d" fill-opacity="0.560784" cx="204" cy="7" rx="19" ry="31" />
<ellipse fill="#211f1b" fill-opacity="0.717647" cx="173" cy="55" rx="15" ry="28" />
<ellipse fill="#252422" fill-opacity="0.501961" cx="12" cy="58" rx="14" ry="32" />
<ellipse fill="#4d4e53" fill-opacity="0.470588" cx="126" cy="58" rx="27" ry="40" />
<ellipse fill="#1a1c17" fill-opacity="0.647059" cx="242" cy="27" rx="32" ry="11" />
<ellipse fill="#6988a1" fill-opacity="0.611765" cx="217" cy="7" rx="27" ry="13" />
<ellipse fill="#27241e" fill-opacity="0.745098" cx="208" cy="59" rx="29" ry="23" />
<ellipse fill="#272825" fill-opacity="0.431373" cx="19" cy="53" rx="27" ry="18" />
<ellipse fill="#f8efe5" fill-opacity="0.607843" cx="103" cy="30" rx="5" ry="7" />
<ellipse fill="#ddd7ce" fill-opacity="0.486275" cx="161" cy="24" rx="6" ry="10" />
<ellipse fill="#eceee7" fill-opacity="0.545098" cx="36" cy="23" rx="26" ry="12" />
<ellipse fill="#c3d1d5" fill-opacity="0.521569" cx="100" cy="0" rx="40" ry="26" />
<ellipse fill="#9ca8ac" fill-opacity="0.415686" cx="195" cy="14" rx="21" ry="21" />
<ellipse fill="#5d5b5a" fill-opacity="0.356863" cx="50" cy="111" rx="14" ry="34" />
<ellipse fill="#544f48" fill-opacity="0.447059" cx="206" cy="90" rx="25" ry="9" />
<ellipse fill="#292a2a" fill-opacity="0.466667" cx="170" cy="118" rx="64" ry="28" />
<ellipse fill="#070706" fill-opacity="0.431373" cx="49" cy="60" rx="10" ry="12" />
<ellipse fill="#dde4db" fill-opacity="0.529412" cx="2" cy="28" rx="5" ry="13" />
<ellipse fill="#474542" fill-opacity="0.584314" cx="135" cy="36" rx="25" ry="12" />
<ellipse fill="#272827" fill-opacity="0.537255" cx="7" cy="101" rx="19" ry="64" />
<ellipse fill="#0e110f" fill-opacity="0.580392" cx="253" cy="72" rx="13" ry="57" />
<ellipse fill="#c8c3b9" fill-opacity="0.521569" cx="177" cy="21" rx="18" ry="7" />
<ellipse fill="#464544" fill-opacity="0.921569" cx="102" cy="76" rx="8" ry="36" />
<ellipse fill="#3c3e3e" fill-opacity="0.686275" cx="69" cy="63" rx="9" ry="32" />
<ellipse fill="#e3e8e2" fill-opacity="0.662745" cx="50" cy="26" rx="15" ry="19" />
<ellipse fill="#dde8e6" fill-opacity="0.490196" cx="36" cy="18" rx="6" ry="27" />
<ellipse fill="#4a4844" fill-opacity="0.521569" cx="179" cy="112" rx="24" ry="8" />
<ellipse fill="#383934" fill-opacity="0.623529" cx="11" cy="37" rx="6" ry="9" />
<ellipse fill="#90c8e5" fill-opacity="0.290196" cx="68" cy="0" rx="37" ry="10" />
<ellipse fill="#436a8a" fill-opacity="0.317647" cx="252" cy="4" rx="49" ry="12" />
<ellipse fill="#fbf5ea" fill-opacity="0.615686" cx="85" cy="30" rx="17" ry="2" />
<ellipse fill="#14120e" fill-opacity="0.466667" cx="168" cy="94" rx="14" ry="7" />
<ellipse fill="#48494b" fill-opacity="0.729412" cx="114" cy="54" rx="8" ry="30" />
<ellipse fill="#a8b1b1" fill-opacity="0.627451" cx="204" cy="33" rx="8" ry="3" />
<ellipse fill="#111517" fill-opacity="0.494118" cx="27" cy="80" rx="15" ry="6" />
<ellipse fill="#292826" fill-opacity="0.603922" cx="82" cy="109" rx="15" ry="11" />
<ellipse fill="#7590a2" fill-opacity="0.474510" cx="209" cy="14" rx="18" ry="10" />
<ellipse fill="#c3c4c3" fill-opacity="0.482353" cx="124" cy="2" rx="14" ry="24" />
<ellipse fill="#4a4741" fill-opacity="0.419608" cx="75" cy="45" rx="26" ry="3" />
<ellipse fill="#20201e" fill-opacity="0.490196" cx="104" cy="60" rx="4" ry="16" />
<ellipse fill="#050501" fill-opacity="0.486275" cx="65" cy="32" rx="1" ry="2" />
<ellipse fill="#373734" fill-opacity="0.529412" cx="20" cy="42" rx="13" ry="8" />
<ellipse fill="#ffffff" fill-opacity="0.478431" cx="63" cy="41" rx="2" ry="2" />
<ellipse fill="#323029" fill-opacity="0.447059" cx="225" cy="36" rx="15" ry="17" />
<ellipse fill="#999790" fill-opacity="0.639216" cx="100" cy="46" rx="3" ry="3" />
<ellipse fill="#191916" fill-opacity="0.396078" cx="165" cy="66" rx="7" ry="36" />
<ellipse fill="#42403d" fill-opacity="0.529412" cx="93" cy="39" rx="9" ry="7" />
<ellipse fill="#efeee4" fill-opacity="0.545098" cx="30" cy="26" rx="10" ry="11" />
<ellipse fill="#54544e" fill-opacity="0.152941" cx="224" cy="99" rx="30" ry="10" />
<ellipse fill="#81a4bd" fill-opacity="0.427451" cx="157" cy="2" rx="42" ry="3" />
<ellipse fill="#32312e" fill-opacity="0.541176" cx="186" cy="45" rx="12" ry="14" />
<ellipse fill="#e0ded7" fill-opacity="0.600000" cx="114" cy="10" rx="15" ry="6" />
<ellipse fill="#413e38" fill-opacity="0.517647" cx="114" cy="28" rx="7" ry="4" />
<ellipse fill="#d6cbbc" fill-opacity="0.498039" cx="185" cy="28" rx="6" ry="3" />
<ellipse fill="#ebece3" fill-opacity="0.443137" cx="34" cy="34" rx="3" ry="11" />
<ellipse fill="#c2c4c0" fill-opacity="0.486275" cx="162" cy="23" rx="13" ry="7" />
<ellipse fill="#161917" fill-opacity="0.658824" cx="245" cy="26" rx="14" ry="11" />
<ellipse fill="#c1c4c2" fill-opacity="0.501961" cx="161" cy="30" rx="3" ry="5" />
<ellipse fill="#404245" fill-opacity="0.627451" cx="144" cy="56" rx="16" ry="32" />
<ellipse fill="#131514" fill-opacity="0.623529" cx="185" cy="100" rx="9" ry="4" />
<ellipse fill="#a4a9ac" fill-opacity="0.670588" cx="138" cy="19" rx="19" ry="4" />
<ellipse fill="#c8d8dd" fill-opacity="0.490196" cx="19" cy="8" rx="36" ry="10" />
<ellipse fill="#45413c" fill-opacity="0.560784" cx="186" cy="80" rx="17" ry="6" />
<ellipse fill="#4c4a48" fill-opacity="0.772549" cx="98" cy="68" rx="3" ry="35" />
<ellipse fill="#40403f" fill-opacity="0.498039" cx="30" cy="105" rx="18" ry="18" />
<ellipse fill="#e8f1ee" fill-opacity="0.494118" cx="0" cy="34" rx="6" ry="4" />
<ellipse fill="#2e2e2b" fill-opacity="0.513725" cx="14" cy="46" rx="11" ry="16" />
<ellipse fill="#303130" fill-opacity="0.552941" cx="52" cy="66" rx="1" ry="26" />
<ellipse fill="#869daa" fill-opacity="0.478431" cx="189" cy="1" rx="15" ry="22" />
<ellipse fill="#1a1e1f" fill-opacity="0.556863" cx="146" cy="120" rx="18" ry="4" />
<ellipse fill="#1d1e13" fill-opacity="0.450980" cx="9" cy="29" rx="3" ry="3" />
<ellipse fill="#e7e4dc" fill-opacity="0.486275" cx="92" cy="25" rx="17" ry="8" />
<ellipse fill="#3f4449" fill-opacity="0.541176" cx="141" cy="77" rx="18" ry="21" />
<ellipse fill="#2a2d2c" fill-opacity="0.513725" cx="39" cy="64" rx="6" ry="23" />
<ellipse fill="#0e120d" fill-opacity="0.321569" cx="247" cy="124" rx="35" ry="11" />
<ellipse fill="#e3e8e4" fill-opacity="0.513725" cx="65" cy="17" rx="5" ry="15" />
<ellipse fill="#191819" fill-opacity="0.623529" cx="126" cy="108" rx="2" ry="14" />
<ellipse fill="#e6e7df" fill-opacity="0.690196" cx="36" cy="27" rx="24" ry="6" />
<ellipse fill="#99a9ac" fill-opacity="0.450980" cx="213" cy="36" rx="3" ry="2" />
<ellipse fill="#dfdcd4" fill-opacity="0.478431" cx="106" cy="14" rx="3" ry="24" />
<ellipse fill="#43413b" fill-opacity="0.498039" cx="68" cy="36" rx="5" ry="5" />
<ellipse fill="#383c3d" fill-opacity="0.647059" cx="48" cy="73" rx="20" ry="5" />
<ellipse fill="#2b2a25" fill-opacity="0.482353" cx="225" cy="28" rx="16" ry="5" />
<ellipse fill="#fffff3" fill-opacity="0.498039" cx="62" cy="39" rx="2" ry="4" />
<ellipse fill="#222622" fill-opacity="0.509804" cx="175" cy="31" rx="4" ry="5" />
<ellipse fill="#161514" fill-opacity="0.423529" cx="36" cy="61" rx="21" ry="5" />
<ellipse fill="#8195a0" fill-opacity="0.529412" cx="205" cy="20" rx="3" ry="19" />
<ellipse fill="#1c1d1b" fill-opacity="0.439216" cx="165" cy="55" rx="5" ry="26" />
<ellipse fill="#505254" fill-opacity="0.600000" cx="55" cy="84" rx="6" ry="7" />
<ellipse fill="#676360" fill-opacity="0.423529" cx="102" cy="97" rx="5" ry="7" />
<ellipse fill="#0c0d06" fill-opacity="0.501961" cx="105" cy="42" rx="3" ry="4" />
</g>
</svg>