<svg xmlns="http://www.w3.org/2000/svg" version="1.1" width="256" height="128">
<rect x="0" y="0" width="256" height="128" fill="#f0f0f0" />
<g transform="scale(1.000000) translate(0.5 0.5)">
<ellipse fill="#3f4440" fill-opacity="0.776471" cx="140" cy="64" rx="164" ry="127" />
<ellipse fill="#85bef5" fill-opacity="0.658824" cx="118" cy="20" rx="110" ry="29" />
<ellipse fill="#281a05" fill-opacity="0.745098" cx="255" cy="82" rx="143" ry="34" />
<ellipse fill="#ffc06f" fill-opacity="0.411765" cx="124" cy="113" rx="75" ry="16" />
<ellipse fill="#4b2f03" fill-opacity="0.627451" cx="11" cy="88" rx="25" ry="51" />
<ellipse fill="#1f1b0e" fill-opacity="0.772549" cx="237" cy="94" rx="38" ry="46" />
<ellipse fill="#ffd08e" fill-opacity="0.407843" cx="50" cy="103" rx="39" ry="9" />
<ellipse fill="#00438f" fill-opacity="0.427451" cx="233" cy="0" rx="56" ry="27" />
<ellipse fill="#ae763f" fill-opacity="0.509804" cx="96" cy="64" rx="98" ry="13" />
<ellipse fill="#271300" fill-opacity="0.584314" cx="33" cy="121" rx="48" ry="8" />
<ellipse fill="#3d310b" fill-opacity="0.513725" cx="131" cy="94" rx="63" ry="10" />
<ellipse fill="#376698" fill-opacity="0.584314" cx="7" cy="0" rx="32" ry="44" />
<ellipse fill="#99b5cc" fill-opacity="0.470588" cx="133" cy="31" rx="114" ry="19" />
<ellipse fill="#000300" fill-opacity="0.615686" cx="24" cy="46" rx="21" ry="6" />
<ellipse fill="#7d5936" fill-opacity="0.517647" cx="204" cy="117" rx="28" ry="14" />
<ellipse fill="#7f603a" fill-opacity="0.733333" cx="66" cy="82" rx="32" ry="13" />
<ellipse fill="#f2c9a2" fill-opacity="0.360784" cx="114" cy="111" rx="39" ry="10" />
<ellipse fill="#003d79" fill-opacity="0.243137" cx="242" cy="26" rx="33" ry="33" />
<ellipse fill="#ffcb87" fill-opacity="0.600000" cx="101" cy="72" rx="10" ry="8" />
<ellipse fill="#14486c" fill-opacity="0.470588" cx="152" cy="50" rx="102" ry="3" />
<ellipse fill="#7c4407" fill-opacity="0.521569" cx="98" cy="34" rx="2" ry="22" />
<ellipse fill="#2c1200" fill-opacity="0.411765" cx="62" cy="63" rx="8" ry="17" />
<ellipse fill="#cfa774" fill-opacity="0.705882" cx="74" cy="65" rx="4" ry="23" />
<ellipse fill="#fcf5f6" fill-opacity="0.172549" cx="121" cy="30" rx="55" ry="13" />
<ellipse fill="#2389e1" fill-opacity="0.372549" cx="140" cy="0" rx="81" ry="9" />
<ellipse fill="#c1a06b" fill-opacity="0.403922" cx="44" cy="60" rx="21" ry="11" />
<ellipse fill="#231f00" fill-opacity="0.580392" cx="6" cy="81" rx="21" ry="10" />
<ellipse fill="#654d36" fill-opacity="0.768627" cx="174" cy="70" rx="14" ry="10" />
<ellipse fill="#0f1000" fill-opacity="0.584314" cx="210" cy="85" rx="30" ry="15" />
<ellipse fill="#e0ac77" fill-opacity="0.537255" cx="114" cy="65" rx="14" ry="7" />
<ellipse fill="#74aee2" fill-opacity="0.364706" cx="200" cy="44" rx="39" ry="5" />
<ellipse fill="#694d2d" fill-opacity="0.580392" cx="44" cy="63" rx="79" ry="3" />
<ellipse fill="#1c1615" fill-opacity="0.364706" cx="126" cy="85" rx="35" ry="12" />
<ellipse fill="#f4cd9e" fill-opacity="0.435294" cx="68" cy="81" rx="18" ry="3" />
<ellipse fill="#3c361c" fill-opacity="0.419608" cx="179" cy="103" rx="65" ry="3" />
<ellipse fill="#dcab74" fill-opacity="0.509804" cx="105" cy="77" rx="6" ry="11" />
<ellipse fill="#ac8b60" fill-opacity="0.392157" cx="27" cy="97" rx="23" ry="10" />
<ellipse fill="#579fd0" fill-opacity="0.474510" cx="187" cy="17" rx="28" ry="11" />
<ellipse fill="#ffe3ad" fill-opacity="0.454902" cx="82" cy="88" rx="7" ry="4" />
<ellipse fill="#08070a" fill-opacity="0.352941" cx="59" cy="89" rx="19" ry="5" />
<ellipse fill="#000000" fill-opacity="0.180392" cx="255" cy="36" rx="14" ry="127" />
<ellipse fill="#725844" fill-opacity="0.541176" cx="142" cy="64" rx="13" ry="18" />
<ellipse fill="#ffe1b3" fill-opacity="0.517647" cx="90" cy="53" rx="4" ry="4" />
<ellipse fill="#063977" fill-opacity="0.372549" cx="5" cy="0" rx="22" ry="19" />
<ellipse fill="#ecefdf" fill-opacity="0.580392" cx="45" cy="53" rx="9" ry="3" />
<ellipse fill="#9c7a54" fill-opacity="0.517647" cx="178" cy="114" rx="5" ry="29" />
<ellipse fill="#c5aa85" fill-opacity="0.521569" cx="71" cy="105" rx="31" ry="8" />
<ellipse fill="#563a25" fill-opacity="0.611765" cx="85" cy="72" rx="6" ry="15" />
<ellipse fill="#fab761" fill-opacity="0.552941" cx="41" cy="77" rx="5" ry="6" />
<ellipse fill="#76899d" fill-opacity="0.462745" cx="12" cy="29" rx="30" ry="10" />
<ellipse fill="#3e2b1a" fill-opacity="0.654902" cx="234" cy="115" rx="14" ry="23" />
<ellipse fill="#071000" fill-opacity="0.607843" cx="9" cy="48" rx="22" ry="5" />
<ellipse fill="#6d6356" fill-opacity="0.407843" cx="66" cy="44" rx="11" ry="5" />
<ellipse fill="#826644" fill-opacity="0.713725" cx="143" cy="99" rx="7" ry="6" />
<ellipse fill="#206ca9" fill-opacity="0.407843" cx="165" cy="53" rx="14" ry="5" />
<ellipse fill="#c2a181" fill-opacity="0.321569" cx="155" cy="113" rx="37" ry="9" />
<ellipse fill="#e3c292" fill-opacity="0.831373" cx="100" cy="33" rx="1" ry="21" />
<ellipse fill="#271f0c" fill-opacity="0.462745" cx="8" cy="121" rx="43" ry="11" />
<ellipse fill="#b17e47" fill-opacity="0.443137" cx="80" cy="127" rx="21" ry="6" />
<ellipse fill="#457db2" fill-opacity="0.360784" cx="38" cy="0" rx="22" ry="22" />
<ellipse fill="#130b02" fill-opacity="0.580392" cx="61" cy="51" rx="7" ry="3" />
<ellipse fill="#94a3b2" fill-opacity="0.470588" cx="208" cy="33" rx="23" ry="7" />
<ellipse fill="#e9ba80" fill-opacity="0.741176" cx="95" cy="75" rx="4" ry="6" />
<ellipse fill="#7f6345" fill-opacity="0.545098" cx="204" cy="114" rx="10" ry="8" />
<ellipse fill="#514424" fill-opacity="0.607843" cx="171" cy="102" rx="31" ry="4" />
<ellipse fill="#141200" fill-opacity="0.368627" cx="39" cy="61" rx="5" ry="5" />
<ellipse fill="#176ba6" fill-opacity="0.537255" cx="130" cy="51" rx="8" ry="4" />
<ellipse fill="#be8d68" fill-opacity="0.443137" cx="142" cy="70" rx="18" ry="3" />
<ellipse fill="#110804" fill-opacity="0.501961" cx="57" cy="74" rx="5" ry="4" />
<ellipse fill="#141413" fill-opacity="0.450980" cx="125" cy="84" rx="43" ry="2" />
<ellipse fill="#000900" fill-opacity="0.466667" cx="26" cy="42" rx="12" ry="3" />
<ellipse fill="#d29c66" fill-opacity="0.486275" cx="174" cy="77" rx="5" ry="3" />
<ellipse fill="#ad835a" fill-opacity="0.525490" cx="85" cy="65" rx="43" ry="2" />
<ellipse fill="#946f4b" fill-opacity="0.854902" cx="142" cy="55" rx="4" ry="11" />
<ellipse fill="#361d0d" fill-opacity="0.458824" cx="134" cy="59" rx="8" ry="4" />
<ellipse fill="#020c10" fill-opacity="0.396078" cx="97" cy="41" rx="1" ry="27" />
<ellipse fill="#a46939" fill-opacity="0.549020" cx="11" cy="75" rx="4" ry="5" />
<ellipse fill="#6d4a33" fill-opacity="0.725490" cx="110" cy="47" rx="1" ry="12" />
<ellipse fill="#79b9f3" fill-opacity="0.223529" cx="111" cy="13" rx="46" ry="10" />
<ellipse fill="#110f12" fill-opacity="0.403922" cx="139" cy="75" rx="5" ry="7" />
<ellipse fill="#060502" fill-opacity="0.525490" cx="253" cy="74" rx="25" ry="13" />
<ellipse fill="#1f240a" fill-opacity="0.486275" cx="208" cy="67" rx="18" ry="18" />
<ellipse fill="#030000" fill-opacity="0.454902" cx="47" cy="73" rx="2" ry="6" />
<ellipse fill="#221d14" fill-opacity="0.768627" cx="120" cy="85" rx="8" ry="13" />
<ellipse fill="#5d758c" fill-opacity="0.552941" cx="6" cy="34" rx="13" ry="10" />
<ellipse fill="#51402d" fill-opacity="0.670588" cx="180" cy="71" rx="23" ry="4" />
<ellipse fill="#d2a266" fill-opacity="0.505882" cx="51" cy="62" rx="5" ry="9" />
<ellipse fill="#a17351" fill-opacity="0.415686" cx="172" cy="57" rx="31" ry="2" />
<ellipse fill="#4f6a82" fill-opacity="0.415686" cx="240" cy="31" rx="13" ry="17" />
<ellipse fill="#090812" fill-opacity="0.411765" cx="161" cy="88" rx="15" ry="11" />
<ellipse fill="#0b0402" fill-opacity="0.486275" cx="62" cy="70" rx="5" ry="5" />
<ellipse fill="#414f00" fill-opacity="0.321569" cx="90" cy="96" rx="28" ry="4" />
<ellipse fill="#1e0f05" fill-opacity="0.529412" cx="14" cy="66" rx="7" ry="2" />
<ellipse fill="#0f1405" fill-opacity="0.666667" cx="19" cy="49" rx="2" ry="12" />
<ellipse fill="#f4d2ab" fill-opacity="0.431373" cx="79" cy="84" rx="5" ry="4" />
<ellipse fill="#796038" fill-opacity="0.784314" cx="21" cy="55" rx="14" ry="2" />
<ellipse fill="#ab9267" fill-opacity="0.466667" cx="35" cy="94" rx="11" ry="7" />
<ellipse fill="#1b0e08" fill-opacity="0.529412" cx="82" cy="77" rx="5" ry="3" />
<ellipse fill="#3f3b07" fill-opacity="0.666667" cx="36" cy="85" rx="7" ry="3" />
<ellipse fill="#ffcd84" fill-opacity="0.541176" cx="78" cy="62" rx="2" ry="6" />
</g>
</svg>