<svg xmlns="http://www.w3.org/2000/svg" version="1.1" width="256" height="128">
<rect x="0" y="0" width="256" height="128" fill="#f0f0f0" />
<g transform="scale(1.000000) translate(0.5 0.5)">
<ellipse fill="#231e0b" fill-opacity="0.725490" cx="209" cy="16" rx="144" ry="68" />
<ellipse fill="#a48148" fill-opacity="0.439216" cx="58" cy="115" rx="201" ry="115" />
<ellipse fill="#19221e" fill-opacity="0.682353" cx="210" cy="24" rx="81" ry="45" />
<ellipse fill="#fff0ca" fill-opacity="0.513725" cx="77" cy="49" rx="57" ry="22" />
<ellipse fill="#decbaf" fill-opacity="0.800000" cx="171" cy="100" rx="58" ry="31" />
<ellipse fill="#a89986" fill-opacity="0.894118" cx="247" cy="96" rx="51" ry="16" />
<ellipse fill="#abafae" fill-opacity="0.568627" cx="205" cy="8" rx="8" ry="20" />
<ellipse fill="#ac997b" fill-opacity="0.772549" cx="37" cy="4" rx="70" ry="16" />
<ellipse fill="#a68749" fill-opacity="0.447059" cx="4" cy="103" rx="35" ry="25" />
<ellipse fill="#ffffe8" fill-opacity="0.564706" cx="64" cy="0" rx="43" ry="5" />
<ellipse fill="#0b0f0d" fill-opacity="0.556863" cx="246" cy="43" rx="29" ry="35" />
<ellipse fill="#434345" fill-opacity="0.509804" cx="81" cy="15" rx="38" ry="9" />
<ellipse fill="#fffbd8" fill-opacity="0.545098" cx="47" cy="76" rx="33" ry="12" />
<ellipse fill="#998982" fill-opacity="0.419608" cx="142" cy="66" rx="40" ry="19" />
<ellipse fill="#3e1e00" fill-opacity="0.180392" cx="102" cy="85" rx="9" ry="33" />
<ellipse fill="#1e2a1f" fill-opacity="0.384314" cx="137" cy="14" rx="35" ry="25" />
<ellipse fill="#fde8c4" fill-opacity="0.643137" cx="162" cy="110" rx="30" ry="18" />
<ellipse fill="#ebd2a5" fill-opacity="0.807843" cx="56" cy="33" rx="45" ry="8" />
<ellipse fill="#efcba0" fill-opacity="0.603922" cx="134" cy="51" rx="12" ry="8" />
<ellipse fill="#ffe7bf" fill-opacity="0.545098" cx="119" cy="89" rx="19" ry="14" />
<ellipse fill="#421100" fill-opacity="0.160784" cx="247" cy="127" rx="18" ry="27" />
<ellipse fill="#09080c" fill-opacity="0.290196" cx="122" cy="63" rx="17" ry="8" />
<ellipse fill="#5c6144" fill-opacity="0.584314" cx="190" cy="6" rx="17" ry="20" />
<ellipse fill="#bcb0a2" fill-opacity="0.521569" cx="203" cy="83" rx="38" ry="9" />
<ellipse fill="#9a8667" fill-opacity="0.556863" cx="113" cy="124" rx="10" ry="20" />
<ellipse fill="#eccf9e" fill-opacity="0.501961" cx="58" cy="112" rx="39" ry="26" />
<ellipse fill="#2c1701" fill-opacity="0.611765" cx="0" cy="44" rx="10" ry="3" />
<ellipse fill="#f4feff" fill-opacity="0.596078" cx="208" cy="16" rx="3" ry="8" />
<ellipse fill="#ebd19c" fill-opacity="0.572549" cx="29" cy="37" rx="21" ry="27" />
<ellipse fill="#f0e7d3" fill-opacity="0.537255" cx="84" cy="64" rx="21" ry="10" />
<ellipse fill="#4d4642" fill-opacity="0.470588" cx="139" cy="77" rx="3" ry="15" />
<ellipse fill="#392f15" fill-opacity="0.376471" cx="96" cy="87" rx="3" ry="15" />
<ellipse fill="#514e0f" fill-opacity="0.454902" cx="23" cy="91" rx="12" ry="5" />
<ellipse fill="#f2d3ae" fill-opacity="0.721569" cx="107" cy="41" rx="16" ry="7" />
<ellipse fill="#68564e" fill-opacity="0.537255" cx="106" cy="55" rx="13" ry="5" />
<ellipse fill="#1a1918" fill-opacity="0.364706" cx="39" cy="9" rx="11" ry="3" />
<ellipse fill="#252b1c" fill-opacity="0.486275" cx="187" cy="25" rx="19" ry="16" />
<ellipse fill="#333030" fill-opacity="0.325490" cx="249" cy="61" rx="25" ry="27" />
<ellipse fill="#d7b074" fill-opacity="0.576471" cx="0" cy="18" rx="24" ry="21" />
<ellipse fill="#ffedc2" fill-opacity="0.482353" cx="124" cy="17" rx="5" ry="4" />
<ellipse fill="#faefd1" fill-opacity="0.525490" cx="62" cy="84" rx="21" ry="13" />
<ellipse fill="#f1d6b1" fill-opacity="0.396078" cx="205" cy="125" rx="35" ry="24" />
<ellipse fill="#957764" fill-opacity="0.505882" cx="85" cy="46" rx="13" ry="5" />
<ellipse fill="#f4e0c1" fill-opacity="0.521569" cx="175" cy="75" rx="16" ry="5" />
<ellipse fill="#64615f" fill-opacity="0.486275" cx="248" cy="104" rx="27" ry="5" />
<ellipse fill="#a4b579" fill-opacity="0.443137" cx="183" cy="0" rx="5" ry="13" />
<ellipse fill="#fbe2ba" fill-opacity="0.270588" cx="220" cy="88" rx="26" ry="7" />
<ellipse fill="#ae9461" fill-opacity="0.662745" cx="39" cy="96" rx="7" ry="6" />
<ellipse fill="#664c2e" fill-opacity="0.592157" cx="84" cy="73" rx="4" ry="2" />
<ellipse fill="#4a4d58" fill-opacity="0.407843" cx="208" cy="68" rx="29" ry="7" />
<ellipse fill="#7a6b63" fill-opacity="0.552941" cx="137" cy="38" rx="17" ry="3" />
<ellipse fill="#867e74" fill-opacity="0.427451" cx="88" cy="4" rx="8" ry="25" />
<ellipse fill="#e2d1a2" fill-opacity="0.721569" cx="3" cy="58" rx="51" ry="11" />
<ellipse fill="#ffecc3" fill-opacity="0.533333" cx="106" cy="89" rx="10" ry="6" />
<ellipse fill="#00050a" fill-opacity="0.247059" cx="108" cy="127" rx="7" ry="6" />
<ellipse fill="#dfc19a" fill-opacity="0.533333" cx="116" cy="46" rx="24" ry="8" />
<ellipse fill="#20231b" fill-opacity="0.639216" cx="151" cy="27" rx="29" ry="9" />
<ellipse fill="#fffecc" fill-opacity="0.388235" cx="69" cy="3" rx="9" ry="6" />
<ellipse fill="#8a7e77" fill-opacity="0.243137" cx="182" cy="90" rx="20" ry="6" />
<ellipse fill="#968e84" fill-opacity="0.596078" cx="159" cy="80" rx="13" ry="4" />
<ellipse fill="#dfc9a3" fill-opacity="0.505882" cx="20" cy="99" rx="19" ry="5" />
<ellipse fill="#39292a" fill-opacity="0.478431" cx="95" cy="52" rx="5" ry="3" />
<ellipse fill="#403213" fill-opacity="0.254902" cx="100" cy="104" rx="6" ry="9" />
<ellipse fill="#4f4e4b" fill-opacity="0.509804" cx="100" cy="17" rx="10" ry="14" />
<ellipse fill="#3c3d3f" fill-opacity="0.580392" cx="182" cy="50" rx="32" ry="6" />
<ellipse fill="#e9d9b8" fill-opacity="0.996078" cx="73" cy="83" rx="7" ry="23" />
<ellipse fill="#fef5d6" fill-opacity="0.549020" cx="46" cy="44" rx="21" ry="5" />
<ellipse fill="#51562b" fill-opacity="0.556863" cx="166" cy="0" rx="13" ry="12" />
<ellipse fill="#644d2d" fill-opacity="0.541176" cx="13" cy="87" rx="2" ry="8" />
<ellipse fill="#061009" fill-opacity="0.698039" cx="254" cy="7" rx="7" ry="25" />
<ellipse fill="#0f1611" fill-opacity="0.501961" cx="231" cy="26" rx="10" ry="37" />
<ellipse fill="#444344" fill-opacity="0.439216" cx="111" cy="23" rx="12" ry="11" />
<ellipse fill="#bca892" fill-opacity="0.725490" cx="116" cy="96" rx="15" ry="2" />
<ellipse fill="#261b0d" fill-opacity="0.368627" cx="29" cy="6" rx="8" ry="3" />
<ellipse fill="#c9b390" fill-opacity="0.552941" cx="125" cy="119" rx="16" ry="9" />
<ellipse fill="#eee3cb" fill-opacity="0.611765" cx="77" cy="65" rx="31" ry="5" />
<ellipse fill="#010907" fill-opacity="0.513725" cx="212" cy="42" rx="6" ry="8" />
<ellipse fill="#705c49" fill-opacity="0.396078" cx="73" cy="69" rx="7" ry="2" />
<ellipse fill="#d7cbb9" fill-opacity="0.266667" cx="164" cy="73" rx="44" ry="4" />
<ellipse fill="#ffecb5" fill-opacity="0.517647" cx="97" cy="122" rx="5" ry="10" />
<ellipse fill="#32353e" fill-opacity="0.705882" cx="204" cy="18" rx="2" ry="49" />
<ellipse fill="#f3dbb9" fill-opacity="0.423529" cx="153" cy="101" rx="35" ry="17" />
<ellipse fill="#766548" fill-opacity="0.509804" cx="103" cy="76" rx="5" ry="5" />
<ellipse fill="#706661" fill-opacity="0.454902" cx="91" cy="25" rx="21" ry="4" />
<ellipse fill="#887b71" fill-opacity="0.572549" cx="141" cy="81" rx="2" ry="17" />
<ellipse fill="#a4d9ff" fill-opacity="0.482353" cx="104" cy="1" rx="5" ry="4" />
<ellipse fill="#422813" fill-opacity="0.513725" cx="68" cy="66" rx="2" ry="2" />
<ellipse fill="#ccaa7b" fill-opacity="0.372549" cx="36" cy="120" rx="29" ry="8" />
<ellipse fill="#0d0c17" fill-opacity="0.450980" cx="0" cy="14" rx="7" ry="2" />
<ellipse fill="#cfb493" fill-opacity="0.549020" cx="250" cy="96" rx="16" ry="6" />
<ellipse fill="#dcbc94" fill-opacity="0.482353" cx="132" cy="53" rx="18" ry="5" />
<ellipse fill="#fffee6" fill-opacity="0.415686" cx="74" cy="57" rx="11" ry="9" />
<ellipse fill="#ffeebd" fill-opacity="0.560784" cx="44" cy="0" rx="7" ry="8" />
<ellipse fill="#272c1b" fill-opacity="0.568627" cx="136" cy="14" rx="13" ry="3" />
<ellipse fill="#6c6900" fill-opacity="0.435294" cx="11" cy="106" rx="4" ry="4" />
<ellipse fill="#b8b9bb" fill-opacity="0.301961" cx="203" cy="0" rx="7" ry="12" />
<ellipse fill="#77787a" fill-opacity="0.529412" cx="243" cy="0" rx="3" ry="9" />
<ellipse fill="#3f4448" fill-opacity="0.372549" cx="198" cy="66" rx="88" ry="2" />
<ellipse fill="#8d857e" fill-opacity="0.513725" cx="176" cy="84" rx="9" ry="4" />
<ellipse fill="#ac947a" fill-opacity="0.592157" cx="160" cy="62" rx="15" ry="3" />
</g>
</svg>