<svg xmlns="http://www.w3.org/2000/svg" version="1.1" width="256" height="136">
<rect x="0" y="0" width="256" height="136" fill="#f0f0f0" />
<g transform="scale(1.000000) translate(0.5 0.5)">
<ellipse fill="#112431" fill-opacity="0.549020" cx="124" cy="65" rx="167" ry="118" />
<ellipse fill="#c3a178" fill-opacity="0.725490" cx="136" cy="66" rx="70" ry="30" />
<ellipse fill="#643200" fill-opacity="0.419608" cx="105" cy="36" rx="83" ry="22" />
<ellipse fill="#93caf6" fill-opacity="0.486275" cx="115" cy="135" rx="74" ry="36" />
<ellipse fill="#067dff" fill-opacity="0.384314" cx="232" cy="16" rx="55" ry="34" />
<ellipse fill="#2e6ca7" fill-opacity="0.847059" cx="0" cy="0" rx="34" ry="89" />
<ellipse fill="#5c3103" fill-opacity="0.505882" cx="213" cy="68" rx="32" ry="15" />
<ellipse fill="#30200d" fill-opacity="0.721569" cx="209" cy="116" rx="16" ry="12" />
<ellipse fill="#f4eddb" fill-opacity="0.462745" cx="151" cy="43" rx="24" ry="11" />
<ellipse fill="#9f5700" fill-opacity="0.305882" cx="35" cy="97" rx="25" ry="52" />
<ellipse fill="#ffdeaf" fill-opacity="0.494118" cx="192" cy="89" rx="36" ry="11" />
<ellipse fill="#3a88de" fill-opacity="0.568627" cx="57" cy="0" rx="128" ry="16" />
<ellipse fill="#59a6ec" fill-opacity="0.631373" cx="82" cy="119" rx="26" ry="31" />
<ellipse fill="#0e7df5" fill-opacity="0.407843" cx="249" cy="98" rx="11" ry="57" />
<ellipse fill="#fef2e1" fill-opacity="0.388235" cx="126" cy="75" rx="54" ry="10" />
<ellipse fill="#5b3a18" fill-opacity="0.635294" cx="199" cy="47" rx="14" ry="10" />
<ellipse fill="#2d271e" fill-opacity="0.988235" cx="200" cy="135" rx="8" ry="20" />
<ellipse fill="#d8c4ab" fill-opacity="0.509804" cx="64" cy="64" rx="27" ry="13" />
<ellipse fill="#4a2705" fill-opacity="0.392157" cx="130" cy="96" rx="32" ry="7" />
<ellipse fill="#ffb462" fill-opacity="0.462745" cx="119" cy="123" rx="9" ry="32" />
<ellipse fill="#d2b999" fill-opacity="0.678431" cx="45" cy="135" rx="8" ry="46" />
<ellipse fill="#d4b28b" fill-opacity="0.733333" cx="177" cy="135" rx="11" ry="33" />
<ellipse fill="#4f2b05" fill-opacity="0.431373" cx="81" cy="85" rx="29" ry="5" />
<ellipse fill="#3f280b" fill-opacity="0.537255" cx="60" cy="28" rx="29" ry="11" />
<ellipse fill="#312207" fill-opacity="0.533333" cx="32" cy="54" rx="8" ry="19" />
<ellipse fill="#4a2b06" fill-opacity="0.529412" cx="134" cy="18" rx="29" ry="7" />
<ellipse fill="#3975af" fill-opacity="0.843137" cx="4" cy="76" rx="7" ry="135" />
<ellipse fill="#755937" fill-opacity="0.733333" cx="123" cy="55" rx="25" ry="9" />
<ellipse fill="#fef6e5" fill-opacity="0.494118" cx="171" cy="54" rx="14" ry="7" />
<ellipse fill="#2f1f03" fill-opacity="0.474510" cx="14" cy="94" rx="6" ry="18" />
<ellipse fill="#60a6e3" fill-opacity="0.686275" cx="142" cy="121" rx="16" ry="22" />
<ellipse fill="#5c3d17" fill-opacity="0.396078" cx="167" cy="117" rx="5" ry="25" />
<ellipse fill="#598ec8" fill-opacity="0.894118" cx="185" cy="0" rx="31" ry="25" />
<ellipse fill="#417ab3" fill-opacity="0.870588" cx="241" cy="31" rx="26" ry="31" />
<ellipse fill="#61411f" fill-opacity="0.556863" cx="224" cy="73" rx="20" ry="14" />
<ellipse fill="#744e1f" fill-opacity="0.541176" cx="182" cy="40" rx="17" ry="7" />
<ellipse fill="#a3692a" fill-opacity="0.321569" cx="194" cy="102" rx="21" ry="12" />
<ellipse fill="#cfb493" fill-opacity="0.568627" cx="219" cy="95" rx="15" ry="11" />
<ellipse fill="#2c659d" fill-opacity="0.666667" cx="15" cy="0" rx="31" ry="30" />
<ellipse fill="#3b2104" fill-opacity="0.505882" cx="220" cy="112" rx="19" ry="6" />
<ellipse fill="#4f3c25" fill-opacity="0.294118" cx="160" cy="65" rx="36" ry="6" />
<ellipse fill="#f6e9d3" fill-opacity="0.631373" cx="99" cy="65" rx="16" ry="4" />
<ellipse fill="#ffffec" fill-opacity="0.360784" cx="141" cy="41" rx="20" ry="6" />
<ellipse fill="#568cc7" fill-opacity="0.749020" cx="216" cy="30" rx="20" ry="15" />
<ellipse fill="#241300" fill-opacity="0.552941" cx="34" cy="103" rx="5" ry="10" />
<ellipse fill="#64b9ff" fill-opacity="0.505882" cx="219" cy="130" rx="6" ry="8" />
<ellipse fill="#5b4226" fill-opacity="0.611765" cx="105" cy="89" rx="20" ry="3" />
<ellipse fill="#fcfef8" fill-opacity="0.501961" cx="163" cy="77" rx="18" ry="5" />
<ellipse fill="#5ea0df" fill-opacity="0.643137" cx="67" cy="99" rx="9" ry="14" />
<ellipse fill="#ffffff" fill-opacity="0.168627" cx="188" cy="87" rx="19" ry="13" />
<ellipse fill="#7a5e3a" fill-opacity="0.713725" cx="164" cy="31" rx="14" ry="8" />
<ellipse fill="#bba283" fill-opacity="0.521569" cx="40" cy="132" rx="17" ry="18" />
<ellipse fill="#bba181" fill-opacity="0.454902" cx="120" cy="37" rx="26" ry="4" />
<ellipse fill="#ada59a" fill-opacity="0.666667" cx="191" cy="115" rx="7" ry="6" />
<ellipse fill="#674822" fill-opacity="0.509804" cx="82" cy="32" rx="22" ry="16" />
<ellipse fill="#cd8232" fill-opacity="0.317647" cx="233" cy="124" rx="5" ry="30" />
<ellipse fill="#275c93" fill-opacity="0.556863" cx="251" cy="0" rx="15" ry="33" />
<ellipse fill="#4c3111" fill-opacity="0.631373" cx="197" cy="105" rx="10" ry="4" />
<ellipse fill="#6c3600" fill-opacity="0.262745" cx="67" cy="75" rx="10" ry="12" />
<ellipse fill="#ffffff" fill-opacity="0.470588" cx="188" cy="59" rx="9" ry="2" />
<ellipse fill="#6297d3" fill-opacity="0.635294" cx="115" cy="5" rx="45" ry="8" />
<ellipse fill="#47371f" fill-opacity="0.725490" cx="27" cy="61" rx="7" ry="10" />
<ellipse fill="#5e5452" fill-opacity="0.529412" cx="127" cy="110" rx="2" ry="25" />
<ellipse fill="#5a98d3" fill-opacity="0.427451" cx="7" cy="128" rx="10" ry="20" />
<ellipse fill="#ffeecb" fill-opacity="0.329412" cx="55" cy="54" rx="9" ry="7" />
<ellipse fill="#eee6d6" fill-opacity="0.501961" cx="138" cy="72" rx="30" ry="3" />
<ellipse fill="#1c180b" fill-opacity="0.623529" cx="28" cy="108" rx="3" ry="5" />
<ellipse fill="#c6a988" fill-opacity="0.847059" cx="130" cy="83" rx="30" ry="4" />
<ellipse fill="#5fa1e0" fill-opacity="0.666667" cx="132" cy="104" rx="5" ry="7" />
<ellipse fill="#7d6b51" fill-opacity="0.560784" cx="78" cy="50" rx="25" ry="6" />
<ellipse fill="#4c93e1" fill-opacity="0.513725" cx="240" cy="88" rx="7" ry="9" />
<ellipse fill="#407eb8" fill-opacity="0.749020" cx="1" cy="60" rx="17" ry="26" />
<ellipse fill="#c6d6d6" fill-opacity="0.188235" cx="36" cy="71" rx="5" ry="19" />
<ellipse fill="#664116" fill-opacity="0.635294" cx="157" cy="99" rx="7" ry="4" />
<ellipse fill="#2d2c29" fill-opacity="0.423529" cx="109" cy="95" rx="8" ry="8" />
<ellipse fill="#568ecc" fill-opacity="0.517647" cx="58" cy="12" rx="33" ry="6" />
<ellipse fill="#8f7e6b" fill-opacity="0.647059" cx="208" cy="96" rx="12" ry="5" />
<ellipse fill="#594228" fill-opacity="0.541176" cx="110" cy="22" rx="60" ry="7" />
<ellipse fill="#61a4e0" fill-opacity="0.501961" cx="152" cy="114" rx="13" ry="14" />
<ellipse fill="#604425" fill-opacity="0.701961" cx="210" cy="53" rx="10" ry="5" />
<ellipse fill="#65a2d9" fill-opacity="0.650980" cx="95" cy="108" rx="10" ry="17" />
<ellipse fill="#593917" fill-opacity="0.384314" cx="123" cy="50" rx="20" ry="5" />
<ellipse fill="#fcd6aa" fill-opacity="0.329412" cx="118" cy="127" rx="9" ry="18" />
<ellipse fill="#483a1e" fill-opacity="0.545098" cx="39" cy="30" rx="6" ry="13" />
<ellipse fill="#492804" fill-opacity="0.462745" cx="138" cy="94" rx="12" ry="3" />
<ellipse fill="#a5a9a0" fill-opacity="0.513725" cx="29" cy="91" rx="4" ry="9" />
<ellipse fill="#a18f78" fill-opacity="0.717647" cx="99" cy="58" rx="12" ry="4" />
<ellipse fill="#3e2f13" fill-opacity="0.400000" cx="23" cy="77" rx="10" ry="5" />
<ellipse fill="#282013" fill-opacity="0.878431" cx="198" cy="134" rx="9" ry="6" />
<ellipse fill="#dccfbb" fill-opacity="0.600000" cx="165" cy="50" rx="9" ry="9" />
<ellipse fill="#311e00" fill-opacity="0.380392" cx="37" cy="102" rx="3" ry="15" />
<ellipse fill="#aa8b6d" fill-opacity="0.592157" cx="53" cy="118" rx="5" ry="21" />
<ellipse fill="#69abed" fill-opacity="0.603922" cx="214" cy="135" rx="6" ry="9" />
<ellipse fill="#f1dec3" fill-opacity="0.533333" cx="223" cy="92" rx="10" ry="4" />
<ellipse fill="#fff4df" fill-opacity="0.325490" cx="75" cy="61" rx="16" ry="4" />
<ellipse fill="#121515" fill-opacity="0.505882" cx="204" cy="119" rx="11" ry="5" />
<ellipse fill="#3f7cb5" fill-opacity="0.588235" cx="23" cy="24" rx="10" ry="18" />
<ellipse fill="#c6ab8a" fill-opacity="0.505882" cx="99" cy="77" rx="31" ry="5" />
<ellipse fill="#280f00" fill-opacity="0.466667" cx="240" cy="74" rx="7" ry="3" />
<ellipse fill="#7a6243" fill-opacity="0.556863" cx="191" cy="69" rx="18" ry="7" />
</g>
</svg>