<svg xmlns="http://www.w3.org/2000/svg" version="1.1" width="256" height="143">
<rect x="0" y="0" width="256" height="143" fill="#f0f0f0" />
<g transform="scale(1.000000) translate(0.5 0.5)">
<ellipse fill="#332f02" fill-opacity="0.752941" cx="189" cy="102" rx="255" ry="56" />
<ellipse fill="#aab3b7" fill-opacity="0.784314" cx="87" cy="20" rx="244" ry="36" />
<ellipse fill="#4e5923" fill-opacity="0.784314" cx="245" cy="61" rx="36" ry="22" />
<ellipse fill="#c8a68b" fill-opacity="0.607843" cx="142" cy="122" rx="18" ry="14" />
<ellipse fill="#c6cbcc" fill-opacity="0.839216" cx="27" cy="34" rx="58" ry="28" />
<ellipse fill="#070001" fill-opacity="0.517647" cx="114" cy="123" rx="9" ry="23" />
<ellipse fill="#b7ad86" fill-opacity="0.847059" cx="22" cy="142" rx="41" ry="6" />
<ellipse fill="#555f38" fill-opacity="0.686275" cx="85" cy="69" rx="31" ry="20" />
<ellipse fill="#2e1c18" fill-opacity="0.458824" cx="233" cy="128" rx="32" ry="19" />
<ellipse fill="#4c502c" fill-opacity="0.635294" cx="18" cy="88" rx="68" ry="28" />
<ellipse fill="#8e9daa" fill-opacity="0.462745" cx="229" cy="13" rx="35" ry="30" />
<ellipse fill="#353d15" fill-opacity="0.356863" cx="231" cy="87" rx="128" ry="17" />
<ellipse fill="#d3baa9" fill-opacity="0.596078" cx="219" cy="107" rx="36" ry="2" />
<ellipse fill="#cccdc9" fill-opacity="0.580392" cx="140" cy="46" rx="64" ry="8" />
<ellipse fill="#92b01c" fill-opacity="0.423529" cx="0" cy="70" rx="37" ry="11" />
<ellipse fill="#c1ac91" fill-opacity="0.556863" cx="35" cy="125" rx="10" ry="6" />
<ellipse fill="#5f6c2a" fill-opacity="0.513725" cx="203" cy="73" rx="37" ry="24" />
<ellipse fill="#d3baad" fill-opacity="0.513725" cx="87" cy="99" rx="26" ry="2" />
<ellipse fill="#c7af98" fill-opacity="0.533333" cx="142" cy="113" rx="22" ry="4" />
<ellipse fill="#8c7051" fill-opacity="0.529412" cx="137" cy="140" rx="19" ry="20" />
<ellipse fill="#424432" fill-opacity="0.533333" cx="132" cy="85" rx="19" ry="25" />
<ellipse fill="#000003" fill-opacity="0.650980" cx="75" cy="92" rx="7" ry="5" />
<ellipse fill="#6b7e2a" fill-opacity="0.635294" cx="171" cy="66" rx="38" ry="9" />
<ellipse fill="#433d28" fill-opacity="0.764706" cx="253" cy="99" rx="45" ry="8" />
<ellipse fill="#87705f" fill-opacity="0.576471" cx="167" cy="108" rx="15" ry="11" />
<ellipse fill="#f2cebc" fill-opacity="0.498039" cx="61" cy="130" rx="5" ry="3" />
<ellipse fill="#5e4b2e" fill-opacity="0.450980" cx="199" cy="139" rx="37" ry="32" />
<ellipse fill="#c4cbd2" fill-opacity="0.556863" cx="86" cy="16" rx="72" ry="28" />
<ellipse fill="#dcc5af" fill-opacity="0.454902" cx="211" cy="106" rx="25" ry="2" />
<ellipse fill="#282328" fill-opacity="0.470588" cx="233" cy="77" rx="27" ry="5" />
<ellipse fill="#664c40" fill-opacity="0.541176" cx="55" cy="111" rx="23" ry="16" />
<ellipse fill="#9c7d5d" fill-opacity="0.482353" cx="69" cy="137" rx="6" ry="31" />
<ellipse fill="#3c3730" fill-opacity="0.392157" cx="21" cy="102" rx="19" ry="23" />
<ellipse fill="#b6a28c" fill-opacity="0.760784" cx="240" cy="108" rx="18" ry="2" />
<ellipse fill="#fff7e9" fill-opacity="0.509804" cx="54" cy="142" rx="13" ry="2" />
<ellipse fill="#fbe0e2" fill-opacity="0.423529" cx="2" cy="121" rx="12" ry="2" />
<ellipse fill="#b3977f" fill-opacity="0.333333" cx="196" cy="132" rx="22" ry="3" />
<ellipse fill="#40322c" fill-opacity="0.462745" cx="109" cy="105" rx="45" ry="5" />
<ellipse fill="#88a02f" fill-opacity="0.576471" cx="113" cy="60" rx="12" ry="5" />
<ellipse fill="#3b2308" fill-opacity="0.509804" cx="164" cy="137" rx="6" ry="13" />
<ellipse fill="#4d4d49" fill-opacity="0.501961" cx="84" cy="59" rx="21" ry="9" />
<ellipse fill="#6e692e" fill-opacity="0.627451" cx="24" cy="132" rx="41" ry="4" />
<ellipse fill="#593e2e" fill-opacity="0.474510" cx="89" cy="124" rx="19" ry="13" />
<ellipse fill="#2d1700" fill-opacity="0.478431" cx="58" cy="116" rx="6" ry="8" />
<ellipse fill="#5c5d24" fill-opacity="0.772549" cx="54" cy="136" rx="11" ry="4" />
<ellipse fill="#fff3e0" fill-opacity="0.239216" cx="7" cy="135" rx="10" ry="3" />
<ellipse fill="#5f5f34" fill-opacity="0.772549" cx="180" cy="99" rx="9" ry="11" />
<ellipse fill="#000000" fill-opacity="0.501961" cx="109" cy="139" rx="7" ry="5" />
<ellipse fill="#97943e" fill-opacity="0.560784" cx="193" cy="89" rx="21" ry="2" />
<ellipse fill="#6c7a2d" fill-opacity="0.498039" cx="98" cy="80" rx="13" ry="19" />
<ellipse fill="#8a7256" fill-opacity="0.541176" cx="44" cy="112" rx="8" ry="11" />
<ellipse fill="#302717" fill-opacity="0.254902" cx="224" cy="121" rx="43" ry="12" />
<ellipse fill="#000611" fill-opacity="0.545098" cx="163" cy="80" rx="5" ry="5" />
<ellipse fill="#b6bbbd" fill-opacity="0.478431" cx="190" cy="30" rx="51" ry="20" />
<ellipse fill="#7b853b" fill-opacity="0.717647" cx="29" cy="65" rx="15" ry="5" />
<ellipse fill="#c89c82" fill-opacity="0.482353" cx="95" cy="140" rx="6" ry="4" />
<ellipse fill="#635835" fill-opacity="0.482353" cx="16" cy="123" rx="5" ry="30" />
<ellipse fill="#a89276" fill-opacity="0.709804" cx="157" cy="113" rx="3" ry="15" />
<ellipse fill="#b49c77" fill-opacity="0.474510" cx="146" cy="140" rx="6" ry="31" />
<ellipse fill="#637132" fill-opacity="0.654902" cx="226" cy="51" rx="24" ry="4" />
<ellipse fill="#99a5b0" fill-opacity="0.588235" cx="255" cy="9" rx="32" ry="31" />
<ellipse fill="#e7cfb8" fill-opacity="0.513725" cx="178" cy="113" rx="3" ry="3" />
<ellipse fill="#76654d" fill-opacity="0.592157" cx="204" cy="135" rx="29" ry="2" />
<ellipse fill="#39392b" fill-opacity="0.607843" cx="204" cy="81" rx="22" ry="4" />
<ellipse fill="#3b4105" fill-opacity="0.509804" cx="30" cy="131" rx="12" ry="3" />
<ellipse fill="#c4c8c6" fill-opacity="0.615686" cx="128" cy="37" rx="47" ry="18" />
<ellipse fill="#d7c3a4" fill-opacity="0.490196" cx="33" cy="126" rx="12" ry="2" />
<ellipse fill="#413b0c" fill-opacity="0.517647" cx="82" cy="140" rx="7" ry="11" />
<ellipse fill="#778a16" fill-opacity="0.584314" cx="243" cy="62" rx="16" ry="3" />
<ellipse fill="#bbaba4" fill-opacity="0.549020" cx="22" cy="102" rx="4" ry="2" />
<ellipse fill="#c4c3bf" fill-opacity="0.537255" cx="25" cy="56" rx="39" ry="5" />
<ellipse fill="#738021" fill-opacity="0.623529" cx="176" cy="85" rx="6" ry="11" />
<ellipse fill="#0d0505" fill-opacity="0.474510" cx="134" cy="139" rx="5" ry="2" />
<ellipse fill="#dbc9a1" fill-opacity="0.486275" cx="34" cy="138" rx="12" ry="3" />
<ellipse fill="#666612" fill-opacity="0.603922" cx="173" cy="134" rx="5" ry="19" />
<ellipse fill="#4e5206" fill-opacity="0.427451" cx="27" cy="142" rx="11" ry="2" />
<ellipse fill="#404638" fill-opacity="0.627451" cx="133" cy="73" rx="22" ry="5" />
<ellipse fill="#1c2704" fill-opacity="0.517647" cx="13" cy="126" rx="7" ry="3" />
<ellipse fill="#6e6f5c" fill-opacity="0.549020" cx="47" cy="62" rx="16" ry="3" />
<ellipse fill="#453b26" fill-opacity="0.576471" cx="224" cy="97" rx="19" ry="9" />
<ellipse fill="#63682b" fill-opacity="0.505882" cx="247" cy="89" rx="19" ry="9" />
<ellipse fill="#3d4033" fill-opacity="0.458824" cx="24" cy="94" rx="49" ry="8" />
<ellipse fill="#74614c" fill-opacity="0.309804" cx="164" cy="127" rx="44" ry="4" />
<ellipse fill="#fde3d4" fill-opacity="0.356863" cx="80" cy="98" rx="8" ry="2" />
<ellipse fill="#e2d8c9" fill-opacity="0.243137" cx="144" cy="117" rx="15" ry="4" />
<ellipse fill="#dac5ba" fill-opacity="0.466667" cx="163" cy="99" rx="5" ry="2" />
<ellipse fill="#2a1e0f" fill-opacity="0.584314" cx="49" cy="124" rx="9" ry="2" />
<ellipse fill="#515b3d" fill-opacity="0.529412" cx="205" cy="57" rx="27" ry="7" />
<ellipse fill="#3b4814" fill-opacity="0.501961" cx="3" cy="99" rx="7" ry="20" />
<ellipse fill="#9f8e7a" fill-opacity="0.717647" cx="111" cy="100" rx="7" ry="2" />
<ellipse fill="#908458" fill-opacity="0.631373" cx="120" cy="94" rx="8" ry="2" />
<ellipse fill="#aac730" fill-opacity="0.345098" cx="164" cy="58" rx="9" ry="4" />
<ellipse fill="#11181e" fill-opacity="0.474510" cx="234" cy="56" rx="6" ry="4" />
<ellipse fill="#5b622d" fill-opacity="0.462745" cx="251" cy="48" rx="20" ry="10" />
<ellipse fill="#eadabe" fill-opacity="0.435294" cx="35" cy="123" rx="3" ry="4" />
<ellipse fill="#0b0f0e" fill-opacity="0.462745" cx="255" cy="129" rx="6" ry="10" />
<ellipse fill="#dfbea2" fill-opacity="0.223529" cx="234" cy="137" rx="10" ry="2" />
<ellipse fill="#6e8019" fill-opacity="0.403922" cx="0" cy="76" rx="16" ry="15" />
<ellipse fill="#202525" fill-opacity="0.482353" cx="113" cy="85" rx="13" ry="3" />
<ellipse fill="#4f4334" fill-opacity="0.494118" cx="172" cy="105" rx="13" ry="7" />
</g>
</svg>