<svg xmlns="http://www.w3.org/2000/svg" version="1.1" width="256" height="143">
<rect x="0" y="0" width="256" height="143" fill="#f0f0f0" />
<g transform="scale(1.000000) translate(0.5 0.5)">
<ellipse fill="#4e2b04" fill-opacity="0.678431" cx="93" cy="83" rx="253" ry="142" />
<ellipse fill="#1c0d00" fill-opacity="0.737255" cx="37" cy="116" rx="33" ry="63" />
<ellipse fill="#e6c093" fill-opacity="0.443137" cx="141" cy="40" rx="41" ry="135" />
<ellipse fill="#fdffff" fill-opacity="0.678431" cx="37" cy="0" rx="13" ry="22" />
<ellipse fill="#f3fcff" fill-opacity="0.839216" cx="116" cy="0" rx="16" ry="17" />
<ellipse fill="#3a1b00" fill-opacity="0.588235" cx="255" cy="89" rx="25" ry="27" />
<ellipse fill="#fffbe8" fill-opacity="0.537255" cx="130" cy="91" rx="23" ry="10" />
<ellipse fill="#e5fdff" fill-opacity="0.619608" cx="219" cy="3" rx="11" ry="9" />
<ellipse fill="#030a0d" fill-opacity="0.360784" cx="9" cy="23" rx="20" ry="25" />
<ellipse fill="#060400" fill-opacity="0.349020" cx="244" cy="13" rx="21" ry="16" />
<ellipse fill="#554332" fill-opacity="0.764706" cx="65" cy="106" rx="13" ry="43" />
<ellipse fill="#6f5439" fill-opacity="0.662745" cx="104" cy="68" rx="13" ry="23" />
<ellipse fill="#a68764" fill-opacity="0.996078" cx="174" cy="35" rx="20" ry="62" />
<ellipse fill="#fffffa" fill-opacity="0.556863" cx="122" cy="76" rx="6" ry="19" />
<ellipse fill="#ac865c" fill-opacity="0.956863" cx="132" cy="113" rx="23" ry="19" />
<ellipse fill="#c7b08d" fill-opacity="0.450980" cx="221" cy="125" rx="13" ry="19" />
<ellipse fill="#0f0500" fill-opacity="0.243137" cx="16" cy="141" rx="42" ry="85" />
<ellipse fill="#825d36" fill-opacity="0.494118" cx="136" cy="23" rx="15" ry="18" />
<ellipse fill="#484035" fill-opacity="0.588235" cx="53" cy="31" rx="45" ry="7" />
<ellipse fill="#f3ffff" fill-opacity="0.243137" cx="43" cy="6" rx="20" ry="18" />
<ellipse fill="#d6ba93" fill-opacity="0.486275" cx="176" cy="27" rx="22" ry="13" />
<ellipse fill="#c2af9b" fill-opacity="0.482353" cx="67" cy="50" rx="14" ry="11" />
<ellipse fill="#453f39" fill-opacity="0.694118" cx="217" cy="26" rx="16" ry="11" />
<ellipse fill="#755129" fill-opacity="0.545098" cx="212" cy="89" rx="27" ry="22" />
<ellipse fill="#905f30" fill-opacity="0.498039" cx="165" cy="63" rx="16" ry="23" />
<ellipse fill="#62380c" fill-opacity="0.447059" cx="176" cy="118" rx="6" ry="24" />
<ellipse fill="#ffffff" fill-opacity="0.517647" cx="108" cy="96" rx="8" ry="5" />
<ellipse fill="#cd9f64" fill-opacity="0.509804" cx="191" cy="134" rx="5" ry="40" />
<ellipse fill="#695640" fill-opacity="0.705882" cx="3" cy="87" rx="7" ry="43" />
<ellipse fill="#4e3924" fill-opacity="0.580392" cx="55" cy="85" rx="15" ry="31" />
<ellipse fill="#806647" fill-opacity="0.623529" cx="94" cy="34" rx="13" ry="33" />
<ellipse fill="#a99479" fill-opacity="0.600000" cx="216" cy="55" rx="9" ry="14" />
<ellipse fill="#a58461" fill-opacity="0.611765" cx="84" cy="74" rx="9" ry="26" />
<ellipse fill="#e2b175" fill-opacity="0.458824" cx="134" cy="65" rx="10" ry="20" />
<ellipse fill="#ac8b66" fill-opacity="0.705882" cx="56" cy="13" rx="11" ry="10" />
<ellipse fill="#644f38" fill-opacity="0.478431" cx="192" cy="47" rx="28" ry="5" />
<ellipse fill="#ad9a81" fill-opacity="0.580392" cx="255" cy="41" rx="6" ry="21" />
<ellipse fill="#a6937a" fill-opacity="0.560784" cx="230" cy="113" rx="12" ry="12" />
<ellipse fill="#c29e70" fill-opacity="0.509804" cx="120" cy="136" rx="13" ry="39" />
<ellipse fill="#f6feff" fill-opacity="0.396078" cx="193" cy="55" rx="5" ry="4" />
<ellipse fill="#3e382b" fill-opacity="0.384314" cx="240" cy="32" rx="9" ry="28" />
<ellipse fill="#4f2a00" fill-opacity="0.498039" cx="244" cy="72" rx="17" ry="9" />
<ellipse fill="#302717" fill-opacity="0.443137" cx="20" cy="36" rx="29" ry="5" />
<ellipse fill="#918779" fill-opacity="0.321569" cx="36" cy="48" rx="32" ry="9" />
<ellipse fill="#e2c7a2" fill-opacity="0.478431" cx="150" cy="44" rx="17" ry="3" />
<ellipse fill="#a57441" fill-opacity="0.623529" cx="128" cy="43" rx="8" ry="12" />
<ellipse fill="#fffffb" fill-opacity="0.501961" cx="115" cy="94" rx="7" ry="8" />
<ellipse fill="#444445" fill-opacity="0.474510" cx="199" cy="70" rx="10" ry="12" />
<ellipse fill="#dfeff7" fill-opacity="0.666667" cx="47" cy="1" rx="9" ry="4" />
<ellipse fill="#fff9e2" fill-opacity="0.498039" cx="153" cy="95" rx="5" ry="4" />
<ellipse fill="#7b6249" fill-opacity="0.474510" cx="88" cy="109" rx="30" ry="11" />
<ellipse fill="#d6d2c3" fill-opacity="0.501961" cx="121" cy="14" rx="19" ry="6" />
<ellipse fill="#775029" fill-opacity="0.592157" cx="200" cy="114" rx="8" ry="13" />
<ellipse fill="#6b5233" fill-opacity="0.345098" cx="115" cy="23" rx="44" ry="4" />
<ellipse fill="#968165" fill-opacity="0.878431" cx="169" cy="2" rx="28" ry="14" />
<ellipse fill="#1d0e00" fill-opacity="0.470588" cx="24" cy="129" rx="14" ry="73" />
<ellipse fill="#977857" fill-opacity="0.505882" cx="144" cy="128" rx="13" ry="32" />
<ellipse fill="#d2c5ae" fill-opacity="0.415686" cx="222" cy="40" rx="3" ry="10" />
<ellipse fill="#665138" fill-opacity="0.666667" cx="110" cy="39" rx="11" ry="2" />
<ellipse fill="#b7a086" fill-opacity="0.482353" cx="74" cy="56" rx="7" ry="17" />
<ellipse fill="#9d6d3c" fill-opacity="0.439216" cx="167" cy="100" rx="5" ry="61" />
<ellipse fill="#d6dce6" fill-opacity="0.301961" cx="220" cy="0" rx="15" ry="13" />
<ellipse fill="#413b34" fill-opacity="0.588235" cx="215" cy="33" rx="6" ry="12" />
<ellipse fill="#0c0200" fill-opacity="0.533333" cx="198" cy="34" rx="4" ry="3" />
<ellipse fill="#332e27" fill-opacity="0.498039" cx="110" cy="81" rx="6" ry="5" />
<ellipse fill="#856749" fill-opacity="0.635294" cx="102" cy="65" rx="8" ry="31" />
<ellipse fill="#988e7e" fill-opacity="0.580392" cx="246" cy="31" rx="26" ry="2" />
<ellipse fill="#382100" fill-opacity="0.121569" cx="251" cy="138" rx="29" ry="35" />
<ellipse fill="#705d48" fill-opacity="0.662745" cx="0" cy="59" rx="19" ry="22" />
<ellipse fill="#6f5331" fill-opacity="0.560784" cx="76" cy="0" rx="12" ry="24" />
<ellipse fill="#a06f3f" fill-opacity="0.470588" cx="152" cy="79" rx="16" ry="8" />
<ellipse fill="#443425" fill-opacity="0.713725" cx="2" cy="142" rx="9" ry="20" />
<ellipse fill="#cd9248" fill-opacity="0.482353" cx="197" cy="97" rx="5" ry="9" />
<ellipse fill="#67513b" fill-opacity="0.450980" cx="88" cy="136" rx="18" ry="16" />
<ellipse fill="#fff2ca" fill-opacity="0.349020" cx="120" cy="64" rx="4" ry="20" />
<ellipse fill="#4e463d" fill-opacity="0.552941" cx="206" cy="13" rx="5" ry="11" />
<ellipse fill="#332514" fill-opacity="0.411765" cx="232" cy="58" rx="12" ry="3" />
<ellipse fill="#d0a97e" fill-opacity="0.188235" cx="88" cy="103" rx="4" ry="57" />
<ellipse fill="#effbff" fill-opacity="0.270588" cx="121" cy="0" rx="23" ry="9" />
<ellipse fill="#ac7531" fill-opacity="0.541176" cx="184" cy="141" rx="4" ry="33" />
<ellipse fill="#c6b193" fill-opacity="0.372549" cx="196" cy="21" rx="5" ry="12" />
<ellipse fill="#4e3619" fill-opacity="0.619608" cx="49" cy="59" rx="11" ry="6" />
<ellipse fill="#f6e8d3" fill-opacity="0.556863" cx="144" cy="92" rx="13" ry="4" />
<ellipse fill="#b78c5c" fill-opacity="0.396078" cx="150" cy="69" rx="11" ry="23" />
<ellipse fill="#b3a397" fill-opacity="0.337255" cx="181" cy="75" rx="8" ry="14" />
<ellipse fill="#fff4c3" fill-opacity="0.286275" cx="131" cy="77" rx="7" ry="10" />
<ellipse fill="#f6fdff" fill-opacity="0.533333" cx="110" cy="10" rx="7" ry="7" />
<ellipse fill="#8a6847" fill-opacity="0.380392" cx="141" cy="20" rx="11" ry="22" />
<ellipse fill="#6a4a2f" fill-opacity="0.509804" cx="161" cy="73" rx="11" ry="4" />
<ellipse fill="#d0c9b6" fill-opacity="0.372549" cx="203" cy="38" rx="4" ry="5" />
<ellipse fill="#271b0e" fill-opacity="0.396078" cx="250" cy="0" rx="4" ry="27" />
<ellipse fill="#3a1900" fill-opacity="0.294118" cx="185" cy="98" rx="5" ry="9" />
<ellipse fill="#d3c0a5" fill-opacity="0.466667" cx="218" cy="117" rx="6" ry="6" />
<ellipse fill="#5b361c" fill-opacity="0.419608" cx="178" cy="54" rx="4" ry="10" />
<ellipse fill="#d9c7aa" fill-opacity="0.305882" cx="117" cy="29" rx="14" ry="4" />
<ellipse fill="#e9d6ba" fill-opacity="0.439216" cx="191" cy="29" rx="12" ry="2" />
<ellipse fill="#d7c3aa" fill-opacity="0.501961" cx="231" cy="63" rx="4" ry="2" />
<ellipse fill="#66482c" fill-opacity="0.588235" cx="213" cy="107" rx="7" ry="6" />
<ellipse fill="#f6ead2" fill-opacity="0.462745" cx="180" cy="34" rx="12" ry="2" />
<ellipse fill="#d6a36a" fill-opacity="0.321569" cx="175" cy="95" rx="5" ry="15" />
</g>
</svg>