<svg xmlns="http://www.w3.org/2000/svg" version="1.1" width="256" height="143">
<rect x="0" y="0" width="256" height="143" fill="#f0f0f0" />
<g transform="scale(1.000000) translate(0.5 0.5)">
<ellipse fill="#2e3100" fill-opacity="0.545098" cx="142" cy="59" rx="195" ry="109" />
<ellipse fill="#c1c6d3" fill-opacity="0.721569" cx="112" cy="4" rx="205" ry="20" />
<ellipse fill="#626a33" fill-opacity="0.654902" cx="162" cy="87" rx="255" ry="26" />
<ellipse fill="#ddc3a1" fill-opacity="0.831373" cx="66" cy="138" rx="89" ry="7" />
<ellipse fill="#485225" fill-opacity="0.705882" cx="254" cy="99" rx="93" ry="18" />
<ellipse fill="#7c8241" fill-opacity="1.000000" cx="17" cy="103" rx="31" ry="25" />
<ellipse fill="#f7d5ad" fill-opacity="0.549020" cx="52" cy="125" rx="12" ry="16" />
<ellipse fill="#585000" fill-opacity="0.560784" cx="163" cy="131" rx="22" ry="8" />
<ellipse fill="#ffc19d" fill-opacity="0.235294" cx="146" cy="114" rx="68" ry="9" />
<ellipse fill="#f0c6a1" fill-opacity="0.454902" cx="205" cy="125" rx="22" ry="10" />
<ellipse fill="#113b5f" fill-opacity="0.145098" cx="4" cy="34" rx="48" ry="54" />
<ellipse fill="#747a76" fill-opacity="0.639216" cx="216" cy="46" rx="71" ry="27" />
<ellipse fill="#4e3511" fill-opacity="0.505882" cx="245" cy="138" rx="29" ry="7" />
<ellipse fill="#8e9ab4" fill-opacity="0.415686" cx="96" cy="29" rx="144" ry="9" />
<ellipse fill="#572600" fill-opacity="0.352941" cx="91" cy="126" rx="39" ry="5" />
<ellipse fill="#b0a867" fill-opacity="0.439216" cx="36" cy="92" rx="36" ry="13" />
<ellipse fill="#526235" fill-opacity="0.607843" cx="172" cy="88" rx="34" ry="24" />
<ellipse fill="#c7a88c" fill-opacity="0.517647" cx="126" cy="76" rx="30" ry="3" />
<ellipse fill="#2f3301" fill-opacity="0.462745" cx="15" cy="120" rx="10" ry="9" />
<ellipse fill="#cdcece" fill-opacity="0.396078" cx="144" cy="1" rx="79" ry="19" />
<ellipse fill="#a09476" fill-opacity="0.607843" cx="185" cy="90" rx="2" ry="48" />
<ellipse fill="#b5a189" fill-opacity="0.705882" cx="136" cy="98" rx="2" ry="37" />
<ellipse fill="#4d5312" fill-opacity="0.698039" cx="175" cy="125" rx="9" ry="6" />
<ellipse fill="#556a1f" fill-opacity="0.321569" cx="27" cy="67" rx="42" ry="14" />
<ellipse fill="#d1b390" fill-opacity="0.666667" cx="4" cy="136" rx="6" ry="16" />
<ellipse fill="#251500" fill-opacity="0.501961" cx="255" cy="131" rx="4" ry="22" />
<ellipse fill="#b2a087" fill-opacity="0.611765" cx="160" cy="83" rx="2" ry="26" />
<ellipse fill="#7e775c" fill-opacity="0.572549" cx="247" cy="63" rx="55" ry="21" />
<ellipse fill="#66861b" fill-opacity="0.576471" cx="22" cy="109" rx="34" ry="6" />
<ellipse fill="#a5967c" fill-opacity="0.686275" cx="88" cy="63" rx="25" ry="3" />
<ellipse fill="#413a37" fill-opacity="0.509804" cx="113" cy="107" rx="26" ry="3" />
<ellipse fill="#a69672" fill-opacity="0.290196" cx="107" cy="101" rx="16" ry="29" />
<ellipse fill="#433107" fill-opacity="0.580392" cx="73" cy="116" rx="9" ry="3" />
<ellipse fill="#ffe2cc" fill-opacity="0.407843" cx="192" cy="134" rx="5" ry="10" />
<ellipse fill="#b8a87e" fill-opacity="0.584314" cx="145" cy="118" rx="29" ry="8" />
<ellipse fill="#003b33" fill-opacity="0.196078" cx="135" cy="69" rx="49" ry="6" />
<ellipse fill="#463f1c" fill-opacity="0.498039" cx="133" cy="127" rx="51" ry="2" />
<ellipse fill="#947954" fill-opacity="0.552941" cx="218" cy="137" rx="22" ry="10" />
<ellipse fill="#908f5b" fill-opacity="0.913725" cx="68" cy="82" rx="33" ry="4" />
<ellipse fill="#c2a27b" fill-opacity="0.541176" cx="44" cy="130" rx="28" ry="3" />
<ellipse fill="#717c7f" fill-opacity="0.423529" cx="83" cy="44" rx="79" ry="11" />
<ellipse fill="#f5d9b3" fill-opacity="0.454902" cx="83" cy="111" rx="9" ry="3" />
<ellipse fill="#4f381b" fill-opacity="0.501961" cx="107" cy="139" rx="7" ry="2" />
<ellipse fill="#56706b" fill-opacity="0.450980" cx="236" cy="45" rx="78" ry="7" />
<ellipse fill="#e4d3bf" fill-opacity="0.454902" cx="132" cy="138" rx="16" ry="7" />
<ellipse fill="#5b380f" fill-opacity="0.501961" cx="49" cy="142" rx="8" ry="2" />
<ellipse fill="#320000" fill-opacity="0.274510" cx="255" cy="113" rx="43" ry="5" />
<ellipse fill="#b29a7a" fill-opacity="0.513725" cx="213" cy="68" rx="16" ry="5" />
<ellipse fill="#454600" fill-opacity="0.572549" cx="145" cy="124" rx="4" ry="4" />
<ellipse fill="#69682d" fill-opacity="0.603922" cx="105" cy="116" rx="6" ry="5" />
<ellipse fill="#727746" fill-opacity="0.533333" cx="142" cy="58" rx="41" ry="4" />
<ellipse fill="#ffc7dc" fill-opacity="0.184314" cx="133" cy="103" rx="21" ry="3" />
<ellipse fill="#493d17" fill-opacity="0.517647" cx="24" cy="124" rx="15" ry="3" />
<ellipse fill="#fff3d7" fill-opacity="0.411765" cx="50" cy="121" rx="9" ry="5" />
<ellipse fill="#ceb490" fill-opacity="0.698039" cx="224" cy="123" rx="9" ry="5" />
<ellipse fill="#77642f" fill-opacity="0.376471" cx="166" cy="135" rx="26" ry="5" />
<ellipse fill="#241f24" fill-opacity="0.427451" cx="105" cy="105" rx="16" ry="2" />
<ellipse fill="#554d3e" fill-opacity="0.905882" cx="192" cy="111" rx="11" ry="2" />
<ellipse fill="#534140" fill-opacity="0.545098" cx="133" cy="87" rx="2" ry="26" />
<ellipse fill="#74642f" fill-opacity="0.725490" cx="72" cy="122" rx="12" ry="5" />
<ellipse fill="#959ba0" fill-opacity="0.403922" cx="99" cy="28" rx="68" ry="7" />
<ellipse fill="#ba9f81" fill-opacity="0.619608" cx="209" cy="112" rx="1" ry="26" />
<ellipse fill="#cab7ae" fill-opacity="0.564706" cx="114" cy="93" rx="2" ry="8" />
<ellipse fill="#88531d" fill-opacity="0.482353" cx="25" cy="142" rx="4" ry="5" />
<ellipse fill="#6e696a" fill-opacity="0.215686" cx="0" cy="35" rx="21" ry="37" />
<ellipse fill="#345017" fill-opacity="0.501961" cx="151" cy="91" rx="6" ry="11" />
<ellipse fill="#48693f" fill-opacity="0.631373" cx="67" cy="74" rx="28" ry="4" />
<ellipse fill="#fff5cf" fill-opacity="0.486275" cx="14" cy="142" rx="8" ry="7" />
<ellipse fill="#e1c8b2" fill-opacity="0.498039" cx="160" cy="87" rx="1" ry="20" />
<ellipse fill="#919c3b" fill-opacity="0.454902" cx="29" cy="102" rx="41" ry="6" />
<ellipse fill="#e7c6a6" fill-opacity="0.729412" cx="93" cy="93" rx="1" ry="10" />
<ellipse fill="#533614" fill-opacity="0.450980" cx="93" cy="130" rx="10" ry="3" />
<ellipse fill="#3b5e1a" fill-opacity="0.505882" cx="169" cy="93" rx="9" ry="14" />
<ellipse fill="#fceed9" fill-opacity="0.360784" cx="80" cy="138" rx="26" ry="2" />
<ellipse fill="#ffe2b3" fill-opacity="0.533333" cx="63" cy="117" rx="2" ry="3" />
<ellipse fill="#2d3316" fill-opacity="0.486275" cx="249" cy="141" rx="14" ry="5" />
<ellipse fill="#ceb98f" fill-opacity="0.572549" cx="170" cy="115" rx="36" ry="2" />
<ellipse fill="#43641d" fill-opacity="0.576471" cx="193" cy="94" rx="8" ry="15" />
<ellipse fill="#464425" fill-opacity="0.501961" cx="130" cy="119" rx="3" ry="3" />
<ellipse fill="#958950" fill-opacity="0.462745" cx="13" cy="61" rx="17" ry="6" />
<ellipse fill="#b7a67d" fill-opacity="0.556863" cx="123" cy="111" rx="36" ry="2" />
<ellipse fill="#ffedd7" fill-opacity="0.482353" cx="94" cy="119" rx="4" ry="3" />
<ellipse fill="#7e899f" fill-opacity="0.521569" cx="225" cy="22" rx="48" ry="3" />
<ellipse fill="#534137" fill-opacity="0.478431" cx="33" cy="131" rx="3" ry="3" />
<ellipse fill="#baa994" fill-opacity="0.501961" cx="119" cy="114" rx="3" ry="10" />
<ellipse fill="#ad9e86" fill-opacity="0.517647" cx="23" cy="89" rx="11" ry="5" />
<ellipse fill="#51363a" fill-opacity="0.564706" cx="157" cy="85" rx="2" ry="29" />
<ellipse fill="#6f6040" fill-opacity="0.537255" cx="247" cy="106" rx="5" ry="15" />
<ellipse fill="#3d4316" fill-opacity="0.619608" cx="4" cy="118" rx="18" ry="3" />
<ellipse fill="#120c0b" fill-opacity="0.454902" cx="183" cy="136" rx="5" ry="2" />
<ellipse fill="#533638" fill-opacity="0.545098" cx="182" cy="79" rx="2" ry="24" />
<ellipse fill="#bda585" fill-opacity="0.533333" cx="113" cy="77" rx="16" ry="3" />
<ellipse fill="#605b4e" fill-opacity="0.415686" cx="255" cy="61" rx="17" ry="14" />
<ellipse fill="#004713" fill-opacity="0.101961" cx="5" cy="79" rx="33" ry="11" />
<ellipse fill="#bca078" fill-opacity="0.603922" cx="154" cy="142" rx="9" ry="5" />
<ellipse fill="#a0a2a2" fill-opacity="0.521569" cx="251" cy="1" rx="13" ry="19" />
<ellipse fill="#ebd5b0" fill-opacity="0.341176" cx="59" cy="126" rx="3" ry="18" />
<ellipse fill="#ba9e6e" fill-opacity="0.450980" cx="233" cy="123" rx="9" ry="8" />
<ellipse fill="#ac8e5e" fill-opacity="0.686275" cx="124" cy="131" rx="19" ry="2" />
<ellipse fill="#403535" fill-opacity="0.466667" cx="89" cy="93" rx="3" ry="10" />
</g>
</svg>