<svg xmlns="http://www.w3.org/2000/svg" version="1.1" width="256" height="128">
<rect x="0" y="0" width="256" height="128" fill="#f0f0f0" />
<g transform="scale(1.000000) translate(0.5 0.5)">
<ellipse fill="#101c26" fill-opacity="0.627451" cx="162" cy="64" rx="192" ry="127" />
<ellipse fill="#011017" fill-opacity="0.701961" cx="230" cy="87" rx="86" ry="40" />
<ellipse fill="#f6ca8a" fill-opacity="0.592157" cx="66" cy="106" rx="53" ry="34" />
<ellipse fill="#9dbbed" fill-opacity="0.533333" cx="122" cy="28" rx="97" ry="25" />
<ellipse fill="#1d1800" fill-opacity="0.768627" cx="20" cy="47" rx="30" ry="10" />
<ellipse fill="#cdb285" fill-opacity="0.701961" cx="16" cy="81" rx="58" ry="20" />
<ellipse fill="#f7ba75" fill-opacity="0.384314" cx="138" cy="121" rx="70" ry="16" />
<ellipse fill="#2a465e" fill-opacity="0.800000" cx="127" cy="72" rx="45" ry="20" />
<ellipse fill="#000e2c" fill-opacity="0.568627" cx="255" cy="0" rx="41" ry="30" />
<ellipse fill="#562e00" fill-opacity="0.427451" cx="6" cy="127" rx="35" ry="34" />
<ellipse fill="#080c0c" fill-opacity="0.854902" cx="245" cy="108" rx="40" ry="30" />
<ellipse fill="#004eb3" fill-opacity="0.478431" cx="10" cy="0" rx="52" ry="25" />
<ellipse fill="#ceb390" fill-opacity="0.698039" cx="106" cy="111" rx="39" ry="16" />
<ellipse fill="#296082" fill-opacity="0.392157" cx="179" cy="63" rx="43" ry="16" />
<ellipse fill="#3c5985" fill-opacity="0.447059" cx="195" cy="13" rx="39" ry="14" />
<ellipse fill="#afc2d8" fill-opacity="0.411765" cx="145" cy="39" rx="92" ry="12" />
<ellipse fill="#361800" fill-opacity="0.607843" cx="175" cy="127" rx="14" ry="7" />
<ellipse fill="#2b3f4e" fill-opacity="0.698039" cx="150" cy="80" rx="34" ry="24" />
<ellipse fill="#6f85ae" fill-opacity="0.549020" cx="110" cy="1" rx="70" ry="31" />
<ellipse fill="#2a455e" fill-opacity="0.674510" cx="70" cy="60" rx="34" ry="8" />
<ellipse fill="#241300" fill-opacity="0.549020" cx="6" cy="127" rx="28" ry="11" />
<ellipse fill="#ab8e5e" fill-opacity="0.494118" cx="0" cy="84" rx="28" ry="32" />
<ellipse fill="#151d20" fill-opacity="0.486275" cx="192" cy="100" rx="42" ry="14" />
<ellipse fill="#000009" fill-opacity="0.278431" cx="249" cy="53" rx="9" ry="127" />
<ellipse fill="#0d0801" fill-opacity="0.682353" cx="149" cy="121" rx="6" ry="4" />
<ellipse fill="#d4c1a6" fill-opacity="0.462745" cx="69" cy="92" rx="31" ry="17" />
<ellipse fill="#9cb9e1" fill-opacity="0.521569" cx="79" cy="50" rx="20" ry="4" />
<ellipse fill="#3a669c" fill-opacity="0.309804" cx="177" cy="49" rx="63" ry="7" />
<ellipse fill="#6485ac" fill-opacity="0.541176" cx="36" cy="26" rx="25" ry="14" />
<ellipse fill="#49371a" fill-opacity="0.674510" cx="44" cy="52" rx="15" ry="7" />
<ellipse fill="#001d47" fill-opacity="0.447059" cx="0" cy="0" rx="23" ry="17" />
<ellipse fill="#c2af87" fill-opacity="0.466667" cx="29" cy="90" rx="11" ry="25" />
<ellipse fill="#191d0e" fill-opacity="0.796078" cx="6" cy="44" rx="29" ry="8" />
<ellipse fill="#c6ad8e" fill-opacity="0.627451" cx="87" cy="96" rx="26" ry="13" />
<ellipse fill="#ebe5e3" fill-opacity="0.427451" cx="94" cy="43" rx="21" ry="4" />
<ellipse fill="#d8d8db" fill-opacity="0.560784" cx="148" cy="40" rx="34" ry="2" />
<ellipse fill="#9c8051" fill-opacity="0.549020" cx="44" cy="122" rx="12" ry="13" />
<ellipse fill="#376182" fill-opacity="0.596078" cx="133" cy="56" rx="65" ry="5" />
<ellipse fill="#d8b891" fill-opacity="0.458824" cx="128" cy="127" rx="21" ry="9" />
<ellipse fill="#765732" fill-opacity="0.611765" cx="208" cy="127" rx="21" ry="3" />
<ellipse fill="#354a5e" fill-opacity="0.537255" cx="103" cy="70" rx="24" ry="15" />
<ellipse fill="#34280f" fill-opacity="0.505882" cx="26" cy="55" rx="12" ry="6" />
<ellipse fill="#231c0e" fill-opacity="0.407843" cx="142" cy="98" rx="13" ry="6" />
<ellipse fill="#4c78b6" fill-opacity="0.698039" cx="125" cy="0" rx="21" ry="9" />
<ellipse fill="#cebaa5" fill-opacity="0.482353" cx="164" cy="116" rx="13" ry="4" />
<ellipse fill="#46698f" fill-opacity="0.356863" cx="225" cy="27" rx="27" ry="7" />
<ellipse fill="#c8ab8b" fill-opacity="0.513725" cx="128" cy="108" rx="29" ry="6" />
<ellipse fill="#000000" fill-opacity="0.329412" cx="165" cy="127" rx="3" ry="17" />
<ellipse fill="#08202d" fill-opacity="0.333333" cx="244" cy="68" rx="37" ry="24" />
<ellipse fill="#ac906c" fill-opacity="0.556863" cx="181" cy="119" rx="10" ry="5" />
<ellipse fill="#cfbfa3" fill-opacity="0.639216" cx="60" cy="86" rx="13" ry="18" />
<ellipse fill="#6d8cb5" fill-opacity="0.403922" cx="202" cy="49" rx="33" ry="2" />
<ellipse fill="#58749c" fill-opacity="0.509804" cx="12" cy="28" rx="65" ry="4" />
<ellipse fill="#2e3e4a" fill-opacity="0.454902" cx="154" cy="88" rx="44" ry="11" />
<ellipse fill="#10529c" fill-opacity="0.415686" cx="42" cy="0" rx="24" ry="8" />
<ellipse fill="#8da1be" fill-opacity="0.537255" cx="63" cy="37" rx="27" ry="7" />
<ellipse fill="#0e110f" fill-opacity="0.588235" cx="194" cy="109" rx="25" ry="3" />
<ellipse fill="#82582a" fill-opacity="0.541176" cx="47" cy="54" rx="15" ry="3" />
<ellipse fill="#97a2ab" fill-opacity="0.564706" cx="208" cy="38" rx="21" ry="7" />
<ellipse fill="#000000" fill-opacity="0.121569" cx="0" cy="82" rx="5" ry="109" />
<ellipse fill="#223c57" fill-opacity="0.694118" cx="55" cy="60" rx="25" ry="3" />
<ellipse fill="#c3a788" fill-opacity="0.709804" cx="115" cy="102" rx="13" ry="9" />
<ellipse fill="#31425b" fill-opacity="0.721569" cx="214" cy="0" rx="16" ry="8" />
<ellipse fill="#858fa9" fill-opacity="0.427451" cx="90" cy="17" rx="31" ry="19" />
<ellipse fill="#170e08" fill-opacity="0.627451" cx="145" cy="118" rx="2" ry="3" />
<ellipse fill="#d5c5a4" fill-opacity="0.423529" cx="33" cy="77" rx="17" ry="6" />
<ellipse fill="#b8a179" fill-opacity="0.470588" cx="12" cy="69" rx="11" ry="14" />
<ellipse fill="#344a5f" fill-opacity="0.588235" cx="82" cy="66" rx="18" ry="8" />
<ellipse fill="#2a5064" fill-opacity="0.478431" cx="170" cy="62" rx="27" ry="11" />
<ellipse fill="#efd4ad" fill-opacity="0.415686" cx="153" cy="113" rx="6" ry="4" />
<ellipse fill="#172228" fill-opacity="0.509804" cx="194" cy="100" rx="5" ry="21" />
<ellipse fill="#4a7192" fill-opacity="0.462745" cx="84" cy="57" rx="39" ry="2" />
<ellipse fill="#a78f61" fill-opacity="0.349020" cx="78" cy="127" rx="25" ry="9" />
<ellipse fill="#8c6f4f" fill-opacity="0.470588" cx="135" cy="116" rx="4" ry="5" />
<ellipse fill="#7d9dbc" fill-opacity="0.490196" cx="189" cy="27" rx="21" ry="6" />
<ellipse fill="#030200" fill-opacity="0.576471" cx="246" cy="120" rx="35" ry="8" />
<ellipse fill="#95abc9" fill-opacity="0.498039" cx="92" cy="49" rx="34" ry="4" />
<ellipse fill="#987b5e" fill-opacity="0.435294" cx="71" cy="90" rx="6" ry="4" />
<ellipse fill="#a4b5d3" fill-opacity="0.227451" cx="122" cy="31" rx="18" ry="18" />
<ellipse fill="#9b845b" fill-opacity="0.490196" cx="0" cy="76" rx="10" ry="25" />
<ellipse fill="#697a99" fill-opacity="0.407843" cx="165" cy="0" rx="26" ry="25" />
<ellipse fill="#8d7459" fill-opacity="0.494118" cx="91" cy="98" rx="7" ry="3" />
<ellipse fill="#dac49d" fill-opacity="0.466667" cx="76" cy="106" rx="20" ry="9" />
<ellipse fill="#a8c0db" fill-opacity="0.443137" cx="155" cy="34" rx="24" ry="5" />
<ellipse fill="#4a5d77" fill-opacity="0.341176" cx="241" cy="40" rx="12" ry="10" />
<ellipse fill="#4c3a26" fill-opacity="0.290196" cx="81" cy="96" rx="6" ry="2" />
<ellipse fill="#85511b" fill-opacity="0.388235" cx="45" cy="71" rx="6" ry="3" />
<ellipse fill="#344a5f" fill-opacity="0.443137" cx="126" cy="74" rx="46" ry="12" />
<ellipse fill="#ffffff" fill-opacity="0.443137" cx="157" cy="119" rx="3" ry="4" />
<ellipse fill="#ccb087" fill-opacity="0.541176" cx="203" cy="117" rx="3" ry="2" />
<ellipse fill="#256db6" fill-opacity="0.286275" cx="26" cy="13" rx="19" ry="7" />
<ellipse fill="#1b2011" fill-opacity="0.439216" cx="29" cy="50" rx="29" ry="4" />
<ellipse fill="#4a6183" fill-opacity="0.294118" cx="203" cy="14" rx="22" ry="11" />
<ellipse fill="#6d4b25" fill-opacity="0.466667" cx="209" cy="127" rx="6" ry="9" />
<ellipse fill="#ffe5c4" fill-opacity="0.466667" cx="96" cy="96" rx="3" ry="3" />
<ellipse fill="#2d5d93" fill-opacity="0.415686" cx="2" cy="23" rx="16" ry="12" />
<ellipse fill="#000000" fill-opacity="0.470588" cx="165" cy="123" rx="2" ry="5" />
<ellipse fill="#1b3441" fill-opacity="0.266667" cx="208" cy="74" rx="26" ry="24" />
<ellipse fill="#a28b62" fill-opacity="0.396078" cx="29" cy="107" rx="12" ry="12" />
<ellipse fill="#987144" fill-opacity="0.549020" cx="172" cy="112" rx="5" ry="3" />
</g>
</svg>