<svg xmlns="http://www.w3.org/2000/svg" version="1.1" width="256" height="145">
<rect x="0" y="0" width="256" height="145" fill="#f0f0f0" />
<g transform="scale(1.000000) translate(0.5 0.5)">
<ellipse fill="#042d3c" fill-opacity="0.690196" cx="117" cy="78" rx="195" ry="111" />
<ellipse fill="#85d6ff" fill-opacity="0.596078" cx="11" cy="0" rx="204" ry="77" />
<ellipse fill="#010608" fill-opacity="0.854902" cx="240" cy="98" rx="43" ry="86" />
<ellipse fill="#1c1306" fill-opacity="0.556863" cx="128" cy="127" rx="110" ry="40" />
<ellipse fill="#bdf0ff" fill-opacity="0.745098" cx="17" cy="73" rx="22" ry="29" />
<ellipse fill="#fff1e4" fill-opacity="0.462745" cx="179" cy="67" rx="27" ry="20" />
<ellipse fill="#001c3b" fill-opacity="0.698039" cx="0" cy="0" rx="27" ry="36" />
<ellipse fill="#1e1b0b" fill-opacity="0.627451" cx="59" cy="0" rx="15" ry="33" />
<ellipse fill="#424347" fill-opacity="0.650980" cx="133" cy="67" rx="26" ry="25" />
<ellipse fill="#f8f2f4" fill-opacity="0.517647" cx="174" cy="125" rx="13" ry="9" />
<ellipse fill="#7cd4ff" fill-opacity="0.541176" cx="121" cy="13" rx="55" ry="37" />
<ellipse fill="#77d1ff" fill-opacity="0.654902" cx="206" cy="0" rx="44" ry="14" />
<ellipse fill="#000100" fill-opacity="0.317647" cx="34" cy="126" rx="67" ry="25" />
<ellipse fill="#403f11" fill-opacity="0.427451" cx="203" cy="32" rx="27" ry="16" />
<ellipse fill="#928881" fill-opacity="0.454902" cx="108" cy="100" rx="11" ry="42" />
<ellipse fill="#0f110e" fill-opacity="0.690196" cx="204" cy="83" rx="18" ry="11" />
<ellipse fill="#070800" fill-opacity="0.631373" cx="139" cy="45" rx="4" ry="16" />
<ellipse fill="#202210" fill-opacity="0.694118" cx="85" cy="72" rx="8" ry="11" />
<ellipse fill="#9ae6ff" fill-opacity="0.662745" cx="36" cy="35" rx="18" ry="20" />
<ellipse fill="#040c00" fill-opacity="0.580392" cx="152" cy="101" rx="29" ry="17" />
<ellipse fill="#fffff3" fill-opacity="0.462745" cx="179" cy="74" rx="8" ry="23" />
<ellipse fill="#042540" fill-opacity="0.611765" cx="0" cy="44" rx="4" ry="32" />
<ellipse fill="#b3ad98" fill-opacity="0.666667" cx="186" cy="144" rx="8" ry="17" />
<ellipse fill="#aceaff" fill-opacity="0.470588" cx="70" cy="57" rx="9" ry="31" />
<ellipse fill="#6d7d7c" fill-opacity="0.439216" cx="52" cy="82" rx="23" ry="29" />
<ellipse fill="#86d1fb" fill-opacity="0.662745" cx="160" cy="33" rx="14" ry="32" />
<ellipse fill="#bebbc2" fill-opacity="0.513725" cx="142" cy="129" rx="5" ry="12" />
<ellipse fill="#5cb8fc" fill-opacity="0.560784" cx="6" cy="15" rx="36" ry="4" />
<ellipse fill="#fffffa" fill-opacity="0.490196" cx="199" cy="52" rx="8" ry="5" />
<ellipse fill="#ffffff" fill-opacity="0.611765" cx="106" cy="104" rx="3" ry="8" />
<ellipse fill="#d7c6b7" fill-opacity="0.454902" cx="12" cy="122" rx="7" ry="8" />
<ellipse fill="#c9e9f7" fill-opacity="0.611765" cx="28" cy="97" rx="16" ry="5" />
<ellipse fill="#86cefa" fill-opacity="0.698039" cx="89" cy="38" rx="25" ry="23" />
<ellipse fill="#282e23" fill-opacity="0.529412" cx="59" cy="8" rx="18" ry="7" />
<ellipse fill="#000805" fill-opacity="0.639216" cx="58" cy="126" rx="23" ry="17" />
<ellipse fill="#000000" fill-opacity="0.517647" cx="116" cy="121" rx="25" ry="4" />
<ellipse fill="#585a68" fill-opacity="0.760784" cx="162" cy="71" rx="9" ry="8" />
<ellipse fill="#0b1e24" fill-opacity="0.392157" cx="255" cy="31" rx="47" ry="27" />
<ellipse fill="#6a6056" fill-opacity="0.690196" cx="188" cy="78" rx="4" ry="20" />
<ellipse fill="#23211f" fill-opacity="0.517647" cx="60" cy="35" rx="2" ry="80" />
<ellipse fill="#ffffff" fill-opacity="0.541176" cx="182" cy="57" rx="16" ry="5" />
<ellipse fill="#d3f5ff" fill-opacity="0.701961" cx="6" cy="88" rx="16" ry="10" />
<ellipse fill="#7585a2" fill-opacity="0.317647" cx="112" cy="131" rx="36" ry="7" />
<ellipse fill="#17231f" fill-opacity="0.623529" cx="140" cy="54" rx="9" ry="11" />
<ellipse fill="#000200" fill-opacity="0.588235" cx="12" cy="2" rx="13" ry="8" />
<ellipse fill="#7fc7f3" fill-opacity="0.874510" cx="125" cy="38" rx="4" ry="24" />
<ellipse fill="#121608" fill-opacity="0.596078" cx="115" cy="57" rx="7" ry="6" />
<ellipse fill="#a4e8ff" fill-opacity="0.462745" cx="22" cy="55" rx="21" ry="22" />
<ellipse fill="#1b3538" fill-opacity="0.450980" cx="48" cy="74" rx="4" ry="26" />
<ellipse fill="#46614e" fill-opacity="0.580392" cx="179" cy="49" rx="12" ry="4" />
<ellipse fill="#061016" fill-opacity="0.556863" cx="215" cy="108" rx="29" ry="38" />
<ellipse fill="#76bbe7" fill-opacity="0.447059" cx="200" cy="16" rx="7" ry="18" />
<ellipse fill="#ffffff" fill-opacity="0.611765" cx="110" cy="65" rx="5" ry="3" />
<ellipse fill="#c9c2b5" fill-opacity="0.568627" cx="51" cy="99" rx="9" ry="3" />
<ellipse fill="#1b230b" fill-opacity="0.713725" cx="175" cy="104" rx="12" ry="13" />
<ellipse fill="#445334" fill-opacity="0.494118" cx="0" cy="106" rx="26" ry="9" />
<ellipse fill="#fffdde" fill-opacity="0.396078" cx="185" cy="92" rx="4" ry="8" />
<ellipse fill="#2b3229" fill-opacity="0.549020" cx="52" cy="86" rx="7" ry="11" />
<ellipse fill="#ffffff" fill-opacity="0.611765" cx="90" cy="85" rx="4" ry="3" />
<ellipse fill="#2e3d5a" fill-opacity="0.533333" cx="153" cy="136" rx="11" ry="23" />
<ellipse fill="#fffff5" fill-opacity="0.556863" cx="55" cy="107" rx="4" ry="3" />
<ellipse fill="#a6dbf4" fill-opacity="0.494118" cx="30" cy="73" rx="39" ry="3" />
<ellipse fill="#faefdc" fill-opacity="0.466667" cx="140" cy="140" rx="2" ry="17" />
<ellipse fill="#8dbdd0" fill-opacity="0.717647" cx="32" cy="84" rx="14" ry="4" />
<ellipse fill="#00080d" fill-opacity="0.529412" cx="255" cy="115" rx="30" ry="112" />
<ellipse fill="#fff0da" fill-opacity="0.498039" cx="196" cy="61" rx="5" ry="13" />
<ellipse fill="#131800" fill-opacity="0.545098" cx="128" cy="78" rx="10" ry="5" />
<ellipse fill="#1e1c09" fill-opacity="0.415686" cx="186" cy="117" rx="3" ry="23" />
<ellipse fill="#333a34" fill-opacity="0.623529" cx="59" cy="11" rx="6" ry="29" />
<ellipse fill="#ffffff" fill-opacity="0.584314" cx="191" cy="144" rx="2" ry="16" />
<ellipse fill="#1a2318" fill-opacity="0.509804" cx="168" cy="104" rx="4" ry="22" />
<ellipse fill="#363f46" fill-opacity="0.807843" cx="0" cy="139" rx="25" ry="17" />
<ellipse fill="#95d3f6" fill-opacity="0.494118" cx="67" cy="57" rx="6" ry="31" />
<ellipse fill="#192a09" fill-opacity="0.450980" cx="33" cy="119" rx="12" ry="20" />
<ellipse fill="#faf4ea" fill-opacity="0.639216" cx="177" cy="70" rx="6" ry="18" />
<ellipse fill="#7bc9fb" fill-opacity="0.623529" cx="132" cy="21" rx="5" ry="30" />
<ellipse fill="#313a3f" fill-opacity="0.505882" cx="118" cy="66" rx="4" ry="23" />
<ellipse fill="#fffffd" fill-opacity="0.627451" cx="183" cy="135" rx="1" ry="20" />
<ellipse fill="#b2ccdd" fill-opacity="0.611765" cx="97" cy="63" rx="4" ry="11" />
<ellipse fill="#51534c" fill-opacity="0.521569" cx="55" cy="89" rx="25" ry="3" />
<ellipse fill="#1f180d" fill-opacity="0.490196" cx="197" cy="77" rx="19" ry="2" />
<ellipse fill="#303412" fill-opacity="0.521569" cx="113" cy="73" rx="15" ry="3" />
<ellipse fill="#fffbf0" fill-opacity="0.556863" cx="66" cy="84" rx="5" ry="4" />
<ellipse fill="#5b5557" fill-opacity="0.498039" cx="118" cy="92" rx="13" ry="11" />
<ellipse fill="#fefbf2" fill-opacity="0.498039" cx="107" cy="135" rx="2" ry="6" />
<ellipse fill="#2a2e0a" fill-opacity="0.678431" cx="94" cy="76" rx="11" ry="3" />
<ellipse fill="#073b79" fill-opacity="0.274510" cx="22" cy="7" rx="8" ry="24" />
<ellipse fill="#333b34" fill-opacity="0.607843" cx="180" cy="142" rx="2" ry="24" />
<ellipse fill="#fffffd" fill-opacity="0.352941" cx="170" cy="128" rx="7" ry="6" />
<ellipse fill="#79d3ff" fill-opacity="0.333333" cx="229" cy="7" rx="8" ry="10" />
<ellipse fill="#0f1409" fill-opacity="0.454902" cx="126" cy="115" rx="16" ry="10" />
<ellipse fill="#444625" fill-opacity="0.352941" cx="186" cy="31" rx="5" ry="18" />
<ellipse fill="#273124" fill-opacity="0.509804" cx="80" cy="84" rx="9" ry="3" />
<ellipse fill="#0d1a24" fill-opacity="0.478431" cx="98" cy="138" rx="6" ry="24" />
<ellipse fill="#c9bdba" fill-opacity="0.505882" cx="151" cy="61" rx="4" ry="4" />
<ellipse fill="#fffbff" fill-opacity="0.411765" cx="109" cy="78" rx="4" ry="4" />
<ellipse fill="#625820" fill-opacity="0.337255" cx="208" cy="47" rx="5" ry="29" />
<ellipse fill="#70c2f3" fill-opacity="0.576471" cx="89" cy="16" rx="26" ry="5" />
<ellipse fill="#1d2526" fill-opacity="0.772549" cx="199" cy="115" rx="7" ry="34" />
<ellipse fill="#47503f" fill-opacity="0.533333" cx="53" cy="1" rx="11" ry="27" />
</g>
</svg>