<svg xmlns="http://www.w3.org/2000/svg" version="1.1" width="256" height="128">
<rect x="0" y="0" width="256" height="128" fill="#f0f0f0" />
<g transform="scale(1.000000) translate(0.5 0.5)">
<ellipse fill="#091514" fill-opacity="0.584314" cx="118" cy="68" rx="163" ry="127" />
<ellipse fill="#281b00" fill-opacity="0.784314" cx="93" cy="117" rx="255" ry="19" />
<ellipse fill="#c0e2ff" fill-opacity="0.388235" cx="136" cy="40" rx="105" ry="43" />
<ellipse fill="#140e04" fill-opacity="0.827451" cx="10" cy="99" rx="32" ry="28" />
<ellipse fill="#00142a" fill-opacity="0.368627" cx="24" cy="12" rx="67" ry="15" />
<ellipse fill="#765f3d" fill-opacity="0.772549" cx="101" cy="101" rx="61" ry="14" />
<ellipse fill="#080013" fill-opacity="0.239216" cx="219" cy="55" rx="78" ry="12" />
<ellipse fill="#87d1ff" fill-opacity="0.364706" cx="173" cy="23" rx="106" ry="17" />
<ellipse fill="#150c04" fill-opacity="0.427451" cx="245" cy="110" rx="32" ry="30" />
<ellipse fill="#c6ac91" fill-opacity="0.392157" cx="79" cy="56" rx="85" ry="20" />
<ellipse fill="#91e2ff" fill-opacity="0.384314" cx="63" cy="37" rx="66" ry="9" />
<ellipse fill="#948272" fill-opacity="0.274510" cx="157" cy="76" rx="97" ry="30" />
<ellipse fill="#050c00" fill-opacity="0.384314" cx="167" cy="127" rx="89" ry="23" />
<ellipse fill="#5f758b" fill-opacity="0.498039" cx="86" cy="5" rx="43" ry="21" />
<ellipse fill="#6a552c" fill-opacity="0.466667" cx="199" cy="102" rx="51" ry="9" />
<ellipse fill="#072647" fill-opacity="0.541176" cx="255" cy="0" rx="45" ry="8" />
<ellipse fill="#181a1a" fill-opacity="0.588235" cx="0" cy="3" rx="26" ry="19" />
<ellipse fill="#1e1a0d" fill-opacity="0.560784" cx="44" cy="77" rx="32" ry="3" />
<ellipse fill="#765b3a" fill-opacity="0.839216" cx="90" cy="102" rx="20" ry="15" />
<ellipse fill="#221602" fill-opacity="0.650980" cx="90" cy="91" rx="11" ry="4" />
<ellipse fill="#010000" fill-opacity="0.552941" cx="64" cy="127" rx="24" ry="12" />
<ellipse fill="#e1a16a" fill-opacity="0.372549" cx="216" cy="40" rx="25" ry="6" />
<ellipse fill="#6c97a9" fill-opacity="0.450980" cx="27" cy="37" rx="20" ry="17" />
<ellipse fill="#99c4dd" fill-opacity="0.627451" cx="150" cy="28" rx="59" ry="10" />
<ellipse fill="#8f8f8c" fill-opacity="0.827451" cx="92" cy="83" rx="49" ry="4" />
<ellipse fill="#b6a692" fill-opacity="0.494118" cx="100" cy="69" rx="74" ry="8" />
<ellipse fill="#2a2013" fill-opacity="0.400000" cx="25" cy="99" rx="25" ry="27" />
<ellipse fill="#a09888" fill-opacity="0.678431" cx="198" cy="76" rx="41" ry="5" />
<ellipse fill="#5d6a83" fill-opacity="0.529412" cx="152" cy="61" rx="29" ry="6" />
<ellipse fill="#19344b" fill-opacity="0.156863" cx="237" cy="63" rx="36" ry="25" />
<ellipse fill="#0067dd" fill-opacity="0.101961" cx="197" cy="5" rx="76" ry="22" />
<ellipse fill="#717b80" fill-opacity="0.607843" cx="54" cy="59" rx="23" ry="6" />
<ellipse fill="#687c87" fill-opacity="0.654902" cx="173" cy="86" rx="58" ry="7" />
<ellipse fill="#000000" fill-opacity="0.572549" cx="25" cy="100" rx="11" ry="16" />
<ellipse fill="#ffd9c2" fill-opacity="0.309804" cx="116" cy="42" rx="19" ry="7" />
<ellipse fill="#a4825d" fill-opacity="0.462745" cx="87" cy="104" rx="12" ry="10" />
<ellipse fill="#b09766" fill-opacity="0.498039" cx="21" cy="64" rx="20" ry="9" />
<ellipse fill="#9b7f60" fill-opacity="0.627451" cx="48" cy="90" rx="13" ry="3" />
<ellipse fill="#5d4833" fill-opacity="0.537255" cx="3" cy="98" rx="11" ry="9" />
<ellipse fill="#5b4933" fill-opacity="0.333333" cx="43" cy="113" rx="21" ry="8" />
<ellipse fill="#cb9c71" fill-opacity="0.431373" cx="250" cy="35" rx="27" ry="4" />
<ellipse fill="#060500" fill-opacity="0.509804" cx="228" cy="127" rx="73" ry="11" />
<ellipse fill="#393814" fill-opacity="0.615686" cx="139" cy="111" rx="39" ry="7" />
<ellipse fill="#6b5c4a" fill-opacity="0.392157" cx="8" cy="55" rx="16" ry="8" />
<ellipse fill="#030400" fill-opacity="0.278431" cx="255" cy="0" rx="13" ry="14" />
<ellipse fill="#6d7f95" fill-opacity="0.580392" cx="174" cy="48" rx="26" ry="8" />
<ellipse fill="#a98663" fill-opacity="0.482353" cx="129" cy="97" rx="48" ry="3" />
<ellipse fill="#758e98" fill-opacity="0.427451" cx="231" cy="62" rx="10" ry="10" />
<ellipse fill="#c7ccc8" fill-opacity="0.352941" cx="74" cy="47" rx="25" ry="8" />
<ellipse fill="#6d5b4b" fill-opacity="0.521569" cx="209" cy="98" rx="16" ry="9" />
<ellipse fill="#727d8f" fill-opacity="0.513725" cx="112" cy="11" rx="30" ry="5" />
<ellipse fill="#94c6dd" fill-opacity="0.607843" cx="83" cy="37" rx="36" ry="7" />
<ellipse fill="#180800" fill-opacity="0.494118" cx="73" cy="95" rx="6" ry="3" />
<ellipse fill="#001a37" fill-opacity="0.149020" cx="255" cy="92" rx="49" ry="13" />
<ellipse fill="#628da6" fill-opacity="0.313725" cx="232" cy="17" rx="23" ry="14" />
<ellipse fill="#263b45" fill-opacity="0.513725" cx="0" cy="25" rx="13" ry="8" />
<ellipse fill="#080701" fill-opacity="0.678431" cx="11" cy="126" rx="12" ry="22" />
<ellipse fill="#47617c" fill-opacity="0.505882" cx="190" cy="0" rx="28" ry="5" />
<ellipse fill="#1c1505" fill-opacity="0.400000" cx="30" cy="87" rx="24" ry="3" />
<ellipse fill="#332d3a" fill-opacity="0.247059" cx="251" cy="46" rx="25" ry="9" />
<ellipse fill="#8c8683" fill-opacity="0.745098" cx="130" cy="85" rx="16" ry="7" />
<ellipse fill="#a77f75" fill-opacity="0.372549" cx="106" cy="58" rx="28" ry="9" />
<ellipse fill="#81b2da" fill-opacity="0.607843" cx="158" cy="9" rx="17" ry="8" />
<ellipse fill="#000000" fill-opacity="0.447059" cx="1" cy="81" rx="14" ry="9" />
<ellipse fill="#2c290a" fill-opacity="0.450980" cx="186" cy="117" rx="7" ry="23" />
<ellipse fill="#9aa5b6" fill-opacity="0.419608" cx="118" cy="20" rx="26" ry="7" />
<ellipse fill="#567180" fill-opacity="0.494118" cx="62" cy="21" rx="9" ry="10" />
<ellipse fill="#83bdd8" fill-opacity="0.313725" cx="203" cy="21" rx="25" ry="17" />
<ellipse fill="#ac9979" fill-opacity="0.392157" cx="225" cy="76" rx="24" ry="4" />
<ellipse fill="#4f321b" fill-opacity="0.521569" cx="249" cy="107" rx="32" ry="8" />
<ellipse fill="#caa993" fill-opacity="0.282353" cx="205" cy="45" rx="16" ry="5" />
<ellipse fill="#e3cdb6" fill-opacity="0.113725" cx="149" cy="72" rx="79" ry="7" />
<ellipse fill="#452a10" fill-opacity="0.423529" cx="105" cy="92" rx="16" ry="3" />
<ellipse fill="#586a7f" fill-opacity="0.498039" cx="201" cy="57" rx="26" ry="9" />
<ellipse fill="#3c474c" fill-opacity="0.337255" cx="36" cy="2" rx="23" ry="23" />
<ellipse fill="#777564" fill-opacity="0.454902" cx="39" cy="81" rx="13" ry="3" />
<ellipse fill="#727b8f" fill-opacity="0.439216" cx="149" cy="41" rx="12" ry="6" />
<ellipse fill="#744e25" fill-opacity="0.301961" cx="94" cy="115" rx="36" ry="3" />
<ellipse fill="#403d35" fill-opacity="0.968627" cx="58" cy="79" rx="24" ry="1" />
<ellipse fill="#fff5da" fill-opacity="0.137255" cx="197" cy="37" rx="40" ry="4" />
<ellipse fill="#747e84" fill-opacity="0.521569" cx="39" cy="56" rx="19" ry="5" />
<ellipse fill="#6c643e" fill-opacity="0.580392" cx="116" cy="101" rx="65" ry="3" />
<ellipse fill="#ae9a8a" fill-opacity="0.576471" cx="84" cy="85" rx="9" ry="4" />
<ellipse fill="#d3aa8a" fill-opacity="0.403922" cx="87" cy="59" rx="7" ry="16" />
<ellipse fill="#7a5d42" fill-opacity="0.352941" cx="11" cy="92" rx="4" ry="7" />
<ellipse fill="#5a778e" fill-opacity="0.584314" cx="80" cy="3" rx="18" ry="12" />
<ellipse fill="#503d2b" fill-opacity="0.537255" cx="52" cy="100" rx="11" ry="8" />
<ellipse fill="#7a715d" fill-opacity="0.505882" cx="22" cy="78" rx="3" ry="3" />
<ellipse fill="#858681" fill-opacity="0.380392" cx="7" cy="43" rx="54" ry="3" />
<ellipse fill="#e3cbbb" fill-opacity="0.439216" cx="64" cy="93" rx="3" ry="3" />
<ellipse fill="#2b2a0f" fill-opacity="0.580392" cx="194" cy="111" rx="28" ry="6" />
<ellipse fill="#ffbe8b" fill-opacity="0.431373" cx="124" cy="42" rx="6" ry="5" />
<ellipse fill="#a59297" fill-opacity="0.494118" cx="137" cy="50" rx="19" ry="9" />
<ellipse fill="#2e353e" fill-opacity="0.576471" cx="255" cy="58" rx="9" ry="11" />
<ellipse fill="#f9c168" fill-opacity="0.474510" cx="30" cy="65" rx="5" ry="3" />
<ellipse fill="#030500" fill-opacity="0.580392" cx="25" cy="97" rx="9" ry="16" />
<ellipse fill="#171204" fill-opacity="0.639216" cx="123" cy="126" rx="86" ry="5" />
<ellipse fill="#1c1b0e" fill-opacity="0.552941" cx="22" cy="74" rx="15" ry="2" />
<ellipse fill="#7db2c6" fill-opacity="0.431373" cx="40" cy="36" rx="23" ry="7" />
<ellipse fill="#97bcc1" fill-opacity="0.603922" cx="39" cy="47" rx="11" ry="3" />
</g>
</svg>