<svg xmlns="http://www.w3.org/2000/svg" version="1.1" width="256" height="128">
<rect x="0" y="0" width="256" height="128" fill="#f0f0f0" />
<g transform="scale(1.000000) translate(0.5 0.5)">
<ellipse fill="#000702" fill-opacity="0.596078" cx="89" cy="23" rx="168" ry="114" />
<ellipse fill="#d7cec1" fill-opacity="1.000000" cx="230" cy="83" rx="32" ry="29" />
<ellipse fill="#5495fb" fill-opacity="0.705882" cx="36" cy="11" rx="87" ry="26" />
<ellipse fill="#ffe1bf" fill-opacity="0.619608" cx="103" cy="127" rx="83" ry="19" />
<ellipse fill="#0a0700" fill-opacity="0.501961" cx="22" cy="74" rx="118" ry="28" />
<ellipse fill="#45442d" fill-opacity="0.709804" cx="197" cy="22" rx="73" ry="39" />
<ellipse fill="#1e2327" fill-opacity="0.745098" cx="0" cy="102" rx="15" ry="71" />
<ellipse fill="#3a350c" fill-opacity="0.454902" cx="125" cy="47" rx="72" ry="21" />
<ellipse fill="#679ee9" fill-opacity="0.509804" cx="29" cy="40" rx="20" ry="17" />
<ellipse fill="#e5bc72" fill-opacity="0.274510" cx="118" cy="95" rx="37" ry="23" />
<ellipse fill="#dcd2c4" fill-opacity="0.921569" cx="255" cy="96" rx="55" ry="46" />
<ellipse fill="#59502d" fill-opacity="0.627451" cx="174" cy="84" rx="27" ry="34" />
<ellipse fill="#9a8a77" fill-opacity="0.556863" cx="30" cy="117" rx="27" ry="17" />
<ellipse fill="#978775" fill-opacity="0.549020" cx="253" cy="80" rx="27" ry="12" />
<ellipse fill="#ead4b7" fill-opacity="0.619608" cx="133" cy="119" rx="15" ry="18" />
<ellipse fill="#181610" fill-opacity="0.596078" cx="125" cy="72" rx="7" ry="27" />
<ellipse fill="#9bc3ff" fill-opacity="0.184314" cx="112" cy="17" rx="46" ry="18" />
<ellipse fill="#574d3f" fill-opacity="0.643137" cx="176" cy="114" rx="22" ry="4" />
<ellipse fill="#71aeff" fill-opacity="0.627451" cx="49" cy="38" rx="14" ry="7" />
<ellipse fill="#f2e9db" fill-opacity="0.721569" cx="173" cy="127" rx="35" ry="11" />
<ellipse fill="#2e312d" fill-opacity="0.741176" cx="255" cy="10" rx="26" ry="40" />
<ellipse fill="#252012" fill-opacity="0.537255" cx="47" cy="65" rx="23" ry="21" />
<ellipse fill="#4d4828" fill-opacity="0.643137" cx="60" cy="98" rx="15" ry="15" />
<ellipse fill="#001037" fill-opacity="0.219608" cx="5" cy="12" rx="14" ry="35" />
<ellipse fill="#84813e" fill-opacity="0.635294" cx="147" cy="86" rx="15" ry="24" />
<ellipse fill="#eee7de" fill-opacity="0.854902" cx="213" cy="105" rx="13" ry="42" />
<ellipse fill="#161412" fill-opacity="0.517647" cx="82" cy="65" rx="22" ry="20" />
<ellipse fill="#565539" fill-opacity="0.666667" cx="202" cy="41" rx="27" ry="24" />
<ellipse fill="#080000" fill-opacity="0.403922" cx="78" cy="107" rx="24" ry="3" />
<ellipse fill="#aadaff" fill-opacity="0.298039" cx="23" cy="57" rx="4" ry="20" />
<ellipse fill="#ebdbff" fill-opacity="0.203922" cx="89" cy="86" rx="26" ry="4" />
<ellipse fill="#5c5336" fill-opacity="0.580392" cx="133" cy="11" rx="20" ry="5" />
<ellipse fill="#87a0c4" fill-opacity="0.603922" cx="152" cy="25" rx="20" ry="2" />
<ellipse fill="#575632" fill-opacity="0.643137" cx="129" cy="36" rx="65" ry="9" />
<ellipse fill="#638dd3" fill-opacity="1.000000" cx="120" cy="3" rx="15" ry="4" />
<ellipse fill="#1c1b19" fill-opacity="0.486275" cx="243" cy="6" rx="31" ry="10" />
<ellipse fill="#c8aa96" fill-opacity="0.674510" cx="90" cy="100" rx="15" ry="3" />
<ellipse fill="#597ec3" fill-opacity="0.568627" cx="244" cy="20" rx="9" ry="3" />
<ellipse fill="#c8b096" fill-opacity="0.803922" cx="116" cy="127" rx="25" ry="22" />
<ellipse fill="#595136" fill-opacity="0.568627" cx="38" cy="56" rx="13" ry="10" />
<ellipse fill="#76859d" fill-opacity="0.419608" cx="214" cy="27" rx="18" ry="4" />
<ellipse fill="#7d6b4e" fill-opacity="0.196078" cx="255" cy="104" rx="9" ry="38" />
<ellipse fill="#fbffff" fill-opacity="0.501961" cx="104" cy="76" rx="3" ry="4" />
<ellipse fill="#443637" fill-opacity="0.576471" cx="104" cy="98" rx="3" ry="13" />
<ellipse fill="#fffef0" fill-opacity="0.611765" cx="119" cy="94" rx="2" ry="5" />
<ellipse fill="#29271a" fill-opacity="0.372549" cx="118" cy="57" rx="26" ry="18" />
<ellipse fill="#cbbfaf" fill-opacity="0.843137" cx="243" cy="79" rx="28" ry="5" />
<ellipse fill="#000517" fill-opacity="0.349020" cx="7" cy="94" rx="18" ry="14" />
<ellipse fill="#030a0f" fill-opacity="0.525490" cx="33" cy="76" rx="10" ry="10" />
<ellipse fill="#504d3b" fill-opacity="0.796078" cx="164" cy="16" rx="33" ry="5" />
<ellipse fill="#151116" fill-opacity="0.478431" cx="90" cy="95" rx="24" ry="2" />
<ellipse fill="#647fa2" fill-opacity="0.490196" cx="12" cy="47" rx="3" ry="18" />
<ellipse fill="#b5a58c" fill-opacity="0.376471" cx="40" cy="116" rx="12" ry="17" />
<ellipse fill="#202025" fill-opacity="0.537255" cx="171" cy="58" rx="6" ry="13" />
<ellipse fill="#574c36" fill-opacity="0.329412" cx="175" cy="112" rx="27" ry="6" />
<ellipse fill="#24231a" fill-opacity="0.505882" cx="194" cy="40" rx="10" ry="9" />
<ellipse fill="#fffbeb" fill-opacity="0.521569" cx="135" cy="111" rx="5" ry="7" />
<ellipse fill="#090701" fill-opacity="0.282353" cx="8" cy="127" rx="11" ry="8" />
<ellipse fill="#699df1" fill-opacity="0.392157" cx="92" cy="18" rx="36" ry="9" />
<ellipse fill="#ffffff" fill-opacity="0.513725" cx="149" cy="119" rx="8" ry="5" />
<ellipse fill="#7a7445" fill-opacity="0.470588" cx="149" cy="70" rx="8" ry="46" />
<ellipse fill="#4467af" fill-opacity="0.270588" cx="8" cy="75" rx="20" ry="5" />
<ellipse fill="#5e93e2" fill-opacity="0.509804" cx="39" cy="28" rx="28" ry="17" />
<ellipse fill="#6f6d5e" fill-opacity="0.556863" cx="173" cy="2" rx="10" ry="17" />
<ellipse fill="#383531" fill-opacity="0.709804" cx="87" cy="82" rx="15" ry="3" />
<ellipse fill="#b6a28c" fill-opacity="0.541176" cx="61" cy="119" rx="31" ry="9" />
<ellipse fill="#221f1c" fill-opacity="0.513725" cx="120" cy="76" rx="9" ry="14" />
<ellipse fill="#3c6bb6" fill-opacity="0.384314" cx="11" cy="4" rx="28" ry="31" />
<ellipse fill="#78a1e9" fill-opacity="0.768627" cx="145" cy="23" rx="6" ry="3" />
<ellipse fill="#000100" fill-opacity="0.521569" cx="0" cy="58" rx="8" ry="15" />
<ellipse fill="#5b582e" fill-opacity="0.486275" cx="231" cy="41" rx="27" ry="12" />
<ellipse fill="#454035" fill-opacity="0.482353" cx="173" cy="84" rx="25" ry="7" />
<ellipse fill="#c5af96" fill-opacity="0.443137" cx="102" cy="123" rx="43" ry="16" />
<ellipse fill="#262312" fill-opacity="0.431373" cx="8" cy="47" rx="3" ry="17" />
<ellipse fill="#ebe2d3" fill-opacity="0.619608" cx="204" cy="124" rx="14" ry="14" />
<ellipse fill="#666537" fill-opacity="0.533333" cx="52" cy="100" rx="8" ry="11" />
<ellipse fill="#659be8" fill-opacity="0.345098" cx="19" cy="47" rx="10" ry="9" />
<ellipse fill="#f2edea" fill-opacity="0.560784" cx="225" cy="66" rx="13" ry="7" />
<ellipse fill="#867758" fill-opacity="0.470588" cx="238" cy="127" rx="5" ry="4" />
<ellipse fill="#353125" fill-opacity="0.580392" cx="214" cy="1" rx="32" ry="8" />
<ellipse fill="#efebe5" fill-opacity="0.427451" cx="211" cy="80" rx="12" ry="15" />
<ellipse fill="#728fbd" fill-opacity="0.568627" cx="127" cy="5" rx="15" ry="3" />
<ellipse fill="#373620" fill-opacity="0.584314" cx="60" cy="103" rx="13" ry="8" />
<ellipse fill="#5b5638" fill-opacity="0.513725" cx="195" cy="56" rx="18" ry="13" />
<ellipse fill="#7e6b56" fill-opacity="0.376471" cx="255" cy="85" rx="15" ry="5" />
<ellipse fill="#f3d8d6" fill-opacity="0.392157" cx="94" cy="89" rx="5" ry="4" />
<ellipse fill="#847e4f" fill-opacity="0.533333" cx="182" cy="95" rx="6" ry="8" />
<ellipse fill="#130c00" fill-opacity="0.435294" cx="21" cy="62" rx="7" ry="3" />
<ellipse fill="#8e8c49" fill-opacity="0.478431" cx="139" cy="89" rx="11" ry="15" />
<ellipse fill="#fae7ee" fill-opacity="0.411765" cx="112" cy="89" rx="3" ry="3" />
<ellipse fill="#636236" fill-opacity="0.364706" cx="120" cy="40" rx="11" ry="16" />
<ellipse fill="#040911" fill-opacity="0.556863" cx="44" cy="82" rx="5" ry="10" />
<ellipse fill="#7d9cce" fill-opacity="0.552941" cx="124" cy="19" rx="13" ry="2" />
<ellipse fill="#65614a" fill-opacity="0.509804" cx="126" cy="9" rx="13" ry="4" />
<ellipse fill="#1f1816" fill-opacity="0.392157" cx="126" cy="94" rx="4" ry="9" />
<ellipse fill="#514f35" fill-opacity="0.466667" cx="160" cy="38" rx="28" ry="13" />
<ellipse fill="#444936" fill-opacity="0.396078" cx="82" cy="44" rx="27" ry="9" />
<ellipse fill="#7a7542" fill-opacity="0.494118" cx="197" cy="12" rx="9" ry="5" />
<ellipse fill="#7a716a" fill-opacity="0.478431" cx="4" cy="115" rx="29" ry="5" />
<ellipse fill="#222527" fill-opacity="0.705882" cx="239" cy="24" rx="8" ry="4" />
</g>
</svg>