<svg xmlns="http://www.w3.org/2000/svg" version="1.1" width="256" height="128">
<rect x="0" y="0" width="256" height="128" fill="#f0f0f0" />
<g transform="scale(1.000000) translate(0.5 0.5)">
<ellipse fill="#572b0e" fill-opacity="0.596078" cx="139" cy="55" rx="171" ry="127" />
<ellipse fill="#c9dcea" fill-opacity="0.643137" cx="119" cy="25" rx="105" ry="33" />
<ellipse fill="#532503" fill-opacity="0.623529" cx="23" cy="102" rx="65" ry="61" />
<ellipse fill="#833504" fill-opacity="0.607843" cx="243" cy="103" rx="99" ry="36" />
<ellipse fill="#001b65" fill-opacity="0.341176" cx="232" cy="17" rx="48" ry="18" />
<ellipse fill="#c46f38" fill-opacity="0.525490" cx="126" cy="97" rx="84" ry="36" />
<ellipse fill="#0f110b" fill-opacity="0.615686" cx="52" cy="48" rx="65" ry="4" />
<ellipse fill="#00060b" fill-opacity="0.341176" cx="246" cy="109" rx="24" ry="61" />
<ellipse fill="#bae5ff" fill-opacity="0.525490" cx="131" cy="0" rx="82" ry="21" />
<ellipse fill="#00264d" fill-opacity="0.513725" cx="15" cy="0" rx="41" ry="11" />
<ellipse fill="#e2ddba" fill-opacity="0.658824" cx="44" cy="32" rx="57" ry="12" />
<ellipse fill="#2a180a" fill-opacity="0.619608" cx="0" cy="94" rx="24" ry="54" />
<ellipse fill="#ff9a57" fill-opacity="0.427451" cx="188" cy="73" rx="60" ry="8" />
<ellipse fill="#e0d0c6" fill-opacity="0.509804" cx="205" cy="42" rx="140" ry="8" />
<ellipse fill="#ced1c1" fill-opacity="0.576471" cx="61" cy="53" rx="37" ry="3" />
<ellipse fill="#9699b0" fill-opacity="0.400000" cx="195" cy="12" rx="33" ry="54" />
<ellipse fill="#2e2b0c" fill-opacity="0.576471" cx="179" cy="87" rx="30" ry="5" />
<ellipse fill="#000e24" fill-opacity="0.258824" cx="250" cy="11" rx="15" ry="52" />
<ellipse fill="#220b00" fill-opacity="0.619608" cx="110" cy="75" rx="6" ry="11" />
<ellipse fill="#0f95ff" fill-opacity="0.160784" cx="231" cy="57" rx="128" ry="8" />
<ellipse fill="#e18048" fill-opacity="0.490196" cx="149" cy="101" rx="35" ry="14" />
<ellipse fill="#001827" fill-opacity="0.509804" cx="0" cy="6" rx="10" ry="21" />
<ellipse fill="#292208" fill-opacity="0.674510" cx="218" cy="92" rx="21" ry="5" />
<ellipse fill="#fbcdad" fill-opacity="0.250980" cx="143" cy="60" rx="40" ry="10" />
<ellipse fill="#c77546" fill-opacity="0.411765" cx="255" cy="82" rx="68" ry="7" />
<ellipse fill="#8a5531" fill-opacity="0.807843" cx="58" cy="73" rx="27" ry="16" />
<ellipse fill="#ffebc1" fill-opacity="0.584314" cx="92" cy="77" rx="8" ry="6" />
<ellipse fill="#181200" fill-opacity="0.678431" cx="249" cy="100" rx="21" ry="7" />
<ellipse fill="#fff0dc" fill-opacity="0.403922" cx="139" cy="18" rx="39" ry="6" />
<ellipse fill="#501a18" fill-opacity="0.160784" cx="203" cy="29" rx="53" ry="7" />
<ellipse fill="#8b5d3f" fill-opacity="0.556863" cx="78" cy="112" rx="30" ry="33" />
<ellipse fill="#35231c" fill-opacity="0.411765" cx="91" cy="50" rx="36" ry="2" />
<ellipse fill="#d37b3f" fill-opacity="0.584314" cx="131" cy="83" rx="19" ry="18" />
<ellipse fill="#b2dfd7" fill-opacity="0.490196" cx="18" cy="25" rx="15" ry="10" />
<ellipse fill="#938899" fill-opacity="0.439216" cx="63" cy="23" rx="32" ry="4" />
<ellipse fill="#191e17" fill-opacity="0.333333" cx="34" cy="47" rx="44" ry="5" />
<ellipse fill="#eddac7" fill-opacity="0.427451" cx="183" cy="41" rx="47" ry="6" />
<ellipse fill="#210d02" fill-opacity="0.509804" cx="68" cy="69" rx="10" ry="5" />
<ellipse fill="#7192a7" fill-opacity="0.741176" cx="57" cy="0" rx="17" ry="4" />
<ellipse fill="#e17d3a" fill-opacity="0.549020" cx="87" cy="63" rx="30" ry="3" />
<ellipse fill="#030400" fill-opacity="0.560784" cx="8" cy="57" rx="17" ry="4" />
<ellipse fill="#2b1405" fill-opacity="0.431373" cx="11" cy="126" rx="28" ry="17" />
<ellipse fill="#37526d" fill-opacity="0.349020" cx="228" cy="58" rx="26" ry="10" />
<ellipse fill="#aadced" fill-opacity="0.462745" cx="75" cy="9" rx="38" ry="8" />
<ellipse fill="#ceeeff" fill-opacity="0.498039" cx="124" cy="0" rx="23" ry="22" />
<ellipse fill="#6a3f21" fill-opacity="0.564706" cx="28" cy="95" rx="20" ry="20" />
<ellipse fill="#9f97a9" fill-opacity="0.729412" cx="203" cy="14" rx="23" ry="6" />
<ellipse fill="#e0915a" fill-opacity="0.698039" cx="152" cy="67" rx="36" ry="5" />
<ellipse fill="#a36e47" fill-opacity="0.596078" cx="51" cy="78" rx="10" ry="14" />
<ellipse fill="#261100" fill-opacity="0.329412" cx="255" cy="126" rx="14" ry="51" />
<ellipse fill="#edd6c1" fill-opacity="0.466667" cx="115" cy="40" rx="67" ry="6" />
<ellipse fill="#212c35" fill-opacity="0.498039" cx="255" cy="12" rx="12" ry="21" />
<ellipse fill="#ffbc8e" fill-opacity="0.356863" cx="164" cy="21" rx="28" ry="4" />
<ellipse fill="#b37b56" fill-opacity="0.623529" cx="114" cy="110" rx="31" ry="10" />
<ellipse fill="#503a17" fill-opacity="0.556863" cx="124" cy="74" rx="9" ry="3" />
<ellipse fill="#88c8db" fill-opacity="0.537255" cx="14" cy="14" rx="3" ry="8" />
<ellipse fill="#3e3210" fill-opacity="0.580392" cx="172" cy="85" rx="16" ry="5" />
<ellipse fill="#552910" fill-opacity="0.674510" cx="77" cy="71" rx="10" ry="4" />
<ellipse fill="#975f40" fill-opacity="0.745098" cx="162" cy="124" rx="35" ry="5" />
<ellipse fill="#6d7b84" fill-opacity="0.525490" cx="172" cy="60" rx="39" ry="3" />
<ellipse fill="#a5b5be" fill-opacity="0.788235" cx="119" cy="57" rx="17" ry="5" />
<ellipse fill="#2e1106" fill-opacity="0.454902" cx="97" cy="95" rx="5" ry="5" />
<ellipse fill="#803b13" fill-opacity="0.329412" cx="51" cy="121" rx="24" ry="24" />
<ellipse fill="#844a2b" fill-opacity="0.466667" cx="255" cy="83" rx="30" ry="13" />
<ellipse fill="#c67d50" fill-opacity="0.439216" cx="207" cy="78" rx="27" ry="8" />
<ellipse fill="#efd28d" fill-opacity="0.376471" cx="32" cy="40" rx="31" ry="4" />
<ellipse fill="#7bcbff" fill-opacity="0.368627" cx="189" cy="0" rx="31" ry="5" />
<ellipse fill="#1d2103" fill-opacity="0.498039" cx="142" cy="78" rx="7" ry="2" />
<ellipse fill="#e6bb93" fill-opacity="0.345098" cx="89" cy="86" rx="5" ry="12" />
<ellipse fill="#4b73a3" fill-opacity="0.396078" cx="223" cy="6" rx="18" ry="7" />
<ellipse fill="#23160d" fill-opacity="0.345098" cx="96" cy="48" rx="25" ry="2" />
<ellipse fill="#e8e8d2" fill-opacity="0.380392" cx="58" cy="34" rx="25" ry="10" />
<ellipse fill="#c6a8aa" fill-opacity="0.690196" cx="153" cy="33" rx="17" ry="5" />
<ellipse fill="#251b11" fill-opacity="0.537255" cx="45" cy="57" rx="38" ry="1" />
<ellipse fill="#b8bcbb" fill-opacity="0.545098" cx="95" cy="53" rx="63" ry="3" />
<ellipse fill="#9f5027" fill-opacity="0.443137" cx="220" cy="107" rx="16" ry="8" />
<ellipse fill="#6a5444" fill-opacity="1.000000" cx="73" cy="58" rx="25" ry="1" />
<ellipse fill="#836d52" fill-opacity="0.274510" cx="58" cy="94" rx="24" ry="15" />
<ellipse fill="#a3aac7" fill-opacity="0.533333" cx="112" cy="26" rx="23" ry="6" />
<ellipse fill="#3a342b" fill-opacity="0.478431" cx="56" cy="48" rx="28" ry="4" />
<ellipse fill="#afc2bb" fill-opacity="0.298039" cx="239" cy="37" rx="34" ry="4" />
<ellipse fill="#3e5360" fill-opacity="0.345098" cx="235" cy="28" rx="20" ry="8" />
<ellipse fill="#5c2c10" fill-opacity="0.427451" cx="227" cy="127" rx="18" ry="16" />
<ellipse fill="#d17844" fill-opacity="0.407843" cx="171" cy="100" rx="32" ry="10" />
<ellipse fill="#fae6e0" fill-opacity="0.380392" cx="140" cy="23" rx="10" ry="8" />
<ellipse fill="#9e95a7" fill-opacity="0.450980" cx="194" cy="16" rx="15" ry="14" />
<ellipse fill="#856c60" fill-opacity="0.458824" cx="222" cy="64" rx="34" ry="3" />
<ellipse fill="#de864d" fill-opacity="0.552941" cx="131" cy="87" rx="17" ry="9" />
<ellipse fill="#dd915d" fill-opacity="0.447059" cx="149" cy="69" rx="28" ry="8" />
<ellipse fill="#2c270c" fill-opacity="0.513725" cx="195" cy="88" rx="17" ry="3" />
<ellipse fill="#7692af" fill-opacity="0.450980" cx="194" cy="54" rx="35" ry="5" />
<ellipse fill="#d38451" fill-opacity="0.611765" cx="191" cy="71" rx="20" ry="7" />
<ellipse fill="#e7cfb9" fill-opacity="0.443137" cx="88" cy="107" rx="3" ry="4" />
<ellipse fill="#9c9a9d" fill-opacity="0.584314" cx="57" cy="20" rx="18" ry="4" />
<ellipse fill="#925433" fill-opacity="0.443137" cx="233" cy="79" rx="15" ry="12" />
<ellipse fill="#1b313f" fill-opacity="0.494118" cx="0" cy="15" rx="13" ry="5" />
<ellipse fill="#eec096" fill-opacity="0.454902" cx="78" cy="115" rx="2" ry="4" />
<ellipse fill="#86aac6" fill-opacity="0.525490" cx="93" cy="9" rx="7" ry="4" />
<ellipse fill="#1c1902" fill-opacity="0.427451" cx="223" cy="95" rx="9" ry="5" />
<ellipse fill="#864926" fill-opacity="0.509804" cx="83" cy="127" rx="29" ry="6" />
</g>
</svg>