<svg xmlns="http://www.w3.org/2000/svg" version="1.1" width="256" height="143">
<rect x="0" y="0" width="256" height="143" fill="#f0f0f0" />
<g transform="scale(1.000000) translate(0.5 0.5)">
<ellipse fill="#02101e" fill-opacity="0.501961" cx="107" cy="91" rx="203" ry="142" />
<ellipse fill="#c1dcf2" fill-opacity="0.643137" cx="42" cy="24" rx="65" ry="31" />
<ellipse fill="#d1e9ff" fill-opacity="0.560784" cx="175" cy="39" rx="35" ry="44" />
<ellipse fill="#100714" fill-opacity="0.376471" cx="27" cy="127" rx="104" ry="59" />
<ellipse fill="#181401" fill-opacity="0.517647" cx="228" cy="118" rx="36" ry="71" />
<ellipse fill="#9acafc" fill-opacity="0.541176" cx="230" cy="17" rx="73" ry="32" />
<ellipse fill="#522a00" fill-opacity="0.396078" cx="140" cy="26" rx="21" ry="25" />
<ellipse fill="#5e5240" fill-opacity="0.862745" cx="75" cy="62" rx="15" ry="27" />
<ellipse fill="#000409" fill-opacity="0.596078" cx="3" cy="123" rx="17" ry="58" />
<ellipse fill="#dbdde0" fill-opacity="0.564706" cx="160" cy="66" rx="26" ry="30" />
<ellipse fill="#e5ebe9" fill-opacity="0.541176" cx="30" cy="48" rx="22" ry="22" />
<ellipse fill="#5f6053" fill-opacity="0.878431" cx="213" cy="85" rx="21" ry="36" />
<ellipse fill="#edd8c8" fill-opacity="0.509804" cx="109" cy="64" rx="23" ry="9" />
<ellipse fill="#afcdef" fill-opacity="0.650980" cx="82" cy="0" rx="34" ry="34" />
<ellipse fill="#9ea6b0" fill-opacity="0.721569" cx="185" cy="78" rx="41" ry="5" />
<ellipse fill="#676976" fill-opacity="0.835294" cx="142" cy="121" rx="65" ry="27" />
<ellipse fill="#613c00" fill-opacity="0.321569" cx="113" cy="45" rx="27" ry="16" />
<ellipse fill="#a9b9cc" fill-opacity="0.270588" cx="54" cy="103" rx="33" ry="14" />
<ellipse fill="#000022" fill-opacity="0.301961" cx="234" cy="139" rx="62" ry="20" />
<ellipse fill="#1d2400" fill-opacity="0.423529" cx="228" cy="66" rx="35" ry="10" />
<ellipse fill="#c0a48c" fill-opacity="0.560784" cx="204" cy="111" rx="37" ry="4" />
<ellipse fill="#5d5243" fill-opacity="0.674510" cx="62" cy="73" rx="24" ry="19" />
<ellipse fill="#10161f" fill-opacity="0.478431" cx="12" cy="142" rx="41" ry="19" />
<ellipse fill="#543c0d" fill-opacity="0.537255" cx="107" cy="49" rx="3" ry="29" />
<ellipse fill="#bbd4eb" fill-opacity="0.478431" cx="194" cy="32" rx="37" ry="19" />
<ellipse fill="#001c45" fill-opacity="0.105882" cx="0" cy="20" rx="28" ry="43" />
<ellipse fill="#3a342e" fill-opacity="0.843137" cx="132" cy="61" rx="3" ry="21" />
<ellipse fill="#cdd9e0" fill-opacity="0.411765" cx="32" cy="41" rx="34" ry="20" />
<ellipse fill="#f7ffff" fill-opacity="0.372549" cx="122" cy="62" rx="8" ry="12" />
<ellipse fill="#815f58" fill-opacity="0.533333" cx="87" cy="83" rx="39" ry="12" />
<ellipse fill="#7a9bbd" fill-opacity="0.694118" cx="255" cy="6" rx="29" ry="55" />
<ellipse fill="#eac7a7" fill-opacity="0.427451" cx="150" cy="91" rx="34" ry="5" />
<ellipse fill="#cabdac" fill-opacity="0.560784" cx="41" cy="93" rx="27" ry="3" />
<ellipse fill="#000000" fill-opacity="0.294118" cx="251" cy="123" rx="9" ry="65" />
<ellipse fill="#ab7133" fill-opacity="0.537255" cx="124" cy="29" rx="29" ry="4" />
<ellipse fill="#5f7289" fill-opacity="0.635294" cx="155" cy="6" rx="4" ry="41" />
<ellipse fill="#dee2eb" fill-opacity="0.505882" cx="166" cy="62" rx="29" ry="14" />
<ellipse fill="#1e1b14" fill-opacity="0.588235" cx="221" cy="103" rx="17" ry="4" />
<ellipse fill="#8eaed6" fill-opacity="0.427451" cx="176" cy="2" rx="33" ry="23" />
<ellipse fill="#dfdbdb" fill-opacity="0.462745" cx="186" cy="73" rx="16" ry="5" />
<ellipse fill="#2f1600" fill-opacity="0.235294" cx="145" cy="20" rx="12" ry="15" />
<ellipse fill="#687b86" fill-opacity="0.341176" cx="166" cy="81" rx="43" ry="5" />
<ellipse fill="#c8bdac" fill-opacity="0.694118" cx="192" cy="70" rx="2" ry="37" />
<ellipse fill="#4e5802" fill-opacity="0.447059" cx="223" cy="57" rx="17" ry="11" />
<ellipse fill="#5e4714" fill-opacity="0.443137" cx="135" cy="10" rx="5" ry="52" />
<ellipse fill="#000f20" fill-opacity="0.501961" cx="52" cy="87" rx="13" ry="4" />
<ellipse fill="#4f4c39" fill-opacity="0.537255" cx="119" cy="42" rx="12" ry="13" />
<ellipse fill="#470815" fill-opacity="0.470588" cx="96" cy="95" rx="14" ry="6" />
<ellipse fill="#ebe4d7" fill-opacity="0.529412" cx="24" cy="63" rx="13" ry="6" />
<ellipse fill="#f1ffff" fill-opacity="0.490196" cx="142" cy="45" rx="3" ry="12" />
<ellipse fill="#6d5e5f" fill-opacity="0.576471" cx="185" cy="106" rx="6" ry="27" />
<ellipse fill="#dad9d7" fill-opacity="0.368627" cx="94" cy="71" rx="12" ry="6" />
<ellipse fill="#af8636" fill-opacity="0.498039" cx="97" cy="51" rx="9" ry="10" />
<ellipse fill="#424e61" fill-opacity="0.415686" cx="33" cy="113" rx="21" ry="19" />
<ellipse fill="#a7c4e5" fill-opacity="0.627451" cx="174" cy="15" rx="27" ry="4" />
<ellipse fill="#a0a6a6" fill-opacity="0.517647" cx="118" cy="3" rx="8" ry="27" />
<ellipse fill="#d8e5f0" fill-opacity="0.501961" cx="90" cy="33" rx="8" ry="8" />
<ellipse fill="#38455b" fill-opacity="0.376471" cx="123" cy="142" rx="88" ry="10" />
<ellipse fill="#6d6d73" fill-opacity="0.745098" cx="185" cy="107" rx="22" ry="5" />
<ellipse fill="#7c7b86" fill-opacity="0.423529" cx="139" cy="109" rx="45" ry="15" />
<ellipse fill="#5377a9" fill-opacity="0.478431" cx="255" cy="2" rx="22" ry="20" />
<ellipse fill="#2c332e" fill-opacity="0.486275" cx="69" cy="62" rx="15" ry="9" />
<ellipse fill="#000004" fill-opacity="0.431373" cx="250" cy="140" rx="24" ry="12" />
<ellipse fill="#525a61" fill-opacity="0.627451" cx="116" cy="80" rx="5" ry="11" />
<ellipse fill="#bf7436" fill-opacity="0.576471" cx="135" cy="28" rx="16" ry="4" />
<ellipse fill="#004eb2" fill-opacity="0.105882" cx="18" cy="0" rx="68" ry="12" />
<ellipse fill="#f1f4ff" fill-opacity="0.592157" cx="127" cy="63" rx="2" ry="13" />
<ellipse fill="#bbd0e4" fill-opacity="0.619608" cx="46" cy="30" rx="23" ry="16" />
<ellipse fill="#1e170f" fill-opacity="0.462745" cx="153" cy="35" rx="3" ry="6" />
<ellipse fill="#50525c" fill-opacity="0.803922" cx="227" cy="120" rx="9" ry="8" />
<ellipse fill="#efeeeb" fill-opacity="0.364706" cx="220" cy="76" rx="3" ry="6" />
<ellipse fill="#a5bbc7" fill-opacity="0.466667" cx="255" cy="43" rx="26" ry="12" />
<ellipse fill="#594518" fill-opacity="0.450980" cx="134" cy="20" rx="28" ry="2" />
<ellipse fill="#484e4b" fill-opacity="0.552941" cx="2" cy="61" rx="10" ry="9" />
<ellipse fill="#dac1a6" fill-opacity="0.517647" cx="202" cy="113" rx="19" ry="2" />
<ellipse fill="#8c8a8e" fill-opacity="0.894118" cx="135" cy="88" rx="15" ry="4" />
<ellipse fill="#595d5c" fill-opacity="0.713725" cx="0" cy="49" rx="1" ry="26" />
<ellipse fill="#151c36" fill-opacity="0.501961" cx="208" cy="87" rx="10" ry="4" />
<ellipse fill="#886d63" fill-opacity="0.717647" cx="89" cy="83" rx="6" ry="11" />
<ellipse fill="#fed8b3" fill-opacity="0.462745" cx="155" cy="117" rx="29" ry="1" />
<ellipse fill="#e4cbc0" fill-opacity="0.486275" cx="127" cy="92" rx="21" ry="2" />
<ellipse fill="#c8d0d8" fill-opacity="0.752941" cx="201" cy="77" rx="11" ry="2" />
<ellipse fill="#8d8677" fill-opacity="0.549020" cx="53" cy="80" rx="29" ry="2" />
<ellipse fill="#fd7b82" fill-opacity="0.619608" cx="69" cy="85" rx="3" ry="5" />
<ellipse fill="#b7cbdc" fill-opacity="0.474510" cx="115" cy="30" rx="3" ry="7" />
<ellipse fill="#fed3a1" fill-opacity="0.337255" cx="230" cy="111" rx="19" ry="2" />
<ellipse fill="#6b7372" fill-opacity="0.854902" cx="216" cy="83" rx="3" ry="14" />
<ellipse fill="#e5e5eb" fill-opacity="0.627451" cx="145" cy="68" rx="11" ry="6" />
<ellipse fill="#616a7d" fill-opacity="0.552941" cx="69" cy="111" rx="34" ry="14" />
<ellipse fill="#cce6f7" fill-opacity="0.305882" cx="188" cy="45" rx="29" ry="10" />
<ellipse fill="#362d25" fill-opacity="0.639216" cx="228" cy="99" rx="7" ry="10" />
<ellipse fill="#847b70" fill-opacity="0.501961" cx="192" cy="37" rx="1" ry="36" />
<ellipse fill="#506078" fill-opacity="0.380392" cx="148" cy="42" rx="2" ry="17" />
<ellipse fill="#8d9eae" fill-opacity="0.454902" cx="161" cy="27" rx="8" ry="12" />
<ellipse fill="#0b0f04" fill-opacity="0.509804" cx="253" cy="74" rx="25" ry="5" />
<ellipse fill="#000106" fill-opacity="0.627451" cx="6" cy="101" rx="11" ry="6" />
<ellipse fill="#2b3844" fill-opacity="0.733333" cx="8" cy="86" rx="24" ry="4" />
<ellipse fill="#000b08" fill-opacity="0.282353" cx="106" cy="98" rx="17" ry="3" />
<ellipse fill="#97b6dd" fill-opacity="0.749020" cx="170" cy="2" rx="27" ry="4" />
<ellipse fill="#9accfb" fill-opacity="0.435294" cx="230" cy="82" rx="2" ry="8" />
</g>
</svg>