<svg xmlns="http://www.w3.org/2000/svg" version="1.1" width="256" height="128">
<rect x="0" y="0" width="256" height="128" fill="#f0f0f0" />
<g transform="scale(1.000000) translate(0.5 0.5)">
<ellipse fill="#384d60" fill-opacity="0.705882" cx="116" cy="61" rx="205" ry="95" />
<ellipse fill="#4d2e0f" fill-opacity="0.670588" cx="12" cy="89" rx="46" ry="51" />
<ellipse fill="#70bfff" fill-opacity="0.596078" cx="164" cy="25" rx="141" ry="27" />
<ellipse fill="#ec9349" fill-opacity="0.407843" cx="101" cy="108" rx="71" ry="48" />
<ellipse fill="#1b2f4e" fill-opacity="0.588235" cx="247" cy="105" rx="44" ry="50" />
<ellipse fill="#00377d" fill-opacity="0.494118" cx="255" cy="0" rx="47" ry="32" />
<ellipse fill="#0055ab" fill-opacity="0.486275" cx="0" cy="0" rx="68" ry="38" />
<ellipse fill="#beedff" fill-opacity="0.435294" cx="169" cy="39" rx="60" ry="14" />
<ellipse fill="#4f473a" fill-opacity="0.623529" cx="104" cy="54" rx="35" ry="9" />
<ellipse fill="#723100" fill-opacity="0.415686" cx="190" cy="127" rx="26" ry="24" />
<ellipse fill="#273237" fill-opacity="0.760784" cx="28" cy="51" rx="34" ry="9" />
<ellipse fill="#8cc2ff" fill-opacity="0.270588" cx="197" cy="86" rx="34" ry="17" />
<ellipse fill="#7e654d" fill-opacity="0.564706" cx="52" cy="107" rx="25" ry="52" />
<ellipse fill="#d8e1eb" fill-opacity="0.529412" cx="234" cy="51" rx="69" ry="3" />
<ellipse fill="#4c4836" fill-opacity="0.474510" cx="171" cy="57" rx="65" ry="5" />
<ellipse fill="#0c0300" fill-opacity="0.352941" cx="1" cy="88" rx="15" ry="56" />
<ellipse fill="#edc19d" fill-opacity="0.258824" cx="111" cy="89" rx="23" ry="32" />
<ellipse fill="#8dcef8" fill-opacity="0.254902" cx="82" cy="30" rx="83" ry="16" />
<ellipse fill="#4f6a89" fill-opacity="0.713725" cx="217" cy="88" rx="18" ry="28" />
<ellipse fill="#00275f" fill-opacity="0.403922" cx="0" cy="0" rx="24" ry="33" />
<ellipse fill="#4485c8" fill-opacity="0.654902" cx="74" cy="0" rx="36" ry="14" />
<ellipse fill="#15253a" fill-opacity="0.478431" cx="255" cy="104" rx="14" ry="50" />
<ellipse fill="#4a9add" fill-opacity="0.364706" cx="205" cy="22" rx="36" ry="18" />
<ellipse fill="#2f332b" fill-opacity="0.635294" cx="84" cy="48" rx="28" ry="3" />
<ellipse fill="#8c9cae" fill-opacity="0.545098" cx="138" cy="67" rx="18" ry="11" />
<ellipse fill="#b1d4f9" fill-opacity="0.368627" cx="177" cy="87" rx="11" ry="11" />
<ellipse fill="#987c65" fill-opacity="0.513725" cx="83" cy="65" rx="28" ry="12" />
<ellipse fill="#1f4772" fill-opacity="0.266667" cx="255" cy="7" rx="20" ry="47" />
<ellipse fill="#6a99bc" fill-opacity="0.427451" cx="37" cy="35" rx="5" ry="23" />
<ellipse fill="#131627" fill-opacity="0.352941" cx="136" cy="79" rx="3" ry="15" />
<ellipse fill="#2f1500" fill-opacity="0.168627" cx="52" cy="122" rx="45" ry="9" />
<ellipse fill="#5289b9" fill-opacity="0.478431" cx="175" cy="69" rx="36" ry="8" />
<ellipse fill="#24261d" fill-opacity="0.439216" cx="233" cy="59" rx="30" ry="4" />
<ellipse fill="#9bccec" fill-opacity="0.513725" cx="105" cy="36" rx="28" ry="11" />
<ellipse fill="#81aecd" fill-opacity="0.282353" cx="240" cy="39" rx="36" ry="18" />
<ellipse fill="#b39072" fill-opacity="0.568627" cx="141" cy="127" rx="35" ry="31" />
<ellipse fill="#b99574" fill-opacity="0.329412" cx="80" cy="94" rx="38" ry="16" />
<ellipse fill="#4385b9" fill-opacity="0.403922" cx="28" cy="28" rx="30" ry="14" />
<ellipse fill="#3a261c" fill-opacity="0.392157" cx="217" cy="125" rx="27" ry="6" />
<ellipse fill="#babbb8" fill-opacity="0.592157" cx="197" cy="60" rx="7" ry="3" />
<ellipse fill="#7a8ead" fill-opacity="0.580392" cx="207" cy="100" rx="9" ry="10" />
<ellipse fill="#f4eae1" fill-opacity="0.380392" cx="68" cy="52" rx="8" ry="3" />
<ellipse fill="#114e7f" fill-opacity="0.235294" cx="234" cy="71" rx="45" ry="12" />
<ellipse fill="#1f2017" fill-opacity="0.474510" cx="54" cy="52" rx="7" ry="9" />
<ellipse fill="#9ca6ad" fill-opacity="0.615686" cx="81" cy="55" rx="19" ry="2" />
<ellipse fill="#736462" fill-opacity="0.529412" cx="154" cy="88" rx="11" ry="10" />
<ellipse fill="#544d43" fill-opacity="0.592157" cx="51" cy="58" rx="3" ry="23" />
<ellipse fill="#78b8ec" fill-opacity="0.450980" cx="150" cy="24" rx="51" ry="12" />
<ellipse fill="#497db8" fill-opacity="0.498039" cx="201" cy="0" rx="21" ry="15" />
<ellipse fill="#424941" fill-opacity="0.603922" cx="160" cy="58" rx="16" ry="5" />
<ellipse fill="#afa197" fill-opacity="0.525490" cx="125" cy="69" rx="12" ry="11" />
<ellipse fill="#7d634f" fill-opacity="0.486275" cx="181" cy="118" rx="15" ry="19" />
<ellipse fill="#add5ec" fill-opacity="0.501961" cx="159" cy="43" rx="35" ry="9" />
<ellipse fill="#242825" fill-opacity="0.501961" cx="132" cy="53" rx="6" ry="5" />
<ellipse fill="#8da2bc" fill-opacity="0.635294" cx="171" cy="75" rx="18" ry="4" />
<ellipse fill="#002562" fill-opacity="0.298039" cx="255" cy="0" rx="27" ry="14" />
<ellipse fill="#8e6b4c" fill-opacity="0.501961" cx="62" cy="71" rx="19" ry="13" />
<ellipse fill="#001735" fill-opacity="0.168627" cx="2" cy="21" rx="9" ry="47" />
<ellipse fill="#6a93c1" fill-opacity="0.454902" cx="64" cy="20" rx="23" ry="8" />
<ellipse fill="#a0b6cc" fill-opacity="0.462745" cx="239" cy="49" rx="25" ry="7" />
<ellipse fill="#f2e4dd" fill-opacity="0.435294" cx="139" cy="58" rx="4" ry="3" />
<ellipse fill="#141914" fill-opacity="0.313725" cx="77" cy="51" rx="9" ry="6" />
<ellipse fill="#394e68" fill-opacity="0.541176" cx="228" cy="86" rx="10" ry="13" />
<ellipse fill="#54443a" fill-opacity="0.509804" cx="199" cy="119" rx="16" ry="11" />
<ellipse fill="#61462e" fill-opacity="0.384314" cx="22" cy="91" rx="15" ry="33" />
<ellipse fill="#3373a6" fill-opacity="0.168627" cx="255" cy="36" rx="35" ry="18" />
<ellipse fill="#85a9cf" fill-opacity="0.784314" cx="173" cy="92" rx="12" ry="4" />
<ellipse fill="#7399bf" fill-opacity="0.505882" cx="203" cy="75" rx="24" ry="2" />
<ellipse fill="#5885ab" fill-opacity="0.396078" cx="143" cy="64" rx="35" ry="3" />
<ellipse fill="#c1d4de" fill-opacity="0.580392" cx="204" cy="50" rx="32" ry="3" />
<ellipse fill="#64a0cf" fill-opacity="0.517647" cx="45" cy="28" rx="4" ry="20" />
<ellipse fill="#7a6854" fill-opacity="0.486275" cx="42" cy="98" rx="12" ry="24" />
<ellipse fill="#c4a080" fill-opacity="0.603922" cx="114" cy="76" rx="19" ry="10" />
<ellipse fill="#286cb0" fill-opacity="0.341176" cx="33" cy="13" rx="19" ry="12" />
<ellipse fill="#dcd4c6" fill-opacity="0.490196" cx="62" cy="51" rx="3" ry="3" />
<ellipse fill="#d6cec8" fill-opacity="0.435294" cx="38" cy="53" rx="6" ry="2" />
<ellipse fill="#a6b3c5" fill-opacity="0.505882" cx="92" cy="57" rx="8" ry="2" />
<ellipse fill="#57564a" fill-opacity="0.596078" cx="78" cy="60" rx="28" ry="2" />
<ellipse fill="#373925" fill-opacity="0.517647" cx="80" cy="46" rx="2" ry="5" />
<ellipse fill="#557698" fill-opacity="0.317647" cx="190" cy="72" rx="22" ry="11" />
<ellipse fill="#161d1d" fill-opacity="0.764706" cx="8" cy="54" rx="17" ry="5" />
<ellipse fill="#2a302f" fill-opacity="0.647059" cx="108" cy="53" rx="5" ry="5" />
<ellipse fill="#1f161b" fill-opacity="0.509804" cx="136" cy="84" rx="2" ry="8" />
<ellipse fill="#907662" fill-opacity="0.482353" cx="170" cy="115" rx="12" ry="19" />
<ellipse fill="#2d3f4b" fill-opacity="0.545098" cx="20" cy="44" rx="14" ry="4" />
<ellipse fill="#b89579" fill-opacity="0.450980" cx="143" cy="95" rx="6" ry="25" />
<ellipse fill="#5e6c8d" fill-opacity="0.192157" cx="234" cy="114" rx="19" ry="10" />
<ellipse fill="#9e7551" fill-opacity="0.376471" cx="91" cy="122" rx="25" ry="11" />
<ellipse fill="#6caad6" fill-opacity="0.576471" cx="40" cy="35" rx="11" ry="9" />
<ellipse fill="#8ec6eb" fill-opacity="0.607843" cx="171" cy="37" rx="39" ry="6" />
<ellipse fill="#b18a6a" fill-opacity="0.274510" cx="86" cy="90" rx="23" ry="30" />
<ellipse fill="#070f0c" fill-opacity="0.474510" cx="60" cy="47" rx="11" ry="2" />
<ellipse fill="#000c48" fill-opacity="0.168627" cx="0" cy="0" rx="43" ry="8" />
<ellipse fill="#081010" fill-opacity="0.670588" cx="52" cy="47" rx="3" ry="5" />
<ellipse fill="#292016" fill-opacity="0.266667" cx="17" cy="127" rx="34" ry="7" />
<ellipse fill="#2a2824" fill-opacity="0.517647" cx="255" cy="59" rx="36" ry="3" />
<ellipse fill="#353f3e" fill-opacity="0.458824" cx="181" cy="56" rx="12" ry="3" />
<ellipse fill="#85a6d3" fill-opacity="0.521569" cx="121" cy="13" rx="42" ry="4" />
<ellipse fill="#97bae5" fill-opacity="0.341176" cx="190" cy="96" rx="7" ry="6" />
<ellipse fill="#949499" fill-opacity="0.549020" cx="74" cy="50" rx="2" ry="3" />
</g>
</svg>