<svg xmlns="http://www.w3.org/2000/svg" version="1.1" width="128" height="256">
<rect x="0" y="0" width="128" height="256" fill="#f0f0f0" />
<g transform="scale(1.000000) translate(0.5 0.5)">
<ellipse fill="#282213" fill-opacity="0.650980" cx="59" cy="127" rx="127" ry="165" />
<ellipse fill="#ebf2fc" fill-opacity="0.756863" cx="127" cy="170" rx="30" ry="42" />
<ellipse fill="#222611" fill-opacity="0.396078" cx="58" cy="119" rx="32" ry="58" />
<ellipse fill="#fb9564" fill-opacity="0.564706" cx="23" cy="54" rx="10" ry="48" />
<ellipse fill="#ffddff" fill-opacity="0.721569" cx="127" cy="112" rx="11" ry="18" />
<ellipse fill="#7d9286" fill-opacity="0.831373" cx="99" cy="210" rx="35" ry="23" />
<ellipse fill="#121d29" fill-opacity="0.474510" cx="21" cy="245" rx="57" ry="20" />
<ellipse fill="#0f2d14" fill-opacity="0.458824" cx="106" cy="14" rx="30" ry="26" />
<ellipse fill="#e2f5ff" fill-opacity="0.631373" cx="107" cy="176" rx="16" ry="13" />
<ellipse fill="#25211c" fill-opacity="0.494118" cx="82" cy="54" rx="6" ry="149" />
<ellipse fill="#030000" fill-opacity="0.596078" cx="9" cy="6" rx="13" ry="11" />
<ellipse fill="#8aa199" fill-opacity="0.807843" cx="92" cy="95" rx="5" ry="52" />
<ellipse fill="#c3b168" fill-opacity="0.607843" cx="61" cy="75" rx="8" ry="17" />
<ellipse fill="#a97256" fill-opacity="1.000000" cx="14" cy="90" rx="13" ry="27" />
<ellipse fill="#001312" fill-opacity="0.490196" cx="122" cy="82" rx="15" ry="14" />
<ellipse fill="#76aaa3" fill-opacity="0.458824" cx="6" cy="183" rx="40" ry="19" />
<ellipse fill="#00f7dc" fill-opacity="0.478431" cx="77" cy="207" rx="11" ry="9" />
<ellipse fill="#6f4c3c" fill-opacity="0.988235" cx="39" cy="43" rx="7" ry="121" />
<ellipse fill="#250001" fill-opacity="0.588235" cx="62" cy="46" rx="9" ry="9" />
<ellipse fill="#782c46" fill-opacity="0.807843" cx="105" cy="138" rx="5" ry="11" />
<ellipse fill="#f2feff" fill-opacity="0.784314" cx="127" cy="149" rx="20" ry="20" />
<ellipse fill="#bf0b31" fill-opacity="0.435294" cx="83" cy="181" rx="7" ry="24" />
<ellipse fill="#00a078" fill-opacity="0.556863" cx="110" cy="239" rx="12" ry="7" />
<ellipse fill="#180b17" fill-opacity="0.509804" cx="3" cy="144" rx="9" ry="12" />
<ellipse fill="#e0dcc9" fill-opacity="0.431373" cx="91" cy="41" rx="2" ry="67" />
<ellipse fill="#74dcd3" fill-opacity="0.458824" cx="104" cy="100" rx="4" ry="23" />
<ellipse fill="#ffa778" fill-opacity="0.392157" cx="27" cy="31" rx="8" ry="41" />
<ellipse fill="#d2ddca" fill-opacity="0.490196" cx="108" cy="34" rx="2" ry="20" />
<ellipse fill="#a66140" fill-opacity="0.584314" cx="6" cy="62" rx="10" ry="35" />
<ellipse fill="#f36f00" fill-opacity="0.513725" cx="52" cy="66" rx="13" ry="7" />
<ellipse fill="#006fa0" fill-opacity="0.764706" cx="73" cy="67" rx="7" ry="8" />
<ellipse fill="#e0c1be" fill-opacity="0.560784" cx="13" cy="125" rx="2" ry="31" />
<ellipse fill="#440519" fill-opacity="0.545098" cx="25" cy="141" rx="8" ry="13" />
<ellipse fill="#d5c594" fill-opacity="0.996078" cx="127" cy="198" rx="6" ry="17" />
<ellipse fill="#36261b" fill-opacity="0.572549" cx="55" cy="74" rx="33" ry="3" />
<ellipse fill="#7b1e37" fill-opacity="0.392157" cx="124" cy="225" rx="15" ry="15" />
<ellipse fill="#242c1b" fill-opacity="0.686275" cx="86" cy="46" rx="3" ry="63" />
<ellipse fill="#39403b" fill-opacity="0.533333" cx="70" cy="153" rx="29" ry="23" />
<ellipse fill="#596872" fill-opacity="0.490196" cx="44" cy="218" rx="24" ry="30" />
<ellipse fill="#00d7b3" fill-opacity="0.686275" cx="85" cy="218" rx="5" ry="7" />
<ellipse fill="#13251b" fill-opacity="0.486275" cx="47" cy="105" rx="6" ry="28" />
<ellipse fill="#718f7b" fill-opacity="0.607843" cx="77" cy="33" rx="3" ry="29" />
<ellipse fill="#645037" fill-opacity="0.572549" cx="14" cy="24" rx="8" ry="15" />
<ellipse fill="#b97e76" fill-opacity="0.474510" cx="90" cy="252" rx="15" ry="19" />
<ellipse fill="#25001a" fill-opacity="0.239216" cx="113" cy="103" rx="7" ry="29" />
<ellipse fill="#40342d" fill-opacity="0.631373" cx="125" cy="54" rx="17" ry="9" />
<ellipse fill="#fff5ff" fill-opacity="0.513725" cx="64" cy="85" rx="4" ry="6" />
<ellipse fill="#dae8ff" fill-opacity="0.556863" cx="106" cy="174" rx="14" ry="15" />
<ellipse fill="#811023" fill-opacity="0.607843" cx="91" cy="255" rx="7" ry="13" />
<ellipse fill="#582100" fill-opacity="0.317647" cx="99" cy="63" rx="5" ry="28" />
<ellipse fill="#b29495" fill-opacity="0.458824" cx="96" cy="203" rx="11" ry="21" />
<ellipse fill="#483230" fill-opacity="0.580392" cx="7" cy="138" rx="4" ry="32" />
<ellipse fill="#fbffff" fill-opacity="0.266667" cx="107" cy="76" rx="2" ry="26" />
<ellipse fill="#01100c" fill-opacity="0.486275" cx="41" cy="42" rx="5" ry="12" />
<ellipse fill="#00745a" fill-opacity="0.588235" cx="123" cy="250" rx="11" ry="6" />
<ellipse fill="#b2b5ce" fill-opacity="0.400000" cx="69" cy="185" rx="8" ry="8" />
<ellipse fill="#bfb19d" fill-opacity="0.701961" cx="0" cy="122" rx="3" ry="14" />
<ellipse fill="#86c9aa" fill-opacity="0.274510" cx="60" cy="22" rx="12" ry="14" />
<ellipse fill="#4f3438" fill-opacity="0.407843" cx="29" cy="96" rx="7" ry="26" />
<ellipse fill="#19120e" fill-opacity="0.588235" cx="71" cy="251" rx="5" ry="19" />
<ellipse fill="#b77365" fill-opacity="0.603922" cx="35" cy="151" rx="8" ry="5" />
<ellipse fill="#9e827f" fill-opacity="0.537255" cx="38" cy="98" rx="3" ry="23" />
<ellipse fill="#985d61" fill-opacity="0.643137" cx="26" cy="121" rx="11" ry="9" />
<ellipse fill="#c57449" fill-opacity="0.588235" cx="34" cy="22" rx="11" ry="12" />
<ellipse fill="#e3a476" fill-opacity="0.525490" cx="18" cy="84" rx="3" ry="37" />
<ellipse fill="#242524" fill-opacity="0.513725" cx="52" cy="186" rx="6" ry="7" />
<ellipse fill="#223533" fill-opacity="0.658824" cx="75" cy="98" rx="5" ry="26" />
<ellipse fill="#ebfff6" fill-opacity="0.501961" cx="126" cy="42" rx="7" ry="3" />
<ellipse fill="#b2d2b1" fill-opacity="0.384314" cx="93" cy="29" rx="3" ry="13" />
<ellipse fill="#65514b" fill-opacity="0.427451" cx="115" cy="212" rx="5" ry="23" />
<ellipse fill="#000805" fill-opacity="0.658824" cx="43" cy="0" rx="3" ry="13" />
<ellipse fill="#7d9698" fill-opacity="0.686275" cx="91" cy="134" rx="5" ry="10" />
<ellipse fill="#313636" fill-opacity="0.435294" cx="6" cy="255" rx="26" ry="39" />
<ellipse fill="#daf7ff" fill-opacity="0.588235" cx="101" cy="255" rx="4" ry="6" />
<ellipse fill="#652439" fill-opacity="0.611765" cx="114" cy="121" rx="8" ry="4" />
<ellipse fill="#f9d8f2" fill-opacity="0.580392" cx="120" cy="114" rx="5" ry="5" />
<ellipse fill="#f72746" fill-opacity="0.435294" cx="81" cy="180" rx="6" ry="8" />
<ellipse fill="#faffff" fill-opacity="0.713725" cx="127" cy="132" rx="9" ry="11" />
<ellipse fill="#6e1e3a" fill-opacity="0.458824" cx="88" cy="159" rx="6" ry="21" />
<ellipse fill="#82787e" fill-opacity="0.435294" cx="13" cy="184" rx="13" ry="37" />
<ellipse fill="#002614" fill-opacity="0.156863" cx="113" cy="0" rx="79" ry="14" />
<ellipse fill="#c1dcb7" fill-opacity="0.388235" cx="126" cy="65" rx="26" ry="3" />
<ellipse fill="#5db591" fill-opacity="0.431373" cx="34" cy="180" rx="13" ry="14" />
<ellipse fill="#4a5150" fill-opacity="0.635294" cx="42" cy="200" rx="14" ry="8" />
<ellipse fill="#772349" fill-opacity="0.443137" cx="127" cy="181" rx="3" ry="7" />
<ellipse fill="#7c2340" fill-opacity="0.701961" cx="100" cy="141" rx="4" ry="10" />
<ellipse fill="#3d9584" fill-opacity="0.443137" cx="93" cy="86" rx="2" ry="49" />
<ellipse fill="#61a2f6" fill-opacity="0.243137" cx="125" cy="169" rx="8" ry="14" />
<ellipse fill="#a2cdd7" fill-opacity="0.380392" cx="82" cy="243" rx="4" ry="9" />
<ellipse fill="#36543e" fill-opacity="0.462745" cx="66" cy="123" rx="19" ry="34" />
<ellipse fill="#00c49e" fill-opacity="0.509804" cx="87" cy="220" rx="4" ry="9" />
<ellipse fill="#222b19" fill-opacity="0.462745" cx="85" cy="40" rx="5" ry="44" />
<ellipse fill="#828588" fill-opacity="0.129412" cx="27" cy="221" rx="51" ry="20" />
<ellipse fill="#009e72" fill-opacity="0.521569" cx="101" cy="233" rx="8" ry="4" />
<ellipse fill="#9e847a" fill-opacity="0.576471" cx="104" cy="214" rx="9" ry="18" />
<ellipse fill="#dcd0cc" fill-opacity="0.443137" cx="90" cy="82" rx="2" ry="25" />
<ellipse fill="#ffffff" fill-opacity="0.376471" cx="64" cy="79" rx="4" ry="4" />
<ellipse fill="#feaf8c" fill-opacity="0.596078" cx="25" cy="62" rx="8" ry="8" />
<ellipse fill="#190f06" fill-opacity="0.498039" cx="38" cy="39" rx="5" ry="7" />
<ellipse fill="#d58961" fill-opacity="0.670588" cx="10" cy="103" rx="7" ry="8" />
</g>
</svg>