<svg xmlns="http://www.w3.org/2000/svg" version="1.1" width="256" height="128">
<rect x="0" y="0" width="256" height="128" fill="#f0f0f0" />
<g transform="scale(1.000000) translate(0.5 0.5)">
<ellipse fill="#101002" fill-opacity="0.572549" cx="119" cy="74" rx="187" ry="127" />
<ellipse fill="#c7b9af" fill-opacity="0.603922" cx="107" cy="100" rx="55" ry="55" />
<ellipse fill="#121d00" fill-opacity="0.388235" cx="40" cy="28" rx="111" ry="33" />
<ellipse fill="#bfc7d1" fill-opacity="0.674510" cx="197" cy="37" rx="53" ry="13" />
<ellipse fill="#01060d" fill-opacity="0.674510" cx="215" cy="82" rx="23" ry="20" />
<ellipse fill="#020000" fill-opacity="0.321569" cx="3" cy="82" rx="33" ry="46" />
<ellipse fill="#3a414d" fill-opacity="0.572549" cx="245" cy="104" rx="22" ry="78" />
<ellipse fill="#faffe7" fill-opacity="0.682353" cx="156" cy="14" rx="5" ry="25" />
<ellipse fill="#b7b0aa" fill-opacity="0.627451" cx="108" cy="70" rx="19" ry="34" />
<ellipse fill="#ffffff" fill-opacity="0.482353" cx="179" cy="38" rx="11" ry="15" />
<ellipse fill="#feebdc" fill-opacity="0.313725" cx="72" cy="74" rx="33" ry="15" />
<ellipse fill="#888689" fill-opacity="0.929412" cx="162" cy="109" rx="27" ry="30" />
<ellipse fill="#8292a4" fill-opacity="0.647059" cx="245" cy="29" rx="55" ry="17" />
<ellipse fill="#b3c0c7" fill-opacity="0.509804" cx="16" cy="5" rx="10" ry="13" />
<ellipse fill="#706863" fill-opacity="0.513725" cx="43" cy="105" rx="33" ry="27" />
<ellipse fill="#000000" fill-opacity="0.662745" cx="252" cy="88" rx="4" ry="21" />
<ellipse fill="#212830" fill-opacity="0.560784" cx="201" cy="68" rx="19" ry="16" />
<ellipse fill="#3a3c46" fill-opacity="0.462745" cx="161" cy="69" rx="12" ry="25" />
<ellipse fill="#555826" fill-opacity="0.560784" cx="197" cy="6" rx="34" ry="10" />
<ellipse fill="#323202" fill-opacity="0.431373" cx="166" cy="19" rx="9" ry="12" />
<ellipse fill="#28340d" fill-opacity="0.490196" cx="79" cy="9" rx="40" ry="16" />
<ellipse fill="#686d72" fill-opacity="0.737255" cx="241" cy="38" rx="9" ry="82" />
<ellipse fill="#f8e9cf" fill-opacity="0.556863" cx="105" cy="118" rx="5" ry="29" />
<ellipse fill="#f9fffb" fill-opacity="0.654902" cx="122" cy="0" rx="4" ry="8" />
<ellipse fill="#322f2a" fill-opacity="0.592157" cx="126" cy="43" rx="17" ry="6" />
<ellipse fill="#a09a93" fill-opacity="0.752941" cx="121" cy="72" rx="21" ry="27" />
<ellipse fill="#9cafc6" fill-opacity="0.713725" cx="211" cy="34" rx="12" ry="20" />
<ellipse fill="#030103" fill-opacity="0.278431" cx="214" cy="92" rx="18" ry="25" />
<ellipse fill="#2f371e" fill-opacity="0.631373" cx="2" cy="52" rx="58" ry="15" />
<ellipse fill="#8e877d" fill-opacity="0.776471" cx="79" cy="95" rx="23" ry="10" />
<ellipse fill="#545e67" fill-opacity="0.717647" cx="216" cy="32" rx="26" ry="2" />
<ellipse fill="#555f69" fill-opacity="0.682353" cx="223" cy="59" rx="18" ry="10" />
<ellipse fill="#5b5a45" fill-opacity="0.752941" cx="140" cy="2" rx="13" ry="23" />
<ellipse fill="#927863" fill-opacity="0.517647" cx="65" cy="37" rx="10" ry="10" />
<ellipse fill="#32461e" fill-opacity="0.623529" cx="39" cy="17" rx="22" ry="11" />
<ellipse fill="#eceaec" fill-opacity="0.541176" cx="177" cy="48" rx="7" ry="12" />
<ellipse fill="#ffffea" fill-opacity="0.270588" cx="158" cy="15" rx="5" ry="24" />
<ellipse fill="#b3afac" fill-opacity="0.623529" cx="209" cy="104" rx="4" ry="5" />
<ellipse fill="#9b9793" fill-opacity="0.623529" cx="147" cy="58" rx="5" ry="26" />
<ellipse fill="#83898f" fill-opacity="0.741176" cx="255" cy="13" rx="12" ry="37" />
<ellipse fill="#b4a9a3" fill-opacity="0.658824" cx="113" cy="53" rx="29" ry="5" />
<ellipse fill="#5d6968" fill-opacity="0.486275" cx="15" cy="35" rx="30" ry="7" />
<ellipse fill="#e6e4e1" fill-opacity="0.501961" cx="106" cy="43" rx="5" ry="8" />
<ellipse fill="#797b5a" fill-opacity="0.521569" cx="90" cy="13" rx="4" ry="23" />
<ellipse fill="#110a0f" fill-opacity="0.521569" cx="135" cy="42" rx="7" ry="8" />
<ellipse fill="#848286" fill-opacity="0.650980" cx="170" cy="95" rx="29" ry="11" />
<ellipse fill="#9597a1" fill-opacity="0.600000" cx="206" cy="122" rx="6" ry="11" />
<ellipse fill="#3a3100" fill-opacity="0.219608" cx="175" cy="20" rx="24" ry="5" />
<ellipse fill="#dccaaa" fill-opacity="0.321569" cx="99" cy="124" rx="31" ry="15" />
<ellipse fill="#464c50" fill-opacity="0.603922" cx="236" cy="60" rx="4" ry="39" />
<ellipse fill="#e7e7e7" fill-opacity="0.282353" cx="68" cy="73" rx="9" ry="16" />
<ellipse fill="#32373c" fill-opacity="0.584314" cx="198" cy="35" rx="4" ry="4" />
<ellipse fill="#2d2d28" fill-opacity="0.541176" cx="211" cy="0" rx="9" ry="15" />
<ellipse fill="#75787d" fill-opacity="0.501961" cx="231" cy="110" rx="16" ry="7" />
<ellipse fill="#251703" fill-opacity="0.356863" cx="98" cy="109" rx="2" ry="18" />
<ellipse fill="#6d6653" fill-opacity="0.396078" cx="36" cy="63" rx="12" ry="15" />
<ellipse fill="#949090" fill-opacity="0.862745" cx="154" cy="127" rx="30" ry="25" />
<ellipse fill="#e3f1ff" fill-opacity="0.290196" cx="212" cy="39" rx="21" ry="5" />
<ellipse fill="#e9f6ff" fill-opacity="0.501961" cx="20" cy="6" rx="7" ry="2" />
<ellipse fill="#343a1e" fill-opacity="0.584314" cx="51" cy="25" rx="8" ry="32" />
<ellipse fill="#d3ca5b" fill-opacity="0.658824" cx="227" cy="6" rx="6" ry="3" />
<ellipse fill="#71819a" fill-opacity="0.447059" cx="221" cy="49" rx="36" ry="4" />
<ellipse fill="#b8bd70" fill-opacity="0.529412" cx="177" cy="9" rx="3" ry="11" />
<ellipse fill="#1d2711" fill-opacity="0.670588" cx="4" cy="57" rx="13" ry="14" />
<ellipse fill="#fff8cc" fill-opacity="0.396078" cx="184" cy="31" rx="8" ry="9" />
<ellipse fill="#1b1c1d" fill-opacity="0.545098" cx="203" cy="86" rx="5" ry="26" />
<ellipse fill="#817c74" fill-opacity="0.737255" cx="58" cy="106" rx="20" ry="18" />
<ellipse fill="#e2edf7" fill-opacity="0.486275" cx="91" cy="71" rx="8" ry="7" />
<ellipse fill="#585a6a" fill-opacity="0.352941" cx="171" cy="78" rx="27" ry="14" />
<ellipse fill="#44474d" fill-opacity="0.482353" cx="85" cy="79" rx="6" ry="2" />
<ellipse fill="#000000" fill-opacity="0.607843" cx="109" cy="31" rx="5" ry="3" />
<ellipse fill="#150c00" fill-opacity="0.368627" cx="255" cy="126" rx="14" ry="9" />
<ellipse fill="#cdbda7" fill-opacity="0.501961" cx="126" cy="94" rx="6" ry="18" />
<ellipse fill="#06080d" fill-opacity="0.498039" cx="93" cy="40" rx="8" ry="5" />
<ellipse fill="#dddbda" fill-opacity="0.560784" cx="104" cy="39" rx="3" ry="6" />
<ellipse fill="#000000" fill-opacity="0.572549" cx="141" cy="49" rx="5" ry="2" />
<ellipse fill="#ffffe4" fill-opacity="0.501961" cx="157" cy="33" rx="8" ry="3" />
<ellipse fill="#21211d" fill-opacity="0.505882" cx="197" cy="71" rx="4" ry="24" />
<ellipse fill="#0c0d0d" fill-opacity="0.713725" cx="221" cy="93" rx="9" ry="10" />
<ellipse fill="#3b3423" fill-opacity="0.560784" cx="167" cy="27" rx="3" ry="7" />
<ellipse fill="#2b3021" fill-opacity="0.631373" cx="7" cy="20" rx="4" ry="12" />
<ellipse fill="#b58557" fill-opacity="0.443137" cx="55" cy="68" rx="11" ry="6" />
<ellipse fill="#a7a2a1" fill-opacity="0.396078" cx="151" cy="40" rx="11" ry="8" />
<ellipse fill="#000a14" fill-opacity="0.368627" cx="255" cy="81" rx="6" ry="27" />
<ellipse fill="#746d49" fill-opacity="0.466667" cx="192" cy="4" rx="9" ry="25" />
<ellipse fill="#161d0a" fill-opacity="0.435294" cx="65" cy="0" rx="13" ry="15" />
<ellipse fill="#b5b8b3" fill-opacity="0.345098" cx="223" cy="62" rx="5" ry="7" />
<ellipse fill="#98b2c8" fill-opacity="0.615686" cx="222" cy="18" rx="12" ry="4" />
<ellipse fill="#403e2f" fill-opacity="0.596078" cx="131" cy="39" rx="20" ry="3" />
<ellipse fill="#fcfafa" fill-opacity="0.396078" cx="213" cy="103" rx="3" ry="3" />
<ellipse fill="#392c15" fill-opacity="0.533333" cx="67" cy="115" rx="4" ry="4" />
<ellipse fill="#ced9ec" fill-opacity="0.513725" cx="9" cy="0" rx="5" ry="4" />
<ellipse fill="#2e2e32" fill-opacity="0.537255" cx="186" cy="63" rx="1" ry="21" />
<ellipse fill="#464545" fill-opacity="0.678431" cx="163" cy="48" rx="4" ry="5" />
<ellipse fill="#b6c7d3" fill-opacity="0.419608" cx="34" cy="32" rx="3" ry="4" />
<ellipse fill="#dfeefe" fill-opacity="0.294118" cx="207" cy="51" rx="8" ry="3" />
<ellipse fill="#2a311e" fill-opacity="0.505882" cx="102" cy="15" rx="18" ry="8" />
<ellipse fill="#403b3b" fill-opacity="0.521569" cx="0" cy="111" rx="16" ry="39" />
<ellipse fill="#9c9691" fill-opacity="0.380392" cx="189" cy="97" rx="15" ry="5" />
<ellipse fill="#0a0b08" fill-opacity="0.756863" cx="249" cy="101" rx="2" ry="7" />
</g>
</svg>