<svg xmlns="http://www.w3.org/2000/svg" version="1.1" width="256" height="128">
<rect x="0" y="0" width="256" height="128" fill="#f0f0f0" />
<g transform="scale(1.000000) translate(0.5 0.5)">
<ellipse fill="#5b5548" fill-opacity="0.631373" cx="126" cy="66" rx="163" ry="127" />
<ellipse fill="#191517" fill-opacity="0.490196" cx="131" cy="64" rx="38" ry="23" />
<ellipse fill="#fff9ec" fill-opacity="0.356863" cx="111" cy="106" rx="100" ry="24" />
<ellipse fill="#2f2c22" fill-opacity="0.705882" cx="255" cy="0" rx="124" ry="14" />
<ellipse fill="#2f2f28" fill-opacity="0.654902" cx="0" cy="0" rx="130" ry="12" />
<ellipse fill="#4c4845" fill-opacity="1.000000" cx="140" cy="69" rx="30" ry="18" />
<ellipse fill="#e4d4b2" fill-opacity="0.549020" cx="238" cy="39" rx="12" ry="22" />
<ellipse fill="#a9a9a4" fill-opacity="0.580392" cx="195" cy="77" rx="29" ry="51" />
<ellipse fill="#232214" fill-opacity="0.380392" cx="223" cy="4" rx="12" ry="31" />
<ellipse fill="#635948" fill-opacity="0.494118" cx="255" cy="93" rx="16" ry="40" />
<ellipse fill="#a1a7a7" fill-opacity="0.376471" cx="170" cy="27" rx="23" ry="34" />
<ellipse fill="#6d6659" fill-opacity="0.443137" cx="36" cy="52" rx="20" ry="32" />
<ellipse fill="#8c745c" fill-opacity="0.552941" cx="139" cy="109" rx="18" ry="10" />
<ellipse fill="#ccd0d0" fill-opacity="0.290196" cx="76" cy="99" rx="68" ry="23" />
<ellipse fill="#a0a39f" fill-opacity="0.400000" cx="85" cy="26" rx="40" ry="24" />
<ellipse fill="#252118" fill-opacity="1.000000" cx="250" cy="0" rx="26" ry="13" />
<ellipse fill="#6b6d67" fill-opacity="0.450980" cx="155" cy="10" rx="71" ry="10" />
<ellipse fill="#2b2a24" fill-opacity="0.501961" cx="0" cy="0" rx="44" ry="17" />
<ellipse fill="#241500" fill-opacity="0.278431" cx="19" cy="125" rx="39" ry="4" />
<ellipse fill="#f0ebe4" fill-opacity="0.482353" cx="112" cy="127" rx="22" ry="10" />
<ellipse fill="#777468" fill-opacity="0.568627" cx="53" cy="11" rx="36" ry="6" />
<ellipse fill="#fffff9" fill-opacity="0.345098" cx="10" cy="20" rx="24" ry="3" />
<ellipse fill="#a1a3a1" fill-opacity="0.705882" cx="175" cy="43" rx="19" ry="24" />
<ellipse fill="#000004" fill-opacity="0.290196" cx="166" cy="74" rx="7" ry="9" />
<ellipse fill="#5f5b58" fill-opacity="0.568627" cx="114" cy="63" rx="25" ry="19" />
<ellipse fill="#a6a6a2" fill-opacity="0.596078" cx="24" cy="97" rx="29" ry="15" />
<ellipse fill="#dfd2b1" fill-opacity="0.490196" cx="228" cy="53" rx="7" ry="14" />
<ellipse fill="#a3aaaf" fill-opacity="0.494118" cx="79" cy="54" rx="12" ry="30" />
<ellipse fill="#b3aa99" fill-opacity="0.588235" cx="0" cy="49" rx="12" ry="32" />
<ellipse fill="#7b7f7a" fill-opacity="0.482353" cx="210" cy="34" rx="16" ry="19" />
<ellipse fill="#626461" fill-opacity="0.725490" cx="55" cy="67" rx="10" ry="8" />
<ellipse fill="#0b0a07" fill-opacity="0.388235" cx="151" cy="60" rx="11" ry="8" />
<ellipse fill="#a39078" fill-opacity="0.501961" cx="222" cy="114" rx="29" ry="16" />
<ellipse fill="#bec4c7" fill-opacity="0.384314" cx="191" cy="88" rx="25" ry="11" />
<ellipse fill="#998a7a" fill-opacity="0.470588" cx="137" cy="109" rx="16" ry="14" />
<ellipse fill="#cec6ba" fill-opacity="0.588235" cx="255" cy="24" rx="24" ry="6" />
<ellipse fill="#c7af94" fill-opacity="0.466667" cx="173" cy="114" rx="26" ry="21" />
<ellipse fill="#9e9d97" fill-opacity="0.745098" cx="129" cy="29" rx="65" ry="12" />
<ellipse fill="#d0cbc1" fill-opacity="0.631373" cx="73" cy="109" rx="39" ry="11" />
<ellipse fill="#0d0c07" fill-opacity="0.419608" cx="150" cy="81" rx="16" ry="4" />
<ellipse fill="#4b4438" fill-opacity="0.345098" cx="245" cy="103" rx="17" ry="6" />
<ellipse fill="#12120d" fill-opacity="0.431373" cx="46" cy="0" rx="30" ry="4" />
<ellipse fill="#a9aeb2" fill-opacity="0.623529" cx="88" cy="82" rx="37" ry="3" />
<ellipse fill="#c3c5c0" fill-opacity="0.666667" cx="28" cy="18" rx="10" ry="4" />
<ellipse fill="#2f2d2b" fill-opacity="0.470588" cx="108" cy="78" rx="17" ry="2" />
<ellipse fill="#9b958b" fill-opacity="0.470588" cx="94" cy="96" rx="37" ry="3" />
<ellipse fill="#020305" fill-opacity="0.450980" cx="253" cy="75" rx="10" ry="2" />
<ellipse fill="#2f210a" fill-opacity="0.219608" cx="199" cy="1" rx="42" ry="7" />
<ellipse fill="#897f78" fill-opacity="0.447059" cx="144" cy="74" rx="16" ry="3" />
<ellipse fill="#a29884" fill-opacity="0.556863" cx="239" cy="60" rx="12" ry="10" />
<ellipse fill="#9b9183" fill-opacity="0.603922" cx="58" cy="127" rx="21" ry="5" />
<ellipse fill="#666158" fill-opacity="0.662745" cx="236" cy="72" rx="7" ry="4" />
<ellipse fill="#8a8c8f" fill-opacity="0.466667" cx="85" cy="67" rx="18" ry="7" />
<ellipse fill="#9da2a0" fill-opacity="0.572549" cx="61" cy="46" rx="9" ry="16" />
<ellipse fill="#7f7c69" fill-opacity="0.403922" cx="56" cy="20" rx="17" ry="13" />
<ellipse fill="#d6c8b4" fill-opacity="0.709804" cx="162" cy="117" rx="5" ry="17" />
<ellipse fill="#a5a39f" fill-opacity="0.658824" cx="20" cy="105" rx="9" ry="17" />
<ellipse fill="#babbb6" fill-opacity="0.588235" cx="36" cy="89" rx="29" ry="4" />
<ellipse fill="#3e3a2b" fill-opacity="0.447059" cx="228" cy="10" rx="6" ry="17" />
<ellipse fill="#9c9d99" fill-opacity="0.513725" cx="168" cy="33" rx="29" ry="17" />
<ellipse fill="#d0cfc8" fill-opacity="0.533333" cx="94" cy="89" rx="41" ry="4" />
<ellipse fill="#80705f" fill-opacity="0.372549" cx="214" cy="102" rx="30" ry="2" />
<ellipse fill="#454137" fill-opacity="0.513725" cx="0" cy="125" rx="16" ry="5" />
<ellipse fill="#b5b1ab" fill-opacity="0.403922" cx="95" cy="38" rx="25" ry="7" />
<ellipse fill="#e0cfae" fill-opacity="0.643137" cx="235" cy="44" rx="11" ry="7" />
<ellipse fill="#5f544b" fill-opacity="0.490196" cx="129" cy="103" rx="6" ry="3" />
<ellipse fill="#847056" fill-opacity="0.470588" cx="156" cy="127" rx="2" ry="22" />
<ellipse fill="#b2a48e" fill-opacity="0.474510" cx="229" cy="112" rx="25" ry="5" />
<ellipse fill="#7d7c73" fill-opacity="0.278431" cx="162" cy="13" rx="50" ry="10" />
<ellipse fill="#a1a3a0" fill-opacity="0.615686" cx="47" cy="92" rx="7" ry="13" />
<ellipse fill="#cecdc4" fill-opacity="0.529412" cx="131" cy="93" rx="27" ry="4" />
<ellipse fill="#8c8e8c" fill-opacity="0.560784" cx="241" cy="89" rx="10" ry="8" />
<ellipse fill="#372f27" fill-opacity="0.411765" cx="138" cy="83" rx="14" ry="5" />
<ellipse fill="#a4a7a6" fill-opacity="0.639216" cx="198" cy="63" rx="10" ry="22" />
<ellipse fill="#e0dbd4" fill-opacity="0.470588" cx="129" cy="126" rx="26" ry="3" />
<ellipse fill="#333127" fill-opacity="0.470588" cx="1" cy="5" rx="7" ry="14" />
<ellipse fill="#857e72" fill-opacity="0.721569" cx="30" cy="70" rx="14" ry="15" />
<ellipse fill="#656157" fill-opacity="0.396078" cx="43" cy="43" rx="6" ry="16" />
<ellipse fill="#938a7c" fill-opacity="0.517647" cx="18" cy="44" rx="12" ry="21" />
<ellipse fill="#b4a899" fill-opacity="0.678431" cx="163" cy="100" rx="36" ry="3" />
<ellipse fill="#666560" fill-opacity="0.486275" cx="122" cy="4" rx="65" ry="3" />
<ellipse fill="#595552" fill-opacity="0.623529" cx="115" cy="55" rx="22" ry="12" />
<ellipse fill="#7b8288" fill-opacity="0.470588" cx="173" cy="68" rx="6" ry="11" />
<ellipse fill="#969690" fill-opacity="0.305882" cx="88" cy="22" rx="30" ry="17" />
<ellipse fill="#938d86" fill-opacity="0.525490" cx="106" cy="51" rx="5" ry="3" />
<ellipse fill="#45433e" fill-opacity="0.556863" cx="119" cy="12" rx="3" ry="4" />
<ellipse fill="#acaca7" fill-opacity="0.611765" cx="169" cy="47" rx="16" ry="7" />
<ellipse fill="#b9bdbd" fill-opacity="0.439216" cx="25" cy="16" rx="14" ry="2" />
<ellipse fill="#8e8279" fill-opacity="0.325490" cx="138" cy="77" rx="13" ry="3" />
<ellipse fill="#706d66" fill-opacity="0.564706" cx="50" cy="64" rx="5" ry="17" />
<ellipse fill="#6b5f49" fill-opacity="0.501961" cx="249" cy="126" rx="11" ry="5" />
<ellipse fill="#b1b0af" fill-opacity="0.501961" cx="4" cy="25" rx="13" ry="7" />
<ellipse fill="#807c78" fill-opacity="0.541176" cx="125" cy="57" rx="4" ry="5" />
<ellipse fill="#e5dccb" fill-opacity="0.231373" cx="47" cy="119" rx="33" ry="4" />
<ellipse fill="#393532" fill-opacity="0.490196" cx="148" cy="62" rx="11" ry="14" />
<ellipse fill="#73736d" fill-opacity="0.556863" cx="41" cy="22" rx="12" ry="3" />
<ellipse fill="#b6ab95" fill-opacity="0.462745" cx="8" cy="63" rx="7" ry="14" />
<ellipse fill="#353537" fill-opacity="0.525490" cx="118" cy="50" rx="4" ry="9" />
<ellipse fill="#818381" fill-opacity="0.580392" cx="252" cy="14" rx="17" ry="2" />
<ellipse fill="#a4927a" fill-opacity="0.701961" cx="151" cy="120" rx="6" ry="4" />
</g>
</svg>