<svg xmlns="http://www.w3.org/2000/svg" version="1.1" width="256" height="128">
<rect x="0" y="0" width="256" height="128" fill="#f0f0f0" />
<g transform="scale(1.000000) translate(0.5 0.5)">
<ellipse fill="#0d2333" fill-opacity="0.741176" cx="152" cy="61" rx="253" ry="97" />
<ellipse fill="#a7cdf3" fill-opacity="0.588235" cx="89" cy="53" rx="77" ry="39" />
<ellipse fill="#0a1310" fill-opacity="0.678431" cx="214" cy="86" rx="44" ry="94" />
<ellipse fill="#110c03" fill-opacity="0.741176" cx="60" cy="127" rx="252" ry="23" />
<ellipse fill="#aecff4" fill-opacity="0.537255" cx="36" cy="47" rx="22" ry="60" />
<ellipse fill="#000000" fill-opacity="0.878431" cx="6" cy="17" rx="10" ry="121" />
<ellipse fill="#0e1724" fill-opacity="0.674510" cx="78" cy="0" rx="17" ry="39" />
<ellipse fill="#69a2e2" fill-opacity="0.705882" cx="150" cy="31" rx="34" ry="19" />
<ellipse fill="#765f33" fill-opacity="0.431373" cx="117" cy="96" rx="89" ry="20" />
<ellipse fill="#84bae5" fill-opacity="0.533333" cx="188" cy="75" rx="7" ry="26" />
<ellipse fill="#ddc9b0" fill-opacity="0.588235" cx="59" cy="85" rx="13" ry="23" />
<ellipse fill="#000001" fill-opacity="0.486275" cx="199" cy="0" rx="43" ry="24" />
<ellipse fill="#566f95" fill-opacity="0.996078" cx="116" cy="2" rx="23" ry="25" />
<ellipse fill="#2d2e20" fill-opacity="0.858824" cx="106" cy="112" rx="32" ry="24" />
<ellipse fill="#225590" fill-opacity="0.517647" cx="249" cy="42" rx="12" ry="47" />
<ellipse fill="#a8c5dc" fill-opacity="0.474510" cx="28" cy="80" rx="15" ry="21" />
<ellipse fill="#73b4f0" fill-opacity="0.596078" cx="129" cy="52" rx="35" ry="19" />
<ellipse fill="#000000" fill-opacity="0.470588" cx="35" cy="120" rx="45" ry="17" />
<ellipse fill="#272e2c" fill-opacity="0.580392" cx="173" cy="92" rx="11" ry="51" />
<ellipse fill="#9a7d4e" fill-opacity="0.368627" cx="87" cy="77" rx="21" ry="22" />
<ellipse fill="#5d98e1" fill-opacity="0.607843" cx="182" cy="24" rx="6" ry="8" />
<ellipse fill="#171600" fill-opacity="0.454902" cx="210" cy="90" rx="18" ry="76" />
<ellipse fill="#7bbaf8" fill-opacity="0.439216" cx="240" cy="73" rx="9" ry="6" />
<ellipse fill="#d7e7fd" fill-opacity="0.223529" cx="143" cy="85" rx="11" ry="19" />
<ellipse fill="#ffffeb" fill-opacity="0.364706" cx="83" cy="59" rx="6" ry="17" />
<ellipse fill="#000100" fill-opacity="0.725490" cx="235" cy="115" rx="25" ry="17" />
<ellipse fill="#374861" fill-opacity="0.866667" cx="112" cy="0" rx="6" ry="34" />
<ellipse fill="#91b5db" fill-opacity="0.690196" cx="41" cy="48" rx="27" ry="34" />
<ellipse fill="#ffdcb3" fill-opacity="0.568627" cx="51" cy="96" rx="5" ry="11" />
<ellipse fill="#7ba9de" fill-opacity="0.666667" cx="134" cy="0" rx="6" ry="79" />
<ellipse fill="#040d11" fill-opacity="0.690196" cx="242" cy="50" rx="11" ry="9" />
<ellipse fill="#182933" fill-opacity="0.541176" cx="187" cy="46" rx="15" ry="12" />
<ellipse fill="#f4ffcc" fill-opacity="0.145098" cx="198" cy="64" rx="10" ry="14" />
<ellipse fill="#000505" fill-opacity="0.501961" cx="210" cy="12" rx="24" ry="36" />
<ellipse fill="#2a3646" fill-opacity="0.650980" cx="76" cy="10" rx="5" ry="42" />
<ellipse fill="#7d3f02" fill-opacity="0.309804" cx="37" cy="99" rx="11" ry="14" />
<ellipse fill="#73a3e1" fill-opacity="0.615686" cx="154" cy="23" rx="4" ry="23" />
<ellipse fill="#95bff4" fill-opacity="0.474510" cx="99" cy="4" rx="4" ry="54" />
<ellipse fill="#a0d7ff" fill-opacity="0.462745" cx="187" cy="85" rx="3" ry="14" />
<ellipse fill="#7ab4e6" fill-opacity="0.654902" cx="147" cy="65" rx="23" ry="4" />
<ellipse fill="#576d91" fill-opacity="0.619608" cx="59" cy="20" rx="6" ry="10" />
<ellipse fill="#2f2e2b" fill-opacity="0.596078" cx="167" cy="121" rx="45" ry="15" />
<ellipse fill="#010403" fill-opacity="0.737255" cx="0" cy="116" rx="20" ry="35" />
<ellipse fill="#2e6198" fill-opacity="0.705882" cx="255" cy="24" rx="13" ry="20" />
<ellipse fill="#68a1da" fill-opacity="0.611765" cx="152" cy="37" rx="22" ry="19" />
<ellipse fill="#85b4da" fill-opacity="0.501961" cx="235" cy="94" rx="4" ry="4" />
<ellipse fill="#6e9fdd" fill-opacity="0.486275" cx="31" cy="8" rx="17" ry="8" />
<ellipse fill="#96bcea" fill-opacity="0.458824" cx="90" cy="40" rx="13" ry="10" />
<ellipse fill="#7a7773" fill-opacity="0.623529" cx="72" cy="87" rx="6" ry="21" />
<ellipse fill="#060700" fill-opacity="0.282353" cx="169" cy="72" rx="7" ry="24" />
<ellipse fill="#fff7d1" fill-opacity="0.572549" cx="64" cy="85" rx="2" ry="18" />
<ellipse fill="#000000" fill-opacity="0.529412" cx="253" cy="75" rx="4" ry="10" />
<ellipse fill="#a5c9eb" fill-opacity="0.478431" cx="24" cy="82" rx="10" ry="16" />
<ellipse fill="#cbecff" fill-opacity="0.466667" cx="76" cy="61" rx="6" ry="7" />
<ellipse fill="#6d6f67" fill-opacity="0.470588" cx="116" cy="80" rx="9" ry="14" />
<ellipse fill="#5c8dbd" fill-opacity="0.607843" cx="245" cy="66" rx="5" ry="6" />
<ellipse fill="#425571" fill-opacity="0.635294" cx="114" cy="15" rx="13" ry="10" />
<ellipse fill="#040b0e" fill-opacity="0.427451" cx="88" cy="12" rx="4" ry="23" />
<ellipse fill="#234572" fill-opacity="0.505882" cx="252" cy="10" rx="23" ry="11" />
<ellipse fill="#6c5d14" fill-opacity="0.482353" cx="159" cy="83" rx="7" ry="15" />
<ellipse fill="#7b694c" fill-opacity="0.521569" cx="30" cy="103" rx="14" ry="4" />
<ellipse fill="#302c34" fill-opacity="0.498039" cx="143" cy="4" rx="5" ry="14" />
<ellipse fill="#000804" fill-opacity="0.380392" cx="4" cy="61" rx="16" ry="7" />
<ellipse fill="#4f637f" fill-opacity="0.788235" cx="81" cy="19" rx="3" ry="11" />
<ellipse fill="#609cd8" fill-opacity="0.513725" cx="192" cy="64" rx="5" ry="6" />
<ellipse fill="#845025" fill-opacity="0.431373" cx="59" cy="93" rx="3" ry="14" />
<ellipse fill="#6e563e" fill-opacity="0.447059" cx="92" cy="60" rx="4" ry="10" />
<ellipse fill="#aa8558" fill-opacity="0.482353" cx="169" cy="104" rx="11" ry="3" />
<ellipse fill="#6d7987" fill-opacity="0.588235" cx="131" cy="87" rx="12" ry="10" />
<ellipse fill="#232e40" fill-opacity="0.647059" cx="68" cy="39" rx="2" ry="6" />
<ellipse fill="#2c64af" fill-opacity="0.368627" cx="232" cy="41" rx="5" ry="8" />
<ellipse fill="#03120b" fill-opacity="0.380392" cx="119" cy="101" rx="21" ry="6" />
<ellipse fill="#2e4265" fill-opacity="0.529412" cx="167" cy="2" rx="7" ry="18" />
<ellipse fill="#80a4e0" fill-opacity="0.615686" cx="128" cy="7" rx="6" ry="6" />
<ellipse fill="#9ec1e3" fill-opacity="0.450980" cx="45" cy="51" rx="32" ry="11" />
<ellipse fill="#050a08" fill-opacity="0.666667" cx="201" cy="2" rx="26" ry="15" />
<ellipse fill="#2a2709" fill-opacity="0.345098" cx="210" cy="86" rx="20" ry="24" />
<ellipse fill="#345982" fill-opacity="0.584314" cx="184" cy="58" rx="7" ry="8" />
<ellipse fill="#000001" fill-opacity="0.658824" cx="105" cy="123" rx="7" ry="5" />
<ellipse fill="#7ca9e3" fill-opacity="0.470588" cx="54" cy="14" rx="7" ry="6" />
<ellipse fill="#000408" fill-opacity="0.411765" cx="40" cy="125" rx="39" ry="20" />
<ellipse fill="#000000" fill-opacity="0.447059" cx="225" cy="58" rx="13" ry="7" />
<ellipse fill="#171f27" fill-opacity="0.450980" cx="67" cy="20" rx="8" ry="6" />
<ellipse fill="#3b4902" fill-opacity="0.309804" cx="101" cy="94" rx="15" ry="9" />
<ellipse fill="#000000" fill-opacity="0.533333" cx="235" cy="25" rx="5" ry="8" />
<ellipse fill="#141e2b" fill-opacity="0.572549" cx="65" cy="0" rx="13" ry="10" />
<ellipse fill="#29363a" fill-opacity="0.556863" cx="189" cy="42" rx="8" ry="16" />
<ellipse fill="#000002" fill-opacity="0.458824" cx="236" cy="84" rx="18" ry="3" />
<ellipse fill="#777b81" fill-opacity="0.596078" cx="96" cy="72" rx="8" ry="17" />
<ellipse fill="#000506" fill-opacity="0.615686" cx="10" cy="18" rx="8" ry="9" />
<ellipse fill="#0c0f04" fill-opacity="0.560784" cx="216" cy="100" rx="17" ry="16" />
<ellipse fill="#8ab6e6" fill-opacity="0.494118" cx="107" cy="39" rx="3" ry="22" />
<ellipse fill="#c9c1c6" fill-opacity="0.301961" cx="167" cy="65" rx="4" ry="4" />
<ellipse fill="#68a7e9" fill-opacity="0.478431" cx="228" cy="78" rx="2" ry="4" />
<ellipse fill="#54788f" fill-opacity="0.450980" cx="255" cy="88" rx="4" ry="7" />
<ellipse fill="#717776" fill-opacity="0.572549" cx="181" cy="89" rx="4" ry="7" />
<ellipse fill="#ffe2b5" fill-opacity="0.666667" cx="146" cy="75" rx="3" ry="5" />
<ellipse fill="#9eb5d5" fill-opacity="0.450980" cx="48" cy="30" rx="21" ry="8" />
<ellipse fill="#537798" fill-opacity="0.537255" cx="236" cy="90" rx="4" ry="5" />
<ellipse fill="#302f2a" fill-opacity="0.862745" cx="143" cy="124" rx="32" ry="19" />
</g>
</svg>