<svg xmlns="http://www.w3.org/2000/svg" version="1.1" width="256" height="143">
<rect x="0" y="0" width="256" height="143" fill="#f0f0f0" />
<g transform="scale(1.000000) translate(0.5 0.5)">
<ellipse fill="#010400" fill-opacity="0.623529" cx="166" cy="63" rx="255" ry="107" />
<ellipse fill="#e2eae9" fill-opacity="0.466667" cx="184" cy="8" rx="178" ry="25" />
<ellipse fill="#000002" fill-opacity="0.407843" cx="166" cy="78" rx="134" ry="46" />
<ellipse fill="#c8cdcb" fill-opacity="0.690196" cx="219" cy="40" rx="12" ry="41" />
<ellipse fill="#000000" fill-opacity="0.541176" cx="59" cy="78" rx="23" ry="52" />
<ellipse fill="#8a8c81" fill-opacity="0.803922" cx="19" cy="109" rx="18" ry="112" />
<ellipse fill="#000f26" fill-opacity="0.458824" cx="242" cy="24" rx="15" ry="17" />
<ellipse fill="#bdb6b1" fill-opacity="0.643137" cx="173" cy="142" rx="127" ry="11" />
<ellipse fill="#010406" fill-opacity="0.678431" cx="172" cy="83" rx="20" ry="41" />
<ellipse fill="#a09986" fill-opacity="0.588235" cx="94" cy="89" rx="5" ry="53" />
<ellipse fill="#c4bead" fill-opacity="0.419608" cx="149" cy="63" rx="4" ry="97" />
<ellipse fill="#0f1110" fill-opacity="0.705882" cx="120" cy="74" rx="23" ry="33" />
<ellipse fill="#585a5d" fill-opacity="0.643137" cx="203" cy="78" rx="11" ry="45" />
<ellipse fill="#4a4638" fill-opacity="0.545098" cx="55" cy="6" rx="26" ry="5" />
<ellipse fill="#22180a" fill-opacity="0.490196" cx="95" cy="35" rx="64" ry="6" />
<ellipse fill="#10214a" fill-opacity="0.411765" cx="229" cy="115" rx="27" ry="23" />
<ellipse fill="#d2d6cf" fill-opacity="0.411765" cx="117" cy="22" rx="80" ry="8" />
<ellipse fill="#b8ae96" fill-opacity="0.631373" cx="149" cy="45" rx="14" ry="3" />
<ellipse fill="#d2d9d7" fill-opacity="0.450980" cx="188" cy="28" rx="36" ry="6" />
<ellipse fill="#cfd4d4" fill-opacity="0.788235" cx="208" cy="0" rx="8" ry="24" />
<ellipse fill="#89826e" fill-opacity="0.427451" cx="96" cy="51" rx="11" ry="16" />
<ellipse fill="#b3b7b2" fill-opacity="0.541176" cx="221" cy="54" rx="12" ry="19" />
<ellipse fill="#483f2e" fill-opacity="0.474510" cx="109" cy="8" rx="24" ry="3" />
<ellipse fill="#969081" fill-opacity="0.384314" cx="47" cy="132" rx="99" ry="7" />
<ellipse fill="#000000" fill-opacity="0.419608" cx="57" cy="81" rx="15" ry="44" />
<ellipse fill="#766853" fill-opacity="0.352941" cx="114" cy="120" rx="48" ry="14" />
<ellipse fill="#a59fa2" fill-opacity="0.564706" cx="239" cy="131" rx="69" ry="2" />
<ellipse fill="#4c4537" fill-opacity="0.552941" cx="81" cy="106" rx="12" ry="24" />
<ellipse fill="#5d6b79" fill-opacity="0.486275" cx="246" cy="13" rx="25" ry="12" />
<ellipse fill="#2b261b" fill-opacity="0.466667" cx="22" cy="142" rx="25" ry="5" />
<ellipse fill="#94878a" fill-opacity="0.517647" cx="219" cy="74" rx="8" ry="20" />
<ellipse fill="#2a3744" fill-opacity="0.568627" cx="239" cy="35" rx="10" ry="23" />
<ellipse fill="#959588" fill-opacity="0.768627" cx="22" cy="61" rx="21" ry="5" />
<ellipse fill="#131407" fill-opacity="0.517647" cx="250" cy="119" rx="12" ry="9" />
<ellipse fill="#000000" fill-opacity="0.556863" cx="105" cy="85" rx="8" ry="22" />
<ellipse fill="#282319" fill-opacity="0.623529" cx="47" cy="110" rx="11" ry="19" />
<ellipse fill="#0c0a07" fill-opacity="0.462745" cx="104" cy="58" rx="67" ry="3" />
<ellipse fill="#000000" fill-opacity="0.400000" cx="49" cy="5" rx="4" ry="9" />
<ellipse fill="#ffffdd" fill-opacity="0.160784" cx="148" cy="58" rx="11" ry="10" />
<ellipse fill="#c9cecc" fill-opacity="0.419608" cx="156" cy="3" rx="34" ry="6" />
<ellipse fill="#252019" fill-opacity="0.658824" cx="57" cy="32" rx="26" ry="5" />
<ellipse fill="#3e372c" fill-opacity="0.494118" cx="147" cy="37" rx="61" ry="6" />
<ellipse fill="#364872" fill-opacity="0.541176" cx="226" cy="123" rx="12" ry="16" />
<ellipse fill="#4f514e" fill-opacity="0.333333" cx="156" cy="11" rx="8" ry="10" />
<ellipse fill="#000000" fill-opacity="0.349020" cx="32" cy="45" rx="23" ry="3" />
<ellipse fill="#544c3f" fill-opacity="0.454902" cx="119" cy="107" rx="11" ry="20" />
<ellipse fill="#666760" fill-opacity="0.584314" cx="198" cy="48" rx="13" ry="9" />
<ellipse fill="#737870" fill-opacity="0.458824" cx="3" cy="68" rx="14" ry="142" />
<ellipse fill="#121413" fill-opacity="0.411765" cx="140" cy="100" rx="7" ry="27" />
<ellipse fill="#adaa9c" fill-opacity="0.631373" cx="157" cy="53" rx="7" ry="2" />
<ellipse fill="#dadacd" fill-opacity="0.313725" cx="65" cy="13" rx="13" ry="8" />
<ellipse fill="#131310" fill-opacity="0.521569" cx="94" cy="68" rx="61" ry="3" />
<ellipse fill="#9d9c90" fill-opacity="0.529412" cx="27" cy="92" rx="9" ry="42" />
<ellipse fill="#4f472f" fill-opacity="0.309804" cx="35" cy="23" rx="4" ry="52" />
<ellipse fill="#9a9583" fill-opacity="0.549020" cx="103" cy="42" rx="7" ry="4" />
<ellipse fill="#710009" fill-opacity="0.368627" cx="213" cy="90" rx="9" ry="5" />
<ellipse fill="#8b8573" fill-opacity="0.592157" cx="34" cy="50" rx="14" ry="3" />
<ellipse fill="#bebbac" fill-opacity="0.478431" cx="94" cy="52" rx="14" ry="2" />
<ellipse fill="#7f8d99" fill-opacity="0.584314" cx="255" cy="0" rx="24" ry="19" />
<ellipse fill="#847c68" fill-opacity="0.560784" cx="148" cy="42" rx="19" ry="3" />
<ellipse fill="#cecfc3" fill-opacity="0.623529" cx="97" cy="63" rx="5" ry="3" />
<ellipse fill="#2a261f" fill-opacity="0.603922" cx="71" cy="33" rx="39" ry="5" />
<ellipse fill="#8b9290" fill-opacity="0.678431" cx="48" cy="22" rx="12" ry="5" />
<ellipse fill="#dddbcd" fill-opacity="0.360784" cx="95" cy="86" rx="3" ry="14" />
<ellipse fill="#030f1e" fill-opacity="0.572549" cx="231" cy="92" rx="6" ry="15" />
<ellipse fill="#121616" fill-opacity="0.490196" cx="184" cy="86" rx="11" ry="39" />
<ellipse fill="#aeaca2" fill-opacity="0.525490" cx="150" cy="92" rx="2" ry="20" />
<ellipse fill="#979584" fill-opacity="0.584314" cx="0" cy="107" rx="10" ry="21" />
<ellipse fill="#253444" fill-opacity="0.541176" cx="247" cy="72" rx="23" ry="8" />
<ellipse fill="#3f4a53" fill-opacity="0.694118" cx="207" cy="58" rx="4" ry="23" />
<ellipse fill="#b6b7b2" fill-opacity="0.521569" cx="47" cy="137" rx="5" ry="4" />
<ellipse fill="#bebfb9" fill-opacity="0.505882" cx="129" cy="21" rx="31" ry="10" />
<ellipse fill="#e7e4cf" fill-opacity="0.345098" cx="232" cy="67" rx="2" ry="5" />
<ellipse fill="#c0c6c2" fill-opacity="0.556863" cx="219" cy="36" rx="10" ry="21" />
<ellipse fill="#a5a79d" fill-opacity="0.486275" cx="15" cy="57" rx="8" ry="10" />
<ellipse fill="#fffff6" fill-opacity="0.223529" cx="197" cy="64" rx="8" ry="3" />
<ellipse fill="#bfc3c0" fill-opacity="0.533333" cx="196" cy="29" rx="33" ry="5" />
<ellipse fill="#bebbb1" fill-opacity="0.462745" cx="100" cy="129" rx="13" ry="2" />
<ellipse fill="#272e32" fill-opacity="0.368627" cx="107" cy="2" rx="3" ry="15" />
<ellipse fill="#a9a39c" fill-opacity="0.631373" cx="127" cy="141" rx="81" ry="8" />
<ellipse fill="#0e0f10" fill-opacity="0.600000" cx="119" cy="48" rx="20" ry="4" />
<ellipse fill="#fefef1" fill-opacity="0.196078" cx="99" cy="0" rx="33" ry="5" />
<ellipse fill="#11171b" fill-opacity="0.537255" cx="220" cy="81" rx="3" ry="4" />
<ellipse fill="#8d846d" fill-opacity="0.490196" cx="93" cy="42" rx="18" ry="3" />
<ellipse fill="#2e2f2b" fill-opacity="0.701961" cx="152" cy="130" rx="10" ry="2" />
<ellipse fill="#080a0b" fill-opacity="0.423529" cx="68" cy="53" rx="20" ry="13" />
<ellipse fill="#6d8295" fill-opacity="0.513725" cx="196" cy="13" rx="7" ry="12" />
<ellipse fill="#a7a399" fill-opacity="0.431373" cx="168" cy="126" rx="22" ry="2" />
<ellipse fill="#242622" fill-opacity="0.545098" cx="121" cy="102" rx="32" ry="3" />
<ellipse fill="#111110" fill-opacity="0.450980" cx="150" cy="59" rx="52" ry="3" />
<ellipse fill="#989492" fill-opacity="0.650980" cx="247" cy="139" rx="12" ry="11" />
<ellipse fill="#918883" fill-opacity="0.494118" cx="204" cy="134" rx="21" ry="6" />
<ellipse fill="#304450" fill-opacity="0.227451" cx="0" cy="26" rx="18" ry="19" />
<ellipse fill="#e6e4d3" fill-opacity="0.564706" cx="155" cy="65" rx="2" ry="3" />
<ellipse fill="#181610" fill-opacity="0.400000" cx="79" cy="134" rx="21" ry="1" />
<ellipse fill="#221e18" fill-opacity="0.552941" cx="187" cy="37" rx="21" ry="4" />
<ellipse fill="#626661" fill-opacity="0.600000" cx="198" cy="98" rx="4" ry="28" />
<ellipse fill="#b1a790" fill-opacity="0.490196" cx="192" cy="46" rx="7" ry="3" />
<ellipse fill="#09132f" fill-opacity="0.564706" cx="233" cy="117" rx="2" ry="21" />
<ellipse fill="#000000" fill-opacity="0.352941" cx="192" cy="128" rx="16" ry="2" />
</g>
</svg>