<svg xmlns="http://www.w3.org/2000/svg" version="1.1" width="256" height="143">
<rect x="0" y="0" width="256" height="143" fill="#f0f0f0" />
<g transform="scale(1.000000) translate(0.5 0.5)">
<ellipse fill="#434540" fill-opacity="0.674510" cx="97" cy="47" rx="228" ry="142" />
<ellipse fill="#d5dde5" fill-opacity="0.572549" cx="172" cy="109" rx="36" ry="48" />
<ellipse fill="#020210" fill-opacity="0.415686" cx="120" cy="14" rx="53" ry="75" />
<ellipse fill="#3c3e45" fill-opacity="1.000000" cx="122" cy="74" rx="17" ry="80" />
<ellipse fill="#b8b9aa" fill-opacity="0.568627" cx="211" cy="46" rx="24" ry="104" />
<ellipse fill="#acaa9f" fill-opacity="0.564706" cx="39" cy="90" rx="22" ry="78" />
<ellipse fill="#646665" fill-opacity="0.811765" cx="89" cy="109" rx="30" ry="80" />
<ellipse fill="#fffeff" fill-opacity="0.407843" cx="158" cy="90" rx="13" ry="39" />
<ellipse fill="#0d0200" fill-opacity="0.180392" cx="178" cy="126" rx="10" ry="140" />
<ellipse fill="#cedef0" fill-opacity="0.584314" cx="148" cy="140" rx="14" ry="51" />
<ellipse fill="#0c1021" fill-opacity="0.572549" cx="147" cy="69" rx="12" ry="6" />
<ellipse fill="#140f04" fill-opacity="0.568627" cx="255" cy="25" rx="10" ry="15" />
<ellipse fill="#12182e" fill-opacity="0.576471" cx="135" cy="69" rx="8" ry="37" />
<ellipse fill="#c9cbc4" fill-opacity="0.788235" cx="196" cy="69" rx="8" ry="29" />
<ellipse fill="#d8d9dd" fill-opacity="0.760784" cx="160" cy="86" rx="19" ry="13" />
<ellipse fill="#868271" fill-opacity="0.921569" cx="209" cy="33" rx="30" ry="5" />
<ellipse fill="#0373d1" fill-opacity="0.243137" cx="159" cy="134" rx="16" ry="12" />
<ellipse fill="#10172a" fill-opacity="0.529412" cx="127" cy="142" rx="8" ry="111" />
<ellipse fill="#c2bcad" fill-opacity="0.258824" cx="27" cy="73" rx="29" ry="28" />
<ellipse fill="#d5c6bf" fill-opacity="0.537255" cx="162" cy="72" rx="7" ry="23" />
<ellipse fill="#292d38" fill-opacity="0.611765" cx="179" cy="53" rx="3" ry="24" />
<ellipse fill="#212738" fill-opacity="0.580392" cx="148" cy="39" rx="23" ry="14" />
<ellipse fill="#454541" fill-opacity="0.721569" cx="76" cy="0" rx="33" ry="8" />
<ellipse fill="#4d4631" fill-opacity="0.388235" cx="0" cy="0" rx="20" ry="27" />
<ellipse fill="#261d07" fill-opacity="0.501961" cx="255" cy="140" rx="10" ry="11" />
<ellipse fill="#95948b" fill-opacity="0.474510" cx="102" cy="92" rx="5" ry="45" />
<ellipse fill="#0d1a15" fill-opacity="0.160784" cx="94" cy="142" rx="34" ry="26" />
<ellipse fill="#b3b6aa" fill-opacity="0.227451" cx="255" cy="68" rx="73" ry="30" />
<ellipse fill="#404230" fill-opacity="0.160784" cx="23" cy="134" rx="33" ry="18" />
<ellipse fill="#868477" fill-opacity="0.509804" cx="42" cy="20" rx="35" ry="16" />
<ellipse fill="#8f9192" fill-opacity="0.690196" cx="174" cy="58" rx="4" ry="17" />
<ellipse fill="#434546" fill-opacity="0.486275" cx="74" cy="38" rx="11" ry="18" />
<ellipse fill="#494746" fill-opacity="0.678431" cx="135" cy="17" rx="46" ry="17" />
<ellipse fill="#f7f7fb" fill-opacity="0.329412" cx="159" cy="105" rx="14" ry="18" />
<ellipse fill="#d5caa4" fill-opacity="0.223529" cx="187" cy="12" rx="9" ry="28" />
<ellipse fill="#7f7d6b" fill-opacity="0.521569" cx="239" cy="5" rx="36" ry="9" />
<ellipse fill="#3a3522" fill-opacity="0.113725" cx="205" cy="140" rx="36" ry="14" />
<ellipse fill="#919189" fill-opacity="0.470588" cx="58" cy="117" rx="7" ry="103" />
<ellipse fill="#f0f1e4" fill-opacity="0.160784" cx="27" cy="92" rx="7" ry="38" />
<ellipse fill="#3e362b" fill-opacity="0.505882" cx="8" cy="47" rx="6" ry="7" />
<ellipse fill="#242a3b" fill-opacity="0.662745" cx="143" cy="55" rx="9" ry="22" />
<ellipse fill="#000e20" fill-opacity="0.101961" cx="37" cy="117" rx="5" ry="47" />
<ellipse fill="#b2a78e" fill-opacity="0.368627" cx="106" cy="61" rx="2" ry="36" />
<ellipse fill="#310e00" fill-opacity="0.152941" cx="165" cy="71" rx="14" ry="6" />
<ellipse fill="#9a9d99" fill-opacity="0.662745" cx="103" cy="140" rx="2" ry="30" />
<ellipse fill="#d6dce4" fill-opacity="0.450980" cx="163" cy="80" rx="21" ry="6" />
<ellipse fill="#202835" fill-opacity="0.588235" cx="180" cy="60" rx="3" ry="12" />
<ellipse fill="#5f5c60" fill-opacity="0.596078" cx="177" cy="106" rx="6" ry="5" />
<ellipse fill="#90958f" fill-opacity="0.384314" cx="235" cy="109" rx="34" ry="23" />
<ellipse fill="#50514f" fill-opacity="0.517647" cx="113" cy="102" rx="7" ry="117" />
<ellipse fill="#544f46" fill-opacity="0.294118" cx="177" cy="43" rx="14" ry="12" />
<ellipse fill="#f0dfd3" fill-opacity="0.529412" cx="144" cy="106" rx="5" ry="18" />
<ellipse fill="#929385" fill-opacity="0.419608" cx="238" cy="37" rx="10" ry="28" />
<ellipse fill="#454c54" fill-opacity="0.466667" cx="173" cy="135" rx="3" ry="9" />
<ellipse fill="#252939" fill-opacity="0.584314" cx="134" cy="75" rx="9" ry="23" />
<ellipse fill="#4a4c4b" fill-opacity="0.447059" cx="101" cy="133" rx="2" ry="49" />
<ellipse fill="#becddf" fill-opacity="0.411765" cx="143" cy="132" rx="10" ry="13" />
<ellipse fill="#e1cdc4" fill-opacity="0.615686" cx="162" cy="63" rx="5" ry="11" />
<ellipse fill="#0f1426" fill-opacity="0.262745" cx="99" cy="16" rx="19" ry="6" />
<ellipse fill="#838585" fill-opacity="0.431373" cx="83" cy="86" rx="4" ry="30" />
<ellipse fill="#3d4046" fill-opacity="0.545098" cx="183" cy="50" rx="6" ry="8" />
<ellipse fill="#878476" fill-opacity="0.701961" cx="23" cy="34" rx="14" ry="10" />
<ellipse fill="#756f5b" fill-opacity="0.552941" cx="255" cy="83" rx="18" ry="6" />
<ellipse fill="#969388" fill-opacity="0.509804" cx="20" cy="99" rx="3" ry="58" />
<ellipse fill="#6f6f6c" fill-opacity="0.635294" cx="95" cy="63" rx="10" ry="21" />
<ellipse fill="#39362d" fill-opacity="0.301961" cx="169" cy="17" rx="11" ry="19" />
<ellipse fill="#aeb6c0" fill-opacity="0.356863" cx="176" cy="65" rx="2" ry="30" />
<ellipse fill="#180700" fill-opacity="0.321569" cx="182" cy="100" rx="2" ry="5" />
<ellipse fill="#c2c5be" fill-opacity="0.396078" cx="202" cy="55" rx="14" ry="17" />
<ellipse fill="#9da1a1" fill-opacity="0.584314" cx="98" cy="110" rx="1" ry="30" />
<ellipse fill="#9d9f9a" fill-opacity="0.494118" cx="50" cy="43" rx="11" ry="24" />
<ellipse fill="#4f3e37" fill-opacity="0.360784" cx="169" cy="71" rx="2" ry="8" />
<ellipse fill="#a49781" fill-opacity="0.349020" cx="171" cy="42" rx="2" ry="22" />
<ellipse fill="#b5b7b1" fill-opacity="0.474510" cx="197" cy="137" rx="8" ry="56" />
<ellipse fill="#b1ad9e" fill-opacity="0.470588" cx="184" cy="84" rx="6" ry="15" />
<ellipse fill="#323540" fill-opacity="0.631373" cx="151" cy="70" rx="7" ry="4" />
<ellipse fill="#1b5185" fill-opacity="0.262745" cx="153" cy="139" rx="3" ry="9" />
<ellipse fill="#68645f" fill-opacity="0.474510" cx="120" cy="7" rx="18" ry="4" />
<ellipse fill="#8f8d85" fill-opacity="0.654902" cx="0" cy="80" rx="9" ry="31" />
<ellipse fill="#95978f" fill-opacity="0.537255" cx="213" cy="88" rx="10" ry="25" />
<ellipse fill="#abb1ae" fill-opacity="0.458824" cx="208" cy="115" rx="17" ry="10" />
<ellipse fill="#686456" fill-opacity="0.482353" cx="21" cy="1" rx="39" ry="6" />
<ellipse fill="#6a5f4a" fill-opacity="0.470588" cx="13" cy="99" rx="7" ry="4" />
<ellipse fill="#75705e" fill-opacity="0.529412" cx="180" cy="8" rx="6" ry="11" />
<ellipse fill="#b7c0bf" fill-opacity="0.517647" cx="255" cy="95" rx="9" ry="4" />
<ellipse fill="#e8baa1" fill-opacity="0.349020" cx="138" cy="132" rx="3" ry="27" />
<ellipse fill="#5f6568" fill-opacity="0.309804" cx="64" cy="104" rx="13" ry="13" />
<ellipse fill="#757466" fill-opacity="0.309804" cx="239" cy="103" rx="17" ry="10" />
<ellipse fill="#79828b" fill-opacity="0.301961" cx="152" cy="72" rx="2" ry="20" />
<ellipse fill="#9bc0dd" fill-opacity="0.682353" cx="163" cy="136" rx="5" ry="11" />
<ellipse fill="#726d5b" fill-opacity="0.274510" cx="221" cy="32" rx="16" ry="8" />
<ellipse fill="#2f2d28" fill-opacity="0.376471" cx="249" cy="30" rx="7" ry="6" />
<ellipse fill="#ccd2dc" fill-opacity="0.498039" cx="166" cy="109" rx="5" ry="15" />
<ellipse fill="#050008" fill-opacity="0.290196" cx="132" cy="141" rx="7" ry="2" />
<ellipse fill="#5e5956" fill-opacity="0.466667" cx="135" cy="23" rx="29" ry="4" />
<ellipse fill="#585b5d" fill-opacity="0.658824" cx="74" cy="65" rx="4" ry="27" />
<ellipse fill="#aead9e" fill-opacity="0.427451" cx="204" cy="22" rx="24" ry="9" />
<ellipse fill="#9fa69e" fill-opacity="0.431373" cx="247" cy="118" rx="5" ry="14" />
<ellipse fill="#d3c1b8" fill-opacity="0.403922" cx="155" cy="59" rx="3" ry="8" />
<ellipse fill="#98968b" fill-opacity="0.525490" cx="55" cy="121" rx="11" ry="11" />
</g>
</svg>