<svg xmlns="http://www.w3.org/2000/svg" version="1.1" width="256" height="143">
<rect x="0" y="0" width="256" height="143" fill="#f0f0f0" />
<g transform="scale(1.000000) translate(0.5 0.5)">
<ellipse fill="#20261e" fill-opacity="0.745098" cx="117" cy="92" rx="160" ry="135" />
<ellipse fill="#adc2d4" fill-opacity="0.486275" cx="175" cy="23" rx="47" ry="18" />
<ellipse fill="#02120e" fill-opacity="0.450980" cx="47" cy="22" rx="83" ry="55" />
<ellipse fill="#f6e1c6" fill-opacity="0.282353" cx="54" cy="88" rx="32" ry="15" />
<ellipse fill="#85796f" fill-opacity="0.564706" cx="156" cy="102" rx="54" ry="31" />
<ellipse fill="#7c8995" fill-opacity="0.639216" cx="239" cy="9" rx="32" ry="17" />
<ellipse fill="#0f1415" fill-opacity="0.603922" cx="94" cy="58" rx="10" ry="67" />
<ellipse fill="#7a6d65" fill-opacity="0.819608" cx="224" cy="127" rx="74" ry="30" />
<ellipse fill="#334956" fill-opacity="0.541176" cx="137" cy="50" rx="39" ry="25" />
<ellipse fill="#e1e7eb" fill-opacity="0.568627" cx="189" cy="27" rx="8" ry="16" />
<ellipse fill="#1f171e" fill-opacity="0.443137" cx="222" cy="86" rx="29" ry="13" />
<ellipse fill="#1c2f2c" fill-opacity="0.490196" cx="199" cy="1" rx="10" ry="21" />
<ellipse fill="#525e38" fill-opacity="0.654902" cx="101" cy="142" rx="57" ry="33" />
<ellipse fill="#edf7ff" fill-opacity="0.513725" cx="162" cy="3" rx="4" ry="20" />
<ellipse fill="#4a5656" fill-opacity="0.443137" cx="55" cy="56" rx="32" ry="25" />
<ellipse fill="#162127" fill-opacity="0.482353" cx="127" cy="2" rx="33" ry="12" />
<ellipse fill="#c2b49a" fill-opacity="0.454902" cx="7" cy="86" rx="8" ry="9" />
<ellipse fill="#5f6772" fill-opacity="0.772549" cx="209" cy="50" rx="18" ry="21" />
<ellipse fill="#415028" fill-opacity="0.647059" cx="13" cy="133" rx="38" ry="13" />
<ellipse fill="#fbffff" fill-opacity="0.674510" cx="250" cy="8" rx="8" ry="6" />
<ellipse fill="#d0deed" fill-opacity="0.462745" cx="221" cy="1" rx="6" ry="10" />
<ellipse fill="#ffdcbe" fill-opacity="0.258824" cx="135" cy="99" rx="36" ry="3" />
<ellipse fill="#7f8b8d" fill-opacity="0.466667" cx="154" cy="79" rx="53" ry="7" />
<ellipse fill="#766e48" fill-opacity="0.423529" cx="25" cy="107" rx="54" ry="16" />
<ellipse fill="#494a58" fill-opacity="0.549020" cx="255" cy="42" rx="19" ry="30" />
<ellipse fill="#484344" fill-opacity="0.494118" cx="165" cy="94" rx="43" ry="5" />
<ellipse fill="#9d8d7f" fill-opacity="0.423529" cx="234" cy="106" rx="39" ry="9" />
<ellipse fill="#10262e" fill-opacity="0.552941" cx="255" cy="0" rx="16" ry="3" />
<ellipse fill="#544a46" fill-opacity="0.521569" cx="240" cy="136" rx="48" ry="9" />
<ellipse fill="#c1c6d3" fill-opacity="0.423529" cx="182" cy="0" rx="7" ry="16" />
<ellipse fill="#374a58" fill-opacity="0.705882" cx="171" cy="61" rx="27" ry="13" />
<ellipse fill="#111e05" fill-opacity="0.360784" cx="54" cy="20" rx="25" ry="14" />
<ellipse fill="#21211f" fill-opacity="0.705882" cx="19" cy="63" rx="4" ry="28" />
<ellipse fill="#26201f" fill-opacity="0.611765" cx="224" cy="63" rx="9" ry="5" />
<ellipse fill="#5a666c" fill-opacity="0.917647" cx="222" cy="27" rx="6" ry="15" />
<ellipse fill="#597184" fill-opacity="0.498039" cx="171" cy="45" rx="21" ry="8" />
<ellipse fill="#ebd7e3" fill-opacity="0.243137" cx="205" cy="69" rx="13" ry="4" />
<ellipse fill="#1e2322" fill-opacity="0.427451" cx="99" cy="28" rx="15" ry="68" />
<ellipse fill="#58696c" fill-opacity="0.650980" cx="142" cy="22" rx="7" ry="21" />
<ellipse fill="#84808a" fill-opacity="0.509804" cx="226" cy="47" rx="15" ry="8" />
<ellipse fill="#40494b" fill-opacity="0.800000" cx="240" cy="11" rx="2" ry="27" />
<ellipse fill="#d9e0e6" fill-opacity="0.498039" cx="160" cy="16" rx="10" ry="3" />
<ellipse fill="#050d09" fill-opacity="0.360784" cx="90" cy="110" rx="13" ry="6" />
<ellipse fill="#ffffff" fill-opacity="0.556863" cx="173" cy="27" rx="2" ry="8" />
<ellipse fill="#3c352f" fill-opacity="0.490196" cx="191" cy="98" rx="19" ry="4" />
<ellipse fill="#a59b97" fill-opacity="0.545098" cx="43" cy="87" rx="19" ry="6" />
<ellipse fill="#978c82" fill-opacity="0.619608" cx="173" cy="92" rx="6" ry="6" />
<ellipse fill="#3d4f59" fill-opacity="0.494118" cx="201" cy="22" rx="4" ry="37" />
<ellipse fill="#343e3e" fill-opacity="0.917647" cx="4" cy="58" rx="14" ry="19" />
<ellipse fill="#8d9396" fill-opacity="0.498039" cx="24" cy="28" rx="3" ry="5" />
<ellipse fill="#877f75" fill-opacity="0.623529" cx="79" cy="92" rx="6" ry="19" />
<ellipse fill="#485857" fill-opacity="0.670588" cx="187" cy="0" rx="24" ry="3" />
<ellipse fill="#ffffff" fill-opacity="0.376471" cx="132" cy="18" rx="3" ry="6" />
<ellipse fill="#384240" fill-opacity="0.866667" cx="77" cy="46" rx="10" ry="19" />
<ellipse fill="#28372f" fill-opacity="0.509804" cx="224" cy="17" rx="3" ry="9" />
<ellipse fill="#8c9aa4" fill-opacity="0.486275" cx="210" cy="29" rx="17" ry="4" />
<ellipse fill="#b8a894" fill-opacity="0.164706" cx="149" cy="142" rx="77" ry="4" />
<ellipse fill="#000b32" fill-opacity="0.192157" cx="75" cy="88" rx="24" ry="4" />
<ellipse fill="#000203" fill-opacity="0.388235" cx="109" cy="24" rx="8" ry="10" />
<ellipse fill="#e2e8ed" fill-opacity="0.443137" cx="190" cy="32" rx="5" ry="13" />
<ellipse fill="#3c484b" fill-opacity="0.549020" cx="123" cy="51" rx="20" ry="24" />
<ellipse fill="#22201e" fill-opacity="0.501961" cx="219" cy="81" rx="10" ry="9" />
<ellipse fill="#5e7270" fill-opacity="0.431373" cx="139" cy="30" rx="26" ry="6" />
<ellipse fill="#a19285" fill-opacity="0.478431" cx="47" cy="93" rx="38" ry="3" />
<ellipse fill="#49575d" fill-opacity="0.541176" cx="173" cy="8" rx="4" ry="8" />
<ellipse fill="#d0cee6" fill-opacity="0.521569" cx="234" cy="10" rx="3" ry="4" />
<ellipse fill="#212c14" fill-opacity="0.521569" cx="33" cy="21" rx="5" ry="28" />
<ellipse fill="#c4ccd1" fill-opacity="0.576471" cx="156" cy="16" rx="9" ry="4" />
<ellipse fill="#aba59f" fill-opacity="0.737255" cx="68" cy="83" rx="16" ry="2" />
<ellipse fill="#676f70" fill-opacity="0.490196" cx="81" cy="1" rx="4" ry="12" />
<ellipse fill="#e3eaeb" fill-opacity="0.364706" cx="209" cy="22" rx="4" ry="7" />
<ellipse fill="#202928" fill-opacity="0.521569" cx="108" cy="6" rx="26" ry="17" />
<ellipse fill="#2d4851" fill-opacity="0.486275" cx="208" cy="39" rx="5" ry="9" />
<ellipse fill="#3f484c" fill-opacity="0.611765" cx="13" cy="53" rx="4" ry="32" />
<ellipse fill="#101e17" fill-opacity="0.462745" cx="227" cy="9" rx="5" ry="2" />
<ellipse fill="#b3abb6" fill-opacity="0.419608" cx="194" cy="75" rx="8" ry="3" />
<ellipse fill="#3c4748" fill-opacity="0.552941" cx="35" cy="62" rx="14" ry="18" />
<ellipse fill="#b19c87" fill-opacity="0.423529" cx="114" cy="100" rx="13" ry="6" />
<ellipse fill="#0b0d00" fill-opacity="0.349020" cx="19" cy="25" rx="4" ry="16" />
<ellipse fill="#495d32" fill-opacity="0.458824" cx="25" cy="104" rx="30" ry="5" />
<ellipse fill="#a7b2bd" fill-opacity="0.266667" cx="135" cy="15" rx="4" ry="11" />
<ellipse fill="#495b69" fill-opacity="0.701961" cx="215" cy="33" rx="3" ry="10" />
<ellipse fill="#8c7d71" fill-opacity="0.541176" cx="175" cy="105" rx="72" ry="4" />
<ellipse fill="#57625c" fill-opacity="0.537255" cx="104" cy="7" rx="3" ry="8" />
<ellipse fill="#9eadbd" fill-opacity="0.564706" cx="215" cy="12" rx="4" ry="5" />
<ellipse fill="#7c827e" fill-opacity="0.294118" cx="111" cy="80" rx="11" ry="9" />
<ellipse fill="#96a3ac" fill-opacity="0.545098" cx="166" cy="20" rx="5" ry="12" />
<ellipse fill="#d1d2e1" fill-opacity="0.435294" cx="179" cy="6" rx="6" ry="3" />
<ellipse fill="#151a1d" fill-opacity="0.592157" cx="102" cy="91" rx="8" ry="3" />
<ellipse fill="#786763" fill-opacity="0.478431" cx="42" cy="117" rx="26" ry="7" />
<ellipse fill="#4b5a5e" fill-opacity="0.486275" cx="58" cy="49" rx="13" ry="10" />
<ellipse fill="#3f3b3f" fill-opacity="0.576471" cx="249" cy="85" rx="23" ry="12" />
<ellipse fill="#d3d9e1" fill-opacity="0.423529" cx="245" cy="6" rx="3" ry="13" />
<ellipse fill="#373b3e" fill-opacity="0.274510" cx="181" cy="24" rx="4" ry="9" />
<ellipse fill="#262b2d" fill-opacity="0.443137" cx="101" cy="61" rx="25" ry="9" />
<ellipse fill="#283126" fill-opacity="0.474510" cx="237" cy="31" rx="11" ry="4" />
<ellipse fill="#48585b" fill-opacity="0.439216" cx="204" cy="3" rx="13" ry="14" />
<ellipse fill="#e4e8ef" fill-opacity="0.501961" cx="188" cy="27" rx="8" ry="3" />
<ellipse fill="#5e5a5d" fill-opacity="0.603922" cx="195" cy="85" rx="13" ry="8" />
<ellipse fill="#f4f6f8" fill-opacity="0.498039" cx="162" cy="8" rx="4" ry="4" />
</g>
</svg>