<svg xmlns="http://www.w3.org/2000/svg" version="1.1" width="256" height="143">
<rect x="0" y="0" width="256" height="143" fill="#f0f0f0" />
<g transform="scale(1.000000) translate(0.5 0.5)">
<ellipse fill="#171913" fill-opacity="0.572549" cx="131" cy="77" rx="161" ry="142" />
<ellipse fill="#010402" fill-opacity="0.764706" cx="252" cy="90" rx="32" ry="36" />
<ellipse fill="#dbdbd8" fill-opacity="0.584314" cx="60" cy="82" rx="16" ry="50" />
<ellipse fill="#e4e9ed" fill-opacity="0.611765" cx="217" cy="44" rx="118" ry="8" />
<ellipse fill="#101003" fill-opacity="0.552941" cx="54" cy="142" rx="141" ry="14" />
<ellipse fill="#141004" fill-opacity="0.568627" cx="35" cy="3" rx="51" ry="24" />
<ellipse fill="#f0f5f8" fill-opacity="0.411765" cx="150" cy="98" rx="20" ry="34" />
<ellipse fill="#000000" fill-opacity="0.678431" cx="177" cy="92" rx="7" ry="35" />
<ellipse fill="#a9adaf" fill-opacity="0.878431" cx="15" cy="40" rx="58" ry="15" />
<ellipse fill="#dde3e7" fill-opacity="0.615686" cx="139" cy="35" rx="30" ry="11" />
<ellipse fill="#000000" fill-opacity="0.611765" cx="208" cy="95" rx="6" ry="31" />
<ellipse fill="#9a9b99" fill-opacity="0.725490" cx="202" cy="26" rx="42" ry="20" />
<ellipse fill="#000000" fill-opacity="0.686275" cx="107" cy="98" rx="9" ry="13" />
<ellipse fill="#150500" fill-opacity="0.419608" cx="128" cy="53" rx="28" ry="7" />
<ellipse fill="#111312" fill-opacity="0.290196" cx="31" cy="104" rx="14" ry="67" />
<ellipse fill="#b9c3cc" fill-opacity="0.509804" cx="3" cy="61" rx="19" ry="38" />
<ellipse fill="#9aa0a1" fill-opacity="0.925490" cx="194" cy="77" rx="7" ry="55" />
<ellipse fill="#bbbeba" fill-opacity="0.643137" cx="65" cy="122" rx="20" ry="10" />
<ellipse fill="#2c2c22" fill-opacity="0.443137" cx="164" cy="0" rx="200" ry="7" />
<ellipse fill="#d5dce0" fill-opacity="0.670588" cx="229" cy="46" rx="35" ry="8" />
<ellipse fill="#1c160d" fill-opacity="0.541176" cx="252" cy="34" rx="8" ry="8" />
<ellipse fill="#544e46" fill-opacity="0.909804" cx="251" cy="26" rx="42" ry="3" />
<ellipse fill="#a0a7ac" fill-opacity="0.772549" cx="243" cy="18" rx="35" ry="7" />
<ellipse fill="#504a3f" fill-opacity="0.647059" cx="237" cy="60" rx="36" ry="7" />
<ellipse fill="#81827d" fill-opacity="0.760784" cx="186" cy="21" rx="6" ry="36" />
<ellipse fill="#000000" fill-opacity="0.470588" cx="6" cy="142" rx="17" ry="19" />
<ellipse fill="#7c7c77" fill-opacity="0.760784" cx="81" cy="52" rx="14" ry="36" />
<ellipse fill="#131917" fill-opacity="0.643137" cx="236" cy="116" rx="11" ry="9" />
<ellipse fill="#57564b" fill-opacity="0.694118" cx="99" cy="24" rx="17" ry="15" />
<ellipse fill="#5a503f" fill-opacity="0.447059" cx="162" cy="64" rx="21" ry="12" />
<ellipse fill="#babfc0" fill-opacity="0.517647" cx="184" cy="10" rx="54" ry="3" />
<ellipse fill="#c5cdd4" fill-opacity="0.596078" cx="137" cy="77" rx="7" ry="15" />
<ellipse fill="#ecf6f6" fill-opacity="0.352941" cx="151" cy="46" rx="27" ry="6" />
<ellipse fill="#493825" fill-opacity="0.623529" cx="151" cy="24" rx="28" ry="2" />
<ellipse fill="#b7b8b5" fill-opacity="0.486275" cx="113" cy="125" rx="62" ry="4" />
<ellipse fill="#52534a" fill-opacity="0.741176" cx="161" cy="142" rx="35" ry="13" />
<ellipse fill="#4a463b" fill-opacity="0.431373" cx="127" cy="132" rx="5" ry="82" />
<ellipse fill="#302a1d" fill-opacity="0.556863" cx="173" cy="31" rx="4" ry="9" />
<ellipse fill="#cecfd1" fill-opacity="0.458824" cx="220" cy="134" rx="23" ry="3" />
<ellipse fill="#ffffff" fill-opacity="0.396078" cx="223" cy="30" rx="17" ry="3" />
<ellipse fill="#262928" fill-opacity="0.549020" cx="65" cy="13" rx="13" ry="14" />
<ellipse fill="#989991" fill-opacity="0.486275" cx="28" cy="16" rx="13" ry="4" />
<ellipse fill="#dae9f7" fill-opacity="0.301961" cx="122" cy="98" rx="6" ry="11" />
<ellipse fill="#000307" fill-opacity="0.545098" cx="174" cy="86" rx="6" ry="17" />
<ellipse fill="#b1b6b6" fill-opacity="0.588235" cx="43" cy="32" rx="38" ry="6" />
<ellipse fill="#140d00" fill-opacity="0.537255" cx="107" cy="50" rx="8" ry="5" />
<ellipse fill="#fafbff" fill-opacity="0.125490" cx="88" cy="76" rx="65" ry="6" />
<ellipse fill="#eff2f1" fill-opacity="0.580392" cx="105" cy="40" rx="7" ry="3" />
<ellipse fill="#abb0af" fill-opacity="0.600000" cx="218" cy="92" rx="4" ry="10" />
<ellipse fill="#212523" fill-opacity="0.760784" cx="181" cy="120" rx="4" ry="7" />
<ellipse fill="#221202" fill-opacity="0.403922" cx="74" cy="44" rx="8" ry="6" />
<ellipse fill="#edf6fb" fill-opacity="0.501961" cx="123" cy="29" rx="9" ry="5" />
<ellipse fill="#525350" fill-opacity="0.529412" cx="40" cy="65" rx="5" ry="27" />
<ellipse fill="#9d9f9d" fill-opacity="0.611765" cx="198" cy="116" rx="5" ry="46" />
<ellipse fill="#b1b0ab" fill-opacity="0.694118" cx="61" cy="112" rx="17" ry="18" />
<ellipse fill="#16140a" fill-opacity="0.443137" cx="27" cy="112" rx="17" ry="3" />
<ellipse fill="#bfc3c5" fill-opacity="0.545098" cx="14" cy="50" rx="9" ry="26" />
<ellipse fill="#372c1e" fill-opacity="0.498039" cx="191" cy="38" rx="19" ry="2" />
<ellipse fill="#9ca6af" fill-opacity="0.611765" cx="255" cy="27" rx="5" ry="8" />
<ellipse fill="#868e94" fill-opacity="0.635294" cx="6" cy="89" rx="10" ry="26" />
<ellipse fill="#9b9c99" fill-opacity="0.517647" cx="150" cy="72" rx="21" ry="9" />
<ellipse fill="#03080b" fill-opacity="0.564706" cx="204" cy="73" rx="4" ry="7" />
<ellipse fill="#b1b1ae" fill-opacity="0.474510" cx="152" cy="117" rx="21" ry="14" />
<ellipse fill="#64645e" fill-opacity="0.592157" cx="53" cy="21" rx="10" ry="6" />
<ellipse fill="#97acc4" fill-opacity="0.435294" cx="218" cy="66" rx="14" ry="3" />
<ellipse fill="#1d1d16" fill-opacity="0.592157" cx="27" cy="120" rx="16" ry="3" />
<ellipse fill="#121009" fill-opacity="0.556863" cx="0" cy="10" rx="9" ry="14" />
<ellipse fill="#1b1201" fill-opacity="0.423529" cx="125" cy="57" rx="5" ry="11" />
<ellipse fill="#544938" fill-opacity="0.682353" cx="155" cy="57" rx="27" ry="5" />
<ellipse fill="#0c0e0d" fill-opacity="0.529412" cx="240" cy="83" rx="20" ry="19" />
<ellipse fill="#c5c4c1" fill-opacity="0.509804" cx="57" cy="63" rx="13" ry="26" />
<ellipse fill="#abb4b7" fill-opacity="0.588235" cx="123" cy="9" rx="25" ry="2" />
<ellipse fill="#070000" fill-opacity="0.278431" cx="91" cy="119" rx="10" ry="4" />
<ellipse fill="#645b45" fill-opacity="0.549020" cx="126" cy="18" rx="27" ry="7" />
<ellipse fill="#211a0c" fill-opacity="0.454902" cx="108" cy="87" rx="9" ry="6" />
<ellipse fill="#5f5747" fill-opacity="0.482353" cx="185" cy="118" rx="3" ry="83" />
<ellipse fill="#7e8182" fill-opacity="1.000000" cx="236" cy="125" rx="20" ry="1" />
<ellipse fill="#403f34" fill-opacity="0.788235" cx="125" cy="132" rx="15" ry="5" />
<ellipse fill="#d6dee3" fill-opacity="0.725490" cx="148" cy="28" rx="20" ry="2" />
<ellipse fill="#f6fdff" fill-opacity="0.349020" cx="227" cy="52" rx="67" ry="1" />
<ellipse fill="#9f9f99" fill-opacity="0.772549" cx="221" cy="141" rx="22" ry="2" />
<ellipse fill="#969997" fill-opacity="0.596078" cx="37" cy="124" rx="19" ry="2" />
<ellipse fill="#272b2b" fill-opacity="0.564706" cx="48" cy="25" rx="26" ry="2" />
<ellipse fill="#353832" fill-opacity="0.427451" cx="213" cy="97" rx="3" ry="30" />
<ellipse fill="#787a75" fill-opacity="0.745098" cx="91" cy="93" rx="9" ry="23" />
<ellipse fill="#26271a" fill-opacity="0.474510" cx="151" cy="1" rx="26" ry="3" />
<ellipse fill="#bac1c1" fill-opacity="0.431373" cx="107" cy="79" rx="17" ry="3" />
<ellipse fill="#4a5760" fill-opacity="0.380392" cx="246" cy="5" rx="52" ry="6" />
<ellipse fill="#070c09" fill-opacity="0.482353" cx="207" cy="95" rx="4" ry="24" />
<ellipse fill="#b9bdbd" fill-opacity="0.545098" cx="41" cy="115" rx="20" ry="1" />
<ellipse fill="#16140d" fill-opacity="0.623529" cx="113" cy="99" rx="4" ry="12" />
<ellipse fill="#989d9c" fill-opacity="0.564706" cx="189" cy="28" rx="16" ry="9" />
<ellipse fill="#828178" fill-opacity="0.670588" cx="217" cy="18" rx="111" ry="2" />
<ellipse fill="#8b8c85" fill-opacity="0.443137" cx="186" cy="75" rx="4" ry="24" />
<ellipse fill="#8b877e" fill-opacity="1.000000" cx="112" cy="38" rx="14" ry="1" />
<ellipse fill="#000000" fill-opacity="0.521569" cx="10" cy="22" rx="14" ry="2" />
<ellipse fill="#362311" fill-opacity="0.317647" cx="228" cy="26" rx="19" ry="3" />
<ellipse fill="#eff6fb" fill-opacity="0.478431" cx="174" cy="45" rx="9" ry="6" />
<ellipse fill="#c6c9c7" fill-opacity="0.627451" cx="112" cy="124" rx="9" ry="3" />
<ellipse fill="#91918d" fill-opacity="0.749020" cx="82" cy="41" rx="2" ry="33" />
</g>
</svg>