<svg xmlns="http://www.w3.org/2000/svg" version="1.1" width="256" height="143">
<rect x="0" y="0" width="256" height="143" fill="#f0f0f0" />
<g transform="scale(1.000000) translate(0.5 0.5)">
<ellipse fill="#1a1c15" fill-opacity="0.454902" cx="123" cy="89" rx="161" ry="142" />
<ellipse fill="#2b2e2d" fill-opacity="0.517647" cx="60" cy="76" rx="87" ry="37" />
<ellipse fill="#e9f0fa" fill-opacity="0.423529" cx="169" cy="23" rx="68" ry="26" />
<ellipse fill="#1e1f15" fill-opacity="0.568627" cx="9" cy="142" rx="65" ry="31" />
<ellipse fill="#e0dcd4" fill-opacity="0.466667" cx="231" cy="80" rx="89" ry="52" />
<ellipse fill="#bec1c0" fill-opacity="1.000000" cx="114" cy="61" rx="6" ry="69" />
<ellipse fill="#0c1010" fill-opacity="0.666667" cx="83" cy="78" rx="18" ry="30" />
<ellipse fill="#8b8e8c" fill-opacity="1.000000" cx="38" cy="68" rx="9" ry="64" />
<ellipse fill="#f8feff" fill-opacity="0.635294" cx="71" cy="29" rx="26" ry="9" />
<ellipse fill="#dfd4c6" fill-opacity="0.513725" cx="149" cy="123" rx="118" ry="8" />
<ellipse fill="#000000" fill-opacity="0.529412" cx="22" cy="70" rx="9" ry="38" />
<ellipse fill="#030600" fill-opacity="0.627451" cx="250" cy="139" rx="32" ry="8" />
<ellipse fill="#0c1012" fill-opacity="0.600000" cx="132" cy="85" rx="11" ry="28" />
<ellipse fill="#120b00" fill-opacity="0.588235" cx="4" cy="39" rx="16" ry="8" />
<ellipse fill="#716f69" fill-opacity="0.517647" cx="194" cy="69" rx="14" ry="26" />
<ellipse fill="#313b36" fill-opacity="0.501961" cx="108" cy="136" rx="42" ry="6" />
<ellipse fill="#c1c7ca" fill-opacity="0.949020" cx="99" cy="3" rx="22" ry="10" />
<ellipse fill="#000303" fill-opacity="0.568627" cx="52" cy="76" rx="6" ry="30" />
<ellipse fill="#636f7c" fill-opacity="0.627451" cx="171" cy="4" rx="24" ry="9" />
<ellipse fill="#898b89" fill-opacity="0.811765" cx="3" cy="82" rx="11" ry="30" />
<ellipse fill="#a8a7a2" fill-opacity="0.690196" cx="63" cy="96" rx="5" ry="33" />
<ellipse fill="#33352f" fill-opacity="0.407843" cx="19" cy="0" rx="22" ry="19" />
<ellipse fill="#a09b92" fill-opacity="0.760784" cx="80" cy="117" rx="49" ry="9" />
<ellipse fill="#ebefef" fill-opacity="0.752941" cx="135" cy="37" rx="20" ry="8" />
<ellipse fill="#fdffff" fill-opacity="0.635294" cx="89" cy="36" rx="13" ry="5" />
<ellipse fill="#fefbf6" fill-opacity="0.431373" cx="184" cy="126" rx="65" ry="5" />
<ellipse fill="#939ca8" fill-opacity="0.619608" cx="222" cy="9" rx="47" ry="13" />
<ellipse fill="#a9a194" fill-opacity="0.690196" cx="153" cy="115" rx="105" ry="8" />
<ellipse fill="#878073" fill-opacity="1.000000" cx="105" cy="75" rx="4" ry="56" />
<ellipse fill="#645f59" fill-opacity="0.478431" cx="207" cy="45" rx="7" ry="15" />
<ellipse fill="#f4faf8" fill-opacity="0.360784" cx="175" cy="66" rx="7" ry="52" />
<ellipse fill="#6c695f" fill-opacity="0.619608" cx="31" cy="74" rx="4" ry="64" />
<ellipse fill="#f3ffff" fill-opacity="0.486275" cx="19" cy="26" rx="8" ry="7" />
<ellipse fill="#33220f" fill-opacity="0.470588" cx="188" cy="51" rx="14" ry="4" />
<ellipse fill="#dfe2e2" fill-opacity="0.329412" cx="220" cy="66" rx="71" ry="9" />
<ellipse fill="#000215" fill-opacity="0.243137" cx="254" cy="33" rx="10" ry="20" />
<ellipse fill="#2a2e27" fill-opacity="0.607843" cx="16" cy="137" rx="57" ry="9" />
<ellipse fill="#6a5d4a" fill-opacity="0.584314" cx="140" cy="50" rx="22" ry="5" />
<ellipse fill="#171712" fill-opacity="0.498039" cx="193" cy="85" rx="5" ry="10" />
<ellipse fill="#d2d5d5" fill-opacity="0.513725" cx="71" cy="25" rx="22" ry="12" />
<ellipse fill="#b4c0cc" fill-opacity="0.341176" cx="59" cy="50" rx="30" ry="3" />
<ellipse fill="#2b2921" fill-opacity="0.505882" cx="254" cy="114" rx="11" ry="4" />
<ellipse fill="#d3dae1" fill-opacity="0.447059" cx="238" cy="0" rx="48" ry="7" />
<ellipse fill="#f0f6f4" fill-opacity="0.466667" cx="151" cy="16" rx="23" ry="5" />
<ellipse fill="#1b0f03" fill-opacity="0.462745" cx="95" cy="22" rx="4" ry="7" />
<ellipse fill="#332d25" fill-opacity="0.372549" cx="156" cy="30" rx="6" ry="8" />
<ellipse fill="#f6fcfc" fill-opacity="0.435294" cx="166" cy="137" rx="17" ry="3" />
<ellipse fill="#150200" fill-opacity="0.458824" cx="189" cy="109" rx="11" ry="2" />
<ellipse fill="#000205" fill-opacity="0.478431" cx="19" cy="79" rx="6" ry="31" />
<ellipse fill="#6a6f6c" fill-opacity="0.792157" cx="223" cy="142" rx="8" ry="11" />
<ellipse fill="#4a4132" fill-opacity="0.525490" cx="163" cy="42" rx="3" ry="9" />
<ellipse fill="#dae1e4" fill-opacity="0.345098" cx="153" cy="94" rx="8" ry="35" />
<ellipse fill="#f8fdfd" fill-opacity="0.431373" cx="171" cy="44" rx="38" ry="3" />
<ellipse fill="#070b0d" fill-opacity="0.564706" cx="96" cy="97" rx="5" ry="12" />
<ellipse fill="#3c453f" fill-opacity="0.380392" cx="176" cy="133" rx="74" ry="2" />
<ellipse fill="#c9c9c5" fill-opacity="0.674510" cx="230" cy="86" rx="13" ry="32" />
<ellipse fill="#5b646f" fill-opacity="0.545098" cx="252" cy="81" rx="10" ry="6" />
<ellipse fill="#01152d" fill-opacity="0.188235" cx="238" cy="20" rx="24" ry="6" />
<ellipse fill="#b9b7b2" fill-opacity="0.843137" cx="119" cy="96" rx="2" ry="25" />
<ellipse fill="#3c3329" fill-opacity="0.290196" cx="49" cy="20" rx="32" ry="3" />
<ellipse fill="#d8e1e4" fill-opacity="0.541176" cx="255" cy="34" rx="14" ry="5" />
<ellipse fill="#7a828e" fill-opacity="0.658824" cx="142" cy="0" rx="32" ry="6" />
<ellipse fill="#36322b" fill-opacity="0.341176" cx="50" cy="121" rx="33" ry="2" />
<ellipse fill="#93938b" fill-opacity="0.611765" cx="90" cy="128" rx="24" ry="6" />
<ellipse fill="#b2bcc2" fill-opacity="0.380392" cx="42" cy="56" rx="5" ry="45" />
<ellipse fill="#afbac2" fill-opacity="0.403922" cx="3" cy="16" rx="15" ry="13" />
<ellipse fill="#573b21" fill-opacity="0.521569" cx="141" cy="22" rx="10" ry="2" />
<ellipse fill="#e4eaee" fill-opacity="0.572549" cx="240" cy="55" rx="9" ry="10" />
<ellipse fill="#faffff" fill-opacity="0.305882" cx="63" cy="67" rx="3" ry="17" />
<ellipse fill="#786854" fill-opacity="0.721569" cx="147" cy="111" rx="22" ry="2" />
<ellipse fill="#1d190f" fill-opacity="0.529412" cx="20" cy="9" rx="4" ry="10" />
<ellipse fill="#9c8a72" fill-opacity="0.490196" cx="165" cy="103" rx="5" ry="22" />
<ellipse fill="#3c3e36" fill-opacity="0.521569" cx="12" cy="117" rx="21" ry="8" />
<ellipse fill="#2f1a07" fill-opacity="0.466667" cx="86" cy="13" rx="12" ry="2" />
<ellipse fill="#00010e" fill-opacity="0.486275" cx="124" cy="59" rx="6" ry="5" />
<ellipse fill="#cfd6d9" fill-opacity="0.478431" cx="117" cy="15" rx="20" ry="13" />
<ellipse fill="#7e6c52" fill-opacity="0.701961" cx="105" cy="115" rx="5" ry="13" />
<ellipse fill="#2a251a" fill-opacity="0.654902" cx="10" cy="2" rx="10" ry="3" />
<ellipse fill="#ced4d6" fill-opacity="0.443137" cx="179" cy="91" rx="10" ry="19" />
<ellipse fill="#bcbcb5" fill-opacity="0.564706" cx="48" cy="127" rx="17" ry="2" />
<ellipse fill="#dcdfe0" fill-opacity="0.588235" cx="139" cy="116" rx="21" ry="2" />
<ellipse fill="#d6d8d4" fill-opacity="0.588235" cx="188" cy="24" rx="30" ry="5" />
<ellipse fill="#fffffc" fill-opacity="0.392157" cx="100" cy="142" rx="37" ry="1" />
<ellipse fill="#514e43" fill-opacity="0.462745" cx="10" cy="44" rx="25" ry="13" />
<ellipse fill="#f0f5f3" fill-opacity="0.643137" cx="191" cy="38" rx="10" ry="6" />
<ellipse fill="#4a4b41" fill-opacity="0.537255" cx="62" cy="130" rx="22" ry="3" />
<ellipse fill="#402000" fill-opacity="0.372549" cx="239" cy="38" rx="10" ry="2" />
<ellipse fill="#cad3da" fill-opacity="0.458824" cx="71" cy="117" rx="25" ry="3" />
<ellipse fill="#1f1b12" fill-opacity="0.509804" cx="32" cy="28" rx="2" ry="11" />
<ellipse fill="#cdd1d2" fill-opacity="0.631373" cx="211" cy="29" rx="5" ry="12" />
<ellipse fill="#c4caca" fill-opacity="0.541176" cx="205" cy="101" rx="5" ry="25" />
<ellipse fill="#1b1919" fill-opacity="0.494118" cx="104" cy="31" rx="3" ry="6" />
<ellipse fill="#6f7980" fill-opacity="1.000000" cx="187" cy="142" rx="16" ry="5" />
<ellipse fill="#655845" fill-opacity="0.584314" cx="58" cy="40" rx="12" ry="4" />
<ellipse fill="#222526" fill-opacity="0.498039" cx="124" cy="82" rx="4" ry="27" />
<ellipse fill="#f6fdff" fill-opacity="0.498039" cx="97" cy="35" rx="6" ry="6" />
<ellipse fill="#636461" fill-opacity="0.603922" cx="143" cy="82" rx="2" ry="26" />
<ellipse fill="#989fa0" fill-opacity="0.588235" cx="36" cy="67" rx="4" ry="36" />
<ellipse fill="#40392a" fill-opacity="0.462745" cx="0" cy="12" rx="15" ry="3" />
<ellipse fill="#593b20" fill-opacity="0.403922" cx="135" cy="20" rx="7" ry="2" />
</g>
</svg>