<svg xmlns="http://www.w3.org/2000/svg" version="1.1" width="256" height="143">
<rect x="0" y="0" width="256" height="143" fill="#f0f0f0" />
<g transform="scale(1.000000) translate(0.5 0.5)">
<ellipse fill="#2a3536" fill-opacity="0.509804" cx="164" cy="69" rx="201" ry="142" />
<ellipse fill="#fefbef" fill-opacity="0.670588" cx="55" cy="48" rx="28" ry="68" />
<ellipse fill="#0c1727" fill-opacity="0.545098" cx="0" cy="42" rx="25" ry="142" />
<ellipse fill="#344654" fill-opacity="0.596078" cx="229" cy="28" rx="53" ry="49" />
<ellipse fill="#fefced" fill-opacity="0.462745" cx="143" cy="13" rx="32" ry="20" />
<ellipse fill="#373b3d" fill-opacity="0.650980" cx="77" cy="142" rx="129" ry="9" />
<ellipse fill="#ffffff" fill-opacity="0.349020" cx="131" cy="114" rx="30" ry="22" />
<ellipse fill="#c2cbd1" fill-opacity="0.635294" cx="224" cy="92" rx="14" ry="28" />
<ellipse fill="#110600" fill-opacity="0.419608" cx="89" cy="62" rx="7" ry="30" />
<ellipse fill="#000001" fill-opacity="0.450980" cx="131" cy="54" rx="5" ry="27" />
<ellipse fill="#cdccc2" fill-opacity="0.682353" cx="108" cy="0" rx="52" ry="28" />
<ellipse fill="#d5d6cf" fill-opacity="0.643137" cx="56" cy="92" rx="31" ry="24" />
<ellipse fill="#28323a" fill-opacity="0.498039" cx="253" cy="88" rx="14" ry="26" />
<ellipse fill="#1f2e35" fill-opacity="0.482353" cx="173" cy="142" rx="16" ry="27" />
<ellipse fill="#5e605f" fill-opacity="0.400000" cx="46" cy="121" rx="62" ry="15" />
<ellipse fill="#ffffff" fill-opacity="0.607843" cx="190" cy="83" rx="7" ry="10" />
<ellipse fill="#203032" fill-opacity="0.494118" cx="200" cy="36" rx="10" ry="37" />
<ellipse fill="#3e5450" fill-opacity="0.737255" cx="183" cy="0" rx="25" ry="6" />
<ellipse fill="#979fa6" fill-opacity="0.619608" cx="217" cy="95" rx="125" ry="7" />
<ellipse fill="#cacfcd" fill-opacity="0.690196" cx="165" cy="29" rx="10" ry="14" />
<ellipse fill="#dcded7" fill-opacity="0.552941" cx="75" cy="97" rx="10" ry="21" />
<ellipse fill="#d0d3cf" fill-opacity="0.835294" cx="94" cy="84" rx="17" ry="2" />
<ellipse fill="#cac7be" fill-opacity="0.423529" cx="122" cy="35" rx="6" ry="101" />
<ellipse fill="#504d4c" fill-opacity="0.305882" cx="109" cy="41" rx="5" ry="38" />
<ellipse fill="#3f4146" fill-opacity="0.368627" cx="136" cy="78" rx="4" ry="39" />
<ellipse fill="#dce2e5" fill-opacity="0.560784" cx="130" cy="127" rx="29" ry="7" />
<ellipse fill="#3f4857" fill-opacity="0.537255" cx="175" cy="70" rx="5" ry="17" />
<ellipse fill="#728290" fill-opacity="0.333333" cx="224" cy="19" rx="24" ry="41" />
<ellipse fill="#f6f5eb" fill-opacity="0.576471" cx="67" cy="51" rx="9" ry="46" />
<ellipse fill="#97a1ad" fill-opacity="0.635294" cx="217" cy="117" rx="27" ry="19" />
<ellipse fill="#6e757e" fill-opacity="0.329412" cx="23" cy="24" rx="8" ry="116" />
<ellipse fill="#909497" fill-opacity="0.682353" cx="154" cy="95" rx="23" ry="21" />
<ellipse fill="#c6c4be" fill-opacity="0.427451" cx="104" cy="83" rx="6" ry="32" />
<ellipse fill="#4b4a49" fill-opacity="0.501961" cx="152" cy="58" rx="3" ry="25" />
<ellipse fill="#e3e3da" fill-opacity="0.454902" cx="55" cy="71" rx="29" ry="28" />
<ellipse fill="#17222b" fill-opacity="0.325490" cx="205" cy="56" rx="7" ry="24" />
<ellipse fill="#746141" fill-opacity="0.576471" cx="83" cy="27" rx="8" ry="3" />
<ellipse fill="#5b5e59" fill-opacity="0.364706" cx="115" cy="13" rx="18" ry="4" />
<ellipse fill="#2b353e" fill-opacity="0.674510" cx="255" cy="75" rx="18" ry="9" />
<ellipse fill="#203347" fill-opacity="0.501961" cx="187" cy="117" rx="8" ry="4" />
<ellipse fill="#493c2b" fill-opacity="0.400000" cx="88" cy="40" rx="11" ry="7" />
<ellipse fill="#384657" fill-opacity="0.517647" cx="247" cy="142" rx="10" ry="9" />
<ellipse fill="#313b44" fill-opacity="0.572549" cx="1" cy="72" rx="11" ry="73" />
<ellipse fill="#3f4745" fill-opacity="0.584314" cx="165" cy="142" rx="22" ry="15" />
<ellipse fill="#a4a59f" fill-opacity="0.466667" cx="43" cy="111" rx="29" ry="7" />
<ellipse fill="#2e343f" fill-opacity="0.415686" cx="90" cy="97" rx="7" ry="6" />
<ellipse fill="#454d5b" fill-opacity="0.662745" cx="92" cy="130" rx="7" ry="8" />
<ellipse fill="#e1e3de" fill-opacity="0.407843" cx="227" cy="90" rx="11" ry="12" />
<ellipse fill="#fff9e3" fill-opacity="0.454902" cx="88" cy="0" rx="6" ry="27" />
<ellipse fill="#475160" fill-opacity="0.552941" cx="105" cy="119" rx="13" ry="2" />
<ellipse fill="#202028" fill-opacity="0.392157" cx="115" cy="90" rx="4" ry="8" />
<ellipse fill="#c4c7c2" fill-opacity="1.000000" cx="148" cy="26" rx="22" ry="7" />
<ellipse fill="#b3bbbd" fill-opacity="0.423529" cx="177" cy="44" rx="9" ry="9" />
<ellipse fill="#fffffc" fill-opacity="0.192157" cx="190" cy="74" rx="8" ry="22" />
<ellipse fill="#dce5e6" fill-opacity="0.427451" cx="219" cy="112" rx="20" ry="4" />
<ellipse fill="#334440" fill-opacity="0.611765" cx="193" cy="20" rx="8" ry="27" />
<ellipse fill="#d6d5cd" fill-opacity="0.588235" cx="98" cy="105" rx="25" ry="3" />
<ellipse fill="#f6f0eb" fill-opacity="0.247059" cx="145" cy="72" rx="5" ry="16" />
<ellipse fill="#495b6f" fill-opacity="0.501961" cx="214" cy="104" rx="6" ry="5" />
<ellipse fill="#473924" fill-opacity="0.486275" cx="113" cy="30" rx="16" ry="2" />
<ellipse fill="#e1e5e4" fill-opacity="0.584314" cx="114" cy="109" rx="8" ry="9" />
<ellipse fill="#c5c2b5" fill-opacity="0.756863" cx="99" cy="55" rx="2" ry="24" />
<ellipse fill="#69685f" fill-opacity="0.631373" cx="155" cy="44" rx="12" ry="4" />
<ellipse fill="#d3d5ce" fill-opacity="0.572549" cx="154" cy="45" rx="1" ry="30" />
<ellipse fill="#3c4b5e" fill-opacity="0.568627" cx="11" cy="0" rx="19" ry="29" />
<ellipse fill="#5f564e" fill-opacity="0.662745" cx="96" cy="61" rx="2" ry="22" />
<ellipse fill="#5f6671" fill-opacity="0.545098" cx="172" cy="91" rx="15" ry="4" />
<ellipse fill="#10140d" fill-opacity="0.447059" cx="249" cy="108" rx="11" ry="3" />
<ellipse fill="#cccdc7" fill-opacity="0.764706" cx="33" cy="20" rx="3" ry="85" />
<ellipse fill="#cac7bf" fill-opacity="0.403922" cx="158" cy="81" rx="4" ry="22" />
<ellipse fill="#969ca2" fill-opacity="0.858824" cx="202" cy="128" rx="20" ry="8" />
<ellipse fill="#fff6d7" fill-opacity="0.498039" cx="86" cy="32" rx="10" ry="2" />
<ellipse fill="#575a5f" fill-opacity="0.349020" cx="36" cy="131" rx="35" ry="15" />
<ellipse fill="#8a8472" fill-opacity="0.607843" cx="127" cy="34" rx="19" ry="3" />
<ellipse fill="#c3c5c3" fill-opacity="0.635294" cx="124" cy="91" rx="6" ry="15" />
<ellipse fill="#cbcec6" fill-opacity="0.364706" cx="150" cy="119" rx="18" ry="10" />
<ellipse fill="#2d1b00" fill-opacity="0.305882" cx="80" cy="8" rx="7" ry="2" />
<ellipse fill="#eaebe8" fill-opacity="0.466667" cx="246" cy="122" rx="6" ry="4" />
<ellipse fill="#d6d5c9" fill-opacity="0.537255" cx="118" cy="43" rx="2" ry="39" />
<ellipse fill="#e3e2d6" fill-opacity="0.541176" cx="90" cy="20" rx="13" ry="6" />
<ellipse fill="#1d242d" fill-opacity="0.552941" cx="128" cy="48" rx="2" ry="13" />
<ellipse fill="#767f89" fill-opacity="0.419608" cx="225" cy="141" rx="21" ry="24" />
<ellipse fill="#6c6c6e" fill-opacity="0.490196" cx="112" cy="76" rx="6" ry="14" />
<ellipse fill="#27292d" fill-opacity="0.513725" cx="134" cy="80" rx="6" ry="3" />
<ellipse fill="#d7dada" fill-opacity="0.525490" cx="190" cy="76" rx="12" ry="4" />
<ellipse fill="#b2b7b6" fill-opacity="0.603922" cx="155" cy="27" rx="8" ry="13" />
<ellipse fill="#8d8f87" fill-opacity="0.423529" cx="148" cy="109" rx="25" ry="8" />
<ellipse fill="#34393e" fill-opacity="0.572549" cx="150" cy="58" rx="2" ry="15" />
<ellipse fill="#dcdbcf" fill-opacity="0.592157" cx="140" cy="5" rx="16" ry="11" />
<ellipse fill="#64717c" fill-opacity="0.803922" cx="235" cy="45" rx="17" ry="24" />
<ellipse fill="#999a96" fill-opacity="0.458824" cx="141" cy="0" rx="4" ry="21" />
<ellipse fill="#798486" fill-opacity="0.580392" cx="181" cy="46" rx="5" ry="28" />
<ellipse fill="#fefef4" fill-opacity="0.501961" cx="236" cy="117" rx="5" ry="3" />
<ellipse fill="#283443" fill-opacity="0.545098" cx="255" cy="0" rx="4" ry="28" />
<ellipse fill="#413c35" fill-opacity="0.403922" cx="121" cy="86" rx="12" ry="2" />
<ellipse fill="#bac0c1" fill-opacity="0.521569" cx="167" cy="70" rx="2" ry="22" />
<ellipse fill="#6d6a68" fill-opacity="0.388235" cx="122" cy="58" rx="3" ry="20" />
<ellipse fill="#c8cac5" fill-opacity="0.560784" cx="135" cy="102" rx="20" ry="2" />
<ellipse fill="#aeb5bb" fill-opacity="0.529412" cx="187" cy="108" rx="14" ry="5" />
<ellipse fill="#656c7a" fill-opacity="0.396078" cx="192" cy="139" rx="24" ry="5" />
</g>
</svg>