<svg xmlns="http://www.w3.org/2000/svg" version="1.1" width="256" height="143">
<rect x="0" y="0" width="256" height="143" fill="#f0f0f0" />
<g transform="scale(1.000000) translate(0.5 0.5)">
<ellipse fill="#525415" fill-opacity="0.800000" cx="86" cy="117" rx="254" ry="35" />
<ellipse fill="#51483f" fill-opacity="0.803922" cx="156" cy="87" rx="16" ry="28" />
<ellipse fill="#bbbec5" fill-opacity="0.407843" cx="167" cy="61" rx="240" ry="30" />
<ellipse fill="#1e2616" fill-opacity="0.474510" cx="33" cy="103" rx="101" ry="17" />
<ellipse fill="#abb2b8" fill-opacity="0.466667" cx="5" cy="9" rx="45" ry="75" />
<ellipse fill="#f2ff27" fill-opacity="0.172549" cx="156" cy="129" rx="125" ry="19" />
<ellipse fill="#3f3625" fill-opacity="0.623529" cx="160" cy="85" rx="8" ry="31" />
<ellipse fill="#dadbdc" fill-opacity="0.705882" cx="207" cy="82" rx="36" ry="11" />
<ellipse fill="#3b3c37" fill-opacity="0.756863" cx="220" cy="98" rx="255" ry="6" />
<ellipse fill="#d4d6d7" fill-opacity="0.854902" cx="110" cy="81" rx="26" ry="8" />
<ellipse fill="#081200" fill-opacity="0.537255" cx="63" cy="115" rx="41" ry="5" />
<ellipse fill="#22251b" fill-opacity="0.474510" cx="0" cy="92" rx="14" ry="18" />
<ellipse fill="#51483c" fill-opacity="0.717647" cx="154" cy="90" rx="17" ry="18" />
<ellipse fill="#989347" fill-opacity="0.400000" cx="98" cy="107" rx="37" ry="7" />
<ellipse fill="#7e8130" fill-opacity="0.760784" cx="10" cy="128" rx="15" ry="23" />
<ellipse fill="#ededee" fill-opacity="0.658824" cx="148" cy="45" rx="6" ry="31" />
<ellipse fill="#d6d9dd" fill-opacity="0.521569" cx="49" cy="33" rx="41" ry="53" />
<ellipse fill="#e6e7e9" fill-opacity="0.803922" cx="191" cy="12" rx="137" ry="43" />
<ellipse fill="#293336" fill-opacity="0.423529" cx="239" cy="90" rx="13" ry="4" />
<ellipse fill="#9c9f9d" fill-opacity="0.647059" cx="79" cy="84" rx="14" ry="5" />
<ellipse fill="#94984a" fill-opacity="0.717647" cx="169" cy="119" rx="65" ry="9" />
<ellipse fill="#4a4a40" fill-opacity="0.639216" cx="141" cy="93" rx="53" ry="5" />
<ellipse fill="#7f7c3a" fill-opacity="0.556863" cx="40" cy="106" rx="119" ry="3" />
<ellipse fill="#b9bdc2" fill-opacity="0.447059" cx="7" cy="18" rx="13" ry="63" />
<ellipse fill="#8d7070" fill-opacity="0.419608" cx="217" cy="108" rx="38" ry="6" />
<ellipse fill="#63661b" fill-opacity="0.427451" cx="255" cy="142" rx="29" ry="19" />
<ellipse fill="#20251d" fill-opacity="0.407843" cx="246" cy="101" rx="26" ry="6" />
<ellipse fill="#e1e1e1" fill-opacity="0.517647" cx="221" cy="72" rx="11" ry="23" />
<ellipse fill="#e9e8e8" fill-opacity="0.513725" cx="195" cy="59" rx="31" ry="30" />
<ellipse fill="#45413c" fill-opacity="0.447059" cx="159" cy="55" rx="3" ry="6" />
<ellipse fill="#d4d6d6" fill-opacity="0.733333" cx="78" cy="79" rx="6" ry="9" />
<ellipse fill="#d6d5d4" fill-opacity="0.392157" cx="252" cy="23" rx="19" ry="69" />
<ellipse fill="#888e36" fill-opacity="0.701961" cx="41" cy="134" rx="24" ry="15" />
<ellipse fill="#bcbfc1" fill-opacity="0.427451" cx="44" cy="79" rx="37" ry="6" />
<ellipse fill="#2c3e00" fill-opacity="0.482353" cx="54" cy="110" rx="30" ry="3" />
<ellipse fill="#252a2f" fill-opacity="0.247059" cx="0" cy="95" rx="47" ry="14" />
<ellipse fill="#8a857e" fill-opacity="0.258824" cx="192" cy="93" rx="47" ry="3" />
<ellipse fill="#e4e7e6" fill-opacity="0.317647" cx="102" cy="58" rx="17" ry="34" />
<ellipse fill="#dfe1e4" fill-opacity="0.505882" cx="64" cy="27" rx="35" ry="35" />
<ellipse fill="#dfe0e0" fill-opacity="0.552941" cx="134" cy="78" rx="6" ry="10" />
<ellipse fill="#44473d" fill-opacity="0.631373" cx="85" cy="90" rx="2" ry="11" />
<ellipse fill="#49534d" fill-opacity="0.423529" cx="59" cy="87" rx="11" ry="4" />
<ellipse fill="#0c1c1b" fill-opacity="0.223529" cx="127" cy="94" rx="21" ry="7" />
<ellipse fill="#6c525f" fill-opacity="0.254902" cx="165" cy="105" rx="72" ry="7" />
<ellipse fill="#88795e" fill-opacity="0.580392" cx="180" cy="100" rx="3" ry="15" />
<ellipse fill="#070700" fill-opacity="0.317647" cx="58" cy="118" rx="43" ry="2" />
<ellipse fill="#e7e8e9" fill-opacity="0.521569" cx="139" cy="46" rx="20" ry="24" />
<ellipse fill="#7c8f0e" fill-opacity="0.525490" cx="62" cy="106" rx="37" ry="2" />
<ellipse fill="#2e342c" fill-opacity="0.431373" cx="101" cy="99" rx="67" ry="4" />
<ellipse fill="#4a4236" fill-opacity="0.447059" cx="145" cy="89" rx="3" ry="21" />
<ellipse fill="#a7a157" fill-opacity="0.431373" cx="251" cy="112" rx="22" ry="5" />
<ellipse fill="#979053" fill-opacity="0.525490" cx="107" cy="114" rx="6" ry="11" />
<ellipse fill="#939744" fill-opacity="0.635294" cx="99" cy="124" rx="64" ry="5" />
<ellipse fill="#dcdddf" fill-opacity="0.501961" cx="196" cy="85" rx="6" ry="9" />
<ellipse fill="#414b0d" fill-opacity="0.498039" cx="82" cy="113" rx="21" ry="5" />
<ellipse fill="#453f37" fill-opacity="0.431373" cx="160" cy="78" rx="9" ry="16" />
<ellipse fill="#666a5c" fill-opacity="0.380392" cx="226" cy="88" rx="3" ry="3" />
<ellipse fill="#a2a456" fill-opacity="0.517647" cx="125" cy="114" rx="24" ry="3" />
<ellipse fill="#d3d4d9" fill-opacity="0.419608" cx="31" cy="48" rx="26" ry="36" />
<ellipse fill="#434b3e" fill-opacity="0.486275" cx="69" cy="87" rx="2" ry="8" />
<ellipse fill="#a4a8a7" fill-opacity="0.631373" cx="0" cy="68" rx="8" ry="8" />
<ellipse fill="#323b2f" fill-opacity="0.447059" cx="234" cy="91" rx="7" ry="4" />
<ellipse fill="#a49b6a" fill-opacity="0.545098" cx="188" cy="111" rx="6" ry="6" />
<ellipse fill="#d6d5d4" fill-opacity="0.580392" cx="244" cy="80" rx="11" ry="9" />
<ellipse fill="#efeff1" fill-opacity="0.427451" cx="173" cy="12" rx="41" ry="30" />
<ellipse fill="#979c48" fill-opacity="0.431373" cx="10" cy="113" rx="12" ry="4" />
<ellipse fill="#898b39" fill-opacity="0.541176" cx="28" cy="125" rx="15" ry="7" />
<ellipse fill="#e5e4e5" fill-opacity="0.458824" cx="148" cy="57" rx="3" ry="22" />
<ellipse fill="#826e60" fill-opacity="0.509804" cx="115" cy="104" rx="6" ry="5" />
<ellipse fill="#dadad9" fill-opacity="0.474510" cx="209" cy="81" rx="35" ry="8" />
<ellipse fill="#282c1d" fill-opacity="0.564706" cx="8" cy="97" rx="19" ry="7" />
<ellipse fill="#51473a" fill-opacity="0.364706" cx="144" cy="85" rx="5" ry="14" />
<ellipse fill="#2d372f" fill-opacity="0.360784" cx="212" cy="99" rx="4" ry="9" />
<ellipse fill="#d3d5d9" fill-opacity="0.458824" cx="45" cy="63" rx="20" ry="23" />
<ellipse fill="#666f23" fill-opacity="0.513725" cx="0" cy="135" rx="12" ry="14" />
<ellipse fill="#c1c7c9" fill-opacity="0.356863" cx="17" cy="72" rx="5" ry="16" />
<ellipse fill="#a18b69" fill-opacity="0.435294" cx="31" cy="103" rx="3" ry="3" />
<ellipse fill="#dab6a0" fill-opacity="0.470588" cx="245" cy="110" rx="14" ry="1" />
<ellipse fill="#5b4e39" fill-opacity="0.556863" cx="166" cy="99" rx="7" ry="14" />
<ellipse fill="#8f908b" fill-opacity="0.188235" cx="97" cy="88" rx="67" ry="2" />
<ellipse fill="#7f822f" fill-opacity="0.549020" cx="215" cy="142" rx="26" ry="13" />
<ellipse fill="#3a4231" fill-opacity="0.513725" cx="57" cy="88" rx="5" ry="4" />
<ellipse fill="#959b4d" fill-opacity="0.541176" cx="178" cy="114" rx="58" ry="3" />
<ellipse fill="#81847c" fill-opacity="0.572549" cx="254" cy="90" rx="11" ry="1" />
<ellipse fill="#e3e3e4" fill-opacity="0.470588" cx="177" cy="64" rx="6" ry="26" />
<ellipse fill="#534e47" fill-opacity="0.443137" cx="160" cy="67" rx="3" ry="20" />
<ellipse fill="#444b41" fill-opacity="0.635294" cx="202" cy="97" rx="2" ry="7" />
<ellipse fill="#a79781" fill-opacity="0.631373" cx="200" cy="105" rx="2" ry="4" />
<ellipse fill="#d7d9da" fill-opacity="0.525490" cx="102" cy="78" rx="12" ry="12" />
<ellipse fill="#979b93" fill-opacity="0.968627" cx="117" cy="88" rx="9" ry="1" />
<ellipse fill="#b2b8bf" fill-opacity="0.521569" cx="0" cy="0" rx="9" ry="25" />
<ellipse fill="#e7e7e9" fill-opacity="0.474510" cx="188" cy="47" rx="28" ry="23" />
<ellipse fill="#636b19" fill-opacity="0.607843" cx="85" cy="111" rx="5" ry="6" />
<ellipse fill="#605a6f" fill-opacity="0.419608" cx="138" cy="104" rx="7" ry="5" />
<ellipse fill="#82843b" fill-opacity="0.270588" cx="43" cy="105" rx="35" ry="3" />
<ellipse fill="#594429" fill-opacity="0.498039" cx="160" cy="108" rx="20" ry="2" />
<ellipse fill="#e1e3e3" fill-opacity="0.501961" cx="132" cy="61" rx="23" ry="9" />
<ellipse fill="#a4987c" fill-opacity="0.537255" cx="218" cy="103" rx="4" ry="2" />
<ellipse fill="#464f3c" fill-opacity="0.552941" cx="70" cy="93" rx="39" ry="4" />
<ellipse fill="#7f8439" fill-opacity="0.513725" cx="246" cy="120" rx="22" ry="9" />
</g>
</svg>