<svg xmlns="http://www.w3.org/2000/svg" version="1.1" width="256" height="143">
<rect x="0" y="0" width="256" height="143" fill="#f0f0f0" />
<g transform="scale(1.000000) translate(0.5 0.5)">
<ellipse fill="#0a0d08" fill-opacity="0.639216" cx="129" cy="62" rx="160" ry="141" />
<ellipse fill="#8e9393" fill-opacity="0.631373" cx="172" cy="48" rx="53" ry="33" />
<ellipse fill="#3c3932" fill-opacity="0.454902" cx="247" cy="116" rx="119" ry="27" />
<ellipse fill="#2f302a" fill-opacity="0.309804" cx="86" cy="88" rx="56" ry="42" />
<ellipse fill="#858888" fill-opacity="0.603922" cx="146" cy="125" rx="6" ry="116" />
<ellipse fill="#818585" fill-opacity="0.462745" cx="206" cy="67" rx="22" ry="36" />
<ellipse fill="#7d8282" fill-opacity="0.458824" cx="17" cy="83" rx="11" ry="54" />
<ellipse fill="#160f02" fill-opacity="0.533333" cx="247" cy="37" rx="10" ry="7" />
<ellipse fill="#969da0" fill-opacity="0.643137" cx="181" cy="40" rx="27" ry="12" />
<ellipse fill="#38342c" fill-opacity="0.658824" cx="168" cy="96" rx="18" ry="11" />
<ellipse fill="#261e0c" fill-opacity="0.184314" cx="188" cy="0" rx="49" ry="25" />
<ellipse fill="#c7cbca" fill-opacity="0.333333" cx="119" cy="66" rx="6" ry="12" />
<ellipse fill="#2d3435" fill-opacity="0.415686" cx="98" cy="105" rx="8" ry="134" />
<ellipse fill="#2a2a26" fill-opacity="0.490196" cx="235" cy="130" rx="13" ry="36" />
<ellipse fill="#f7f7ff" fill-opacity="0.090196" cx="137" cy="142" rx="84" ry="12" />
<ellipse fill="#898e8f" fill-opacity="0.937255" cx="147" cy="24" rx="18" ry="9" />
<ellipse fill="#2c3132" fill-opacity="0.450980" cx="37" cy="67" rx="8" ry="36" />
<ellipse fill="#414039" fill-opacity="0.466667" cx="64" cy="20" rx="43" ry="9" />
<ellipse fill="#83827c" fill-opacity="0.490196" cx="36" cy="129" rx="13" ry="16" />
<ellipse fill="#6f695f" fill-opacity="0.454902" cx="180" cy="74" rx="25" ry="19" />
<ellipse fill="#0b0300" fill-opacity="0.309804" cx="134" cy="85" rx="4" ry="26" />
<ellipse fill="#636766" fill-opacity="0.494118" cx="57" cy="96" rx="18" ry="17" />
<ellipse fill="#808381" fill-opacity="0.470588" cx="55" cy="48" rx="10" ry="15" />
<ellipse fill="#747876" fill-opacity="0.482353" cx="246" cy="78" rx="7" ry="28" />
<ellipse fill="#7c7c77" fill-opacity="0.533333" cx="113" cy="142" rx="10" ry="28" />
<ellipse fill="#2d271b" fill-opacity="0.490196" cx="169" cy="6" rx="22" ry="4" />
<ellipse fill="#595a55" fill-opacity="0.486275" cx="216" cy="7" rx="25" ry="30" />
<ellipse fill="#565956" fill-opacity="0.792157" cx="89" cy="59" rx="8" ry="41" />
<ellipse fill="#7d7e7b" fill-opacity="0.494118" cx="179" cy="120" rx="10" ry="7" />
<ellipse fill="#292721" fill-opacity="0.454902" cx="56" cy="66" rx="31" ry="4" />
<ellipse fill="#7b7c78" fill-opacity="0.529412" cx="213" cy="134" rx="5" ry="17" />
<ellipse fill="#090700" fill-opacity="0.494118" cx="120" cy="101" rx="2" ry="16" />
<ellipse fill="#0a0400" fill-opacity="0.133333" cx="192" cy="129" rx="11" ry="42" />
<ellipse fill="#323431" fill-opacity="0.478431" cx="97" cy="118" rx="8" ry="34" />
<ellipse fill="#66655f" fill-opacity="0.674510" cx="113" cy="47" rx="5" ry="63" />
<ellipse fill="#282c2b" fill-opacity="0.666667" cx="107" cy="98" rx="4" ry="16" />
<ellipse fill="#3b3933" fill-opacity="0.658824" cx="136" cy="118" rx="8" ry="9" />
<ellipse fill="#222016" fill-opacity="0.364706" cx="55" cy="50" rx="19" ry="3" />
<ellipse fill="#7b756a" fill-opacity="0.572549" cx="125" cy="102" rx="3" ry="21" />
<ellipse fill="#797f80" fill-opacity="0.533333" cx="147" cy="71" rx="9" ry="33" />
<ellipse fill="#7b878f" fill-opacity="0.513725" cx="3" cy="75" rx="16" ry="9" />
<ellipse fill="#2e2d27" fill-opacity="0.419608" cx="235" cy="96" rx="5" ry="29" />
<ellipse fill="#7f8484" fill-opacity="0.619608" cx="54" cy="59" rx="14" ry="3" />
<ellipse fill="#6d7376" fill-opacity="0.494118" cx="8" cy="41" rx="29" ry="11" />
<ellipse fill="#9fa7ab" fill-opacity="0.549020" cx="165" cy="31" rx="9" ry="10" />
<ellipse fill="#444643" fill-opacity="0.537255" cx="84" cy="12" rx="20" ry="13" />
<ellipse fill="#505453" fill-opacity="0.470588" cx="27" cy="84" rx="8" ry="31" />
<ellipse fill="#a1a5a2" fill-opacity="0.341176" cx="109" cy="113" rx="2" ry="14" />
<ellipse fill="#959a9b" fill-opacity="0.490196" cx="175" cy="0" rx="12" ry="3" />
<ellipse fill="#82837e" fill-opacity="0.501961" cx="63" cy="79" rx="3" ry="13" />
<ellipse fill="#21231d" fill-opacity="0.317647" cx="69" cy="71" rx="4" ry="31" />
<ellipse fill="#2d2c28" fill-opacity="0.352941" cx="157" cy="103" rx="5" ry="29" />
<ellipse fill="#1c1a13" fill-opacity="0.780392" cx="254" cy="142" rx="12" ry="5" />
<ellipse fill="#7a868c" fill-opacity="0.345098" cx="249" cy="6" rx="58" ry="3" />
<ellipse fill="#80807c" fill-opacity="0.505882" cx="137" cy="141" rx="20" ry="15" />
<ellipse fill="#727675" fill-opacity="0.525490" cx="44" cy="21" rx="12" ry="4" />
<ellipse fill="#565a5a" fill-opacity="0.431373" cx="249" cy="128" rx="20" ry="10" />
<ellipse fill="#686863" fill-opacity="0.494118" cx="156" cy="13" rx="14" ry="7" />
<ellipse fill="#757671" fill-opacity="0.545098" cx="139" cy="42" rx="19" ry="17" />
<ellipse fill="#8c9190" fill-opacity="0.415686" cx="252" cy="61" rx="7" ry="12" />
<ellipse fill="#39342a" fill-opacity="0.443137" cx="131" cy="71" rx="9" ry="7" />
<ellipse fill="#363531" fill-opacity="0.466667" cx="16" cy="25" rx="12" ry="4" />
<ellipse fill="#343632" fill-opacity="0.403922" cx="6" cy="58" rx="10" ry="6" />
<ellipse fill="#7d7f7c" fill-opacity="0.780392" cx="206" cy="78" rx="13" ry="10" />
<ellipse fill="#353026" fill-opacity="0.505882" cx="197" cy="10" rx="28" ry="2" />
<ellipse fill="#44392b" fill-opacity="0.529412" cx="127" cy="16" rx="5" ry="8" />
<ellipse fill="#5f5c55" fill-opacity="0.505882" cx="211" cy="102" rx="17" ry="11" />
<ellipse fill="#5a5f61" fill-opacity="0.564706" cx="151" cy="117" rx="3" ry="31" />
<ellipse fill="#696f6f" fill-opacity="0.443137" cx="74" cy="88" rx="30" ry="3" />
<ellipse fill="#737a7c" fill-opacity="0.454902" cx="74" cy="99" rx="17" ry="3" />
<ellipse fill="#8a949c" fill-opacity="0.525490" cx="21" cy="52" rx="8" ry="4" />
<ellipse fill="#494c48" fill-opacity="0.462745" cx="241" cy="49" rx="5" ry="20" />
<ellipse fill="#291504" fill-opacity="0.168627" cx="11" cy="142" rx="10" ry="16" />
<ellipse fill="#4a4c4a" fill-opacity="0.545098" cx="60" cy="126" rx="13" ry="12" />
<ellipse fill="#6d6b64" fill-opacity="0.678431" cx="127" cy="96" rx="4" ry="20" />
<ellipse fill="#acb7c1" fill-opacity="0.360784" cx="60" cy="36" rx="6" ry="4" />
<ellipse fill="#87847c" fill-opacity="0.349020" cx="13" cy="107" rx="7" ry="26" />
<ellipse fill="#0d0600" fill-opacity="0.274510" cx="186" cy="104" rx="8" ry="5" />
<ellipse fill="#232828" fill-opacity="0.490196" cx="108" cy="90" rx="5" ry="9" />
<ellipse fill="#4b4c47" fill-opacity="0.474510" cx="255" cy="78" rx="6" ry="18" />
<ellipse fill="#3e3c35" fill-opacity="0.537255" cx="45" cy="31" rx="9" ry="6" />
<ellipse fill="#606d75" fill-opacity="0.349020" cx="225" cy="63" rx="9" ry="32" />
<ellipse fill="#6c6861" fill-opacity="0.509804" cx="167" cy="108" rx="6" ry="7" />
<ellipse fill="#34322b" fill-opacity="0.470588" cx="28" cy="109" rx="9" ry="4" />
<ellipse fill="#3e3d36" fill-opacity="0.607843" cx="23" cy="44" rx="3" ry="5" />
<ellipse fill="#423d33" fill-opacity="0.662745" cx="146" cy="0" rx="10" ry="9" />
<ellipse fill="#858886" fill-opacity="0.501961" cx="143" cy="70" rx="5" ry="32" />
<ellipse fill="#3a372f" fill-opacity="0.537255" cx="13" cy="37" rx="7" ry="3" />
<ellipse fill="#242626" fill-opacity="0.541176" cx="204" cy="127" rx="4" ry="8" />
<ellipse fill="#8a9298" fill-opacity="0.415686" cx="28" cy="34" rx="7" ry="5" />
<ellipse fill="#98a0a4" fill-opacity="0.329412" cx="26" cy="88" rx="7" ry="4" />
<ellipse fill="#28251a" fill-opacity="0.368627" cx="255" cy="39" rx="15" ry="9" />
<ellipse fill="#3d362a" fill-opacity="0.501961" cx="124" cy="26" rx="3" ry="9" />
<ellipse fill="#868b8a" fill-opacity="0.509804" cx="187" cy="50" rx="34" ry="5" />
<ellipse fill="#8d9392" fill-opacity="0.564706" cx="198" cy="0" rx="8" ry="2" />
<ellipse fill="#211c13" fill-opacity="0.474510" cx="53" cy="74" rx="2" ry="12" />
<ellipse fill="#373934" fill-opacity="0.929412" cx="95" cy="69" rx="9" ry="3" />
<ellipse fill="#2d2c25" fill-opacity="0.545098" cx="120" cy="102" rx="4" ry="12" />
<ellipse fill="#363a36" fill-opacity="0.403922" cx="4" cy="93" rx="5" ry="8" />
<ellipse fill="#737b7f" fill-opacity="0.572549" cx="29" cy="6" rx="21" ry="2" />
</g>
</svg>