<svg xmlns="http://www.w3.org/2000/svg" version="1.1" width="256" height="143">
<rect x="0" y="0" width="256" height="143" fill="#f0f0f0" />
<g transform="scale(1.000000) translate(0.5 0.5)">
<ellipse fill="#49410a" fill-opacity="0.784314" cx="122" cy="133" rx="252" ry="73" />
<ellipse fill="#999d9e" fill-opacity="0.356863" cx="130" cy="21" rx="153" ry="84" />
<ellipse fill="#212803" fill-opacity="0.466667" cx="41" cy="113" rx="50" ry="41" />
<ellipse fill="#ffd698" fill-opacity="0.364706" cx="183" cy="89" rx="32" ry="32" />
<ellipse fill="#252c00" fill-opacity="0.396078" cx="251" cy="113" rx="49" ry="48" />
<ellipse fill="#555429" fill-opacity="0.800000" cx="79" cy="78" rx="45" ry="14" />
<ellipse fill="#c0c8d5" fill-opacity="0.666667" cx="211" cy="50" rx="56" ry="21" />
<ellipse fill="#e4b06e" fill-opacity="0.494118" cx="145" cy="87" rx="35" ry="12" />
<ellipse fill="#bf9c69" fill-opacity="0.580392" cx="106" cy="117" rx="9" ry="34" />
<ellipse fill="#b9c0c9" fill-opacity="0.698039" cx="13" cy="52" rx="45" ry="19" />
<ellipse fill="#6b6622" fill-opacity="0.388235" cx="137" cy="67" rx="34" ry="12" />
<ellipse fill="#343c00" fill-opacity="0.258824" cx="148" cy="128" rx="32" ry="34" />
<ellipse fill="#dce4f0" fill-opacity="0.521569" cx="133" cy="17" rx="84" ry="36" />
<ellipse fill="#a2abbc" fill-opacity="0.454902" cx="250" cy="25" rx="19" ry="42" />
<ellipse fill="#a58a5b" fill-opacity="0.886275" cx="103" cy="100" rx="23" ry="7" />
<ellipse fill="#9aa2b0" fill-opacity="0.380392" cx="0" cy="1" rx="21" ry="74" />
<ellipse fill="#212916" fill-opacity="0.690196" cx="8" cy="134" rx="34" ry="10" />
<ellipse fill="#827d2f" fill-opacity="0.560784" cx="89" cy="140" rx="35" ry="8" />
<ellipse fill="#e3c794" fill-opacity="0.670588" cx="133" cy="60" rx="8" ry="6" />
<ellipse fill="#baa068" fill-opacity="0.501961" cx="166" cy="93" rx="20" ry="21" />
<ellipse fill="#474914" fill-opacity="0.662745" cx="225" cy="136" rx="33" ry="19" />
<ellipse fill="#c5a39a" fill-opacity="0.423529" cx="189" cy="121" rx="7" ry="11" />
<ellipse fill="#b1baaf" fill-opacity="0.568627" cx="73" cy="61" rx="26" ry="3" />
<ellipse fill="#000e0e" fill-opacity="0.396078" cx="2" cy="90" rx="10" ry="13" />
<ellipse fill="#d1a16c" fill-opacity="0.498039" cx="110" cy="127" rx="21" ry="3" />
<ellipse fill="#cba876" fill-opacity="0.643137" cx="154" cy="82" rx="24" ry="9" />
<ellipse fill="#000417" fill-opacity="0.176471" cx="107" cy="81" rx="29" ry="6" />
<ellipse fill="#b0936a" fill-opacity="0.670588" cx="198" cy="82" rx="20" ry="13" />
<ellipse fill="#b37a80" fill-opacity="0.301961" cx="8" cy="115" rx="4" ry="14" />
<ellipse fill="#d0d6dd" fill-opacity="0.333333" cx="187" cy="44" rx="24" ry="32" />
<ellipse fill="#6c6b26" fill-opacity="0.568627" cx="66" cy="138" rx="15" ry="19" />
<ellipse fill="#364227" fill-opacity="0.509804" cx="145" cy="69" rx="13" ry="6" />
<ellipse fill="#98a0a2" fill-opacity="0.372549" cx="19" cy="71" rx="17" ry="7" />
<ellipse fill="#444718" fill-opacity="0.517647" cx="140" cy="125" rx="11" ry="22" />
<ellipse fill="#c9d0db" fill-opacity="0.403922" cx="36" cy="33" rx="25" ry="36" />
<ellipse fill="#686d3f" fill-opacity="0.431373" cx="244" cy="73" rx="44" ry="5" />
<ellipse fill="#374520" fill-opacity="0.447059" cx="62" cy="109" rx="42" ry="6" />
<ellipse fill="#363e09" fill-opacity="0.443137" cx="175" cy="124" rx="6" ry="10" />
<ellipse fill="#6d6e38" fill-opacity="0.470588" cx="67" cy="74" rx="8" ry="15" />
<ellipse fill="#555a1f" fill-opacity="0.466667" cx="53" cy="84" rx="16" ry="21" />
<ellipse fill="#c6ccd6" fill-opacity="0.415686" cx="217" cy="34" rx="30" ry="36" />
<ellipse fill="#ffdead" fill-opacity="0.290196" cx="110" cy="109" rx="7" ry="5" />
<ellipse fill="#efb786" fill-opacity="0.349020" cx="129" cy="93" rx="18" ry="5" />
<ellipse fill="#716734" fill-opacity="0.305882" cx="216" cy="110" rx="15" ry="22" />
<ellipse fill="#2a2a12" fill-opacity="0.450980" cx="255" cy="101" rx="32" ry="6" />
<ellipse fill="#4c4921" fill-opacity="0.549020" cx="138" cy="120" rx="28" ry="6" />
<ellipse fill="#131117" fill-opacity="0.443137" cx="84" cy="86" rx="6" ry="7" />
<ellipse fill="#ab8253" fill-opacity="0.537255" cx="96" cy="98" rx="25" ry="4" />
<ellipse fill="#565338" fill-opacity="0.505882" cx="155" cy="72" rx="24" ry="2" />
<ellipse fill="#ffdba5" fill-opacity="0.474510" cx="160" cy="70" rx="2" ry="7" />
<ellipse fill="#ceaf7d" fill-opacity="0.717647" cx="168" cy="77" rx="2" ry="16" />
<ellipse fill="#cfd5dc" fill-opacity="0.623529" cx="91" cy="49" rx="9" ry="15" />
<ellipse fill="#7a721d" fill-opacity="0.572549" cx="181" cy="142" rx="19" ry="9" />
<ellipse fill="#899093" fill-opacity="0.235294" cx="240" cy="65" rx="16" ry="7" />
<ellipse fill="#212a13" fill-opacity="0.427451" cx="222" cy="77" rx="6" ry="6" />
<ellipse fill="#908e2d" fill-opacity="0.396078" cx="51" cy="84" rx="12" ry="4" />
<ellipse fill="#66693b" fill-opacity="0.592157" cx="153" cy="61" rx="11" ry="3" />
<ellipse fill="#605043" fill-opacity="0.600000" cx="10" cy="121" rx="21" ry="4" />
<ellipse fill="#848b2f" fill-opacity="0.262745" cx="151" cy="102" rx="30" ry="8" />
<ellipse fill="#706d4e" fill-opacity="0.549020" cx="146" cy="59" rx="3" ry="6" />
<ellipse fill="#ffc26c" fill-opacity="0.368627" cx="126" cy="125" rx="5" ry="3" />
<ellipse fill="#212815" fill-opacity="0.419608" cx="67" cy="99" rx="5" ry="15" />
<ellipse fill="#e1e7eb" fill-opacity="0.443137" cx="128" cy="7" rx="48" ry="20" />
<ellipse fill="#8c7951" fill-opacity="0.415686" cx="73" cy="77" rx="6" ry="14" />
<ellipse fill="#bfa378" fill-opacity="0.388235" cx="191" cy="113" rx="15" ry="8" />
<ellipse fill="#736f4a" fill-opacity="0.654902" cx="112" cy="85" rx="21" ry="2" />
<ellipse fill="#8b914b" fill-opacity="0.494118" cx="112" cy="61" rx="17" ry="2" />
<ellipse fill="#353f1a" fill-opacity="0.309804" cx="111" cy="142" rx="37" ry="3" />
<ellipse fill="#827434" fill-opacity="0.423529" cx="51" cy="103" rx="8" ry="5" />
<ellipse fill="#646d68" fill-opacity="0.470588" cx="6" cy="72" rx="27" ry="3" />
<ellipse fill="#554b39" fill-opacity="0.494118" cx="111" cy="97" rx="5" ry="4" />
<ellipse fill="#ced5df" fill-opacity="0.501961" cx="74" cy="48" rx="9" ry="16" />
<ellipse fill="#222a10" fill-opacity="0.458824" cx="54" cy="114" rx="12" ry="7" />
<ellipse fill="#837d37" fill-opacity="0.556863" cx="204" cy="93" rx="18" ry="2" />
<ellipse fill="#bec3ca" fill-opacity="0.450980" cx="20" cy="23" rx="13" ry="47" />
<ellipse fill="#61693a" fill-opacity="0.639216" cx="81" cy="66" rx="8" ry="4" />
<ellipse fill="#88794c" fill-opacity="0.776471" cx="114" cy="142" rx="4" ry="14" />
<ellipse fill="#a6957e" fill-opacity="0.474510" cx="165" cy="110" rx="7" ry="7" />
<ellipse fill="#815f3b" fill-opacity="0.482353" cx="153" cy="81" rx="3" ry="6" />
<ellipse fill="#8a775a" fill-opacity="0.564706" cx="95" cy="127" rx="5" ry="10" />
<ellipse fill="#d4be9b" fill-opacity="0.588235" cx="185" cy="75" rx="28" ry="1" />
<ellipse fill="#e7bc91" fill-opacity="0.470588" cx="102" cy="115" rx="5" ry="3" />
<ellipse fill="#434214" fill-opacity="0.439216" cx="201" cy="134" rx="4" ry="21" />
<ellipse fill="#4a5025" fill-opacity="0.572549" cx="0" cy="82" rx="19" ry="7" />
<ellipse fill="#d1bc88" fill-opacity="0.388235" cx="132" cy="63" rx="7" ry="5" />
<ellipse fill="#5d5925" fill-opacity="0.435294" cx="236" cy="80" rx="4" ry="15" />
<ellipse fill="#22231d" fill-opacity="0.419608" cx="8" cy="142" rx="11" ry="22" />
<ellipse fill="#6c8c9a" fill-opacity="0.329412" cx="197" cy="71" rx="11" ry="3" />
<ellipse fill="#18292a" fill-opacity="0.501961" cx="26" cy="90" rx="5" ry="7" />
<ellipse fill="#6c7025" fill-opacity="0.494118" cx="36" cy="90" rx="5" ry="8" />
<ellipse fill="#56602f" fill-opacity="0.450980" cx="104" cy="70" rx="25" ry="7" />
<ellipse fill="#d0d6dc" fill-opacity="0.580392" cx="115" cy="45" rx="10" ry="15" />
<ellipse fill="#382319" fill-opacity="0.200000" cx="64" cy="92" rx="29" ry="6" />
<ellipse fill="#d0d6dd" fill-opacity="0.466667" cx="54" cy="30" rx="22" ry="32" />
<ellipse fill="#f8bb64" fill-opacity="0.305882" cx="127" cy="80" rx="11" ry="2" />
<ellipse fill="#e5cba2" fill-opacity="0.498039" cx="137" cy="56" rx="7" ry="7" />
<ellipse fill="#434a15" fill-opacity="0.482353" cx="126" cy="112" rx="11" ry="7" />
<ellipse fill="#5a6135" fill-opacity="0.458824" cx="143" cy="67" rx="13" ry="5" />
<ellipse fill="#c2a06b" fill-opacity="0.521569" cx="185" cy="88" rx="4" ry="24" />
<ellipse fill="#7f7e3f" fill-opacity="0.552941" cx="123" cy="66" rx="5" ry="9" />
</g>
</svg>