<svg xmlns="http://www.w3.org/2000/svg" version="1.1" width="256" height="143">
<rect x="0" y="0" width="256" height="143" fill="#f0f0f0" />
<g transform="scale(1.000000) translate(0.5 0.5)">
<ellipse fill="#615441" fill-opacity="0.537255" cx="154" cy="87" rx="220" ry="129" />
<ellipse fill="#533d26" fill-opacity="0.619608" cx="255" cy="142" rx="98" ry="74" />
<ellipse fill="#c7d2e1" fill-opacity="0.596078" cx="131" cy="18" rx="121" ry="28" />
<ellipse fill="#cccdc3" fill-opacity="0.407843" cx="142" cy="80" rx="78" ry="27" />
<ellipse fill="#3d422f" fill-opacity="0.447059" cx="0" cy="50" rx="35" ry="14" />
<ellipse fill="#7e6b55" fill-opacity="0.560784" cx="238" cy="74" rx="42" ry="23" />
<ellipse fill="#a7895c" fill-opacity="0.419608" cx="56" cy="136" rx="115" ry="42" />
<ellipse fill="#f4f8f8" fill-opacity="0.521569" cx="160" cy="98" rx="26" ry="6" />
<ellipse fill="#3e3026" fill-opacity="0.466667" cx="249" cy="130" rx="24" ry="36" />
<ellipse fill="#ccb88c" fill-opacity="0.474510" cx="0" cy="71" rx="89" ry="20" />
<ellipse fill="#435450" fill-opacity="0.325490" cx="140" cy="49" rx="30" ry="6" />
<ellipse fill="#695742" fill-opacity="0.556863" cx="167" cy="118" rx="16" ry="14" />
<ellipse fill="#a3abb6" fill-opacity="0.705882" cx="236" cy="22" rx="28" ry="25" />
<ellipse fill="#abaeac" fill-opacity="0.803922" cx="178" cy="79" rx="8" ry="31" />
<ellipse fill="#9fa6ae" fill-opacity="0.670588" cx="21" cy="20" rx="19" ry="22" />
<ellipse fill="#c0c3c6" fill-opacity="0.549020" cx="91" cy="26" rx="51" ry="27" />
<ellipse fill="#d9d9d6" fill-opacity="0.482353" cx="153" cy="63" rx="17" ry="10" />
<ellipse fill="#999995" fill-opacity="0.364706" cx="167" cy="83" rx="60" ry="13" />
<ellipse fill="#bead94" fill-opacity="0.415686" cx="76" cy="116" rx="20" ry="76" />
<ellipse fill="#ffffff" fill-opacity="0.498039" cx="152" cy="104" rx="7" ry="7" />
<ellipse fill="#604b32" fill-opacity="0.349020" cx="194" cy="113" rx="10" ry="35" />
<ellipse fill="#867d6c" fill-opacity="0.592157" cx="9" cy="125" rx="13" ry="31" />
<ellipse fill="#b3bac2" fill-opacity="0.674510" cx="197" cy="43" rx="42" ry="4" />
<ellipse fill="#cccfd2" fill-opacity="0.545098" cx="112" cy="90" rx="39" ry="4" />
<ellipse fill="#19190b" fill-opacity="0.388235" cx="4" cy="43" rx="7" ry="9" />
<ellipse fill="#947f62" fill-opacity="0.490196" cx="141" cy="142" rx="42" ry="20" />
<ellipse fill="#5d4c3b" fill-opacity="0.756863" cx="230" cy="83" rx="3" ry="27" />
<ellipse fill="#584f5a" fill-opacity="0.450980" cx="62" cy="55" rx="6" ry="8" />
<ellipse fill="#c6c9cf" fill-opacity="0.560784" cx="139" cy="6" rx="60" ry="23" />
<ellipse fill="#939da3" fill-opacity="0.435294" cx="110" cy="103" rx="26" ry="13" />
<ellipse fill="#b1b8be" fill-opacity="0.631373" cx="52" cy="28" rx="28" ry="18" />
<ellipse fill="#3b4a62" fill-opacity="0.266667" cx="36" cy="56" rx="17" ry="4" />
<ellipse fill="#5f5f43" fill-opacity="0.541176" cx="2" cy="61" rx="16" ry="4" />
<ellipse fill="#edebe5" fill-opacity="0.482353" cx="165" cy="100" rx="19" ry="5" />
<ellipse fill="#bdd0d8" fill-opacity="0.525490" cx="0" cy="55" rx="21" ry="3" />
<ellipse fill="#dac8a2" fill-opacity="0.482353" cx="23" cy="72" rx="17" ry="10" />
<ellipse fill="#7c8790" fill-opacity="0.588235" cx="233" cy="49" rx="87" ry="3" />
<ellipse fill="#b49c77" fill-opacity="0.376471" cx="50" cy="104" rx="25" ry="41" />
<ellipse fill="#39230b" fill-opacity="0.423529" cx="54" cy="142" rx="2" ry="17" />
<ellipse fill="#777f7d" fill-opacity="0.423529" cx="188" cy="64" rx="29" ry="3" />
<ellipse fill="#c4b595" fill-opacity="0.631373" cx="93" cy="67" rx="38" ry="10" />
<ellipse fill="#a49079" fill-opacity="0.576471" cx="216" cy="68" rx="11" ry="21" />
<ellipse fill="#827e6f" fill-opacity="0.333333" cx="134" cy="50" rx="23" ry="9" />
<ellipse fill="#3a4147" fill-opacity="0.552941" cx="0" cy="0" rx="7" ry="5" />
<ellipse fill="#d5e9e6" fill-opacity="0.494118" cx="45" cy="49" rx="11" ry="2" />
<ellipse fill="#281806" fill-opacity="0.592157" cx="31" cy="138" rx="7" ry="1" />
<ellipse fill="#2b3328" fill-opacity="0.321569" cx="33" cy="45" rx="12" ry="3" />
<ellipse fill="#dedcd3" fill-opacity="0.533333" cx="94" cy="45" rx="5" ry="10" />
<ellipse fill="#938369" fill-opacity="0.501961" cx="206" cy="108" rx="8" ry="9" />
<ellipse fill="#9b9f9b" fill-opacity="0.462745" cx="162" cy="87" rx="30" ry="8" />
<ellipse fill="#c4c5b9" fill-opacity="0.482353" cx="174" cy="54" rx="34" ry="2" />
<ellipse fill="#8b94a2" fill-opacity="0.349020" cx="249" cy="25" rx="12" ry="32" />
<ellipse fill="#978c7d" fill-opacity="0.333333" cx="80" cy="79" rx="24" ry="7" />
<ellipse fill="#7f6d5d" fill-opacity="0.580392" cx="245" cy="68" rx="13" ry="12" />
<ellipse fill="#f7f8f7" fill-opacity="0.505882" cx="177" cy="104" rx="3" ry="5" />
<ellipse fill="#54432c" fill-opacity="0.396078" cx="167" cy="114" rx="9" ry="11" />
<ellipse fill="#3f423a" fill-opacity="0.423529" cx="25" cy="50" rx="9" ry="4" />
<ellipse fill="#9098a3" fill-opacity="0.509804" cx="0" cy="20" rx="19" ry="17" />
<ellipse fill="#645442" fill-opacity="0.568627" cx="228" cy="119" rx="19" ry="17" />
<ellipse fill="#c4cbd4" fill-opacity="0.317647" cx="159" cy="70" rx="40" ry="5" />
<ellipse fill="#c1a274" fill-opacity="0.356863" cx="34" cy="127" rx="24" ry="10" />
<ellipse fill="#4a3a28" fill-opacity="0.474510" cx="179" cy="126" rx="10" ry="6" />
<ellipse fill="#636a6f" fill-opacity="0.427451" cx="0" cy="119" rx="12" ry="11" />
<ellipse fill="#b5bcc3" fill-opacity="0.364706" cx="205" cy="22" rx="20" ry="32" />
<ellipse fill="#eff3fc" fill-opacity="0.337255" cx="91" cy="88" rx="10" ry="3" />
<ellipse fill="#4e4d45" fill-opacity="0.505882" cx="15" cy="57" rx="6" ry="2" />
<ellipse fill="#8d7c64" fill-opacity="0.462745" cx="221" cy="100" rx="12" ry="7" />
<ellipse fill="#c5b593" fill-opacity="0.592157" cx="13" cy="75" rx="50" ry="6" />
<ellipse fill="#a5a7ab" fill-opacity="0.580392" cx="18" cy="21" rx="9" ry="24" />
<ellipse fill="#b0a9a1" fill-opacity="0.564706" cx="119" cy="47" rx="12" ry="2" />
<ellipse fill="#9c8973" fill-opacity="0.654902" cx="205" cy="83" rx="15" ry="11" />
<ellipse fill="#717b78" fill-opacity="0.533333" cx="131" cy="45" rx="5" ry="5" />
<ellipse fill="#a5a297" fill-opacity="0.549020" cx="62" cy="60" rx="48" ry="3" />
<ellipse fill="#7d6d56" fill-opacity="0.588235" cx="203" cy="121" rx="8" ry="15" />
<ellipse fill="#b8a181" fill-opacity="0.521569" cx="85" cy="122" rx="31" ry="14" />
<ellipse fill="#b2b6bc" fill-opacity="0.603922" cx="43" cy="13" rx="9" ry="33" />
<ellipse fill="#95846a" fill-opacity="0.466667" cx="179" cy="115" rx="5" ry="7" />
<ellipse fill="#888f8f" fill-opacity="0.439216" cx="122" cy="111" rx="15" ry="9" />
<ellipse fill="#c3e8ff" fill-opacity="0.603922" cx="60" cy="44" rx="5" ry="2" />
<ellipse fill="#000000" fill-opacity="0.176471" cx="74" cy="47" rx="19" ry="1" />
<ellipse fill="#090100" fill-opacity="0.172549" cx="198" cy="98" rx="14" ry="3" />
<ellipse fill="#ae9c7e" fill-opacity="0.678431" cx="22" cy="92" rx="47" ry="5" />
<ellipse fill="#edece9" fill-opacity="0.533333" cx="146" cy="99" rx="11" ry="5" />
<ellipse fill="#787a76" fill-opacity="0.956863" cx="40" cy="43" rx="14" ry="1" />
<ellipse fill="#130000" fill-opacity="0.062745" cx="92" cy="142" rx="14" ry="12" />
<ellipse fill="#414935" fill-opacity="0.733333" cx="0" cy="50" rx="19" ry="2" />
<ellipse fill="#887867" fill-opacity="0.521569" cx="42" cy="67" rx="5" ry="4" />
<ellipse fill="#a39077" fill-opacity="0.388235" cx="145" cy="128" rx="19" ry="14" />
<ellipse fill="#604426" fill-opacity="0.521569" cx="37" cy="137" rx="8" ry="1" />
<ellipse fill="#5f4d58" fill-opacity="0.505882" cx="63" cy="52" rx="5" ry="5" />
<ellipse fill="#cdbb9a" fill-opacity="0.568627" cx="121" cy="61" rx="22" ry="4" />
<ellipse fill="#4b3d29" fill-opacity="0.313725" cx="229" cy="80" rx="4" ry="18" />
<ellipse fill="#624f37" fill-opacity="0.388235" cx="204" cy="140" rx="36" ry="4" />
<ellipse fill="#e4e4e2" fill-opacity="0.870588" cx="151" cy="109" rx="3" ry="4" />
<ellipse fill="#cebe9e" fill-opacity="0.447059" cx="70" cy="68" rx="14" ry="9" />
<ellipse fill="#a99a84" fill-opacity="0.517647" cx="102" cy="74" rx="11" ry="5" />
<ellipse fill="#4b3d32" fill-opacity="0.388235" cx="246" cy="132" rx="12" ry="30" />
<ellipse fill="#9ea09a" fill-opacity="0.513725" cx="169" cy="90" rx="18" ry="7" />
<ellipse fill="#a1a49e" fill-opacity="0.552941" cx="140" cy="106" rx="10" ry="4" />
<ellipse fill="#aeb0af" fill-opacity="0.517647" cx="152" cy="75" rx="41" ry="6" />
</g>
</svg>