<svg xmlns="http://www.w3.org/2000/svg" version="1.1" width="256" height="143">
<rect x="0" y="0" width="256" height="143" fill="#f0f0f0" />
<g transform="scale(1.000000) translate(0.5 0.5)">
<ellipse fill="#191d18" fill-opacity="0.572549" cx="134" cy="64" rx="165" ry="142" />
<ellipse fill="#0a0d0c" fill-opacity="0.674510" cx="176" cy="18" rx="40" ry="97" />
<ellipse fill="#ccd0d0" fill-opacity="0.631373" cx="236" cy="55" rx="20" ry="142" />
<ellipse fill="#dadad5" fill-opacity="0.525490" cx="37" cy="127" rx="70" ry="41" />
<ellipse fill="#e2e5df" fill-opacity="0.552941" cx="102" cy="52" rx="13" ry="60" />
<ellipse fill="#181a16" fill-opacity="0.560784" cx="75" cy="12" rx="18" ry="43" />
<ellipse fill="#343b3d" fill-opacity="0.650980" cx="192" cy="95" rx="29" ry="48" />
<ellipse fill="#454741" fill-opacity="0.749020" cx="137" cy="28" rx="18" ry="78" />
<ellipse fill="#b2b4ae" fill-opacity="0.772549" cx="44" cy="74" rx="6" ry="94" />
<ellipse fill="#282c29" fill-opacity="0.533333" cx="34" cy="32" rx="6" ry="50" />
<ellipse fill="#9a9992" fill-opacity="0.678431" cx="8" cy="61" rx="15" ry="142" />
<ellipse fill="#090b07" fill-opacity="0.521569" cx="186" cy="10" rx="30" ry="52" />
<ellipse fill="#595b56" fill-opacity="0.435294" cx="69" cy="79" rx="23" ry="31" />
<ellipse fill="#5b6265" fill-opacity="0.576471" cx="162" cy="115" rx="35" ry="32" />
<ellipse fill="#cbcdcc" fill-opacity="0.552941" cx="67" cy="131" rx="32" ry="24" />
<ellipse fill="#c3c8c7" fill-opacity="0.490196" cx="229" cy="50" rx="15" ry="55" />
<ellipse fill="#9fa19a" fill-opacity="0.400000" cx="136" cy="59" rx="11" ry="14" />
<ellipse fill="#bac1c1" fill-opacity="0.690196" cx="38" cy="39" rx="4" ry="9" />
<ellipse fill="#c2c5c3" fill-opacity="0.654902" cx="94" cy="46" rx="9" ry="16" />
<ellipse fill="#292821" fill-opacity="0.643137" cx="136" cy="5" rx="17" ry="28" />
<ellipse fill="#222524" fill-opacity="0.705882" cx="196" cy="73" rx="23" ry="12" />
<ellipse fill="#919189" fill-opacity="0.596078" cx="115" cy="68" rx="6" ry="114" />
<ellipse fill="#cacbc7" fill-opacity="0.600000" cx="96" cy="100" rx="7" ry="33" />
<ellipse fill="#3a3e40" fill-opacity="0.541176" cx="196" cy="98" rx="28" ry="16" />
<ellipse fill="#c1c3bf" fill-opacity="0.639216" cx="222" cy="137" rx="7" ry="31" />
<ellipse fill="#4e514e" fill-opacity="0.749020" cx="71" cy="49" rx="14" ry="23" />
<ellipse fill="#9a9d9d" fill-opacity="0.537255" cx="249" cy="56" rx="14" ry="142" />
<ellipse fill="#939086" fill-opacity="0.705882" cx="54" cy="89" rx="13" ry="20" />
<ellipse fill="#ebece6" fill-opacity="0.498039" cx="100" cy="6" rx="7" ry="24" />
<ellipse fill="#483d2f" fill-opacity="0.380392" cx="109" cy="110" rx="5" ry="14" />
<ellipse fill="#4b4943" fill-opacity="0.650980" cx="27" cy="54" rx="4" ry="28" />
<ellipse fill="#5e5e56" fill-opacity="0.447059" cx="79" cy="63" rx="23" ry="9" />
<ellipse fill="#4d5356" fill-opacity="0.729412" cx="200" cy="128" rx="17" ry="23" />
<ellipse fill="#949894" fill-opacity="0.694118" cx="49" cy="45" rx="7" ry="24" />
<ellipse fill="#796b5c" fill-opacity="0.674510" cx="107" cy="139" rx="9" ry="8" />
<ellipse fill="#c6cccd" fill-opacity="0.525490" cx="222" cy="40" rx="7" ry="56" />
<ellipse fill="#282b29" fill-opacity="0.717647" cx="211" cy="64" rx="4" ry="38" />
<ellipse fill="#818785" fill-opacity="0.701961" cx="17" cy="16" rx="14" ry="27" />
<ellipse fill="#5f5f59" fill-opacity="0.474510" cx="67" cy="99" rx="23" ry="4" />
<ellipse fill="#868881" fill-opacity="0.584314" cx="108" cy="39" rx="7" ry="13" />
<ellipse fill="#16120b" fill-opacity="0.368627" cx="77" cy="3" rx="16" ry="13" />
<ellipse fill="#d2c9bc" fill-opacity="0.352941" cx="119" cy="110" rx="5" ry="15" />
<ellipse fill="#232826" fill-opacity="0.556863" cx="34" cy="1" rx="4" ry="39" />
<ellipse fill="#a09e98" fill-opacity="0.690196" cx="8" cy="69" rx="6" ry="47" />
<ellipse fill="#c2c4bb" fill-opacity="0.635294" cx="46" cy="11" rx="4" ry="16" />
<ellipse fill="#2f3335" fill-opacity="0.450980" cx="149" cy="136" rx="11" ry="4" />
<ellipse fill="#bec2c1" fill-opacity="0.545098" cx="228" cy="42" rx="16" ry="8" />
<ellipse fill="#454a4c" fill-opacity="0.474510" cx="150" cy="79" rx="31" ry="10" />
<ellipse fill="#292c25" fill-opacity="0.529412" cx="62" cy="45" rx="2" ry="29" />
<ellipse fill="#6c7375" fill-opacity="0.478431" cx="176" cy="138" rx="28" ry="9" />
<ellipse fill="#777e83" fill-opacity="0.247059" cx="155" cy="109" rx="22" ry="17" />
<ellipse fill="#474845" fill-opacity="0.486275" cx="35" cy="50" rx="10" ry="6" />
<ellipse fill="#9b9e99" fill-opacity="0.517647" cx="16" cy="52" rx="12" ry="9" />
<ellipse fill="#b2b6b5" fill-opacity="0.372549" cx="51" cy="110" rx="35" ry="10" />
<ellipse fill="#15130f" fill-opacity="0.400000" cx="212" cy="72" rx="11" ry="2" />
<ellipse fill="#373935" fill-opacity="0.592157" cx="124" cy="25" rx="3" ry="60" />
<ellipse fill="#131411" fill-opacity="0.631373" cx="198" cy="2" rx="19" ry="21" />
<ellipse fill="#d9dddb" fill-opacity="0.568627" cx="94" cy="32" rx="4" ry="8" />
<ellipse fill="#e2ebf1" fill-opacity="0.454902" cx="88" cy="53" rx="4" ry="5" />
<ellipse fill="#bfc3c0" fill-opacity="0.411765" cx="42" cy="72" rx="5" ry="20" />
<ellipse fill="#adada6" fill-opacity="0.474510" cx="97" cy="108" rx="10" ry="17" />
<ellipse fill="#000100" fill-opacity="0.384314" cx="35" cy="62" rx="3" ry="11" />
<ellipse fill="#afb2ad" fill-opacity="0.647059" cx="22" cy="125" rx="19" ry="11" />
<ellipse fill="#c0c5c2" fill-opacity="0.376471" cx="108" cy="63" rx="9" ry="16" />
<ellipse fill="#b9bcba" fill-opacity="0.396078" cx="236" cy="78" rx="15" ry="40" />
<ellipse fill="#988979" fill-opacity="0.372549" cx="121" cy="139" rx="18" ry="28" />
<ellipse fill="#8f9290" fill-opacity="0.458824" cx="247" cy="140" rx="10" ry="39" />
<ellipse fill="#211b13" fill-opacity="0.478431" cx="25" cy="67" rx="3" ry="7" />
<ellipse fill="#79776d" fill-opacity="0.388235" cx="2" cy="140" rx="23" ry="7" />
<ellipse fill="#827d76" fill-opacity="0.513725" cx="30" cy="75" rx="3" ry="18" />
<ellipse fill="#575145" fill-opacity="0.470588" cx="50" cy="82" rx="4" ry="8" />
<ellipse fill="#6d695e" fill-opacity="0.341176" cx="106" cy="45" rx="2" ry="20" />
<ellipse fill="#d0d6d7" fill-opacity="0.490196" cx="98" cy="79" rx="8" ry="12" />
<ellipse fill="#4c504d" fill-opacity="0.572549" cx="81" cy="37" rx="7" ry="17" />
<ellipse fill="#353939" fill-opacity="0.568627" cx="214" cy="100" rx="8" ry="12" />
<ellipse fill="#716558" fill-opacity="0.396078" cx="116" cy="135" rx="19" ry="5" />
<ellipse fill="#343834" fill-opacity="0.784314" cx="36" cy="8" rx="4" ry="21" />
<ellipse fill="#272c2b" fill-opacity="0.274510" cx="192" cy="75" rx="26" ry="21" />
<ellipse fill="#aaadac" fill-opacity="0.698039" cx="236" cy="16" rx="7" ry="37" />
<ellipse fill="#a9a9a2" fill-opacity="0.490196" cx="60" cy="85" rx="5" ry="11" />
<ellipse fill="#bdbfb7" fill-opacity="0.466667" cx="132" cy="64" rx="4" ry="4" />
<ellipse fill="#474b48" fill-opacity="0.423529" cx="151" cy="51" rx="6" ry="48" />
<ellipse fill="#6b6f69" fill-opacity="0.968627" cx="58" cy="32" rx="1" ry="24" />
<ellipse fill="#c0c3c0" fill-opacity="0.458824" cx="226" cy="84" rx="10" ry="13" />
<ellipse fill="#bec3c0" fill-opacity="0.513725" cx="39" cy="35" rx="3" ry="8" />
<ellipse fill="#5f5242" fill-opacity="0.435294" cx="25" cy="80" rx="11" ry="3" />
<ellipse fill="#919290" fill-opacity="0.862745" cx="255" cy="0" rx="9" ry="19" />
<ellipse fill="#b4b3b2" fill-opacity="0.498039" cx="111" cy="124" rx="9" ry="3" />
<ellipse fill="#6c7881" fill-opacity="0.443137" cx="85" cy="96" rx="5" ry="14" />
<ellipse fill="#353731" fill-opacity="0.603922" cx="204" cy="55" rx="10" ry="12" />
<ellipse fill="#c7c8bf" fill-opacity="0.729412" cx="42" cy="6" rx="2" ry="27" />
<ellipse fill="#010300" fill-opacity="0.423529" cx="30" cy="40" rx="3" ry="7" />
<ellipse fill="#717068" fill-opacity="0.572549" cx="3" cy="3" rx="9" ry="8" />
<ellipse fill="#282821" fill-opacity="0.654902" cx="143" cy="1" rx="19" ry="12" />
<ellipse fill="#706c63" fill-opacity="0.388235" cx="86" cy="58" rx="15" ry="3" />
<ellipse fill="#7e7c6f" fill-opacity="0.486275" cx="3" cy="104" rx="5" ry="7" />
<ellipse fill="#595c59" fill-opacity="0.458824" cx="142" cy="55" rx="8" ry="12" />
<ellipse fill="#646b6f" fill-opacity="0.654902" cx="78" cy="90" rx="10" ry="13" />
<ellipse fill="#4e5454" fill-opacity="0.313725" cx="172" cy="100" rx="31" ry="12" />
<ellipse fill="#a6a9a9" fill-opacity="0.349020" cx="35" cy="92" rx="22" ry="8" />
</g>
</svg>