<svg xmlns="http://www.w3.org/2000/svg" version="1.1" width="256" height="143">
<rect x="0" y="0" width="256" height="143" fill="#f0f0f0" />
<g transform="scale(1.000000) translate(0.5 0.5)">
<ellipse fill="#32342f" fill-opacity="0.835294" cx="105" cy="107" rx="151" ry="142" />
<ellipse fill="#c3bfb0" fill-opacity="0.901961" cx="236" cy="44" rx="26" ry="59" />
<ellipse fill="#d0cec9" fill-opacity="0.482353" cx="35" cy="124" rx="49" ry="89" />
<ellipse fill="#030300" fill-opacity="0.541176" cx="135" cy="33" rx="79" ry="83" />
<ellipse fill="#2d343c" fill-opacity="0.854902" cx="229" cy="123" rx="141" ry="25" />
<ellipse fill="#b1ae9e" fill-opacity="0.631373" cx="39" cy="28" rx="19" ry="75" />
<ellipse fill="#dfeef9" fill-opacity="0.945098" cx="13" cy="142" rx="29" ry="13" />
<ellipse fill="#211003" fill-opacity="0.364706" cx="7" cy="42" rx="13" ry="88" />
<ellipse fill="#aebec7" fill-opacity="0.701961" cx="72" cy="104" rx="13" ry="24" />
<ellipse fill="#2a2a24" fill-opacity="0.862745" cx="72" cy="62" rx="17" ry="21" />
<ellipse fill="#e0e1df" fill-opacity="0.423529" cx="240" cy="81" rx="29" ry="21" />
<ellipse fill="#a29a80" fill-opacity="0.627451" cx="226" cy="0" rx="16" ry="67" />
<ellipse fill="#84847d" fill-opacity="0.976471" cx="224" cy="98" rx="19" ry="6" />
<ellipse fill="#ffd7a9" fill-opacity="0.517647" cx="3" cy="68" rx="6" ry="17" />
<ellipse fill="#3a3f3f" fill-opacity="0.717647" cx="112" cy="96" rx="31" ry="39" />
<ellipse fill="#fdffff" fill-opacity="0.505882" cx="249" cy="36" rx="6" ry="62" />
<ellipse fill="#000010" fill-opacity="0.223529" cx="37" cy="63" rx="4" ry="105" />
<ellipse fill="#00000b" fill-opacity="0.541176" cx="6" cy="34" rx="17" ry="16" />
<ellipse fill="#161002" fill-opacity="0.419608" cx="129" cy="14" rx="73" ry="40" />
<ellipse fill="#fffff3" fill-opacity="0.372549" cx="22" cy="16" rx="7" ry="11" />
<ellipse fill="#3e3f3c" fill-opacity="0.847059" cx="58" cy="77" rx="3" ry="26" />
<ellipse fill="#cdc3b8" fill-opacity="0.576471" cx="67" cy="121" rx="19" ry="14" />
<ellipse fill="#5c6368" fill-opacity="0.678431" cx="103" cy="142" rx="56" ry="9" />
<ellipse fill="#fffffe" fill-opacity="0.286275" cx="22" cy="80" rx="6" ry="23" />
<ellipse fill="#e3e1d6" fill-opacity="0.584314" cx="47" cy="28" rx="5" ry="15" />
<ellipse fill="#474337" fill-opacity="0.792157" cx="205" cy="66" rx="7" ry="34" />
<ellipse fill="#1f263b" fill-opacity="0.478431" cx="242" cy="125" rx="33" ry="28" />
<ellipse fill="#fffbe5" fill-opacity="0.254902" cx="216" cy="85" rx="5" ry="25" />
<ellipse fill="#f9ffff" fill-opacity="0.513725" cx="80" cy="89" rx="3" ry="7" />
<ellipse fill="#e9e8cb" fill-opacity="0.639216" cx="212" cy="49" rx="5" ry="3" />
<ellipse fill="#483000" fill-opacity="0.282353" cx="210" cy="0" rx="17" ry="12" />
<ellipse fill="#eaf1f3" fill-opacity="0.474510" cx="47" cy="75" rx="4" ry="15" />
<ellipse fill="#95978d" fill-opacity="0.827451" cx="35" cy="97" rx="23" ry="9" />
<ellipse fill="#4e3600" fill-opacity="0.274510" cx="40" cy="0" rx="12" ry="21" />
<ellipse fill="#212b32" fill-opacity="0.572549" cx="167" cy="95" rx="29" ry="37" />
<ellipse fill="#24323b" fill-opacity="0.505882" cx="12" cy="116" rx="7" ry="12" />
<ellipse fill="#6e7f81" fill-opacity="0.611765" cx="69" cy="95" rx="10" ry="7" />
<ellipse fill="#8b7c4b" fill-opacity="0.309804" cx="255" cy="0" rx="6" ry="33" />
<ellipse fill="#7c7968" fill-opacity="0.921569" cx="0" cy="0" rx="8" ry="12" />
<ellipse fill="#070500" fill-opacity="0.345098" cx="16" cy="43" rx="5" ry="23" />
<ellipse fill="#080200" fill-opacity="0.509804" cx="40" cy="59" rx="5" ry="3" />
<ellipse fill="#181412" fill-opacity="0.501961" cx="6" cy="92" rx="7" ry="6" />
<ellipse fill="#fdffff" fill-opacity="0.835294" cx="71" cy="85" rx="10" ry="2" />
<ellipse fill="#e4e1cf" fill-opacity="0.478431" cx="230" cy="11" rx="4" ry="26" />
<ellipse fill="#edede5" fill-opacity="0.470588" cx="218" cy="30" rx="4" ry="12" />
<ellipse fill="#e7c5a7" fill-opacity="0.501961" cx="77" cy="136" rx="4" ry="21" />
<ellipse fill="#3f484d" fill-opacity="0.725490" cx="128" cy="119" rx="10" ry="32" />
<ellipse fill="#eaeae5" fill-opacity="0.443137" cx="251" cy="71" rx="9" ry="29" />
<ellipse fill="#deeffe" fill-opacity="0.533333" cx="0" cy="138" rx="17" ry="12" />
<ellipse fill="#6f6347" fill-opacity="0.235294" cx="239" cy="71" rx="4" ry="29" />
<ellipse fill="#d4d4cb" fill-opacity="0.682353" cx="26" cy="22" rx="3" ry="15" />
<ellipse fill="#37352c" fill-opacity="0.474510" cx="101" cy="57" rx="26" ry="22" />
<ellipse fill="#7b94a6" fill-opacity="0.505882" cx="103" cy="138" rx="17" ry="4" />
<ellipse fill="#e8f4f7" fill-opacity="0.376471" cx="24" cy="142" rx="3" ry="34" />
<ellipse fill="#191c24" fill-opacity="0.631373" cx="212" cy="136" rx="13" ry="16" />
<ellipse fill="#213140" fill-opacity="0.458824" cx="37" cy="119" rx="4" ry="14" />
<ellipse fill="#121315" fill-opacity="0.490196" cx="115" cy="103" rx="4" ry="29" />
<ellipse fill="#404241" fill-opacity="0.533333" cx="67" cy="142" rx="6" ry="11" />
<ellipse fill="#4a4029" fill-opacity="0.509804" cx="164" cy="19" rx="35" ry="4" />
<ellipse fill="#fcfade" fill-opacity="0.415686" cx="33" cy="45" rx="6" ry="4" />
<ellipse fill="#0a131e" fill-opacity="0.278431" cx="152" cy="50" rx="43" ry="30" />
<ellipse fill="#fff3c6" fill-opacity="0.117647" cx="120" cy="89" rx="2" ry="50" />
<ellipse fill="#918b7b" fill-opacity="0.517647" cx="225" cy="50" rx="2" ry="52" />
<ellipse fill="#a07f67" fill-opacity="0.678431" cx="8" cy="65" rx="3" ry="19" />
<ellipse fill="#76756c" fill-opacity="0.556863" cx="26" cy="105" rx="33" ry="4" />
<ellipse fill="#262927" fill-opacity="0.682353" cx="67" cy="73" rx="10" ry="10" />
<ellipse fill="#f0c9a6" fill-opacity="0.427451" cx="52" cy="131" rx="8" ry="7" />
<ellipse fill="#90b1c5" fill-opacity="0.698039" cx="67" cy="110" rx="10" ry="10" />
<ellipse fill="#5f5d55" fill-opacity="0.462745" cx="199" cy="90" rx="3" ry="37" />
<ellipse fill="#e6e6df" fill-opacity="0.533333" cx="230" cy="72" rx="4" ry="17" />
<ellipse fill="#979586" fill-opacity="0.733333" cx="56" cy="59" rx="1" ry="20" />
<ellipse fill="#ecf6ff" fill-opacity="0.494118" cx="28" cy="142" rx="18" ry="8" />
<ellipse fill="#dde2dd" fill-opacity="0.478431" cx="24" cy="72" rx="4" ry="16" />
<ellipse fill="#e7e6dc" fill-opacity="0.615686" cx="254" cy="38" rx="22" ry="5" />
<ellipse fill="#9a9580" fill-opacity="0.525490" cx="213" cy="53" rx="2" ry="59" />
<ellipse fill="#3a2f19" fill-opacity="0.607843" cx="158" cy="0" rx="47" ry="7" />
<ellipse fill="#969686" fill-opacity="0.501961" cx="13" cy="100" rx="8" ry="6" />
<ellipse fill="#0c0902" fill-opacity="0.580392" cx="74" cy="1" rx="15" ry="15" />
<ellipse fill="#e1f8ff" fill-opacity="0.529412" cx="79" cy="104" rx="2" ry="10" />
<ellipse fill="#2a3237" fill-opacity="0.509804" cx="150" cy="138" rx="14" ry="73" />
<ellipse fill="#a5c3df" fill-opacity="0.498039" cx="62" cy="108" rx="2" ry="25" />
<ellipse fill="#373027" fill-opacity="0.572549" cx="57" cy="141" rx="8" ry="3" />
<ellipse fill="#e2ddc6" fill-opacity="0.541176" cx="54" cy="5" rx="6" ry="2" />
<ellipse fill="#f5f9fd" fill-opacity="0.447059" cx="245" cy="22" rx="3" ry="50" />
<ellipse fill="#1b150e" fill-opacity="0.521569" cx="39" cy="12" rx="4" ry="5" />
<ellipse fill="#ffffe9" fill-opacity="0.458824" cx="31" cy="98" rx="5" ry="2" />
<ellipse fill="#948866" fill-opacity="0.462745" cx="236" cy="3" rx="6" ry="11" />
<ellipse fill="#322721" fill-opacity="0.368627" cx="10" cy="83" rx="6" ry="7" />
<ellipse fill="#8c8179" fill-opacity="0.505882" cx="66" cy="119" rx="5" ry="5" />
<ellipse fill="#171409" fill-opacity="0.294118" cx="196" cy="33" rx="15" ry="25" />
<ellipse fill="#000000" fill-opacity="0.337255" cx="153" cy="12" rx="38" ry="5" />
<ellipse fill="#e3c0b2" fill-opacity="0.454902" cx="5" cy="61" rx="3" ry="12" />
<ellipse fill="#3c4b65" fill-opacity="0.521569" cx="255" cy="120" rx="12" ry="10" />
<ellipse fill="#796c49" fill-opacity="0.509804" cx="223" cy="0" rx="3" ry="21" />
<ellipse fill="#e6e3c9" fill-opacity="0.486275" cx="211" cy="0" rx="5" ry="4" />
<ellipse fill="#3d3d38" fill-opacity="0.450980" cx="92" cy="92" rx="10" ry="39" />
<ellipse fill="#ecf9ff" fill-opacity="0.803922" cx="71" cy="87" rx="10" ry="1" />
<ellipse fill="#4b515b" fill-opacity="0.388235" cx="37" cy="128" rx="8" ry="7" />
<ellipse fill="#ffffe9" fill-opacity="0.454902" cx="56" cy="51" rx="4" ry="2" />
<ellipse fill="#8f705a" fill-opacity="0.501961" cx="84" cy="135" rx="3" ry="28" />
</g>
</svg>