<svg xmlns="http://www.w3.org/2000/svg" version="1.1" width="256" height="143">
<rect x="0" y="0" width="256" height="143" fill="#f0f0f0" />
<g transform="scale(1.000000) translate(0.5 0.5)">
<ellipse fill="#02110a" fill-opacity="0.568627" cx="193" cy="111" rx="202" ry="117" />
<ellipse fill="#000800" fill-opacity="0.670588" cx="213" cy="20" rx="43" ry="59" />
<ellipse fill="#ffffff" fill-opacity="0.745098" cx="58" cy="25" rx="29" ry="33" />
<ellipse fill="#f7f8fd" fill-opacity="0.666667" cx="146" cy="52" rx="21" ry="12" />
<ellipse fill="#c2a790" fill-opacity="0.549020" cx="122" cy="126" rx="70" ry="27" />
<ellipse fill="#748b9d" fill-opacity="0.835294" cx="28" cy="74" rx="46" ry="23" />
<ellipse fill="#385532" fill-opacity="0.541176" cx="130" cy="0" rx="46" ry="39" />
<ellipse fill="#00010b" fill-opacity="0.572549" cx="204" cy="106" rx="19" ry="15" />
<ellipse fill="#697786" fill-opacity="0.662745" cx="83" cy="60" rx="18" ry="29" />
<ellipse fill="#6d7f8e" fill-opacity="0.823529" cx="148" cy="83" rx="36" ry="24" />
<ellipse fill="#ffffff" fill-opacity="0.874510" cx="56" cy="25" rx="18" ry="28" />
<ellipse fill="#06160e" fill-opacity="0.752941" cx="215" cy="49" rx="8" ry="47" />
<ellipse fill="#7f9aa8" fill-opacity="0.670588" cx="30" cy="62" rx="17" ry="23" />
<ellipse fill="#ffffff" fill-opacity="0.517647" cx="249" cy="59" rx="10" ry="5" />
<ellipse fill="#1b0c00" fill-opacity="0.243137" cx="247" cy="114" rx="116" ry="8" />
<ellipse fill="#91a68e" fill-opacity="0.466667" cx="105" cy="8" rx="23" ry="13" />
<ellipse fill="#a9a182" fill-opacity="0.580392" cx="0" cy="119" rx="62" ry="12" />
<ellipse fill="#273a4f" fill-opacity="0.462745" cx="103" cy="75" rx="19" ry="15" />
<ellipse fill="#a8805e" fill-opacity="0.501961" cx="204" cy="142" rx="47" ry="22" />
<ellipse fill="#a4a8a7" fill-opacity="0.858824" cx="154" cy="42" rx="12" ry="7" />
<ellipse fill="#0d2016" fill-opacity="0.407843" cx="158" cy="14" rx="16" ry="16" />
<ellipse fill="#3c4f28" fill-opacity="0.525490" cx="178" cy="53" rx="13" ry="22" />
<ellipse fill="#ffffff" fill-opacity="0.588235" cx="149" cy="58" rx="24" ry="3" />
<ellipse fill="#cdcae4" fill-opacity="0.156863" cx="99" cy="129" rx="25" ry="47" />
<ellipse fill="#f8fcfb" fill-opacity="0.721569" cx="44" cy="45" rx="6" ry="13" />
<ellipse fill="#ffffff" fill-opacity="0.764706" cx="16" cy="13" rx="67" ry="27" />
<ellipse fill="#3d5141" fill-opacity="0.635294" cx="51" cy="137" rx="27" ry="4" />
<ellipse fill="#0c2015" fill-opacity="0.937255" cx="255" cy="13" rx="35" ry="15" />
<ellipse fill="#647588" fill-opacity="0.521569" cx="90" cy="98" rx="100" ry="12" />
<ellipse fill="#ffffff" fill-opacity="0.694118" cx="145" cy="54" rx="17" ry="5" />
<ellipse fill="#8f9898" fill-opacity="0.407843" cx="165" cy="95" rx="24" ry="24" />
<ellipse fill="#4a7e8c" fill-opacity="0.592157" cx="34" cy="43" rx="8" ry="5" />
<ellipse fill="#4d6061" fill-opacity="0.576471" cx="242" cy="50" rx="4" ry="17" />
<ellipse fill="#b3c6d5" fill-opacity="0.560784" cx="134" cy="71" rx="11" ry="5" />
<ellipse fill="#ffffff" fill-opacity="0.615686" cx="161" cy="45" rx="4" ry="5" />
<ellipse fill="#657c91" fill-opacity="0.545098" cx="105" cy="48" rx="27" ry="12" />
<ellipse fill="#42707c" fill-opacity="0.525490" cx="18" cy="52" rx="6" ry="7" />
<ellipse fill="#354726" fill-opacity="0.533333" cx="150" cy="46" rx="6" ry="3" />
<ellipse fill="#ffffff" fill-opacity="0.564706" cx="72" cy="23" rx="18" ry="8" />
<ellipse fill="#5b79a0" fill-opacity="0.407843" cx="242" cy="88" rx="23" ry="18" />
<ellipse fill="#061a10" fill-opacity="0.611765" cx="210" cy="43" rx="33" ry="12" />
<ellipse fill="#001a00" fill-opacity="0.372549" cx="141" cy="109" rx="6" ry="7" />
<ellipse fill="#5e7383" fill-opacity="0.454902" cx="192" cy="87" rx="20" ry="14" />
<ellipse fill="#632b00" fill-opacity="0.180392" cx="248" cy="126" rx="21" ry="22" />
<ellipse fill="#5b7082" fill-opacity="0.505882" cx="6" cy="82" rx="20" ry="26" />
<ellipse fill="#969aa6" fill-opacity="0.549020" cx="169" cy="34" rx="7" ry="6" />
<ellipse fill="#455e36" fill-opacity="0.494118" cx="32" cy="120" rx="12" ry="4" />
<ellipse fill="#46586e" fill-opacity="0.368627" cx="126" cy="85" rx="37" ry="9" />
<ellipse fill="#003d4f" fill-opacity="0.474510" cx="75" cy="104" rx="3" ry="11" />
<ellipse fill="#2b3d2b" fill-opacity="0.407843" cx="179" cy="47" rx="15" ry="14" />
<ellipse fill="#56664e" fill-opacity="0.690196" cx="25" cy="137" rx="33" ry="8" />
<ellipse fill="#243111" fill-opacity="0.435294" cx="200" cy="68" rx="16" ry="12" />
<ellipse fill="#7d919c" fill-opacity="0.658824" cx="87" cy="38" rx="10" ry="11" />
<ellipse fill="#fdffff" fill-opacity="0.635294" cx="255" cy="51" rx="2" ry="6" />
<ellipse fill="#bb9e88" fill-opacity="0.435294" cx="124" cy="142" rx="51" ry="19" />
<ellipse fill="#29402f" fill-opacity="0.407843" cx="156" cy="20" rx="46" ry="8" />
<ellipse fill="#d4eaf0" fill-opacity="0.427451" cx="227" cy="29" rx="3" ry="3" />
<ellipse fill="#616f7f" fill-opacity="0.490196" cx="142" cy="62" rx="39" ry="3" />
<ellipse fill="#adafa3" fill-opacity="0.458824" cx="10" cy="137" rx="17" ry="2" />
<ellipse fill="#ffffff" fill-opacity="0.552941" cx="0" cy="54" rx="14" ry="2" />
<ellipse fill="#324454" fill-opacity="0.592157" cx="56" cy="107" rx="10" ry="5" />
<ellipse fill="#8a8d91" fill-opacity="0.482353" cx="78" cy="53" rx="13" ry="17" />
<ellipse fill="#798e7a" fill-opacity="0.631373" cx="102" cy="10" rx="20" ry="6" />
<ellipse fill="#0b2016" fill-opacity="0.501961" cx="202" cy="35" rx="21" ry="32" />
<ellipse fill="#385162" fill-opacity="0.650980" cx="219" cy="104" rx="3" ry="15" />
<ellipse fill="#c3d4e8" fill-opacity="0.152941" cx="62" cy="83" rx="20" ry="9" />
<ellipse fill="#181a1e" fill-opacity="0.600000" cx="207" cy="114" rx="24" ry="3" />
<ellipse fill="#ffffff" fill-opacity="0.537255" cx="0" cy="40" rx="27" ry="9" />
<ellipse fill="#ffffff" fill-opacity="0.698039" cx="81" cy="1" rx="7" ry="3" />
<ellipse fill="#a6b7c3" fill-opacity="0.494118" cx="44" cy="64" rx="21" ry="3" />
<ellipse fill="#588884" fill-opacity="0.349020" cx="221" cy="0" rx="10" ry="7" />
<ellipse fill="#c2d7ef" fill-opacity="0.388235" cx="159" cy="73" rx="9" ry="3" />
<ellipse fill="#a9a28d" fill-opacity="0.501961" cx="61" cy="126" rx="16" ry="10" />
<ellipse fill="#4f5e6d" fill-opacity="0.564706" cx="54" cy="72" rx="16" ry="3" />
<ellipse fill="#3c4a57" fill-opacity="0.447059" cx="115" cy="59" rx="11" ry="8" />
<ellipse fill="#ebe7e3" fill-opacity="0.396078" cx="140" cy="45" rx="5" ry="9" />
<ellipse fill="#272928" fill-opacity="0.670588" cx="157" cy="120" rx="9" ry="1" />
<ellipse fill="#505c2a" fill-opacity="0.529412" cx="179" cy="58" rx="7" ry="15" />
<ellipse fill="#150e04" fill-opacity="0.474510" cx="240" cy="111" rx="8" ry="5" />
<ellipse fill="#8e918f" fill-opacity="0.576471" cx="229" cy="103" rx="12" ry="3" />
<ellipse fill="#263a5a" fill-opacity="0.501961" cx="126" cy="79" rx="8" ry="4" />
<ellipse fill="#ffffff" fill-opacity="0.380392" cx="255" cy="59" rx="11" ry="4" />
<ellipse fill="#687887" fill-opacity="0.654902" cx="143" cy="64" rx="6" ry="6" />
<ellipse fill="#a6a26d" fill-opacity="0.419608" cx="168" cy="111" rx="23" ry="4" />
<ellipse fill="#cbb8a4" fill-opacity="0.454902" cx="93" cy="116" rx="11" ry="8" />
<ellipse fill="#7b8c9a" fill-opacity="0.372549" cx="200" cy="87" rx="3" ry="16" />
<ellipse fill="#557561" fill-opacity="0.341176" cx="255" cy="37" rx="15" ry="8" />
<ellipse fill="#748157" fill-opacity="0.572549" cx="112" cy="24" rx="5" ry="14" />
<ellipse fill="#091925" fill-opacity="0.513725" cx="41" cy="141" rx="10" ry="2" />
<ellipse fill="#ffffff" fill-opacity="0.435294" cx="46" cy="54" rx="10" ry="3" />
<ellipse fill="#1a2c34" fill-opacity="0.431373" cx="102" cy="76" rx="8" ry="7" />
<ellipse fill="#c3ada7" fill-opacity="0.509804" cx="0" cy="127" rx="38" ry="3" />
<ellipse fill="#ffffff" fill-opacity="0.435294" cx="156" cy="57" rx="14" ry="3" />
<ellipse fill="#141a1e" fill-opacity="0.505882" cx="193" cy="106" rx="5" ry="14" />
<ellipse fill="#bdc4cb" fill-opacity="0.580392" cx="107" cy="0" rx="2" ry="13" />
<ellipse fill="#1a2338" fill-opacity="0.478431" cx="63" cy="138" rx="16" ry="2" />
<ellipse fill="#92a4b4" fill-opacity="0.505882" cx="136" cy="87" rx="2" ry="15" />
<ellipse fill="#13416c" fill-opacity="0.462745" cx="252" cy="68" rx="22" ry="3" />
<ellipse fill="#3b4e48" fill-opacity="0.552941" cx="231" cy="62" rx="3" ry="12" />
<ellipse fill="#95977a" fill-opacity="0.627451" cx="55" cy="116" rx="25" ry="5" />
</g>
</svg>