<svg xmlns="http://www.w3.org/2000/svg" version="1.1" width="256" height="143">
<rect x="0" y="0" width="256" height="143" fill="#f0f0f0" />
<g transform="scale(1.000000) translate(0.5 0.5)">
<ellipse fill="#0d1011" fill-opacity="0.501961" cx="124" cy="67" rx="161" ry="142" />
<ellipse fill="#e5e7e0" fill-opacity="0.592157" cx="219" cy="36" rx="23" ry="142" />
<ellipse fill="#000316" fill-opacity="0.650980" cx="177" cy="43" rx="20" ry="60" />
<ellipse fill="#e6e2d7" fill-opacity="0.450980" cx="59" cy="101" rx="22" ry="142" />
<ellipse fill="#000815" fill-opacity="0.431373" cx="124" cy="43" rx="18" ry="89" />
<ellipse fill="#515966" fill-opacity="0.835294" cx="140" cy="105" rx="51" ry="24" />
<ellipse fill="#000409" fill-opacity="0.400000" cx="86" cy="3" rx="9" ry="89" />
<ellipse fill="#3e464c" fill-opacity="0.568627" cx="19" cy="53" rx="13" ry="66" />
<ellipse fill="#0a1a36" fill-opacity="0.643137" cx="97" cy="117" rx="7" ry="24" />
<ellipse fill="#a6a6a1" fill-opacity="0.898039" cx="206" cy="142" rx="39" ry="29" />
<ellipse fill="#cdcdc9" fill-opacity="0.384314" cx="116" cy="95" rx="14" ry="12" />
<ellipse fill="#d9dad4" fill-opacity="0.462745" cx="205" cy="93" rx="11" ry="79" />
<ellipse fill="#afafa5" fill-opacity="0.505882" cx="242" cy="60" rx="14" ry="69" />
<ellipse fill="#1d190e" fill-opacity="0.549020" cx="5" cy="10" rx="34" ry="6" />
<ellipse fill="#f7fefb" fill-opacity="0.309804" cx="148" cy="54" rx="5" ry="36" />
<ellipse fill="#212323" fill-opacity="0.509804" cx="125" cy="36" rx="20" ry="22" />
<ellipse fill="#5d5647" fill-opacity="0.494118" cx="82" cy="0" rx="30" ry="15" />
<ellipse fill="#212225" fill-opacity="0.458824" cx="187" cy="22" rx="11" ry="85" />
<ellipse fill="#2461ff" fill-opacity="0.498039" cx="175" cy="77" rx="6" ry="11" />
<ellipse fill="#d1d6d5" fill-opacity="0.517647" cx="47" cy="43" rx="7" ry="86" />
<ellipse fill="#bdc4c3" fill-opacity="0.572549" cx="31" cy="1" rx="22" ry="5" />
<ellipse fill="#ffffff" fill-opacity="0.490196" cx="167" cy="101" rx="3" ry="6" />
<ellipse fill="#cacfcc" fill-opacity="0.521569" cx="99" cy="57" rx="4" ry="25" />
<ellipse fill="#bab3ab" fill-opacity="0.415686" cx="134" cy="142" rx="24" ry="18" />
<ellipse fill="#111f3d" fill-opacity="0.501961" cx="156" cy="118" rx="15" ry="8" />
<ellipse fill="#69494c" fill-opacity="0.462745" cx="28" cy="100" rx="14" ry="22" />
<ellipse fill="#a89893" fill-opacity="0.537255" cx="48" cy="133" rx="37" ry="16" />
<ellipse fill="#767974" fill-opacity="0.662745" cx="147" cy="0" rx="23" ry="16" />
<ellipse fill="#131c33" fill-opacity="0.537255" cx="138" cy="104" rx="14" ry="7" />
<ellipse fill="#e0dfd5" fill-opacity="0.392157" cx="108" cy="109" rx="5" ry="14" />
<ellipse fill="#0e0700" fill-opacity="0.674510" cx="2" cy="0" rx="6" ry="5" />
<ellipse fill="#0c1a39" fill-opacity="0.368627" cx="119" cy="122" rx="12" ry="13" />
<ellipse fill="#99a2aa" fill-opacity="0.376471" cx="12" cy="53" rx="11" ry="14" />
<ellipse fill="#adada9" fill-opacity="0.745098" cx="79" cy="100" rx="13" ry="11" />
<ellipse fill="#919696" fill-opacity="0.886275" cx="146" cy="17" rx="8" ry="11" />
<ellipse fill="#5b6064" fill-opacity="0.486275" cx="116" cy="82" rx="28" ry="13" />
<ellipse fill="#ffb3a9" fill-opacity="0.494118" cx="32" cy="96" rx="5" ry="7" />
<ellipse fill="#8e9083" fill-opacity="0.239216" cx="221" cy="128" rx="58" ry="24" />
<ellipse fill="#ffffff" fill-opacity="0.592157" cx="156" cy="101" rx="2" ry="4" />
<ellipse fill="#dddcd6" fill-opacity="0.549020" cx="197" cy="131" rx="2" ry="90" />
<ellipse fill="#1a2021" fill-opacity="0.729412" cx="180" cy="26" rx="17" ry="24" />
<ellipse fill="#2f373a" fill-opacity="0.474510" cx="158" cy="55" rx="3" ry="45" />
<ellipse fill="#081223" fill-opacity="0.423529" cx="29" cy="56" rx="4" ry="14" />
<ellipse fill="#9ca5aa" fill-opacity="0.454902" cx="95" cy="17" rx="5" ry="12" />
<ellipse fill="#5a564b" fill-opacity="0.737255" cx="140" cy="0" rx="53" ry="4" />
<ellipse fill="#afc1e7" fill-opacity="0.364706" cx="135" cy="94" rx="11" ry="6" />
<ellipse fill="#bec1bb" fill-opacity="0.286275" cx="39" cy="33" rx="30" ry="6" />
<ellipse fill="#868b85" fill-opacity="0.494118" cx="74" cy="142" rx="21" ry="26" />
<ellipse fill="#0f2850" fill-opacity="0.521569" cx="17" cy="75" rx="7" ry="11" />
<ellipse fill="#2a2e42" fill-opacity="0.611765" cx="30" cy="112" rx="6" ry="8" />
<ellipse fill="#7b7674" fill-opacity="0.584314" cx="151" cy="130" rx="44" ry="5" />
<ellipse fill="#b9b6ae" fill-opacity="0.478431" cx="158" cy="142" rx="53" ry="7" />
<ellipse fill="#263247" fill-opacity="0.505882" cx="99" cy="142" rx="6" ry="57" />
<ellipse fill="#171d2f" fill-opacity="0.462745" cx="134" cy="95" rx="4" ry="11" />
<ellipse fill="#8e3b59" fill-opacity="0.517647" cx="176" cy="63" rx="7" ry="7" />
<ellipse fill="#c7cdca" fill-opacity="0.474510" cx="49" cy="118" rx="6" ry="109" />
<ellipse fill="#454f44" fill-opacity="0.560784" cx="180" cy="105" rx="12" ry="15" />
<ellipse fill="#151e28" fill-opacity="0.509804" cx="192" cy="93" rx="3" ry="12" />
<ellipse fill="#080e12" fill-opacity="0.341176" cx="83" cy="30" rx="5" ry="17" />
<ellipse fill="#b6b8b4" fill-opacity="0.603922" cx="185" cy="121" rx="22" ry="2" />
<ellipse fill="#fff0e3" fill-opacity="0.247059" cx="152" cy="108" rx="8" ry="5" />
<ellipse fill="#baaba3" fill-opacity="0.501961" cx="21" cy="128" rx="8" ry="12" />
<ellipse fill="#a5aeb3" fill-opacity="0.501961" cx="150" cy="21" rx="13" ry="4" />
<ellipse fill="#d1d4d0" fill-opacity="0.427451" cx="211" cy="40" rx="15" ry="41" />
<ellipse fill="#959d9f" fill-opacity="0.674510" cx="36" cy="47" rx="4" ry="28" />
<ellipse fill="#414138" fill-opacity="0.407843" cx="13" cy="13" rx="27" ry="9" />
<ellipse fill="#2a2d30" fill-opacity="0.568627" cx="121" cy="30" rx="11" ry="23" />
<ellipse fill="#8e897d" fill-opacity="0.431373" cx="63" cy="6" rx="13" ry="20" />
<ellipse fill="#1a2123" fill-opacity="0.545098" cx="163" cy="56" rx="6" ry="29" />
<ellipse fill="#bfccd2" fill-opacity="0.501961" cx="97" cy="24" rx="7" ry="3" />
<ellipse fill="#c5b5b1" fill-opacity="0.513725" cx="164" cy="90" rx="3" ry="6" />
<ellipse fill="#817f75" fill-opacity="0.819608" cx="4" cy="112" rx="7" ry="73" />
<ellipse fill="#000c17" fill-opacity="0.509804" cx="33" cy="84" rx="4" ry="5" />
<ellipse fill="#c1c4c6" fill-opacity="0.541176" cx="114" cy="102" rx="7" ry="5" />
<ellipse fill="#bcb9b0" fill-opacity="0.466667" cx="73" cy="43" rx="7" ry="23" />
<ellipse fill="#090e10" fill-opacity="0.549020" cx="88" cy="19" rx="7" ry="2" />
<ellipse fill="#393e47" fill-opacity="0.541176" cx="127" cy="84" rx="18" ry="5" />
<ellipse fill="#c9cece" fill-opacity="0.450980" cx="136" cy="127" rx="4" ry="6" />
<ellipse fill="#ba4230" fill-opacity="0.435294" cx="33" cy="139" rx="5" ry="10" />
<ellipse fill="#d3d3d2" fill-opacity="0.443137" cx="138" cy="114" rx="4" ry="3" />
<ellipse fill="#0d110e" fill-opacity="0.274510" cx="161" cy="15" rx="36" ry="2" />
<ellipse fill="#f0ffff" fill-opacity="0.478431" cx="127" cy="91" rx="2" ry="6" />
<ellipse fill="#7c7e79" fill-opacity="0.443137" cx="252" cy="139" rx="33" ry="11" />
<ellipse fill="#a39997" fill-opacity="0.309804" cx="40" cy="128" rx="5" ry="111" />
<ellipse fill="#10171b" fill-opacity="0.611765" cx="190" cy="12" rx="8" ry="5" />
<ellipse fill="#cde4ff" fill-opacity="0.419608" cx="141" cy="93" rx="3" ry="6" />
<ellipse fill="#59544a" fill-opacity="0.650980" cx="109" cy="1" rx="30" ry="8" />
<ellipse fill="#b0d2fe" fill-opacity="0.458824" cx="17" cy="57" rx="5" ry="3" />
<ellipse fill="#102347" fill-opacity="0.443137" cx="123" cy="114" rx="9" ry="11" />
<ellipse fill="#c6c9cb" fill-opacity="0.494118" cx="177" cy="136" rx="11" ry="4" />
<ellipse fill="#1a2236" fill-opacity="0.443137" cx="161" cy="106" rx="3" ry="18" />
<ellipse fill="#daddd6" fill-opacity="0.400000" cx="148" cy="47" rx="4" ry="15" />
<ellipse fill="#24241f" fill-opacity="0.623529" cx="106" cy="18" rx="5" ry="2" />
<ellipse fill="#c8ccca" fill-opacity="0.384314" cx="97" cy="77" rx="4" ry="7" />
<ellipse fill="#2d353a" fill-opacity="0.450980" cx="14" cy="85" rx="3" ry="29" />
<ellipse fill="#6a6151" fill-opacity="0.674510" cx="0" cy="141" rx="7" ry="21" />
<ellipse fill="#393d40" fill-opacity="0.560784" cx="87" cy="38" rx="9" ry="15" />
<ellipse fill="#5c5e5c" fill-opacity="0.576471" cx="139" cy="69" rx="11" ry="4" />
<ellipse fill="#8e9491" fill-opacity="0.556863" cx="7" cy="88" rx="20" ry="3" />
<ellipse fill="#94958e" fill-opacity="0.545098" cx="17" cy="139" rx="7" ry="30" />
</g>
</svg>