<svg xmlns="http://www.w3.org/2000/svg" version="1.1" width="256" height="143">
<rect x="0" y="0" width="256" height="143" fill="#f0f0f0" />
<g transform="scale(1.000000) translate(0.5 0.5)">
<ellipse fill="#1f1507" fill-opacity="0.717647" cx="119" cy="122" rx="139" ry="90" />
<ellipse fill="#67758f" fill-opacity="0.533333" cx="161" cy="29" rx="255" ry="56" />
<ellipse fill="#aab7cf" fill-opacity="0.741176" cx="218" cy="46" rx="43" ry="30" />
<ellipse fill="#190f01" fill-opacity="0.690196" cx="145" cy="116" rx="252" ry="9" />
<ellipse fill="#321e00" fill-opacity="0.439216" cx="81" cy="72" rx="43" ry="27" />
<ellipse fill="#8998b6" fill-opacity="0.945098" cx="0" cy="38" rx="46" ry="52" />
<ellipse fill="#9ba8c2" fill-opacity="0.890196" cx="255" cy="69" rx="26" ry="31" />
<ellipse fill="#b3bfd3" fill-opacity="0.800000" cx="176" cy="20" rx="45" ry="29" />
<ellipse fill="#54452f" fill-opacity="0.627451" cx="150" cy="75" rx="49" ry="27" />
<ellipse fill="#625746" fill-opacity="0.745098" cx="109" cy="51" rx="25" ry="31" />
<ellipse fill="#98a9c7" fill-opacity="0.784314" cx="47" cy="37" rx="13" ry="25" />
<ellipse fill="#937e5e" fill-opacity="0.470588" cx="162" cy="138" rx="44" ry="22" />
<ellipse fill="#090100" fill-opacity="0.560784" cx="131" cy="87" rx="35" ry="6" />
<ellipse fill="#150d03" fill-opacity="0.670588" cx="251" cy="125" rx="14" ry="20" />
<ellipse fill="#0e0800" fill-opacity="0.647059" cx="36" cy="87" rx="20" ry="7" />
<ellipse fill="#c7b8a0" fill-opacity="0.435294" cx="130" cy="76" rx="37" ry="5" />
<ellipse fill="#cbc4b7" fill-opacity="0.462745" cx="150" cy="62" rx="80" ry="2" />
<ellipse fill="#b39b75" fill-opacity="0.466667" cx="49" cy="141" rx="36" ry="12" />
<ellipse fill="#000000" fill-opacity="0.501961" cx="72" cy="69" rx="33" ry="6" />
<ellipse fill="#070000" fill-opacity="0.478431" cx="166" cy="69" rx="34" ry="5" />
<ellipse fill="#8899ba" fill-opacity="0.764706" cx="6" cy="81" rx="11" ry="22" />
<ellipse fill="#b29f81" fill-opacity="0.482353" cx="21" cy="118" rx="8" ry="10" />
<ellipse fill="#020000" fill-opacity="0.525490" cx="218" cy="91" rx="20" ry="6" />
<ellipse fill="#211809" fill-opacity="0.600000" cx="98" cy="140" rx="16" ry="31" />
<ellipse fill="#483e2e" fill-opacity="0.607843" cx="115" cy="48" rx="44" ry="13" />
<ellipse fill="#978872" fill-opacity="0.666667" cx="101" cy="104" rx="169" ry="3" />
<ellipse fill="#a99577" fill-opacity="0.529412" cx="214" cy="133" rx="22" ry="7" />
<ellipse fill="#adb9cd" fill-opacity="0.796078" cx="190" cy="39" rx="19" ry="24" />
<ellipse fill="#1f180e" fill-opacity="0.647059" cx="94" cy="92" rx="77" ry="4" />
<ellipse fill="#8f8675" fill-opacity="0.643137" cx="182" cy="87" rx="18" ry="5" />
<ellipse fill="#796f5f" fill-opacity="0.611765" cx="70" cy="82" rx="19" ry="7" />
<ellipse fill="#98a9c7" fill-opacity="0.556863" cx="56" cy="15" rx="43" ry="30" />
<ellipse fill="#67563a" fill-opacity="0.580392" cx="41" cy="79" rx="23" ry="5" />
<ellipse fill="#d5c09e" fill-opacity="0.321569" cx="145" cy="132" rx="24" ry="5" />
<ellipse fill="#1a1106" fill-opacity="0.466667" cx="206" cy="116" rx="27" ry="12" />
<ellipse fill="#867a68" fill-opacity="0.800000" cx="112" cy="40" rx="42" ry="2" />
<ellipse fill="#020000" fill-opacity="0.388235" cx="192" cy="70" rx="7" ry="9" />
<ellipse fill="#adb6ca" fill-opacity="0.580392" cx="220" cy="74" rx="23" ry="5" />
<ellipse fill="#b1a490" fill-opacity="0.525490" cx="121" cy="49" rx="15" ry="3" />
<ellipse fill="#51432f" fill-opacity="0.403922" cx="178" cy="142" rx="30" ry="13" />
<ellipse fill="#a29784" fill-opacity="0.482353" cx="112" cy="73" rx="24" ry="3" />
<ellipse fill="#ac9f8d" fill-opacity="0.607843" cx="178" cy="75" rx="4" ry="6" />
<ellipse fill="#2d271d" fill-opacity="0.521569" cx="115" cy="56" rx="60" ry="4" />
<ellipse fill="#b3bfd2" fill-opacity="0.611765" cx="146" cy="18" rx="25" ry="21" />
<ellipse fill="#030000" fill-opacity="0.474510" cx="121" cy="44" rx="34" ry="2" />
<ellipse fill="#c0b29c" fill-opacity="0.337255" cx="125" cy="105" rx="49" ry="3" />
<ellipse fill="#090400" fill-opacity="0.286275" cx="59" cy="120" rx="32" ry="11" />
<ellipse fill="#7b6f61" fill-opacity="0.631373" cx="145" cy="122" rx="9" ry="6" />
<ellipse fill="#0b0703" fill-opacity="0.262745" cx="142" cy="121" rx="29" ry="7" />
<ellipse fill="#a1b1d0" fill-opacity="0.607843" cx="243" cy="92" rx="7" ry="7" />
<ellipse fill="#160a00" fill-opacity="0.529412" cx="184" cy="96" rx="7" ry="6" />
<ellipse fill="#b1bed6" fill-opacity="0.345098" cx="108" cy="0" rx="51" ry="26" />
<ellipse fill="#91826c" fill-opacity="0.690196" cx="176" cy="124" rx="6" ry="8" />
<ellipse fill="#eedcc3" fill-opacity="0.380392" cx="145" cy="119" rx="7" ry="3" />
<ellipse fill="#241b0f" fill-opacity="0.796078" cx="245" cy="117" rx="28" ry="12" />
<ellipse fill="#2e2716" fill-opacity="0.313725" cx="74" cy="107" rx="24" ry="4" />
<ellipse fill="#afa391" fill-opacity="0.521569" cx="127" cy="65" rx="5" ry="6" />
<ellipse fill="#4f4b3d" fill-opacity="0.482353" cx="108" cy="20" rx="4" ry="4" />
<ellipse fill="#0c0601" fill-opacity="0.501961" cx="59" cy="73" rx="6" ry="10" />
<ellipse fill="#15100b" fill-opacity="0.541176" cx="104" cy="67" rx="19" ry="3" />
<ellipse fill="#9c9385" fill-opacity="0.403922" cx="57" cy="60" rx="28" ry="3" />
<ellipse fill="#18120b" fill-opacity="0.552941" cx="65" cy="53" rx="10" ry="5" />
<ellipse fill="#857966" fill-opacity="0.725490" cx="150" cy="97" rx="18" ry="2" />
<ellipse fill="#42331f" fill-opacity="0.372549" cx="19" cy="104" rx="14" ry="11" />
<ellipse fill="#6b5e48" fill-opacity="0.552941" cx="19" cy="135" rx="15" ry="18" />
<ellipse fill="#7c725f" fill-opacity="0.607843" cx="148" cy="53" rx="12" ry="3" />
<ellipse fill="#ac997a" fill-opacity="0.537255" cx="72" cy="46" rx="8" ry="3" />
<ellipse fill="#546481" fill-opacity="0.180392" cx="0" cy="4" rx="26" ry="39" />
<ellipse fill="#9d9075" fill-opacity="0.486275" cx="72" cy="100" rx="14" ry="3" />
<ellipse fill="#a9b5cc" fill-opacity="0.560784" cx="221" cy="36" rx="30" ry="39" />
<ellipse fill="#0a0400" fill-opacity="0.541176" cx="0" cy="115" rx="12" ry="11" />
<ellipse fill="#97a7c7" fill-opacity="0.568627" cx="32" cy="65" rx="8" ry="11" />
<ellipse fill="#372b18" fill-opacity="0.462745" cx="144" cy="101" rx="38" ry="2" />
<ellipse fill="#918470" fill-opacity="1.000000" cx="237" cy="103" rx="27" ry="2" />
<ellipse fill="#b2b5b7" fill-opacity="0.415686" cx="174" cy="48" rx="20" ry="4" />
<ellipse fill="#88775c" fill-opacity="0.694118" cx="213" cy="80" rx="17" ry="4" />
<ellipse fill="#b3cbf0" fill-opacity="0.521569" cx="198" cy="80" rx="2" ry="5" />
<ellipse fill="#a9977b" fill-opacity="0.470588" cx="62" cy="134" rx="21" ry="4" />
<ellipse fill="#17140f" fill-opacity="0.447059" cx="100" cy="35" rx="13" ry="3" />
<ellipse fill="#d8c5a5" fill-opacity="0.564706" cx="93" cy="70" rx="2" ry="2" />
<ellipse fill="#c6b69a" fill-opacity="0.349020" cx="145" cy="63" rx="14" ry="3" />
<ellipse fill="#8f7f67" fill-opacity="0.615686" cx="218" cy="142" rx="14" ry="14" />
<ellipse fill="#918268" fill-opacity="0.466667" cx="41" cy="78" rx="13" ry="4" />
<ellipse fill="#33291a" fill-opacity="0.592157" cx="15" cy="131" rx="13" ry="3" />
<ellipse fill="#1a120a" fill-opacity="0.525490" cx="38" cy="83" rx="22" ry="2" />
<ellipse fill="#251a10" fill-opacity="0.517647" cx="89" cy="42" rx="19" ry="2" />
<ellipse fill="#1f180f" fill-opacity="0.517647" cx="144" cy="48" rx="9" ry="4" />
<ellipse fill="#100800" fill-opacity="0.552941" cx="161" cy="118" rx="6" ry="9" />
<ellipse fill="#605340" fill-opacity="0.905882" cx="236" cy="135" rx="6" ry="5" />
<ellipse fill="#3e3321" fill-opacity="0.454902" cx="42" cy="96" rx="27" ry="5" />
<ellipse fill="#3d2f1c" fill-opacity="0.419608" cx="163" cy="78" rx="5" ry="19" />
<ellipse fill="#5e513c" fill-opacity="0.678431" cx="249" cy="101" rx="3" ry="5" />
<ellipse fill="#9d9381" fill-opacity="0.572549" cx="117" cy="47" rx="3" ry="4" />
<ellipse fill="#1b140b" fill-opacity="0.596078" cx="190" cy="73" rx="8" ry="7" />
<ellipse fill="#1d1508" fill-opacity="0.474510" cx="223" cy="89" rx="15" ry="5" />
<ellipse fill="#9caac6" fill-opacity="0.694118" cx="60" cy="15" rx="20" ry="31" />
<ellipse fill="#948772" fill-opacity="0.427451" cx="164" cy="81" rx="25" ry="2" />
<ellipse fill="#7a6c52" fill-opacity="0.576471" cx="66" cy="128" rx="14" ry="2" />
<ellipse fill="#0c0801" fill-opacity="0.458824" cx="100" cy="88" rx="10" ry="7" />
<ellipse fill="#302312" fill-opacity="0.549020" cx="115" cy="142" rx="7" ry="9" />
</g>
</svg>