<svg xmlns="http://www.w3.org/2000/svg" version="1.1" width="256" height="143">
<rect x="0" y="0" width="256" height="143" fill="#f0f0f0" />
<g transform="scale(1.000000) translate(0.5 0.5)">
<ellipse fill="#1b1c0c" fill-opacity="0.619608" cx="136" cy="100" rx="241" ry="142" />
<ellipse fill="#251f16" fill-opacity="0.482353" cx="141" cy="81" rx="47" ry="21" />
<ellipse fill="#a9c8d6" fill-opacity="0.560784" cx="100" cy="0" rx="16" ry="47" />
<ellipse fill="#b8dafa" fill-opacity="0.478431" cx="53" cy="46" rx="14" ry="24" />
<ellipse fill="#8bbee5" fill-opacity="0.525490" cx="19" cy="22" rx="28" ry="12" />
<ellipse fill="#715734" fill-opacity="0.552941" cx="103" cy="131" rx="247" ry="22" />
<ellipse fill="#072d40" fill-opacity="0.545098" cx="58" cy="0" rx="24" ry="24" />
<ellipse fill="#9a886c" fill-opacity="0.576471" cx="56" cy="89" rx="38" ry="33" />
<ellipse fill="#8d9291" fill-opacity="0.682353" cx="165" cy="24" rx="69" ry="12" />
<ellipse fill="#002331" fill-opacity="0.384314" cx="24" cy="55" rx="13" ry="31" />
<ellipse fill="#9d8d73" fill-opacity="0.486275" cx="207" cy="94" rx="35" ry="27" />
<ellipse fill="#2b4550" fill-opacity="0.505882" cx="243" cy="41" rx="14" ry="47" />
<ellipse fill="#b8e2fc" fill-opacity="0.662745" cx="194" cy="0" rx="12" ry="7" />
<ellipse fill="#1e1f1c" fill-opacity="0.431373" cx="143" cy="69" rx="52" ry="9" />
<ellipse fill="#2d2c25" fill-opacity="0.498039" cx="17" cy="142" rx="50" ry="16" />
<ellipse fill="#a2d7ff" fill-opacity="0.403922" cx="20" cy="2" rx="10" ry="20" />
<ellipse fill="#e7ffff" fill-opacity="0.486275" cx="94" cy="0" rx="12" ry="10" />
<ellipse fill="#9ba5aa" fill-opacity="0.517647" cx="67" cy="51" rx="32" ry="13" />
<ellipse fill="#b9e5ff" fill-opacity="0.545098" cx="227" cy="31" rx="6" ry="9" />
<ellipse fill="#041d33" fill-opacity="0.541176" cx="0" cy="54" rx="3" ry="43" />
<ellipse fill="#73a5cd" fill-opacity="0.458824" cx="7" cy="42" rx="6" ry="30" />
<ellipse fill="#9bd5ff" fill-opacity="0.356863" cx="255" cy="21" rx="6" ry="22" />
<ellipse fill="#1f4a5c" fill-opacity="0.435294" cx="77" cy="29" rx="14" ry="15" />
<ellipse fill="#97876c" fill-opacity="0.329412" cx="114" cy="81" rx="7" ry="59" />
<ellipse fill="#c3dff6" fill-opacity="0.623529" cx="53" cy="40" rx="4" ry="19" />
<ellipse fill="#325058" fill-opacity="0.560784" cx="229" cy="6" rx="24" ry="14" />
<ellipse fill="#200800" fill-opacity="0.196078" cx="159" cy="42" rx="27" ry="9" />
<ellipse fill="#4a5762" fill-opacity="0.635294" cx="48" cy="46" rx="2" ry="27" />
<ellipse fill="#595446" fill-opacity="0.878431" cx="160" cy="94" rx="12" ry="24" />
<ellipse fill="#010e09" fill-opacity="0.392157" cx="255" cy="58" rx="11" ry="16" />
<ellipse fill="#848a83" fill-opacity="0.627451" cx="103" cy="30" rx="23" ry="14" />
<ellipse fill="#989285" fill-opacity="0.521569" cx="137" cy="55" rx="29" ry="7" />
<ellipse fill="#dcf3ff" fill-opacity="0.643137" cx="38" cy="20" rx="5" ry="6" />
<ellipse fill="#004877" fill-opacity="0.262745" cx="159" cy="6" rx="34" ry="7" />
<ellipse fill="#000000" fill-opacity="0.521569" cx="57" cy="75" rx="4" ry="7" />
<ellipse fill="#2b5662" fill-opacity="0.517647" cx="39" cy="40" rx="6" ry="11" />
<ellipse fill="#00293f" fill-opacity="0.349020" cx="0" cy="79" rx="15" ry="14" />
<ellipse fill="#4a4233" fill-opacity="0.486275" cx="100" cy="77" rx="7" ry="34" />
<ellipse fill="#43392b" fill-opacity="0.498039" cx="118" cy="46" rx="10" ry="7" />
<ellipse fill="#000107" fill-opacity="0.313725" cx="138" cy="71" rx="20" ry="10" />
<ellipse fill="#00160f" fill-opacity="0.443137" cx="19" cy="61" rx="7" ry="10" />
<ellipse fill="#537490" fill-opacity="0.639216" cx="7" cy="0" rx="17" ry="16" />
<ellipse fill="#50504e" fill-opacity="0.466667" cx="231" cy="56" rx="12" ry="23" />
<ellipse fill="#32322e" fill-opacity="0.568627" cx="172" cy="75" rx="7" ry="23" />
<ellipse fill="#928877" fill-opacity="0.572549" cx="64" cy="63" rx="30" ry="8" />
<ellipse fill="#94d1fe" fill-opacity="0.309804" cx="119" cy="12" rx="15" ry="5" />
<ellipse fill="#7a7e7a" fill-opacity="0.623529" cx="200" cy="33" rx="12" ry="30" />
<ellipse fill="#746f5c" fill-opacity="0.494118" cx="150" cy="97" rx="19" ry="8" />
<ellipse fill="#081b24" fill-opacity="0.435294" cx="1" cy="50" rx="7" ry="7" />
<ellipse fill="#cff3ff" fill-opacity="0.498039" cx="71" cy="43" rx="2" ry="9" />
<ellipse fill="#8a7f6a" fill-opacity="0.470588" cx="31" cy="91" rx="17" ry="27" />
<ellipse fill="#35444d" fill-opacity="0.498039" cx="30" cy="25" rx="2" ry="81" />
<ellipse fill="#826f4f" fill-opacity="0.545098" cx="239" cy="124" rx="61" ry="16" />
<ellipse fill="#97958a" fill-opacity="0.290196" cx="161" cy="59" rx="4" ry="26" />
<ellipse fill="#b4daf4" fill-opacity="0.423529" cx="33" cy="25" rx="2" ry="20" />
<ellipse fill="#9f927b" fill-opacity="0.643137" cx="70" cy="90" rx="9" ry="21" />
<ellipse fill="#b5deff" fill-opacity="0.349020" cx="6" cy="64" rx="5" ry="10" />
<ellipse fill="#c0e8ff" fill-opacity="0.470588" cx="224" cy="23" rx="4" ry="6" />
<ellipse fill="#86806f" fill-opacity="0.752941" cx="194" cy="83" rx="12" ry="16" />
<ellipse fill="#384e51" fill-opacity="0.905882" cx="72" cy="11" rx="11" ry="23" />
<ellipse fill="#00150e" fill-opacity="0.431373" cx="13" cy="69" rx="6" ry="5" />
<ellipse fill="#7091a2" fill-opacity="0.529412" cx="13" cy="50" rx="4" ry="8" />
<ellipse fill="#07100b" fill-opacity="0.501961" cx="1" cy="89" rx="7" ry="6" />
<ellipse fill="#9d9383" fill-opacity="0.631373" cx="128" cy="29" rx="20" ry="10" />
<ellipse fill="#2b2720" fill-opacity="0.537255" cx="180" cy="45" rx="10" ry="4" />
<ellipse fill="#5d7b88" fill-opacity="0.537255" cx="255" cy="34" rx="24" ry="9" />
<ellipse fill="#3b5961" fill-opacity="0.611765" cx="118" cy="8" rx="3" ry="12" />
<ellipse fill="#9ebacb" fill-opacity="0.470588" cx="54" cy="4" rx="5" ry="3" />
<ellipse fill="#1a1e1c" fill-opacity="0.619608" cx="126" cy="79" rx="5" ry="17" />
<ellipse fill="#4d7480" fill-opacity="0.580392" cx="103" cy="19" rx="6" ry="8" />
<ellipse fill="#6d5c44" fill-opacity="0.450980" cx="64" cy="126" rx="57" ry="11" />
<ellipse fill="#476a74" fill-opacity="0.521569" cx="191" cy="13" rx="24" ry="4" />
<ellipse fill="#5b564d" fill-opacity="0.756863" cx="255" cy="79" rx="22" ry="10" />
<ellipse fill="#b3d4e7" fill-opacity="0.603922" cx="131" cy="13" rx="3" ry="4" />
<ellipse fill="#0e0600" fill-opacity="0.403922" cx="30" cy="75" rx="4" ry="5" />
<ellipse fill="#d2ecff" fill-opacity="0.533333" cx="92" cy="0" rx="5" ry="13" />
<ellipse fill="#3f4f5d" fill-opacity="0.764706" cx="2" cy="13" rx="2" ry="16" />
<ellipse fill="#bee9ff" fill-opacity="0.486275" cx="39" cy="54" rx="5" ry="2" />
<ellipse fill="#393528" fill-opacity="0.482353" cx="112" cy="89" rx="26" ry="3" />
<ellipse fill="#b0d2ed" fill-opacity="0.474510" cx="11" cy="46" rx="5" ry="3" />
<ellipse fill="#d6edff" fill-opacity="0.466667" cx="26" cy="12" rx="4" ry="6" />
<ellipse fill="#292420" fill-opacity="0.435294" cx="105" cy="51" rx="4" ry="8" />
<ellipse fill="#46696c" fill-opacity="0.556863" cx="80" cy="8" rx="7" ry="7" />
<ellipse fill="#bdbdbc" fill-opacity="0.376471" cx="149" cy="15" rx="8" ry="5" />
<ellipse fill="#b6a180" fill-opacity="0.219608" cx="225" cy="105" rx="14" ry="17" />
<ellipse fill="#726751" fill-opacity="0.474510" cx="110" cy="123" rx="22" ry="34" />
<ellipse fill="#ad9171" fill-opacity="0.396078" cx="97" cy="43" rx="9" ry="10" />
<ellipse fill="#9e8c69" fill-opacity="0.431373" cx="35" cy="105" rx="26" ry="9" />
<ellipse fill="#3b4f59" fill-opacity="0.709804" cx="127" cy="5" rx="2" ry="12" />
<ellipse fill="#364b47" fill-opacity="0.780392" cx="255" cy="36" rx="15" ry="2" />
<ellipse fill="#acd4f4" fill-opacity="0.654902" cx="216" cy="25" rx="3" ry="3" />
<ellipse fill="#2b271f" fill-opacity="0.486275" cx="154" cy="109" rx="4" ry="9" />
<ellipse fill="#2e2920" fill-opacity="0.266667" cx="56" cy="84" rx="4" ry="17" />
<ellipse fill="#ffffff" fill-opacity="0.384314" cx="135" cy="0" rx="2" ry="2" />
<ellipse fill="#8e8673" fill-opacity="0.537255" cx="49" cy="85" rx="30" ry="5" />
<ellipse fill="#2a2924" fill-opacity="0.572549" cx="156" cy="63" rx="21" ry="3" />
<ellipse fill="#435060" fill-opacity="0.490196" cx="220" cy="30" rx="2" ry="24" />
<ellipse fill="#172731" fill-opacity="0.454902" cx="48" cy="10" rx="14" ry="5" />
<ellipse fill="#d1efff" fill-opacity="0.415686" cx="110" cy="2" rx="3" ry="14" />
<ellipse fill="#1c3235" fill-opacity="0.388235" cx="5" cy="52" rx="30" ry="3" />
</g>
</svg>