<svg xmlns="http://www.w3.org/2000/svg" version="1.1" width="256" height="143">
<rect x="0" y="0" width="256" height="143" fill="#f0f0f0" />
<g transform="scale(1.000000) translate(0.5 0.5)">
<ellipse fill="#403c2b" fill-opacity="0.737255" cx="209" cy="89" rx="255" ry="91" />
<ellipse fill="#d6d8dc" fill-opacity="0.925490" cx="145" cy="22" rx="60" ry="34" />
<ellipse fill="#000000" fill-opacity="0.388235" cx="8" cy="75" rx="36" ry="77" />
<ellipse fill="#121500" fill-opacity="0.674510" cx="255" cy="84" rx="67" ry="39" />
<ellipse fill="#b7b8b7" fill-opacity="0.576471" cx="53" cy="19" rx="33" ry="30" />
<ellipse fill="#171b0b" fill-opacity="0.658824" cx="252" cy="49" rx="28" ry="51" />
<ellipse fill="#e7eef6" fill-opacity="0.521569" cx="198" cy="50" rx="19" ry="11" />
<ellipse fill="#051003" fill-opacity="0.298039" cx="134" cy="83" rx="192" ry="21" />
<ellipse fill="#825c2b" fill-opacity="0.529412" cx="199" cy="142" rx="59" ry="46" />
<ellipse fill="#e5e6e5" fill-opacity="0.686275" cx="57" cy="38" rx="6" ry="22" />
<ellipse fill="#625443" fill-opacity="0.725490" cx="76" cy="36" rx="15" ry="16" />
<ellipse fill="#1d2205" fill-opacity="0.505882" cx="200" cy="0" rx="7" ry="18" />
<ellipse fill="#ad947b" fill-opacity="0.278431" cx="59" cy="114" rx="87" ry="15" />
<ellipse fill="#d8dadc" fill-opacity="0.964706" cx="93" cy="11" rx="22" ry="11" />
<ellipse fill="#252c24" fill-opacity="0.737255" cx="0" cy="33" rx="8" ry="13" />
<ellipse fill="#a0a8af" fill-opacity="0.537255" cx="219" cy="1" rx="6" ry="46" />
<ellipse fill="#41362b" fill-opacity="0.388235" cx="28" cy="136" rx="40" ry="22" />
<ellipse fill="#c2c5c5" fill-opacity="0.631373" cx="33" cy="4" rx="24" ry="22" />
<ellipse fill="#443920" fill-opacity="0.568627" cx="246" cy="133" rx="17" ry="44" />
<ellipse fill="#000b0c" fill-opacity="0.364706" cx="30" cy="89" rx="40" ry="11" />
<ellipse fill="#98a198" fill-opacity="0.501961" cx="140" cy="55" rx="35" ry="5" />
<ellipse fill="#a0a7a7" fill-opacity="0.521569" cx="53" cy="65" rx="5" ry="14" />
<ellipse fill="#a48762" fill-opacity="0.337255" cx="148" cy="127" rx="50" ry="17" />
<ellipse fill="#474032" fill-opacity="0.600000" cx="144" cy="104" rx="22" ry="9" />
<ellipse fill="#384234" fill-opacity="0.380392" cx="180" cy="78" rx="34" ry="23" />
<ellipse fill="#dee0e0" fill-opacity="0.615686" cx="112" cy="37" rx="13" ry="16" />
<ellipse fill="#6a5d4c" fill-opacity="0.776471" cx="83" cy="50" rx="16" ry="20" />
<ellipse fill="#d7d7d5" fill-opacity="0.541176" cx="59" cy="46" rx="8" ry="12" />
<ellipse fill="#473f32" fill-opacity="0.439216" cx="70" cy="23" rx="10" ry="8" />
<ellipse fill="#c7c8cb" fill-opacity="0.768627" cx="189" cy="42" rx="16" ry="12" />
<ellipse fill="#9fa3a5" fill-opacity="0.749020" cx="209" cy="21" rx="7" ry="8" />
<ellipse fill="#021e19" fill-opacity="0.207843" cx="31" cy="58" rx="19" ry="32" />
<ellipse fill="#bec4bf" fill-opacity="0.498039" cx="9" cy="51" rx="5" ry="5" />
<ellipse fill="#d4d5d5" fill-opacity="0.572549" cx="52" cy="39" rx="10" ry="9" />
<ellipse fill="#635d51" fill-opacity="0.780392" cx="91" cy="71" rx="35" ry="14" />
<ellipse fill="#353919" fill-opacity="0.392157" cx="224" cy="33" rx="28" ry="5" />
<ellipse fill="#65665e" fill-opacity="0.505882" cx="240" cy="24" rx="32" ry="3" />
<ellipse fill="#766e60" fill-opacity="0.450980" cx="37" cy="118" rx="20" ry="18" />
<ellipse fill="#675c4c" fill-opacity="0.803922" cx="120" cy="97" rx="24" ry="9" />
<ellipse fill="#d9dbde" fill-opacity="0.647059" cx="125" cy="10" rx="49" ry="25" />
<ellipse fill="#848a8f" fill-opacity="0.552941" cx="229" cy="14" rx="6" ry="8" />
<ellipse fill="#030e08" fill-opacity="0.403922" cx="0" cy="75" rx="9" ry="27" />
<ellipse fill="#010400" fill-opacity="0.270588" cx="2" cy="131" rx="10" ry="19" />
<ellipse fill="#9ba2a9" fill-opacity="0.580392" cx="237" cy="5" rx="3" ry="5" />
<ellipse fill="#d2d4d8" fill-opacity="0.458824" cx="165" cy="34" rx="26" ry="22" />
<ellipse fill="#735739" fill-opacity="0.607843" cx="218" cy="141" rx="20" ry="39" />
<ellipse fill="#7b6951" fill-opacity="0.541176" cx="67" cy="31" rx="6" ry="14" />
<ellipse fill="#d2d4cf" fill-opacity="0.533333" cx="47" cy="44" rx="8" ry="4" />
<ellipse fill="#131601" fill-opacity="0.298039" cx="253" cy="0" rx="26" ry="21" />
<ellipse fill="#46503f" fill-opacity="0.239216" cx="0" cy="24" rx="19" ry="15" />
<ellipse fill="#8f877c" fill-opacity="0.439216" cx="105" cy="117" rx="30" ry="13" />
<ellipse fill="#4f4d3d" fill-opacity="0.800000" cx="184" cy="96" rx="23" ry="6" />
<ellipse fill="#90958a" fill-opacity="0.419608" cx="202" cy="57" rx="17" ry="5" />
<ellipse fill="#161d14" fill-opacity="0.521569" cx="209" cy="81" rx="26" ry="11" />
<ellipse fill="#393c2f" fill-opacity="0.517647" cx="206" cy="3" rx="9" ry="13" />
<ellipse fill="#76816e" fill-opacity="0.415686" cx="141" cy="59" rx="12" ry="8" />
<ellipse fill="#a7aba8" fill-opacity="0.470588" cx="193" cy="10" rx="4" ry="11" />
<ellipse fill="#8d816e" fill-opacity="0.537255" cx="31" cy="103" rx="31" ry="3" />
<ellipse fill="#253027" fill-opacity="0.376471" cx="32" cy="55" rx="22" ry="8" />
<ellipse fill="#989ca0" fill-opacity="0.454902" cx="238" cy="5" rx="6" ry="4" />
<ellipse fill="#29312c" fill-opacity="0.458824" cx="56" cy="94" rx="37" ry="7" />
<ellipse fill="#cbced0" fill-opacity="0.380392" cx="42" cy="0" rx="42" ry="19" />
<ellipse fill="#343821" fill-opacity="0.490196" cx="230" cy="57" rx="13" ry="15" />
<ellipse fill="#c0a28a" fill-opacity="0.423529" cx="148" cy="86" rx="6" ry="3" />
<ellipse fill="#172415" fill-opacity="0.392157" cx="135" cy="81" rx="10" ry="7" />
<ellipse fill="#272a1f" fill-opacity="0.615686" cx="153" cy="100" rx="8" ry="8" />
<ellipse fill="#1a0700" fill-opacity="0.192157" cx="52" cy="142" rx="21" ry="9" />
<ellipse fill="#737e7e" fill-opacity="0.462745" cx="64" cy="76" rx="17" ry="5" />
<ellipse fill="#222203" fill-opacity="0.521569" cx="250" cy="40" rx="18" ry="8" />
<ellipse fill="#e7f0ff" fill-opacity="0.458824" cx="223" cy="0" rx="4" ry="5" />
<ellipse fill="#1c1c00" fill-opacity="0.352941" cx="196" cy="15" rx="4" ry="2" />
<ellipse fill="#515d42" fill-opacity="0.376471" cx="177" cy="64" rx="44" ry="6" />
<ellipse fill="#c1c5c8" fill-opacity="0.545098" cx="193" cy="25" rx="15" ry="7" />
<ellipse fill="#6a6f6a" fill-opacity="0.600000" cx="41" cy="34" rx="5" ry="6" />
<ellipse fill="#7c7365" fill-opacity="0.533333" cx="81" cy="125" rx="28" ry="13" />
<ellipse fill="#9c9f9a" fill-opacity="0.360784" cx="8" cy="3" rx="9" ry="25" />
<ellipse fill="#a6a8b4" fill-opacity="0.462745" cx="245" cy="25" rx="4" ry="3" />
<ellipse fill="#474a35" fill-opacity="0.894118" cx="226" cy="31" rx="2" ry="11" />
<ellipse fill="#252f2a" fill-opacity="0.447059" cx="17" cy="40" rx="9" ry="12" />
<ellipse fill="#434a43" fill-opacity="0.541176" cx="47" cy="53" rx="7" ry="6" />
<ellipse fill="#6c6d64" fill-opacity="0.839216" cx="212" cy="43" rx="5" ry="2" />
<ellipse fill="#515442" fill-opacity="0.564706" cx="124" cy="75" rx="6" ry="21" />
<ellipse fill="#323a22" fill-opacity="0.525490" cx="190" cy="72" rx="12" ry="9" />
<ellipse fill="#655747" fill-opacity="0.631373" cx="98" cy="71" rx="14" ry="23" />
<ellipse fill="#7f6a43" fill-opacity="0.392157" cx="238" cy="104" rx="21" ry="2" />
<ellipse fill="#d7d9db" fill-opacity="0.525490" cx="134" cy="25" rx="44" ry="28" />
<ellipse fill="#9b8e7c" fill-opacity="0.607843" cx="93" cy="108" rx="18" ry="5" />
<ellipse fill="#d3d5db" fill-opacity="0.423529" cx="212" cy="52" rx="7" ry="2" />
<ellipse fill="#bcbebc" fill-opacity="0.541176" cx="21" cy="2" rx="4" ry="27" />
<ellipse fill="#c7cbcf" fill-opacity="0.596078" cx="217" cy="16" rx="6" ry="2" />
<ellipse fill="#a5a9ae" fill-opacity="0.505882" cx="222" cy="40" rx="4" ry="4" />
<ellipse fill="#f3f4f3" fill-opacity="0.294118" cx="53" cy="60" rx="4" ry="4" />
<ellipse fill="#806746" fill-opacity="0.666667" cx="123" cy="142" rx="24" ry="7" />
<ellipse fill="#ccd0d4" fill-opacity="0.580392" cx="177" cy="10" rx="23" ry="4" />
<ellipse fill="#9b9d9c" fill-opacity="0.639216" cx="140" cy="57" rx="8" ry="4" />
<ellipse fill="#c2c4c8" fill-opacity="0.474510" cx="207" cy="51" rx="5" ry="9" />
<ellipse fill="#2a3329" fill-opacity="0.400000" cx="31" cy="59" rx="21" ry="6" />
<ellipse fill="#d1d2d7" fill-opacity="0.552941" cx="160" cy="26" rx="11" ry="32" />
<ellipse fill="#495148" fill-opacity="0.541176" cx="61" cy="82" rx="10" ry="7" />
<ellipse fill="#d1d8d4" fill-opacity="0.431373" cx="62" cy="54" rx="7" ry="3" />
</g>
</svg>