<svg xmlns="http://www.w3.org/2000/svg" version="1.1" width="256" height="143">
<rect x="0" y="0" width="256" height="143" fill="#f0f0f0" />
<g transform="scale(1.000000) translate(0.5 0.5)">
<ellipse fill="#1f1d1a" fill-opacity="0.580392" cx="153" cy="63" rx="213" ry="142" />
<ellipse fill="#bbd1f3" fill-opacity="0.533333" cx="92" cy="18" rx="103" ry="64" />
<ellipse fill="#3a280b" fill-opacity="0.596078" cx="77" cy="110" rx="28" ry="62" />
<ellipse fill="#352000" fill-opacity="0.490196" cx="228" cy="91" rx="54" ry="106" />
<ellipse fill="#514533" fill-opacity="0.956863" cx="157" cy="124" rx="53" ry="41" />
<ellipse fill="#a5b1c6" fill-opacity="0.803922" cx="6" cy="82" rx="34" ry="42" />
<ellipse fill="#ffedce" fill-opacity="0.231373" cx="204" cy="64" rx="47" ry="21" />
<ellipse fill="#090400" fill-opacity="0.564706" cx="255" cy="23" rx="65" ry="16" />
<ellipse fill="#594b35" fill-opacity="0.788235" cx="39" cy="140" rx="22" ry="36" />
<ellipse fill="#918065" fill-opacity="0.552941" cx="134" cy="129" rx="93" ry="6" />
<ellipse fill="#251b0c" fill-opacity="0.949020" cx="210" cy="142" rx="110" ry="8" />
<ellipse fill="#d9e9ff" fill-opacity="0.231373" cx="150" cy="19" rx="49" ry="57" />
<ellipse fill="#000000" fill-opacity="0.564706" cx="72" cy="89" rx="32" ry="5" />
<ellipse fill="#0f0a01" fill-opacity="0.670588" cx="147" cy="101" rx="26" ry="7" />
<ellipse fill="#433721" fill-opacity="0.541176" cx="80" cy="44" rx="6" ry="13" />
<ellipse fill="#0d0800" fill-opacity="0.545098" cx="218" cy="92" rx="37" ry="6" />
<ellipse fill="#161109" fill-opacity="0.945098" cx="255" cy="78" rx="11" ry="13" />
<ellipse fill="#aab7ca" fill-opacity="0.737255" cx="109" cy="61" rx="13" ry="31" />
<ellipse fill="#917f63" fill-opacity="0.494118" cx="215" cy="124" rx="77" ry="6" />
<ellipse fill="#a0adc3" fill-opacity="0.776471" cx="34" cy="57" rx="29" ry="26" />
<ellipse fill="#4e412d" fill-opacity="0.713725" cx="220" cy="45" rx="24" ry="12" />
<ellipse fill="#bfb29f" fill-opacity="0.349020" cx="48" cy="103" rx="49" ry="4" />
<ellipse fill="#0c0500" fill-opacity="0.607843" cx="198" cy="18" rx="11" ry="5" />
<ellipse fill="#a3957d" fill-opacity="0.509804" cx="243" cy="58" rx="32" ry="9" />
<ellipse fill="#a1a9b8" fill-opacity="0.780392" cx="3" cy="114" rx="12" ry="26" />
<ellipse fill="#1b1509" fill-opacity="0.552941" cx="78" cy="70" rx="17" ry="6" />
<ellipse fill="#020000" fill-opacity="0.654902" cx="175" cy="78" rx="5" ry="4" />
<ellipse fill="#0a0400" fill-opacity="0.482353" cx="48" cy="111" rx="23" ry="4" />
<ellipse fill="#7a6c57" fill-opacity="0.858824" cx="184" cy="51" rx="6" ry="19" />
<ellipse fill="#8a7a61" fill-opacity="0.490196" cx="107" cy="134" rx="47" ry="6" />
<ellipse fill="#b3a691" fill-opacity="0.380392" cx="33" cy="120" rx="35" ry="4" />
<ellipse fill="#403524" fill-opacity="0.623529" cx="85" cy="124" rx="37" ry="4" />
<ellipse fill="#1b170f" fill-opacity="0.529412" cx="88" cy="94" rx="23" ry="6" />
<ellipse fill="#070600" fill-opacity="0.623529" cx="27" cy="133" rx="9" ry="5" />
<ellipse fill="#d0d7e6" fill-opacity="0.501961" cx="190" cy="34" rx="5" ry="9" />
<ellipse fill="#a7b9da" fill-opacity="0.407843" cx="78" cy="10" rx="43" ry="27" />
<ellipse fill="#687da5" fill-opacity="0.458824" cx="0" cy="0" rx="24" ry="34" />
<ellipse fill="#adb6ca" fill-opacity="0.494118" cx="20" cy="97" rx="31" ry="8" />
<ellipse fill="#7e6a4a" fill-opacity="0.513725" cx="169" cy="84" rx="53" ry="6" />
<ellipse fill="#dddee2" fill-opacity="0.396078" cx="113" cy="99" rx="4" ry="9" />
<ellipse fill="#adb9cc" fill-opacity="0.690196" cx="155" cy="50" rx="22" ry="26" />
<ellipse fill="#110f08" fill-opacity="0.435294" cx="169" cy="99" rx="42" ry="5" />
<ellipse fill="#acb4c0" fill-opacity="0.584314" cx="114" cy="76" rx="25" ry="5" />
<ellipse fill="#191004" fill-opacity="0.678431" cx="255" cy="139" rx="58" ry="7" />
<ellipse fill="#574834" fill-opacity="0.847059" cx="186" cy="132" rx="12" ry="5" />
<ellipse fill="#87775f" fill-opacity="0.517647" cx="213" cy="6" rx="20" ry="5" />
<ellipse fill="#685f4f" fill-opacity="0.627451" cx="82" cy="53" rx="5" ry="23" />
<ellipse fill="#b7aa8d" fill-opacity="0.282353" cx="146" cy="128" rx="37" ry="4" />
<ellipse fill="#96856b" fill-opacity="0.721569" cx="83" cy="100" rx="8" ry="3" />
<ellipse fill="#857357" fill-opacity="0.603922" cx="79" cy="55" rx="14" ry="9" />
<ellipse fill="#1c1104" fill-opacity="0.529412" cx="87" cy="142" rx="75" ry="2" />
<ellipse fill="#493d2c" fill-opacity="0.466667" cx="173" cy="94" rx="5" ry="29" />
<ellipse fill="#4f3d24" fill-opacity="0.549020" cx="142" cy="80" rx="4" ry="9" />
<ellipse fill="#897759" fill-opacity="0.525490" cx="43" cy="105" rx="18" ry="4" />
<ellipse fill="#1b160e" fill-opacity="0.729412" cx="202" cy="24" rx="10" ry="5" />
<ellipse fill="#0a0500" fill-opacity="0.462745" cx="255" cy="11" rx="29" ry="7" />
<ellipse fill="#b8b7b5" fill-opacity="0.443137" cx="194" cy="56" rx="2" ry="26" />
<ellipse fill="#756a58" fill-opacity="0.545098" cx="57" cy="79" rx="6" ry="9" />
<ellipse fill="#675741" fill-opacity="0.560784" cx="102" cy="113" rx="27" ry="10" />
<ellipse fill="#010301" fill-opacity="0.552941" cx="97" cy="97" rx="8" ry="6" />
<ellipse fill="#50442e" fill-opacity="0.486275" cx="32" cy="138" rx="27" ry="6" />
<ellipse fill="#e7fdff" fill-opacity="0.400000" cx="179" cy="90" rx="2" ry="6" />
<ellipse fill="#afbccf" fill-opacity="0.568627" cx="163" cy="24" rx="27" ry="15" />
<ellipse fill="#392e1d" fill-opacity="0.556863" cx="249" cy="109" rx="29" ry="7" />
<ellipse fill="#33220e" fill-opacity="0.317647" cx="218" cy="51" rx="19" ry="6" />
<ellipse fill="#dece98" fill-opacity="0.113725" cx="234" cy="98" rx="30" ry="5" />
<ellipse fill="#a2acbc" fill-opacity="0.537255" cx="5" cy="114" rx="24" ry="6" />
<ellipse fill="#a89779" fill-opacity="0.592157" cx="192" cy="78" rx="12" ry="5" />
<ellipse fill="#342a1b" fill-opacity="0.584314" cx="242" cy="31" rx="24" ry="16" />
<ellipse fill="#201c11" fill-opacity="0.545098" cx="64" cy="93" rx="15" ry="8" />
<ellipse fill="#aea290" fill-opacity="0.517647" cx="252" cy="52" rx="6" ry="6" />
<ellipse fill="#3c3223" fill-opacity="0.501961" cx="67" cy="126" rx="16" ry="4" />
<ellipse fill="#a08c6c" fill-opacity="0.396078" cx="230" cy="72" rx="14" ry="15" />
<ellipse fill="#3d3424" fill-opacity="0.580392" cx="161" cy="107" rx="46" ry="5" />
<ellipse fill="#151007" fill-opacity="0.611765" cx="95" cy="116" rx="11" ry="2" />
<ellipse fill="#70624c" fill-opacity="0.431373" cx="65" cy="119" rx="26" ry="7" />
<ellipse fill="#aabad4" fill-opacity="0.447059" cx="61" cy="54" rx="2" ry="25" />
<ellipse fill="#8c765b" fill-opacity="0.447059" cx="194" cy="12" rx="9" ry="4" />
<ellipse fill="#735e40" fill-opacity="0.556863" cx="126" cy="92" rx="12" ry="6" />
<ellipse fill="#301f0a" fill-opacity="0.152941" cx="211" cy="131" rx="65" ry="6" />
<ellipse fill="#adbacd" fill-opacity="0.929412" cx="168" cy="0" rx="29" ry="15" />
<ellipse fill="#3d3424" fill-opacity="0.470588" cx="98" cy="87" rx="4" ry="12" />
<ellipse fill="#83745e" fill-opacity="0.705882" cx="187" cy="54" rx="6" ry="21" />
<ellipse fill="#020915" fill-opacity="0.462745" cx="81" cy="40" rx="6" ry="4" />
<ellipse fill="#d4c2a0" fill-opacity="0.400000" cx="47" cy="129" rx="8" ry="3" />
<ellipse fill="#83755c" fill-opacity="0.521569" cx="242" cy="22" rx="9" ry="2" />
<ellipse fill="#96846a" fill-opacity="0.521569" cx="199" cy="123" rx="30" ry="3" />
<ellipse fill="#958365" fill-opacity="0.580392" cx="255" cy="118" rx="22" ry="3" />
<ellipse fill="#d4d6d8" fill-opacity="0.454902" cx="111" cy="87" rx="5" ry="7" />
<ellipse fill="#6c5e48" fill-opacity="0.650980" cx="232" cy="108" rx="24" ry="2" />
<ellipse fill="#413726" fill-opacity="0.501961" cx="91" cy="63" rx="4" ry="10" />
<ellipse fill="#695c49" fill-opacity="0.576471" cx="201" cy="46" rx="5" ry="19" />
<ellipse fill="#5c513b" fill-opacity="0.552941" cx="166" cy="117" rx="46" ry="5" />
<ellipse fill="#b5c1d6" fill-opacity="0.556863" cx="43" cy="98" rx="5" ry="7" />
<ellipse fill="#a8b5ca" fill-opacity="0.627451" cx="104" cy="26" rx="21" ry="25" />
<ellipse fill="#938061" fill-opacity="0.549020" cx="30" cy="123" rx="15" ry="5" />
<ellipse fill="#90a0b9" fill-opacity="0.545098" cx="13" cy="43" rx="15" ry="29" />
<ellipse fill="#000000" fill-opacity="0.466667" cx="250" cy="72" rx="7" ry="5" />
<ellipse fill="#30281b" fill-opacity="0.513725" cx="249" cy="92" rx="15" ry="8" />
<ellipse fill="#412c15" fill-opacity="0.341176" cx="108" cy="140" rx="6" ry="13" />
</g>
</svg>