<svg xmlns="http://www.w3.org/2000/svg" version="1.1" width="256" height="143">
<rect x="0" y="0" width="256" height="143" fill="#f0f0f0" />
<g transform="scale(1.000000) translate(0.5 0.5)">
<ellipse fill="#3f3019" fill-opacity="0.760784" cx="88" cy="142" rx="195" ry="99" />
<ellipse fill="#c1c4c9" fill-opacity="0.745098" cx="197" cy="46" rx="78" ry="48" />
<ellipse fill="#a9aeb7" fill-opacity="0.721569" cx="55" cy="17" rx="73" ry="52" />
<ellipse fill="#121904" fill-opacity="0.643137" cx="30" cy="89" rx="82" ry="18" />
<ellipse fill="#402815" fill-opacity="0.780392" cx="109" cy="49" rx="21" ry="12" />
<ellipse fill="#351b00" fill-opacity="0.443137" cx="145" cy="134" rx="247" ry="19" />
<ellipse fill="#0f1300" fill-opacity="0.545098" cx="164" cy="79" rx="5" ry="21" />
<ellipse fill="#9e3f00" fill-opacity="0.698039" cx="118" cy="83" rx="13" ry="24" />
<ellipse fill="#2a2613" fill-opacity="0.400000" cx="255" cy="106" rx="33" ry="27" />
<ellipse fill="#dee2ea" fill-opacity="0.525490" cx="137" cy="57" rx="7" ry="32" />
<ellipse fill="#d0d2d8" fill-opacity="0.564706" cx="212" cy="51" rx="30" ry="46" />
<ellipse fill="#b2b7bf" fill-opacity="0.552941" cx="75" cy="63" rx="31" ry="8" />
<ellipse fill="#c1c7ce" fill-opacity="0.807843" cx="43" cy="49" rx="23" ry="11" />
<ellipse fill="#ced1d7" fill-opacity="0.882353" cx="155" cy="9" rx="107" ry="29" />
<ellipse fill="#4d523c" fill-opacity="0.650980" cx="181" cy="97" rx="22" ry="10" />
<ellipse fill="#af9671" fill-opacity="0.525490" cx="222" cy="135" rx="48" ry="3" />
<ellipse fill="#000000" fill-opacity="0.529412" cx="70" cy="47" rx="5" ry="8" />
<ellipse fill="#110a00" fill-opacity="0.501961" cx="138" cy="97" rx="16" ry="7" />
<ellipse fill="#9e835e" fill-opacity="0.349020" cx="0" cy="137" rx="97" ry="6" />
<ellipse fill="#393d22" fill-opacity="0.380392" cx="170" cy="71" rx="16" ry="8" />
<ellipse fill="#d1d2d7" fill-opacity="0.772549" cx="161" cy="50" rx="30" ry="10" />
<ellipse fill="#a1a7b0" fill-opacity="0.670588" cx="2" cy="27" rx="13" ry="35" />
<ellipse fill="#2b1f0e" fill-opacity="0.364706" cx="158" cy="126" rx="73" ry="10" />
<ellipse fill="#85988e" fill-opacity="0.349020" cx="40" cy="67" rx="20" ry="11" />
<ellipse fill="#81694c" fill-opacity="0.682353" cx="103" cy="111" rx="90" ry="7" />
<ellipse fill="#273218" fill-opacity="0.501961" cx="13" cy="78" rx="11" ry="22" />
<ellipse fill="#18180a" fill-opacity="0.549020" cx="74" cy="100" rx="35" ry="5" />
<ellipse fill="#00190b" fill-opacity="0.215686" cx="243" cy="90" rx="23" ry="8" />
<ellipse fill="#715e46" fill-opacity="0.831373" cx="255" cy="106" rx="93" ry="7" />
<ellipse fill="#b1babb" fill-opacity="0.560784" cx="156" cy="87" rx="6" ry="6" />
<ellipse fill="#ccd1d6" fill-opacity="0.643137" cx="83" cy="44" rx="6" ry="18" />
<ellipse fill="#d0d1d5" fill-opacity="0.686275" cx="193" cy="60" rx="19" ry="12" />
<ellipse fill="#1c2609" fill-opacity="0.537255" cx="160" cy="100" rx="34" ry="3" />
<ellipse fill="#e36a00" fill-opacity="0.545098" cx="117" cy="91" rx="5" ry="16" />
<ellipse fill="#6a4235" fill-opacity="0.572549" cx="127" cy="90" rx="5" ry="28" />
<ellipse fill="#2f2d26" fill-opacity="0.392157" cx="57" cy="77" rx="10" ry="14" />
<ellipse fill="#4f5440" fill-opacity="0.427451" cx="83" cy="81" rx="8" ry="20" />
<ellipse fill="#c3c7c9" fill-opacity="0.505882" cx="218" cy="81" rx="6" ry="21" />
<ellipse fill="#141807" fill-opacity="0.529412" cx="1" cy="99" rx="40" ry="9" />
<ellipse fill="#d2d6dc" fill-opacity="0.501961" cx="141" cy="74" rx="12" ry="6" />
<ellipse fill="#bfc5cb" fill-opacity="0.564706" cx="40" cy="43" rx="6" ry="31" />
<ellipse fill="#3c4323" fill-opacity="0.564706" cx="32" cy="80" rx="5" ry="19" />
<ellipse fill="#b8b8bb" fill-opacity="0.427451" cx="248" cy="68" rx="21" ry="17" />
<ellipse fill="#1c0000" fill-opacity="0.529412" cx="76" cy="55" rx="2" ry="4" />
<ellipse fill="#442a19" fill-opacity="0.552941" cx="112" cy="55" rx="7" ry="20" />
<ellipse fill="#9a8360" fill-opacity="0.580392" cx="24" cy="134" rx="45" ry="2" />
<ellipse fill="#644f34" fill-opacity="0.705882" cx="74" cy="138" rx="118" ry="4" />
<ellipse fill="#bbbec5" fill-opacity="0.486275" cx="72" cy="61" rx="35" ry="4" />
<ellipse fill="#140c14" fill-opacity="0.478431" cx="71" cy="87" rx="11" ry="15" />
<ellipse fill="#382712" fill-opacity="0.564706" cx="248" cy="139" rx="21" ry="4" />
<ellipse fill="#8f938f" fill-opacity="0.709804" cx="228" cy="87" rx="7" ry="5" />
<ellipse fill="#7d837d" fill-opacity="0.713725" cx="177" cy="94" rx="11" ry="3" />
<ellipse fill="#b7bcc5" fill-opacity="0.741176" cx="23" cy="30" rx="15" ry="29" />
<ellipse fill="#34220c" fill-opacity="0.317647" cx="48" cy="124" rx="53" ry="7" />
<ellipse fill="#533b2b" fill-opacity="0.643137" cx="129" cy="48" rx="2" ry="6" />
<ellipse fill="#c4c5c9" fill-opacity="0.701961" cx="255" cy="19" rx="16" ry="67" />
<ellipse fill="#ced0d4" fill-opacity="0.741176" cx="147" cy="49" rx="16" ry="16" />
<ellipse fill="#c9af85" fill-opacity="0.384314" cx="209" cy="135" rx="27" ry="2" />
<ellipse fill="#b94a00" fill-opacity="0.549020" cx="112" cy="97" rx="6" ry="9" />
<ellipse fill="#434a2c" fill-opacity="0.486275" cx="92" cy="89" rx="15" ry="17" />
<ellipse fill="#4f462d" fill-opacity="0.427451" cx="192" cy="104" rx="6" ry="20" />
<ellipse fill="#373b25" fill-opacity="0.494118" cx="9" cy="77" rx="3" ry="29" />
<ellipse fill="#a8a69d" fill-opacity="0.572549" cx="168" cy="80" rx="2" ry="7" />
<ellipse fill="#987f57" fill-opacity="0.529412" cx="2" cy="135" rx="6" ry="8" />
<ellipse fill="#595e4d" fill-opacity="0.466667" cx="212" cy="99" rx="5" ry="8" />
<ellipse fill="#848b81" fill-opacity="0.615686" cx="150" cy="83" rx="8" ry="5" />
<ellipse fill="#a65e26" fill-opacity="0.635294" cx="125" cy="67" rx="6" ry="5" />
<ellipse fill="#612b07" fill-opacity="0.588235" cx="112" cy="71" rx="9" ry="7" />
<ellipse fill="#c5a574" fill-opacity="0.427451" cx="181" cy="137" rx="11" ry="2" />
<ellipse fill="#0b160b" fill-opacity="0.498039" cx="241" cy="96" rx="16" ry="3" />
<ellipse fill="#c6ccd2" fill-opacity="0.478431" cx="85" cy="20" rx="20" ry="25" />
<ellipse fill="#24130c" fill-opacity="0.517647" cx="69" cy="50" rx="3" ry="7" />
<ellipse fill="#796549" fill-opacity="0.494118" cx="120" cy="112" rx="66" ry="7" />
<ellipse fill="#352617" fill-opacity="0.223529" cx="202" cy="123" rx="69" ry="11" />
<ellipse fill="#d5d6d8" fill-opacity="0.623529" cx="102" cy="64" rx="3" ry="4" />
<ellipse fill="#272615" fill-opacity="0.419608" cx="163" cy="77" rx="2" ry="22" />
<ellipse fill="#cdcfd2" fill-opacity="0.329412" cx="203" cy="64" rx="13" ry="33" />
<ellipse fill="#f6fcff" fill-opacity="0.266667" cx="70" cy="65" rx="5" ry="8" />
<ellipse fill="#483e33" fill-opacity="0.498039" cx="105" cy="41" rx="8" ry="5" />
<ellipse fill="#51584a" fill-opacity="0.572549" cx="179" cy="90" rx="2" ry="8" />
<ellipse fill="#7f6d76" fill-opacity="0.482353" cx="129" cy="84" rx="6" ry="5" />
<ellipse fill="#cbcfd4" fill-opacity="0.443137" cx="137" cy="36" rx="21" ry="8" />
<ellipse fill="#3a3e2a" fill-opacity="0.972549" cx="0" cy="72" rx="13" ry="8" />
<ellipse fill="#d1d2d8" fill-opacity="0.494118" cx="193" cy="68" rx="22" ry="2" />
<ellipse fill="#b8bec5" fill-opacity="0.415686" cx="24" cy="40" rx="5" ry="30" />
<ellipse fill="#2d2e1f" fill-opacity="0.482353" cx="159" cy="73" rx="3" ry="5" />
<ellipse fill="#aab0ab" fill-opacity="0.407843" cx="89" cy="67" rx="2" ry="17" />
<ellipse fill="#503e28" fill-opacity="0.674510" cx="72" cy="140" rx="27" ry="5" />
<ellipse fill="#3b3c29" fill-opacity="0.458824" cx="237" cy="93" rx="2" ry="18" />
<ellipse fill="#47512a" fill-opacity="0.482353" cx="48" cy="82" rx="11" ry="9" />
<ellipse fill="#c3c9cf" fill-opacity="0.556863" cx="65" cy="18" rx="25" ry="23" />
<ellipse fill="#a8aba4" fill-opacity="0.505882" cx="37" cy="74" rx="3" ry="3" />
<ellipse fill="#520c04" fill-opacity="0.486275" cx="128" cy="94" rx="7" ry="6" />
<ellipse fill="#7f838e" fill-opacity="0.705882" cx="57" cy="64" rx="5" ry="6" />
<ellipse fill="#293c28" fill-opacity="0.521569" cx="142" cy="90" rx="5" ry="5" />
<ellipse fill="#b8ab7f" fill-opacity="0.529412" cx="11" cy="108" rx="20" ry="1" />
<ellipse fill="#767968" fill-opacity="0.623529" cx="154" cy="67" rx="6" ry="2" />
<ellipse fill="#545a3e" fill-opacity="0.501961" cx="165" cy="60" rx="4" ry="3" />
<ellipse fill="#171d1c" fill-opacity="0.443137" cx="127" cy="78" rx="3" ry="6" />
<ellipse fill="#9c8c71" fill-opacity="0.729412" cx="83" cy="106" rx="30" ry="1" />
</g>
</svg>