<svg xmlns="http://www.w3.org/2000/svg" version="1.1" width="256" height="143">
<rect x="0" y="0" width="256" height="143" fill="#f0f0f0" />
<g transform="scale(1.000000) translate(0.5 0.5)">
<ellipse fill="#5c4f3a" fill-opacity="0.917647" cx="156" cy="95" rx="203" ry="106" />
<ellipse fill="#b3b9bc" fill-opacity="0.901961" cx="35" cy="2" rx="174" ry="19" />
<ellipse fill="#2e2419" fill-opacity="0.552941" cx="41" cy="85" rx="73" ry="48" />
<ellipse fill="#382c1d" fill-opacity="0.921569" cx="112" cy="121" rx="54" ry="16" />
<ellipse fill="#ffecca" fill-opacity="0.470588" cx="31" cy="141" rx="97" ry="9" />
<ellipse fill="#e4b680" fill-opacity="0.474510" cx="225" cy="70" rx="50" ry="9" />
<ellipse fill="#4c3d2c" fill-opacity="0.756863" cx="163" cy="48" rx="80" ry="13" />
<ellipse fill="#b49d7f" fill-opacity="0.545098" cx="51" cy="101" rx="20" ry="6" />
<ellipse fill="#987041" fill-opacity="0.458824" cx="189" cy="122" rx="38" ry="39" />
<ellipse fill="#c6b79b" fill-opacity="0.564706" cx="128" cy="63" rx="12" ry="8" />
<ellipse fill="#6e6f5c" fill-opacity="0.494118" cx="66" cy="26" rx="16" ry="25" />
<ellipse fill="#d7e0e6" fill-opacity="0.400000" cx="170" cy="7" rx="32" ry="10" />
<ellipse fill="#554e40" fill-opacity="0.611765" cx="7" cy="41" rx="36" ry="21" />
<ellipse fill="#ffeac1" fill-opacity="0.270588" cx="113" cy="98" rx="9" ry="11" />
<ellipse fill="#c6ac89" fill-opacity="0.439216" cx="33" cy="115" rx="7" ry="12" />
<ellipse fill="#e9cea0" fill-opacity="0.478431" cx="151" cy="142" rx="50" ry="3" />
<ellipse fill="#201d15" fill-opacity="0.560784" cx="9" cy="99" rx="20" ry="31" />
<ellipse fill="#4e3e2c" fill-opacity="0.858824" cx="171" cy="59" rx="29" ry="10" />
<ellipse fill="#717d7f" fill-opacity="0.670588" cx="239" cy="3" rx="42" ry="4" />
<ellipse fill="#241405" fill-opacity="0.274510" cx="140" cy="78" rx="17" ry="16" />
<ellipse fill="#8a7556" fill-opacity="0.870588" cx="232" cy="95" rx="66" ry="9" />
<ellipse fill="#31210c" fill-opacity="0.403922" cx="200" cy="81" rx="93" ry="4" />
<ellipse fill="#263e31" fill-opacity="0.474510" cx="255" cy="15" rx="74" ry="6" />
<ellipse fill="#be9b70" fill-opacity="0.658824" cx="186" cy="74" rx="31" ry="4" />
<ellipse fill="#ac8d66" fill-opacity="0.874510" cx="240" cy="65" rx="18" ry="11" />
<ellipse fill="#140e08" fill-opacity="0.533333" cx="135" cy="126" rx="19" ry="14" />
<ellipse fill="#817f66" fill-opacity="0.447059" cx="105" cy="28" rx="32" ry="12" />
<ellipse fill="#715332" fill-opacity="0.643137" cx="231" cy="120" rx="81" ry="15" />
<ellipse fill="#977c55" fill-opacity="0.600000" cx="251" cy="54" rx="11" ry="30" />
<ellipse fill="#cab180" fill-opacity="0.494118" cx="193" cy="134" rx="22" ry="3" />
<ellipse fill="#d2c6b0" fill-opacity="0.584314" cx="56" cy="135" rx="16" ry="4" />
<ellipse fill="#060000" fill-opacity="0.286275" cx="46" cy="126" rx="37" ry="6" />
<ellipse fill="#2e261e" fill-opacity="0.470588" cx="226" cy="43" rx="15" ry="14" />
<ellipse fill="#7e764e" fill-opacity="0.490196" cx="190" cy="34" rx="11" ry="24" />
<ellipse fill="#6e746c" fill-opacity="0.494118" cx="124" cy="6" rx="10" ry="7" />
<ellipse fill="#ab9679" fill-opacity="0.898039" cx="0" cy="139" rx="31" ry="10" />
<ellipse fill="#feffff" fill-opacity="0.262745" cx="89" cy="13" rx="20" ry="6" />
<ellipse fill="#554734" fill-opacity="0.611765" cx="60" cy="50" rx="75" ry="13" />
<ellipse fill="#393225" fill-opacity="0.584314" cx="27" cy="78" rx="26" ry="24" />
<ellipse fill="#492c0e" fill-opacity="0.556863" cx="215" cy="132" rx="17" ry="3" />
<ellipse fill="#babec5" fill-opacity="0.556863" cx="20" cy="4" rx="7" ry="22" />
<ellipse fill="#dab87d" fill-opacity="0.501961" cx="226" cy="138" rx="17" ry="2" />
<ellipse fill="#c5cbd3" fill-opacity="0.580392" cx="175" cy="9" rx="7" ry="11" />
<ellipse fill="#cbb796" fill-opacity="0.537255" cx="163" cy="121" rx="12" ry="2" />
<ellipse fill="#261a0b" fill-opacity="0.552941" cx="137" cy="136" rx="35" ry="2" />
<ellipse fill="#a38a66" fill-opacity="0.721569" cx="234" cy="113" rx="27" ry="2" />
<ellipse fill="#99876b" fill-opacity="0.443137" cx="126" cy="73" rx="12" ry="8" />
<ellipse fill="#aea575" fill-opacity="0.337255" cx="199" cy="28" rx="45" ry="3" />
<ellipse fill="#473118" fill-opacity="0.494118" cx="170" cy="128" rx="42" ry="3" />
<ellipse fill="#c2a069" fill-opacity="0.623529" cx="245" cy="140" rx="17" ry="2" />
<ellipse fill="#23180a" fill-opacity="0.568627" cx="94" cy="133" rx="13" ry="3" />
<ellipse fill="#f1dcac" fill-opacity="0.466667" cx="164" cy="132" rx="12" ry="2" />
<ellipse fill="#16120a" fill-opacity="0.478431" cx="4" cy="44" rx="10" ry="8" />
<ellipse fill="#3b3023" fill-opacity="0.521569" cx="146" cy="109" rx="7" ry="32" />
<ellipse fill="#8d7d5c" fill-opacity="0.690196" cx="60" cy="36" rx="7" ry="9" />
<ellipse fill="#ad9678" fill-opacity="0.384314" cx="111" cy="128" rx="4" ry="8" />
<ellipse fill="#474e3f" fill-opacity="0.505882" cx="105" cy="7" rx="9" ry="2" />
<ellipse fill="#b29d81" fill-opacity="0.470588" cx="38" cy="106" rx="7" ry="7" />
<ellipse fill="#28312d" fill-opacity="0.419608" cx="64" cy="8" rx="9" ry="3" />
<ellipse fill="#33200b" fill-opacity="0.294118" cx="175" cy="115" rx="46" ry="4" />
<ellipse fill="#af9b7d" fill-opacity="0.392157" cx="125" cy="104" rx="15" ry="4" />
<ellipse fill="#462b0b" fill-opacity="0.607843" cx="255" cy="135" rx="25" ry="4" />
<ellipse fill="#dadde4" fill-opacity="0.501961" cx="85" cy="3" rx="11" ry="9" />
<ellipse fill="#c0a47c" fill-opacity="0.517647" cx="196" cy="124" rx="17" ry="2" />
<ellipse fill="#89775b" fill-opacity="0.494118" cx="31" cy="45" rx="11" ry="6" />
<ellipse fill="#ab9070" fill-opacity="0.458824" cx="157" cy="33" rx="36" ry="2" />
<ellipse fill="#3c2f20" fill-opacity="0.443137" cx="78" cy="117" rx="34" ry="17" />
<ellipse fill="#9a8362" fill-opacity="0.521569" cx="164" cy="86" rx="19" ry="3" />
<ellipse fill="#4a3f31" fill-opacity="0.627451" cx="106" cy="69" rx="9" ry="25" />
<ellipse fill="#a7acb2" fill-opacity="0.670588" cx="243" cy="0" rx="8" ry="6" />
<ellipse fill="#4d4131" fill-opacity="0.784314" cx="118" cy="44" rx="5" ry="18" />
<ellipse fill="#938561" fill-opacity="0.552941" cx="70" cy="32" rx="27" ry="5" />
<ellipse fill="#22281b" fill-opacity="0.533333" cx="252" cy="14" rx="7" ry="10" />
<ellipse fill="#4b5f53" fill-opacity="0.407843" cx="97" cy="23" rx="76" ry="5" />
<ellipse fill="#4c3b2b" fill-opacity="0.501961" cx="204" cy="47" rx="12" ry="18" />
<ellipse fill="#b49566" fill-opacity="0.541176" cx="240" cy="128" rx="16" ry="2" />
<ellipse fill="#cbced6" fill-opacity="0.529412" cx="39" cy="2" rx="15" ry="18" />
<ellipse fill="#ab9876" fill-opacity="0.494118" cx="196" cy="110" rx="23" ry="2" />
<ellipse fill="#c3b69c" fill-opacity="0.494118" cx="130" cy="61" rx="12" ry="5" />
<ellipse fill="#ceae8b" fill-opacity="0.376471" cx="128" cy="28" rx="6" ry="6" />
<ellipse fill="#090904" fill-opacity="0.627451" cx="16" cy="122" rx="7" ry="9" />
<ellipse fill="#d1c3a9" fill-opacity="0.454902" cx="112" cy="142" rx="35" ry="4" />
<ellipse fill="#4d3f2f" fill-opacity="0.564706" cx="99" cy="54" rx="6" ry="29" />
<ellipse fill="#c9b08b" fill-opacity="0.513725" cx="164" cy="75" rx="16" ry="2" />
<ellipse fill="#937f69" fill-opacity="0.635294" cx="48" cy="140" rx="14" ry="4" />
<ellipse fill="#45544f" fill-opacity="0.427451" cx="218" cy="6" rx="20" ry="4" />
<ellipse fill="#2f2311" fill-opacity="0.380392" cx="228" cy="83" rx="48" ry="3" />
<ellipse fill="#b7a88f" fill-opacity="0.439216" cx="43" cy="61" rx="7" ry="2" />
<ellipse fill="#776953" fill-opacity="0.545098" cx="69" cy="51" rx="36" ry="2" />
<ellipse fill="#7f827d" fill-opacity="0.329412" cx="244" cy="76" rx="41" ry="6" />
<ellipse fill="#441e00" fill-opacity="0.250980" cx="201" cy="142" rx="27" ry="4" />
<ellipse fill="#36210f" fill-opacity="0.462745" cx="156" cy="69" rx="11" ry="5" />
<ellipse fill="#232b2b" fill-opacity="0.619608" cx="5" cy="26" rx="9" ry="3" />
<ellipse fill="#505e50" fill-opacity="0.419608" cx="143" cy="20" rx="28" ry="5" />
<ellipse fill="#abaeb5" fill-opacity="0.407843" cx="11" cy="11" rx="19" ry="13" />
<ellipse fill="#d7cab2" fill-opacity="0.533333" cx="83" cy="138" rx="18" ry="3" />
<ellipse fill="#a9ac96" fill-opacity="0.552941" cx="220" cy="25" rx="4" ry="5" />
<ellipse fill="#29251e" fill-opacity="0.494118" cx="103" cy="82" rx="40" ry="3" />
<ellipse fill="#050200" fill-opacity="0.458824" cx="125" cy="120" rx="9" ry="12" />
<ellipse fill="#1a0d07" fill-opacity="0.333333" cx="74" cy="40" rx="6" ry="7" />
</g>
</svg>