<svg xmlns="http://www.w3.org/2000/svg" version="1.1" width="256" height="143">
<rect x="0" y="0" width="256" height="143" fill="#f0f0f0" />
<g transform="scale(1.000000) translate(0.5 0.5)">
<ellipse fill="#241e04" fill-opacity="0.541176" cx="64" cy="92" rx="255" ry="82" />
<ellipse fill="#f7f0dc" fill-opacity="0.537255" cx="109" cy="53" rx="60" ry="50" />
<ellipse fill="#040c15" fill-opacity="0.568627" cx="248" cy="131" rx="82" ry="69" />
<ellipse fill="#3f5a46" fill-opacity="0.709804" cx="36" cy="25" rx="36" ry="25" />
<ellipse fill="#51483c" fill-opacity="0.682353" cx="245" cy="50" rx="29" ry="26" />
<ellipse fill="#e2f3fe" fill-opacity="0.921569" cx="111" cy="17" rx="44" ry="15" />
<ellipse fill="#081217" fill-opacity="0.529412" cx="29" cy="83" rx="23" ry="16" />
<ellipse fill="#b7b4a3" fill-opacity="0.603922" cx="44" cy="48" rx="12" ry="26" />
<ellipse fill="#b7a181" fill-opacity="0.580392" cx="130" cy="93" rx="42" ry="29" />
<ellipse fill="#1d252d" fill-opacity="0.435294" cx="177" cy="139" rx="90" ry="9" />
<ellipse fill="#c9e6f8" fill-opacity="0.623529" cx="216" cy="7" rx="53" ry="22" />
<ellipse fill="#39534d" fill-opacity="0.780392" cx="167" cy="29" rx="24" ry="5" />
<ellipse fill="#251c14" fill-opacity="0.415686" cx="0" cy="142" rx="32" ry="19" />
<ellipse fill="#dbcdb3" fill-opacity="0.709804" cx="157" cy="42" rx="35" ry="8" />
<ellipse fill="#a2c5e8" fill-opacity="0.898039" cx="0" cy="0" rx="24" ry="15" />
<ellipse fill="#0d1e08" fill-opacity="0.505882" cx="18" cy="26" rx="23" ry="9" />
<ellipse fill="#070c0b" fill-opacity="0.756863" cx="254" cy="123" rx="29" ry="11" />
<ellipse fill="#947f67" fill-opacity="0.419608" cx="181" cy="69" rx="39" ry="23" />
<ellipse fill="#3f553c" fill-opacity="0.537255" cx="66" cy="31" rx="14" ry="9" />
<ellipse fill="#bba68b" fill-opacity="0.564706" cx="65" cy="122" rx="22" ry="15" />
<ellipse fill="#0e1e21" fill-opacity="0.439216" cx="5" cy="64" rx="7" ry="19" />
<ellipse fill="#2e4121" fill-opacity="0.549020" cx="37" cy="14" rx="27" ry="9" />
<ellipse fill="#3d4349" fill-opacity="0.537255" cx="187" cy="134" rx="40" ry="30" />
<ellipse fill="#cfbea2" fill-opacity="0.596078" cx="85" cy="74" rx="36" ry="26" />
<ellipse fill="#133120" fill-opacity="0.501961" cx="196" cy="33" rx="18" ry="4" />
<ellipse fill="#53492a" fill-opacity="0.443137" cx="74" cy="102" rx="27" ry="5" />
<ellipse fill="#776a59" fill-opacity="0.666667" cx="210" cy="55" rx="16" ry="23" />
<ellipse fill="#4d6456" fill-opacity="0.780392" cx="165" cy="26" rx="15" ry="8" />
<ellipse fill="#a49276" fill-opacity="0.564706" cx="121" cy="111" rx="30" ry="22" />
<ellipse fill="#242e2e" fill-opacity="0.564706" cx="43" cy="92" rx="9" ry="12" />
<ellipse fill="#261f16" fill-opacity="0.490196" cx="90" cy="125" rx="3" ry="11" />
<ellipse fill="#e5f6f8" fill-opacity="0.482353" cx="181" cy="15" rx="8" ry="13" />
<ellipse fill="#917c60" fill-opacity="0.521569" cx="9" cy="110" rx="37" ry="19" />
<ellipse fill="#c8ecff" fill-opacity="0.368627" cx="42" cy="38" rx="25" ry="2" />
<ellipse fill="#2a392a" fill-opacity="0.498039" cx="10" cy="49" rx="10" ry="5" />
<ellipse fill="#ddeef9" fill-opacity="0.623529" cx="217" cy="1" rx="13" ry="31" />
<ellipse fill="#bfac8d" fill-opacity="0.521569" cx="36" cy="56" rx="30" ry="5" />
<ellipse fill="#22292b" fill-opacity="0.396078" cx="26" cy="78" rx="10" ry="19" />
<ellipse fill="#7b6f5c" fill-opacity="0.627451" cx="236" cy="37" rx="20" ry="11" />
<ellipse fill="#dcd1b8" fill-opacity="0.576471" cx="117" cy="37" rx="38" ry="8" />
<ellipse fill="#a7987d" fill-opacity="0.388235" cx="154" cy="89" rx="35" ry="17" />
<ellipse fill="#91b9c7" fill-opacity="0.580392" cx="44" cy="1" rx="22" ry="2" />
<ellipse fill="#cab99a" fill-opacity="0.439216" cx="72" cy="93" rx="19" ry="8" />
<ellipse fill="#dff4ff" fill-opacity="0.470588" cx="135" cy="7" rx="24" ry="24" />
<ellipse fill="#172533" fill-opacity="0.435294" cx="237" cy="68" rx="12" ry="13" />
<ellipse fill="#3a4b2c" fill-opacity="0.447059" cx="38" cy="10" rx="4" ry="30" />
<ellipse fill="#8c8d64" fill-opacity="0.588235" cx="70" cy="40" rx="13" ry="4" />
<ellipse fill="#a3cbf3" fill-opacity="0.560784" cx="1" cy="3" rx="7" ry="17" />
<ellipse fill="#6a5d4c" fill-opacity="0.482353" cx="236" cy="102" rx="15" ry="10" />
<ellipse fill="#00091e" fill-opacity="0.505882" cx="51" cy="34" rx="4" ry="3" />
<ellipse fill="#cdbd9a" fill-opacity="0.470588" cx="35" cy="105" rx="19" ry="3" />
<ellipse fill="#16212b" fill-opacity="0.470588" cx="221" cy="83" rx="17" ry="8" />
<ellipse fill="#d5edfa" fill-opacity="0.772549" cx="86" cy="0" rx="29" ry="15" />
<ellipse fill="#b0cae9" fill-opacity="0.478431" cx="250" cy="10" rx="15" ry="16" />
<ellipse fill="#45494d" fill-opacity="0.411765" cx="30" cy="142" rx="27" ry="11" />
<ellipse fill="#d6f0ff" fill-opacity="0.305882" cx="39" cy="36" rx="10" ry="5" />
<ellipse fill="#c4b59e" fill-opacity="0.619608" cx="137" cy="53" rx="24" ry="15" />
<ellipse fill="#547157" fill-opacity="0.694118" cx="193" cy="28" rx="16" ry="2" />
<ellipse fill="#08211e" fill-opacity="0.454902" cx="0" cy="33" rx="11" ry="6" />
<ellipse fill="#89d1e1" fill-opacity="0.266667" cx="2" cy="43" rx="14" ry="6" />
<ellipse fill="#c8f0ff" fill-opacity="0.603922" cx="45" cy="28" rx="4" ry="5" />
<ellipse fill="#cfeeff" fill-opacity="0.482353" cx="20" cy="4" rx="3" ry="7" />
<ellipse fill="#bca98f" fill-opacity="0.631373" cx="78" cy="131" rx="11" ry="6" />
<ellipse fill="#000000" fill-opacity="0.619608" cx="252" cy="132" rx="6" ry="9" />
<ellipse fill="#6e665d" fill-opacity="0.549020" cx="111" cy="133" rx="19" ry="8" />
<ellipse fill="#62656d" fill-opacity="0.388235" cx="49" cy="79" rx="7" ry="11" />
<ellipse fill="#c6af85" fill-opacity="0.478431" cx="98" cy="116" rx="7" ry="14" />
<ellipse fill="#6c5d49" fill-opacity="0.462745" cx="5" cy="123" rx="21" ry="14" />
<ellipse fill="#d6c4a0" fill-opacity="0.454902" cx="15" cy="60" rx="6" ry="6" />
<ellipse fill="#c1b39b" fill-opacity="0.749020" cx="54" cy="56" rx="10" ry="14" />
<ellipse fill="#cdbfa5" fill-opacity="0.619608" cx="98" cy="67" rx="31" ry="26" />
<ellipse fill="#dcd4c0" fill-opacity="0.431373" cx="163" cy="42" rx="9" ry="11" />
<ellipse fill="#1c2c2e" fill-opacity="0.478431" cx="177" cy="32" rx="10" ry="4" />
<ellipse fill="#51483b" fill-opacity="0.392157" cx="252" cy="58" rx="9" ry="34" />
<ellipse fill="#5f601a" fill-opacity="0.435294" cx="39" cy="43" rx="3" ry="7" />
<ellipse fill="#7c8f71" fill-opacity="0.388235" cx="66" cy="26" rx="4" ry="18" />
<ellipse fill="#e6d9c0" fill-opacity="0.423529" cx="172" cy="39" rx="34" ry="2" />
<ellipse fill="#6b5f53" fill-opacity="0.349020" cx="152" cy="121" rx="6" ry="28" />
<ellipse fill="#e2f2fc" fill-opacity="0.513725" cx="154" cy="5" rx="62" ry="13" />
<ellipse fill="#847866" fill-opacity="0.494118" cx="192" cy="64" rx="15" ry="23" />
<ellipse fill="#b4a791" fill-opacity="0.450980" cx="166" cy="49" rx="30" ry="4" />
<ellipse fill="#38341a" fill-opacity="0.431373" cx="10" cy="49" rx="5" ry="7" />
<ellipse fill="#444a4f" fill-opacity="0.580392" cx="176" cy="122" rx="19" ry="13" />
<ellipse fill="#aac9dc" fill-opacity="0.984314" cx="31" cy="0" rx="3" ry="6" />
<ellipse fill="#877764" fill-opacity="0.635294" cx="136" cy="126" rx="11" ry="10" />
<ellipse fill="#415743" fill-opacity="0.462745" cx="163" cy="25" rx="14" ry="7" />
<ellipse fill="#978466" fill-opacity="0.321569" cx="7" cy="96" rx="19" ry="13" />
<ellipse fill="#525356" fill-opacity="0.286275" cx="30" cy="67" rx="14" ry="10" />
<ellipse fill="#1e2526" fill-opacity="0.501961" cx="94" cy="142" rx="4" ry="11" />
<ellipse fill="#a08f7a" fill-opacity="0.623529" cx="51" cy="117" rx="19" ry="13" />
<ellipse fill="#4b5c35" fill-opacity="0.423529" cx="46" cy="12" rx="17" ry="11" />
<ellipse fill="#2b302d" fill-opacity="0.788235" cx="228" cy="141" rx="11" ry="16" />
<ellipse fill="#071b2d" fill-opacity="0.447059" cx="35" cy="9" rx="11" ry="3" />
<ellipse fill="#716757" fill-opacity="0.541176" cx="84" cy="98" rx="4" ry="6" />
<ellipse fill="#dcf0fb" fill-opacity="0.650980" cx="80" cy="9" rx="3" ry="23" />
<ellipse fill="#dcf7ff" fill-opacity="0.541176" cx="178" cy="25" rx="2" ry="4" />
<ellipse fill="#4a640e" fill-opacity="0.360784" cx="74" cy="29" rx="3" ry="7" />
<ellipse fill="#a39988" fill-opacity="0.501961" cx="228" cy="33" rx="4" ry="5" />
<ellipse fill="#384329" fill-opacity="0.560784" cx="24" cy="44" rx="9" ry="4" />
<ellipse fill="#5b5c34" fill-opacity="0.439216" cx="81" cy="105" rx="10" ry="6" />
</g>
</svg>