<svg xmlns="http://www.w3.org/2000/svg" version="1.1" width="256" height="143">
<rect x="0" y="0" width="256" height="143" fill="#f0f0f0" />
<g transform="scale(1.000000) translate(0.5 0.5)">
<ellipse fill="#12130f" fill-opacity="0.909804" cx="113" cy="97" rx="198" ry="140" />
<ellipse fill="#6a665d" fill-opacity="0.588235" cx="82" cy="114" rx="31" ry="71" />
<ellipse fill="#000200" fill-opacity="0.701961" cx="23" cy="95" rx="30" ry="142" />
<ellipse fill="#75726c" fill-opacity="0.505882" cx="152" cy="134" rx="11" ry="68" />
<ellipse fill="#8392a1" fill-opacity="0.231373" cx="219" cy="139" rx="86" ry="19" />
<ellipse fill="#becbcd" fill-opacity="0.176471" cx="58" cy="88" rx="7" ry="124" />
<ellipse fill="#070b06" fill-opacity="0.482353" cx="240" cy="51" rx="40" ry="54" />
<ellipse fill="#000200" fill-opacity="0.466667" cx="126" cy="73" rx="15" ry="126" />
<ellipse fill="#383831" fill-opacity="0.588235" cx="91" cy="35" rx="21" ry="62" />
<ellipse fill="#6a6964" fill-opacity="0.301961" cx="192" cy="120" rx="10" ry="56" />
<ellipse fill="#000100" fill-opacity="0.545098" cx="209" cy="84" rx="8" ry="46" />
<ellipse fill="#11110a" fill-opacity="0.678431" cx="169" cy="42" rx="7" ry="93" />
<ellipse fill="#000200" fill-opacity="0.792157" cx="11" cy="49" rx="13" ry="141" />
<ellipse fill="#1a1d17" fill-opacity="0.564706" cx="38" cy="112" rx="15" ry="86" />
<ellipse fill="#c9d3e1" fill-opacity="0.078431" cx="224" cy="86" rx="7" ry="50" />
<ellipse fill="#595a52" fill-opacity="0.317647" cx="148" cy="76" rx="6" ry="57" />
<ellipse fill="#868786" fill-opacity="0.207843" cx="126" cy="142" rx="45" ry="10" />
<ellipse fill="#242119" fill-opacity="0.388235" cx="160" cy="107" rx="10" ry="26" />
<ellipse fill="#aebcc4" fill-opacity="0.298039" cx="199" cy="142" rx="8" ry="8" />
<ellipse fill="#252119" fill-opacity="0.584314" cx="77" cy="128" rx="4" ry="17" />
<ellipse fill="#070802" fill-opacity="0.568627" cx="255" cy="28" rx="13" ry="44" />
<ellipse fill="#7b7669" fill-opacity="0.490196" cx="99" cy="136" rx="5" ry="25" />
<ellipse fill="#313c45" fill-opacity="0.411765" cx="246" cy="112" rx="7" ry="29" />
<ellipse fill="#1c1d18" fill-opacity="0.501961" cx="105" cy="66" rx="2" ry="61" />
<ellipse fill="#1d1b17" fill-opacity="0.490196" cx="87" cy="128" rx="2" ry="28" />
<ellipse fill="#565a56" fill-opacity="0.713725" cx="58" cy="69" rx="7" ry="19" />
<ellipse fill="#6f6e68" fill-opacity="0.596078" cx="64" cy="127" rx="5" ry="25" />
<ellipse fill="#111618" fill-opacity="0.592157" cx="232" cy="142" rx="10" ry="7" />
<ellipse fill="#000000" fill-opacity="0.454902" cx="116" cy="79" rx="4" ry="65" />
<ellipse fill="#23221b" fill-opacity="0.494118" cx="178" cy="77" rx="6" ry="142" />
<ellipse fill="#727069" fill-opacity="0.270588" cx="185" cy="81" rx="2" ry="52" />
<ellipse fill="#292a23" fill-opacity="0.411765" cx="67" cy="24" rx="7" ry="48" />
<ellipse fill="#2c2f2e" fill-opacity="0.858824" cx="195" cy="121" rx="5" ry="9" />
<ellipse fill="#676660" fill-opacity="0.682353" cx="147" cy="139" rx="4" ry="50" />
<ellipse fill="#141610" fill-opacity="0.647059" cx="142" cy="93" rx="1" ry="46" />
<ellipse fill="#878e91" fill-opacity="0.396078" cx="209" cy="133" rx="6" ry="4" />
<ellipse fill="#1e1d15" fill-opacity="0.541176" cx="86" cy="35" rx="5" ry="21" />
<ellipse fill="#56544d" fill-opacity="0.537255" cx="157" cy="115" rx="2" ry="59" />
<ellipse fill="#686154" fill-opacity="0.505882" cx="77" cy="81" rx="5" ry="16" />
<ellipse fill="#323430" fill-opacity="0.607843" cx="151" cy="5" rx="5" ry="83" />
<ellipse fill="#424139" fill-opacity="0.635294" cx="109" cy="66" rx="3" ry="34" />
<ellipse fill="#0b0d05" fill-opacity="0.498039" cx="132" cy="18" rx="16" ry="12" />
<ellipse fill="#16160e" fill-opacity="0.772549" cx="48" cy="0" rx="4" ry="117" />
<ellipse fill="#1d201b" fill-opacity="0.650980" cx="228" cy="18" rx="13" ry="49" />
<ellipse fill="#aeb1b2" fill-opacity="0.443137" cx="165" cy="142" rx="3" ry="5" />
<ellipse fill="#12150d" fill-opacity="0.462745" cx="173" cy="0" rx="16" ry="35" />
<ellipse fill="#404341" fill-opacity="0.560784" cx="99" cy="40" rx="4" ry="35" />
<ellipse fill="#454d56" fill-opacity="0.450980" cx="236" cy="120" rx="13" ry="7" />
<ellipse fill="#7c7667" fill-opacity="0.384314" cx="83" cy="120" rx="2" ry="28" />
<ellipse fill="#171d1e" fill-opacity="0.396078" cx="255" cy="121" rx="6" ry="72" />
<ellipse fill="#383c3a" fill-opacity="0.541176" cx="74" cy="0" rx="16" ry="13" />
<ellipse fill="#080e0d" fill-opacity="0.541176" cx="215" cy="114" rx="3" ry="14" />
<ellipse fill="#565b5d" fill-opacity="0.552941" cx="200" cy="109" rx="2" ry="16" />
<ellipse fill="#2f312b" fill-opacity="0.525490" cx="191" cy="72" rx="11" ry="30" />
<ellipse fill="#050500" fill-opacity="0.439216" cx="212" cy="35" rx="8" ry="12" />
<ellipse fill="#3e4341" fill-opacity="0.388235" cx="147" cy="0" rx="12" ry="12" />
<ellipse fill="#1d201e" fill-opacity="0.458824" cx="33" cy="94" rx="11" ry="24" />
<ellipse fill="#050700" fill-opacity="0.368627" cx="157" cy="45" rx="4" ry="12" />
<ellipse fill="#323433" fill-opacity="0.541176" cx="227" cy="93" rx="5" ry="30" />
<ellipse fill="#6f7b84" fill-opacity="0.376471" cx="228" cy="126" rx="5" ry="4" />
<ellipse fill="#42423e" fill-opacity="0.505882" cx="65" cy="81" rx="2" ry="39" />
<ellipse fill="#161a16" fill-opacity="0.549020" cx="129" cy="97" rx="14" ry="42" />
<ellipse fill="#2b2e29" fill-opacity="0.639216" cx="111" cy="0" rx="8" ry="21" />
<ellipse fill="#24211b" fill-opacity="0.419608" cx="153" cy="111" rx="3" ry="18" />
<ellipse fill="#0a0b05" fill-opacity="0.403922" cx="141" cy="58" rx="1" ry="82" />
<ellipse fill="#636059" fill-opacity="0.305882" cx="106" cy="89" rx="1" ry="44" />
<ellipse fill="#090900" fill-opacity="0.462745" cx="93" cy="6" rx="3" ry="6" />
<ellipse fill="#94897a" fill-opacity="0.156863" cx="91" cy="133" rx="2" ry="81" />
<ellipse fill="#4e504c" fill-opacity="0.337255" cx="144" cy="68" rx="2" ry="43" />
<ellipse fill="#333635" fill-opacity="0.705882" cx="178" cy="142" rx="10" ry="12" />
<ellipse fill="#000000" fill-opacity="0.701961" cx="114" cy="75" rx="2" ry="57" />
<ellipse fill="#3f4240" fill-opacity="0.713725" cx="130" cy="142" rx="26" ry="1" />
<ellipse fill="#38352e" fill-opacity="0.380392" cx="94" cy="111" rx="2" ry="98" />
<ellipse fill="#6d6f70" fill-opacity="0.356863" cx="108" cy="142" rx="2" ry="34" />
<ellipse fill="#7f878b" fill-opacity="0.533333" cx="206" cy="134" rx="5" ry="2" />
<ellipse fill="#363939" fill-opacity="0.525490" cx="201" cy="128" rx="13" ry="4" />
<ellipse fill="#2b3032" fill-opacity="0.411765" cx="220" cy="142" rx="16" ry="10" />
<ellipse fill="#1c1d17" fill-opacity="0.501961" cx="221" cy="91" rx="2" ry="28" />
<ellipse fill="#0f120f" fill-opacity="0.615686" cx="236" cy="86" rx="5" ry="27" />
<ellipse fill="#6f6e6c" fill-opacity="0.360784" cx="186" cy="126" rx="3" ry="11" />
<ellipse fill="#241f13" fill-opacity="0.486275" cx="85" cy="87" rx="3" ry="7" />
<ellipse fill="#1e1e15" fill-opacity="0.478431" cx="69" cy="32" rx="6" ry="19" />
<ellipse fill="#080c08" fill-opacity="0.521569" cx="6" cy="105" rx="14" ry="26" />
<ellipse fill="#222729" fill-opacity="0.400000" cx="240" cy="122" rx="3" ry="51" />
<ellipse fill="#252620" fill-opacity="0.490196" cx="159" cy="78" rx="4" ry="8" />
<ellipse fill="#161a18" fill-opacity="0.580392" cx="119" cy="134" rx="7" ry="8" />
<ellipse fill="#060400" fill-opacity="0.403922" cx="171" cy="88" rx="2" ry="48" />
<ellipse fill="#424a51" fill-opacity="0.537255" cx="245" cy="142" rx="4" ry="33" />
<ellipse fill="#0f140d" fill-opacity="0.427451" cx="194" cy="54" rx="2" ry="21" />
<ellipse fill="#0b0e07" fill-opacity="0.592157" cx="207" cy="70" rx="6" ry="43" />
<ellipse fill="#393c38" fill-opacity="0.521569" cx="56" cy="23" rx="6" ry="18" />
<ellipse fill="#343935" fill-opacity="0.513725" cx="200" cy="65" rx="2" ry="34" />
<ellipse fill="#646360" fill-opacity="0.537255" cx="163" cy="135" rx="3" ry="5" />
<ellipse fill="#55544e" fill-opacity="0.643137" cx="86" cy="62" rx="5" ry="5" />
<ellipse fill="#585955" fill-opacity="0.176471" cx="58" cy="49" rx="8" ry="22" />
<ellipse fill="#615d55" fill-opacity="0.631373" cx="148" cy="112" rx="5" ry="5" />
<ellipse fill="#393a38" fill-opacity="0.482353" cx="219" cy="100" rx="2" ry="31" />
<ellipse fill="#1a1c17" fill-opacity="0.372549" cx="105" cy="136" rx="1" ry="122" />
<ellipse fill="#000200" fill-opacity="0.607843" cx="255" cy="5" rx="8" ry="18" />
<ellipse fill="#2e2c24" fill-opacity="0.411765" cx="76" cy="120" rx="3" ry="24" />
</g>
</svg>